<svg xmlns="http://www.w3.org/2000/svg" xmlns:xlink="http://www.w3.org/1999/xlink" width="140px" height="20px">
  <g transform="scale(0.08 0.1)">
  <g transform="translate(1320,625)">
    <rect style="fill:#ffffff;fill-opacity:1" id="rect2380" width="400" height="200" x="-1354.7858" y="-624.28076"/>
    <path style="font-size:111.04283142px;font-style:normal;font-variant:normal;font-weight:normal;font-stretch:normal;text-align:start;line-height:125%;writing-mode:lr-tb;text-anchor:start;fill:#1d77a7;fill-opacity:1;stroke:none;stroke-width:1px;stroke-linecap:butt;stroke-linejoin:miter;stroke-opacity:1;font-family:times new roman;-inkscape-font-specification:times times roman" d="M -1239.9447,-564.29543 L -1238.2638,-539.29994 L -1239.9447,-539.29994 C -1242.1858,-546.78227 -1245.3848,-552.16813 -1249.5416,-555.45754 C -1253.6986,-558.74683 -1258.6868,-560.39151 -1264.5064,-560.39158 C -1269.3862,-560.39151 -1273.7961,-559.15348 -1277.7361,-556.6775 C -1281.6761,-554.20138 -1284.7757,-550.25235 -1287.0349,-544.8304 C -1289.294,-539.40833 -1290.4236,-532.66697 -1290.4236,-524.60629 C -1290.4236,-517.95526 -1289.3573,-512.18986 -1287.2246,-507.31007 C -1285.092,-502.43024 -1281.884,-498.68906 -1277.6006,-496.0865 C -1273.3172,-493.48393 -1268.4284,-492.18265 -1262.934,-492.18265 C -1258.1627,-492.18265 -1253.9516,-493.20379 -1250.3007,-495.24609 C -1246.65,-497.28837 -1242.6377,-501.34584 -1238.2638,-507.41851 L -1236.583,-506.3341 C -1240.2701,-499.79153 -1244.5715,-495.00209 -1249.4874,-491.96577 C -1254.4034,-488.92944 -1260.2411,-487.41128 -1267.0005,-487.41128 C -1279.182,-487.41128 -1288.6163,-491.92962 -1295.3034,-500.96631 C -1300.2917,-507.68959 -1302.7858,-515.60572 -1302.7858,-524.71473 C -1302.7858,-532.05248 -1301.1411,-538.79384 -1297.8518,-544.93884 C -1294.5624,-551.08372 -1290.0351,-555.84606 -1284.2696,-559.22584 C -1278.5043,-562.60549 -1272.2057,-564.29535 -1265.3739,-564.29543 C -1260.0604,-564.29535 -1254.8191,-562.99407 -1249.6501,-560.39158 C -1248.132,-559.59628 -1247.0476,-559.19866 -1246.3969,-559.19873 C -1245.421,-559.19866 -1244.5715,-559.54206 -1243.8485,-560.22892 C -1242.9088,-561.20481 -1242.2401,-562.56031 -1241.8424,-564.29543 L -1239.9447,-564.29543 z M -1218.7446,-499.61081 C -1217.0457,-499.6108 -1215.6179,-499.02341 -1214.4612,-497.84865 C -1213.3045,-496.67388 -1212.7262,-495.25512 -1212.7262,-493.59237 C -1212.7262,-491.92962 -1213.3136,-490.51086 -1214.4883,-489.33609 C -1215.6631,-488.16132 -1217.0819,-487.57394 -1218.7446,-487.57394 C -1220.4074,-487.57394 -1221.8261,-488.16132 -1223.0009,-489.33609 C -1224.1757,-490.51086 -1224.763,-491.92962 -1224.763,-493.59237 C -1224.763,-495.29126 -1224.1757,-496.71906 -1223.0009,-497.87576 C -1221.8261,-499.03245 -1220.4074,-499.6108 -1218.7446,-499.61081 L -1218.7446,-499.61081 z M -1142.8364,-491.09825 L -1142.8364,-489.0921 L -1174.3383,-489.0921 L -1174.3383,-491.09825 L -1171.7358,-491.09825 C -1168.6994,-491.09824 -1166.4945,-491.98384 -1165.1209,-493.75503 C -1164.2534,-494.91172 -1163.8196,-497.69502 -1163.8196,-502.10493 L -1163.8196,-549.60177 C -1163.8196,-553.32482 -1164.0546,-555.7828 -1164.5245,-556.97571 C -1164.886,-557.87931 -1165.627,-558.65646 -1166.7475,-559.30717 C -1168.338,-560.17462 -1170.0007,-560.60839 -1171.7358,-560.60846 L -1174.3383,-560.60846 L -1174.3383,-562.6146 L -1142.8364,-562.6146 L -1142.8364,-560.60846 L -1145.4932,-560.60846 C -1148.4934,-560.60839 -1150.6803,-559.72279 -1152.0538,-557.95167 C -1152.9575,-556.79491 -1153.4094,-554.01161 -1153.4093,-549.60177 L -1153.4093,-502.10493 C -1153.4094,-498.38181 -1153.1744,-495.92383 -1152.7045,-494.731 C -1152.343,-493.82732 -1151.584,-493.05017 -1150.4272,-492.39953 C -1148.873,-491.53201 -1147.2283,-491.09824 -1145.4932,-491.09825 L -1142.8364,-491.09825 z M -1126.1366,-499.61081 C -1124.4377,-499.6108 -1123.0099,-499.02341 -1121.8532,-497.84865 C -1120.6965,-496.67388 -1120.1182,-495.25512 -1120.1182,-493.59237 C -1120.1182,-491.92962 -1120.7056,-490.51086 -1121.8803,-489.33609 C -1123.0551,-488.16132 -1124.4739,-487.57394 -1126.1366,-487.57394 C -1127.7994,-487.57394 -1129.2181,-488.16132 -1130.3929,-489.33609 C -1131.5677,-490.51086 -1132.1551,-491.92962 -1132.155,-493.59237 C -1132.1551,-495.29126 -1131.5677,-496.71906 -1130.3929,-497.87576 C -1129.2181,-499.03245 -1127.7994,-499.6108 -1126.1366,-499.61081 L -1126.1366,-499.61081 z M -1033.5828,-564.29543 L -1033.5828,-538.86618 L -1035.589,-538.86618 C -1036.2397,-543.74594 -1037.4054,-547.63171 -1039.0862,-550.52351 C -1040.7671,-553.41519 -1043.1618,-555.7105 -1046.2704,-557.40947 C -1049.379,-559.1083 -1052.5961,-559.95774 -1055.9215,-559.95782 C -1059.6808,-559.95774 -1062.7894,-558.81009 -1065.2474,-556.51484 C -1067.7054,-554.21945 -1068.9344,-551.60785 -1068.9344,-548.68003 C -1068.9344,-546.43887 -1068.1572,-544.39658 -1066.6029,-542.55315 C -1064.3618,-539.8421 -1059.0302,-536.22742 -1050.608,-531.70913 C -1043.7401,-528.02212 -1039.0501,-525.19364 -1036.5378,-523.22368 C -1034.0257,-521.25365 -1032.0918,-518.93122 -1030.7363,-516.25639 C -1029.3808,-513.5815 -1028.7031,-510.78013 -1028.703,-507.85227 C -1028.7031,-502.28565 -1030.8629,-497.48718 -1035.1823,-493.45682 C -1039.5019,-489.42646 -1045.0595,-487.41128 -1051.855,-487.41128 C -1053.9877,-487.41128 -1055.9939,-487.57394 -1057.8735,-487.89926 C -1058.994,-488.07999 -1061.3165,-488.73967 -1064.8407,-489.87829 C -1068.3651,-491.01691 -1070.5971,-491.58623 -1071.5369,-491.58623 C -1072.4406,-491.58623 -1073.1545,-491.31513 -1073.6786,-490.77293 C -1074.2028,-490.23072 -1074.5913,-489.11018 -1074.8444,-487.41128 L -1076.8505,-487.41128 L -1076.8505,-512.62364 L -1074.8444,-512.62364 C -1073.9046,-507.3462 -1072.6394,-503.39717 -1071.049,-500.77654 C -1069.4585,-498.15589 -1067.0276,-495.97805 -1063.7563,-494.24301 C -1060.4851,-492.50797 -1056.8975,-491.64045 -1052.9936,-491.64045 C -1048.4753,-491.64045 -1044.9059,-492.83329 -1042.2852,-495.21898 C -1039.6646,-497.60465 -1038.3543,-500.4241 -1038.3542,-503.67732 C -1038.3543,-505.48464 -1038.8513,-507.31005 -1039.8453,-509.15355 C -1040.8393,-510.99701 -1042.3846,-512.71398 -1044.4811,-514.30446 C -1045.8908,-515.38884 -1049.7405,-517.69319 -1056.03,-521.21753 C -1062.3195,-524.7418 -1066.7927,-527.55221 -1069.4495,-529.64876 C -1072.1063,-531.74523 -1074.1214,-534.05862 -1075.495,-536.58894 C -1076.8686,-539.11916 -1077.5554,-541.90246 -1077.5554,-544.93884 C -1077.5554,-550.2162 -1075.5312,-554.76165 -1071.4827,-558.5752 C -1067.4343,-562.38861 -1062.2834,-564.29535 -1056.03,-564.29543 C -1052.1262,-564.29535 -1047.9874,-563.33746 -1043.6136,-561.42176 C -1041.5894,-560.51802 -1040.1616,-560.06618 -1039.3302,-560.06626 C -1038.3904,-560.06618 -1037.6223,-560.34632 -1037.0258,-560.90667 C -1036.4294,-561.46687 -1035.9505,-562.59645 -1035.589,-564.29543 L -1033.5828,-564.29543 z M -1008.8042,-499.61081 C -1007.1054,-499.6108 -1005.6776,-499.02341 -1004.5209,-497.84865 C -1003.3642,-496.67388 -1002.7858,-495.25512 -1002.7858,-493.59237 C -1002.7858,-491.92962 -1003.3732,-490.51086 -1004.548,-489.33609 C -1005.7228,-488.16132 -1007.1415,-487.57394 -1008.8042,-487.57394 C -1010.467,-487.57394 -1011.8858,-488.16132 -1013.0605,-489.33609 C -1014.2353,-490.51086 -1014.8227,-491.92962 -1014.8227,-493.59237 C -1014.8227,-495.29126 -1014.2353,-496.71906 -1013.0605,-497.87576 C -1011.8858,-499.03245 -1010.467,-499.6108 -1008.8042,-499.61081 L -1008.8042,-499.61081 z" id="text3209"/>
  </g>
  </g>
  <text x="28" y="15" font-size="16px" font-family="arial" fill="#333">СНГ</text>
</svg>