<?xml version="1.0" encoding="UTF-8"?>
<!-- Generator: Adobe Illustrator 13.0.2, SVG Export Plug-In . SVG Version: 6.00 Build 14948)  -->
<!DOCTYPE svg PUBLIC "-//W3C//DTD SVG 1.0//EN" "http://www.w3.org/TR/2001/REC-SVG-20010904/DTD/svg10.dtd">
<svg version="1.0" xmlns="http://www.w3.org/2000/svg" xmlns:xlink="http://www.w3.org/1999/xlink" width="391.393px" height="527.249px">
<path fill-rule="evenodd" clip-rule="evenodd" fill="#2A5C98" d="M244.185,3.459c0.609,2.435-2.232,4.058-1.825,6.696  c0.609,3.45,4.26,6.29,2.637,10.146c-1.219,1.421-2.027,3.246-3.246,4.869c-1.014-2.029-0.407-4.261-1.825-6.086  c-3.653-5.479-10.351-10.146-7.104-17.247c0.407-2.03,2.842-2.03,4.263-1.625C239.518,1.431,242.154,1.836,244.185,3.459  L244.185,3.459L244.185,3.459z"/>
<path fill-rule="evenodd" clip-rule="evenodd" fill="#0091CF" d="M153.889,5.69c2.435-0.202,5.275-0.608,7.709-1.217  c-12.784,3.855-25.162,11.972-37.336,18.668l0,0l-6.088,4.667l-16.03,16.031c-4.465,3.246-5.682,8.319-9.334,12.174  C87.534,65.957,82.665,75.9,80.027,86.857c-1.421,2.231-1.014,4.869-2.436,6.899c0.609,3.044-1.419,5.073-1.216,8.115  c-2.436,7.711-2.232,14.814-2.842,23.133c1.827,14.813,3.45,29.829,8.117,44.033l0,0l3.246,9.942l0.204-0.204  c1.015,6.697,6.086,11.77,7.913,18.06c7.509,10.553,13.597,21.104,23.944,30.032c1.421,2.231,4.058,3.855,4.058,6.492l0,0  l-0.608,0.813c-10.146-3.248-16.639-11.364-24.554-17.654c-11.769-12.174-18.667-26.987-24.349-42.003  c-5.276-14.001-7.509-29.423-8.117-44.235c1.827-29.626,9.132-57.832,25.973-81.166c1.825-1.625,3.45-3.857,4.871-6.089  c10.957-11.565,24.349-23.131,38.35-30.029c4.261-0.813,7.711-3.857,11.77-5.276c1.623,0.406,2.435-1.421,3.855-1.015  c2.84-1.421,6.086-3.044,9.536-3.044c0.407,0,0.407-1.015,1.217-0.608l0,0L153.889,5.69L153.889,5.69z"/>
<path fill-rule="evenodd" clip-rule="evenodd" fill="#FFE100" d="M192.848,17.257c1.015,0.407,1.825-1.623,3.044-1.217  c0.406-0.406,0.609-0.812,0.812-1.421c-0.202,0.609,0.406,1.015,0.608,1.015c0.406-0.202,0.406-0.812,0.812-0.406l0,0v0.204  c0.204,0.202,0.609-0.204,1.015-0.204s1.016,2.029,1.825,0.608c0,0.406,0.407,0.204,0.609,0.204l0,0l0.202-0.204  c0.205,0.204,0.814,1.219,1.623,1.219c1.828-0.813,3.451,0,5.276,0.812c-0.202,0.812,0.812,0.812,1.219,1.217  c1.014-1.217,2.232,0.406,2.842,1.015l0,0l1.014-1.827c0,0.608-1.421,2.231,0.404,2.435c0.812,0.202,1.219-0.608,1.421-1.014  c0.609,0.406,1.017,0.608,1.017,1.216c-0.609,0.813-0.609-0.406-1.421-0.202l0,0v1.015c0.812,0,2.232,0.608,2.637-0.813l0,0v-0.406  c1.623,0,0.609,1.827,2.232,1.827l0,0l0.407-0.406c-0.205,0-0.205-0.202-0.407-0.202c0-0.406,0.609-0.813,1.216-0.406l0,0v1.419  c-3.448,2.842-7.913,1.625-11.769,2.842c-2.637,0.406-5.681,0.812-8.522,1.825c-4.26,0.609-8.319,1.827-12.58,2.842  c-9.536,2.638-19.276,4.667-27.798,9.74c-2.842,1.014-6.899,1.217-9.943,0c-2.029,0.406-3.855-0.812-5.884-1.217  c0-1.015,1.827-1.015,1.217-2.436c-0.204-0.202-0.609,0-1.015,0l0,0l-0.608,0.406l-2.232-1.825c0.204-0.406,1.015,0,1.217-0.609  c-0.202-0.406-0.202-0.609-0.406-0.812c0.406,0.202,0.609-1.015,1.217-0.406c0.609,0.406,0.812,1.015,0.407,1.421l0,0l-0.204,0.406  c0.406,0.406,1.827,1.014,1.623-0.406c-0.609-1.015,0.609-0.813,0-1.827c0.812,0,0.609,1.014,1.421,0.609  c0-2.436,2.231,0.812,2.435-1.625c0.406,0,0.608-0.406,0.608-1.014c0,0-0.202-0.204-0.406-0.204l0,0l-0.406,0.406  c-0.608-0.202,0.406-1.217,0.609-2.029c1.015,0.609,1.421,0,2.435,0c0.406,0,0.204,0.812,0.609,0.609  c0.204-1.217,0.204-3.044,1.825-3.45c0.813,0.812,1.827,0.406,2.436,1.014c0.202-0.202,0.202-0.812,0.202-1.217  c0.812-0.406,1.015,0.406,1.217,1.015c1.015-0.406,0.204-1.625,0.609-2.232c0.609,0.204,0.812-0.406,1.015-0.608  c0-0.609-0.609-1.219,0-1.827l0,0h0.81c-1.014,0.812,0.204,1.217,0,2.232c1.017-0.406,2.232-0.609,2.638-1.827  c0.609,1.217,2.03,1.217,2.842,0.812l0,0l1.623-0.812c0.204,0.202,0,0.608,0.406,0.608c0.812-0.406,0.406-1.014,0.406-1.623l0,0  l-0.202-0.202c0.608-0.204,1.419,0.202,1.217-0.813c0-0.202,0.202-0.404-0.204-0.608l0,0h-0.406  c-0.406-0.608,0.204-0.812,0.609-0.812l0,0h0.406c-0.204,0.204,0.202,0.204,0.406,0.406l0,0l0.609-1.015  c-0.204,0.813,0.608,0.813,1.014,1.219c0.609,0,1.015-0.406,1.421-0.609l0,0v-0.609c1.217,0.406,1.623,1.219,2.232,2.029  c0.404-1.623,2.84,0.609,2.435-1.825l0,0l1.014-1.421c0.813,0.609,0,1.217,0,1.623c0.406,0.609,1.219,0,1.623,0.407  c0.204-0.609-0.202-1.623,0.813-1.623c0.202,0.608,1.217,0.202,1.623,0.202c0.406-0.202,0.406-0.812,1.015-0.202l0,0l1.216,1.014  l0.406-0.406c-0.406,0-0.202-0.608-0.202-0.608l0,0l1.623-1.625c0,0.609-0.406,1.015-0.202,1.625c0.406,0.81,0.812-0.407,1.419,0  c0,0-0.202,0.404,0.204,0.404l0,0l1.015-1.217l-0.609-0.406c0.204-0.204,0.812-0.812,1.014-1.217c0.204-0.406,0.609,0,0.813,0.406  c0.608-0.202,1.014-0.812,0.812-1.421l0,0L192.848,17.257L192.848,17.257z"/>
<path fill-rule="evenodd" clip-rule="evenodd" fill="#FFE100" d="M206.239,14.822c-0.202,0.406,0,0.812-0.404,1.014l0,0  l-0.205-1.014H206.239L206.239,14.822z"/>
<path fill-rule="evenodd" clip-rule="evenodd" fill="#FFE100" d="M183.514,17.055h-0.202V16.04  C183.312,16.242,183.716,16.649,183.514,17.055L183.514,17.055L183.514,17.055z"/>
<polygon fill-rule="evenodd" clip-rule="evenodd" fill="#FFE100" points="214.964,19.287 214.56,19.287 214.56,18.88 214.964,18.88   214.964,19.287 "/>
<path fill-rule="evenodd" clip-rule="evenodd" fill="#FFE100" d="M222.678,23.141l-0.205,0.406l-0.609-1.419  C222.473,22.33,222.473,22.939,222.678,23.141L222.678,23.141L222.678,23.141z"/>
<path fill-rule="evenodd" clip-rule="evenodd" fill="#FFE100" d="M157.135,25.779c-0.204,0-0.204,0.204-0.407,0.204l0,0v-1.015  C156.931,24.968,157.337,25.374,157.135,25.779L157.135,25.779L157.135,25.779z"/>
<path fill-rule="evenodd" clip-rule="evenodd" fill="#2A5C98" d="M254.737,32.882c10.755,6.086,23.944,7.305,33.683,16.03  c7.711,4.261,9.132,14.001,15.624,19.683c9.132,6.492,21.51,10.348,26.786,21.103c-0.202,0.608-0.407,1.421-0.407,2.029  c-10.348-12.174-28.608-8.725-37.945-21.914c-5.071-12.582-17.651-19.683-29.218-25.364c-4.667-2.436-10.146-5.886-11.769-11.77  c0-0.609-0.205-1.217,0.404-1.623C253.316,30.852,253.519,32.475,254.737,32.882L254.737,32.882L254.737,32.882z"/>
<path fill-rule="evenodd" clip-rule="evenodd" fill="#2A5C98" d="M235.46,33.896c-6.492,5.682-15.624,5.682-22.931,9.74  c-14.407,6.088-27.189,15.016-43.22,17.654c-4.058,0.406-7.711,0-11.566-1.015c-14.001-2.84-27.19-7.711-41.597-8.522  c-5.276-0.202-10.146,0.812-15.016-0.608c8.726-5.682,20.089-5.48,31.046-4.465c9.741,1.014,19.683,4.465,29.626,3.246  c15.42-5.884,30.234-13.797,47.684-14.813c1.828,0,4.061-0.812,5.479-0.202l0,0l0.407-0.406  C221.661,33.288,229.981,34.1,235.46,33.896L235.46,33.896L235.46,33.896z"/>
<path fill-rule="evenodd" clip-rule="evenodd" fill="#0097D5" d="M304.044,39.984c0.205,0.608-0.404,1.014-0.606,1.419  c-0.407-0.202-1.017-0.812-1.017-1.419C303.03,40.39,303.438,39.375,304.044,39.984L304.044,39.984L304.044,39.984z"/>
<path fill-rule="evenodd" clip-rule="evenodd" fill="#0097D5" d="M303.842,42.622c-0.202,0.202-0.202,0.404-0.202,0.404  c0.404,1.015,1.014,0,1.623,0.204c-0.202,0.406-0.202,0.812-0.202,1.219l0,0l0.812,0.81l-0.609,0.609  c0-0.609-0.812-0.812-1.219-0.406c0.407-0.608-0.404-1.217-0.202-1.827l0,0l-0.812-0.609  C303.232,42.622,303.64,42.824,303.842,42.622L303.842,42.622L303.842,42.622z"/>
<path fill-rule="evenodd" clip-rule="evenodd" fill="#0091CF" d="M305.872,36.736v0.407c-0.609,0.202-0.609-0.407-1.017-0.609l0,0  v-0.609C305.263,35.723,305.465,36.736,305.872,36.736L305.872,36.736L305.872,36.736z"/>
<polygon fill-rule="evenodd" clip-rule="evenodd" fill="#0091CF" points="298.768,36.534 297.754,36.534 297.754,36.128   298.768,36.128 298.768,36.534 "/>
<path fill-rule="evenodd" clip-rule="evenodd" fill="#0091CF" d="M302.219,37.751l-0.404,0.406l-0.205-0.406  c-0.404,0.812-0.404,2.029,0.609,2.232c-0.202-1.421,1.421-0.812,2.03-1.217c0.606,0.406,0.404,1.217,1.216,1.421l0,0l1.219-0.204  c0,0.204-0.205,0.406,0.202,0.608c-1.014,0-1.219,1.219-1.825,1.625c1.014,0.406,0.202,2.029,1.623,1.623  c0.202-0.204,0.606-0.406,0.606-0.813c-0.606-0.202-1.014-0.608-1.014-1.014c0.407,0.204,1.828-1.015,1.623,0.406  c0.407,1.015,1.828-0.406,1.623,1.015c2.03,0.812,1.421,3.855,3.451,4.058c1.216,1.217,1.421,3.044,3.044,4.261  c0,1.217,1.421,1.827,1.825,2.638c5.276,8.522,10.553,17.045,13.597,26.379l0,0h-0.407c-5.071-4.869-10.957-10.551-16.843-13.797  c0-1.827-3.246-0.609-2.435-2.842l0,0h-2.027c0.202-0.406,0.812-0.812,0.606-1.217c-0.606-0.202-1.418-0.406-1.014-1.217  c0.407-0.204,0.609,1.015,1.219,0.406c0-0.812-0.812-0.812-1.219-1.217c-0.609,0.202-0.812,0.608-1.421,0.406  c0.407-0.812,0-1.623,1.017-2.232c0.202,0,0.606,0.202,0.606-0.204c0-0.608-0.812-1.014-1.418-1.014c-0.407,0,0,0.812-0.609,0.609  l0,0l-0.205-0.204l0.407-0.406c-0.407-0.812-0.812,0-1.219,0c-0.202,0.609-0.202,1.419-1.014,1.217  c-1.216-0.608,1.014-2.84-1.216-2.435l0,0l-0.609,0.406c-0.407-0.406-0.609-1.217-1.219-2.03l0,0l1.219-0.406  c-0.609-1.014-0.407-1.825-0.407-3.042c0.205,0,0.407,0,0.407-0.204c-0.812-0.202,0-1.015,0.202-1.623l0,0h1.014  c1.017,1.827-2.435,2.029-1.014,3.653c0.812-0.609,2.637-0.204,2.435-1.827c-0.202-0.609,0.407-2.435-0.609-2.842l0,0h-1.825  c-0.404,0.812-1.219,1.217-1.623,2.03l0,0l-0.404-1.015l-1.219,1.217c-0.205-1.217-2.435-0.202-1.623-1.825l0,0l0.609-0.407  c-1.219-0.608-1.421-1.419-2.03-2.231c0.404-0.407,0.202-1.015,0.202-1.421c0.202,0,0.407,0,0.407-0.202l0,0l0.606,0.608  l0.814-0.812l-0.609-0.812l1.014-0.609l0.202,1.219c1.017-0.609,0.202-1.625,0.609-2.638c0.407,0,0.407-0.407,0.812-0.407  c0.407-1.825-1.014-2.029-2.027-2.435c0.809,0.204,1.014-1.419,1.825-1.419l0,0l-1.219-0.609l0.202-0.406  C301,36.94,301.814,37.144,302.219,37.751L302.219,37.751L302.219,37.751z"/>
<path fill-rule="evenodd" clip-rule="evenodd" fill="#0091CF" d="M300.188,40.998c-0.404,0-1.014,0.204-1.216-0.202  c-0.205-0.608,0.404-1.015,0.812-1.217C300.391,39.78,299.986,40.39,300.188,40.998L300.188,40.998L300.188,40.998z"/>
<polygon fill-rule="evenodd" clip-rule="evenodd" fill="#0091CF" points="298.161,41.403 298.363,41.403 298.363,42.418   298.161,42.418 298.161,41.403 "/>
<path fill-rule="evenodd" clip-rule="evenodd" fill="#0091CF" d="M297.754,43.839c-0.202,0.406-0.404,0.406-0.606,0.406V43.23  C297.35,43.434,297.754,43.636,297.754,43.839L297.754,43.839L297.754,43.839z"/>
<path fill-rule="evenodd" clip-rule="evenodd" fill="#0097D5" d="M304.249,48.101c-0.812-0.204-1.219,0.812-2.03,0.608  c0.404-0.406,0.202-0.812,0.202-1.217l0,0h0.609c0,0.202,0.202,0.202,0.202,0.406c0.407-0.204,0.609,0,0.812-0.204  c0.205-0.608-0.404-0.81-0.812-1.216l0,0l0.609-0.609C304.855,46.478,304.451,47.085,304.249,48.101L304.249,48.101L304.249,48.101z  "/>
<path fill-rule="evenodd" clip-rule="evenodd" fill="#0097D5" d="M306.479,47.693c-0.404-0.202-0.606,0.204-0.812,0.407  c0,0,0-1.217,0.812-1.217l0,0V47.693L306.479,47.693z"/>
<path fill-rule="evenodd" clip-rule="evenodd" fill="#2A5C98" d="M180.47,77.726c4.465,12.176,1.419,27.596-5.073,38.96  c-2.436,3.854-2.842,8.928-2.842,13.595c0.406,2.435,1.219,4.463,2.232,6.696c1.015,1.419,1.827,3.044,2.029,4.667  c-7.709-3.248-12.986-12.176-13.595-20.9c0-9.538,1.219-19.074,3.653-28.61c1.014-6.697,1.827-12.176,0.609-19.279  c-0.204-1.623,1.217-1.216,2.231-2.029C174.18,69.813,178.645,73.87,180.47,77.726L180.47,77.726L180.47,77.726z"/>
<path fill-rule="evenodd" clip-rule="evenodd" fill="#2A5C98" d="M304.451,90.306c-0.407,5.073-1.421,9.741-2.842,14.205l0,0  l-7.913,21.916c-1.014,3.652-2.842,6.898-3.855,10.551c-1.421,1.014-0.812,3.652-2.842,3.45c-0.404,0.202-0.202,1.015-0.812,0.812  c-3.855-4.465-3.653-11.161-3.246-17.045c1.219-11.972,4.667-23.944,9.741-34.698l0,0l2.637-3.857  C298.973,85.842,302.421,87.06,304.451,90.306L304.451,90.306L304.451,90.306z"/>
<polygon fill-rule="evenodd" clip-rule="evenodd" fill="#0091CF" points="134.204,113.033 134.002,112.425 135.423,112.627   134.204,113.033 "/>
<path fill-rule="evenodd" clip-rule="evenodd" fill="#0091CF" d="M125.276,113.844c0.407,0.406-0.202,0.406-0.406,0.813  C124.668,114.25,124.87,113.642,125.276,113.844L125.276,113.844L125.276,113.844z"/>
<path fill-rule="evenodd" clip-rule="evenodd" fill="#0091CF" d="M127.305,114.859v0.812c-1.216,0,1.017,2.435-0.81,1.217  c0.406-1.015-0.812-0.812-0.406-2.029C126.495,114.454,127.305,114.25,127.305,114.859L127.305,114.859L127.305,114.859z"/>
<path fill-rule="evenodd" clip-rule="evenodd" fill="#0091CF" d="M147.597,114.454c0.202,0.406-0.202,0.608-0.406,0.812  c-0.406-0.406-2.029,0.608-1.421-1.015C146.38,114.25,147.191,114.25,147.597,114.454L147.597,114.454L147.597,114.454z"/>
<path fill-rule="evenodd" clip-rule="evenodd" fill="#0091CF" d="M140.09,116.28c0.812,0.812-1.015,1.623,0,2.029  c1.014-0.204,0.406-1.623,1.419-1.623l0,0l-0.406,1.217c1.219-0.609,2.03,0.812,3.248-0.204c0-0.608-1.015-1.217-0.406-1.827  c0.202,0.204,0.609,0,0.812,0.204l0,0l-0.406,0.406c0.812,0.609,0.812,1.015,1.014,1.827c1.421-0.406,2.232-1.421,3.248-2.029  c-0.204,0.812,1.014,1.014,1.623,1.217c0-0.406,0.609-0.812,1.015-0.609c0.406,0.609-0.204,2.232,1.217,1.623l0,0h0.608  c0,0.609-1.015,1.623,0.204,2.029l0,0h0.406c-0.609,0.813,0.608,1.015,1.217,1.219c0,5.884,1.825,11.363,2.638,17.045  c0.609,1.217,0.812,2.435,1.217,3.652l0,0l3.246,6.899c0,0.406-0.406,1.421-1.419,1.421c-7.915,6.492-16.233,12.782-22.727,20.899  c-3.855,4.667-8.522,9.538-11.159,15.016c-5.48,6.899-8.32,15.016-11.974,22.727l0,0h-0.406c-12.58-15.22-20.9-33.684-26.175-52.758  c1.014-2.03-1.827-3.044-0.609-4.871c-1.419-1.827-0.202-3.652-1.419-5.681c0-0.609,1.014-1.421,0.202-2.029  c1.217-1.017,1.625-2.436,3.246-2.436c0.204-0.812,1.219-1.015,1.015-2.029c-0.608,0.202-0.406-1.015-1.015-0.406l0,0l-0.608-0.406  c0.406-0.609,1.623,0,1.827-1.015c0-0.406-0.609-0.406-0.406-1.015l0,0l0.406-0.406c0.202,0.406,0.202,0.813,0.608,1.015  c0.406,0.204,0.609-0.202,0.812-0.406c-0.202-0.812,0.407-1.217,1.015-1.623l0,0l1.015,0.812c0.608-0.204,0.202-1.014,0.406-1.623  c-0.609,0-0.609-0.813-0.813-1.219c0.407-0.404,0.813-1.014,0.204-1.217c0.406-0.202,1.015-0.202,1.217-0.812l0,0h-0.202v-0.406  h0.202c0,0.204,0,0.406,0.406,0.609l0,0h0.406l0.204-1.623c1.015,0,1.217,0.406,1.217,1.217c0.608-0.406,1.827-1.015,1.014-1.827  c0,0-0.202-0.204-0.202-0.406c0.202-0.406,0.609-0.202,1.015-0.202l0,0v0.81c0.202,0.204,1.014-0.202,1.014-0.608l0,0l-0.406-1.623  c0.609-0.204,1.421,0.812,1.421-0.204c1.014,0.406,0.204,1.421,0.812,2.029c0.812-0.202,1.015-1.217,0.406-1.825  c0-0.407-0.608-0.609-0.406-1.217c1.015-0.812,1.623,0.608,2.029,1.419l0,0l0.204,0.204c0.608-1.421,2.435-1.015,2.637-2.435  c1.015-0.204,1.015-2.436,2.436-1.217c0.812-0.813-1.015-1.828,0-2.232c0.608,0.404,0,1.623,0.812,1.827l0,0l0.204-0.407  c0.812,0.609,1.014,1.623,1.216,2.638c1.421-0.608-0.202-3.044,1.625-3.653c0.812-0.404,0.202-1.014,0.406-1.623  c0.608,0.609,1.014,1.219,2.029,1.015c0,0,0.202-0.202,0.202-0.406c0.813,0.204,0.609,1.623,1.827,1.217  c0-1.014,0.204-1.623,0-2.638c-0.608-0.404-0.812-0.81-0.812-1.623l0,0l1.217-0.406c-0.608,1.827,1.421,2.435,2.232,3.45  c0.202-1.217,0.202-2.638-0.608-3.652c-0.609-1.827,1.623-0.812,2.232-2.03c1.622-0.81,0.606,1.827,2.231,0.813  c0,0.406,0.204,0.812,0,0.812l0,0l-1.421-0.406c-0.204,0.406,0.204,1.014,0.406,1.623c1.827-0.406,0.204,2.435,2.232,1.623  c0.609-1.217,1.015-2.435,2.435-2.435c0.609,0.406,1.421,0.202,2.029,0.202c0.609-1.419,2.638-1.827,4.261-2.232  c0,0.204-0.404,0.406-0.608,0.609c0.608,1.015,1.015-0.204,1.623,0l0,0l0.407-0.406c0.202,1.015,0.404,2.029,1.216,2.84  c0.407-0.608,0.407-1.419,0-2.029c-0.202,0-0.406,0.204-0.406,0.204c-0.202-0.406,0.406-1.421,0.813-2.232  C139.075,114.454,138.061,117.092,140.09,116.28L140.09,116.28L140.09,116.28z"/>
<path fill-rule="evenodd" clip-rule="evenodd" fill="#0091CF" d="M129.335,114.859c0,0.406,0,0.608-0.202,0.812l0,0h-0.204v-0.812  H129.335L129.335,114.859z"/>
<path fill-rule="evenodd" clip-rule="evenodd" fill="#0091CF" d="M154.091,114.859c-0.202,0.202,0,0.608-0.406,0.812v-0.812H154.091  L154.091,114.859z"/>
<path fill-rule="evenodd" clip-rule="evenodd" fill="#0091CF" d="M153.076,117.7h-1.015c-0.202-0.812,0.204-1.217,0.813-1.623l0,0  h0.202V117.7L153.076,117.7z"/>
<path fill-rule="evenodd" clip-rule="evenodd" fill="#0091CF" d="M125.276,117.498c0,0.202,0.204,0.812-0.202,0.812l0,0l0,0v-0.812  H125.276L125.276,117.498z"/>
<path fill-rule="evenodd" clip-rule="evenodd" fill="#0091CF" d="M116.348,118.715h-0.406v-0.812  C116.348,118.105,116.146,118.511,116.348,118.715L116.348,118.715L116.348,118.715z"/>
<path fill-rule="evenodd" clip-rule="evenodd" fill="#0091CF" d="M112.494,122.163c0-1.216-3.248-2.231-0.204-2.637l0,0  L112.494,122.163L112.494,122.163z"/>
<path fill-rule="evenodd" clip-rule="evenodd" fill="#E20029" d="M233.228,63.521c-0.407-0.202-0.202-1.014,0.407-1.216  C233.635,62.507,233.635,63.319,233.228,63.521L233.228,63.521L233.228,63.521z"/>
<path fill-rule="evenodd" clip-rule="evenodd" fill="#E20029" d="M244.185,63.319c-0.202,0.202-0.407,0-0.812,0  c0.202-0.406-1.014-0.608-0.404-1.014l0,0L244.185,63.319L244.185,63.319z"/>
<path fill-rule="evenodd" clip-rule="evenodd" fill="#E20029" d="M239.72,64.334h0.205l-0.205,0.202  c-0.404,0.204-0.606-0.202-0.812-0.202l0,0l-0.606,0.406c0.202-0.204,0.404-1.623,1.418-1.623  C239.925,63.521,239.113,63.927,239.72,64.334L239.72,64.334L239.72,64.334z"/>
<path fill-rule="evenodd" clip-rule="evenodd" fill="#E20029" d="M237.083,64.334c0,0.202-0.202,0.406-0.407,0.202  c-0.202-0.202,0.407-0.609,0.205-1.217C237.285,63.319,237.083,64.13,237.083,64.334L237.083,64.334L237.083,64.334z"/>
<path fill-rule="evenodd" clip-rule="evenodd" fill="#E20029" d="M251.491,64.74l-0.205,0.202c1.017,0.204,1.017,1.827,2.232,1.623  c-0.202,1.015,0.407,1.421,0.812,2.232c0.407-0.609,0.407-1.217,1.014-1.623c1.219,0.608,2.64,0.406,3.855,0.608l0,0l-0.202,1.015  c0.609,0.406,1.219,0,1.828,0.204c0-0.813,0.606-1.421,1.014-2.029l0,0l1.421,0.202c-0.812,0.812-0.609,2.029-2.03,2.029  c1.219,2.638,2.03-1.421,3.653,0.812c0.609-0.404,1.418-1.014,2.232-1.014c1.216,1.217-2.435,2.84,0,2.84  c0.202-0.406,0.404-0.609,0.404-1.217c0.407,0.406,0,2.029,1.219,1.623c0,0.608-0.205,1.015,0.202,1.421  c0.202,0,0.407,0,0.609-0.204c0-0.406-0.609-0.609-0.407-1.015l0,0l0.609-0.608c0.812,0.608-0.202,2.029,1.623,1.827l0,0v1.217  c0.609,0.406,1.421,0,2.232,0.202c0.202-0.406,0.407-0.81,0.812-0.81l0,0l0.407,0.202c-0.812,0.406-2.03,1.014-2.03,2.232  c0.202,0.608,0.404,0.202,1.014,0c0.205-0.204,0.407-0.406,0.609-0.406c0.205,0.406-0.202,0.406-0.404,0.608l0,0l1.014,1.217  c0.202,0,0.609-0.406,0.812-0.609l0,0l1.014,1.015l1.014-1.015c-0.404,1.827-1.825,2.03-1.014,4.059  c1.219-0.406,1.623,0.406,2.03,1.217c0,0.406,0,0.406,0.202,0.609l0,0h0.609c-0.812,1.623,1.219,3.246,0.202,5.275  c-5.681,15.624-7.102,31.046-7.102,47.889c-13.597-0.609-28.204-0.812-40.787-0.406c-1.623-2.436-1.623-6.29-3.65-8.928  c0.609-1.015-1.017-1.217-1.219-2.029c0-1.217-1.825-3.045,0-3.855c-1.014-0.813-0.404-2.435-0.404-3.45l0,0l0.404-0.406  c-0.404-0.204-0.609-0.609-1.014-0.812c-1.014,0.812-0.609-1.015-1.219-1.219c-3.653-0.608,0-3.448-2.435-4.666  c0.812-1.421-1.825-0.812-0.609-2.232l0,0l1.219,0.404c-0.202-0.404,0.202-1.622-0.609-2.029l0,0h-0.609  c0.407-1.217-1.014-1.623-1.623-2.231l0,0h-1.216c0.202,0.202-0.407,1.421,0.202,1.623s0.404-0.609,1.014-0.406  c-0.404,1.217-2.435,1.623-1.825,3.246c-0.202,0.204-1.014-0.204-1.219-0.812c1.219-1.827-1.825-1.623-1.623-2.84l0,0h0.812  c0,0.812,1.219,0.609,1.828,0.812c0.202-0.406-0.407-1.015-0.202-1.623l0,0h0.202c0.202-0.407,0-0.812-0.407-1.015l0,0l-1.421,0.204  c0-0.812,0.609-1.219-0.404-1.625c-1.219,0.204-1.828-0.81-3.044-0.202c-0.609-0.608,1.014-1.421,0-2.029l0,0l0.609-0.609  c0,0.406,0.404,0.202,0.812,0.202l0,0v-0.202c-1.623-0.202-0.609-3.45-3.044-2.435l0,0l-0.609,0.608  c-0.407-0.406,0-2.029,0.812-1.623c0-0.406,0-1.015,0.609-0.812l0,0v0.406c1.014,0.609,0.404-1.014,1.216-1.217  c-0.606-0.608-0.404-1.421,0-2.029l0,0l-0.404-0.406h0.812c-0.202,0.204,0,0.406,0.202,0.406l0,0h0.202  c0.205-0.812-0.606-2.03-1.418-2.232c1.216-0.812,1.216-3.044,2.839-1.827c0.609-1.623-3.246-1.623-1.623-3.855  c-0.609-0.608,0.407-1.623,0-2.638c0.407,0.609,2.232,0.813,1.421,1.827l0,0l0.202,0.204c0.407-0.609,1.219-1.217,0.407-2.03l0,0  l-0.407-0.202c-0.812,0.406-0.404-1.014-1.014-1.623c1.014-0.204,2.232,0,2.03,1.217c0.404,0,0.606-0.406,0.812-0.608  c0.202-1.015-0.609-1.625-0.609-2.436c-0.609,0.204-1.219,1.217-1.828,0.812c1.626-1.014,2.232-2.84,4.061-2.84l0,0l0.404-0.812  c-0.609-0.204-0.609-1.014-0.812-1.623l0,0l1.828,0.202l-0.609,1.015c0.609,1.015,1.623-0.812,2.027,0.812  c1.219-1.217,2.232-2.842,1.421-4.667c-0.404-0.204-1.421-0.609-1.216-1.217c0.812-0.406,1.623-1.827,2.637-1.217  c0,0.202,0,0.406,0.202,0.406l0,0l-1.014,0.812c0.202,0.812,1.014,0.202,1.421,0.608c0,0.406-0.609,0.406-0.407,1.015  c0.205,0.204,0.205,0.406,0.609,0.406c0.609-0.406,0.609-1.217,0.609-1.827c-1.219,0.204-0.609-1.419-0.812-1.827  c0.202,0.204,0,1.219,0.812,0.813c0.609-0.813,0.202-2.029,1.216-2.436l0,0v-0.608c0.407,0.406,1.017,1.421,1.421,0.608  c0-0.608,0-1.217,0.407-1.217c-0.202,0.609,0.404,1.625,1.421,1.015l0,0l0.202-1.015c1.216,1.827,3.448,0.204,5.071,1.217  c1.017-0.202,2.03-0.406,2.438-1.217c1.418,1.217,2.232-0.608,3.65-0.608c0.407-0.204-0.609-1.421,0.407-1.219  c0.404,0.609,0.404,1.015,0.812,1.625c0.404-1.827,1.623,1.014,2.232-0.812c0.404,0.406,1.216,0.406,1.421,0.812  c0.202-0.204,1.014-0.609,0.812-1.219l0,0h0.606c0.407,0.609-1.014,1.827,0.407,1.827c0.202-0.406,0.202-0.608,0.812-0.812  c-0.202,0.204,0,0.406,0.202,0.406c-0.202,0.204-0.609,0.406-0.404,0.609c0.202,0.608,0.812,0.812,1.418,0.608  c0,0.609-0.202,1.015-0.404,1.421c0.812,0.609,1.421-0.406,1.421-1.217c-0.407-0.812-1.421-1.421-0.812-2.435l0,0l2.027-1.217  C253.114,63.725,252.505,64.942,251.491,64.74L251.491,64.74L251.491,64.74z"/>
<path fill-rule="evenodd" clip-rule="evenodd" fill="#E20029" d="M258.997,64.334l-1.825-0.204  C257.374,63.521,258.593,63.927,258.997,64.334L258.997,64.334L258.997,64.334z"/>
<path fill-rule="evenodd" clip-rule="evenodd" fill="#E20029" d="M266.506,65.146h-0.205c-0.404-0.609,0.205-0.609,0.407-0.812  C266.708,64.536,266.91,64.942,266.506,65.146L266.506,65.146L266.506,65.146z"/>
<polygon fill-rule="evenodd" clip-rule="evenodd" fill="#E20029" points="260.418,64.942 260.62,64.942 260.62,64.536   260.418,64.536 260.418,64.942 "/>
<path fill-rule="evenodd" clip-rule="evenodd" fill="#E20029" d="M254.737,65.753h-0.812c0.202,0,0.404-0.608,0.812-0.406l0,0  V65.753L254.737,65.753z"/>
<polygon fill-rule="evenodd" clip-rule="evenodd" fill="#E20029" points="259.809,66.159 260.011,65.551 260.62,66.159   259.809,66.159 "/>
<path fill-rule="evenodd" clip-rule="evenodd" fill="#E20029" d="M225.517,66.363c0,0.202,0.202,0.609,0,0.609  c-0.404,0.202-0.404-0.204-0.609-0.407l0,0l0.205-0.608C225.112,66.363,225.517,66.363,225.517,66.363L225.517,66.363  L225.517,66.363z"/>
<path fill-rule="evenodd" clip-rule="evenodd" fill="#E20029" d="M264.476,67.58c0,0.406,0,0.812-0.609,1.015  C263.462,67.782,264.273,67.782,264.476,67.58L264.476,67.58L264.476,67.58z"/>
<path fill-rule="evenodd" clip-rule="evenodd" fill="#E20029" d="M218.011,69.407v0.608c-0.407,0-0.609,0.204-0.814-0.202  C216.994,69.407,217.604,69.001,218.011,69.407L218.011,69.407L218.011,69.407z"/>
<path fill-rule="evenodd" clip-rule="evenodd" fill="#E20029" d="M216.385,73.262c0,0.406-0.606,0.202-0.812,0.406  C215.573,73.262,216.183,73.059,216.385,73.262L216.385,73.262L216.385,73.262z"/>
<path fill-rule="evenodd" clip-rule="evenodd" fill="#E20029" d="M217.806,75.697c-0.404,0.204-0.404-0.204-0.609-0.406  c0.205,0,0-0.406,0.609-0.204l0,0V75.697L217.806,75.697z"/>
<path fill-rule="evenodd" clip-rule="evenodd" fill="#E20029" d="M276.449,76.712c-0.205,0.608-0.609,0.404-1.017,0  C275.638,76.508,276.244,76.508,276.449,76.712L276.449,76.712L276.449,76.712z"/>
<path fill-rule="evenodd" clip-rule="evenodd" fill="#E20029" d="M211.111,83.813c-0.205,0.406,0,0.812-0.609,0.608l0,0v-0.608  H211.111L211.111,83.813z"/>
<path fill-rule="evenodd" clip-rule="evenodd" fill="#E20029" d="M210.297,85.639v1.219c-0.812,0.202-1.216-0.407-1.825-0.812  c0-0.609,0-0.812,0.609-1.015C209.485,85.031,209.893,85.234,210.297,85.639L210.297,85.639L210.297,85.639z"/>
<polygon fill-rule="evenodd" clip-rule="evenodd" fill="#E20029" points="211.111,87.669 210.704,87.669 210.704,86.857   211.111,86.857 211.111,87.669 "/>
<path fill-rule="evenodd" clip-rule="evenodd" fill="#E20029" d="M212.125,90.104l-0.407,0.202l-0.606-0.404l0.606-0.813  C211.92,89.496,211.92,89.698,212.125,90.104L212.125,90.104L212.125,90.104z"/>
<path fill-rule="evenodd" clip-rule="evenodd" fill="#E20029" d="M209.893,90.104c-0.407,1.015,1.623,0.812,0.404,1.827  c-0.812,0.406-1.014-0.609-1.623-0.812C208.674,90.306,209.485,90.104,209.893,90.104L209.893,90.104L209.893,90.104z"/>
<path fill-rule="evenodd" clip-rule="evenodd" fill="#E20029" d="M207.862,93.757v0.406c-0.202,0.202-1.014-0.204-1.014-0.813  C207.458,93.147,207.66,93.757,207.862,93.757L207.862,93.757L207.862,93.757z"/>
<path fill-rule="evenodd" clip-rule="evenodd" fill="#E20029" d="M211.92,99.438c-0.202-0.202-0.606-0.812-0.202-1.014h0.202V99.438  L211.92,99.438z"/>
<path fill-rule="evenodd" clip-rule="evenodd" fill="#E20029" d="M208.27,98.83v0.608c-0.407,0-0.609-0.202-1.014-0.608  C207.458,98.626,208.064,98.626,208.27,98.83L208.27,98.83L208.27,98.83z"/>
<path fill-rule="evenodd" clip-rule="evenodd" fill="#E20029" d="M211.516,101.67c0,0.406,0,0.812-0.404,1.014l0,0v-1.216  C211.313,101.468,211.516,101.67,211.516,101.67L211.516,101.67L211.516,101.67z"/>
<path fill-rule="evenodd" clip-rule="evenodd" fill="#E20029" d="M220.85,108.569c0,0.608,0,1.421-0.609,1.421  c-0.202-0.407-1.216-0.813-0.812-1.625l0,0L220.85,108.569L220.85,108.569z"/>
<path fill-rule="evenodd" clip-rule="evenodd" fill="#E20029" d="M226.126,121.353c0,0.608-0.407,0.406-0.812,0.608l0,0v-0.608  H226.126L226.126,121.353z"/>
<path fill-rule="evenodd" clip-rule="evenodd" fill="#2A5C98" d="M222.271,129.672c0.812,5.884-3.855,10.146-7.307,13.799  c-6.899,4.869-13.392,10.348-19.682,16.03l0,0l-20.089,15.422c-9.74,10.957-23.133,13.797-32.669,24.552  c-4.261,3.855-8.32,8.117-11.972,12.582c-2.84,1.825-4.058,5.681-6.086,8.319c-1.421-0.406-1.219,1.623-2.638,0.609  c-0.204-13.595,7.102-23.944,15.422-33.888c21.508-23.741,47.887-40.176,74.875-53.569c1.421-0.812,3.855-2.029,4.465-4.059  c-9.132-1.419-17.858,2.436-26.38,2.842c-0.812-0.609-2.232-0.609-2.232-1.623c8.726-6.088,20.902-6.292,30.842-4.465  C220.038,126.83,221.661,128.252,222.271,129.672L222.271,129.672L222.271,129.672z"/>
<path fill-rule="evenodd" clip-rule="evenodd" fill="#2A5C98" d="M281.521,154.224c2.842,2.232,4.061,5.073,5.276,7.915  c5.886,16.233,7.913,32.06,12.176,48.699c2.027,7.305,2.027,15.828-2.842,22.321c-7.711,10.146-19.479,14.61-31.857,14.813  c-1.014,0-1.623,0.406-2.842,0.204c-0.202-1.421-1.421-0.609-2.435-0.609c-8.927,2.029-16.638-0.609-25.362,2.842  c-5.886,2.435-11.974,3.246-17.654,6.696c-5.479,1.825-10.351,4.871-15.018,8.319c0.407-1.825,2.842-3.246,3.044-5.681  c13.597-11.364,28.207-18.262,44.845-22.727c8.32-1.217,16.031-4.463,23.944-6.696c5.071-2.03,12.58-4.667,13.189-11.363  c1.014-10.553-4.869-20.09-5.071-31.047c-1.421-7.913-2.03-16.03-2.842-24.35c-0.812-2.231-1.219-5.477-4.058-7.102  c-9.334-4.465-21.712-2.029-32.265-2.638c-9.132,0.812-20.089,1.827-28.409,1.015c-1.014-0.406-1.014-1.827-1.421-2.638  c7.104-2.638,13.192-3.044,21.308-3.448c10.55-0.204,22.116-1.219,32.06,0C270.766,149.557,276.854,150.776,281.521,154.224  L281.521,154.224L281.521,154.224z"/>
<path fill-rule="evenodd" clip-rule="evenodd" fill="#0091CF" d="M337.527,124.599c-1.017,0.609,0.202,2.029,0.404,3.044  c-0.202,5.884-0.202,11.972-1.623,17.247c-2.435,21.713-13.395,41.191-25.77,59.455c-2.03-1.217-1.623,2.435-3.855,1.623l0,0  l-0.812-4.667c0.202,0,0.202-0.204,0.404-0.204c0-0.608-0.404-0.202-0.404-0.404c-2.842-14.612-4.465-30.844-8.522-45.048  c0.606-0.406,1.014,1.217,1.623,0c0-0.406-0.609-0.202-0.609-0.202c-0.407-1.015,1.421-0.406,1.014-1.827  c2.03-0.202,0-2.84,1.828-3.246l0,0h0.609c-0.205,0.406,0.404,0.608,0.809,0.406c1.219,0.202,0.609-0.609,1.626-1.219  c0.606,0.204,1.216,0,1.825-0.202c-0.812-0.608,0-1.827,0-2.03c0.609-0.202,1.014,0.609,1.216,1.015  c0.205-1.015,1.219-1.217,1.219-2.231c0.812,0.608,0.407,1.623,0.812,2.435c0.812-0.406,0.407-1.219,0.609-1.623  c0.812-0.204,1.219-0.406,2.027-0.609l0,0l-0.809-1.217c0.809-0.406,1.825-0.609,2.435-1.421c0.812,0.204,1.825,0.407,2.435-0.202  c-0.407-0.407-0.609-1.015-1.014-1.421c-0.205,0.406-0.205,1.014-1.017,0.812c-0.202,0-0.202-0.406-0.202-0.608  c1.014,0.404,1.014-0.406,1.219-1.015c1.62,0.812,1.418-1.015,2.839-1.217c0-0.609-0.812-0.406-0.404-1.217  c1.418,0.202,1.014-1.217,1.825-1.827c0-0.204,0.202-0.609,0-0.812h-0.202c0-2.03,2.027-1.217,3.246-1.827  c0.404,0.609,0.812-0.204,1.216-0.204c-0.202-1.419,2.03-1.419,1.017-2.637c0.404-0.406,1.014-0.204,1.014-0.609  c0.407-0.608-1.014-0.812-0.202-1.421l0,0h0.812c0.202,0.609-0.407,1.827,0.609,1.827c0.606-0.406,0-1.623,0.606-2.232  c0.812-0.81,1.017-2.435,2.64-1.623c0,0.204,0,0.406,0.202,0.609c0.202,0,0.407,0,0.609-0.204c-0.407-0.812-1.017-1.623-1.017-2.637  c0.205-0.407,0.609,0.202,0.814,0.202c2.027-0.406,0.609-4.261,3.246-2.84l0,0l1.216-0.407c-0.609-0.81,1.017-1.014,1.017-1.623  C338.339,120.744,336.713,123.178,337.527,124.599L337.527,124.599L337.527,124.599z"/>
<path fill-rule="evenodd" clip-rule="evenodd" fill="#0091CF" d="M334.076,121.149c0,0.204-0.404,0.204-0.404,0.609l0,0h-0.205  v-0.812C333.467,120.947,334.076,120.744,334.076,121.149L334.076,121.149L334.076,121.149z"/>
<path fill-rule="evenodd" clip-rule="evenodd" fill="#0091CF" d="M325.146,128.049l-0.202,0.204v-1.015  C325.146,127.439,324.944,127.845,325.146,128.049L325.146,128.049L325.146,128.049z"/>
<path fill-rule="evenodd" clip-rule="evenodd" fill="#0091CF" d="M321.089,131.499c-0.202,0-0.404,0.202-0.609,0l0,0l0.407-0.609  C321.294,130.687,321.089,131.499,321.089,131.499L321.089,131.499L321.089,131.499z"/>
<path fill-rule="evenodd" clip-rule="evenodd" fill="#0091CF" d="M317.233,136.773c0.407,0.609-0.609,0.609-0.812,1.015  C316.018,136.977,317.031,137.181,317.233,136.773L317.233,136.773L317.233,136.773z"/>
<path fill-rule="evenodd" clip-rule="evenodd" fill="#0091CF" d="M315.206,140.021c-0.202,0.202-0.812,1.014-1.421,0.406  C313.583,139.412,314.799,139.817,315.206,140.021L315.206,140.021L315.206,140.021z"/>
<polygon fill-rule="evenodd" clip-rule="evenodd" fill="#0091CF" points="312.974,141.238 312.771,140.427 312.974,140.427   312.974,141.238 "/>
<path fill-rule="evenodd" clip-rule="evenodd" fill="#0091CF" d="M311.755,143.876c-0.202,0-0.606,0-0.812-0.204l0,0l0.609-0.812  C311.755,142.861,311.553,143.673,311.755,143.876L311.755,143.876L311.755,143.876z"/>
<path fill-rule="evenodd" clip-rule="evenodd" fill="#0091CF" d="M309.93,143.876c0,0.204-0.202,0.406-0.202,0.406l0,0h-0.609  v-0.406H309.93L309.93,143.876z"/>
<path fill-rule="evenodd" clip-rule="evenodd" fill="#0091CF" d="M298.768,152.601c-0.606,0-1.418,0-1.418-0.812  C298.161,151.587,298.768,152.399,298.768,152.601L298.768,152.601L298.768,152.601z"/>
<path fill-rule="evenodd" clip-rule="evenodd" fill="#0091CF" d="M297.147,152.601v0.406h-0.609v-0.608  C296.942,152.399,296.942,152.601,297.147,152.601L297.147,152.601L297.147,152.601z"/>
<polygon fill-rule="evenodd" clip-rule="evenodd" fill="#39A642" points="246.01,173.299 246.215,173.299 246.215,173.705   246.01,173.705 246.01,173.299 "/>
<path fill-rule="evenodd" clip-rule="evenodd" fill="#39A642" d="M238.706,171.878c-0.404,0.608-0.609,1.015-0.609,1.827  c1.219-0.609,0.812,1.217,2.03,0.812c-0.202-1.015,1.216-1.623,2.027-1.217c0.407,0.812,1.623,1.014,1.219,2.029  c0,0.204,0.404,0.204,0.609,0.204c0.609-0.204,0.202-1.015,0.202-1.421c0-0.609-1.216-0.204-0.812-1.217  c0.202-0.204,0.609-0.204,0.812-0.407c1.017,1.015,1.825-0.406,2.842-0.608c0,0.406,0,0.608,0.202,0.812l0,0h0.609  c0,0.609,0.202,1.623-0.812,1.623c0.202-0.202-0.202-0.406-0.407-0.608c-0.609,0.406-0.202,1.014-0.404,1.419  c0.812,1.015,1.014-0.812,1.623-0.202c0.606-0.406,0.404-1.217,1.014-1.421c0.812,0.609,1.219,1.421,2.232,1.827  c1.014-0.406,0.407-1.827,1.421-1.827c-0.407,0.812-0.407,1.827,0,2.638l0,0l1.014-1.015l0.202,1.217  c1.017-0.202,2.64,0,2.232-1.623l0,0v-0.406c0.407,0.204,0.812,0.609,1.017,0.812c0.606-0.406,1.216-0.608,1.014-1.623  c1.623-0.406,0,1.827,1.825,1.217l0,0l0.609,1.015l1.825-1.421c0,0.812-1.418,1.421-0.202,2.435l1.825-0.202  c0,0.202,0.205,0.406,0.205,0.608l0,0l1.216-1.216c0.205,0.202,0.609,0.404,0.407,0.608c-0.812,0.406-1.421,1.015-1.421,1.827  c0.202,0.202,0.407,0.202,0.609,0.202l0,0l0.404-0.608c0.407,1.014,2.232,0.608,1.828,2.029c-0.814,0.204-0.814,1.014-1.017,1.623  c0.202,0.406,1.017,0,1.219,0.609c-0.202,0.202-0.609,0.406-0.407,0.812l0.205,0.202l1.014-1.014  c0.609,9.942,3.855,19.682,6.29,29.016c-3.044,8.32-12.378,11.161-20.089,13.799c-18.261,4.465-35.104,12.176-50.728,22.727  c1.623-8.726,2.027-18.06-0.407-26.988c-2.232-7.711-8.115-14.813-15.826-18.262c-1.015-0.609-2.029-1.825-3.248-1.421  c-0.608-0.404-0.81-1.014-1.014-1.421c0.812,0.407,1.014-0.812,1.217-1.216c-1.421-0.813-1.421-1.827-1.421-3.248  c0,0.406,0.407,0.406,0.609,0.204c-0.202,1.014,0.406,1.623,0.812,2.231c1.217,0.204,1.825-1.014,2.638-1.419  c-0.813-1.623,1.623-0.812,1.623-2.232l0,0l-0.204-1.217c-0.406-0.204-1.014,0.812-1.827,0c0.407,0,0.813-0.406,0.813-0.204l0,0  l1.217-1.014l0.608,0.608c1.219-1.421,4.668,1.421,3.855-1.421c-0.608,0,0,0.813-0.812,0.609l0,0l-1.014-1.825  c0.608-0.406,1.419-0.204,2.231-0.204l0,0l0.609,0.609c1.419-0.204,1.217-3.248,2.84-1.827c1.217-0.406-0.202-1.217,0.609-1.827l0,0  h1.217c0.406-0.609-0.811-0.812-1.217-1.419c-0.406,0.202-0.609,0.406-0.812,0.608l0,0l-0.202-0.202l-0.813,0.608l-0.608-1.827  c0.608,0.406,1.421-0.609,1.825,0.609c0.812-0.609,1.826,0.406,2.639-0.609l0,0l0.405,0.813c0.609-0.609-0.202-1.422-0.405-1.827  c-0.406-0.406-0.608,0-0.813,0c-0.405,0-0.201-0.609-0.201-0.812c0.607-1.219,1.217,0.812,1.824,0l0,0v1.419  c0.608-0.204,2.234,0,2.639-0.204c0-1.014-1.014-3.245,1.219-3.042c0.404,0.204,0.202,1.014-0.205,1.421  c0,0.202,0.407,0.202,0.609,0.202c1.014-1.015,1.014-2.84,1.828-3.45l0,0l0.202,0.202c0.404-1.419,2.637-0.202,3.448-2.029  c0.609,1.219,2.232,0.609,2.64,1.827c0.202,0,0.606-0.202,1.014-0.202c0,0.404-0.202,0.404-0.407,0.608  c0.609,0.406,1.421-0.406,1.421-1.217c0.202-0.812,1.017-1.217,1.828-1.421c0,0.406,0.202,0.406,0.404,0.609  c0.407,0,0.609-0.812,1.017-0.204c0.606-0.406-0.407-0.608-0.407-1.216c1.825,0,1.623-1.827,3.65-1.625  c-0.404,0.609,0,1.827-0.404,2.435l0,0l0.404,0.406c0.205-1.014,1.017-1.216,1.424-2.435c0.404,0.204,0.606,0.609,0.809,0.609  c-0.404,1.217-1.216,1.825-2.232,2.029c0.205,0.812,1.424,0.609,2.03,1.217c1.017-0.608-0.202-1.421,0.812-2.029  c0.812-0.202,1.623,1.014,1.825,0l0,0l-0.404-0.406l1.623-0.812c0.407,0.406-0.404,1.217-1.219,1.419  c0.407,1.421,1.421-0.202,2.232,0c0.407-0.202,0.205-0.81,0.205-1.217l0,0l1.216,0.609c-0.202-1.623,1.828-0.812,2.64-0.812  c0.202,0.406,0.812,0.202,1.014,0.202l0,0l0.609-0.608c-0.407-0.812-0.812,0.202-1.421,0c-0.407,0,0-0.812-0.407-1.217  c0.407,0,1.626,0.406,1.421-0.609l0,0v-0.812h1.219v0.202c-0.407,0-0.407,0.406-0.609,0.609c0,0.204,0,0.406,0.202,0.406  c0.407-0.202,1.219-0.406,1.219-1.217c0.404,0.406,0.812,0.608,1.421,0.608C237.487,171.878,238.504,170.661,238.706,171.878  L238.706,171.878L238.706,171.878z"/>
<path fill-rule="evenodd" clip-rule="evenodd" fill="#39A642" d="M254.33,171.473c0,0.406,0.205,0.812,0,0.812l0,0h-0.609  C253.519,171.878,254.128,171.675,254.33,171.473L254.33,171.473L254.33,171.473z"/>
<path fill-rule="evenodd" clip-rule="evenodd" fill="#39A642" d="M242.359,171.675c0,0.406,0,0.812-0.205,1.015l0,0h-0.606  C241.343,171.878,242.154,172.081,242.359,171.675L242.359,171.675L242.359,171.675z"/>
<path fill-rule="evenodd" clip-rule="evenodd" fill="#39A642" d="M239.925,172.69c0,0,0,0.204-0.205,0.204l0,0h-0.404v-0.407  C239.72,172.486,239.925,172.284,239.925,172.69L239.925,172.69L239.925,172.69z"/>
<path fill-rule="evenodd" clip-rule="evenodd" fill="#39A642" d="M229.574,173.907l-0.606,0.406l-0.205-0.608  C228.968,173.705,229.574,173.501,229.574,173.907L229.574,173.907L229.574,173.907z"/>
<polygon fill-rule="evenodd" clip-rule="evenodd" fill="#39A642" points="253.721,174.313 253.316,174.313 253.316,173.907   253.721,173.907 253.721,174.313 "/>
<path fill-rule="evenodd" clip-rule="evenodd" fill="#39A642" d="M265.694,175.328c-0.202-0.609,0.606-0.609,0.812-0.812l0,0v0.812  H265.694L265.694,175.328z"/>
<path fill-rule="evenodd" clip-rule="evenodd" fill="#39A642" d="M214.56,176.14c-0.202,0.406,0.202,1.014-0.202,1.217  c-0.407-0.609-0.812-1.217-1.623-0.812c0-0.406-0.205-0.812,0.404-1.217C213.748,175.532,214.152,175.734,214.56,176.14  L214.56,176.14L214.56,176.14z"/>
<path fill-rule="evenodd" clip-rule="evenodd" fill="#39A642" d="M199.949,178.98c-0.405,0.204-0.609-0.406-0.405-0.812l0,0h0.405  V178.98L199.949,178.98z"/>
<path fill-rule="evenodd" clip-rule="evenodd" fill="#39A642" d="M191.225,187.502c-0.204,1.015-1.015,0.609-1.827,0.812l0,0  l0.609-1.014C190.209,187.908,190.615,187.502,191.225,187.502L191.225,187.502L191.225,187.502z"/>
<path fill-rule="evenodd" clip-rule="evenodd" fill="#39A642" d="M189.194,189.329c0,0.204,0.204,0.609-0.202,0.812  c-0.204,0-0.406-0.202-0.609-0.406C188.181,189.127,188.992,188.923,189.194,189.329L189.194,189.329L189.194,189.329z"/>
<path fill-rule="evenodd" clip-rule="evenodd" fill="#39A642" d="M185.34,195.01c-0.406,0.407-0.406,1.219-0.813,1.219  c0-1.015-1.014-1.219-0.202-2.435C184.935,193.794,184.935,194.605,185.34,195.01L185.34,195.01L185.34,195.01z"/>
<path fill-rule="evenodd" clip-rule="evenodd" fill="#0091CF" d="M174.18,212.866c-0.204,1.625,1.014,3.044,0,4.263  c-6.696,3.45-12.987,8.522-17.249,14.813c-4.667,6.086-7.709,15.015-4.261,22.523c1.623,3.044,3.248,5.681,6.696,7.102  c8.928,3.246,17.856-1.015,24.35-7.102c3.653-3.855,6.088-8.928,8.522-13.393c1.015,1.623,0.406,4.059,0.406,5.884l0,0l-4.667,9.132  c-7.102,7.711-15.016,17.856-25.973,14.408c-9.536-0.812-18.464-8.118-22.726-17.046c-4.261-10.957,0-22.726,6.696-31.452  c6.494-6.494,13.189-13.799,22.727-12.174C170.526,210.837,172.353,211.65,174.18,212.866L174.18,212.866L174.18,212.866z"/>
<path fill-rule="evenodd" clip-rule="evenodd" fill="#F08800" d="M173.57,226.869c0.406-0.204,0.609-0.609,1.015-0.609  c-1.015,1.421,0.202,3.044,1.014,4.261c0.813,0.406,1.623,0.204,2.232,0.204l0,0v-1.217c0.406,0.202,0.609-0.204,0.813-0.407  c-0.813-1.014,0.81-1.623,1.216-2.231c0.406,0,0.609,0.406,1.219,0.202c0.202,0.609-0.406,1.015-0.813,1.217l0,0l1.421,1.421  c-0.406,0.609-1.623-0.609-1.421,0.812c1.217,0.204,1.421,2.232,2.842,1.217c0.204-0.406,0.608-0.812,1.014-1.014l0,0h0.406  c-0.406,1.014,0,2.029,0.407,2.84c0.608-0.609,1.622-0.204,2.231,0c0.406,0.202,0.204,0.609,0.204,0.812  c-0.609,0.204-1.015,0.812-1.421,1.217c0,0.609,0.202,1.015,0.406,1.421c0.406,0,0.812-0.202,1.015-0.609  c-1.219,7.103-7.305,13.393-13.393,17.856c-4.261,2.436-10.146,2.029-14.001-1.014c-2.029-2.436-2.029-5.886-1.623-8.928  c1.827-1.827,0-3.653,2.435-5.479c0-1.421,1.827-2.232,2.03-3.653c1.623-0.202,0.81-2.435,2.435-2.637  c0.608-1.219,1.217-2.638,2.232-3.451c1.014,0.609,1.419-0.812,2.029-1.216c0.406-0.204,0.406-0.407,0.406-0.813l0,0h0.608  c0,0.406-0.406,0.406-0.202,0.813c1.015-1.015,2.637,1.419,3.246-0.609l0,0l-1.015-0.813l0.406-0.202L173.57,226.869L173.57,226.869  z"/>
<path fill-rule="evenodd" clip-rule="evenodd" fill="#F08800" d="M177.426,227.071c-0.204,0.204-0.204,0.609-0.204,1.015  c-0.202,0-0.406,0-0.608-0.202C176.412,227.477,177.02,227.071,177.426,227.071L177.426,227.071L177.426,227.071z"/>
<path fill-rule="evenodd" clip-rule="evenodd" fill="#F08800" d="M177.02,229.507v0.608h-0.608c0-0.202,0-0.202,0-0.406  C176.412,229.507,176.816,229.1,177.02,229.507L177.02,229.507L177.02,229.507z"/>
<path fill-rule="evenodd" clip-rule="evenodd" fill="#2A5C98" d="M74.345,410.708c-4.261,0.205-7.711-0.812-10.349-4.058  c-3.854-7.304-0.406-15.826,0.204-23.739c3.248-19.277,5.276-39.773,8.928-58.644l0,0H96.26l-5.682,40.582  c-1.421,10.351-3.044,22.119-4.667,33.278c-0.202,1.017,1.014,2.435,2.232,2.842c1.623,0.609,2.638,0.404,4.261-0.202  c2.638-1.219,3.044-4.465,3.246-7.307l0,0l5.682-39.568c1.014-9.738,3.044-19.682,4.261-29.625l0,0h23.741l-3.044,21.103  c-1.825,15.422-4.463,31.655-6.696,47.481c0,3.451-0.406,7.509,3.246,9.539c3.248,1.216,6.494,0.609,9.132-1.828  c2.84-2.839,3.246-10.146,4.261-15.624l0,0l3.652-26.177l1.015-7.708l3.653-26.786h23.739l-0.202,4.667  c5.479-6.29,14.001-4.667,21.712-4.667c2.84,0.202,6.088,1.421,7.305,4.263c1.014,2.027,0.608,5.273,0.202,7.506l0,0l-3.246,22.321  l-0.812,4.263l-20.089-0.205c1.421-6.29,1.623-12.378,2.842-18.87c0.202-1.623-0.407-3.653-2.03-4.667  c-2.029-0.812-3.855-0.205-5.682,0.812c-2.029,2.03-2.84,6.899-3.246,10.957c-1.217,8.115-2.435,16.031-3.653,24.349l0,0  l-5.071,35.713h-22.929c0-1.623,0-2.637,0.202-4.869c-2.637,3.246-5.682,7.102-9.943,8.118c-5.681,0.404-12.58,0.404-16.639-4.667  l0,0l-2.84-3.653c-2.029,4.26-7.304,5.276-11.161,5.071C93.013,410.708,79.823,410.708,74.345,410.708L74.345,410.708  L74.345,410.708z"/>
<path fill-rule="evenodd" clip-rule="evenodd" fill="#2A5C98" d="M54.054,324.268c3.246,0.609,6.696,1.623,7.507,5.071l0,0  l-0.202,5.684l-5.073,34.292l-28.003,0.202c-1.419-0.202-0.812,2.232-1.216,3.044c-1.422,8.725-2.842,17.654-3.857,26.379  c0.204,1.014,0.812,1.828,1.827,2.435c1.623,0.609,2.232,0,3.855-0.202c1.827-0.812,3.652-2.637,3.45-4.869l0,0l3.044-21.914  l20.087-0.205c-1.419,10.351-1.622,20.698-5.073,30.439c-2.029,4.869-8.319,6.085-12.174,6.085l0,0H7.382  c-2.029,0-5.884-2.435-6.696-5.681c-2.232-9.741,1.625-19.075,2.435-29.016c2.03-14.206,4.059-30.032,6.697-45.252  c1.421-4.058,5.479-6.492,9.74-6.492l0,0H54.054L54.054,324.268z M35.386,332.79c-1.421,0-2.029,1.216-2.842,2.232  c-1.419,7.509-2.435,16.031-3.652,23.739l0,0h8.319c1.015-7.708,2.638-16.028,3.248-24.146  C39.038,332.992,37.618,332.383,35.386,332.79L35.386,332.79L35.386,332.79z"/>
<path fill-rule="evenodd" clip-rule="evenodd" fill="#2A5C98" d="M252.303,324.268c3.246,0,6.29,1.014,7.708,3.855  c1.828,8.522-0.812,17.045-2.229,26.177l0,0l-3.451,23.537c-1.825,9.536-1.623,19.479-6.088,28.204  c-2.839,4.263-7.913,4.667-12.378,4.667l0,0h-30.437c-3.044,0-6.492-1.014-8.522-4.058c-3.45-8.317,0.609-17.654,1.015-25.567  c2.434-16.638,4.059-34.494,7.507-51.135c1.623-5.276,6.492-5.681,11.566-5.681l0,0H252.303L252.303,324.268z M233.43,332.588  c-2.232-0.407-4.462,0.404-5.479,2.435c-1.623,10.348-3.448,21.914-4.869,32.06l0,0l-4.058,28.204  c-0.205,1.421-0.609,4.061,1.014,5.276c1.014,0.812,2.64,0.609,3.855,0.609c1.623-0.404,2.637-0.812,3.448-2.435  c3.249-20.291,6.088-40.582,8.93-61.28c0.202-1.623,0.609-4.465-1.421-4.869l0,0H233.43L233.43,332.588z"/>
<path fill-rule="evenodd" clip-rule="evenodd" fill="#2A5C98" d="M330.221,341.313c4.869,14.001-2.637,28.002-8.725,39.973  c-6.697,11.162-14.206,21.917-23.742,30.844c-5.071-3.448-9.943-7.102-15.015-10.55c6.694-7.104,13.594-13.799,18.668-21.712  c-5.276,0.404-12.782-0.205-18.059-3.451c-9.334-5.681-13.597-17.045-12.176-28.406c1.014-9.539,8.522-19.685,18.059-22.729  c5.886-2.232,13.799-2.637,20.291-1.216C318.25,326.298,327.177,331.979,330.221,341.313L330.221,341.313L330.221,341.313z   M304.855,337.659c-4.26-1.421-8.927,0.407-12.173,3.855c-3.044,3.451-4.263,8.725-3.451,12.58c0.609,5.276,4.058,9.741,8.93,11.364  c4.058,1.014,9.943,0,13.189-4.465c3.855-4.667,3.653-12.58,0.606-17.654C310.334,340.703,307.495,338.673,304.855,337.659  L304.855,337.659L304.855,337.659z"/>
<path fill-rule="evenodd" clip-rule="evenodd" fill="#2A5C98" d="M380.342,359.573c8.522,6.29,12.173,16.843,10.752,27.396  c-1.216,10.146-9.536,20.291-19.072,23.335c-12.176,3.653-25.975,1.421-34.901-8.118c-10.348-10.348-6.899-26.783-1.421-38.552  c2.842-6.088,6.29-12.987,10.755-19.075c5.276-7.711,10.755-15.015,17.654-21.712c4.869,3.451,10.348,6.899,15.217,10.755  c-6.694,7.102-13.796,13.392-18.668,21.712C360.657,355.313,372.833,353.69,380.342,359.573L380.342,359.573L380.342,359.573z   M349.296,389.811c1.216,3.246,4.869,6.896,8.522,7.506c4.462,1.219,9.129-0.609,12.173-4.26c3.044-4.67,4.465-10.755,1.828-16.436  c-1.828-3.249-4.667-6.293-8.32-7.307c-5.071-1.219-9.943,1.014-12.785,5.074C350.714,374.389,346.047,379.46,349.296,389.811  L349.296,389.811L349.296,389.811z"/>
<path fill-rule="evenodd" clip-rule="evenodd" fill="#0091CF" d="M74.345,427.146l-3.246,6.29h-27.8  c-2.637,4.869-5.884,11.159-8.117,16.028l0,0h23.539l-4.869,9.741H30.515c-2.029,3.855-3.855,7.711-5.681,11.769  c-1.219,2.435,1.623,2.64,3.246,2.64l0,0h29.423c-1.827,3.65-3.45,7.102-5.479,10.55l0,0H8.601c-2.232-0.404-6.494,0.609-8.32-2.232  c-1.217-5.276,2.435-9.334,4.261-13.799l0,0l17.249-34.696H11.441l3.044-6.29H74.345L74.345,427.146z"/>
<path fill-rule="evenodd" clip-rule="evenodd" fill="#2A5C98" d="M255.751,498.165c26.988,1.014,54.381,3.451,81.167,6.899l0,0  l7.913,1.014l0.812,4.872c-22.119-1.623-44.845-3.246-68.18-3.044l0,0l-24.958,0.404c-26.177,1.017-54.179,4.465-79.544,11.566  c-2.435-5.276-4.26-10.957-6.29-16.436c1.827-0.202,3.653-0.404,5.276-0.812l0,0l20.9-2.435c10.957-1.219,22.726-1.421,34.494-2.232  l0,0L255.751,498.165L255.751,498.165z"/>
<path fill-rule="evenodd" clip-rule="evenodd" fill="#2A5C98" d="M32.748,292.208l-2.436,15.826  c-0.608,2.842-2.029,8.725-9.738,8.725c-7.509,0-7.102-5.883-6.697-8.725l0,0l2.435-15.826h6.494l-2.231,15.217  c-0.204,0.609-0.406,1.421-0.204,2.03c0,0.812,0.406,1.219,1.217,1.219c1.015,0,1.421-0.407,1.827-1.219  c0.202-0.609,0.202-1.421,0.406-2.03l0,0l2.435-15.217H32.748L32.748,292.208z"/>
<polygon fill-rule="evenodd" clip-rule="evenodd" fill="#2A5C98" points="51.416,292.208 63.59,292.208 62.78,297.889   57.098,297.889 56.692,301.34 61.561,301.34 60.75,307.021 55.677,307.021 55.067,310.674 60.75,310.674 59.734,316.354   47.764,316.354 51.416,292.208 "/>
<polygon fill-rule="evenodd" clip-rule="evenodd" fill="#2A5C98" points="81.448,316.354 85.1,292.208 96.666,292.208   95.853,298.091 90.782,298.091 90.172,301.542 94.839,301.542 94.028,307.223 89.361,307.223 87.941,316.354 81.448,316.354 "/>
<path fill-rule="evenodd" clip-rule="evenodd" fill="#2A5C98" d="M120.609,316.354v-3.044h-4.463l-1.014,3.044h-6.697l9.538-24.146  h8.117l1.216,24.146H120.609L120.609,316.354z M120.609,308.236l0.204-5.681c0-1.421,0.202-3.044,0.202-4.465l0,0l0,0  c-0.406,1.421-0.812,3.044-1.419,4.465l0,0l-1.623,5.681H120.609L120.609,308.236z"/>
<path fill-rule="evenodd" clip-rule="evenodd" fill="#0091CF" d="M63.59,459.206l4.871-9.741h41.395  c2.435,0,4.869,1.421,6.086,3.855c2.842,7.711-4.463,14.408-6.696,21.51c0,0.812-1.217,2.232,1.219,2.232c1.419,0,5.883,0,7.709,0  c0-1.421-0.202-2.842,0.204-4.465c3.246-6.29,6.29-12.782,10.349-18.87c3.652-5.071,17.043-4.263,25.77-4.263  c1.827,0,3.044,1.828,3.653,3.451c1.216-0.609,1.623-2.232,2.435-3.246l0,0l16.436-0.205l-13.799,27.19  c3.248-1.014,6.292-3.448,9.334-5.273c4.667-3.249,7.915-8.728,9.943-13.597l0,0l11.566-22.321l1.015-2.027h-12.784l3.652-6.29  h30.437l-11.159,22.523l-9.538,18.668c-0.812,2.839-4.667,8.725-0.812,8.725c2.84,0,4.667,0,7.915,0  c-1.017-4.465,2.027-8.32,3.855-12.378c3.448-5.886,6.694-15.22,15.015-15.22l0,0h16.843c1.216,0,3.448,1.626,3.855,3.249l0,0  l2.435-3.249c2.232,0,15.217,0,16.436,0l0,0l-12.785,25.567c-0.606,1.017-1.014,2.03,0.814,2.03l0,0h11.159  c2.842-6.088,6.492-11.971,9.334-17.856l0,0h-8.115l4.869-9.741h40.38c3.653,0,6.899,1.626,8.118,4.872  c0,7.506-5.276,13.796-7.714,20.695c-0.404,0.609-0.404,2.03,0.814,2.03c2.637,0,5.273,0,8.115,0  c-0.609-2.842-0.407-3.653,0.404-5.479c4.67-8.118,9.337-22.119,16.438-22.119s10.957,0,18.87,0c2.435,0,3.451,2.03,4.465,3.249l0,0  l9.536-19.277h-11.769l3.246-6.29h29.83l-5.074,10.957l-18.466,35.915c0,0-2.435,3.044,1.219,3.044l0,0h10.55  c-1.216,2.637-1.623,3.855-3.246,7.102l0,0h-3.044h-22.523c-1.825,0-3.044-0.812-4.058-2.027c-2.03,1.014-4.26,2.027-6.899,2.027  l0,0h-21.305c-1.828,0-14.004,0-21.51,0c-2.03,0-3.451-3.653-3.451-5.479c0.205-1.623,0.814-2.842,1.626-4.465l0,0l6.088-13.799  c0.606-1.623-1.219-2.229-1.219-2.229c-2.435-0.205-5.479-1.017-7.509,0.812c-2.232,1.825-3.448,4.667-4.667,7.102l0,0  l-9.334,18.059h-31.45c-4.872,0-11.974,0.609-14.001-1.825c-2.232,0.812-4.061,1.825-7.307,1.825l0,0l-34.09,0.202  c-4.26,0-9.536,0.407-10.551-4.26c-0.406-1.219-0.608-2.637-0.812-4.263c-4.869,5.074-11.161,9.132-17.856,11.364  c-6.088,11.566-11.972,24.352-22.523,32.871c-7.102,4.667-15.422,9.943-24.35,5.481c-3.652-1.626-6.088-5.074-7.102-8.525  c-2.03-9.94,6.492-17.651,13.797-22.523l0,0l1.625-0.809l5.071-2.438c5.276-2.637,11.161-3.448,16.437-6.088  c0.406-0.606,0.609-1.418,1.015-2.232c-2.232,0.609-4.667,1.421-7.305,1.219l0,0l-34.496,0.202c-4.261,0-13.393,0.609-10.551-5.681  l0,0l8.725-17.247c0.812-2.03,0-2.232-0.812-2.842c-2.84-0.609-7.102-0.812-8.522,1.219l0,0l-2.029,3.246l-11.161,21.103H59.126  l12.987-24.958H63.59L63.59,459.206z M152.67,457.583c-2.638,0-6.899-0.812-9.13,2.03c-2.232,4.667-4.668,9.334-7.509,14.001  c-0.404,1.014-1.217,2.839,0.812,3.448c3.248,0,8.117,0.609,10.147-2.03c2.029-4.26,4.058-8.317,6.494-12.378  C155.917,458.395,152.67,457.583,152.67,457.583L152.67,457.583L152.67,457.583z M350.512,457.583c-2.637,0-6.899-0.812-9.132,2.03  c-2.232,4.667-4.667,9.334-7.506,14.001c-0.609,1.014-1.219,2.839,0.606,3.448c3.451,0,8.32,0.609,10.351-2.03  c2.03-4.26,4.058-8.317,6.492-12.378C353.761,458.395,350.512,457.583,350.512,457.583L350.512,457.583L350.512,457.583z   M236.881,457.583c-2.64,0-7.102-0.812-9.132,2.03c-2.435,4.667-4.869,9.334-7.509,14.001c-0.609,1.014-1.216,2.839,0.609,3.448  c3.451,0,8.32,0.609,10.146-2.03c2.03-4.26,4.263-8.317,6.697-12.378C239.925,458.395,236.881,457.583,236.881,457.583  L236.881,457.583L236.881,457.583z M128.929,498.572c-5.276,3.448-12.378,7.506-12.378,15.015c0.204,1.014,1.217,2.232,2.232,2.435  c1.015,0.812,2.638,0.205,3.652-0.202c7.507-4.869,11.161-13.189,14.407-20.698C134.002,495.73,131.567,497.151,128.929,498.572  L128.929,498.572L128.929,498.572z"/>
<path fill-rule="evenodd" clip-rule="evenodd" fill="#2A5C98" d="M378.183,312.291l1.195-3.583h1.395v4.978h-0.797v-3.981h-0.199  l-1.195,3.981h-0.598l-1.395-3.981l0,0v3.981h-0.794v-4.978h1.195L378.183,312.291L378.183,312.291z M374.998,309.505h-1.395v4.181  h-0.797v-4.181h-1.392v-0.797h3.583V309.505L374.998,309.505z M369.423,310.899c0-3.782,2.988-6.967,6.967-6.967  c3.785,0,6.97,3.185,6.97,6.967c0,3.981-3.185,6.967-6.97,6.967C372.411,317.866,369.423,314.881,369.423,310.899h-0.797  c0,4.38,3.387,7.764,7.764,7.764c4.383,0,7.767-3.384,7.767-7.764s-3.384-7.767-7.767-7.767c-4.377,0-7.764,3.387-7.764,7.767  H369.423L369.423,310.899z"/>
</svg>