<?xml version="1.0" encoding="UTF-8"?>
<!-- Generator: Adobe Illustrator 13.0.2, SVG Export Plug-In . SVG Version: 6.00 Build 14948)  -->
<!DOCTYPE svg PUBLIC "-//W3C//DTD SVG 1.0//EN" "http://www.w3.org/TR/2001/REC-SVG-20010904/DTD/svg10.dtd">
<svg version="1.0" id="Ebene_1" xmlns="http://www.w3.org/2000/svg" xmlns:xlink="http://www.w3.org/1999/xlink" x="0px" y="0px" width="386.841px" height="480.725px" viewBox="0 0 386.841 480.725" enable-background="new 0 0 386.841 480.725" xml:space="preserve">
<path fill-rule="evenodd" clip-rule="evenodd" d="M98.308,472.581h5.237c5.622,0,6.787-5.045,6.787-6.791  c0-4.26-2.522-6.979-6.593-6.979h-9.696v21.328h4.266V472.581L98.308,472.581z M98.308,468.895v-6.398h3.684  c2.716,0,3.879,0.967,3.879,2.906c0,0.973,0,3.492-3.297,3.492H98.308L98.308,468.895z"/>
<path fill-rule="evenodd" clip-rule="evenodd" d="M118.667,469.475c0,10.084,7.368,11.25,10.277,11.25  c2.714,0,10.277-1.166,10.277-11.25c0-9.891-7.563-11.244-10.277-11.244C126.036,458.231,118.667,459.584,118.667,469.475  L118.667,469.475z M123.128,469.475c0-5.818,3.491-7.365,5.817-7.365c2.328,0,5.817,1.547,5.817,7.365  c0,6.012-3.489,7.564-5.817,7.564C126.619,477.04,123.128,475.487,123.128,469.475L123.128,469.475z"/>
<path fill-rule="evenodd" clip-rule="evenodd" d="M148.723,480.139h4.266v-8.338h4.654c3.297,0,3.491,1.166,3.491,4.072  c0,2.133,0.193,3.299,0.388,4.266h4.847v-0.58c-0.775-0.387-0.775-1.16-0.775-4.266c0-3.879-0.97-4.459-2.714-5.238  c1.938-0.773,3.294-2.906,3.294-5.232c0-1.746-1.162-6.012-6.785-6.012h-10.666V480.139L148.723,480.139z M152.989,468.315v-5.818  h5.624c2.521,0,3.103,1.746,3.103,2.906c0,2.133-1.163,2.912-3.489,2.912H152.989L152.989,468.315z"/>
<polygon fill-rule="evenodd" clip-rule="evenodd" points="184.984,462.69 191.382,462.69 191.382,458.811 174.125,458.811   174.125,462.69 180.523,462.69 180.523,480.139 184.984,480.139 184.984,462.69 "/>
<path fill-rule="evenodd" clip-rule="evenodd" d="M216.978,458.811h-4.459v14.156c0,2.52-1.163,4.072-4.266,4.072  c-2.133,0-3.879-1.359-3.879-4.266v-13.963h-4.459v14.156c0,2.133,0.387,3.879,1.55,5.232c1.939,2.133,4.849,2.525,6.788,2.525  c5.429,0,8.725-2.326,8.725-7.951V458.811L216.978,458.811z"/>
<path fill-rule="evenodd" clip-rule="evenodd" d="M237.339,472.188h4.849c-0.776,4.465-4.072,4.852-5.045,4.852  c-3.1,0-6.202-1.553-6.202-7.371c0-5.426,2.906-7.752,6.009-7.752c3.299,0,4.655,2.713,4.655,3.486h4.459  c-0.193-2.906-2.713-7.172-9.308-7.172c-7.175,0-10.471,5.625-10.471,11.438c0,7.371,4.655,11.057,9.891,11.057  c3.879,0,5.429-1.939,6.592-3.299l0.387,2.713h3.103v-11.438h-8.918V472.188L237.339,472.188z"/>
<path fill-rule="evenodd" clip-rule="evenodd" d="M260.8,475.874h7.951l1.356,4.266h4.849l-7.562-21.328h-5.235l-7.564,21.328h4.655  L260.8,475.874L260.8,475.874z M264.679,463.657h0.193l2.522,8.531h-5.429L264.679,463.657L264.679,463.657z"/>
<polygon fill-rule="evenodd" clip-rule="evenodd" points="288.143,458.811 283.681,458.811 283.681,480.139 298.613,480.139   298.613,476.266 288.143,476.266 288.143,458.811 "/>
<path fill-rule="evenodd" clip-rule="evenodd" d="M154.733,367.481c9.502-10.664,23.076-17.449,38.394-17.449  c15.709,0,29.862,7.172,39.17,18.422l2.52-2.326c-9.888-11.83-24.817-19.395-41.495-19.395c-16.288,0-30.831,7.178-40.915,18.422  L154.733,367.481L154.733,367.481z"/>
<polygon fill-rule="evenodd" clip-rule="evenodd" points="188.861,340.528 173.932,343.633 170.248,325.598 184.789,322.493   185.565,325.792 175.87,327.731 176.646,331.61 185.954,329.67 186.535,332.969 177.422,334.903 178.196,339.168 188.086,337.235   188.861,340.528 "/>
<polygon fill-rule="evenodd" clip-rule="evenodd" points="217.367,328.897 208.446,326.958 207.477,331.03 216.397,332.776   215.814,336.069 206.896,334.323 205.344,341.694 200.302,340.528 203.987,322.493 217.947,325.598 217.367,328.897 "/>
<path fill-rule="evenodd" clip-rule="evenodd" d="M238.695,359.723l-4.266-4.266l0.58-3.879l-7.562-5.232l-3.296,2.133l-5.042-2.906  l17.839-10.67l4.849,3.299L238.695,359.723L238.695,359.723z M237.339,339.948l-6.788,4.266l5.238,3.686L237.339,339.948  L237.339,339.948z"/>
<path fill-rule="evenodd" clip-rule="evenodd" d="M156.868,352.358c-3.296,2.52-8.919,4.652-12.992-0.193l-6.012-7.564l4.072-3.1  l5.818,7.559c1.938,2.326,4.652,1.939,6.785,0.193c2.134-1.547,3.103-4.072,1.163-6.592l-5.817-7.559l4.074-3.105l5.815,7.564  C163.459,344.407,161.133,348.866,156.868,352.358L156.868,352.358z"/>
<path fill-rule="evenodd" clip-rule="evenodd" d="M256.924,341.694c-15.902-16.676-38.394-27.146-63.214-27.146  c-25.208,0-47.896,10.664-63.795,27.727l-2.714-2.713c16.869-17.455,40.333-28.506,66.51-28.506  c25.787,0,49.251,10.857,65.927,28.113L256.924,341.694L256.924,341.694z"/>
<path fill-rule="evenodd" clip-rule="evenodd" d="M367.449,393.274c0.193,0-1.939-1.939-2.133-2.133  c-0.583,0-4.266,2.133-7.175,4.26c-7.562,5.625-9.891,9.697-11.827,12.416c-0.39,0.58,0.58,0.773,0.58,0.773  c3.489-0.387,8.728-1.746,15.513-1.939l0.583-0.193l0.387-0.973c1.553-3.68,3.296-7.945,3.686-10.084  C367.063,395.401,367.449,393.467,367.449,393.274L367.449,393.274z M337.587,421c-1.163,0.387-3.103,0.193-4.459-0.387  c-1.746-0.973-3.683-6.398-3.489-7.178c0-0.58,0.193-0.773,0.58-0.967l1.553-1.553c0.387-0.193,4.072-6.785,19.002-18.229  c7.758-5.818,16.482-11.051,23.657-16.09c1.356,1.16,4.266,2.133,4.849,2.52c1.55,2.52,2.713,6.592,2.52,7.951  c-0.387,1.74-3.879,12.797-5.429,16.283c0,0-0.776,2.912-0.583,3.105c0.387,1.16,2.52,1.16,3.683,0.967  c0.776,0,3.299-0.193,3.879-0.387c0.39,0,2.133-0.387,2.522-0.387c0.97,0,0.58,0,0.97,0.967c-1.359,0.973-2.909,2.719-4.269,3.686  c-1.743,1.359-2.906,3.686-6.398,5.045c-0.967,0.193-2.326,0.58-2.906,0.773l-0.776,0.193l-0.387,0.779  c-0.973,2.52-1.746,4.652-2.909,7.172c-1.166,2.52-3.103,12.604-3.492,15.51c-0.193,1.166-2.326,6.012-3.489,9.891  c-1.356,4.072-3.103,6.205-5.622,5.625c-0.583,0-0.97-0.193-1.166-0.58c-0.193,0-0.387-0.193-0.58-0.586l-0.776-0.58  c-0.193-1.166-0.97-2.906-1.55-4.459c-0.39-0.773-0.583-1.553-0.776-2.133c-0.196-0.773-1.359-1.553-1.359-1.746  c0.39-1.939,9.114-28.313,7.951-28.313c-3.683,0-5.622,0.586-11.051,1.553C344.955,419.834,337.587,421,337.587,421L337.587,421z"/>
<path fill-rule="evenodd" clip-rule="evenodd" d="M228.031,377.372c11.054,1.553,12.99,6.785,12.99,11.244  c0,8.338-7.948,13.77-13.573,18.422c-4.846,3.686-12.604,12.217-17.449,15.516c0,0.387,0,0.387,0,0.387  c7.755,1.16,23.074-3.879,31.992-1.359l1.939,4.072c-1.356,1.939,0,1.939,1.163,6.205c0.97,4.072-1.743,2.326-3.296,2.52  c-16.869,0.779-39.363,2.719-43.436,2.326c-4.071-0.387-5.817-7.559-7.95-10.271c0-0.586,0-1.359,0.195-1.553  c15.123-15.129,30.056-25.014,38.394-35.098c0,0,0.97-2.133-3.103-2.52c-4.072-0.193-12.8,2.326-16.676,6.979  c0,0-0.583,0.967-2.133,0.58c-0.583-0.193-0.583-1.939-0.97-1.939c-1.939,0-2.716-2.133-2.716-2.133  C203.794,380.864,220.273,376.399,228.031,377.372L228.031,377.372z"/>
<path fill-rule="evenodd" clip-rule="evenodd" d="M46.922,366.127c0,0.773-0.775,5.039-1.163,5.619  c-0.388,0.773-1.746,1.746-2.521,2.133c-3.684,2.326-7.756,3.492-11.827,5.238c-3.491,1.746-6.787,3.492-10.472,6.592  c-0.775,1.16-1.938,4.266-0.97,5.432c0.582,0.387,2.716,0.58,3.491,0.387c1.165-0.193,3.879-1.166,5.042-1.553  c2.133-0.58,3.684-1.166,5.817-1.939c0.97,0.193,1.745,0.58,2.521,0.967c1.163,0.586,2.521,0.973,3.297,1.746  c2.52,2.326,2.52,5.238,2.133,8.338c-2.521,2.133-7.564,4.459-10.472,6.205c-6.205,3.299-9.694,5.432-14.543,11.25  c-2.133,2.713-1.163,4.652-1.163,4.652c0.193,0.193,0.582,1.939,1.551,2.133c3.296,0.58,10.859-3.299,14.736-3.105  c3.297,1.553,4.654,5.625,6.012,8.537c-0.195,4.266-13.573,6.979-16.676,7.752c-1.938,0.586-4.072,1.359-6.787,1.359  c-4.266,0-8.919-2.713-10.277-3.492c-0.775-0.58-1.163-1.354-1.746-2.133c-3.683-4.652-3.296-8.725-1.938-13.957  c0.388-1.166,0.582-2.525,0.97-3.686c0.388-1.166,6.012-9.504,7.173-10.084l0.195-1.553l-1.356-0.58  c-5.043-0.973-4.072-10.857-3.491-14.156c0.193-1.359,5.235-9.498,7.173-10.084c0.582-1.354,1.939-2.906,3.104-3.879  c2.326-2.52,22.686-9.498,27.535-11.824l1.55,0.193c0.583,0.58,1.358,1.746,1.551,2.52  C45.759,365.542,46.341,365.928,46.922,366.127L46.922,366.127z"/>
<path fill-rule="evenodd" clip-rule="evenodd" d="M160.164,395.6c-1.163,0.193-2.328,0.387-3.684,0.58  c-2.52,0.193-5.042,0.58-6.98,0.773h-1.163l-0.388,0.779c-3.103,5.039-7.756,13.377-7.756,16.289c0,0-0.582,3.486,0.193,5.619  c0.97,1.939,4.267,1.553,4.267,1.553c10.276-2.906,25.207-9.305,25.789-20.168c0-1.547-0.193-2.326-0.775-3.1  c-1.939-2.133-6.787-2.326-6.787-2.326C162.103,395.401,161.133,395.6,160.164,395.6L160.164,395.6z M182.851,405.684  c0,0.387-0.388,1.934-1.358,3.68c-0.775,1.359-1.745,2.332-2.908,4.072c-1.163,1.553-2.328,3.299-3.297,4.459  c0,0-2.714,3.105-3.684,6.205c-0.388,1.553-1.163,2.525-1.745,3.105c-5.818,6.205-18.422,9.111-24.432,8.725  c-12.798-0.58-16.482-15.902-16.094-23.268c0-1.939,1.356-4.846,2.714-7.564c7.563-15.316,13.767-21.521,26.372-20.748  C164.817,384.543,183.239,398.313,182.851,405.684L182.851,405.684z"/>
<path fill-rule="evenodd" clip-rule="evenodd" d="M131.272,386.676c0.582,0.586,1.356,1.553,2.326,2.525  c0.775,0.773,1.746,1.74,3.103,2.906l-0.193,1.746c-3.686,0.773-8.145,1.746-12.217,3.293c-4.459,1.553-9.113,3.105-11.052,7.178  c-1.358,2.906-2.133,6.785-2.521,10.084c-0.387,3.1-0.387,6.592-0.387,7.752c0,0.779,0,1.746,0.193,2.525  c0,0.773,0.193,1.746,0.387,2.52c0.195,0.967,0.388,1.746,0.582,2.52c0.195,0.773,0.195,1.359,0.195,1.746  c-0.195,0.967-3.296,3.879-4.847,3.879c-4.072-0.387-6.4-5.045-7.37-12.023c-0.775-6.592-0.387-13.377-0.387-14.736  c0.193-1.553,0.387-5.238,0.775-9.111c0.388-1.746,0.776-3.492,1.163-5.045c0.583-1.359,0.97-2.133,1.358-2.52  c2.133-0.58,7.175-2.326,12.41-3.879c5.624-1.746,10.857-3.299,12.798-3.1C129.526,385.129,130.303,385.516,131.272,386.676  L131.272,386.676z"/>
<path fill-rule="evenodd" clip-rule="evenodd" d="M61.854,418.094c0.193,0.193,0.582,0.387,1.551,0.58h1.163  c3.103,0.193,5.624-1.939,7.37-4.266c1.938-2.52,3.296-5.818,4.459-8.924c1.939-5.813,3.103-12.018,3.491-14.543  c0.193,0,0.775,0,1.163,0c2.714,0.199,9.113,4.459,9.113,4.852c0.195,0.967,0.583,1.746,0.97,2.133  c0.195,0.387,1.939,2.133,1.939,2.326c0,0-1.745,14.35-1.163,22.881c0,0.58-2.133,2.713-3.103,3.686  c-1.551,1.547-3.686,3.293-5.235,4.459c-0.582-0.193-2.909-3.686-3.684-3.492c-0.776,0.193-6.981,5.045-8.145,5.045  c-2.521,0-8.919,1.16-13.767-1.166c-3.297-1.553-5.624-2.906-7.175-5.818c-3.879-6.785-5.43-18.809-4.847-21.135  c0.387-1.553,2.714-10.664,5.817-17.256c0.968,0.58,1.939,0.967,2.908,1.547c1.551,0.779,3.297,1.359,4.654,2.332  c3.103,1.547,4.072,3.1,3.879,5.426c0,0.973-0.776,4.072-1.746,7.564c-0.388,1.746-1.356,7.758-1.356,8.531  c0,1.359,0.195,2.326,0.582,3.1C60.69,415.956,61.659,418.094,61.854,418.094L61.854,418.094z"/>
<path fill-rule="evenodd" clip-rule="evenodd" d="M268.558,394.627c-0.97,0.193-2.133,0.387-3.296,0.58  c-2.133,0.586-2.329,1.166-4.072,1.359l-0.97,0.193l-0.39,0.779c-2.52,5.039-8.338,13.377-8.142,16.09c0,0-0.583,3.299,0.387,5.238  c0.97,1.746,3.683,1.16,3.683,1.16c9.114-3.68,22.107-11.051,22.107-21.328c0-1.354-0.193-2.133-0.776-2.906  c-1.746-1.746-6.012-1.553-6.012-1.553C270.304,394.241,269.331,394.434,268.558,394.627L268.558,394.627z M288.529,400.252  c0,0.193-0.193,1.16-0.776,2.713c-0.387,1.553-1.163,3.299-1.937,5.045c-0.973,1.74-1.746,3.486-2.329,4.846l-0.97,1.746  l-0.193,0.58c-0.193,0.193-0.193,0.387-0.193,0.58c-0.387,0.779-0.583,2.133-0.97,3.492c-0.39,1.359-0.776,2.326-1.356,3.1  c-4.072,6.791-14.933,11.443-20.168,12.023c-11.247,1.359-16.482-12.217-17.063-19.389c-0.193-1.746,0.58-4.652,1.356-7.371  c4.655-15.51,9.501-21.715,20.361-23.654C272.24,382.411,287.949,393.075,288.529,400.252L288.529,400.252z"/>
<path fill-rule="evenodd" clip-rule="evenodd" d="M312.38,394.627c-0.97,0.193-2.133,0.387-3.296,0.58  c-2.133,0.586-2.326,1.166-4.072,1.359l-0.97,0.193l-0.39,0.779c-2.52,5.039-8.335,13.377-8.335,16.09c0,0-0.39,3.299,0.58,5.238  c0.97,1.746,3.686,1.16,3.686,1.16c9.114-3.68,22.104-11.051,22.104-21.328c0-1.354-0.39-2.133-0.776-2.906  c-1.939-1.746-6.205-1.553-6.205-1.553C314.126,394.241,313.156,394.434,312.38,394.627L312.38,394.627z M332.352,400.252  c0,0.193-0.193,1.16-0.773,2.713c-0.583,1.553-1.166,3.299-2.133,5.045c-0.776,1.74-1.553,3.486-2.136,4.846l-0.97,1.746  l-0.193,0.58c-0.193,0.193-0.193,0.387-0.193,0.58c-0.387,0.779-0.776,2.133-0.97,3.492c-0.387,1.359-0.776,2.326-1.356,3.1  c-4.072,6.791-14.93,11.443-20.168,12.023c-11.247,1.359-16.482-12.217-17.256-19.389c0-1.746,0.58-4.652,1.55-7.371  c4.655-15.51,9.504-21.715,20.361-23.654C316.063,382.411,331.771,393.075,332.352,400.252L332.352,400.252z"/>
<path fill-rule="evenodd" clip-rule="evenodd" d="M22.878,101.637c0.193,0.388,0,0.97-0.193,1.358  c-0.193,0.582-0.775,1.163-1.358,1.356c-0.776,0.193-1.358,0.193-2.133-0.193c-0.776-0.388-1.163-0.776-1.358-1.358  c-0.387-0.582-0.387-1.356,0-1.938c0.195-0.388,0.388-0.776,0.776-0.971c0.388-0.387,1.165-0.58,1.745-0.193l-0.193,0.583  c-0.387,0-0.775,0-0.97,0c-0.388,0.193-0.582,0.387-0.776,0.775c-0.193,0.582-0.193,1.163,0.195,1.551  c0.193,0.388,0.582,0.582,0.97,0.775c0.387,0.195,0.968,0.195,1.356,0.195c0.583-0.195,0.971-0.388,1.165-0.97  c0.193-0.193,0.193-0.582,0-0.776c0-0.387-0.193-0.582-0.388-0.775l0.195-0.775C22.492,100.667,22.685,101.055,22.878,101.637  L22.878,101.637z M16.48,103.381c0.388,0.97,1.163,1.746,2.133,2.133c0.97,0.582,1.938,0.582,2.909,0.195  c1.163-0.388,1.743-0.97,2.326-1.939c0.388-0.97,0.388-2.133,0.193-3.103c-0.388-0.97-1.163-1.745-2.131-2.133  c-0.971-0.582-1.941-0.582-3.104-0.193c-0.97,0.388-1.745,0.97-2.133,1.939C16.092,101.249,16.092,102.413,16.48,103.381  L16.48,103.381z M24.625,100.474c0.387,1.163,0.387,2.326-0.195,3.489c-0.582,1.165-1.358,1.939-2.714,2.328  c-1.165,0.388-2.326,0.388-3.491-0.195c-1.163-0.387-1.939-1.356-2.326-2.52c-0.388-1.163-0.388-2.328,0.193-3.491  s1.358-1.938,2.521-2.328c1.165-0.387,2.326-0.387,3.491,0.195C23.265,98.341,24.042,99.311,24.625,100.474L24.625,100.474z"/>
<path fill-rule="evenodd" clip-rule="evenodd" d="M26.757,94.85c-0.388-0.582-0.582-1.356-0.582-2.133v-1.551  c0-0.582,0-0.97,0-1.358c-0.196-0.387-0.388-0.775-0.776-0.97c-0.582-0.193-0.97-0.388-1.358-0.193c-0.388,0-0.776,0.388-0.97,0.776  c-0.387,0.775-0.387,1.356-0.193,1.938c0.193,0.195,0.582,0.582,1.163,0.776l-0.582,0.97c-0.775-0.388-1.163-0.776-1.55-1.358  c-0.388-0.776-0.388-1.745,0.193-2.714s1.162-1.551,1.938-1.551c0.583-0.193,1.358,0,1.938,0.193  c0.583,0.388,0.971,0.97,1.165,1.551c0.195,0.388,0.195,1.163,0.195,1.939v0.97c0,0.582,0,0.97,0,1.163  c0.193,0.582,0.387,0.97,0.582,1.356l2.52-4.266l0.971,0.582l-3.104,5.237C27.726,95.82,27.144,95.238,26.757,94.85L26.757,94.85z"/>
<path fill-rule="evenodd" clip-rule="evenodd" d="M28.695,81.277c0.776,0.193,1.745,0.582,2.716,1.163  c1.162,0.775,1.938,1.358,2.326,2.134c0.582,0.968,0.582,2.133,0,3.101c-0.582,0.97-1.358,1.358-2.521,1.163  c-0.776,0-1.745-0.388-2.909-1.163c-0.775-0.387-1.55-0.968-1.938-1.745c-0.97-1.163-0.97-2.133-0.39-3.297  C26.757,81.665,27.532,81.277,28.695,81.277L28.695,81.277z M32.962,85.542c-0.195-0.582-0.971-1.163-2.133-1.939  c-0.776-0.582-1.553-0.97-2.328-1.163c-0.582-0.193-1.163,0.193-1.551,0.775c-0.388,0.583-0.388,1.165,0,1.746  s0.97,1.163,2.133,1.746c0.582,0.582,1.356,0.775,1.939,0.968c0.775,0.193,1.55,0,1.939-0.582  C33.156,86.707,33.156,86.124,32.962,85.542L32.962,85.542z"/>
<path fill-rule="evenodd" clip-rule="evenodd" d="M32.768,75.653c0.776,0.195,1.746,0.582,2.714,1.356  c1.165,0.583,1.746,1.358,2.328,2.133c0.582,0.971,0.582,2.134-0.195,3.104c-0.582,0.775-1.356,1.163-2.521,1.163  c-0.775-0.195-1.745-0.582-2.908-1.358c-0.775-0.582-1.551-1.163-1.939-1.745c-0.775-1.165-0.775-2.326-0.193-3.297  C30.83,76.042,31.604,75.653,32.768,75.653L32.768,75.653z M37.033,80.114c-0.193-0.583-0.97-1.358-2.133-2.133  c-0.775-0.583-1.551-0.971-2.328-1.165c-0.582-0.193-1.162,0-1.55,0.582c-0.388,0.583-0.388,1.165,0,1.745  c0.193,0.582,0.968,1.358,1.939,1.939c0.775,0.583,1.356,0.97,1.938,0.97c0.776,0.388,1.551,0.195,1.939-0.387  C37.228,81.082,37.228,80.695,37.033,80.114L37.033,80.114z"/>
<path fill-rule="evenodd" clip-rule="evenodd" d="M38.196,77.205c-0.387-0.582-0.387-1.356-0.387-2.328l0.193-1.356  c0.193-0.582,0.193-0.97,0-1.358c0-0.388-0.193-0.775-0.582-1.163c-0.388-0.193-0.775-0.388-1.163-0.388  c-0.582,0.195-0.97,0.388-1.165,0.776c-0.58,0.582-0.58,1.163-0.388,1.745c0.195,0.388,0.583,0.775,0.971,0.97l-0.776,0.97  c-0.582-0.388-0.968-0.97-1.163-1.551c-0.388-0.776-0.193-1.746,0.582-2.714c0.582-0.776,1.163-1.358,1.939-1.358  c0.775,0,1.356,0.195,1.938,0.582c0.583,0.387,0.776,0.97,0.97,1.745c0,0.388,0,0.97,0,1.939l-0.193,0.97  c-0.193,0.388-0.193,0.776,0,1.165c0,0.387,0.193,0.968,0.388,1.356l2.909-4.072l0.968,0.775l-3.684,4.849  C38.779,78.174,38.391,77.786,38.196,77.205L38.196,77.205z"/>
<path fill-rule="evenodd" clip-rule="evenodd" d="M41.105,62.662l4.072,4.072c0.388,0.388,0.97,0.775,1.358,0.775  c0.775,0.193,1.356,0,2.133-0.58c0.582-0.776,0.968-1.553,0.582-2.328c0-0.388-0.387-0.776-0.776-1.165l-4.071-4.071l0.968-0.97  l3.492,3.684c0.968,0.775,1.356,1.551,1.55,2.133c0.388,1.163,0,2.328-0.97,3.489c-1.163,0.971-2.326,1.359-3.489,0.971  c-0.583-0.195-1.358-0.583-2.134-1.551l-3.683-3.491L41.105,62.662L41.105,62.662z"/>
<polygon fill-rule="evenodd" clip-rule="evenodd" points="47.117,56.457 52.158,52.191 52.934,52.966 48.863,56.65 50.606,58.589   54.485,55.293 55.067,56.068 51.383,59.559 53.321,61.887 57.588,58.203 58.169,58.978 53.127,63.437 47.117,56.457 "/>
<polygon fill-rule="evenodd" clip-rule="evenodd" points="54.097,50.446 59.139,46.567 59.721,47.537 55.843,50.64 57.395,52.772   61.077,50.057 61.659,50.833 58.169,53.742 60.69,57.038 59.721,57.814 54.097,50.446 "/>
<path fill-rule="evenodd" clip-rule="evenodd" d="M66.894,47.537l-3.489-2.521l1.163,4.072L66.894,47.537L66.894,47.537z   M62.047,44.24l1.165-0.775l7.95,5.43l-0.97,0.775l-2.326-1.551l-3.103,2.133l0.97,2.714l-1.165,0.776L62.047,44.24L62.047,44.24z"/>
<polygon fill-rule="evenodd" clip-rule="evenodd" points="75.04,35.902 75.62,36.678 72.906,38.423 77.56,45.209 76.396,45.792   71.938,39.199 69.417,40.944 68.833,39.974 75.04,35.902 "/>
<path fill-rule="evenodd" clip-rule="evenodd" d="M75.813,34.74l1.359-0.971l6.398,5.237l-1.939-7.951l1.551-0.97l4.847,7.756  l-0.968,0.775l-2.909-4.652c0-0.195-0.193-0.388-0.388-0.776c-0.193-0.387-0.582-0.775-0.775-1.163l1.938,7.95l-1.163,0.582  L77.56,35.32v0.388c0.195,0.193,0.388,0.388,0.582,0.775c0.388,0.39,0.582,0.583,0.582,0.776l2.909,4.654l-0.97,0.582L75.813,34.74  L75.813,34.74z"/>
<path fill-rule="evenodd" clip-rule="evenodd" fill="#EB6B0A" d="M74.264,56.845c11.634-6.205,11.052-3.103,19.197-7.368  c39.751-18.422,72.521,13.378,72.521,13.378s-18.615-7.95-33.353-7.367c-42.466,1.356-62.244,26.563-64.182,29.279  c-16.094,22.299-22.881,43.822-19.973,67.866c3.104,21.33,9.308,38.782,26.178,57.59c0,0,11.246,18.809,37.811,32.575  c14.738,7.564,49.446,26.953,70,29.859c7.368,0.199,9.308,0.586,14.155,2.332c0.582-0.393,1.744-1.359,1.744-2.133  c7.368,2.52,37.427,8.139,44.988,9.111c2.326-19.002,10.274-34.711,25.787-56.427c3.879-5.235,7.951-11.829,9.114-13.96  c0.193-1.358,9.891-12.412,9.891-12.412c7.948-9.306,11.634-15.318,16.869-26.372c7.755-16.674,7.951-30.636,11.44-45.76  c1.939-12.41-3.296-25.983-8.728-38.2c0.776-2.908-0.967-5.624-1.937-8.143C298.417,61.11,240.441,19.809,181.3,59.947  c41.689-54.1,104.903-18.615,104.71-19.003c28.31,14.156,43.629,43.436,43.436,76.592l-0.583,13.768l-0.97,0.97  c-1.553,6.981-0.387,10.666-2.326,17.451c-0.39,0.583-0.39-0.968-0.583-0.58c-3.296,9.5-6.205,19.002-11.827,28.115  c-0.39,2.716,0.387,5.624-0.97,8.339c-1.356,1.358-2.909,1.938-4.266,3.101l-28.116,41.109c1.163,0.388-39.557,55.652-3.686,76.207  c0.583,0.773-1.939,1.74-2.909,1.74c-24.624-1.354-80.47-9.691-97.534-16.676v-1.74c-3.103-1.746-4.266-4.465-7.562-5.045  c-6.981,0-11.44-0.58-17.84-2.906l-2.908,1.939c0,0-3.879-1.553-8.533-3.492c-3.879-1.359-40.526-19.002-52.16-30.445  c0,0-21.523-20.94-30.637-26.952c-9.308-10.276-17.646-33.933-17.646-33.933c-0.388-2.326-12.215-21.911-12.215-31.219  c0-7.563-4.849-1.163-2.522-9.306c1.939-7.176,10.084-44.405,15.319-49.252c0,0,9.308-13.768,16.481-20.748  c4.267-4.074,9.891-13.187,16.484-17.259L74.264,56.845L74.264,56.845z"/>
<path fill-rule="evenodd" clip-rule="evenodd" fill="#FABB00" d="M285.816,172.412c13.767-47.506-16.485-91.717-38.59-105.483  c-12.99-8.146-35.095-24.434-76.204-19.975C140.58,50.057,115.953,71,107.422,79.919c-15.318,16.482-23.076,32.577-26.372,54.876  c-2.521,16.676,0.582,37.23,6.205,52.162c3.877,10.081,5.817,13.573,10.471,19.97c-0.775,0.583-0.388,0.776-1.358,0  c-6.397-8.918-7.173-11.634-11.829-22.493c-1.55-3.489-1.55-5.042-1.55-5.042s-2.328-0.582-2.716,0.195c0,0.195,0,2.133,2.133,7.37  c3.491,8.918,9.502,21.91,19.392,32.962c0.97,1.165-0.387,1.553-0.97,0.388c-12.798-13.573-18.615-30.442-20.941-37.036  c-1.165-3.103-2.328-6.787-2.328-7.368c0,0-3.489-1.163-3.101,0.388c1.745,6.398,5.234,15.125,11.246,27.146  c4.072,7.173,7.175,13.767,21.33,27.146c22.106,20.94,66.122,31.61,107.424,18.034C253.238,236.013,274.763,209.836,285.816,172.412  L285.816,172.412z"/>
<path fill-rule="evenodd" clip-rule="evenodd" fill="#FFFFFF" d="M216.978,104.158c-1.743,2.133-2.909,6.398-3.296,8.919  s5.429,9.696,10.857,16.481c4.269,5.43,6.205,11.054,9.114,14.35c2.522,2.521,3.879,8.531-1.55,10.277  c-6.981,2.326-6.205-1.163-6.205-1.163l-2.326-6.98c0,0-5.042-11.829-6.981-15.513c-1.939-3.686-15.126-15.708-14.156-20.167  c0.39-1.165,0.776-2.521,1.359-3.684c-2.329,2.52-4.655,4.459-6.012,6.398c-0.776,0.97-1.939,1.356-3.491,1.745  c-7.175,1.746-15.513-1.163-16.869,0.195c-7.951,7.368,6.398,2.714,19.778,10.471c2.325,1.356,8.727,13.768,12.022,22.881  c1.163,3.684-4.849-2.52-5.042-0.776c-0.776,44.793-33.158,25.207-40.721,33.933c-5.624,8.726,26.953,5.432,22.301,10.472  c-7.758,8.143-16.677-1.746-25.79,2.521c-7.951,3.877-5.624,13.378-16.676,15.125c-4.654-1.746-11.829-5.817-21.718-2.909  c-5.429-2.521,8.145-5.622,2.521-9.308c-1.746-1.163-18.227-1.939-19.778-3.296C91.133,182.301,89,168.34,91.714,159.809  c0.195-1.358,3.491-9.501,0.583-14.155c-1.746-6.012-2.716-15.125-0.193-21.136c0.775-1.745-0.39,7.368,5.817,17.064  c1.55,3.877,6.205,10.277,7.173,8.338c0.388-0.388,13.961,1.939,21.718,0.388c3.877-0.776,7.562-1.358,9.114-4.072  c0.775-1.551,3.296-7.175-1.358-7.951c-4.46-0.775-5.042,3.104-6.787,3.491c-9.696,0.776-17.257,0.582-19.003-0.776  c-3.684-4.264-12.217-20.165-9.113-29.667c2.908-8.918,10.083-17.837,17.646-24.237c2.133-1.551,12.215-2.326,14.155-3.103  c3.489-4.072,0.775-5.817-3.491-4.849c-0.775-0.193,3.103-2.52,3.684-3.294c14.155-8.533,32.965-9.696,38.394-8.726  c10.666,2.133-8.145,8.338-1.356,13.573c6.204,4.072,16.674-16.676,37.23-4.847c6.592,3.683,5.622,11.827,3.876,19.195  c-0.387,1.551-0.773,2.909-1.356,4.072c0.583-0.582,0.97-0.968,1.553-1.163C212.519,96.401,218.724,102.025,216.978,104.158  L216.978,104.158z M207.863,184.434c0,0,0.583-5.817,1.746-8.531c0.97-2.714,7.562-12.022,9.501-14.544  c1.939-2.714,6.981-5.041,6.981-5.041s10.084,0.388,13.184,2.326c3.105,1.941,3.299,2.909,2.136,6.788  c-0.776,3.103-3.489,2.133-5.429,1.356c-1.553-0.58-1.746,0.195-9.891,4.849s-6.981,6.593-8.921,12.022  c-1.937,5.43,0,6.398-2.326,6.785C207.283,191.416,207.863,184.434,207.863,184.434L207.863,184.434z"/>
<path fill-rule="evenodd" clip-rule="evenodd" fill="#EB6B0A" d="M163.459,63.05c-7.95,1.163-16.288,3.296-24.819,6.398  c-3.103,1.551-6.012,3.296-8.919,5.235c0.193-0.582-0.195-0.97,0-1.358c0.775-1.356,1.356-2.326,1.551-3.101  c0.387-0.776,0.582-1.358,0.387-2.134c1.358-1.55,3.686-3.296,6.012-4.654l0.388-0.193c1.938-3.103,3.489-3.684,3.489-3.684  s52.355-26.178,100.443,9.502c9.308,6.98,17.259,15.123,24.82,27.34c11.827,19.002,14.736,35.679,15.126,55.263  c-1.939,28.504-17.646,65.347-52.937,82.409c-14.736,7.176-24.24,10.666-40.721,12.605c-6.98,0.773-11.246,0.967-18.42,0.58  c-14.156-0.58-20.943-1.354-35.679-7.56c-5.429-2.328-12.992-7.175-19.778-13.575c0,0-0.388-0.775,2.909,0.195  c0.193,0,0.388-0.195,0.388-0.388c-5.818-4.266-15.126-15.706-15.126-15.706c-1.745-3.491-4.652-6.98-6.98-11.829  c-3.103-6.205-6.398-16.676-6.398-16.676c0.387-0.387,1.356-0.195,1.356-0.195c-1.356-4.459-1.551-6.398-2.326-10.664  c0.582-0.776,0.775-1.163,2.521-0.388c0.582,2.716,1.745,6.205,2.908,9.502c0.582,0.193,1.165,0,2.134-0.388  c1.163-5.042,0-7.368,0.193-11.247c0.193-3.877,1.551-6.205,2.521-10.277c0.582-2.133,0.775-4.071,1.745-5.429l-0.776-1.745  c-0.968-1.358-1.356-3.686-1.356-5.041c0.582-2.909,4.266-4.655,6.593-1.746l3.101,4.072c1.551-0.193,1.551,0.388,3.103,0.193  c1.358-0.193,5.042-1.358,8.533-1.551c3.684-0.388,6.204,0.193,9.113,0.387l3.879-4.459c3.491-6.398,10.471-2.714,7.175,3.877  l-2.522,3.491c0.583,0.583,1.165,1.358,1.746,2.133c5.624,8.919,10.859,18.227,15.706,27.729c0.388-0.193,5.43,1.745,5.43,1.745  c7.563,1.358,8.338,6.98,0.97,7.951l-6.207-1.165c-0.58,0.776-0.968,1.551-1.55,2.326l-1.939,2.328l-2.133,2.326  c-1.356,1.551-2.716,2.909-3.684,4.654c-0.775,0.776-1.746,1.745-2.714,2.716l-2.716,2.908c-0.582,0.776-0.775,0.97-1.356,1.553  c0.193,0.387,0.193,1.162,0.388,1.55l1.551,3.297c4.266,5.817-1.939,11.246-6.207,5.429c0,0-4.459-6.593-4.652-7.173  c-0.582-0.388-1.358-1.553-2.133-1.941c-1.165-0.775-4.849,0-6.012-0.582c-0.776-0.193-0.97-1.163-1.163-1.745  c9.501-2.326,20.941-4.072,25.595-17.646c2.521-10.664-1.939-19.778-10.277-27.341c-1.163-0.968-8.338-5.429-10.277-5.622  l-4.847,0.387c-0.97,0-1.939-0.193-2.714-0.387c0,0-3.491,0.193-5.624,0.968c-2.133,0.776-3.491,1.165-5.041,2.714  c-1.358,1.553-1.746,2.909-2.329,4.655c-1.162,2.714-1.745,6.98-1.745,6.98c0.195,2.909,0.195,4.072,0.583,5.042l0.775,3.296  c0.387,2.326,2.133,4.46,4.072,6.981c1.551,1.938,2.133,3.491,4.266,4.652c3.491,2.134,6.398,1.358,10.471,0.583  c2.326-0.388,4.267-0.583,5.818-1.939c0.968-0.582,4.459-4.46,4.459-4.46c1.746-2.908,0.775-5.429-0.582-7.367  c-0.582-0.971-1.939-4.074-4.266-5.43c-2.521-1.551-5.042-1.746-7.563-0.97c-1.745,0.97-1.745,4.072-1.551,4.847  c0.388,1.358,4.654,1.553,5.43,1.746c1.356,0.388,2.326,1.163,2.133,2.908c0.193,1.163-3.491,3.491-3.491,3.491  c-2.909,0.582-4.654,0.193-7.368-0.97c-0.97-0.388-1.746-0.388-2.328-1.163c-0.968-1.745-1.163-2.133-1.551-2.521  c-1.551-2.328-1.356-4.654-0.775-6.98c0.582-2.522,1.746-4.849,2.133-7.175c1.551-1.746,3.491-2.714,5.235-2.328  c2.133,0.582,2.133,0,3.491,0.195c2.908,0.387,4.654,1.356,7.175,2.326c2.326,0.97,4.459,2.326,5.817,4.847  c2.909,4.072,5.235,8.726,3.877,14.35c-0.582,1.551-1.163,2.521-1.745,3.684l-0.97,1.938c-0.387,0.583-0.775,1.165-0.97,1.746  c-3.103,3.879-6.787,5.624-12.022,6.787c-1.745,0.582-2.714,0.582-4.46,0.775c-2.326,0-4.071-0.193-6.204-0.387  c-3.879-0.582-7.951-4.266-9.308-5.042c-0.97-0.387-2.326-0.193-3.879-0.968c9.308,15.123,23.074,28.698,40.915,36.647  c-0.582-0.97-1.163-1.939-1.358-3.103c-0.387-3.684,5.042-2.714,6.207-0.582c0.58,0.97,4.264,6.398,7.367,8.145  c1.745,0.387,3.297,0.775,4.847,0.968c5.237,1.165,17.452,1.358,21.524,1.165c0.97-0.195,1.358,1.938,4.46,1.163  c1.745-0.388,5.429-1.746,9.113-3.103c1.939-1.551,4.46-4.266,5.429-5.624c1.359-1.745,2.716-4.072,5.432-2.909  c1.743,0.776,2.326,0.97,0.967,2.909c-0.193,0.582-0.387,1.165-0.58,1.551c7.562-2.133,13.573-4.072,22.104-11.44  c4.266-3.684,6.595-5.817,10.084-10.277c4.849-6.205,8.338-14.543,9.888-17.644c0.776-1.746,1.553-3.492,1.939-5.042  c0.39-2.328,0.776-5.042,0.97-7.95c0-2.909-0.193-6.012-0.387-7.37c-0.193-1.551-1.163-6.01-2.522-7.175  c-4.266-4.071-17.256-5.235-17.256-5.235l-1.939,1.165c0,0-2.522,1.55-3.103,1.743c-5.235,3.492-8.918,8.921-10.277,12.605  c-1.356,3.491-3.492,6.787-4.652,10.277c-0.583,0.775-0.39,1.163-0.583,1.939c-0.776,4.071,1.939,8.531,2.326,10.471l0.776,2.908  c0.193,0.776,2.716,5.818,6.205,6.012c0.776,0.193,2.326-0.193,2.326-0.193c1.359,0,2.909-0.388,3.879-1.551  c3.103-2.328,3.489-2.714,3.879-3.103c2.133-2.909,4.652-5.818,6.398-8.919c1.939-3.104,3.103-6.593,2.133-10.666  c-0.387-0.388-0.97-1.163-1.163-1.746c-0.39-0.775-0.583-1.55-0.776-2.326c-0.583-1.551-1.356-2.908-4.072-2.908  c-3.489-0.388-6.009,2.52-7.951,5.234c-0.387,1.746-1.55,6.593-0.387,7.176c1.553,1.356,3.296-4.072,4.462-4.46h2.326  c1.55,1.939,2.133,2.326,2.133,2.326c0.193,1.358,0.387,2.522,0.193,3.684c-1.163,3.104-1.746,3.879-3.103,6.012  c-0.583,0.775-1.356,1.939-1.356,1.939l-2.326,1.939c-0.776,0.387-1.359-0.39-1.746,0.968l-1.939-0.775  c-0.97,0.193-1.166-0.97-1.939-1.165c-5.042-6.787-4.655-14.155-0.97-21.33c0.583-0.775,1.163-1.356,1.743-2.133l1.746-2.326  c1.163-1.551,6.205-5.43,7.564-5.43c0,0,1.55,0,2.52-0.193c0.776-0.193,1.356-0.193,2.133-0.582  c4.462,0.193,7.368,3.684,9.114,7.563c1.55,6.204,0.58,14.736-2.326,19.972c-2.326,4.654-7.758,11.44-7.758,11.44  s-6.009,3.877-6.592,4.266l-2.522,0.97c-1.163,0.776-2.713,1.356-3.683,2.328c-0.39,0.193-0.97,0.193-1.356,0.387  c-0.196,0.388-0.39,0.583-0.583,0.97l-2.909,3.297l-1.163,1.163c-3.683,6.01-11.634,3.877-7.951-2.133l2.326-2.909  c-0.387-0.388-0.773-0.775-1.16-1.358c-0.97-3.296-2.136-6.398-3.686-9.501c-1.356-3.103-2.909-6.398-4.266-9.501l-0.776-0.775  l-4.847-0.39c-7.173-0.582-6.593-7.173,0.388-7.173l7.562-0.97l0.387-0.193c0.39-0.583,0.97-1.358,1.359-2.133  c1.163-2.133,2.713-4.267,4.266-6.4s3.296-4.266,4.849-6.398c3.103-3.879,6.009-7.563,8.142-11.829  c-0.776-0.582-1.356-1.358-1.937-2.326l-0.97-3.491c-3.686-6.398,3.296-10.277,6.981-3.877l2.326,4.654c0.967,0,1.937,0,2.906,0.387  h2.133c5.818,1.551,10.474,2.521,15.319,2.714l1.356-1.358c3.686-6.204,11.054-2.52,7.368,3.686l-1.163,1.745  c0,0,1.746,7.175,1.942,11.829c0.19,1.939,0.19,5.235,0.19,5.235l-0.19,6.787c1.16-2.521,3.1-9.308,2.906-10.471  c0.58-0.582,1.939-12.41,2.133-13.187c0,0,0.583-2.326,0.776-6.592c-0.193-3.684-0.387-7.563-0.387-7.563l-0.196-1.163  c-0.58-1.746-3.296-2.908-3.879-5.429c0-0.776,1.939-4.267,2.133-4.654c-0.58-2.714-1.354-5.43-1.937-7.563  c-0.39-1.358-0.97-2.714-1.746-4.849c-3.296-6.785-6.785-12.795-10.857-18.226c-0.776-0.776-1.359-1.551-2.133-2.328  c-4.462-4.654-14.35-12.604-18.229-14.93c-3.879-2.521-7.755-4.654-12.023-6.4c-0.967,0.97-0.773,1.746-0.58,2.328l0.58,1.745  c0.196,0.193,0.39,0.388,0.39,0.775l4.652,0.776c4.462,1.939,7.951,8.919,2.133,7.368c-3.683-0.97-3.103-0.193-6.398-1.163  c-0.97,3.877-2.713,8.533-3.876,10.666c-0.97,2.133-2.909,3.296-3.879,5.234c-0.776,1.359-0.776,1.941-1.359,3.103  c0.39,0.39,3.492,7.37,3.492,7.37c0.583,1.163-1.55,2.326-2.133,3.489c-2.522,1.746-3.492,4.654-6.398,0.582  c-2.135-3.103-1.359-4.847-3.104-6.98h-0.389c-3.296,0-6.398-0.582-9.501-1.163c-3.103-0.388-6.398-0.971-9.888-0.775  c-0.971-0.39-1.746-0.583-2.716-0.583c-0.776,0-1.745,0-2.521,0c-0.97,0-1.745,0-2.521,0c-0.968-0.193-1.939-0.387-2.714-0.582  l-1.745,0.582h-1.165l-3.684,4.072c-3.489,6.398-12.215,3.103-8.725-3.296l3.683-4.847c-2.908-7.951-6.01-15.513-8.725-23.269  l-3.103,0.387c-5.042,2.328-8.726-4.266-3.684-6.592l8.533-2.326c2.52-2.134,5.429-3.879,8.143-5.43  c2.909-1.746,5.624-3.103,8.338-4.849C164.041,64.406,163.654,63.631,163.459,63.05L163.459,63.05z M200.495,67.315  c0-0.193,0.196-0.387,0.583-0.387c1.163,0.193,4.072,0.58,7.175,1.55c9.501,3.103,18.615,7.563,27.146,13.961  c3.296,2.328,6.398,4.849,9.501,8.145l9.114,11.246c0.193-0.968-0.583-2.908-1.746-4.847c-11.827-16.288-30.249-28.893-53.13-33.352  c-1.163-0.195-2.326-0.388-3.491-0.582c0,0-4.458-0.195-7.368,0c-4.654,0.387-7.562,0.97-11.827,2.908  c-6.205,2.716-10.471,4.654-13.768,10.666c-1.358,2.714-2.133,4.654-2.326,7.756c-0.195,3.684,0,6.98,2.133,9.114  c1.163,6.98,6.592,10.469,13.573,12.797c3.877,1.358,10.664,0.97,10.664,0.97c6.593,2.133,11.827-1.746,16.482-6.98  c1.939-2.133,2.52-4.072,3.879-6.4c0.773-3.877-0.97-6.592-1.939-9.889c-1.746-6.398-9.503-6.593-15.125-7.95  c-4.849,1.163-9.889,3.489-12.217,8.338c-0.193,1.356-0.968,2.909-0.193,4.266c0.387-0.195,0.58,3.103,2.133,4.072  c0.582,0.193,0.97,0.388,1.358,0.582c1.745,0.775,2.52,2.133,4.264,2.521c2.716,0.775,7.563-1.939,6.981-2.714  c-2.133-2.328-4.072-1.358-4.072-1.358c-2.909-1.358-0.582-0.97-2.52-2.521c0.388-1.163-2.328-3.491-1.553-4.459  c1.163-1.358,1.941-3.297,4.072-3.297c3.297,0.582,6.593,0,8.533,3.297c1.55,2.714,4.072,8.143,3.296,10.471  c-0.97,2.52-3.296,5.817-6.205,6.01c-6.981,1.551-10.664,1.358-16.288-1.358c-6.4-2.52-7.95-7.562-8.339-13.96  c-0.193-3.491-0.193-5.817,1.553-8.921c0.97-1.55,2.133-2.52,3.296-3.489c0.583-0.195,2.716-2.133,4.654-3.104  c4.654-2.52,6.592-4.071,12.992-3.683c0.97,0,1.939-0.193,3.297-0.193C197.006,66.541,198.752,66.929,200.495,67.315L200.495,67.315  z M121.382,85.931c-3.877-2.133,1.746-8.726,6.207-4.849C129.915,83.215,125.647,88.063,121.382,85.931L121.382,85.931z   M151.244,122.966c5.43,3.491-1.551,13.573-7.563,7.175C140.192,126.65,145.814,119.282,151.244,122.966L151.244,122.966z   M180.523,185.792c2.328,4.459-6.204,7.563-7.95,1.165C171.604,183.271,178.196,181.333,180.523,185.792L180.523,185.792z   M101.217,133.437c-2.909,4.072-9.502-2.908-4.655-7.175C99.277,123.936,104.319,129.365,101.217,133.437L101.217,133.437z   M217.367,135.182c-0.583,5.624-11.44,2.521-8.921-4.266C209.803,127.039,217.947,129.558,217.367,135.182L217.367,135.182z"/>
<path fill-rule="evenodd" clip-rule="evenodd" fill="#009A54" d="M347.091,81.858c-0.39-0.97-0.39-2.328-0.39-3.684  c0-1.939,0-4.072,1.163-6.205c0.776-2.521,5.042-3.491,7.951-3.103c3.296,0.388,6.012,2.521,6.979,4.459  c0.97,2.328,1.166,4.46,0.583,6.788l-0.193,0.775c-0.193,0.582-0.583,1.163-0.97,1.745c-0.583,1.165-1.356,2.134-2.326,2.909  c-0.776,0.582-5.042,2.908-6.208,2.133c-0.193,0.193-0.58,0.388-0.967,0.388s-0.583-0.195-0.776-0.388c-0.583,0.193-1.356,0-1.743,0  c-1.746-0.387-3.686-2.521-3.686-3.101c0-0.776,1.163-0.776,0.776-1.553c-0.193-0.388-0.583-0.582-0.583-0.775  C346.895,82.052,346.895,82.052,347.091,81.858L347.091,81.858z"/>
<path fill-rule="evenodd" clip-rule="evenodd" fill="#009A54" d="M251.492,8.369c-2.52-2.521,1.166-5.042,3.879-6.593  c0.387-0.195,0.583-0.195-0.193,0c-1.163,0.387-2.716,1.163-4.072,2.52c-0.58,0.583-1.163,1.746-1.163,2.716  c0.193,0.97,0.776,1.551,0.97,1.939h-0.193c-0.39-0.195-0.583-0.582-0.583-0.582c-0.193-0.195-0.58-0.776-0.58-1.746  c0-0.775,0.387-1.551,0.97-2.328c1.163-1.163,2.713-2.133,4.652-3.101c3.492-2.133,9.888-1.551,12.604,2.908  c1.356,2.133,1.356,4.849,0.39,6.787c-0.776,2.133-2.329,3.879-4.462,5.042c-0.193,0.193-1.939,0.97-2.713,1.165  c-1.359,0.193-2.522,0-3.686-0.195c-0.773-0.193-0.97-0.193-1.746-0.582c-0.387,0.582-2.52-1.939-2.713-1.939  c-0.193-0.193-0.97-1.358-0.97-1.551c-0.776-1.163-0.776-2.714-0.776-3.877c0,0,0.387,0,0.583-0.388  c0.193-0.193,0.387-0.775,0.193-0.775C251.688,7.98,251.492,8.369,251.492,8.369L251.492,8.369z"/>
<path fill-rule="evenodd" clip-rule="evenodd" fill="#009A54" d="M314.513,22.329c0.583-2.714,4.266-1.745,6.205-0.968  c0.776,0.193,0.776,0.193,0-0.388c-1.163-0.582-1.746-0.776-3.489-1.163c-0.776-0.195-1.746-0.195-2.522,0.582  c-0.776,0.582-0.97,1.745-1.163,1.551c0-0.388,0-0.388,0-0.776c0.193-0.388,0.583-0.775,1.163-1.356  c0.583-0.388,1.553-0.582,2.326-0.582c1.746,0.193,3.492,1.163,5.042,2.133c3.879,1.745,6.788,7.175,4.849,11.827  c-1.163,2.326-3.296,3.686-5.429,4.072c-2.133,0.388-4.462,0.195-6.595-0.97c-0.193,0-0.387-0.193-0.773-0.193  c-0.583-0.388-0.97-0.776-1.553-1.356c-0.97-0.776-1.55-1.939-1.939-3.104c-0.193-0.775-0.58-0.775-0.58-1.551  c-0.583,0,0.193-3.296,0.193-3.491c0-0.192,0.583-1.356,0.776-1.551c0.387-1.356,1.743-2.133,2.713-2.908c0,0,0,0.582,0.39,0.775  C314.706,23.105,314.513,22.717,314.513,22.329L314.513,22.329z"/>
<path fill-rule="evenodd" clip-rule="evenodd" fill="#009A54" d="M357.365,138.284c2.909-1.745,4.266,2.521,4.849,5.43  c0.193,0.388,0.193,0.582,0.193-0.193c-0.193-1.165-0.387-2.909-1.356-4.46c-0.39-0.776-1.163-1.551-2.133-1.745  c-1.359-0.388-1.746,0.193-1.939,0c0-0.193,1.356-0.776,2.326-0.388c0.776,0.195,1.553,0.775,2.133,1.356  c0.776,1.553,1.163,3.297,1.356,5.43c1.166,3.877-0.967,9.501-6.009,11.054c-2.326,0.58-4.849-0.195-6.401-1.553  c-1.743-1.356-2.906-3.103-3.489-5.624c-0.193-0.193-0.193-0.388-0.193-0.582c-0.193-0.775-0.193-1.356-0.193-2.133  c0.193-1.356,0.583-2.521,1.163-3.489c0.387-0.583,0.387-0.776,0.97-1.358c-0.39-0.388,2.52-1.939,2.713-2.133c0,0,0.39,0,0.583,0  c0.193-0.195,0.776-0.388,0.97-0.388c1.356-0.387,3.296-0.193,3.879,0.193C357.365,137.897,356.785,138.479,357.365,138.284  L357.365,138.284z"/>
<path fill-rule="evenodd" clip-rule="evenodd" fill="#009A54" d="M191.771,20.196c-1.551-2.133,1.356-4.266,3.297-5.235  c0.775-0.387,0.58-0.582-0.194-0.193c-1.163,0.387-1.939,0.775-3.103,1.745c-0.776,0.583-1.358,1.356-1.358,2.328  c0,0.97,0.776,1.938,0.582,1.938c-0.387-0.193-0.387-0.193-0.582-0.387c-0.193-0.388-0.387-0.97-0.387-1.746  c0.193-0.776,0.582-1.745,1.163-2.326c1.356-1.165,2.908-1.745,4.847-2.521c3.686-1.745,9.694-0.582,12.217,4.071  c0.97,2.328,0.583,4.849-0.39,6.593c-1.16,1.941-2.713,3.491-5.039,4.655c-0.196,0-0.39,0.193-0.583,0.193  c-0.776,0.193-1.356,0.387-2.133,0.387c-1.163,0.195-2.521,0-3.49-0.387c-0.775-0.388-0.971-0.193-1.745-0.775  c-0.193,0.582-2.328-2.133-2.521-2.133c0-0.195-0.582-1.359-0.775-1.553c-0.583-1.356-0.388-2.714-0.388-4.072  c0,0,0.582,0.388,0.775,0.195C192.545,20.777,192.159,20.584,191.771,20.196L191.771,20.196z"/>
<path fill-rule="evenodd" clip-rule="evenodd" fill="#009A54" d="M325.566,211.192c0-1.162,0.193-2.133,0.58-3.489  c0.39-1.745,0.97-3.684,2.522-5.43c1.356-1.938,5.429-1.743,7.755-0.388c2.909,1.359,4.655,4.074,5.042,6.4s0,4.46-0.97,6.4  l-0.387,0.582c-0.39,0.582-0.776,0.97-1.166,1.551c-0.773,0.775-1.743,1.551-2.906,1.939c-0.776,0.387-1.359,0.58-1.553,0.968  c-0.193,0.775-4.072,0.193-5.235-0.775c-0.193,0-0.58-0.388-0.776-0.582c-0.387,0-0.967-0.388-1.356-0.583  c-1.55-0.775-2.326-3.877-2.326-3.877s-0.387-0.582,0-0.775c0.387,0,0.193-1.551,0.387-1.746  C325.177,211.387,325.373,211.387,325.566,211.192L325.566,211.192z"/>
<path fill-rule="evenodd" clip-rule="evenodd" fill="#009A54" d="M285.04,261.221c0.583-0.773,0.776-1.16,1.55-2.133  c1.163-1.553,2.52-3.1,4.655-4.459c2.133-1.553,6.785-1.359,9.114-0.193c2.906,1.16,4.069,3.486,3.876,5.232  c-0.387,1.939-1.55,3.686-3.296,5.432l-0.58,0.387c-0.583,0.387-1.166,0.773-1.942,1.166c-1.16,0.58-2.326,1.354-3.876,1.547  c-0.97,0.199-1.163,0.586-2.133,0.779c-1.939,0.193-4.072-0.193-4.849-1.166c-0.193-0.193-0.583,0.586-0.97,0.387  c-0.193,0-0.387-0.387-0.58-0.387c-0.387-0.193-1.166-0.387-1.359-0.58c-1.55-0.773-0.387-5.039-0.193-5.039L285.04,261.221  L285.04,261.221z"/>
</svg>