<?xml version="1.0" encoding="UTF-8"?>
<!-- Generator: Adobe Illustrator 13.0.2, SVG Export Plug-In . SVG Version: 6.00 Build 14948)  -->
<!DOCTYPE svg PUBLIC "-//W3C//DTD SVG 1.0//EN" "http://www.w3.org/TR/2001/REC-SVG-20010904/DTD/svg10.dtd">
<svg version="1.0" id="Ebene_1" xmlns="http://www.w3.org/2000/svg" xmlns:xlink="http://www.w3.org/1999/xlink" x="0px" y="0px" width="561.261px" height="375.985px" viewBox="0 0 561.261 375.985" enable-background="new 0 0 561.261 375.985" xml:space="preserve">
<path fill-rule="evenodd" clip-rule="evenodd" fill="#009EE0" d="M308.563,90.375c-19.646,48.624-74.899,47.886-74.899,47.886  h-132.86l7.124-15.961h122.544C230.473,122.3,284.008,123.28,308.563,90.375L308.563,90.375z"/>
<path fill-rule="evenodd" clip-rule="evenodd" fill="#009EE0" d="M297.636,114.932c-19.646,48.624-74.9,47.886-74.9,47.886H89.875  l7.124-15.961h122.544C219.543,146.857,273.078,147.837,297.636,114.932L297.636,114.932z"/>
<path fill-rule="evenodd" clip-rule="evenodd" fill="#009EE0" d="M275.78,164.045c-19.646,48.63-74.9,47.895-74.9,47.895H68.024  l7.124-15.97h122.537C197.685,195.97,251.222,196.955,275.78,164.045L275.78,164.045z"/>
<path fill-rule="evenodd" clip-rule="evenodd" fill="#009EE0" d="M264.85,188.602c-19.645,48.63-74.899,47.895-74.899,47.895H57.095  l7.124-15.964h122.54C186.759,220.533,240.293,221.517,264.85,188.602L264.85,188.602z"/>
<path fill-rule="evenodd" clip-rule="evenodd" fill="#009EE0" d="M305.862,146.119c19.646-48.624,74.903-47.886,74.903-47.886  H517.55l-7.122,15.961H383.956C383.956,114.194,330.419,113.214,305.862,146.119L305.862,146.119z"/>
<path fill-rule="evenodd" clip-rule="evenodd" fill="#009EE0" d="M316.793,121.562c19.646-48.625,74.897-47.886,74.897-47.886  h136.784l-7.116,15.961H394.884C394.884,89.637,341.35,88.653,316.793,121.562L316.793,121.562z"/>
<path fill-rule="evenodd" clip-rule="evenodd" fill="#009EE0" d="M338.646,72.447c19.646-48.624,74.903-47.89,74.903-47.89h136.784  l-7.122,15.965H416.742C416.742,40.522,363.202,39.54,338.646,72.447L338.646,72.447z"/>
<path fill-rule="evenodd" clip-rule="evenodd" fill="#009EE0" d="M349.576,47.889C369.223-0.733,424.477,0,424.477,0h136.784  l-7.119,15.965H427.667C427.667,15.966,374.133,14.981,349.576,47.889L349.576,47.889z"/>
<path fill-rule="evenodd" clip-rule="evenodd" fill="#FDCA4F" d="M286.711,139.489c-19.648,48.624-74.906,47.886-74.906,47.886  H78.955l7.119-15.961h122.54C208.614,171.414,262.148,172.398,286.711,139.489L286.711,139.489z"/>
<path fill-rule="evenodd" clip-rule="evenodd" fill="#FDCA4F" d="M327.721,97.004c19.646-48.623,74.9-47.89,74.9-47.89h136.784  l-7.122,15.967H405.812C405.812,65.081,352.277,64.096,327.721,97.004L327.721,97.004z"/>
<polygon fill-rule="evenodd" clip-rule="evenodd" points="62.263,335.163 52.438,335.163 91.349,247.791 52.065,247.791 0,364.685   88.403,364.685 140.468,247.791 101.175,247.791 62.263,335.163 "/>
<path fill-rule="evenodd" clip-rule="evenodd" d="M365.66,159.381h29.47l14.121-32.416h-40.397  c-90.615,0-85.705,120.825-179.027,120.825H150.29L98.228,364.685h39.048c101.669,0,79.564-116.895,173.376-116.895l15.718-35.836  c-84.478,0-96.267,123.208-168.958,123.208h-8.701l5.676-12.759h17.266c62.87,0,79.569-121.767,166.503-121.767h38.555  l13.506-29.962h-40.271c-41.792,0-65.264,24.114-84.807,50.628C286.89,190.647,310.831,159.381,365.66,159.381L365.66,159.381  L365.66,159.381z M184.916,289.656h-15.94l4.419-9.94h9.558c36.152,0,55.21-21.053,73.015-45.542  C236.184,262.521,218.221,289.656,184.916,289.656L184.916,289.656z"/>
<path fill-rule="evenodd" clip-rule="evenodd" d="M417.97,126.966l-14.405,32.395h49.075l-5.013,11.314h-48.996l-32.725,73.189  h86.44l52.061-116.899H417.97L417.97,126.966L417.97,126.966z M417.416,212.013l5.095-11.432H434.3l-5.098,11.432H417.416  L417.416,212.013z"/>
<path fill-rule="evenodd" clip-rule="evenodd" d="M358.049,262.038l-31.403,70.778h56.936l-6.067,13.72h-56.977l-13.078,29.449  h86.443l50.587-113.947H358.049L358.049,262.038L358.049,262.038z M390.604,370.108h-74.61l7.843-17.692h56.938l11.373-25.614  h-56.938l26.109-58.843h74.654L390.604,370.108L390.604,370.108z"/>
<path fill-rule="evenodd" clip-rule="evenodd" d="M507.565,331.24l30.735-69.202h-86.443L438.87,291.56h56.938l-5.581,13.23h-56.974  l-31.983,71.194h86.438l13.096-29.502h-56.543l6.858-15.243H507.565L507.565,331.24L507.565,331.24z M435.744,352.392h56.344  l-7.676,17.716h-74.61l26.754-59.438h56.936l10.881-25.131h-56.936l7.69-17.581h74.654l-25.494,57.396h-56.514L435.744,352.392  L435.744,352.392z"/>
<polygon fill-rule="evenodd" clip-rule="evenodd" points="373.465,291.472 401.953,291.472 396.064,304.735 367.582,304.735   373.465,291.472 370.16,285.61 359.057,310.662 399.328,310.662 410.479,285.61 370.16,285.61 373.465,291.472 "/>
</svg>