<?xml version="1.0" encoding="UTF-8"?>
<!-- Generator: Adobe Illustrator 16.0.2, SVG Export Plug-In . SVG Version: 6.00 Build 0)  -->
<!DOCTYPE svg PUBLIC "-//W3C//DTD SVG 1.1//EN" "http://www.w3.org/Graphics/SVG/1.1/DTD/svg11.dtd">
<svg version="1.1" id="Layer_1" xmlns="http://www.w3.org/2000/svg" xmlns:xlink="http://www.w3.org/1999/xlink" x="0px" y="0px" width="185.308px" height="220px" viewBox="77.425 91.92 185.308 220" enable-background="new 77.425 91.92 185.308 220" xml:space="preserve">
<g>
	<polygon fill="#C1080B" points="254.244,293.074 252.779,293.821 251.206,294.447 249.541,294.952 247.795,295.323    245.968,295.549 244.021,295.629 190.238,295.629 188.38,295.708 186.467,295.952 184.565,296.361 182.685,296.941    180.847,297.704 179.063,298.639 177.354,299.763 175.733,301.076 174.229,302.582 172.85,304.273 171.618,306.158    170.551,308.229 170.081,309.431 169.608,308.229 168.543,306.158 167.311,304.273 165.934,302.58 164.425,301.076    162.808,299.764 161.098,298.639 159.314,297.704 157.474,296.941 155.596,296.361 153.691,295.952 151.778,295.708    149.917,295.629 96.134,295.629 94.191,295.549 92.364,295.323 90.618,294.952 88.953,294.447 87.384,293.822 85.917,293.074    84.556,292.217 83.315,291.263 82.198,290.218 81.21,289.093 80.361,287.889 79.649,286.617 79.088,285.282 78.676,283.888    78.424,282.438 78.333,280.863 78.333,92.829 261.823,92.829 261.823,280.864 261.732,282.439 261.48,283.889 261.072,285.282    260.51,286.617 259.8,287.89 258.947,289.093 257.965,290.218 256.844,291.263 255.603,292.217  "/>
</g>
<g>
	<rect x="78.333" y="92.829" fill="#284396" width="183.491" height="100.419"/>
</g>
<g>
	<path d="M261.885,193.309H78.271V92.769h183.614V193.309z M78.393,193.188h183.369V92.891H78.393V193.188z"/>
</g>
<g>
	<polygon fill="#FFFFFF" points="261.404,165.332 261.404,193.804 78.749,193.804 78.749,164.706 103.995,141.799 114.162,146.772    129.71,134.974 139.769,139.809 169.636,116.874 202.043,140.082 212.668,134.974 227.861,146.502 237.502,141.798  "/>
</g>
<g>
	<g>
		<path fill="#EFE000" d="M174.266,274.679c-0.142,0-0.246,0-0.389,0.035v-1.683h0.567c1.524,0,2.765-1.419,2.765-3.154    c-0.381-1.738-1.573-3.155-3.039-3.155h-0.544v-22.664v-0.143c-0.069-1.843-1.638-3.332-3.471-3.332    c-2.086,0-3.688,1.56-3.688,3.475c0,0.14,0,0.247,0,0.389v2.658h-5.725v1.915h1.639v1.881h-1.639v1.736h1.639v1.88h-1.639v2.051    h5.725v10.154h-0.783c-1.466,0-2.658,1.419-2.83,3.155c0,1.736,1.24,3.154,2.765,3.154h0.815v1.646c-0.07,0-0.177,0-0.248,0    c-3.368,0-6.097,2.376-6.097,5.317c0,2.305,1.737,4.289,4.147,4.998c-0.142,0.462-0.249,0.958-0.249,1.454    c0,2.905,2.766,5.279,6.132,5.279c3.367,0,6.096-2.374,6.096-5.279c0-0.496-0.071-0.957-0.212-1.385    c2.515-0.672,4.358-2.692,4.358-5.067C180.363,277.054,177.634,274.679,174.266,274.679z M172.383,274.899    c-0.658,0.396-1.45,0.924-2.109,1.45c-0.659-0.526-1.449-1.055-2.239-1.45H172.383z M173.432,282.985    c-0.354,0-0.708-0.041-1.023-0.119c0.669,0.552,1.101,1.3,1.101,2.166c0,1.652-1.535,3.229-3.385,3.229    c-1.891,0-3.427-1.576-3.427-3.229c0-0.866,0.434-1.654,1.143-2.205c-0.354,0.117-0.747,0.158-1.143,0.158    c-1.85,0-3.385-1.302-3.385-2.954c0-1.614,1.536-2.952,3.385-2.952c1.693,0,3.072,1.063,3.386,2.44    c0.275-1.378,1.654-2.44,3.347-2.44c1.89,0,3.424,1.338,3.424,2.952C176.855,281.683,175.32,282.985,173.432,282.985z"/>
	</g>
	<g>
		<path fill="#EFE000" d="M167.305,237.918c-2.712-5.729-9.991-9.333-16.536-9.333c-10.779,0-17.156,9.276-17.156,18.495v44.66    h4.555v-44.667C138.168,231.646,155.501,227.778,167.305,237.918z"/>
	</g>
	<g>
		<path fill="#EFE000" d="M165.885,240.337c-7.018-5.036-19.552-2.913-19.552,7.16v44.243h5.01l0.003-44.243    C151.348,239.6,159.591,237.699,165.885,240.337z"/>
	</g>
	<g>
		<path fill="#EFE000" d="M143.752,228.171c9.195-3.361,19.389,0.516,24.463,8.262c-1.575-4.785-4.871-8.488-8.952-10.844l0-5.93    c0-4.485,4.606-5.565,8.121-4.065c-3.919-2.86-10.921-1.654-10.921,4.065v4.569c-0.292-0.116-0.586-0.226-0.882-0.329v-4.239    c0-2.654,1.332-4.885,3.545-5.785c2.883-1.169,5.829-0.431,8.574,0.981c-4.841-4.992-14.917-3.974-14.917,4.804v3.47    c-0.293-0.06-0.586-0.122-0.882-0.17v-3.541c0-8.763,9.683-10.958,16.276-5.199c-1.515-3.253-5.582-5.301-9.237-5.301    c-6.022,0-9.583,5.268-9.583,10.504v3.273c-0.293-0.015-0.587-0.019-0.882-0.021v-3.412c0-4.529,2.361-9.024,6.546-10.58    c5.136-1.908,10.83,0.294,13.665,4.694c-2.433-7.518-12.192-10.354-18.353-5.203c-2.662,2.224-4.53,5.207-4.53,11.46v3.188    c-3.701,0.451-7.329,1.889-10.442,4.45c-4.766,3.918-8.109,9.165-8.109,20.179l-0.004,44.288h4.787v-44.942    C132.035,238.823,136.261,230.911,143.752,228.171z"/>
	</g>
	<g>
		<path fill="#EFE000" d="M151.103,237.311c5.16-2.059,10.435-0.759,15.348,1.728c-8.665-8.789-26.705-6.995-26.705,8.459v44.243    h5.01v-44.243C144.755,242.825,147.138,238.896,151.103,237.311z"/>
	</g>
	<g>
		<path fill="#EFE000" d="M174.239,240.337c6.293-2.64,14.539-0.737,14.539,7.16l0.003,44.243h5.01v-44.243    C193.791,237.425,181.256,235.301,174.239,240.337z"/>
	</g>
	<g>
		<path fill="#EFE000" d="M173.674,239.039c4.912-2.486,10.188-3.786,15.349-1.728c3.965,1.585,6.347,5.514,6.347,10.187v44.243    h5.01v-44.243C200.379,232.043,182.338,230.25,173.674,239.039z"/>
	</g>
	<g>
		<path fill="#EFE000" d="M212.876,291.741l-0.004-44.288c0-11.014-3.345-16.261-8.109-20.179c-3.113-2.562-6.74-3.999-10.442-4.45    v-3.188c0-6.253-1.868-9.236-4.528-11.46c-6.161-5.151-15.922-2.314-18.353,5.203c2.834-4.4,8.527-6.603,13.665-4.694    c4.184,1.556,6.545,6.05,6.545,10.58v3.412c-0.293,0.002-0.588,0.006-0.882,0.021v-3.273c0-5.236-3.563-10.504-9.584-10.504    c-3.655,0-7.72,2.049-9.236,5.301c6.593-5.759,16.275-3.563,16.275,5.199v3.541c-0.295,0.049-0.587,0.11-0.88,0.17v-3.47    c0-8.777-10.078-9.796-14.918-4.804c2.743-1.412,5.69-2.15,8.572-0.981c2.215,0.9,3.547,3.131,3.547,5.785v4.239    c-0.297,0.104-0.591,0.215-0.881,0.329v-4.569c0-5.72-7.003-6.926-10.922-4.065c3.516-1.5,8.12-0.42,8.121,4.065v5.93    c-4.083,2.355-7.379,6.059-8.953,10.844c5.075-7.746,15.269-11.623,24.463-8.262c7.492,2.738,11.718,10.651,11.718,18.627v44.942    H212.876z"/>
	</g>
	<g>
		<path fill="#EFE000" d="M189.354,228.585c-6.543,0-13.82,3.604-16.534,9.333c11.803-10.141,29.137-6.272,29.137,9.155v44.667    h4.556v-44.66C206.513,237.862,200.135,228.585,189.354,228.585z"/>
	</g>
	<g>
		<circle fill="#EFE000" cx="170.077" cy="219.159" r="3.506"/>
	</g>
</g>
<g>
	<path d="M175.528,176.758c-0.006,2.414-0.979,2.974-2.451,4.308c-0.284-0.939-0.021-1.934-1.176-2.786   c-0.009-0.047-2.145,0.025-2.488,0.006c-0.256,0.589,0.65,0.932,0.551,1.522c-0.666,0.292-3.537-0.659-3.799-1.021   c-0.05,0.496,0.459,1.306,0.678,1.981c-1.85-0.455-5.968-2.054-5.142-5.687c0.507-1.139,1.645-1.584,2.819-1.609   c1.025-0.021,2.051-0.003,3.075,0.008c-0.048-0.077-0.094-0.14-0.136-0.183c-2.428-2.383-2.909-3.119-3.985-6.271   c-0.358-1.048-5.075-2.518-6.179-2.635c-2.196-0.177-4.182-0.198-3.958,2.054c0.202,2.026,0,3.808,1.655,4.694   c3.469,1.86-1.297,3.153-2.769,3.176c-2.301,0.036-3.899-0.621-4.788-2.038c-1.43-0.221-2.53-0.771-3.021-2.372l-0.004-0.019   l-1.659-6.53c-0.392-1.547-0.631-2.236,1.451-1.789c2.139-4.637,5.372-7.863,9.524-11.018l0.01-0.007l-0.373-0.634   c-1.464-2.49-3.027-5.185-4.953-7.353c-0.698-0.787-1.45-1.524-2.21-2.25c-1.101-1.05-2.215-2.083-3.316-3.133   c-2.108-2.008-3-2.516-4.056-5.427c-1.881-5.185-4.85-9.929-8.177-14.3c-2.999-3.941-6.277-7.559-9.528-11.282   c-1.003-1.149-0.845-1.949,0.436-2.676c3.348-1.901,6.832-2.581,10.209-0.703c3.687-1.691,7.803-1.682,11.141,1.148   c2.011-1.413,6.186-0.481,8.802,2.176c3.638,0.586,7.762,3.591,8.669,9.104c1.43,2.084,2.772,4.635,3.18,7.396   c1.52,2.346,3.049,4.746,2.917,7.682l0.521,1.11c0.021,0.047,0.042,0.094,0.064,0.141c1.393-3.95,4.799-6.709,8.456-8.743   c8.905-4.953,15.533-13.178,19.739-22.349c0.818-1.679,1.799-1.623,2.938-0.431c2.422,2.754,3.186,5.774,2.919,9.469   c3.832-1.686,4.064,7.135,3.389,9.775c2.297,0.84,2.125,6.96-0.383,9.533c0.115,1.935-0.325,5.361-3.527,7.975   c-1.924,3.178-3.987,6.027-7.725,7.244c-1.029,2.125-2.525,3.792-4.82,4.566c-0.981,2.086-2.422,3.689-4.706,4.352   c-1.053,1.487-2.252,2.823-4.035,3.43c8.619,5.761,15.918,10.962,23.946,17.903c2.675,2.313,1.249,3.947-1.079,3.943l-21.95-0.041   C178.041,178.22,176.575,178.048,175.528,176.758"/>
</g>
<g>
	<path fill="#EFE000" d="M172.342,175.241c-0.228-0.008-0.55-0.001-0.777,0c-0.031-0.266-0.126-0.699-0.157-0.966   c0.491,0,1.046,0.063,1.538,0.063c0.584-3.098-1.703-5.033-0.523-6.792c-2.569,0.096-4.722,0.067-7.272-1.093   c0.923,2.704,1.1,3.174,3.551,5.579c0.538,0.529,1.32,2.137,1.222,3.21c-2.027,0.051-3.338-0.042-5.365,0   c-2.545,0.053-0.779,2.673,0.279,3.335c-0.104-0.382-0.505-1.944,0.423-1.915l1.515,0.048c-0.225,0.703,0.51,1.866,1.592,1.867   c-0.335-0.606-0.533-1.196-0.263-1.867h4.068c0.718,0,1.344,1.189,1.364,1.867C174.157,177.076,173.601,175.29,172.342,175.241    M144.449,163.484l0.767,0.225c1.924-4.992,5.038-8.301,9.581-11.752c4.465-1.01,7.776-0.863,10.584,0.333l-0.886-1.791   c-2.816-0.659-5.209-1.225-8.268-0.437c1.662-6.56,10.431-4.98,12.053-16.1c0.698-4.777,4.731-7.748,8.099-9.621   c10.297-5.729,16.784-15.085,20.486-23.158c5.034,5.724,1.415,12.911-0.28,14.399c-2.669,3.424-6.008,5.099-9.5,6.912   c0.185,0.316,0.181,0.432,0.363,0.794c5.831-1.455,10.974-5.989,14.59-11.729c0.664,1.566,2.045,6.817-0.853,10.081   c-3.038,3.417-8.969,4.104-12.848,5.121c0.05,0.326-0.026,0.848-0.135,1.118c5.654-0.587,11.772-2.161,16.078-6.153   c1.183,9.394-10.228,10.104-16.898,9.409c-0.134,0.308-0.345,0.722-0.545,1.002c4.729,0.988,10.646,0.041,15.268-1.812   c-1.053,9.063-13.272,7.994-17.338,5.111c-0.227,0.277-0.508,0.753-0.732,1.03c4.033,2.775,10.112,3.265,14.107,0.925   c-5.311,8.769-14.447,4.778-17.101,2.445c-0.18,0.219-0.504,0.468-0.682,0.687c1.127,1.761,5.99,4.048,10.771,3.014   c-2.839,5.854-10.193,3.913-13.404,0.092c-0.189,0.233-0.508,0.517-0.697,0.75c1.194,2.371,5.041,4.304,9.269,3.756   c-2.978,6.333-11.396,2.042-12.458,0.156c-0.184,0.224-0.367,0.375-0.551,0.6c2.007,2.523,4.57,3.807,8.314,3.428   c-3.265,4.607-7.206,2.157-10.443-0.388c-0.222,0.194-0.689,0.572-0.911,0.766c12.082,7.286,22.844,15.566,32.804,23.696   c-4.635,0-5.427,0.452-8.722-2.74l-8.83-8.423l-0.86,0.123l10.926,11.041c-3.07,0-3.786,0.504-5.716-1.857l-6.707-8.738   l-0.903,0.062l7.751,10.474c-2.846,0-3.812,0.335-5.3-2.071l-4.577-8.042h-0.888l5.586,10.172c-2.816,0-3.588-0.089-4.62-2.207   l-3.167-7.811l-0.835,0.001l3.988,10.017c-2.446,0.063-3.256-0.023-3.993-2.188l-2.174-7.704c-1.324,0.327-6.028-0.071-7.299-0.408   c-2.121-0.562-4.194-1.718-6.222-2.646c-2.904-1.33-8.398-1.236-8.647,1.431c-0.127,1.364,0.102,3.753,0.459,4.77l-0.211,0.113   l-0.645-1.338c0.078,0.726,0.183,2.934,2.76,4.021c-2.395,0.41-6.374,0.895-5.807-4.54c-0.441,0.2-0.839,0.103-1.011-0.658   l-0.303-0.034l1.05,3.366c-1.018-0.104-1.728-0.214-2.027-1.194L144.449,163.484z M157.544,132.141   c3.111-2.473,6.722-6.968,2.354-14.283c-0.315,5.05-2.407,8.252-4.767,11.023c-0.208-0.28-0.416-0.561-0.624-0.841   c4.11-5.489,7.521-14.607-1.137-19.475c1.504,5.59,0.492,12.055-1.641,15.763c-0.256-0.293-0.53-0.548-0.815-0.769   c1.949-5.611,4.209-16.717-5.754-18.512c1.941,6.195,2.636,10.983,2.25,16.249c-0.349-0.02-0.701-0.016-1.052,0.007   c-0.556-7.712-0.512-18.487-11.841-17.745c4.402,6.539,7.418,11.391,7.632,17.93c-0.296,0.106-0.581,0.217-0.852,0.331   c-0.993-5.865-7.797-23.389-18.834-16.811c5.526,6.417,14.052,15.179,18.028,26.133c0.944,2.603,1.663,2.892,3.613,4.75   c5.708,5.44,6.306,5.502,10.784,13.12c2.255-4.379,4.168-5.526,8.809-8.648c2.284-1.536,3.152-5.104,1.694-8.213   c-1.51,3.478-3.086,3.962-4.88,5.011c-0.191-0.258-0.273-0.553-0.464-0.811c3.579-2.119,6.765-5.463,2.902-11.426   c-0.369,4.246-2.367,6.225-4.832,7.996C157.929,132.66,157.736,132.4,157.544,132.141z"/>
</g>
<g>
	<path d="M169.567,186.854c-2.694,0.714-5.421,1.412-8.152,1.813c-3.152,0.464-6.741,0.573-9.605-1.1   c-4.326-2.524-3.503-7.022-0.01-9.74c1.782-1.385,3.264-3.203,5.84-3.057c3.31,0.201,2.689,4.9,0.41,5.958   c-0.458,0.284-3.037,1.156-2.868,1.568c0.047,0.114,0.319,0.198,0.929,0.23c2.468,0.133,6.477-1.252,8.016-1.589l0.885-0.23   c0.335-0.087,0.669-0.175,1.004-0.262v-0.002l0.65-0.164l2.156-0.556l-0.002,0.016l0.25-0.06l2.07-0.507l-0.003,0.021l0.144-0.031   l1.794-0.414l-0.001,0.021l2.081-0.441v0.021l0.18-0.033l2.057-0.389v0.025c0.023-0.003,0.051-0.008,0.075-0.012l2.104-0.346v0.02   l0.581-0.075l1.648-0.226l-0.001,0.026c1.458-0.163,2.918-0.287,4.383-0.369c1.436-0.081,2.94-0.019,4.368,0.174   c2.397,0.326,5.547,1.168,6.701,3.554c0.729,1.507,0.416,3.103-0.346,4.51c-2.152,3.97-9.841,3.86-13.728,3.664   c-3.417-0.174-7.068-0.616-10.426-1.335L169.567,186.854z M189.299,183.353c-1.305-0.15-3.564-0.154-4.902,0.028   c-1.021,0.14-4.604,0.734-5.563,1.024c0.919,0.059,5.694-0.29,6.878-0.368S188.077,183.677,189.299,183.353z"/>
</g>
<g>
	<path fill="#EFE000" d="M156.271,177.178l-1.098,0.692l1.299-0.373C156.608,177.301,156.541,177.196,156.271,177.178    M154.028,180.783c-0.958,0.455-1.551,1.592-1.044,2.24c2.48,2.797,8.751,0.227,11.586-0.366l-0.2,1.744l0.86-0.132l0.244-1.85   c0.432-0.113,0.865-0.226,1.302-0.337l-0.213,1.929l0.891-0.187l0.198-1.967c0.452-0.114,0.907-0.227,1.364-0.34l-0.28,1.998   l0.915-0.194l0.25-2.019c0.426-0.102,0.855-0.203,1.289-0.302l-0.097,1.988l0.891-0.232l0.081-1.955   c0.43-0.096,0.863-0.191,1.299-0.283l-0.014,1.915l0.914-0.167l0.019-1.928c0.453-0.092,0.862-0.182,1.323-0.269l-0.012,1.866   l0.916-0.192l-0.002-1.836c0.425-0.076,0.828-0.149,1.26-0.221l-0.023,1.741l0.916-0.225l0.029-1.655   c0.428-0.066,0.813-0.13,1.25-0.191l-0.069,1.635l0.84-0.113l0.097-1.637c1.766-0.225,3.592-0.398,5.492-0.506   c3.882-0.218,11.725,0.669,9.045,5.615c-2.391,4.41-16.819,2.616-22.24,1.454c4.736-0.366,17.61,0.958,19.172-2.291   c1.264-4.056-13.986-0.63-16.557-0.052c-8.65,1.945-17.856,5.598-23.029,2.578c-3.311-1.932-2.158-4.973,0.205-6.812   c0.761-0.591,2.753-2.931,4.629-2.824c0.606,0.041,0.739,0.687,0.704,1.394c-1.332,0.396-1.78,0.717-2.921,1.697   c1.506-0.394,1.813-0.425,2.624-1.238l0.031,0.03c-0.127,0.366-0.249,0.946-0.638,1.125   C156.088,180.201,155.016,180.314,154.028,180.783z"/>
</g>
<g>
	<path d="M170.082,311.92l-1.303-3.315l-1.022-1.989l-1.181-1.805l-1.318-1.621l-1.442-1.438l-1.545-1.253l-1.635-1.077   l-1.708-0.896l-1.762-0.729l-1.801-0.557l-1.827-0.393l-1.836-0.234l-1.823-0.076H96.135l-2.056-0.085l-1.902-0.241l-1.822-0.39   l-1.74-0.53l-1.642-0.661l-1.541-0.786l-1.429-0.904l-1.31-1.014l-1.178-1.106l-1.048-1.202l-0.898-1.283l-0.757-1.364   l-0.595-1.428l-0.436-1.498l-0.263-1.553l-0.092-1.576L77.425,91.92h185.308v188.942l-0.104,1.73l-0.275,1.552l-0.444,1.49   l-0.605,1.421l-0.761,1.359l-0.909,1.273l-1.049,1.194l-1.187,1.099l-1.311,1.005l-1.433,0.896l-1.537,0.778l-1.646,0.655   l-1.739,0.525l-1.824,0.381l-1.902,0.234l-1.945,0.079l-53.821,0.001l-1.78,0.076l-1.838,0.234l-1.822,0.393l-1.806,0.557   l-1.759,0.729l-1.707,0.896l-1.635,1.076l-1.55,1.253l-1.439,1.439l-1.318,1.621l-1.18,1.805l-1.025,1.988L170.082,311.92z    M149.917,294.72l1.976,0.086l1.989,0.257l1.981,0.432l1.958,0.608l1.917,0.795l1.86,0.983l1.782,1.179l1.687,1.371l1.572,1.575   l1.433,1.769l1.28,1.968l0.729,1.417l0.777-1.498l1.287-1.962l1.44-1.76l1.576-1.572l1.694-1.364l1.785-1.168l1.859-0.972   l1.917-0.79l1.958-0.601l1.978-0.423l1.99-0.25l1.857-0.08h53.821l1.871-0.077l1.751-0.219l1.672-0.354l1.591-0.481l1.498-0.6   l1.391-0.708l1.288-0.811l1.173-0.902l1.056-0.983l0.922-1.056l0.797-1.125l0.66-1.188l0.526-1.241l0.38-1.292l0.232-1.351   l0.087-1.522l-0.001-187.074H79.241v187.125l0.087,1.47l0.234,1.351l0.383,1.294l0.521,1.24l0.665,1.187l0.793,1.127l0.927,1.056   l1.051,0.983l1.174,0.902l1.288,0.811l1.394,0.708l1.494,0.599l1.591,0.482l1.672,0.354l1.75,0.219l1.905,0.077H149.917z"/>
</g>
</svg>