<svg width="120" height="120" xmlns="http://www.w3.org/2000/svg">
<g transform="translate(-10,125) scale(0.055,-0.055)" fill="#000000" stroke="none">
<path d="M1539 2009 c-88 -17 -112 -35 -107 -79 4 -32 37 -38 84 -15 52 24 245 33 277 12 49 -32 97 -24 97 18 0 29 -40 62 -85 71 -64 12 -186 9 -266 -7z"/>
<path d="M496 1949 c-27 -10 -52 -16 -56 -14 -23 14 -48 -91 -26 -112 15 -16 59 -8 73 14 22 33 69 44 186 42 58 0 110 2 116 6 15 9 14 62 -1 72 -7 4 -65 8 -128 9 -91 2 -126 -2 -164 -17z"/>
<path d="M644 1756 c-3 -8 -4 -25 -2 -38 2 -19 9 -23 38 -23 33 0 35 2 35 35 0 32 -3 35 -33 38 -21 2 -34 -2 -38 -12z"/>
<path d="M1574 1756 c-3 -8 -4 -25 -2 -38 2 -19 9 -23 38 -23 33 0 35 2 35 35 0 32 -3 35 -33 38 -21 2 -34 -2 -38 -12z"/>
<path d="M1111 1646 c-8 -9 -12 -52 -13 -112 l0 -97 53 -71 c30 -38 59 -80 64 -92 6 -13 38 -52 73 -87 34 -36 62 -72 62 -80 0 -12 -18 -17 -76 -22 -104 -10 -169 -2 -205 24 -67 50 -115 1 -67 -68 19 -27 31 -34 68 -39 110 -13 332 -1 357 19 17 15 27 89 14 102 -6 6 -11 18 -11 26 0 9 -22 39 -49 67 -48 50 -141 176 -141 190 0 5 -12 21 -27 37 -26 26 -28 35 -30 113 -1 46 -5 88 -8 94 -9 15 -51 12 -64 -4z"/>
<path d="M1599 742 c-23 -17 -48 -30 -192 -98 -32 -15 -60 -32 -63 -36 -3 -4 -14 -8 -25 -8 -11 0 -44 -18 -74 -40 -30 -22 -57 -40 -61 -40 -4 0 -16 -8 -26 -17 -14 -12 -43 -18 -106 -21 -82 -4 -90 -2 -147 27 -64 34 -235 155 -272 192 -38 39 -93 28 -93 -17 0 -27 31 -61 91 -102 19 -13 63 -45 99 -71 36 -26 95 -63 131 -83 65 -36 67 -36 175 -34 100 3 114 5 171 34 34 17 64 36 67 41 3 5 68 39 143 76 76 36 145 70 153 75 8 5 43 23 78 40 60 29 63 33 60 63 -3 30 -6 32 -44 35 -27 2 -48 -3 -65 -16z"/>
</g>
</svg>