<?xml version="1.0" standalone="no"?>
<!DOCTYPE svg PUBLIC "-//W3C//DTD SVG 20010904//EN"
 "http://www.w3.org/TR/2001/REC-SVG-20010904/DTD/svg10.dtd">
<svg width="32" height="32" xmlns="http://www.w3.org/2000/svg">
<g style="stroke-miterlimit:10;stroke-width:5px" transform="scale(0.42 0.42) translate(-48 -105)">
<path d="M51,163c6-4,12-10,20-12,1-1,1-3,2-5a41.67,41.67,0,0,0-18,8c2-6-1-12,3-17s12-6,19-8c1-1,1-3,1-4-7,1-13,5-20,7-1-4,2-8,1-12,8-3,15-6,24-7a10.07,10.07,0,0,0,1-3c-11-1-21,5-31,10,0,14-3,29-2,43Z" fill="#958c8f" stroke="#958c8f"/>
</g>
<g style="stroke-miterlimit:10;stroke-width:5px" transform="scale(0.42 0.42) translate(-10 -172)">
<path d="M68,183c-6,1-9,5-13,9,0-1-1-2-1-3-1,1-3,1-4,2-3,17-3,33-3,50,8-6,1-18,5-26,11,4,19-7,25-14,3-4,4-9,5-13,0-7-9-7-14-5Zm1,22c-4,2-8,9-13,6-6-3-2-11,0-16,3-7,12-11,19-8,2,7-3,12-6,18Z" fill="#bbb" stroke="#bbb"/>
</g>
</svg>
