<?xml version="1.0" standalone="no"?>
<!DOCTYPE svg PUBLIC "-//W3C//DTD SVG 20010904//EN"
 "http://www.w3.org/TR/2001/REC-SVG-20010904/DTD/svg10.dtd">
<svg width="50" height="36" xmlns="http://www.w3.org/2000/svg">
<g style="stroke-miterlimit:10;stroke-width:5px" transform="scale(0.45 0.45) translate(-30 -95)">
<path d="M51,163c6-4,12-10,20-12,1-1,1-3,2-5a41.67,41.67,0,0,0-18,8c2-6-1-12,3-17s12-6,19-8c1-1,1-3,1-4-7,1-13,5-20,7-1-4,2-8,1-12,8-3,15-6,24-7a10.07,10.07,0,0,0,1-3c-11-1-21,5-31,10,0,14-3,29-2,43Z" fill="#958c8f" stroke="#958c8f"/>
<!--<path d="M106,134a21.77,21.77,0,0,0,8,5c-3,4-7,7-9,12-7-3-16-6-16-14,1-11,9-21,21-21a24.67,24.67,0,0,1,18,12c1-1,3-2,3-3-4-7-12-11-20-12s-15,1-20,7c-6,8-11,19-4,28,5,5,13,6,20,8,3-7,9-12,14-17-4-3-7-7-12-8-1,0-2,2-3,3Z" fill="#958c8f" stroke="#958c8f"/>
<path d="M149,136c-5,7-12,11-20,13-7,3-13,7-19,11,5,9,9-3,15-4,4,5,10,8,16,10,0,4-1,9,1,12,1,1,4,1,6,1-4-14,2-27,4-41,0-1-2-1-3-2Zm-20,18c7-3,14-6,19-12-4,6-4,13-6,20-5-1-9-5-13-8Z" fill="#958c8f" stroke="#958c8f"/>
<path d="M179,159a110.88,110.88,0,0,0,17-30,21.86,21.86,0,0,0-5,3c-4,9-8,17-14,24-4-5-3-11-5-16-1,0-3,1-5,1,2,6,2,13,6,19-7,8-16,13-24,19,2,0,4,1,6,1a82,82,0,0,0,20-17c2,5,7,9,11,10,2,1,5-1,8-2-6-3-11-6-15-12Z" fill="#958c8f" stroke="#958c8f"/>-->
</g>
<g style="stroke-miterlimit:10;stroke-width:5px" transform="scale(0.45 0.45) translate(10 -165)">
<path d="M68,183c-6,1-9,5-13,9,0-1-1-2-1-3-1,1-3,1-4,2-3,17-3,33-3,50,8-6,1-18,5-26,11,4,19-7,25-14,3-4,4-9,5-13,0-7-9-7-14-5Zm1,22c-4,2-8,9-13,6-6-3-2-11,0-16,3-7,12-11,19-8,2,7-3,12-6,18Z" fill="#eee" stroke="#eee"/>
<!--<path d="M112,184c-11-5-23,3-26,14-1,6,1,12,8,14,11,2,22-4,27-14a10.91,10.91,0,0,0-9-14Zm-8,23c-5,2-12,2-13-4-1-8,4-15,12-17,4,0,9,0,12,4,4,8-4,14-11,17Z" fill="#78788c" stroke="#78788c"/>
<path d="M140,205a12.68,12.68,0,0,0-6,1c1-2,8-1,0-8-6,9-16,14-22,23,0,1,2,3,3,4,6-9,19-23,29-12,1-1,3-3,3-4-1-2-3-4-7-4Z" fill="#78788c" stroke="#78788c"/>
<path d="M144,240c-1-1-4-2-3-5,4-6,8-12,13-16,2-1,5,1,8,1,1-1,1-3,2-4-3-1-5-1-8-2,1-3,3-5,4-8l-2-1c-2,2-3,6-6,7-2,0-4-1-6,2,1,1,3,1,4,2-5,7-14,13-15,22,4,3,8,7,13,6,1,0,1-2,1-3a9,9,0,0,1-5-1Z" fill="#78788c" stroke="#78788c"/>
<path d="M182,215a56.38,56.38,0,0,0-12,4v4a15.92,15.92,0,0,1,13-3c3,0,1,4,1,7-10,5-28,1-29,15,0,4,6,5,10,5,5-1,11-2,15-6v4c2-1,4-1,5-2,2-9,9-19,3-28,0-1-4,0-6,0Zm0,19c-4,7-14,13-21,7,3-8,14-8,22-10,0,1-1,2-1,3Z" fill="#78788c" stroke="#78788c"/>
<path d="M202,190c1,8-1,16-1,24-1,8-3,16-3,24,2-1,5-2,6-3,1-3,0-6,0-9,2-14,2-27,2-40l-4,4Z" fill="#78788c" stroke="#78788c"/>-->
</g>
</svg>
