<?xml version="1.0" standalone="no"?>
<!DOCTYPE svg PUBLIC "-//W3C//DTD SVG 20010904//EN"
 "http://www.w3.org/TR/2001/REC-SVG-20010904/DTD/svg10.dtd">
<svg width="100" height="36" xmlns="http://www.w3.org/2000/svg">
<!--<g transform="scale(0.34 0.25) translate(80 12)">
<path d="M90.74,109.32l-63.97,13.13c-3.25,0.67-6.42-1.43-7.08-4.67L6.72,54.6 c-0.67-3.25,1.43-6.42,4.67-7.08l63.97-13.13L90.74,109.32z" style="fill:#626262;"/>
<path d="M90.74,109.32l-63.97,13.13c-3.25,0.67-6.42-1.43-7.08-4.67L6.72,54.6 c-0.67-3.25,1.43-6.42,4.67-7.08l63.97-13.13L90.74,109.32z" style="fill:#fff;"/>
<path d="M91.25,99.56l-66.38,13.62c-3.25,0.67-6.42-1.43-7.08-4.67L4.35,43.02 c-0.67-3.25,1.43-6.42,4.67-7.08L75.4,22.32L91.25,99.56z" style="fill:#FF9800;"/>
<path d="M73.06,25.86l14.66,71.41c-0.56,0.23-1.04,0.62-1.38,1.13c-0.44,0.66-0.59,1.48-0.43,2.25 l1.3,6.33l-62.07,12.74c-0.14,0.03-0.29,0.04-0.44,0.04c-0.89,0-1.65-0.57-1.81-1.35l-1.9-9.27L9.41,52.75L7.03,41.18 c-0.19-0.94,0.5-1.87,1.55-2.09L73.06,25.86 M75.4,22.32L7.98,36.15c-2.67,0.55-4.41,3.07-3.88,5.63l2.38,11.57l11.58,56.4 l1.9,9.27c0.46,2.22,2.47,3.75,4.75,3.75c0.34,0,0.69-0.03,1.04-0.11l65.01-13.34l-1.9-9.27l2.41-0.49L75.4,22.32L75.4,22.32z" style="opacity:0.2;fill:#000;"/>
<path d="M97.95,101.4l-65.19-6.35c-3.3-0.32-5.71-3.26-5.39-6.55l6.3-64.73c0.32-3.3,3.26-5.71,6.55-5.39 l65.19,6.35L97.95,101.4z" style="fill:#626262;"/>
<path d="M101.04,91.86l-67.64-6.59c-3.3-0.32-5.71-3.26-5.39-6.55l6.53-67.09 c0.32-3.3,3.26-5.71,6.55-5.39l67.64,6.59L101.04,91.86z" style="fill:#4480F7;"/>
<path d="M39.84,9.46c0.07,0,0.14,0,0.21,0.01l65.64,6.39l-7.11,73c-0.6,0.06-1.17,0.29-1.65,0.68 c-0.63,0.52-1.02,1.26-1.1,2.07l-0.63,6.44L32.02,91.9c-0.52-0.05-0.99-0.29-1.32-0.67c-0.17-0.2-0.45-0.63-0.4-1.21l0.92-9.48 l5.62-57.71L38,10.99C38.08,10.12,38.87,9.46,39.84,9.46 M39.84,6.4c-2.51,0-4.65,1.83-4.88,4.29L33.8,22.53l-5.62,57.71 l-0.92,9.48C27,92.34,29,94.68,31.72,94.94l66.23,6.45l0.92-9.48l2.46,0.24l7.7-79.03L40.34,6.43C40.17,6.41,40,6.4,39.84,6.4 L39.84,6.4z" style="opacity:0.2;fill:#626262;"/>
<path d="M94.9,98.7l-62.03-6.04c-1.9-0.19-3.3-1.89-3.12-3.79l0.02-0.2 c0.19-1.9,1.89-3.3,3.79-3.12l62.03,6.04L94.9,98.7z" style="fill:#fff;"/>
<path d="M122.51,115.99l-61.09,5.41c-3.3,0.29-6.21-2.15-6.51-5.45l-5.59-63.13 c-0.29-3.3,2.15-6.21,5.45-6.51l61.09-5.41L122.51,115.99z" style="fill:#626262;"/>
<path d="M124,106.49l-63.4,5.61c-3.3,0.29-6.21-2.15-6.51-5.45L48.3,41.23 c-0.29-3.3,2.15-6.21,5.45-6.51l63.4-5.61L124,106.49z" style="fill:#66BB6A;"/>
<path d="M114.42,32.36l6.33,71.49c-1.3,0.42-2.18,1.7-2.06,3.12l0.56,6.3l-59.43,5.26 c-0.05,0-0.1,0.01-0.15,0.01c-0.85,0-1.57-0.67-1.65-1.52l-0.82-9.29l-5-56.51l-1.03-11.59c-0.08-0.91,0.6-1.72,1.51-1.8 L114.42,32.36 M117.15,29.11l-64.73,5.73c-2.56,0.23-4.46,2.49-4.23,5.05l1.03,11.59l5,56.51l0.82,9.29 c0.21,2.42,2.25,4.25,4.64,4.25c0.14,0,0.28-0.01,0.42-0.02l62.42-5.53l-0.82-9.29l2.31-0.2L117.15,29.11L117.15,29.11z" style="opacity:0.2;fill:#626262;"/>
<path d="M119.21,113.94l-58.52,5.18c-1.76,0.16-3.32-1.15-3.48-2.91l-0.05-0.58 c-0.16-1.76,1.15-3.32,2.91-3.48l58.52-5.18L119.21,113.94z" style="fill:#fff;"/>
</g>-->
<g style="stroke-miterlimit:10;stroke-width:3px" transform="scale(0.35 0.35) translate(50 -30)" fill="#bbb" stroke="#bbb" stroke-width="2">
<path d="M46,73.7c-2,0.5-5,1.1-7,2.1c-11,8.1-21,9.8-27,13.5c0-4.6,2-7.9,1-13.3c-2-0.5-5-2.2-5-1.5c-2,9-2,20.3-3,29.8c2,1.4,4,2.6,5,2c1-5.3,1-11.5,2-16.9c2,2.3,4,4.5,6,6.5c1,2.2,3,4.1,5,6.7c2,2.5,2,5,4,6.6c2,0.7,4,0.4,6,0c-4-5.9-8-11.9-14-18.2C26,86.7,36,82.7,46,73.7L46,73.7z"/>
<path d="M69,86.8c-5,0.1-12,3.5-18,3.4c2-4.2,4-7.7,6-12.3c-2,0.9-5,1.1-6,2.3c-6,10.9-9,19.9-13,28.4c1,0.1,3,0.1,4,0c2-4.4,6-9.5,7-14.3c6-0.6,11-1.8,17-3.1c-2,5.9-7,10.8-8,16.7c0,0.9,2,0.2,3,0.7c5-11.2,14-24.1,21-37.9C75,69.7,73,80.7,69,86.8L69,86.8z"/>
<path d="M75,104.5c5-10.6,14-20.6,19-32.2c0-1-3-0.9-3-0.9c-9,13.4-17,26.3-22,38.3c2-0.1,3,1.3,4-0.2c10-8.4,21-17.2,31-26.3c-6,8.8-13,19.4-15,28.6c-1,1.6,2,0.8,3,1.2c5-12.1,14-23.9,19-35.9c0-1.1-3-1.5-5-0.3c-9,8.5-18,14.9-27,23.4C78,101.8,76,102.9,75,104.5C75,104.5,75,104.5,75,104.5z"/>
<path d="M103,111.6c2-0.1,4-1.2,6-1.2c2-9.3,8-20.8,13-30c5,0.3,9-0.6,14-2.1c1-1.1,1-3.3,2-4.4c-6,0.1-12,1.6-18,1.9C113,87.3,108,99.5,103,111.6C103,111.6,103,111.6,103,111.6z"/>
<path d="M166,74.2c-6,8.6-14,15-25,24.7c3-8.4,6-17.5,8-26.6c-1,0.8-3,0.2-4,1.2c-5,8.9-8,19.9-10,30.8c3-1.3,6,0,8-1.8c10-8.3,18-14.6,24-22.9c0,8.7-3,15.8-2,25.5c2,0.7,5,2.9,5,1.8c2-8.7,1-21.9,2-31.6C170,75,168,75,166,74.2L166,74.2z"/>
</g>
</svg>