<?xml version="1.0" standalone="no"?>
<!DOCTYPE svg PUBLIC "-//W3C//DTD SVG 20010904//EN"
 "http://www.w3.org/TR/2001/REC-SVG-20010904/DTD/svg10.dtd">
<svg width="80" height="24" xmlns="http://www.w3.org/2000/svg">
<g style="stroke-miterlimit:10;stroke-width:1px" transform="scale(0.26 0.3) translate(90 -40)" fill="#3c677b" stroke="#3c677b">
<path d="M46,73.7c-2,0.5-5,1.1-7,2.1c-11,8.1-21,9.8-27,13.5c0-4.6,2-7.9,1-13.3c-2-0.5-5-2.2-5-1.5c-2,9-2,20.3-3,29.8c2,1.4,4,2.6,5,2c1-5.3,1-11.5,2-16.9c2,2.3,4,4.5,6,6.5c1,2.2,3,4.1,5,6.7c2,2.5,2,5,4,6.6c2,0.7,4,0.4,6,0c-4-5.9-8-11.9-14-18.2C26,86.7,36,82.7,46,73.7L46,73.7z"/>
<path d="M69,86.8c-5,0.1-12,3.5-18,3.4c2-4.2,4-7.7,6-12.3c-2,0.9-5,1.1-6,2.3c-6,10.9-9,19.9-13,28.4c1,0.1,3,0.1,4,0c2-4.4,6-9.5,7-14.3c6-0.6,11-1.8,17-3.1c-2,5.9-7,10.8-8,16.7c0,0.9,2,0.2,3,0.7c5-11.2,14-24.1,21-37.9C75,69.7,73,80.7,69,86.8L69,86.8z"/>
<path d="M75,104.5c5-10.6,14-20.6,19-32.2c0-1-3-0.9-3-0.9c-9,13.4-17,26.3-22,38.3c2-0.1,3,1.3,4-0.2c10-8.4,21-17.2,31-26.3c-6,8.8-13,19.4-15,28.6c-1,1.6,2,0.8,3,1.2c5-12.1,14-23.9,19-35.9c0-1.1-3-1.5-5-0.3c-9,8.5-18,14.9-27,23.4C78,101.8,76,102.9,75,104.5C75,104.5,75,104.5,75,104.5z"/>
<path d="M103,111.6c2-0.1,4-1.2,6-1.2c2-9.3,8-20.8,13-30c5,0.3,9-0.6,14-2.1c1-1.1,1-3.3,2-4.4c-6,0.1-12,1.6-18,1.9C113,87.3,108,99.5,103,111.6C103,111.6,103,111.6,103,111.6z"/>
<path d="M166,74.2c-6,8.6-14,15-25,24.7c3-8.4,6-17.5,8-26.6c-1,0.8-3,0.2-4,1.2c-5,8.9-8,19.9-10,30.8c3-1.3,6,0,8-1.8c10-8.3,18-14.6,24-22.9c0,8.7-3,15.8-2,25.5c2,0.7,5,2.9,5,1.8c2-8.7,1-21.9,2-31.6C170,75,168,75,166,74.2L166,74.2z"/>
</g>
</svg>