<?xml version="1.0" standalone="no"?>
<!DOCTYPE svg PUBLIC "-//W3C//DTD SVG 20010904//EN"
 "http://www.w3.org/TR/2001/REC-SVG-20010904/DTD/svg10.dtd">
<svg width="100" height="36" xmlns="http://www.w3.org/2000/svg">
<!--<g fill="#958c8f" transform="scale(0.058 0.058) translate(580 34)">
<path fill="transparent" d="m0 241h106.386c.985-37.555 5.577-72.935 13.235-105h-88.498c-16.938 31.615-28.909 67.24-31.123 105z"/>
<path fill="#78788c" d="m106.386 271h-106.386c2.214 37.76 14.185 73.385 31.123 105h88.499c-7.658-32.065-12.251-67.445-13.236-105z"/>
<path d="m241 241v-105h-90.361c-8.21 31.776-13.182 67.478-14.269 105z"/>
<path fill="transparent" d="m241 106v-106c-32.847 9.174-61.943 51.143-81.145 106z"/>
<path fill="#78788c" d="m241 512v-106h-81.145c19.202 54.857 48.298 96.826 81.145 106z"/>
<path d="m271 0v106h81.145c-19.202-54.857-48.298-96.826-81.145-106z"/>
<path d="m375.63 241c-1.088-37.522-6.059-73.224-14.269-105h-90.361v105z"/>
<path fill="#78788c" d="m241 271h-104.63c1.088 37.524 6.059 73.224 14.269 105h90.361z"/>
<path d="m384.011 106h77.75c-31.049-42.473-74.76-78.355-125.684-95.257 19.571 23.104 35.94 57.847 47.934 95.257z"/>
<path fill="#78788c" d="m127.989 406h-77.75c31.049 42.473 74.76 78.355 125.684 95.257-19.571-23.104-35.94-57.847-47.934-95.257z"/>
<path d="m127.989 106c11.993-37.41 28.363-72.153 47.933-95.257-50.923 16.902-94.634 52.784-125.683 95.257z"/>
<path fill="#78788c" d="m384.011 406c-11.993 37.41-28.363 72.153-47.933 95.257 50.923-16.902 94.634-52.784 125.684-95.257z"/>
<path fill="transparent" d="m271 271v105h90.361c8.21-31.776 13.182-67.476 14.269-105z"/>
<path d="m392.379 136c7.657 32.065 12.25 67.445 13.235 105h106.386c-2.214-37.76-14.185-73.385-31.123-105z"/>
<path fill="#78788c" d="m271 406v106c32.847-9.174 61.943-51.143 81.145-106z"/>
<path fill="#78788c" d="m512 271h-106.386c-.985 37.555-5.577 72.935-13.235 105h88.499c16.937-31.615 28.908-67.24 31.122-105z"/>
</g>-->
<g style="stroke-miterlimit:10;stroke-width:3px" transform="scale(0.4 0.4) translate(-12 -40)" fill="#78788c" stroke="#78788c" stroke-width="2">
<path transform="translate(-163 -8)" d="M217,80.6c-2,0.7-4,0.4-6,1.3c-8,4.8-13,12.6-21,17.9c3-5.8,4-11.4,7-16c-2,0.1-4-0.7-5,0.5c-7,10.7-10,21.2-14,32.7c9,1.4,8-11.1,12-17.2c1,2.1,2,4.1,4,6.2c2,0.9,4,3.1,5,5.3c2,3.3,6,2.3,10,1.8c-5-5.1-9-8.5-13-13.8C203,92.1,211,87.2,217,80.6L217,80.6z"/>
<path transform="translate(-3 -3)" d="M78,73.3c-2,0.5-5,1.1-7,2.3c-2,1.2-4,3.2-7,3.4c0,0.9,1,1.7,1,2.6c5-2.9,12-6.1,17-4.7c1,1.6-1,5.8-2,6c-9,4-18,4.6-24,10.2c-2,3.4-6,6.2-2,9.4c7,6.2,14-0.2,20-4.8c-1,2-1,2.9-2,4.8c1-0.1,3-0.4,4-0.6c4-5.3,5-11.9,9-17.6c2-3.3,5-9,2-10.8C85,72.4,81,73.6,78,73.3L78,73.3z M77,90c-3,7-11,11.7-18,10.4c-1-9.5,12-10.4,20-13.5C78,87.9,78,88.9,77,90L77,90z"/>
<path transform="translate(-64 -10)" d="M176,80.1c-4-0.4-8,2.3-12,5.3c1-1.5,2-3.9,3-5.3c-1-0.5-3-0.6-3-0.6c-11,16-24,33-28,49.5c-1,1.6,2,0.8,3,1.2c3-6.8,5-14,9-18.4c3-3.7,1,0.4,1,1.4c1,1.4,2,2.8,4,2.7c5,0.1,10-1.6,15-5c7-6.3,12-14.9,14-23.3C183,82.4,180,80.5,176,80.1L176,80.1z M165,108.4c-6,3.9-14,5.6-13-1.9c1-4.5,4-10.2,8-14.2c2-2,3-3.5,5-5.4c5-4.4,12-4.2,11,2C176,94.7,171,102.5,165,108.4L165,108.4z"/>
<path transform="translate(16 2)" d="M108,77.7c2,2,4,4,7,4.5c-8,10.1-16,19.1-18,28.8c-1,1.4,2,1.1,4,1.1c4-9.7,11-19.3,17-28.3c2,1.1,5,1.8,8,1.6c1-0.4,2-2.9,3-4.4c-2-1.3-5-1.1-8-1.8c-2-1.1-4-3.2-7-3.7c-1-0.5-2-2-3-2.5C110,74.6,109,76.1,108,77.7L108,77.7z"/>
<path transform="translate(-76 2)" d="M260,79.5c0,9.5-2,17.5-2,27.1c2,0.6,5,1.4,5,0.5c2-7.8,2-16.3,2-25.8C263,80.3,262,80.3,260,79.5C260,79.5,260,79.5,260,79.5z"/>
<path transform="translate(-76 2)" d="M250,92.3c-7-4.3-12-2.1-19-2.4c1-4.2,2-8.5,4-11.3c-2,0.1-4-0.5-5,0.1c-5,7.7-6,17.7-10,26.4c9-1.8,17-0.2,25-1.5c4-0.6,7-2.1,8-5.9C253,96,253,95.1,250,92.3C250,92.3,250,92.3,250,92.3z M237,100.9c-3,0.7-6,0.6-10-0.2c2-2.3,2-5,3-7.5c4-2.6,11,0.1,16,1.2C249,101.3,241,100.4,237,100.9L237,100.9z"/>
</g>
</svg>
