<?xml version="1.0" standalone="no"?>
<!DOCTYPE svg PUBLIC "-//W3C//DTD SVG 20010904//EN"
 "http://www.w3.org/TR/2001/REC-SVG-20010904/DTD/svg10.dtd">
<svg width="100" height="36" xmlns="http://www.w3.org/2000/svg">
<g style="stroke-miterlimit:10;stroke-width:1px" transform="scale(0.35 0.35) translate(30 -30)" fill="#eee" stroke="#eee">
<path d="M62,73.1c-4,0.9-9,1.4-13,1.3c0-0.9,1-2.6,1-3.5c-2,1.8-7-4.8-7,4.6c-9,1.2-17,0.3-21,3.6c-2,2.5-6,3.7-1,13.1c5,7.7,10,7.5,15,7.9c-1,2.1-1,3.8-2,5.9c6,2.7,5-4,7-5.8c1-0.5,4,0.2,6-0.5c3-1.3,6-2.1,9-4.1c6-3.9,11-10,11-16.4C68,76,68,72.6,62,73.1C62,73.1,62,73.1,62,73.1z M37,96.2c-4,0.4-11-1.5-12-7.4c-2-9.7,7-10,17-10C40,84.4,39,91,37,96.2L37,96.2z M53,93c-3,1.8-7,4.1-11,3.1c2-5.6,4-12.2,6-18.2c4,0.4,11-3.1,13,1.8C62,84.9,57,89.5,53,93L53,93z"/>
<path d="M94,69.4c-8-0.5-16,7.2-22,14.7c-4,5-6,10.9-5,16.2c3,5.8,11,6.4,18,1.4c1-1.4,3-3.2,5-5.1c3-4.3,7-7.3,9-12.2C103,75.4,102,67.9,94,69.4L94,69.4z M84,97.4c-3,3.2-7,3.7-10,2.8c-1-1.5-3-2.8-2-5.9c2-7.1,7-14.5,14-18.9c5-3.4,11-2.8,10,2.7C96,84,90,92,84,97.4L84,97.4z"/>
<path d="M108,77.7c2,2,4,4,7,4.5c-8,10.1-16,19.1-18,28.8c-1,1.4,2,1.1,4,1.1c4-9.7,11-19.3,17-28.3c2,1.1,5,1.8,8,1.6c1-0.4,2-2.9,3-4.4c-2-1.3-5-1.1-8-1.8c-2-1.1-4-3.2-7-3.7c-1-0.5-2-2-3-2.5C110,74.6,109,76.1,108,77.7L108,77.7z"/>
<path d="M158,80.6c-2-0.1-4-1.2-6,0.1c-7,6-14,11.9-22,17.9c4-5.6,6-11.5,9-17.7c-2,0.5-4,0.1-5,0.5c-6,11.6-13,21.8-17,33.7c2,0.2,4-0.6,6-0.3c1-5.6,4-10.9,7-16.1c1,7,6,9.6,10,14.2c2,0.7,5-0.9,8-1.1c-4-5.3-11-6.8-12-13.9C144,92.3,151,84.8,158,80.6L158,80.6z"/>
<path d="M187,77.8c-2,3.2-4,5.2-7,8.1c-1,1.7-2,3.5-3,5.3c-5,4.4-9,11-15,15.4c2-9.7,5-18.1,7-27.7c-1-0.3-3-0.8-4,0.2c-4,9.4-7,20.3-10,31.2c3,0.1,6,0.6,8-0.2c11-7.8,19-16.4,25-26.9c-2,7.8-1,19.1-3,26.9c2,0.3,5,1.8,5,0.7c2-9.9,3-22,2-34.8C191,77.6,189,78.2,187,77.8L187,77.8z"/>
</g>
</svg>