<?xml version="1.0" standalone="no"?>
<!DOCTYPE svg PUBLIC "-//W3C//DTD SVG 20010904//EN"
 "http://www.w3.org/TR/2001/REC-SVG-20010904/DTD/svg10.dtd">
<svg width="100" height="36" xmlns="http://www.w3.org/2000/svg">
<!--<g transform="scale(0.4 0.34) translate(50 15)">
<path d="M110.16,96.56h-0.02V64.25V18.1c0-7.64-6.2-13.85-13.85-13.85H17.84 c-7.64,0-13.85,6.2-13.85,13.85s6.2,13.85,13.85,13.85l0,0c0.01,0,0.01,0,0.02,0h4.62h4.6v32.31v46.15 c0,7.64,6.2,13.85,13.85,13.85c0.1,0,0.18-0.03,0.27-0.03h68.98v0.03c7.65,0,13.85-6.2,13.85-13.85 C124.01,102.76,117.81,96.56,110.16,96.56z" style="fill:#A1887F;"/>
<path d="M17.84,8.87c5.1,0,9.23,4.14,9.23,9.23v4.44c-0.1-5-4.18-9.05-9.21-9.05 c-4.3,0-7.89,2.97-8.91,6.95c-0.2-0.75-0.34-1.52-0.34-2.34C8.61,13.01,12.75,8.87,17.84,8.87z" style="fill:#5D4037;"/>
<circle cx="17.86" cy="21.2" r="4.62" style="fill:#6D4C41;"/>
<path d="M31.68,110.4V64.25V31.94h0.02v-9.23h-0.02V18.1c0-3.56-1.38-6.78-3.59-9.23H96.3 c5.09,0,9.23,4.14,9.23,9.23v46.15v32.31h-64.6c0,0,0,0-0.01,0c0,0,0,0-0.01,0l0,0c-5.08,0.01-9.21,4.14-9.21,9.23 c0,5.09,4.14,9.23,9.23,9.23c4.28,0,7.85-2.94,8.9-6.9c0.18,0.73,0.31,1.49,0.31,2.28c0,5-3.99,9.06-8.96,9.2H40.9v0.03 C35.82,119.62,31.68,115.49,31.68,110.4z" style="fill:#D7C1AE;"/>
<path d="M45.55,105.79c0,2.54-2.07,4.62-4.62,4.62c-2.54,0-4.62-2.07-4.62-4.62c0-2.54,2.07-4.61,4.61-4.62 c0.01,0,0.01,0,0.02,0C43.49,101.19,45.55,103.25,45.55,105.79z" style="fill:#5D4037;"/>
<path d="M110.16,119.63v-0.03H51.19c2.19-2.45,3.57-5.65,3.57-9.2c0-3.56-1.38-6.78-3.59-9.23h58.99c5.09,0,9.23,4.14,9.23,9.23 C119.39,115.49,115.25,119.63,110.16,119.63z"/>
<path d="M110.14,119.63v-0.03H51.17c2.2-2.45,3.57-5.65,3.57-9.2c0-3.56-1.38-6.78-3.59-9.23h58.99 c5.09,0,9.23,4.14,9.23,9.23C119.38,115.49,115.24,119.63,110.14,119.63z" style="fill:#D7C1AE;"/>
<path d="M94.5,30.43H45.93c-1.11,0-2.01-1.03-2.01-2.3s0.9-2.3,2.01-2.3H94.5c1.11,0,2.01,1.03,2.01,2.3 S95.61,30.43,94.5,30.43z" style="fill:#8D6E63;"/>
<path d="M94.5,44.49H45.93c-1.11,0-2.01-1.03-2.01-2.3c0-1.27,0.9-2.3,2.01-2.3H94.5 c1.11,0,2.01,1.03,2.01,2.3C96.51,43.45,95.61,44.49,94.5,44.49z" style="fill:#8D6E63;"/>
<path d="M94.5,58.55H45.93c-1.11,0-2.01-1.03-2.01-2.3c0-1.27,0.9-2.3,2.01-2.3H94.5 c1.11,0,2.01,1.03,2.01,2.3C96.51,57.52,95.61,58.55,94.5,58.55z" style="fill:#8D6E63;"/>
<path d="M94.5,72.61H45.93c-1.11,0-2.01-1.03-2.01-2.3s0.9-2.3,2.01-2.3H94.5c1.11,0,2.01,1.03,2.01,2.3 S95.61,72.61,94.5,72.61z" style="fill:#8D6E63;"/>
<path d="M66.71,86.67H45.93c-1.11,0-2.01-1.03-2.01-2.3c0-1.27,0.9-2.3,2.01-2.3h20.77 c1.11,0,2.01,1.03,2.01,2.3C68.71,85.64,67.81,86.67,66.71,86.67z" style="fill:#8D6E63;"/>
<path d="M96.3,7.25c5.98,0,10.85,4.87,10.85,10.85v46.15v32.31c0,1.66,1.36,3,3.02,3 c5.98,0,10.85,4.87,10.85,10.85c0,5.86-4.67,10.65-10.48,10.84c-0.12-0.01-0.24-0.02-0.36-0.02H41.19 c-0.17,0-0.32,0.01-0.43,0.03c-5.91-0.09-10.68-4.92-10.68-10.84V64.25V31.94c0-1.66-1.34-3-3-3h-4.6h-4.63 c-5.98,0-10.85-4.87-10.85-10.85S11.86,7.25,17.84,7.25H96.3 M96.3,4.25H17.84c-7.64,0-13.85,6.2-13.85,13.85 c0,7.64,6.2,13.85,13.85,13.85c0.01,0,0.01,0,0.02,0h4.62h4.6v32.31v46.15c0,7.64,6.2,13.85,13.85,13.85 c0.1,0,0.18-0.03,0.27-0.03h68.98v0.03c7.65,0,13.85-6.2,13.85-13.85c0-7.65-6.2-13.85-13.85-13.85h-0.02V64.25V18.1 C110.14,10.45,103.95,4.25,96.3,4.25L96.3,4.25z" style="opacity:0.2;fill:#424242;"/>
</g>-->
<g style="stroke-miterlimit:10;stroke-width:3px" transform="scale(0.4 0.4) translate(-12 -40)" fill="#ce5e5e" stroke="#ce5e5e" stroke-width="2">
<path d="M38,89.2c5-2,15-2.3,14-11.7c0-1-1-3.2-3-3.8c-12-3.5-22-1.9-30-2.1c1,1,2,3,3,3.9c6-0.4,13-3.2,22,0.4c1,0.4,3,3.1,2,4.7c-5,7.5-15,6.3-23,4.8c0,1,0,3,0,4c6,2.4,12-2.5,19,6.7c1,1.4,0,4-1,5.5c-6,6.3-15,5.6-24-0.1c0,1,0,3,0,5c12,7.9,23,4.2,30-4.5c1-2.7,3-6.1,0-10C45,89.5,41,88.9,38,89.2L38,89.2z"/>
<path d="M78,75.4c-5,1-10,2.5-14,5.4c0,1,1,2,1,3c5-3,12-6,17-4.4c1,1.7-1,6.3-2,6.5c-7,3.7-14,4.2-20,6.7c-5,2.6-8,7.7-6,15.2c7,4.4,14-0.8,20-5.7c0,2-1,3.1-1,5.1c1-0.1,3-0.5,3-0.5c3-9.3,12-19,12-29.1C88,73.8,82,73.7,78,75.4L78,75.4z M77,93.6c-1,5.2-6,8.1-10,10.2c-3,1.1-6,3-7-0.1c-3-10,11-12.1,19-13.5C78,91.4,78,92.4,77,93.6L77,93.6z"/>
<path d="M108,92.2c-2,2-4,5-6,6.9c4-9.9,7-20.4,6-28.9c0-1-4,0-5,0.4c-8,11.7-12,24.2-18,35c1-0.3,3,0.1,4-0.3c5-10.7,11-20.3,15-30.2c-1,9.5-5,20.3-6,29.7c0,0,2,0.1,3-0.3c9-10.1,18-20.2,27-29.5c-7,10.1-14,20.1-19,30.6c0,1,2,1,3,1.4c6-12.1,15-24.4,23-37.2c-2,0.2-4-1.6-5,0C122,75.7,115,83.7,108,92.2L108,92.2z"/>
<path d="M151,76.6c-5-1.2-11,1.4-16,6.3c-7,7.2-11,15.5-12,23.1c0,4,3,7.3,6,8.5c2-0.2,3,0.2,5,0c2-0.2,3,5.2,8-5.7c-6,1.5-11,1.5-14-2.7c-1-3.4,1-8.6,4-13.4c4,4.6,11,4.4,17,6C156,89.8,157,79.3,151,76.6C151,76.6,151,76.6,151,76.6z M135,89c3-4.8,7-6.2,10-7.9c6-1.5,6,6.6,2,12.8C143,92.2,139,90.6,135,89L135,89z"/>
<path d="M161,85.2c3-0.5,6-1,9-0.3c-5,9.2-11,19.3-15,29.5c2-0.1,4-0.1,5-0.7c5-10.5,8-21.1,16-29.4c2-2.8,7,3.4,11-5.7c-8,1.2-15,0.1-23,2C163,80.2,162,83.7,161,85.2L161,85.2z"/>
<path d="M219,73.8c-2,0.5-4,0.1-6,0.8c-6,5.2-13,11.3-21,16.9c3-5.6,4-10.7,7-15.1c-2,0.2-4-0.5-5,0.7c-6,10.1-11,20.7-14,31.7c9,0.1,8-10.4,12-16.4c6,3.2,6,12.2,19,9.9c-2-1.2-4-2.3-6-4.3c-1-2-3-3.9-5-4.8c-1-0.9-2-2.8-2-2.8C205,83.6,213,79.2,219,73.8L219,73.8z"/>
<path d="M248,75.6c-7,6.5-14,14.6-23,22.1c4-6.4,4-15.3,6-23.3c-2,0-4-0.9-5-0.3c-3,8.8-4,18.5-7,27.7c3,0.7,6,0.8,8-0.3c10-6.7,17-13.8,23-21c-1,8-2,15.1-2,24.1c2,0.9,4,2,4,1c2-7.9,3-17.7,2-28.8C252,75.5,250,75.4,248,75.6C248,75.6,248,75.6,248,75.6z"/>
</g>
</svg>