<?xml version="1.0" standalone="no"?>
<!DOCTYPE svg PUBLIC "-//W3C//DTD SVG 20010904//EN"
 "http://www.w3.org/TR/2001/REC-SVG-20010904/DTD/svg10.dtd">
<svg width="80" height="24" xmlns="http://www.w3.org/2000/svg">
<g style="stroke-miterlimit:10;stroke-width:1px" transform="scale(0.26 0.3) translate(44 -40)" fill="#777" stroke="#777">
<path d="M38,89.2c5-2,15-2.3,14-11.7c0-1-1-3.2-3-3.8c-12-3.5-22-1.9-30-2.1c1,1,2,3,3,3.9c6-0.4,13-3.2,22,0.4c1,0.4,3,3.1,2,4.7c-5,7.5-15,6.3-23,4.8c0,1,0,3,0,4c6,2.4,12-2.5,19,6.7c1,1.4,0,4-1,5.5c-6,6.3-15,5.6-24-0.1c0,1,0,3,0,5c12,7.9,23,4.2,30-4.5c1-2.7,3-6.1,0-10C45,89.5,41,88.9,38,89.2L38,89.2z"/>
<path d="M78,75.4c-5,1-10,2.5-14,5.4c0,1,1,2,1,3c5-3,12-6,17-4.4c1,1.7-1,6.3-2,6.5c-7,3.7-14,4.2-20,6.7c-5,2.6-8,7.7-6,15.2c7,4.4,14-0.8,20-5.7c0,2-1,3.1-1,5.1c1-0.1,3-0.5,3-0.5c3-9.3,12-19,12-29.1C88,73.8,82,73.7,78,75.4L78,75.4z M77,93.6c-1,5.2-6,8.1-10,10.2c-3,1.1-6,3-7-0.1c-3-10,11-12.1,19-13.5C78,91.4,78,92.4,77,93.6L77,93.6z"/>
<path d="M105,96.2c-2,2-4,5-6,6.9c4-9.9,7-20.4,6-28.9c0-1-4,0-5,0.4c-8,11.7-12,24.2-18,35c1-0.3,3,0.1,4-0.3c5-10.7,11-20.3,15-30.2c-1,9.5-5,20.3-6,29.7c0,0,2,0.1,3-0.3c9-10.1,18-20.2,27-29.5c-7,10.1-14,20.1-19,30.6c0,1,2,1,3,1.4c6-12.1,15-24.4,23-37.2c-2,0.2-4-1.6-5,0C122,75.7,115,83.7,105,96.2L105,96.2z"/>
<path d="M151,76.6c-5-1.2-11,1.4-16,6.3c-7,7.2-11,15.5-12,23.1c0,4,3,7.3,6,8.5c2-0.2,3,0.2,5,0c2-0.2,3,5.2,8-5.7c-6,1.5-11,1.5-14-2.7c-1-3.4,1-8.6,4-13.4c4,4.6,11,4.4,17,6C156,89.8,157,79.3,151,76.6C151,76.6,151,76.6,151,76.6z M135,89c3-4.8,7-6.2,10-7.9c6-1.5,6,6.6,2,12.8C143,92.2,139,90.6,135,89L135,89z"/>
<path d="M161,85.2c3-0.5,6-1,9-0.3c-5,9.2-11,19.3-15,29.5c2-0.1,4-0.1,5-0.7c5-10.5,8-21.1,16-29.4c2-2.8,7,3.4,11-5.7c-8,1.2-15,0.1-23,2C163,80.2,162,83.7,161,85.2L161,85.2z"/>
<path d="M219,73.8c-2,0.5-4,0.1-6,0.8c-6,5.2-13,11.3-21,16.9c3-5.6,4-10.7,7-15.1c-2,0.2-4-0.5-5,0.7c-6,10.1-11,20.7-14,31.7c9,0.1,8-10.4,12-16.4c6,3.2,6,12.2,19,9.9c-2-1.2-4-2.3-6-4.3c-1-2-3-3.9-5-4.8c-1-0.9-2-2.8-2-2.8C205,83.6,213,79.2,219,73.8L219,73.8z"/>
<path d="M248,75.6c-7,6.5-14,14.6-23,22.1c4-6.4,4-15.3,6-23.3c-2,0-4-0.9-5-0.3c-3,8.8-4,18.5-7,27.7c3,0.7,6,0.8,8-0.3c10-6.7,17-13.8,23-21c-1,8-2,15.1-2,24.1c2,0.9,4,2,4,1c2-7.9,3-17.7,2-28.8C252,75.5,250,75.4,248,75.6C248,75.6,248,75.6,248,75.6z"/>
</g>
</svg>