<?xml version="1.0" standalone="no"?>
<!DOCTYPE svg PUBLIC "-//W3C//DTD SVG 20010904//EN"
 "http://www.w3.org/TR/2001/REC-SVG-20010904/DTD/svg10.dtd">
<svg width="100" height="36" xmlns="http://www.w3.org/2000/svg">
<!--<g transform="translate(35 -10) rotate(56) scale(0.7 0.7)">
<path style="fill-rule:evenodd;clip-rule:evenodd;fill:#ED7161;" d="M34.399,40c-1.569-0.516-0.846-2.848-0.524-3.692c0.077-0.17,0.125-0.29,0.125-0.307C34,31.582,30.418,28,26,28c-3.376,0-6.258,2.094-7.432,5.053C16.803,36.164,14,36.001,14,36.001C6.268,36.001,0,42.269,0,50c0,5.982,8.018,14.001,14,14.001c7.731,0,14-6.269,14-14.001c0-0.068-0.009-0.134-0.01-0.202L28,49.801c0-6.571,5.463-5.719,6.399-5.801c1.105,0,2-0.895,2-1.999C36.399,40.896,35.505,40,34.399,40z"/>
<path style="fill-rule:evenodd;clip-rule:evenodd;fill:#9D5F57;" d="M27.988,49.797L28,49.801c0-6.571,5.463-5.719,6.399-5.801c1.105,0,2-0.895,2-1.999c0-1.105-0.895-2.001-2-2.001c-1.569-0.516-0.846-2.846-0.525-3.691C33.953,36.135,34,36.019,34,36.001c0-1.193-0.269-2.321-0.736-3.338C29.667,35.9,14,50,14,50s7.375,7.85,12.121,6.986C27.309,54.928,28,52.547,28,50C28,49.932,27.989,49.866,27.988,49.797z"/>
<path style="fill:#fff;" d="M25.463,40.972l-2.491-2.492c-0.688-0.688-1.803-0.688-2.491,0c-0.688,0.688-0.688,1.804,0,2.492l2.491,2.49c0.688,0.688,1.804,0.688,2.491,0C26.151,42.774,26.151,41.659,25.463,40.972z"/>
<path style="fill:#fff;" d="M17.463,48.972l-2.491-2.491c-0.688-0.688-1.803-0.688-2.49,0c-0.688,0.688-0.688,1.803,0,2.491l2.49,2.49c0.688,0.688,1.804,0.688,2.491,0C18.151,50.774,18.151,49.659,17.463,48.972z"/>
<path style="fill-rule:evenodd;clip-rule:evenodd;fill:#fff;" d="M15,55.998c-0.553,0-1,0.448-1,1.001c0,0.552,0.447,0.999,1,0.999c0.552,0,1-0.447,1-0.999C16,56.446,15.552,55.998,15,55.998z M19,55.998c-0.553,0-1,0.448-1,1.001c0,0.552,0.447,0.999,1,0.999c0.552,0,1-0.447,1-0.999C20,56.446,19.552,55.998,19,55.998z"/>
<polygon style="fill-rule:evenodd;clip-rule:evenodd;fill:#E8AD72;" points="43,17 24,36 28,40 47,21"/>
<polygon style="fill-rule:evenodd;clip-rule:evenodd;fill:#666;" transform="translate(-10 10)" points="62,2.001 60,0 58,0 52,6 52,8 54,10 56,12.001 58,12.001 64,6 64,4"/>
</g>-->
<g style="stroke-miterlimit:10;stroke-width:3px" transform="scale(0.38 0.38) translate(-10 -40)" fill="#787878" stroke="#787878" stroke-width="2">
<path d="M38,73C28,85,21,96.2,15,107.4c8,5.4,6-8.5,12-10c5-0.6,13,3.4,19,2.2c2,3.8,0,8.3,2,12.1c1,0.3,4,0.1,4,0c2-12.2-1-25.6-9-38.2C42,73,40,73.1,38,73L38,73z M29,92.8c4-4,8-8.8,11-14.6c2,5.2,4,11.2,5,16.8C39,94.7,35,95.5,29,92.8L29,92.8z"/>
<path d="M98,72c-2,0.9-4,0.7-6,1.5c-8,6.2-15,13.3-22,20.3c2-5.4,4-9.9,5-15.2c-2,0.4-5,0.8-5,0.8c-5,10.9-8,21.2-12,31.2c9,2.6,8-11.3,12-16.7c4,3.6,5,9.6,8,14.1c1,0.8,4-1,6-1.7c-2-5.6-4-10.1-8-14.4C83,86.3,91,79.3,98,72L98,72z"/>
<path d="M131,67.6c-8-1.5-18,11.4-27,17.9c2-6.1,5-10.7,8-16.4c-2,0.1-5,0.6-5,0.6c-7,12.7-11,24.8-18,35.7c8,0,10-12.5,14-19.4c2,5.1,2,12.3,4,17.4c1,0.5,3,0.4,4,0.9c0-7.1-1-12.7-2-19.3C116,78.3,124,73.7,131,67.6L131,67.6z"/>
<path d="M148,72c-4-4.8-14,1.9-20,9.5c-5,8-10,15.9-8,22.9c2,6,9,7.8,17,1c8-6.8,15-16.7,16-25.1C154,75.7,151,73.3,148,72L148,72z M134,103.1c-7,3.2-11-0.5-9-7.7c2-6.2,7-14.2,13-17.7c5-3.9,11-2.2,10,4.3C147,89.4,141,96.8,134,103.1C134,103.1,134,103.1,134,103.1z"/>
<path d="M176,80.1c-4-0.4-8,2.3-12,5.3c1-1.5,2-3.9,3-5.3c-1-0.5-3-0.6-3-0.6c-11,16-24,33-28,49.5c-1,1.6,2,0.8,3,1.2c3-6.8,5-14,9-18.4c3-3.7,1,0.4,1,1.4c1,1.4,2,2.8,4,2.7c5,0.1,10-1.6,15-5c7-6.3,12-14.9,14-23.3C183,82.4,180,80.5,176,80.1L176,80.1z M165,108.4c-6,3.9-14,5.6-13-1.9c1-4.5,4-10.2,8-14.2c2-2,3-3.5,5-5.4c5-4.4,12-4.2,11,2C176,94.7,171,102.5,165,108.4L165,108.4z"/>
<path d="M218,79c-5-0.6-11,1.4-16,1c-5,10-13,20.1-23,28.9c-1,0.4-2-0.2-2-0.2c-4,4.6-5,9.9-7,14.8c8,1.2,6-6.6,10-12.1c9-0.6,18-3.9,27-4.6c-1,2.9-2,5.8-3,8.8c9,1,6-8.9,10-13.7c-2,0-4,0.9-6,1.1C211,94.3,216,87.1,218,79L218,79z M203,104.4c-6,1.7-12,0.3-18,3.3c8-8.4,13-17,20-24.2c2-1.1,5-0.3,7-1.2C210,89.7,204,96.7,203,104.4L203,104.4z"/>
<path d="M260,79.5c0,9.5-2,17.5-2,27.1c2,0.6,5,1.4,5,0.5c2-7.8,2-16.3,2-25.8C263,80.3,262,80.3,260,79.5C260,79.5,260,79.5,260,79.5z"/>
<path d="M250,92.3c-7-4.3-12-2.1-19-2.4c1-4.2,2-8.5,4-11.3c-2,0.1-4-0.5-5,0.1c-5,7.7-6,17.7-10,26.4c9-1.8,17-0.2,25-1.5c4-0.6,7-2.1,8-5.9C253,96,253,95.1,250,92.3C250,92.3,250,92.3,250,92.3z M237,100.9c-3,0.7-6,0.6-10-0.2c2-2.3,2-5,3-7.5c4-2.6,11,0.1,16,1.2C249,101.3,241,100.4,237,100.9L237,100.9z"/>
</g>
</svg>