<?xml version="1.0" standalone="no"?>
<!DOCTYPE svg PUBLIC "-//W3C//DTD SVG 20010904//EN"
 "http://www.w3.org/TR/2001/REC-SVG-20010904/DTD/svg10.dtd">
<svg width="100" height="80" xmlns="http://www.w3.org/2000/svg">
<g transform="scale(0.09 0.09) translate(280 30)"><path style="fill:#99aab5;" d="M512,369.777c0,78.55-114.616,142.222-256,142.222S0,448.327,0,369.777s114.616-142.222,256-142.222 S512,291.228,512,369.777"/><path style="fill:#CCD6DD;" d="M512,341.333c0,78.55-114.616,142.222-256,142.222S0,419.882,0,341.333s114.616-142.222,256-142.222 S512,262.783,512,341.333"/><path style="fill:#F5F8FA;" d="M256,440.888c-212.736,0-241.778-213.333-241.778-270.222h483.556 C497.778,199.111,469.93,440.888,256,440.888"/><path style="fill:#CCD6DD;" d="M453.43,98.868c-19.299-13.341-44.132-24.092-72.832-32C407.264,58.677,445.324,62.474,453.43,98.868 M489.028,137.155C523.759-6.803,349.921,27.558,315.46,54.694c-19.058-2.119-38.912-3.328-59.464-3.328 c-133.532,0-241.778,45.91-241.778,120.092s108.246,134.314,241.778,134.314s241.778-60.132,241.778-134.314 C497.774,159.199,494.574,147.792,489.028,137.155"/><path style="fill:#8A4B38;" d="M469.333,184.888c0,54.984-95.517,99.556-213.333,99.556S42.667,239.872,42.667,184.888 S138.184,85.333,256,85.333S469.333,129.905,469.333,184.888"/><path style="fill:#D99E82;" d="M284.444,241.777c-3.641,0-7.282-1.394-10.055-4.167c-33.237-33.237-33.792-69.476-1.778-117.504 c10.51-15.772,12.8-31.929,6.798-48.028c-6.557-17.564-20.452-28.388-24.619-29.526c-7.865,0-13.625-6.314-13.625-14.166 c0-7.865,6.984-14.166,14.834-14.166c14.179,0,34.062,16.398,45.27,37.333c14.705,27.492,12.942,57.443-4.992,84.338 c-27.89,41.842-21.775,61.61-1.778,81.607c5.561,5.561,5.561,14.55,0,20.11C291.726,240.383,288.086,241.777,284.444,241.777"/><path style="fill:#D99E82;" d="M199.111,213.333c-3.641,0-7.282-1.394-10.055-4.167c-33.237-33.237-33.792-69.476-1.778-117.504 c10.339-15.517,12.701-29.61,7.025-41.913c-6.314-13.668-20.352-20.892-23.95-21.319c-7.85,0-14.065-6.357-14.065-14.208 c0-7.865,6.528-14.222,14.379-14.222c14.179,0,36.764,13.852,47.787,34.461c6.841,12.785,14.976,39.268-7.51,72.988 c-27.89,41.842-21.775,61.61-1.778,81.607c5.561,5.561,5.561,14.55,0,20.11C206.393,211.939,202.752,213.333,199.111,213.333"/></g>
<g class="vesti" style="stroke-miterlimit:10;stroke-width:3px" transform="scale(0.4 0.4) translate(-12 70)" fill="#78788c" stroke="#78788c" stroke-width="2"><path d="M38,88.2c5-2,15-3.1,14-11.2c0-0.9-1-2.7-3-3c-12-1.8-22,0.5-30,0.9c1,0.8,2,2.3,3,3c4,0.3,6-1.9,10-2.5c3-1,8,0.8,12,1.8c1,0.3,3,0.7,2,3.1c-5,6.8-15,6.5-23,5.7c0,0.8,0,2.5,0,3.3c6,1.7,12-2.8,19,4.5c1,1.2,0,3.4-1,4.8c-6,5.7-15,5.4-24,0.8c0,0.8,0,2.4,0,4.1c12,6.4,23,3,30-4.9c1-1.5,1-4.1,1-6.7C47,87.5,41,89.4,38,88.2L38,88.2z"/><path d="M78,73.3c-2,0.5-5,1.1-7,2.3c-2,1.2-4,3.2-7,3.4c0,0.9,1,1.7,1,2.6c5-2.9,12-6.1,17-4.7c1,1.6-1,5.8-2,6c-9,4-18,4.6-24,10.2c-2,3.4-6,6.2-2,9.4c7,6.2,14-0.2,20-4.8c-1,2-1,2.9-2,4.8c1-0.1,3-0.4,4-0.6c4-5.3,5-11.9,9-17.6c2-3.3,5-9,2-10.8C85,72.4,81,73.6,78,73.3L78,73.3z M77,90c-3,7-11,11.7-18,10.4c-1-9.5,12-10.4,20-13.5C78,87.9,78,88.9,77,90L77,90z"/><path d="M85,101c1-0.3,3,0.1,4-0.2c7-9.6,10-19.2,17-29c5,0.6,11-0.3,16,0.1c-7,10.3-13,20.8-19,29.7c1,0.6,3,0.7,4,1.3c6-11,15-23,22-34.5c-8-1.9-17-1.2-26-0.1c-5,7.9-9,15-13,22.8C89,94.3,87,97.7,85,101L85,101z"/><path d="M120,102.3c6-9.5,14-19.3,21-28.8c-1-0.5-3-1.6-4-2.1c-7,12.5-17,23.2-23,34.5c2,0.1,4,2.2,5,0.8c10-7.3,21-12.6,31-20c-7,8.2-12,17.6-18,27.2c1,0.6,3,0.7,4,1.3c5-11.2,14-22.3,21-33.5c-2,0.8-4-0.4-5,0.1C141,87.5,130,94,120,102.3L120,102.3z"/><path d="M174,89.1c4-3.2,2,7.9,10-3.6c-6-0.9-11-2.6-17,0.6c-9,5.3-17,15-18,24.6c0,4.1,3,7,7,7.6c4,0.6,9,0,13-2.2c1-0.3,1-2.4,2-3.7c-6,1.6-17,4.6-16-4c1-4.5,4-8.8,7-13C166,91.7,169,87.4,174,89.1L174,89.1z"/><path d="M217,80.6c-2,0.7-4,0.4-6,1.3c-8,4.8-13,12.6-21,17.9c3-5.8,4-11.4,7-16c-2,0.1-4-0.7-5,0.5c-7,10.7-10,21.2-14,32.7c9,1.4,8-11.1,12-17.2c1,2.1,2,4.1,4,6.2c2,0.9,4,3.1,5,5.3c2,3.3,6,2.3,10,1.8c-5-5.1-9-8.5-13-13.8C203,92.1,211,87.2,217,80.6L217,80.6z"/><path d="M246,76.5c-1,1.6-1,4-2,5.6c-1,1.6-3,1.5-4,3.2c-5,7.4-11,14.8-17,21.8c3-9.2,4-19.1,6-28.7c-2,0.3-4,0.8-5,1.6c-3,10.5-4,21.5-7,32.1c3,0.8,6,0.6,8-0.9c10-8.7,17-19.1,23-29.8c-1,9.8-2,18.5-2,29.1c2,0.4,4,0.9,4-0.3c2-10.1,3-22.2,2-35C250,74.9,248,75.6,246,76.5C246,76.5,246,76.5,246,76.5z"/></g>
</svg>