<?xml version="1.0" encoding="UTF-8" standalone="no"?>
<svg xmlns:dc="http://purl.org/dc/elements/1.1/" xmlns:cc="http://creativecommons.org/ns#" xmlns:rdf="http://www.w3.org/1999/02/22-rdf-syntax-ns#" xmlns:svg="http://www.w3.org/2000/svg" xmlns="http://www.w3.org/2000/svg" xmlns:sodipodi="http://sodipodi.sourceforge.net/DTD/sodipodi-0.dtd" xmlns:inkscape="http://www.inkscape.org/namespaces/inkscape" version="1.1" id="svg2063" width="820.08783" height="1000" viewBox="0 0 820.08786 1000" sodipodi:docname="Coat of arms of Dubna.svg" inkscape:version="1.0.1 (3bc2e813f5, 2020-09-07)">
  <metadata id="metadata2069">
    <rdf:RDF>
      <cc:Work rdf:about="">
        <dc:format>image/svg+xml</dc:format>
        <dc:type rdf:resource="http://purl.org/dc/dcmitype/StillImage"/>
        <dc:title/>
      </cc:Work>
    </rdf:RDF>
  </metadata>
  <defs id="defs2067"/>
  <sodipodi:namedview pagecolor="#ffffff" bordercolor="#666666" borderopacity="1" objecttolerance="10" gridtolerance="10" guidetolerance="10" inkscape:pageopacity="0" inkscape:pageshadow="2" inkscape:window-width="1920" inkscape:window-height="1054" id="namedview2065" showgrid="false" inkscape:zoom="1.2575391" inkscape:cx="347.6102" inkscape:cy="505.97169" inkscape:window-x="0" inkscape:window-y="0" inkscape:window-maximized="1" inkscape:current-layer="g2071" inkscape:document-rotation="0" inkscape:snap-object-midpoints="true" fit-margin-top="0" fit-margin-left="0" fit-margin-right="0" fit-margin-bottom="0">
    <sodipodi:guide position="-440.26383,-876.54545" orientation="1365.3333,0" id="guide2638"/>
  </sodipodi:namedview>
  <g inkscape:groupmode="layer" inkscape:label="Image" id="g2071" transform="translate(-998.9308,511.21218)">
    <g id="g2814" transform="matrix(0.73135019,0,0,0.73135019,1000.3935,-509.74948)">
      <path id="path2785" style="color:#000000;font-style:normal;font-variant:normal;font-weight:normal;font-stretch:normal;font-size:medium;line-height:normal;font-family:sans-serif;font-variant-ligatures:normal;font-variant-position:normal;font-variant-caps:normal;font-variant-numeric:normal;font-variant-alternates:normal;font-variant-east-asian:normal;font-feature-settings:normal;font-variation-settings:normal;text-indent:0;text-align:start;text-decoration:none;text-decoration-line:none;text-decoration-style:solid;text-decoration-color:#000000;letter-spacing:normal;word-spacing:normal;text-transform:none;writing-mode:lr-tb;direction:ltr;text-orientation:mixed;dominant-baseline:auto;baseline-shift:baseline;text-anchor:start;white-space:normal;shape-padding:0;shape-margin:0;inline-size:0;clip-rule:nonzero;display:inline;overflow:visible;visibility:visible;isolation:auto;mix-blend-mode:normal;color-interpolation:sRGB;color-interpolation-filters:linearRGB;solid-color:#000000;solid-opacity:1;vector-effect:none;fill:#ffffff;fill-opacity:1;fill-rule:nonzero;stroke:#ff0000;stroke-width:4;stroke-linecap:butt;stroke-linejoin:miter;stroke-miterlimit:4;stroke-dasharray:none;stroke-dashoffset:91.011;stroke-opacity:1;color-rendering:auto;image-rendering:auto;shape-rendering:auto;text-rendering:auto;enable-background:accumulate;stop-color:#000000" d="m 0,0 v 1114.9766 c 0,96.5616 67.586497,130.416 128.08984,130.416 h 301.40821 c 129.16916,0 129.16797,119.9414 129.16797,119.9414 0,0 7.6e-4,-119.9414 129.16992,-119.9414 h 301.4082 c 60.50336,0 128.08986,-33.8544 128.08986,-130.416 V 0 Z" sodipodi:nodetypes="cssscssscc"/>
      <path style="color:#000000;font-style:normal;font-variant:normal;font-weight:normal;font-stretch:normal;font-size:medium;line-height:normal;font-family:sans-serif;font-variant-ligatures:normal;font-variant-position:normal;font-variant-caps:normal;font-variant-numeric:normal;font-variant-alternates:normal;font-variant-east-asian:normal;font-feature-settings:normal;font-variation-settings:normal;text-indent:0;text-align:start;text-decoration:none;text-decoration-line:none;text-decoration-style:solid;text-decoration-color:#000000;letter-spacing:normal;word-spacing:normal;text-transform:none;writing-mode:lr-tb;direction:ltr;text-orientation:mixed;dominant-baseline:auto;baseline-shift:baseline;text-anchor:start;white-space:normal;shape-padding:0;shape-margin:0;inline-size:0;clip-rule:nonzero;display:inline;overflow:visible;visibility:visible;isolation:auto;mix-blend-mode:normal;color-interpolation:sRGB;color-interpolation-filters:linearRGB;solid-color:#000000;solid-opacity:1;vector-effect:none;fill:#ffffff;fill-opacity:1;fill-rule:nonzero;stroke:#000000;stroke-width:3.44196;stroke-linecap:butt;stroke-linejoin:miter;stroke-miterlimit:4;stroke-dasharray:none;stroke-dashoffset:91.011;stroke-opacity:1;color-rendering:auto;image-rendering:auto;shape-rendering:auto;text-rendering:auto;enable-background:accumulate;stop-color:#000000" d="m 558.66698,1365.3333 c 0,0 -10e-6,-119.9404 -129.16917,-119.9404 H 128.09063 c -60.503349,0 -128.090641841635,-33.854 -128.090641841635,-130.4156 V -4.8046875e-5 L 558.66697,0.80683552" id="path2651" sodipodi:nodetypes="cccccc"/>
      <path id="path2661" style="color:#000000;font-style:normal;font-variant:normal;font-weight:normal;font-stretch:normal;font-size:medium;line-height:normal;font-family:sans-serif;font-variant-ligatures:normal;font-variant-position:normal;font-variant-caps:normal;font-variant-numeric:normal;font-variant-alternates:normal;font-variant-east-asian:normal;font-feature-settings:normal;font-variation-settings:normal;text-indent:0;text-align:start;text-decoration:none;text-decoration-line:none;text-decoration-style:solid;text-decoration-color:#000000;letter-spacing:normal;word-spacing:normal;text-transform:none;writing-mode:lr-tb;direction:ltr;text-orientation:mixed;dominant-baseline:auto;baseline-shift:baseline;text-anchor:start;white-space:normal;shape-padding:0;shape-margin:0;inline-size:0;clip-rule:nonzero;display:inline;overflow:visible;visibility:visible;isolation:auto;mix-blend-mode:normal;color-interpolation:sRGB;color-interpolation-filters:linearRGB;solid-color:#000000;solid-opacity:1;vector-effect:none;fill:#ffffff;fill-opacity:1;fill-rule:nonzero;stroke:#000000;stroke-width:3.44196;stroke-linecap:butt;stroke-linejoin:miter;stroke-miterlimit:4;stroke-dasharray:none;stroke-dashoffset:91.011;stroke-opacity:1;color-rendering:auto;image-rendering:auto;shape-rendering:auto;text-rendering:auto;enable-background:accumulate;stop-color:#000000" d="m 0,0 v 1114.9766 c 0,96.5616 67.586497,130.416 128.08984,130.416 h 301.40821 c 129.16916,0 129.16797,119.9414 129.16797,119.9414 0,0 7.6e-4,-119.9414 129.16992,-119.9414 h 301.4082 c 60.50336,0 128.08986,-33.8544 128.08986,-130.416 V 0 Z" sodipodi:nodetypes="cssscssscc"/>
      <path id="path2695" style="color:#000000;font-style:normal;font-variant:normal;font-weight:normal;font-stretch:normal;font-size:medium;line-height:normal;font-family:sans-serif;font-variant-ligatures:normal;font-variant-position:normal;font-variant-caps:normal;font-variant-numeric:normal;font-variant-alternates:normal;font-variant-east-asian:normal;font-feature-settings:normal;font-variation-settings:normal;text-indent:0;text-align:start;text-decoration:none;text-decoration-line:none;text-decoration-style:solid;text-decoration-color:#000000;letter-spacing:normal;word-spacing:normal;text-transform:none;writing-mode:lr-tb;direction:ltr;text-orientation:mixed;dominant-baseline:auto;baseline-shift:baseline;text-anchor:start;white-space:normal;shape-padding:0;shape-margin:0;inline-size:0;clip-rule:nonzero;display:inline;overflow:visible;visibility:visible;isolation:auto;mix-blend-mode:normal;color-interpolation:sRGB;color-interpolation-filters:linearRGB;solid-color:#000000;solid-opacity:1;vector-effect:none;fill:#0563c7;fill-opacity:1;fill-rule:nonzero;stroke:none;stroke-width:2.51728;stroke-linecap:butt;stroke-linejoin:miter;stroke-miterlimit:4;stroke-dasharray:none;stroke-dashoffset:91.011;stroke-opacity:1;color-rendering:auto;image-rendering:auto;shape-rendering:auto;text-rendering:auto;enable-background:accumulate;stop-color:#000000" d="M 488.74219 459.52148 C 487.07635 459.61122 485.45792 460.8453 485.40625 462.75195 C 483.03129 467.24142 483.53727 472.47035 483.07812 477.38867 C 482.42191 487.47173 481.69389 498.41953 486.58008 507.60156 C 487.22072 508.97917 487.22531 510.4171 486.71289 511.6582 C 487.1397 513.28494 487.43505 514.9417 487.44922 516.6582 C 487.23417 523.44999 483.17226 530.19626 476.85547 532.94922 C 471.68008 535.04147 465.77589 534.12165 460.83008 531.82812 C 453.22398 528.74249 446.09099 524.21912 437.89648 522.79492 C 430.43219 521.89713 422.90326 522.42361 415.4082 522.31055 C 404.89678 522.33549 394.35569 522.67597 383.875 521.6875 C 382.49103 521.53731 380.94985 521.23293 379.7832 520.42969 C 379.65834 520.44885 379.53544 520.47183 379.4043 520.47852 C 377.66321 520.60603 377.98711 518.67262 376.95703 518.17383 C 375.13598 514.20551 374.94566 509.42333 375.56641 505.13477 C 376.89177 503.85966 376.01692 501.66684 377.25586 500.36719 C 378.30614 496.24005 376.63108 491.53217 373.89844 488.34961 C 373.35265 486.69 370.86339 487.52396 370.60156 485.95508 C 367.64922 484.97525 367.81473 489.76257 368.46875 491.52344 C 369.64092 493.64908 369.90605 496.0788 369.53125 498.51367 C 369.0067 500.32256 369.59967 503.71987 367.41992 504.49414 C 363.57244 507.9788 361.18971 513.51556 362.57031 518.72461 C 363.29759 522.06582 364.38956 525.30306 364.0625 528.8125 C 363.74068 533.91274 365.3919 540.05567 361.46289 544.14062 C 361.4626 544.14106 361.46318 544.14214 361.46289 544.14258 C 361.40549 544.22837 361.34111 544.31009 361.28125 544.39453 C 361.08014 545.59502 359.75195 545.60518 359.64844 546.79688 C 356.67235 549.32661 352.45363 548.19382 349.10156 547.26367 C 348.37989 546.29084 347.50969 545.70681 346.42969 545.26562 C 346.46013 544.88958 346.35502 544.63697 346.18359 544.44727 C 346.17769 544.44147 346.17192 544.43549 346.16602 544.42969 C 345.63632 543.87085 344.50272 543.87254 344.5 542.8457 C 342.91992 540.581 340.65849 538.6096 339.35156 536.04297 C 338.8155 534.1677 337.23624 533.28812 336.63867 531.34961 C 334.38437 528.93239 334.61317 525.39194 334.80859 522.27539 C 334.85695 519.01224 337.65149 516.85318 340.24805 515.51953 C 340.35901 514.20584 341.94857 513.98556 341.60742 512.45312 C 342.00959 509.46795 337.99096 511.71192 336.80469 509.9082 C 334.60035 504.43263 341.27503 499.89913 339.49023 494.38477 C 336.88089 491.23349 333.48735 496.24993 333.61133 498.97656 C 331.43365 503.91735 330.29243 509.32652 330.70312 514.7793 C 328.67054 515.25844 326.35844 514.41987 325.15234 512.66211 C 324.75423 510.50558 322.64482 509.32741 321.83008 507.40625 C 320.56378 505.37846 318.52183 502.27124 315.74219 502.72461 C 312.57674 503.3207 314.94606 507.09163 316.09375 508.53125 C 316.50354 509.55937 316.21468 509.99972 317.43555 510.55078 C 318.82562 513.80053 321.97809 516.6827 321.75 520.48438 C 321.62231 520.67808 321.51673 520.88476 321.39844 521.08398 C 321.84001 522.18864 322.24804 523.30765 322.57617 524.46094 C 324.25616 530.07145 326.32607 535.59016 329.23438 540.68945 C 333.18677 547.80349 336.99125 555.00102 340.64453 562.27344 C 340.9507 563.77018 338.88397 565.00598 337.71484 564.01758 C 327.18683 558.70743 317.93234 551.06082 310.31055 542.0957 C 309.40832 541.08285 308.39527 540.13527 307.41602 539.16211 C 307.31807 539.15699 307.22272 539.16322 307.12305 539.15234 C 305.8234 539.00015 305.75958 537.94708 305.50195 537.05469 C 305.22627 536.69999 304.97287 536.33041 304.73828 535.94727 C 304.6323 535.89285 304.51705 535.84639 304.37891 535.81641 C 302.01303 532.24177 300.38428 527.93794 299.26953 523.70898 C 296.94521 518.49095 301.46247 513.94087 303.26562 509.37891 C 304.08178 506.89235 305.93171 502.40713 302.625 500.99609 C 301.27376 500.19919 301.13439 501.63583 300.36914 502.21484 C 298.49299 502.4877 298.20975 504.41372 296.59766 504.97461 C 293.77972 506.30611 292.325 503.06697 291.14258 501.17578 C 289.89358 500.9355 289.83461 499.71543 289.22461 498.77734 C 287.60125 497.70766 287.37179 495.45834 285.67578 494.66211 C 284.11048 491.41422 280.6405 488.64787 278.22852 485.74023 C 276.59561 482.90466 273.95211 480.76776 272.26758 477.99414 C 271.07186 476.97463 268.64439 475.93331 268.2793 473.94141 C 264.82077 472.61686 263.92793 468.30434 261.14258 466.0918 C 258.69144 463.92532 255.83341 466.74458 255.75391 469.37891 C 255.23288 475.73897 261.4722 479.82141 265.14648 484.10352 C 267.34451 487.02417 270.33447 489.38204 272.25 492.51758 C 275.14885 494.83428 276.54418 498.26236 279.04297 500.88477 C 281.4124 503.92092 282.90107 507.59242 284.78711 510.9668 C 287.34496 517.87253 288.24291 525.38216 291.33203 532.11328 C 291.7249 534.24705 292.45705 536.25885 293.31445 538.22656 C 293.79156 539.27359 294.27982 540.31519 294.76367 541.35938 C 295.36294 542.59728 295.96507 543.83405 296.5293 545.08594 C 297.68786 547.44064 298.9134 549.76011 300.28516 552 C 304.8893 557.99401 311.30685 562.15265 316.98047 567.02734 C 322.67605 571.62998 328.36765 576.69971 331.51562 583.45703 C 335.89365 592.61432 336.03829 603.46479 332.7793 612.99414 C 328.82143 626.46674 324.10117 639.93239 316.31055 651.7207 C 308.59387 663.43755 298.09199 673.5566 285.37891 679.67773 C 272.83248 685.75853 258.26513 687.86698 244.5918 684.88086 C 233.13185 682.57599 222.54274 677.065 213.1875 670.17188 C 209.74039 667.73007 206.35229 665.20811 202.91406 662.75391 C 200.94098 661.88347 198.9024 663.17479 197.39648 664.38086 C 188.38605 670.53726 179.31009 676.95922 168.87109 680.46875 C 156.76048 684.47287 143.46471 685.51313 131.06641 682.19141 C 119.38959 679.10022 108.7943 673.01076 98.808594 666.36523 C 97.271647 665.51736 95.805539 663.85492 93.880859 664.31641 C 91.871584 664.94673 90.784467 666.91334 89.210938 668.17188 C 84.26377 672.94758 78.686176 677.18369 72.324219 679.88672 C 60.157804 685.3064 46.234628 686.13672 33.310547 683.24414 C 22.83732 680.93845 12.927395 676.20607 4.4726562 669.61914 C 3.3411139 669.23092 2.3415435 670.60309 2.65625 671.63867 C 2.9381868 694.83786 2.8026729 718.03802 2.8867188 741.23828 C 2.9416404 768.70385 2.9287858 796.17045 3.1933594 823.63477 C 3.8800307 839.00065 7.3730018 854.42415 14.742188 868.00781 C 24.015428 885.00198 39.968415 898.03354 58.185547 904.4082 C 71.634928 909.32149 86.066927 910.98329 100.32422 910.81055 C 168.29391 910.99499 236.26473 911.02314 304.23438 911.2168 C 310.6316 911.28847 317.03418 911.16638 323.42578 911.47852 C 338.42501 912.34539 353.44395 915.8199 366.75195 922.93359 C 382.2398 931.29892 394.58149 945.06264 401.79883 961.06641 C 405.4104 969.0058 407.84323 977.4302 409.66211 985.94531 C 410.95073 986.38368 410.80412 984.51503 410.87305 983.72656 C 413.99185 970.21289 419.04778 956.9434 427.28906 945.68945 C 438.66067 930.05874 455.9548 919.06089 474.72656 914.69531 C 487.26741 911.57654 500.27194 911.08258 513.13867 911.22461 C 583.62056 911.10379 654.10242 911.04164 724.58398 910.81836 C 740.87881 910.64496 757.34303 907.45511 771.94531 900.04492 C 784.54969 893.65014 795.48608 883.9173 803.01562 871.93164 C 808.3961 863.43942 811.96455 853.88966 814.19531 844.11523 C 816.30679 834.87865 817.07075 825.38406 817.07031 815.92383 C 817.29528 797.2224 817.19474 778.51871 817.25391 759.81641 C 817.29369 727.63789 817.33326 695.45978 817.37305 663.28125 C 818.19165 662.34825 816.27027 661.02212 815.71094 662.15625 C 806.58486 667.54909 797.24567 673.01054 786.82422 675.45117 C 775.42839 678.14239 763.10642 677.80943 752.21289 673.2832 C 744.54483 670.12213 737.83165 665.15919 731.09961 660.40625 C 729.0792 659.46948 726.95513 660.78749 725.41992 662.05078 C 716.80244 668.19791 707.8073 674.18568 697.58984 677.30078 C 676.09515 683.98431 651.71542 680.00411 633.22852 667.24609 C 630.22869 665.19721 627.24115 663.13283 624.21094 661.12891 C 622.08274 660.41391 620.11422 661.92453 618.50586 663.13086 C 610.79582 668.71773 602.77545 674.29126 593.51758 676.95117 C 579.7076 680.93133 564.98918 680.94589 550.91602 678.4082 C 541.54885 676.55236 532.53313 671.76257 526.63086 664.12891 C 522.20262 658.55264 519.80616 651.74957 517.5 645.10352 C 514.22049 636.03073 510.39124 627.08866 505.09961 618.98828 C 500.66415 611.63292 495.9122 604.1979 494.0332 595.69922 C 491.74529 585.50035 493.26502 574.73896 497.06641 565.09375 C 499.88156 557.62018 502.25964 549.80302 502.22656 541.74219 C 502.41004 536.83121 502.52297 531.91211 503.01562 527.01953 C 503.45529 525.79018 504.02091 524.6299 504.64062 523.49805 C 504.59455 521.49913 505.76906 519.24552 507.16406 517.94141 C 507.46551 516.14122 508.64725 514.7656 509.05859 513.06445 C 508.86324 509.39383 511.55822 506.84281 513.47266 504.11914 C 513.92587 502.53849 515.87428 502.88267 516.30859 501.54688 C 519.79453 497.37762 523.64357 493.51859 527.03516 489.29688 C 529.66785 486.78568 533.35271 483.66852 531.62305 479.59766 C 529.5492 478.56636 526.801 479.15794 524.60352 479.69336 C 523.78552 480.81657 521.72784 481.01414 521.52734 482.47461 C 519.21171 484.99638 517.29819 487.81041 514.95508 490.33984 C 512.89387 491.41572 512.65635 494.70296 510.32617 495.13672 C 509.38841 497.04415 507.42037 498.35688 505.81445 499.85352 C 502.99565 501.68373 498.46261 501.42085 496.02539 499.01562 C 492.89757 494.0829 492.39463 487.85245 492.29688 482.10156 C 491.80661 474.82973 493.28257 467.14883 490.90039 460.15234 C 490.26642 459.67703 489.49939 459.48069 488.74219 459.52148 z " transform="matrix(1.367334,0,0,1.367334,-1.9999995,-1.9999995)"/>
      <path id="path2756" style="color:#000000;font-style:normal;font-variant:normal;font-weight:normal;font-stretch:normal;font-size:medium;line-height:normal;font-family:sans-serif;font-variant-ligatures:normal;font-variant-position:normal;font-variant-caps:normal;font-variant-numeric:normal;font-variant-alternates:normal;font-variant-east-asian:normal;font-feature-settings:normal;font-variation-settings:normal;text-indent:0;text-align:start;text-decoration:none;text-decoration-line:none;text-decoration-style:solid;text-decoration-color:#000000;letter-spacing:normal;word-spacing:normal;text-transform:none;writing-mode:lr-tb;direction:ltr;text-orientation:mixed;dominant-baseline:auto;baseline-shift:baseline;text-anchor:start;white-space:normal;shape-padding:0;shape-margin:0;inline-size:0;clip-rule:nonzero;display:inline;overflow:visible;visibility:visible;isolation:auto;mix-blend-mode:normal;color-interpolation:sRGB;color-interpolation-filters:linearRGB;solid-color:#000000;solid-opacity:1;vector-effect:none;fill:#fddb00;fill-opacity:1;fill-rule:nonzero;stroke:none;stroke-width:3.44196;stroke-linecap:butt;stroke-linejoin:miter;stroke-miterlimit:4;stroke-dasharray:none;stroke-dashoffset:91.011;stroke-opacity:1;color-rendering:auto;image-rendering:auto;shape-rendering:auto;text-rendering:auto;enable-background:accumulate;stop-color:#000000" d="M 558.66602,844.38672 427.56641,1243.6719 h 1.93164 c 65.11725,0 98.1642,30.4679 114.53711,60.875 8.90824,16.544 12.78504,32.5855 14.63086,44.2246 1.846,-11.6391 5.72235,-27.6806 14.63086,-44.2246 16.37338,-30.4071 49.4218,-60.875 114.53906,-60.875 h 1.93164 z"/>
      <path style="fill:#00a13a;fill-opacity:1;stroke:none;stroke-width:2.38561;stroke-dashoffset:91.011" d="m 635.40692,45.410872 c -7.58507,0.22894 -10.6472,8.362168 -13.18453,14.197185 -4.49077,2.526858 -10.3365,1.549204 -14.97376,4.112695 -12.31802,4.3798 -17.9003,17.661979 -19.21069,29.747148 -0.66313,3.389162 -0.6193,7.22984 -1.89327,10.35784 -5.59967,0.77958 -11.79577,0.84907 -16.2613,-3.15907 -8.2432,-4.962623 -17.97868,-6.393293 -27.3196,-7.37738 -9.26457,-7.174313 -17.41086,-15.965662 -27.24661,-22.413256 -8.54794,-5.192079 -19.49232,-11.611652 -29.52971,-6.363184 -3.87736,1.595628 -6.32077,7.217515 -11.17168,5.324138 -11.22444,-1.095955 -23.81538,-1.162549 -32.95747,6.501413 -8.72352,6.013071 -14.69548,14.941633 -20.2047,23.719439 -2.81216,2.62853 -6.63746,-1.423493 -9.80804,-1.208335 -11.78483,-2.609741 -24.70295,-5.130661 -36.08238,0.410027 -4.99138,1.274408 -7.46675,7.080078 -12.84906,7.012388 -10.64277,0.43753 -22.53753,4.52023 -27.06489,15.04986 -4.97621,5.11739 -10.48464,11.46193 -10.26465,19.04917 1.20007,9.16978 10.95633,12.76431 17.54884,17.48206 5.73144,6.88438 11.42102,14.52575 20.23576,17.65756 7.75332,2.9061 17.00292,-0.31229 24.24285,4.00243 3.16611,3.25546 -0.58377,7.39042 -3.68558,8.8746 -4.99025,3.63769 -11.47387,6.78307 -17.54729,3.60792 -20.04451,-5.11516 -43.07823,-6.65817 -61.15921,5.18508 -3.4891,1.4137 -6.08567,5.29721 -9.73819,5.87789 -3.80506,-4.89044 -5.9753,-11.07774 -10.30379,-15.71571 -5.46841,-7.19989 -12.81826,-13.49247 -22.13338,-14.5828 -11.5732,-2.4162 -23.05494,4.34363 -30.61225,12.64871 -10.12549,11.04433 -16.80024,24.62388 -22.54682,38.2987 -2.30703,3.95441 -7.74066,1.98427 -11.18566,4.23073 -8.25733,2.16358 -15.496,8.565 -16.80179,17.27704 -1.81606,5.03815 1.60338,12.34172 -4.01931,15.54816 -21.16598,12.42281 -37.60846,35.24948 -37.76617,60.37051 0.37455,19.03797 11.89924,37.41317 29.25986,45.4801 6.22433,3.69554 13.36585,5.33533 19.04101,9.96829 7.21706,4.42218 15.21661,8.41714 23.94931,7.27332 6.74442,0.55029 13.21039,-1.37571 19.58344,-3.11403 5.01005,0.0209 8.4108,4.8889 11.75411,7.99397 0.63763,3.55472 -1.63442,7.2812 -1.02507,11.01017 -0.70769,8.0171 3.01219,15.9043 9.75057,20.32895 7.72224,4.60726 17.05084,6.15825 25.91941,6.81246 11.19479,0.78282 22.62281,-0.61218 33.69603,1.06192 1.42198,2.82718 -1.36504,6.3189 -2.34368,9.02991 -1.11234,2.56715 -3.79724,5.76536 -6.78873,3.72442 -7.99016,-1.4251 -16.7114,-1.29707 -23.51617,3.73474 -4.98773,2.70903 -11.14041,0.36894 -16.66027,0.36242 -8.18925,-1.44203 -14.33498,-8.28158 -22.60274,-9.83288 -4.72439,-1.0424 -10.2875,-1.57573 -14.18166,1.79076 -8.89948,2.02425 -18.8393,0.0737 -26.9981,4.99642 -5.80154,1.16145 -12.15881,0.88761 -17.12639,4.74017 -5.76338,4.01841 -9.4907,10.69609 -11.28195,17.30189 -3.32694,3.08555 -8.63982,3.11845 -11.61744,6.9192 -7.047,5.30349 -7.45111,14.67464 -10.69642,22.09021 -2.03787,3.26714 -6.3303,3.39007 -8.65561,6.48277 -2.81194,2.27546 -3.95344,5.79208 -5.73572,8.82336 -1.81639,10.33159 0.50744,21.32792 7.2376,29.5297 2.6325,2.5612 0.33242,5.58677 -2.00354,7.20033 -4.27131,4.76145 -5.37149,11.26647 -5.7761,17.36868 -2.75057,3.21557 -7.87654,3.36183 -10.69021,6.77165 -8.79765,6.78021 -10.11538,19.28233 -7.7812,29.41013 3.37326,10.42558 11.55242,19.02851 22.06381,22.34025 7.58481,3.43204 16.69104,2.15535 23.38118,7.65115 10.45354,6.67378 23.82028,7.92145 35.61145,4.46794 6.53563,-2.21042 12.45607,-5.90371 18.38598,-9.23958 7.34103,-1.80204 16.18244,-1.76529 21.01389,-8.67269 4.79055,-5.30078 5.95429,-12.56885 8.22384,-18.99326 1.89257,-1.78579 3.17701,2.1127 5.41421,1.36676 6.01803,0.76068 15.26759,0.8795 16.59367,8.44904 1.39485,6.43728 -3.83162,11.34518 -6.38266,16.68246 -2.4076,3.50121 -3.89399,8.75335 -9.19215,6.96709 -18.27684,0.97943 -37.36223,8.89005 -47.16398,25.0893 -6.69892,9.44711 -8.12913,21.16548 -10.01304,32.24614 -1.27456,3.43861 -6.32967,2.13971 -9.1231,3.2973 -12.41617,1.6384 -21.65586,10.89987 -29.5468,19.82418 -3.74009,2.59541 -8.96124,1.80874 -12.43748,5.14553 -4.31871,3.22133 -7.96063,7.87054 -9.94471,12.70462 0.57892,9.05207 -1.85782,19.20009 3.85177,27.12702 5.32994,9.95226 16.34256,16.34307 27.69235,15.48163 10.98049,0.0477 21.85812,-1.92843 32.72917,-3.21343 5.07384,-1.35906 10.71991,-5.13723 15.72857,-1.37298 6.41383,5.26245 10.42459,13.62729 18.45121,16.92139 9.63515,5.35132 20.96521,6.4591 31.18225,9.92451 5.97814,5.13114 13.20241,8.96387 20.68462,11.33166 6.49366,1.97183 13.75418,1.72189 20.44388,0.86664 4.406,-2.49017 9.69883,-3.55641 13.74056,-6.90367 4.77944,-3.81479 10.79167,0.18709 16.21781,-1.04215 8.67297,-0.40754 16.08721,-5.32391 22.6307,-10.57062 3.13423,-0.98961 6.37416,1.67767 9.71484,1.33259 9.05881,1.51831 18.53487,-5.87687 17.9239,-15.33568 0.63039,-3.78626 -0.72702,-7.51128 -1.01494,-11.13592 2.98415,-3.39808 8.48049,-3.0175 12.26819,-5.25424 3.95581,-2.0991 9.40101,-3.41021 11.73703,-7.45348 -2.56363,-7.80775 -7.63904,-14.68508 -9.14175,-22.84658 -4.22386,-9.20369 -5.4517,-19.47223 -8.94914,-28.91467 -2.57885,-4.6139 -4.6144,-9.63261 -7.8542,-13.78405 -3.41668,-3.5857 -5.32248,-8.27423 -9.28617,-11.44194 -2.61917,-4.28733 -6.70942,-7.51053 -9.71485,-11.50404 -5.02397,-5.85507 -13.55372,-11.43693 -12.8413,-20.13326 0.10871,-3.60201 4.01498,-7.45707 7.3665,-4.49477 3.8085,3.02528 5.03093,8.9226 9.75989,10.7337 0.49921,2.7236 3.81655,4.14602 5.4515,5.54003 2.30332,3.79247 5.91811,6.71518 8.15084,10.59236 3.29799,3.97571 8.0436,7.75735 10.18389,12.1983 2.31901,1.08871 2.63387,4.16594 4.85354,5.62855 0.83407,1.28268 0.91388,2.95012 2.62168,3.27867 1.61676,2.58588 3.60664,7.01428 7.4597,5.19367 2.20427,-0.76692 2.59108,-3.40103 5.1564,-3.77411 1.04635,-0.7917 1.23538,-2.75615 3.08297,-1.66651 4.52138,1.92936 1.99347,8.06217 0.87752,11.46212 -2.46551,6.23773 -8.6436,12.45953 -5.46547,19.59432 1.52424,5.7824 3.75105,11.66712 6.98599,16.55484 2.48683,0.53975 0.83137,4.22086 3.75392,4.5631 5.56831,0.6074 9.146,-5.45448 12.12375,-9.29239 3.7251,-4.87768 4.59706,-11.25922 7.87594,-16.23334 0.31188,-5.19816 -3.99965,-9.13866 -5.90035,-13.58215 -1.66933,-0.75348 -1.27393,-1.35724 -1.83425,-2.76302 -1.56927,-1.96844 -4.8097,-7.12301 -0.48147,-7.93806 3.8007,-0.61991 6.59489,3.6278 8.32634,6.40046 1.11403,2.62687 3.997,4.23766 4.54136,7.18635 1.64914,2.40345 4.81094,3.55018 7.59016,2.89503 -0.56156,-7.45577 0.99983,-14.8515 3.97745,-21.60721 -0.16952,-3.72822 4.46973,-10.58812 8.03758,-6.27928 2.44041,7.53998 -6.68567,13.73972 -3.6716,21.22666 1.62203,2.46629 7.11654,-0.60116 6.56664,3.48057 0.46647,2.09535 -1.70737,2.39566 -1.8591,4.19191 -3.55036,1.82354 -7.37183,4.7762 -7.43795,9.23802 -0.26721,4.26136 -0.57873,9.10284 2.50365,12.40798 0.81708,2.65059 2.97435,3.85187 3.70732,6.41599 1.78701,3.50944 4.87986,6.20511 7.04036,9.30172 0.005,1.88555 2.80713,1.22867 2.63877,3.30816 1.47673,0.60325 2.6662,1.40334 3.65297,2.73352 4.5834,1.27182 10.35153,2.82065 14.42083,-0.63834 0.1447,-1.6658 2.05276,-1.63132 2.26136,-3.38582 5.67582,-5.58264 3.32898,-14.13034 3.77537,-21.2047 0.4472,-4.79858 -1.04764,-9.22504 -2.04207,-13.79359 -1.88775,-7.12251 1.37108,-14.69295 6.63187,-19.45765 2.98044,-1.05869 2.16896,-5.7053 2.88619,-8.17865 0.51247,-3.32929 0.15166,-6.65166 -1.45109,-9.55812 -0.89426,-2.40769 -1.12161,-8.95321 2.91523,-7.61346 0.358,2.14518 3.76091,1.00631 4.50719,3.27555 3.73644,4.35162 6.02715,10.78743 4.59106,16.4306 -1.69404,1.77706 -0.49729,4.775 -2.30951,6.5185 -0.84877,5.8639 -0.58739,12.40394 1.90259,17.82995 1.40846,0.68201 0.96479,3.32411 3.34544,3.14976 4.42278,-0.22544 6.13609,-5.82575 9.86861,-7.69733 3.61002,-2.04296 7.34869,-4.41976 8.22384,-8.85906 5.15391,-11.66718 12.88784,-24.9793 26.56012,-27.40037 14.4134,-1.80701 25.74364,9.78224 34.57894,19.55704 5.33948,6.85135 10.46814,14.66976 19.19206,17.48828 5.03804,1.30326 9.48926,4.49161 14.86287,4.20587 10.11479,-0.27082 22.25137,2.11725 30.20879,-5.87789 3.41747,-1.77345 4.66143,-5.55567 3.04905,-9.02286 -6.68105,-12.55491 -5.68371,-27.52413 -4.78645,-41.31104 0.6278,-6.72499 -0.0653,-13.8758 3.18206,-20.0144 0.10276,-3.79205 4.73858,-5.63326 7.51251,-3.55356 3.25723,9.56654 1.23865,20.06794 1.909,30.01096 0.13367,7.86338 0.82195,16.38324 5.09873,23.12792 3.33249,3.28874 9.53064,3.64872 13.38489,1.14621 2.19583,-2.0464 4.88682,-3.84207 6.16905,-6.45016 3.18613,-0.59309 3.51066,-5.0878 6.32902,-6.55888 3.20382,-3.45858 5.82018,-7.30579 8.98642,-10.75389 0.27415,-1.99695 3.08741,-2.26781 4.20588,-3.80362 3.00469,-0.7321 6.76272,-1.53904 9.59836,-0.12891 2.36503,5.56623 -2.67333,9.82856 -6.2731,13.2622 -4.63743,5.7725 -9.89979,11.04665 -14.66623,16.74742 -0.59385,1.82648 -3.25848,1.35813 -3.87817,3.51941 -2.61768,3.72416 -6.30259,7.21039 -6.03548,12.22936 -0.56245,2.32604 -2.17845,4.2077 -2.59063,6.66915 -2.11446,1.9767 -3.87976,5.55348 -3.38582,8.477 4.50934,4.78051 11.83159,5.92812 16.33119,10.54732 -2.56324,8.49346 -4.96691,18.29754 -0.51995,26.7026 3.89577,7.30333 10.85592,13.15592 18.53318,16.05048 5.87979,2.31881 11.94848,4.49919 18.27789,5.53632 7.27771,2.19693 15.36449,1.27934 22.33652,4.17853 10.50477,7.94945 20.34772,17.94032 33.21064,21.90849 5.16286,1.05198 11.06935,0.31961 14.09933,-4.50874 2.52326,-2.14426 3.11666,-6.66445 5.63589,-8.0408 6.361,1.22319 13.00393,-1.55222 16.19029,-7.27465 1.5286,-1.78778 2.4009,-5.06515 4.30217,-6.09139 9.78794,7.99819 18.61885,20.72103 32.6717,20.43457 5.63753,0.51403 9.77267,-3.74189 14.44569,-5.88016 10.649,3.01021 22.55642,3.72734 32.67922,-1.61318 4.7721,-1.50887 7.86091,-5.64357 12.0184,-8.00226 5.43863,-0.62128 9.0953,5.11743 13.97984,6.64848 5.41239,2.90049 11.49881,4.43463 17.63571,4.33061 3.23465,-3.47118 6.7279,-6.77622 9.26445,-10.82222 13.32626,4.07398 28.71926,3.64749 40.82778,-3.70025 7.1916,-6.31811 18.0369,-9.73666 21.4885,-19.4492 3.5866,-11.83553 -5.6733,-22.24864 -13.3221,-30.06314 -5.8908,-6.17001 -12.8126,-11.39024 -18.99854,-17.12569 -1.60846,-6.56166 -2.56731,-14.19492 -8.88855,-18.12816 -9.597,-7.13922 -22.59413,-4.63056 -33.34886,-7.23294 2.47634,-7.79153 7.98846,-14.98816 6.89275,-23.64334 0.55584,-11.85571 -7.49711,-21.41777 -15.20359,-29.42409 2.53265,-2.66764 6.02344,-3.503 8.73484,-5.77144 1.78754,0.12313 2.54903,-1.00595 3.50383,-2.14643 8.5781,-3.86542 19.15153,-0.1389 27.20003,-5.99044 9.6525,-5.47538 11.72711,-18.32102 7.61813,-27.94395 -2.59197,-8.23621 -9.14039,-14.09798 -13.84156,-21.017 -1.21316,-4.4481 2.09497,-8.99026 2.84317,-13.36333 3.00731,-12.70381 12.12734,-24.44459 9.9888,-38.02827 -2.06912,-11.17789 -14.39884,-15.95894 -24.52703,-16.79092 -11.10781,-1.91658 -24.7139,0.79516 -33.3033,-8.27357 -7.87713,-6.1331 -7.85693,-17.47417 -5.20508,-26.20442 3.27608,-6.93188 8.42089,-15.06649 16.71948,-16.07181 10.52841,0.2745 20.11189,-8.07372 21.46167,-18.51652 0.92005,-3.09359 0.42973,-7.12408 2.18785,-9.73496 11.25945,-1.57597 23.51879,0.75125 33.69836,-5.54934 10.9469,-5.09399 20.5779,-16.46801 18.0489,-29.22996 -2.0026,-12.74966 -12.5586,-21.54114 -21.5792,-29.70211 -3.36468,-3.75396 -1.9838,-9.37772 -5.29536,-13.28014 -6.09158,-11.88625 -19.6079,-16.98257 -32.15065,-18.38978 0.70336,-6.82047 7.63714,-13.15166 4.29752,-20.41127 -2.05997,-5.36717 -6.61999,-9.34382 -8.02973,-15.0716 -3.78461,-9.53786 -13.91797,-14.49833 -23.66351,-15.2968 -1.69586,-0.12955 -5.16366,-1.141 -3.39203,-3.45573 3.62049,-4.97424 8.16659,-9.41103 10.99354,-15.04822 4.4855,-7.18782 7.41337,-18.15254 0.30862,-24.73992 -6.86874,-6.19734 -16.36204,-7.77088 -24.58039,-11.46364 -4.12862,-1.69598 -9.50277,-1.43842 -11.97259,2.85773 -6.40157,-4.96999 -12.6861,-10.52146 -15.40243,-18.42947 -6.10695,-12.4179 -13.92169,-27.24175 -28.74052,-30.33143 -14.69999,-2.77768 -27.14179,7.67033 -38.41538,15.44465 -5.26476,3.16079 -11.65132,4.13558 -16.43215,8.2782 -5.08305,3.50102 -9.48214,8.27411 -11.2074,14.26552 -3.97836,2.63481 -9.44075,-0.0375 -13.88428,0.052 -3.67728,0.01 -7.17103,-1.00002 -8.95085,-4.49952 -6.09162,-7.87132 -12.09195,-18.09708 -22.62662,-20.19139 -4.96628,-0.6471 -10.04429,0.52073 -14.08535,3.38583 -6.22484,0.39291 -11.72144,-4.08354 -17.15746,-6.59616 -3.9814,-2.84707 -9.63732,-5.06849 -11.55064,-9.79561 2.13252,-4.23265 8.12475,-4.19962 12.22936,-5.1098 7.00441,-1.08128 14.06003,0.0918 20.49824,2.89348 7.52942,2.08048 14.49776,6.61682 22.30609,7.94583 5.76211,-0.72207 7.67936,-7.67804 11.38341,-11.29163 4.05099,-4.34565 7.5563,-10.27265 13.16074,-12.56915 6.27404,-2.11952 10.11776,-9.01686 8.32635,-15.46453 -1.82442,-12.15329 -11.69924,-20.58856 -16.82043,-31.19157 -0.20021,-4.93427 -0.95891,-10.483966 -5.71397,-13.243559 -4.87341,-3.906617 -11.8198,-3.280711 -16.86547,-6.509178 -4.30502,-7.682173 -9.23411,-17.633703 -19.19205,-18.608082 -7.29361,-1.017543 -13.28057,4.027248 -19.67354,6.280869 -6.50916,-4.042398 -12.29345,-9.572759 -19.8041,-11.96443 -11.7823,-4.183759 -24.793,-3.868865 -36.97065,-1.670522 -8.23563,-6.484634 -16.43201,-16.466427 -27.6846,-17.048736 z" id="path2687" sodipodi:nodetypes="sccccccccccccccccccccccccccccccccccccccccccccccccccccccccccccccccccccccccccccccccccccccccccccccccccccccccccccccccccccccccccccccccccccccccccccccccccccccccccccccccccccccccccccccccccccccccccccccccccccccccccccccccccccccccccccccccccccccccccccccccccss"/>
      <g id="g2711" transform="translate(-0.30601848,3.7873207)" style="stroke:#fddb00;stroke-opacity:1">
        <ellipse style="opacity:1;fill:none;stroke:#fddb00;stroke-width:13.2878;stroke-miterlimit:4;stroke-dasharray:none;stroke-dashoffset:91.011;stroke-opacity:1" id="path2705" cx="694.17371" cy="21.225998" rx="195.51811" ry="77.406921" transform="rotate(34.651964)"/>
        <ellipse style="opacity:1;fill:none;stroke:#fddb00;stroke-width:13.2878;stroke-miterlimit:4;stroke-dasharray:none;stroke-dashoffset:91.011;stroke-opacity:1" id="ellipse2707" cx="-225.47218" cy="656.87897" rx="195.51811" ry="77.406921" transform="matrix(-0.82262103,0.56859005,0.56859005,0.82262103,0,0)"/>
      </g>
      <circle style="opacity:1;fill:#fddb00;fill-opacity:1;stroke:none;stroke-width:14.5611;stroke-miterlimit:4;stroke-dasharray:none;stroke-dashoffset:91.011;stroke-opacity:1" id="path2713" cx="558.66699" cy="415.94855" r="32.78759"/>
    </g>
  </g>
</svg>