<?xml version="1.0" encoding="UTF-8"?>
<!DOCTYPE svg PUBLIC "-//W3C//DTD SVG 1.1//EN" "http://www.w3.org/Graphics/SVG/1.1/DTD/svg11.dtd">
<!-- Creator: CorelDRAW X5 -->
<svg xmlns="http://www.w3.org/2000/svg" xml:space="preserve" width="197.5mm" height="247mm" style="shape-rendering:geometricPrecision; text-rendering:geometricPrecision; image-rendering:optimizeQuality; fill-rule:evenodd; clip-rule:evenodd" viewBox="0 0 19750 24700" xmlns:xlink="http://www.w3.org/1999/xlink" version="1.1" enable-background="new 0 0 1000 1000">
 <defs>
  <style type="text/css">
   <![CDATA[
    .str0 {stroke:#2A2A29;stroke-width:20}
    .str5 {stroke:#2A2A29;stroke-width:49}
    .str1 {stroke:#C5C8D7;stroke-width:75}
    .str4 {stroke:#FFDB01;stroke-width:75}
    .str3 {stroke:#F4A700;stroke-width:250}
    .str2 {stroke:#FFDB01;stroke-width:400}
    .fil1 {fill:none}
    .fil7 {fill:black}
    .fil2 {fill:#0057C1}
    .fil13 {fill:#00A651}
    .fil12 {fill:#297AA9}
    .fil9 {fill:#3D92C8}
    .fil16 {fill:#A54686}
    .fil3 {fill:#E1110D}
    .fil8 {fill:#E7E8E9}
    .fil14 {fill:#ED1C24}
    .fil4 {fill:#F4F9FF}
    .fil15 {fill:#FAA74A}
    .fil17 {fill:#FED09E}
    .fil11 {fill:#FFCB05}
    .fil10 {fill:white}
    .fil0 {fill:black;fill-rule:nonzero}
    .fil6 {fill:#DA251D;fill-rule:nonzero}
    .fil5 {fill:url(#id2)}
   ]]>
  </style>
    <mask id="id0">
  <linearGradient id="id1" gradientUnits="userSpaceOnUse" x1="10008.3" y1="10504.1" x2="8157.62" y2="9613.19">
   <stop offset="0" style="stop-opacity:1; stop-color:white"/>
   <stop offset="1" style="stop-opacity:0; stop-color:white"/>
  </linearGradient>
     <rect style="fill:url(#id1)" x="5490" y="2340" width="7186" height="15437"/>
    </mask>
  <radialGradient id="id2" gradientUnits="userSpaceOnUse" cx="9041.71" cy="4701.84" r="952.49" fx="9041.71" fy="4701.84">
   <stop offset="0" style="stop-color:#FFDB01"/>
   <stop offset="0.678431" style="stop-color:#F9C100"/>
   <stop offset="1" style="stop-color:#F4A700"/>
  </radialGradient>
 </defs>
 <g id="Слой_x0020_1">
  <metadata id="CorelCorpID_0Corel-Layer"/>
  <path class="fil0" d="M6334 14l7105 2 1406 -5 4835 0c1,2 1,4 1,6l12 21044c0,257 -51,495 -154,713 -102,217 -255,414 -460,590l-1 0c-205,179 -431,312 -678,400 -247,88 -516,132 -809,132l-4157 -1 -1468 0c-287,0 -552,44 -795,131 -243,87 -465,219 -665,394l0 0 0 0c-201,173 -351,363 -451,570 -101,207 -152,433 -154,677 0,13 -11,24 -25,24 -13,0 -24,-11 -24,-24 -2,-245 -53,-470 -152,-678 -99,-208 -248,-397 -444,-570l-1 -1c-200,-174 -422,-305 -667,-393 -245,-88 -512,-132 -801,-132l-1459 0 -4157 -1c-290,0 -560,-44 -808,-132 -249,-89 -476,-222 -684,-401l-1 -1c-204,-178 -357,-376 -458,-594 -102,-218 -152,-455 -150,-710l-62 -21019c0,-13 11,-24 24,-24l6301 1zm7105 50l-7105 -2 -6276 -1 62 20995 0 0 0 0c-2,248 47,478 145,689 99,212 248,405 446,578l0 0c203,175 425,305 668,392 243,87 507,130 792,130l4157 1 1459 0c295,0 567,45 817,134 250,89 477,223 682,402l2 1c201,177 353,372 456,586 63,133 108,272 133,419 25,-147 70,-287 134,-419 104,-214 258,-409 463,-586l0 0c205,-179 432,-313 681,-403 249,-89 519,-134 811,-134l1468 0 4157 1c287,0 550,-43 793,-129 242,-86 462,-217 663,-391l0 0c200,-172 348,-364 447,-574 100,-212 149,-443 149,-693l-12 -21020 -6193 24z"/>
  <path class="fil1 str0" d="M109 19293c449,-40 768,-261 1007,-593 163,177 309,329 468,428 219,136 467,191 683,182 216,-9 429,-90 638,-240 138,-99 244,-220 381,-377 28,29 52,55 76,80 136,144 262,268 399,353 221,137 470,192 688,183 217,-9 432,-91 643,-242 139,-100 246,-222 383,-374 166,185 313,338 473,438 220,137 469,192 686,182 217,-9 431,-91 642,-242 139,-100 246,-221 381,-377 164,180 322,350 481,450 219,136 467,191 683,182 216,-9 429,-90 638,-240 138,-99 250,-231 384,-389 163,177 326,346 485,445 219,136 467,191 683,182 216,-9 429,-90 638,-240 138,-99 244,-220 375,-375 160,180 289,347 448,446 219,136 467,191 683,182 216,-9 429,-90 638,-240 138,-99 270,-225 401,-381 160,179 309,341 469,440 219,136 467,191 683,182 216,-9 429,-90 638,-240 138,-99 269,-245 403,-397 163,183 337,357 496,456 219,136 467,191 683,182 216,-9 429,-90 638,-240 138,-99 250,-226 381,-383 236,334 614,580 1063,620"/>
  <path class="fil2" d="M9459 19085c-209,150 -423,231 -638,240 -216,9 -464,-45 -683,-182 -159,-99 -317,-269 -481,-450 -136,156 -242,277 -381,377 -210,151 -425,232 -642,242 -217,9 -466,-45 -686,-182 -160,-100 -307,-253 -473,-438 -137,153 -244,275 -383,374 -211,151 -426,233 -643,242 -217,9 -467,-46 -688,-183 -136,-85 -263,-209 -399,-353 -24,-25 -48,-51 -76,-80 -137,156 -244,278 -381,377 -209,150 -423,231 -638,240 -216,9 -464,-45 -683,-182 -159,-99 -305,-252 -468,-428 -238,331 -556,551 -1002,592l5 1763c0,254 44,472 145,689 209,448 649,804 1115,970 243,87 507,130 792,130l5617 1c295,0 567,45 817,134 477,171 922,536 1139,989 63,133 108,272 133,419 69,-400 278,-730 598,-1005 423,-369 925,-537 1492,-537l5625 1c554,0 1043,-160 1456,-521 390,-341 597,-751 597,-1267l-1 -1730c-447,-41 -824,-286 -1059,-620 -131,156 -243,284 -381,383 -209,150 -423,231 -638,240 -216,9 -464,-45 -683,-182 -159,-99 -333,-274 -496,-456 -133,153 -265,298 -403,397 -209,150 -423,231 -638,240 -216,9 -464,-45 -683,-182 -159,-99 -308,-261 -469,-440 -131,156 -263,282 -401,381 -209,150 -423,231 -638,240 -216,9 -464,-45 -683,-182 -159,-99 -288,-267 -448,-446 -131,155 -237,276 -375,375 -209,150 -423,231 -638,240 -216,9 -464,-45 -683,-182 -159,-99 -322,-268 -485,-445 -134,159 -246,290 -384,389z"/>
  <path class="fil3" d="M8821 19325c216,-9 429,-90 638,-240 138,-99 250,-231 384,-389 163,177 326,346 485,445 219,136 467,191 683,182 216,-9 429,-90 638,-240 138,-99 244,-220 375,-375 160,180 289,347 448,446 219,136 467,191 683,182 216,-9 429,-90 638,-240 138,-99 270,-225 401,-381 160,179 309,341 469,440 219,136 467,191 683,182 216,-9 429,-90 638,-240 138,-99 269,-245 403,-397 163,183 337,357 496,456 219,136 467,191 683,182 216,-9 429,-90 638,-240 138,-99 250,-226 381,-383 235,333 612,578 1059,620l-11 -19290 -6193 24 -7294 -2 -16 6896 -6052 12 36 12322c446,-41 764,-262 1002,-592 163,177 309,329 468,428 219,136 467,191 683,182 216,-9 429,-90 638,-240 138,-99 244,-220 381,-377 28,29 52,55 76,80 136,144 262,268 399,353 221,137 470,192 688,183 217,-9 432,-91 643,-242 139,-100 246,-222 383,-374 166,185 313,338 473,438 220,137 469,192 686,182 217,-9 431,-91 642,-242 139,-100 246,-221 381,-377 164,180 322,350 481,450 219,136 467,191 683,182z"/>
  <g id="_147501352">
   <polygon class="fil4 str1" points="2403,3591 4361,13989 8931,15600 9838,15920 9838,7559 "/>
   <path class="fil1 str2" d="M11228 10835c1505,-4171 1765,-7901 580,-8330 -1185,-429 -3365,2605 -4870,6777 -1505,4171 -1765,7901 -580,8330 620,224 1549,-506 2550,-2002"/>
   <path class="fil1 str3" style="mask:url(#id0)" d="M11228 10835c1505,-4171 1765,-7901 580,-8330 -1185,-429 -3365,2605 -4870,6777 -1505,4171 -1765,7901 -580,8330 620,224 1549,-506 2550,-2002"/>
   <path class="fil5 str4" d="M9994 4702c0,-511 -426,-926 -952,-926 -526,0 -952,415 -952,926 0,511 426,926 952,926 526,0 952,-415 952,-926z"/>
   <polygon class="fil4 str1" points="17272,3586 15314,13984 9837,15916 9837,7555 "/>
  </g>
  <g id="_147496864">
   <polygon class="fil6" points="56,54 6656,57 6638,7537 71,7550 "/>
   <path class="fil7" d="M3441 1367l-30 -29 -59 0 -29 30 -59 30 0 29 -29 0 0 0 -59 0 -29 30 -59 30 -29 59 0 0 -29 0 0 29 -89 -118 -89 -59 -118 -118 -30 -59 -30 -88 -30 -59 -30 -59 -59 -59 -30 -29 -29 0 -29 30 0 -177 0 -59 0 -29 59 29 29 0 0 -59 -30 -29 -59 -59 0 0 0 -59 0 -59 29 0 59 0 29 0 29 0 0 -88 -29 0 -29 0 -59 0 -29 0 0 -29 59 0 0 0 29 -88 -59 0 -30 -29 0 -29 0 -29 -29 0 -88 0 0 29 0 59 -59 0 -29 30 0 59 29 0 59 0 0 59 -29 0 -29 0 -59 0 -29 0 30 88 0 0 59 0 59 0 29 0 0 29 0 29 -59 0 -30 -29 0 88 30 29 59 29 0 29 0 59 0 177 -29 0 -59 59 0 88 59 147 59 88 30 206 -59 0 -59 0 0 -59 0 -29 0 -29 -30 -29 0 29 -29 0 0 29 -59 30 -118 0 -59 0 -29 0 -59 30 0 -29 0 -29 0 -59 -59 -29 -29 0 0 29 29 0 0 29 -59 30 -59 30 -59 59 -59 -118 -118 -59 0 0 -30 -59 -29 0 0 29 30 29 0 88 -89 -88 -59 0 -29 0 -29 30 0 29 0 0 0 0 29 0 29 -30 0 29 30 88 -118 0 -59 0 -29 30 59 0 0 29 29 0 30 29 0 29 30 29 59 59 -88 0 -59 30 -59 30 0 0 -29 30 29 0 29 0 30 29 118 29 59 0 -59 118 -29 118 0 118 0 29 -29 30 -29 147 0 0 0 29 0 0 0 0 0 0 0 29 0 0 0 0 0 0 -29 88 0 0 0 0 0 29 0 0 0 29 -29 30 -29 59 0 0 30 59 0 29 29 -30 29 -30 29 -30 30 59 -29 30 0 0 0 59 0 0 236 0 0 -29 0 -118 0 -29 0 0 29 0 30 59 0 88 0 0 0 29 29 0 29 -30 29 0 0 0 0 -29 0 -59 0 -29 59 88 89 59 29 -30 89 118 -88 206 -147 236 -29 30 -29 59 -29 88 -29 88 0 29 0 88 0 59 0 88 -89 -88 -118 -29 -88 -29 -89 -88 -59 -59 -59 -29 -88 0 -59 0 -59 0 -29 88 -29 59 -59 206 -29 59 -29 30 -88 177 0 177 0 118 -29 0 -29 59 0 59 0 118 0 29 30 29 30 29 0 0 235 -236 29 -30 0 0 -30 -59 -29 0 -30 -29 0 -59 59 -30 29 -59 29 -88 29 -88 0 -88 0 -29 59 -89 29 -30 29 -30 59 59 118 88 118 147 148 147 -29 30 -29 0 -177 0 0 0 -59 30 -59 30 -29 88 -88 206 -29 59 -29 0 -29 59 -88 89 -59 118 -29 88 0 29 30 29 0 29 0 88 -59 118 -29 30 0 118 0 0 -29 30 -177 59 -147 0 -88 30 -29 0 0 29 206 88 148 118 59 88 30 29 0 0 29 0 147 -30 118 29 59 59 30 29 0 29 29 -30 59 -30 59 -30 118 29 0 177 0 88 0 29 -59 30 -59 30 -89 -59 -118 -29 -148 -88 -206 -88 -177 0 -147 30 -29 0 0 29 59 29 30 29 -88 59 -29 88 0 29 29 0 118 -59 88 0 0 29 -29 59 0 59 0 0 29 -30 29 -30 59 0 30 29 148 147 0 -29 88 -30 88 0 59 29 29 0 30 29 118 59 89 59 59 29 59 29 59 29 59 -30 29 -59 29 0 29 -30 30 29 118 59 29 0 -29 30 30 59 -147 -29 -177 0 -177 0 -59 0 -29 0 -177 -29 -177 0 -88 0 -59 0 0 29 30 29 0 29 0 0 -88 30 -59 59 -59 30 0 29 -29 30 88 0 29 0 59 -30 88 0 -59 59 0 59 -29 30 29 -30 206 -30 88 0 59 29 0 0 30 59 29 0 30 29 0 -29 29 -88 59 -30 29 0 206 88 236 29 206 0 59 -30 29 0 147 29 30 29 0 0 29 0 59 29 29 -30 29 -59 0 0 0 0 29 -59 29 -59 59 29 118 0 147 0 206 0 29 -30 -59 59 0 88 0 29 0 29 29 0 29 -59 88 -30 -29 88 0 59 0 29 30 29 0 -29 88 -59 88 -59 118 0 59 -30 0 0 147 29 147 -30 88 -30 88 -30 88 -89 29 -59 -30 -29 -59 -29 -30 -29 -59 -59 0 -88 29 -59 88 -89 59 -59 207 176 206 59 177 29 59 0 29 0 59 88 0 29 0 29 -59 30 -59 0 -265 1 -88 0 -59 30 -29 30 0 29 0 29 29 0 0 0 -59 59 -29 30 -29 30 147 0 0 -29 0 59 29 0 59 -30 0 0 236 0 177 0 118 -30 88 -59 59 -59 29 -88 88 -59 0 -88 0 -29 -30 -59 -89 -59 -88 -29 -59 -59 -30 -59 0 0 29 -88 89 59 177 88 265 58 265 -1 206 -89 147 -118 88 -206 0 -236 29 -59 -30 -88 -30 -118 -118 -206 -89 -177 -59 -206 29 -88 59 -118 29 0 29 -30 59 0 29 0 59 88 -30 -29 -59 30 -29 59 -29 59 30 29 59 88 89 88 0 59 0 88 0 29 29 0 29 -30 88 -59 59 -89 29 -118 0 -206 -148 -206 -30 -29 -118 -29 -177 -29 -118 30 -88 59 -29 59 -88 118 -59 177 0 118 30 147 59 147 89 147 59 88 59 118 0 118 -59 118 -88 89 -147 0 -147 -59 -206 -59 -236 -117 0 -206 88 0 118 -30 0 -29 29 -118 29 -177 88 -206 147 -177 29 -88 0 0 -59 -59 -30 -29 -30 -29 -59 -59 -59 -118 -30 -147 0 -118 59 -118 88 -148 59 -147 29 -265 -30 -265 -59 -147 -89 -118 118 0 147 29 30 88 30 88 0 147 0 236 0 236 59 206 118 206 148 88 206 0 0 0 29 -30 0 -29 -30 -29 -30 -59 -59 -59 0 -118 59 -177 117 -295 58 -265 -1 -265 -59 -118 -59 -118 -89 -88 -147 -59 -147 -59 -147 0 -147 30 -147 59 -118 118 -118 118 -147 -29 -206 -29 -59 0 -88 30 -118 30 -88 30 -30 -29 -89 -59 -89 -59 -59 -88 -30 -88 -30 -118 -59 -88 -30 -59 0 0 0 0 -30 -29 0 -88 -30 -59 -30 -88 29 -59 29 -59 0 -29 29 -30 89 236 118 177 118 88 89 88 29 0 118 29 118 -59 29 -59 0 -29 29 0 29 0 88 29 59 0 29 -30 29 -59 59 -89 59 -59 59 0 118 0 88 -59 59 -59 0 -59 0 -88 29 -59 29 -30 29 -30 177 -118 88 -118 0 -118 -30 -59 -30 -59 -30 -29 -59 -29 -59 30 -88 -29 -88 0 -206 -29 0 0 29 -30 0 -59 -30 -29 -59 -29 0 0 0 0 0 0 -88 -29 -29 0 -295 -29 -295 -29 -236 0 -206 0 29 0 -29 0 0 0 -30 -29 -30 -29 -30 -59 118 59 59 29 88 0 88 -89 29 -88 29 -30 29 0 29 0 30 59 29 0 88 29 59 -30 29 -88 29 -88 29 -30 0 -29 -29 0 -59 30 -29 59 -29 30 -29 0 -59 -29 -59 -88 -59 0 -59 30 -59 59 -29 59 -59 30 -29 0 0 -59 0 -88 0 -118 0 -118 -89 -177 -118 -88 -59 -59 -88 0 -88 -29 -118 -29 -88 30 0 29 30 29 59 88 30 29 30 29 0 0 -59 30 -59 89 -59 89 -29 147 0 29 59 118 0 0 30 177 0 0 30 29 29 0 0 0 0 29 0 0 0 0 0 0 0 0 30 29 30 29 59 0 -59 30 0 29 0 0 0 0zm-204 1209l-177 118 -88 89 29 -59 0 -59 0 0 -29 0 0 0 0 -118 295 -30 -29 59 0 0 0 0zm58 -472l-59 89 -59 0 -88 30 -29 0 0 -29 29 0 59 0 -59 -29 -59 -59 -30 -59 0 29 0 -29 29 -30 59 0 0 -29 -29 0 -29 0 -59 0 0 -29 0 0 0 0 -30 -29 -30 -29 88 0 118 -59 118 0 29 0 0 88 30 177 0 0 0 0zm-378 2388l-29 59 -147 148 29 0 0 29 59 29 118 0 88 -89 88 -30 88 -59 59 0 59 -30 29 -30 295 -30 236 -59 59 118 89 118 148 177 89 147 30 59 30 88 -29 88 -29 88 0 29 0 0 -29 59 -88 177 -176 236 -235 207 0 29 -206 59 -147 59 -118 89 -88 59 147 -148 59 -59 29 -59 0 0 -59 -29 -59 0 -30 -29 -59 -29 -59 30 59 -118 118 -148 118 -59 88 -30 29 0 29 -30 -30 -29 0 0 29 -59 88 -59 118 -30 118 -30 0 0 0 -29 0 -29 29 -118 59 -89 59 -30 29 -30 0 0 0 0 -30 -29 0 0 -118 30 -177 30 -236 -29 -206 0 -177 -29 -147 0 -118 0 -147 0 -1 -265 -30 -295 59 -59 29 0 0 -29 0 59 0 29 0 0 29 0 88 0 0 0 0 0zm-4 -2210l0 0 59 0 -59 0 0 0 0 0zm-237 -677l-59 0 0 0 0 -59 0 0 -30 -29 -29 0 -29 30 -1 -265 0 0 30 118 118 206 0 0 0 0zm-83 2859l30 324 1 295 -88 30 -118 89 -59 89 30 88 89 88 89 118 30 147 -29 0 -29 0 0 0 0 29 0 59 -59 118 -59 118 -89 -118 -118 -147 -177 -147 -177 -88 0 -29 -30 -118 -30 -88 0 0 29 -88 0 -59 0 -59 0 0 0 0 -59 -29 -88 0 -147 30 -118 59 -59 59 -206 148 -177 89 -29 0 29 -88 0 -59 59 0 59 -59 59 -147 29 -177 59 -118 59 -89 29 -30 59 -30 59 -89 88 0 118 29 295 -1 147 0 147 -30 118 -30 88 -30 0 -88 0 0 0 -29 0 -59 0 -29 29 0 0 29 118 118 0 0 0 0zm-622 -1679l-177 -118 -118 -59 29 -30 0 0 0 0 0 -29 59 -59 29 -30 88 -30 88 -89 30 88 0 147 -29 206 0 0 0 0zm2128 3208l59 -59 118 -59 118 -30 29 -59 -30 -29 0 -29 29 -118 59 -177 147 -236 29 -30 29 -88 0 0 -59 -88 -30 -88 0 -88 0 -59 147 59 118 88 89 59 30 59 30 59 30 88 -29 30 0 29 -29 59 -29 88 -59 118 -147 266 -206 236 0 29 -206 -29 -236 0 0 0 0 0z"/>
   <path class="fil8" d="M3292 984l-30 -59 0 -59 29 -118 59 -118 59 -59 29 -30 29 -30 0 0 0 -59 -59 -29 -59 -59 -30 -29 59 -30 88 29 88 0 89 59 88 29 89 88 89 147 0 118 0 118 0 29 -29 30 0 59 30 59 88 0 59 -30 29 -59 29 -59 59 -30 30 29 88 29 59 59 29 0 29 0 29 -59 29 -59 -29 118 -29 59 -59 30 -30 -29 -29 0 -59 -59 -30 -29 -29 30 -59 59 -29 59 -88 89 -59 0 -59 -29 -89 -59 -59 -29 0 29 0 29 -30 -29 -30 -29 -30 -29 -30 -59 -30 -59 -59 0 -88 0 0 0 0 0 -59 30 -88 0 0 0 0 0zm205 -472l88 29 59 59 30 118 30 177 59 177 0 -177 -30 -147 -30 -88 -30 -59 -59 -59 -118 -29 0 0 0 0z"/>
   <path class="fil9" d="M4944 1541l29 0 118 0 147 29 177 29 -29 30 -59 59 -29 59 0 29 -59 0 -59 30 -88 30 -29 0 -30 -29 -59 -29 -30 -29 -30 -29 0 -88 29 -88 0 0 0 0zm-1503 -144l29 0 30 29 265 -1 88 -89 0 0 206 -30 236 0 295 29 354 58 -59 0 0 0 -294 295 0 0 -29 0 -29 0 -59 -29 -59 -29 -89 -59 -147 -29 -206 -29 -88 -29 -118 -29 -118 0 -118 0 -29 0 -59 0 -30 -29 0 0 0 0 -29 0 -29 30 -30 -29 -29 0 0 0 29 -30 59 -30 29 0 0 0 0 29 29 0 0 0 0 0zm1562 -3l59 29 0 29 -29 30 -29 30 0 0 0 0 0 0 -29 0 0 0 0 0 0 0 0 0 0 0 -29 0 0 0 0 0 0 0 0 0 0 0 0 0 0 0 0 0 0 0 0 0 -29 0 0 0 0 0 0 0 0 0 0 0 0 0 0 0 0 0 0 0 0 0 0 0 -29 59 0 59 0 59 -29 30 0 29 207 117 236 -59 147 -207 118 0 0 29 30 29 30 59 -29 88 -59 147 -177 89 -29 30 -29 30 -29 88 0 88 0 59 -29 59 -88 30 -118 0 -59 0 -88 59 -59 89 -29 59 -29 30 -29 0 -59 -29 -59 0 -29 30 -29 0 0 0 0 0 -29 59 -29 30 -59 30 -88 -29 -29 0 -118 -88 -118 -88 -89 -177 -89 -265 59 -118 29 -118 29 -177 0 -118 -30 -29 0 0 177 29 147 29 88 29 59 29 30 29 88 0 29 0 59 -59 88 -89 88 -118 59 -30 88 -30 0 0 0 0z"/>
   <path class="fil10" d="M2470 2165l0 88 -59 30 -29 30 -29 30 0 88 59 118 89 59 1 265 -265 1 -236 -88 29 -206 0 -177 -30 -88 0 0 59 -89 29 -88 0 -118 29 0 29 0 89 59 118 29 118 59 0 0 0 0zm61 855l1 501 0 29 -118 89 -118 30 -265 30 -265 1 -88 -29 -59 0 0 -29 29 -88 29 -88 29 -30 29 -30 147 -236 88 -236 59 0 29 -30 89 88 59 29 59 -30 29 -30 59 88 30 29 88 -30 59 -30 0 0 0 0zm412 -443l0 88 -29 0 0 0 -147 118 -147 59 0 0 0 -59 -30 -177 88 0 59 -30 59 0 147 0 0 0 0 0zm-384 -294l0 -59 29 0 0 29 0 29 -29 0 0 0 0 0zm147 0l59 29 59 29 0 0 -59 0 -59 0 0 -59 0 0 0 0zm178 619l0 88 -118 118 -59 59 -29 88 -29 59 30 118 -29 206 0 -236 -30 -206 0 -118 0 -59 59 0 88 -30 29 -88 59 29 29 -30 0 0 0 0zm1504 321l29 0 88 29 88 29 89 147 89 206 -177 0 0 -177 -59 -118 -89 -88 -59 -29 0 0 0 0zm118 -30l29 0 0 0 0 0 29 0 59 29 88 29 89 88 89 118 30 147 -118 30 -30 -88 -89 -206 -89 -88 -89 -59 0 0 0 0zm118 -30l29 0 59 0 148 118 118 118 59 88 30 88 -88 30 -59 -177 -89 -118 -118 -88 -89 -59 0 0 0 0zm147 29l59 0 0 0 59 29 118 59 148 88 59 177 -88 30 -59 -88 -59 -118 -89 -88 -148 -88 0 0 0 0zm324 88l118 118 59 118 -29 0 -59 -147 -89 -88 0 0 0 0zm-530 325l-118 0 -59 -177 -89 -147 0 -29 59 -30 30 29 89 59 59 118 30 177 0 0 0 0 0 0zm-147 0l-88 -29 -59 0 29 -206 0 -29 89 118 30 147 0 0 0 0zm884 -2l-59 30 0 -88 29 0 30 59 0 0 0 0zm-88 59l-88 59 0 0 0 -118 88 -30 0 0 0 88 0 0 0 0zm-118 59l-118 30 0 -118 118 -30 0 118 0 0 0 0 0 0zm-147 59l-118 0 -30 -118 118 -30 30 147 0 0 0 0 0 0zm-147 0l-206 0 0 0 0 -118 177 0 30 118 0 0 0 0zm-236 0l-88 -29 0 -118 88 29 0 118 0 0 0 0 0 0zm-118 -29l-206 -59 29 -88 59 0 88 29 30 118 0 0 0 0zm855 -90l30 147 -59 -59 -30 -29 0 0 0 -29 59 -30 0 0 0 0zm30 206l-58 236 -29 147 -88 118 -59 147 0 118 59 206 89 147 30 29 0 0 29 0 0 29 29 0 30 29 0 29 -29 30 -176 236 -59 206 -59 177 0 59 0 29 0 0 -88 30 -118 0 -29 0 0 206 -118 -29 -88 -29 0 0 176 -236 147 -266 88 -236 29 -59 0 -29 29 -30 0 -29 0 -88 -118 -118 -207 -147 -236 -117 -118 -147 -89 -118 0 -29 0 -29 -30 -59 0 -29 -59 -29 -88 0 -118 89 -118 59 -147 59 -383 30 -30 -88 -30 -88 324 -60 324 -148 176 -177 118 -177 206 59 0 59 -59 30 0 29 0 59 30 88 59 29 59 29 29 0 29 0 29 -30 59 -89 0 -59 -59 -59 -30 -59 206 0 0 59 -29 88 0 29 0 29 0 0 0 0 30 29 59 29 59 0 59 -59 59 -89 0 0 -30 -59 -30 -29 0 -29 118 -59 0 29 0 59 0 29 0 29 30 29 30 88 59 0 59 -59 59 -89 0 0 0 0zm-207 -117l88 -30 30 29 0 29 30 29 30 29 0 0 -59 118 -29 30 -29 0 -30 -59 -30 -59 0 0 0 0 0 -88 0 -29 0 0 0 0zm-295 60l118 0 0 29 0 29 0 0 29 0 30 59 0 0 -29 88 -88 30 -59 -29 -30 -29 0 -29 0 -59 29 -59 0 -29 0 0 0 0zm-354 1l88 0 0 29 30 59 59 88 0 0 -59 59 -29 0 0 29 -29 0 -88 -29 -30 -88 0 -59 29 -30 29 0 0 -59 0 0 0 0zm-1531 651l-59 0 -59 0 0 -59 29 -59 0 -59 29 -30 -30 -29 -117 207 -29 30 0 -59 0 -147 -30 -177 0 -206 59 147 30 88 89 88 118 59 88 0 0 118 -29 30 -88 59 0 0 0 0zm-354 -58l-89 -59 -30 -29 -30 -29 0 0 -29 59 0 88 0 0 0 0 0 59 -59 30 -118 30 -265 30 -295 -29 -118 0 -118 0 -29 0 0 0 -59 89 -29 30 -29 0 0 0 0 0 -29 30 -59 89 -59 118 -29 206 -29 88 -29 59 -29 30 -59 0 -29 0 -30 -29 0 29 30 88 -29 59 0 59 -29 0 30 29 29 -30 0 0 30 29 0 0 0 29 0 88 -59 59 -59 59 -88 89 -29 0 -30 -29 0 0 0 -206 29 -30 88 -30 0 -29 -88 0 29 -59 0 -29 59 -147 0 -88 0 -29 0 0 0 -29 -29 0 0 -29 29 -59 29 -88 147 -177 29 -30 29 -59 88 -177 29 -88 59 -30 29 0 0 0 29 0 59 0 59 0 29 0 29 0 0 -29 0 0 29 0 118 -89 29 -30 29 0 88 -30 29 0 88 0 118 -30 118 29 0 0 0 -29 -30 -29 -88 0 -88 0 -29 0 0 0 -118 0 -59 0 -29 0 29 -30 0 0 -30 -29 0 0 118 -30 88 -89 147 -177 0 0 59 59 59 59 59 0 59 -30 59 -59 29 -59 0 29 0 0 0 0 88 29 59 0 59 -59 31 619 0 0 0 0z"/>
   <polygon class="fil7" points="1321,2462 1439,2550 1498,2580 1557,2579 1527,2609 1498,2580 1439,2550 1321,2462 1321,2462 "/>
   <polygon class="fil7" points="1850,1960 1880,1960 1850,1930 1850,1930 1880,1960 1909,2019 1880,2137 1821,2255 1792,2284 1704,2461 1675,2550 1675,2579 1675,2579 1645,2550 1616,2520 1674,2285 1762,2107 1821,1989 1850,1960 1850,1960 "/>
   <polygon class="fil11" points="2436,190 2436,220 2436,249 2466,249 2525,279 2525,308 2466,308 2436,308 2437,397 2466,397 2495,397 2554,396 2584,396 2584,426 2554,426 2496,426 2466,426 2437,426 2466,603 2496,632 2525,662 2526,691 2467,662 2437,662 2437,662 2437,721 2467,839 2467,957 2467,986 2467,1016 2438,1016 2438,986 2408,927 2408,809 2408,692 2408,662 2408,633 2349,603 2319,574 2319,544 2348,574 2407,603 2407,456 2378,456 2319,456 2260,456 2230,456 2230,427 2260,427 2319,426 2348,426 2378,426 2377,338 2348,338 2289,338 2289,279 2318,279 2377,279 2377,249 2377,191 2407,190 2436,190 2436,190 "/>
   <polygon class="fil8" points="1909,1754 1938,1724 1938,1636 1967,1665 1997,1724 2027,1812 2027,1842 1938,1842 1938,1812 1938,1812 1909,1754 1909,1754 1909,1754 "/>
   <polygon class="fil10" points="5504,2896 5651,2895 5798,2954 5916,3013 6005,3101 6064,3219 6123,3307 6124,3572 6036,3838 5948,4103 5889,4192 5890,4310 5890,4428 5949,4516 5978,4545 6008,4575 6008,4604 5979,4604 5802,4575 5684,4516 5565,4340 5506,4104 5506,3868 5505,3662 5505,3515 5475,3397 5416,3309 5328,3279 5239,3279 5180,3280 5121,3280 5062,3250 5003,3221 5121,3103 5239,2985 5356,2926 5504,2896 5504,2896 "/>
   <polygon class="fil12" points="3912,1396 3942,1396 4001,1396 4118,1395 4236,1425 4472,1424 4590,1453 4679,1483 4561,1601 4502,1572 4354,1513 4178,1454 3912,1396 3912,1396 "/>
   <polygon class="fil12" points="4205,1955 5119,2366 5060,2366 4972,2366 4854,2396 4796,2514 4766,2573 4766,2603 4766,2573 4766,2544 4737,2485 4648,2426 4471,2220 4294,2043 4234,1985 4205,1955 4205,1955 "/>
   <polygon class="fil12" points="3999,2191 4530,2603 4501,2633 4472,2662 4413,2692 4383,2751 4383,2721 4324,2662 4265,2574 4206,2486 4058,2280 4029,2221 3999,2191 3999,2191 "/>
   <polygon class="fil10" points="3410,1014 3410,1014 3410,1043 3410,1014 "/>
   <path class="fil10" d="M1203 2698l0 0 29 -30 0 -29 29 0 0 -59 236 88 0 29 0 118 -29 0 -59 0 -59 0 -29 0 0 -29 0 0 29 -30 0 0 0 0 -30 -59 -30 -29 -59 30 -29 30 0 -29 0 0 0 0zm411 -679l-29 30 0 0 -59 0 -59 30 -29 0 -29 0 30 29 0 0 0 0 30 59 30 29 0 88 147 -266 0 0 0 0 -29 0 0 0 0 0 0 0zm-59 59l0 0 0 59 -29 30 0 -29 -29 0 0 0 -30 -29 0 0 59 -30 29 0 0 0 0 0zm-294 472l29 -59 148 88 -177 -29 0 0 0 0zm29 -147l59 -206 0 0 0 -118 29 -118 29 -59 29 -30 59 -30 0 0 0 0 29 0 59 -59 59 0 59 29 0 29 29 0 0 0 30 29 59 59 -29 88 -88 118 -59 177 -88 236 0 0 29 0 -295 -147 0 0 0 0zm559 -443l29 0 30 59 -29 118 -59 118 -29 30 -88 177 -29 88 0 29 0 0 -30 -29 -30 -29 58 -236 88 -148 59 -118 29 -59 0 0 0 0zm88 0l59 29 29 0 0 29 0 0 30 88 -29 59 -29 59 -118 148 -59 59 -29 0 -59 30 88 -148 29 -59 59 -147 29 -88 0 -59 0 0 0 0zm-293 708l0 29 0 59 0 29 0 0 -29 30 0 -59 0 -59 29 -30 0 0 0 0zm-59 0l0 0 -30 -29 0 -29 0 0 29 0 0 59 0 0 0 0zm-266 -206l118 88 59 29 59 0 -29 30 -30 -29 -59 -29 -118 -88 0 0 0 0z"/>
   <polygon class="fil13" points="1356,5262 1415,5203 1532,5144 1680,5114 1739,5114 1797,5114 1798,5173 1798,5232 1768,5291 1768,5291 1739,5291 1739,5320 1798,5408 1828,5526 1828,5556 1769,5526 1592,5586 1445,5763 1357,6058 1239,6028 1151,6058 1504,5527 1063,6088 974,5999 886,5970 768,5970 1533,5379 709,6000 650,5941 591,5853 473,5765 325,5706 472,5676 679,5646 679,5823 679,5853 709,5882 797,5882 885,5793 973,5675 1032,5557 1003,5528 1002,5498 1179,5410 1356,5262 1356,5262 "/>
   <polygon class="fil14" points="2977,5642 3007,5671 3007,5789 2978,5937 2919,6113 2802,6173 2654,6232 2566,6262 2478,6291 2419,6350 2448,6321 2507,6232 2595,6055 2624,5878 2595,5790 2624,5849 2683,5937 2684,6055 2625,6144 2625,6144 2684,6143 2801,6084 2860,5996 2948,5907 2978,5789 2977,5642 2977,5642 "/>
   <path class="fil15" d="M827 6294l177 59 89 88 88 29 88 0 59 -59 89 177 148 147 -29 30 -29 30 0 0 -29 0 -29 30 -59 0 -59 -29 0 0 -266 -176 -29 0 -88 -29 -88 -29 -88 59 -30 -29 -30 -29 -30 -59 -29 0 -59 -29 -59 0 0 -59 29 -30 -29 0 -30 -29 -29 0 -59 30 -88 30 29 -59 59 -30 29 0 0 -29 -30 -29 -59 -29 88 -30 118 0 118 29 147 59 0 0 0 0zm1298 381l29 0 -29 0 -30 -118 -30 -88 0 -29 88 -148 177 -148 118 -89 59 -89 59 -89 0 -88 0 59 30 29 -29 177 -88 148 -88 89 0 59 0 29 30 29 29 0 0 0 0 -29 29 -30 59 -59 118 -30 147 -59 118 -59 59 -59 59 -30 29 0 59 -30 88 0 29 0 30 29 0 29 29 0 59 -30 29 0 0 0 0 29 -29 30 -59 30 -118 89 -59 118 -59 59 0 29 0 29 0 0 0 29 -29 88 -29 59 -59 59 0 29 -59 30 30 29 30 29 -147 30 -59 0 -59 0 0 0 0 0 0 0 59 -30 59 -59 88 -148 59 -89 0 -29 0 0 0 0 -29 0 -59 118 -118 118 -59 30 -59 30 0 0 -236 0 -177 0 -118 0 -30 -29 29 -59 29 -30 0 0 0 0zm324 -119l0 0 -59 30 -29 0 0 0 59 29 29 0 88 0 118 -30 118 -118 29 -59 29 -30 0 -29 0 0 -59 0 -118 30 -118 59 -88 118 0 0 0 0zm30 29l0 -29 59 -59 59 -59 177 -30 -29 59 -59 59 -88 30 -118 30 0 0 0 0 0 0zm1268 233l0 88 0 59 59 59 30 29 59 29 29 0 0 0 -29 30 -29 30 -59 59 -147 59 -147 30 -147 -29 0 0 -59 0 -88 30 -118 30 -88 59 0 -29 29 -59 59 -59 0 -29 -29 0 -59 30 -118 59 29 -88 88 -59 236 -59 206 -89 177 -89 118 -89 0 0 0 0zm1974 -534l59 -147 0 -118 -59 -118 -59 -118 -89 -118 -59 -177 -30 -118 0 -118 59 -177 59 -89 59 -59 88 -59 88 0 147 0 118 29 30 29 118 147 30 177 0 29 -59 177 -88 89 0 -29 -59 -118 -59 -88 -59 -59 -30 -29 29 -59 29 -30 29 -30 30 29 0 0 59 0 0 -29 -30 -29 -30 -59 -30 -29 -59 0 -59 0 -59 30 -29 0 -59 89 -29 88 0 147 59 147 89 177 118 206 30 118 0 118 -29 236 -59 177 -147 118 -177 89 -147 0 -147 0 -236 -58 -177 -88 -89 -59 0 -59 -30 -177 -59 -118 -59 -59 -59 -59 29 0 236 88 236 117 177 88 177 29 147 0 118 -89 0 0 0 0zm-3889 686l-30 -59 0 -29 0 -29 0 0 -29 0 -30 -29 -118 -59 -177 -176 -89 -236 29 -265 88 -324 147 -148 147 -30 118 0 89 59 207 147 118 177 59 59 30 29 -88 59 -177 148 -88 148 0 59 30 88 30 118 -29 59 -59 30 0 0 30 29 88 29 88 29 118 0 118 0 177 -30 29 0 88 -59 -59 59 -29 0 0 0 0 29 0 0 30 29 59 0 118 0 177 -30 0 -29 -59 -29 -30 -29 0 0 0 0 29 -30 59 -59 59 -89 0 -88 0 -29 29 -59 29 -30 88 -59 118 -89 177 -89 206 -59 236 -59 265 -1 324 58 30 29 59 59 89 88 30 206 -29 177 0 0 0 0 59 88 89 59 118 59 30 88 0 59 -59 89 -59 59 -59 59 -59 59 -118 30 -177 0 -118 0 59 -30 29 -30 -59 0 -59 30 -88 30 -59 0 0 -29 59 -30 0 -29 0 -29 -29 30 -29 30 -29 30 -29 30 -29 0 59 -59 59 -59 29 -30 0 0 -29 0 -59 0 29 -30 88 0 265 -1 29 0 29 0 59 0 29 -30 0 -88 -59 -118 0 0 -29 0 0 0 -59 0 -177 -29 -236 -58 -89 -88 -89 -88 -30 -29 0 29 -29 30 -29 30 -88 89 -118 59 -147 89 -177 89 -236 89 -236 30 -206 30 -147 0 -118 0 -59 -29 0 -29 0 -88 0 -29 -29 0 0 29 -29 59 30 29 -29 88 -29 59 0 0 -29 0 30 29 0 0 -29 30 0 29 -59 -29 -59 -29 -147 -29 -29 0 -59 0 -177 0 -236 0 -236 -88 0 0 -59 0 -59 59 0 29 -29 30 0 0 -30 -29 -30 -29 -30 -29 -118 0 -177 30 29 -30 59 -30 29 -30 0 0 -29 0 -30 -29 -59 0 -88 0 -59 30 -29 0 88 -59 88 -59 29 0 0 0 0 -29 0 -59 59 0 118 0 118 0 147 59 0 0 0 0 147 -30 177 0 177 29 88 0 30 29 29 -30 0 0 0 0z"/>
   <polygon class="fil10" points="4535,4725 4505,4813 4535,4931 4565,4961 4565,4990 4565,4990 4565,4990 4594,5079 4594,5079 4594,5138 4565,5167 4448,5374 4359,5521 4330,5639 4330,5727 4330,5757 4330,5786 4330,5816 4242,5846 4154,5875 4095,5905 4007,5993 3889,5994 3771,6023 4006,5787 4153,5580 4241,5403 4271,5374 4271,5344 4271,5315 4300,5285 4329,5138 4299,5020 4270,4961 4181,4814 4033,4638 3945,4520 3886,4402 4003,4343 4062,4284 4121,4254 4180,4254 4210,4313 4239,4372 4239,4372 4239,4372 4239,4401 4298,4490 4387,4607 4535,4725 4535,4725 "/>
   <polygon class="fil10" points="647,4526 647,4468 647,4350 676,4202 734,4025 764,3996 793,3937 852,3760 881,3671 910,3612 940,3612 999,3612 1087,3612 1117,3641 1176,3700 1294,3788 1382,3818 1471,3876 1589,3935 1559,3994 1589,4024 1619,4082 1648,4112 1648,4141 1648,4171 1678,4200 1678,4230 1648,4230 1589,4259 1531,4318 1412,4171 1294,4024 1147,3907 1088,3848 1058,3848 1058,3848 999,3877 970,3907 882,4025 882,4025 882,4025 882,4113 882,4202 882,4290 823,4349 794,4379 764,4349 764,4379 765,4408 765,4467 735,4497 706,4497 706,4526 765,4526 824,4526 853,4556 853,4556 853,4585 794,4615 736,4674 677,4733 618,4792 588,4762 588,4733 588,4644 588,4586 588,4556 617,4527 617,4527 676,4585 647,4526 647,4526 "/>
   <polygon class="fil13" points="3126,5995 3037,6025 3008,6025 3008,6025 3008,6025 2978,6054 2949,6084 3007,5907 3037,5760 3007,5642 3007,5612 2977,5612 2977,5642 2948,5848 2860,5966 2772,6055 2684,6114 2713,6025 2713,5996 2683,5849 2624,5760 2624,5701 2594,5554 2505,5436 2417,5378 2387,5289 2387,5289 2446,5230 2534,5142 2623,5112 2652,5230 2653,5318 2653,5377 2653,5407 2623,5407 2594,5436 2742,5908 2772,5907 2830,5406 2771,5406 2771,5377 2770,5318 2770,5200 2741,5082 2888,5082 3006,5082 3153,5081 3330,5111 3684,5139 3861,5139 3978,5109 3920,5198 3891,5345 3891,5345 2977,5229 3861,5375 3773,5404 3655,5464 3567,5493 3537,5582 3537,5582 3537,5611 3508,5611 2947,5377 3449,5611 3302,5700 3243,5759 3184,5848 3126,5995 3126,5995 "/>
   <polygon class="fil8" points="2325,3698 2325,3727 2296,3816 2237,3875 2178,3905 2090,3846 2060,3816 2060,3787 2060,3757 2060,3757 2031,3728 2178,3728 2325,3698 2325,3698 "/>
   <polygon class="fil8" points="1618,3965 1618,3906 1618,3906 1618,3876 1618,3817 1618,3758 1618,3699 1677,3729 1795,3728 2031,3757 2031,3757 2001,3816 1913,3905 1795,4023 1736,4053 1648,4053 1618,4024 1618,3965 1618,3965 "/>
   <polygon class="fil8" points="2561,3668 2532,3756 2473,3816 2443,3816 2384,3786 2355,3727 2355,3698 2384,3698 2443,3639 2561,3580 2561,3668 2561,3668 "/>
   <polygon class="fil8" points="2618,2872 2766,2813 2942,2695 2972,2695 2972,2695 2972,2724 2913,2842 2884,2872 2854,2901 2825,2901 2795,2842 2795,2872 2766,2960 2707,2990 2619,2990 2618,2931 2618,2872 2618,2872 "/>
   <polygon class="fil8" points="2088,2873 2088,2844 2294,2902 2294,2932 2265,2961 2206,2991 2147,2961 2088,2873 2088,2873 "/>
   <polygon class="fil8" points="1822,2785 1763,2756 1734,2726 1675,2638 1675,2638 1704,2668 1793,2726 1911,2785 2058,2844 2058,2873 2058,2903 2029,2903 1970,2903 1940,2844 1881,2785 1852,2756 1852,2785 1822,2785 1822,2785 "/>
   <polygon class="fil8" points="2501,2961 2471,3020 2412,3049 2353,2991 2324,2932 2324,2902 2500,2902 2501,2961 2501,2961 "/>
   <path class="fil8" d="M1525 1430l0 -59 118 88 59 147 0 59 29 0 0 -59 29 -88 59 -59 59 -30 29 -30 0 29 0 29 0 0 0 29 0 88 0 0 0 29 0 88 -29 30 -29 0 -29 0 -29 30 59 0 30 29 0 29 0 0 0 29 59 59 118 0 0 -29 0 -29 0 -29 -30 -118 -59 -59 -30 -29 0 -29 0 0 59 -59 29 -30 59 0 118 0 88 -30 0 0 -29 88 -29 59 -29 59 -29 30 29 0 59 -59 59 -59 29 -30 88 0 0 0 1 295 30 295 -147 -59 -89 -59 -88 -29 -29 0 -29 0 -29 0 0 0 0 0 -30 -29 -30 -29 -88 0 -59 -29 -29 0 -30 -59 -59 -29 -30 -29 0 0 0 -29 0 0 -59 -59 0 0 -30 -59 -89 -118 0 -29 0 -29 0 0 0 -29 0 0 0 0zm1002 145l59 -30 0 0 0 0 0 0 -29 88 -29 30 0 -88 0 0 0 0zm0 177l59 -30 29 -59 0 -29 59 0 30 29 89 118 0 0 0 0 -29 0 -59 30 -29 30 -29 30 0 0 -29 0 -59 -59 30 59 30 59 29 0 0 0 29 -30 59 -30 59 -30 29 0 59 59 59 88 0 -29 0 29 30 29 0 0 0 29 -59 30 -29 30 -29 0 0 0 -30 -29 -29 0 0 29 0 0 0 0 0 0 59 29 0 0 29 0 29 0 59 -30 29 0 0 29 59 29 -29 30 0 0 0 29 0 0 0 29 -88 -29 -59 30 0 29 0 29 -29 0 -29 0 -59 -29 -206 -88 -30 -442 0 0 0 0zm-1061 61l-29 0 -88 0 -118 -59 88 -30 59 0 59 29 29 -30 -89 -59 -59 -59 0 -59 -30 -29 88 0 30 29 0 29 0 0 0 0 29 -30 0 0 -30 -29 0 -118 0 -29 30 29 59 59 0 29 0 29 30 118 89 88 30 29 -59 0 -88 59 -29 0 0 0 0 0z"/>
   <path class="fil11" d="M2682 5407l0 0 0 -29 0 -29 0 -88 -30 -118 -1 -295 -30 -383 -30 -413 -30 -472 -31 -973 0 0 29 0 182 2829 59 0 0 59 -29 118 0 147 -29 88 -30 -88 -30 -147 -59 -118 0 -59 29 -30 29 0 0 0 0 0zm-183 -3153l-30 -413 -30 -354 -1 -265 0 -88 0 -59 29 0 0 59 0 59 30 118 0 147 30 383 30 442 -59 -29 0 0 0 0z"/>
   <polygon class="fil10" points="3180,3814 3210,3961 3240,4109 3269,4256 3299,4374 3329,4462 3299,4521 3270,4551 3211,4551 3152,4580 3093,4610 3034,4640 3034,4640 2917,4728 2858,4728 2799,4699 2828,4670 2858,4640 2887,4581 2916,4581 2916,4581 3034,4433 3063,4404 3093,4404 3093,4374 3093,4374 3093,4345 3093,4256 3033,4139 2974,4050 2886,3933 2885,3815 2885,3785 2885,3785 2856,3756 2885,3726 2974,3726 3033,3755 3121,3785 3180,3814 3180,3814 "/>
   <polygon class="fil11" points="4119,3341 4237,3281 4237,3370 4208,3517 4179,3694 4061,3871 3885,4048 3590,4196 3266,4256 3237,4079 3236,4020 3443,4049 3561,4020 3737,3960 3855,3872 3973,3783 4032,3694 4090,3576 4119,3429 4119,3341 4119,3341 "/>
   <polygon class="fil11" points="2975,4227 2857,4168 2798,4110 2768,3992 2709,3933 2709,3815 2679,3697 2708,3461 2708,3461 2708,3491 2738,3609 2767,3668 2797,3726 2826,3756 2826,3785 2826,3815 2856,3933 2945,4080 3034,4227 2975,4227 2975,4227 "/>
   <polygon class="fil16" points="4122,3370 4122,3400 4093,3518 4064,3636 3946,3783 3740,3931 3593,3990 3446,4020 3357,4020 3269,3991 3210,3814 3209,3726 3150,3608 3091,3490 3032,3402 3032,3402 3120,3372 3209,3313 3267,3283 3326,3254 3297,3283 3327,3342 3356,3372 3386,3401 3415,3401 3415,3401 3445,3371 3445,3430 3445,3460 3504,3460 3592,3460 3680,3430 3710,3459 3798,3459 3916,3400 3975,3400 4122,3370 4122,3370 "/>
   <polygon class="fil17" points="2737,3491 2737,3461 2737,3461 2737,3461 2708,3402 2708,3314 2707,3255 2737,3196 2854,3048 2913,2989 2943,2989 3002,3019 3061,3048 3090,3048 3120,3077 3179,3166 3208,3225 3238,3254 3179,3284 3120,3343 3032,3372 3002,3372 2973,3402 3003,3431 3062,3490 3091,3578 3150,3696 3180,3785 3121,3755 3033,3697 2944,3697 2885,3697 2826,3726 2767,3638 2737,3491 2737,3491 "/>
   <polygon class="fil10" points="4004,3046 4151,3164 4269,3222 4152,3311 4063,3341 3975,3370 3916,3371 3857,3223 3827,3223 3887,3400 3798,3430 3739,3430 3710,3400 3710,3400 3710,3253 3680,3224 3680,3283 3680,3342 3680,3400 3621,3401 3533,3430 3474,3430 3474,3430 3474,3342 3474,3312 3444,3283 3415,3313 3386,3372 3356,3342 3356,3283 3356,3254 3385,3254 3415,3224 3415,3224 3444,3224 3444,3195 3415,3195 3356,3195 3267,3224 3267,3224 3267,3224 3090,3019 2943,2960 2943,2930 3149,2901 3149,2901 3296,2782 3355,2723 3326,2812 3267,2900 3237,2959 3237,2959 3267,3018 3326,3077 3414,3077 3444,3047 3473,3018 3473,2988 3503,2929 3591,2811 3591,3047 3591,3076 3621,3135 3709,3106 3768,3047 3768,3106 3856,3017 3856,3017 3856,3017 3856,3017 3945,3046 4004,3046 4004,3046 4004,3046 "/>
   <polygon class="fil10" points="3384,2664 3296,2723 3237,2782 3149,2871 3119,2871 3060,2871 3001,2901 2943,2901 2972,2842 3031,2783 3119,2694 3237,2606 3325,2605 3355,2605 3384,2635 3384,2635 3355,2635 3384,2664 3384,2664 "/>
   <polygon class="fil10" points="3558,2723 3411,2988 3382,3018 3352,3047 3323,3047 3264,2989 3234,2959 3264,2900 3352,2782 3381,2694 3381,2694 3381,2664 3411,2694 3499,2752 3529,2752 3558,2723 3558,2723 "/>
   <polygon class="fil10" points="3735,2693 3735,2693 3735,2693 3764,2634 3794,2634 3823,2634 3912,2840 3942,2899 3971,2987 3942,3017 3912,3017 3853,2987 3824,2958 3824,2899 3824,2899 3794,2899 3794,3017 3765,3017 3765,2929 3735,2988 3647,3076 3588,3106 3588,3047 3587,2693 3646,2664 3676,2664 3676,2693 3735,2693 3735,2693 "/>
   <polygon class="fil10" points="3471,1898 3324,2075 3324,1928 3294,1810 3323,1633 3382,1485 3411,1456 3411,1485 3500,1485 3529,1485 3706,1485 3677,1514 3677,1514 3618,1514 3559,1603 3471,1691 3441,1780 3442,1868 3471,1898 3471,1898 3471,1898 "/>
   <polygon class="fil10" points="3292,2488 3292,2488 3381,2428 3469,2369 3528,2310 3557,2281 3645,2222 3704,2163 3763,2074 3822,2074 3910,1985 3793,2221 3793,2221 3763,2251 3734,2369 3764,2457 3794,2545 3794,2545 3794,2575 3794,2575 3794,2604 3764,2575 3735,2605 3705,2634 3676,2634 3617,2634 3558,2693 3529,2693 3499,2723 3440,2664 3381,2635 3381,2635 3381,2605 3351,2576 3234,2547 3263,2517 3292,2488 3292,2488 "/>
   <polygon class="fil12" points="4470,1778 4499,1778 4558,1807 4647,1807 4765,1836 4853,1836 5000,1836 5030,1865 5059,1865 5207,1894 5295,1894 5384,1923 5413,1923 5413,1953 5354,1982 5237,2071 5207,2071 5060,2012 4853,1924 4529,1837 4470,1778 4470,1778 "/>
   <path class="fil17" d="M2379 1193l-59 -147 0 -59 59 -30 0 29 0 29 0 29 29 0 0 88 0 118 -30 -59 0 0 0 0zm118 -118l30 29 0 88 0 0 -29 30 0 -147 0 0 0 0zm0 -88l0 0 29 -30 0 29 59 59 30 59 0 29 59 118 30 59 177 147 89 118 30 29 0 29 0 0 0 0 0 0 29 0 0 0 0 0 29 -59 0 29 29 0 0 0 29 -30 0 0 0 88 0 118 0 29 0 0 0 0 0 0 -88 30 -88 30 -59 -29 -148 -206 -118 -177 -59 -147 -30 -59 29 -59 0 -88 -59 -59 0 -59 0 0 0 0z"/>
   <polygon class="fil10" points="3087,1545 3146,1486 3234,1456 3264,1456 3323,1485 3323,1485 3294,1633 3265,1780 3235,1810 3147,1810 3147,1781 3146,1663 3146,1574 3146,1545 3117,1545 3087,1545 3087,1545 3087,1545 "/>
   <polygon class="fil17" points="3265,2222 3324,2163 3383,2045 3471,1957 3530,1898 3560,1927 3618,1927 3618,1927 3618,1927 3619,1956 3648,2015 3678,2015 3707,2045 3766,2015 3766,2015 3766,2045 3707,2133 3648,2192 3560,2251 3531,2281 3531,2281 3531,2281 3443,2369 3325,2429 3060,2518 2942,2518 2824,2547 2765,2548 2706,2518 2706,2518 2706,2548 2677,2577 2647,2577 2529,2578 2500,2578 2470,2548 2441,2519 2382,2401 2381,2342 2440,2312 2529,2312 2588,2312 2588,2342 2617,2342 2617,2312 2617,2253 2676,2312 2676,2341 2676,2371 2824,2400 2824,2371 3000,2282 3148,2252 3206,2223 3236,2222 3265,2222 3265,2222 3265,2222 "/>
   <path class="fil10" d="M3500 1868l-30 -29 0 -59 29 -88 59 -59 59 -59 59 -30 89 88 206 88 0 0 0 118 -29 118 -59 59 -29 30 -29 0 -30 -29 29 -88 59 -177 -30 -29 -29 88 -29 118 -59 59 -29 30 -30 -29 0 0 0 0 0 0 -30 -29 0 -29 0 -29 59 -89 59 -147 0 -29 -29 59 -29 30 -88 177 -29 0 0 0 0 0 0 0 -30 -59 0 0 0 -29 0 0 59 -118 88 -89 0 0 0 -29 -29 0 -59 30 -29 59 -59 147 0 0 -29 30 0 29 0 0 0 0zm206 -354l59 0 59 0 88 29 30 59 29 0 0 0 0 0 0 59 0 29 -177 -88 -89 -88 0 0 0 0z"/>
   <path class="fil17" d="M3735 1190l30 59 59 59 0 0 -29 30 -29 59 -265 1 0 -29 29 -59 88 -59 59 -30 29 -30 0 0 29 0 0 0 0 0 0 0zm-59 -29l-59 59 -88 59 -59 0 -59 -29 29 0 29 -30 -59 0 0 0 0 -29 -30 -29 0 0 -29 0 0 -59 -30 -88 59 0 0 0 30 29 0 29 0 0 0 0 29 -59 29 -30 59 0 29 0 30 59 0 29 59 59 30 29 0 0 0 0z"/>
   <line class="fil1 str5" x1="6656" y1="57" x2="6661" y2="7579"/>
   <line class="fil1 str5" x1="71" y1="7550" x2="6660" y2="7548"/>
  </g>
 </g>
</svg>