<?xml version="1.0" encoding="UTF-8"?>
<svg width="870" height="1e3" version="1.1" viewBox="0 0 870 1e3" xmlns="http://www.w3.org/2000/svg">
 <path d="m0-0.18555v524.54c-4.3659e-5 126.15 45.83 247.13 127.41 336.33 81.578 89.201 192.22 139.31 307.59 139.31s226.01-50.113 307.59-139.31 127.41-210.18 127.41-336.33v-524.54z" style="fill:#00943a"/>
 <path d="m40.854 48.912c-11.563 0-26.287 2.5829-40.854 6.0293v144.47c14.567-3.4464 29.291-6.0293 40.854-6.0293 35.194 0 64.529 23.775 99.723 23.775 35.194 0 64.53-23.775 99.725-23.775s64.529 23.775 99.723 23.775c35.194 0 64.53-23.775 99.725-23.775s64.529 23.775 99.723 23.775c35.194 0 64.529-23.775 99.723-23.775 35.194 0 64.53 23.775 99.725 23.775 35.194 0 64.528-23.775 99.723-23.775 9.0456 0 20.032 1.5763 31.359 3.9102v-144.47c-11.328-2.3338-22.314-3.9102-31.359-3.9102-35.194 0-64.529 23.775-99.723 23.775-35.194 0-64.53-23.775-99.725-23.775-35.194 0-64.529 23.775-99.723 23.775-35.194 0-64.529-23.775-99.723-23.775s-64.53 23.775-99.725 23.775c-35.194 0-64.529-23.775-99.723-23.775s-64.53 23.775-99.725 23.775c-35.194 0-64.529-23.775-99.723-23.775z" style="fill:#fff"/>
 <path d="m174.03 440.03c-2.7065 5.2663-5.2669 10.619-7.6719 16.059-50.807 114.91-56.697 261.35 24.18 363.82 65.503 82.989 179.75 132.75 283.97 107.84 132.75-31.727 220.65-181.7 171.98-308.41-33.85-88.129-134.84-149.3-227.99-120.83-103.4 31.603-136.22 187.7-51.34 254.4 45.877 36.051 129.65 28.64 156.03-29.512 19.741-43.52 0.66851-111.04-52.26-113.31-14.268-0.61132-45.711 8.38-26.371 14.389 36.722 11.409 66.41 29.888 61.795 66.734-5.0339 40.186-43.145 60.111-80.465 56.924-56.535-4.8281-84.902-64.296-81.195-115.39 4.4538-61.385 53.428-115.47 116.56-117.9 106.51-4.1092 192.93 102.54 176.06 205.7-18.211 111.39-124.85 206.31-240.48 190.55-112.65-15.349-214.17-103.09-231.68-216.95-13-84.535 3.6652-176.34 49.629-248.86a55.783 191.48 85.488 0 1-40.758-5.2578z" style="fill:#fff"/>
 <path d="m510.75 256.59c-44.499 0.15984-88.916 6.1155-131.73 18.133-44.463 12.481-86.1 34.217-121.74 63.248a55.783 191.48 85.488 0 1 45.934-4.8379 55.783 191.48 85.488 0 1 44.166-1.5566 55.783 191.48 85.488 0 1 1.6348 0.0039c88.409-37.459 193.52-34.905 285.73-9.8848 95.84 26.006 180.38 87.249 235.26 169.53v-89.09c-93.65-95.153-226.8-146.02-359.25-145.55z" style="fill:#fff"/>
 <path d="m347.38 331.58c-14.455-3e-3 -29.277 0.51934-44.166 1.5566-105.45 7.3439-191.67 38.395-192.58 69.355-0.90841 30.96 83.835 50.104 189.28 42.76 105.45-7.3439 191.67-38.395 192.58-69.355 0.76344-25.96-59.278-44.296-145.12-44.316zm-8.6348 6.6172c77.322-0.0269 134.63 15.155 133.95 37.94-0.81852 27.131-81.519 57.989-176.31 64.424-94.794 6.4356-170.96-13.092-170.14-40.223 0.81854-27.131 78.328-54.342 173.12-60.777 13.274-0.90124 26.49-1.3587 39.383-1.3633z" style="fill:#fff"/>
 <path d="m179.53 252.51c-38.888 1e-3 -43.176 62.084-9.5762 138.67 33.6 76.584 92.364 138.67 131.25 138.67 38.89-1.2e-4 43.177-62.085 9.5762-138.67-33.6-76.584-92.365-138.67-131.25-138.67zm5.623 17.236c0.0371-6e-5 0.0742-6e-5 0.11132 0 35.033-7.1e-4 88.356 53.802 118.28 121.44 29.923 67.639 27.848 127.21-3.2385 127.21-35.033-5.4e-4 -94.168-58.589-124.09-126.23-29.887-67.555-25.997-122.3 8.9398-122.42z" style="fill:#fff"/>
 <circle cx="238.02" cy="393.15" r="31.855" style="fill:#fff"/>
 <path d="m40.854 59.34c-12.251 0-26.666 2.432-40.854 5.7324v17.967c14.97-3.5936 30.081-6.3164 40.854-6.3164 15.64 0 30.723 5.4077 46.855 11.352 16.132 5.9439 33.313 12.424 52.867 12.424 19.554 0 36.735-6.4799 52.867-12.424 16.132-5.9439 31.218-11.352 46.857-11.352s30.723 5.4077 46.855 11.352c16.132 5.9439 33.313 12.424 52.867 12.424 19.554 0 36.735-6.4799 52.867-12.424 16.132-5.9439 31.218-11.352 46.857-11.352s30.723 5.4077 46.855 11.352c16.132 5.9439 33.313 12.424 52.867 12.424 19.554 0 36.735-6.4799 52.867-12.424 16.132-5.9439 31.216-11.352 46.855-11.352 15.64 0 30.725 5.4077 46.857 11.352 16.132 5.9439 33.313 12.424 52.867 12.424 19.554 0 36.735-6.4799 52.867-12.424s31.216-11.352 46.855-11.352c8.488 0 19.676 1.6852 31.359 4.1543v-17.859c-11.011-2.2032-21.84-3.6777-31.359-3.6777-19.554 0-36.733 6.4799-52.865 12.424s-31.218 11.352-46.857 11.352c-15.64 0-30.725-5.4077-46.857-11.352-16.132-5.9439-33.313-12.424-52.867-12.424-19.554 0-36.733 6.4799-52.865 12.424-16.132 5.9439-31.218 11.352-46.857 11.352-15.64 0-30.725-5.4077-46.857-11.352s-33.311-12.424-52.865-12.424-36.735 6.4799-52.867 12.424-31.218 11.352-46.857 11.352c-15.64 0-30.723-5.4077-46.855-11.352s-33.313-12.424-52.867-12.424-36.735 6.4799-52.867 12.424-31.218 11.352-46.857 11.352c-15.64 0-30.723-5.4077-46.855-11.352-16.132-5.9439-33.313-12.424-52.867-12.424zm0 34.996c-12.251 0-26.666 2.432-40.854 5.7324v17.967c14.97-3.5936 30.081-6.3164 40.854-6.3164 15.64 0 30.723 5.4077 46.855 11.352 16.132 5.9439 33.313 12.424 52.867 12.424 19.554 0 36.735-6.4799 52.867-12.424s31.218-11.352 46.857-11.352 30.723 5.4077 46.855 11.352 33.313 12.424 52.867 12.424c19.554 0 36.735-6.4799 52.867-12.424 16.132-5.9439 31.218-11.352 46.857-11.352s30.723 5.4077 46.855 11.352c16.132 5.9439 33.313 12.424 52.867 12.424 19.554 0 36.735-6.4799 52.867-12.424s31.216-11.352 46.855-11.352c15.64 0 30.725 5.4077 46.857 11.352 16.132 5.9439 33.313 12.424 52.867 12.424 19.554 0 36.735-6.4799 52.867-12.424 16.132-5.9439 31.216-11.352 46.855-11.352 8.488 0 19.676 1.6852 31.359 4.1543v-17.859c-11.011-2.2032-21.84-3.6777-31.359-3.6777-19.554 0-36.733 6.4799-52.865 12.424-16.132 5.9439-31.218 11.352-46.857 11.352-15.64 0-30.725-5.4077-46.857-11.352-16.132-5.9439-33.313-12.424-52.867-12.424-19.554 0-36.733 6.4799-52.865 12.424-16.132 5.9439-31.218 11.352-46.857 11.352-15.64 0-30.725-5.4077-46.857-11.352-16.132-5.9439-33.311-12.424-52.865-12.424-19.554 0-36.735 6.4799-52.867 12.424-16.132 5.9439-31.218 11.352-46.857 11.352-15.64 0-30.723-5.4077-46.855-11.352-16.132-5.9439-33.313-12.424-52.867-12.424-19.554 0-36.735 6.4799-52.867 12.424-16.132 5.9439-31.218 11.352-46.857 11.352-15.64 0-30.723-5.4077-46.855-11.352-16.132-5.9439-33.313-12.424-52.867-12.424zm0 34.996c-12.251 0-26.666 2.432-40.854 5.7324v17.969c14.97-3.5936 30.081-6.3164 40.854-6.3164 15.64 0 30.723 5.4077 46.855 11.352 16.132 5.9439 33.313 12.424 52.867 12.424 19.554 0 36.735-6.4799 52.867-12.424s31.218-11.352 46.857-11.352 30.723 5.4077 46.855 11.352 33.313 12.424 52.867 12.424c19.554 0 36.735-6.4799 52.867-12.424 16.132-5.9439 31.218-11.352 46.857-11.352s30.723 5.4077 46.855 11.352c16.132 5.9439 33.313 12.424 52.867 12.424 19.554 0 36.735-6.4799 52.867-12.424s31.216-11.352 46.855-11.352c15.64 0 30.725 5.4077 46.857 11.352s33.313 12.424 52.867 12.424c19.554 0 36.735-6.4799 52.867-12.424s31.216-11.352 46.855-11.352c8.488 0 19.676 1.6852 31.359 4.1543v-17.861c-11.011-2.2032-21.84-3.6777-31.359-3.6777-19.554 0-36.733 6.4799-52.865 12.424s-31.218 11.352-46.857 11.352c-15.64 0-30.725-5.4077-46.857-11.352-16.132-5.9439-33.313-12.424-52.867-12.424-19.554 0-36.733 6.4799-52.865 12.424-16.132 5.9439-31.218 11.352-46.857 11.352-15.64 0-30.725-5.4077-46.857-11.352s-33.311-12.424-52.865-12.424-36.735 6.4799-52.867 12.424-31.218 11.352-46.857 11.352c-15.64 0-30.723-5.4077-46.855-11.352s-33.313-12.424-52.867-12.424-36.735 6.4799-52.867 12.424-31.218 11.352-46.857 11.352c-15.64 0-30.723-5.4077-46.855-11.352-16.132-5.9439-33.313-12.424-52.867-12.424zm0 34.996c-12.251 0-26.666 2.432-40.854 5.7324v17.969c14.97-3.5936 30.081-6.3164 40.854-6.3164 15.64 0 30.723 5.4077 46.855 11.352 16.132 5.9439 33.313 12.424 52.867 12.424 19.554 0 36.735-6.4799 52.867-12.424 16.132-5.9439 31.218-11.352 46.857-11.352s30.723 5.4077 46.855 11.352c16.132 5.9439 33.313 12.424 52.867 12.424 19.554 0 36.735-6.4799 52.867-12.424 16.132-5.9439 31.218-11.352 46.857-11.352s30.723 5.4077 46.855 11.352c16.132 5.9439 33.313 12.424 52.867 12.424 19.554 0 36.735-6.4799 52.867-12.424 16.132-5.9439 31.216-11.352 46.855-11.352 15.64 0 30.725 5.4077 46.857 11.352 16.132 5.9439 33.313 12.424 52.867 12.424 19.554 0 36.735-6.4799 52.867-12.424 16.132-5.9439 31.216-11.352 46.855-11.352 8.488 0 19.676 1.6852 31.359 4.1543v-17.861c-11.011-2.2032-21.84-3.6777-31.359-3.6777-19.554 0-36.733 6.4799-52.865 12.424-16.132 5.9439-31.218 11.352-46.857 11.352-15.64 0-30.725-5.4077-46.857-11.352-16.132-5.9439-33.313-12.424-52.867-12.424-19.554 0-36.733 6.4799-52.865 12.424-16.132 5.9439-31.218 11.352-46.857 11.352-15.64 0-30.725-5.4077-46.857-11.352-16.132-5.9439-33.311-12.424-52.865-12.424s-36.735 6.4799-52.867 12.424c-16.132 5.9439-31.218 11.352-46.857 11.352-15.64 0-30.723-5.4077-46.855-11.352-16.132-5.9439-33.313-12.424-52.867-12.424s-36.735 6.4799-52.867 12.424c-16.132 5.9439-31.218 11.352-46.857 11.352-15.64 0-30.723-5.4077-46.855-11.352-16.132-5.9439-33.313-12.424-52.867-12.424z" style="color-rendering:auto;color:#000000;dominant-baseline:auto;fill:#007bc5;font-feature-settings:normal;font-variant-alternates:normal;font-variant-caps:normal;font-variant-east-asian:normal;font-variant-ligatures:normal;font-variant-numeric:normal;font-variant-position:normal;font-variation-settings:normal;image-rendering:auto;inline-size:0;isolation:auto;mix-blend-mode:normal;shape-margin:0;shape-padding:0;shape-rendering:auto;solid-color:#000000;stop-color:#000000;text-decoration-color:#000000;text-decoration-line:none;text-decoration-style:solid;text-indent:0;text-orientation:mixed;text-transform:none;white-space:normal"/>
 <path d="m0-0.18555v524.54c-4.3659e-5 126.15 45.83 247.13 127.41 336.33 81.578 89.201 192.22 139.31 307.59 139.31s226.01-50.113 307.59-139.31 127.41-210.18 127.41-336.33v-524.54z" style="fill:none;stroke-dashoffset:91.011;stroke-linecap:round;stroke-linejoin:round;stroke-width:7;stroke:#000"/>
</svg>