<?xml version="1.0" encoding="UTF-8" standalone="no"?>
<svg
   xmlns:dc="http://purl.org/dc/elements/1.1/"
   xmlns:cc="http://creativecommons.org/ns#"
   xmlns:rdf="http://www.w3.org/1999/02/22-rdf-syntax-ns#"
   xmlns:svg="http://www.w3.org/2000/svg"
   xmlns="http://www.w3.org/2000/svg"
   xmlns:sodipodi="http://sodipodi.sourceforge.net/DTD/sodipodi-0.dtd"
   xmlns:inkscape="http://www.inkscape.org/namespaces/inkscape"
   inkscape:version="1.0beta1 (fe3e306978, 2019-09-17)"
   sodipodi:docname="voskresensk.svg"
   id="svg5600"
   viewBox="0 0 12309 15492"
   style="clip-rule:evenodd;fill-rule:evenodd;image-rendering:optimizeQuality;shape-rendering:geometricPrecision;text-rendering:geometricPrecision"
   version="1.1"
   height="154.92mm"
   width="123.09mm"
   xml:space="preserve"><metadata
   id="metadata5604">
  <rdf:RDF>
    <cc:Work
       rdf:about="">
      <dc:format>image/svg+xml</dc:format>
      <dc:type
         rdf:resource="http://purl.org/dc/dcmitype/StillImage" />
      <dc:title></dc:title>
    </cc:Work>
  </rdf:RDF>
</metadata>
<sodipodi:namedview
   inkscape:current-layer="svg5600"
   inkscape:window-maximized="1"
   inkscape:window-y="27"
   inkscape:window-x="0"
   inkscape:cy="392.93051"
   inkscape:cx="232.47874"
   inkscape:zoom="0.48284231"
   fit-margin-bottom="0"
   fit-margin-right="0"
   fit-margin-left="0"
   fit-margin-top="0"
   showgrid="false"
   id="namedview5602"
   inkscape:window-height="704"
   inkscape:window-width="1366"
   inkscape:pageshadow="2"
   inkscape:pageopacity="0"
   guidetolerance="10"
   gridtolerance="10"
   objecttolerance="10"
   borderopacity="1"
   inkscape:document-rotation="0"
   bordercolor="#666666"
   pagecolor="#ffffff" />

 <defs
   id="defs5317">
  <style
   id="style5315"
   type="text/css">
   <![CDATA[
    .fil4 {fill:#EF7F1A}
    .fil2 {fill:#00A0E3;fill-rule:nonzero}
    .fil0 {fill:#2B2A29;fill-rule:nonzero}
    .fil6 {fill:#B2B09C;fill-rule:nonzero}
    .fil7 {fill:#DB422A;fill-rule:nonzero}
    .fil5 {fill:#EF7F1A;fill-rule:nonzero}
    .fil3 {fill:#FECC00;fill-rule:nonzero}
    .fil8 {fill:#FFED00;fill-rule:nonzero}
    .fil1 {fill:#FBDB0A;fill-rule:nonzero}
   ]]>
  </style>

 </defs>

 <g
   transform="translate(-4349,-7104)"
   id="Слой_x0020_1">
  <metadata
   id="CorelCorpID_0Corel-Layer" />

  <g
   id="_646345888">
   <path
   inkscape:connector-curvature="0"
   id="path5320"
   d="m 16654,7158 v 12807 0 0 c 0,337 -138,643 -359,864 -222,222 -527,359 -864,359 v 0 0 h -738 v 0 l -2690,-5 v 0 h -6 c -111,-1 -217,6 -318,21 -100,15 -193,37 -280,67 -444,153 -732,510 -844,1062 l -53,263 -54,-263 -1,-5 c -22,-108 -51,-209 -87,-302 -35,-93 -77,-178 -126,-255 -247,-395 -664,-593 -1234,-587 v 0 l -2690,5 v 0 h -738 v 0 0 c -337,0 -643,-138 -864,-359 -222,-222 -359,-527 -359,-864 v 0 0 -12807 -55 h 55 12199 55 v 55 z"
   class="fil0" />

   <path
   inkscape:connector-curvature="0"
   id="path5322"
   d="m 16544,19965 v -618 c -79,-81 -145,-167 -197,-259 -216,-379 -207,-856 24,-1429 -21,8 -40,17 -60,27 -29,16 -57,34 -83,55 -135,111 -229,300 -281,569 v 1 1 1 0 c -28,88 -57,169 -86,243 -30,75 -60,143 -91,204 -163,321 -350,465 -560,432 l -44,-7 39,-22 c 165,-95 275,-249 330,-461 55,-214 54,-488 -4,-821 v 0 0 c -16,-92 -26,-180 -29,-265 -3,-85 1,-168 11,-247 51,-389 264,-702 638,-939 -59,6 -117,14 -174,24 -77,14 -151,33 -222,56 -364,119 -653,354 -866,706 -43,92 -86,179 -129,261 -43,82 -87,159 -132,231 -229,370 -469,602 -721,695 l -88,33 72,-60 v 0 0 c 35,-29 68,-58 98,-88 30,-30 59,-61 85,-93 135,-163 213,-348 236,-555 v 0 c 70,-522 340,-925 811,-1206 -57,11 -114,24 -169,37 -85,21 -167,45 -246,71 -410,136 -758,347 -1045,632 l -22,22 -5,-31 v 0 0 c -8,-50 -13,-98 -15,-146 -2,-48 -1,-95 3,-141 21,-237 123,-445 319,-615 236,-204 408,-402 514,-598 98,-181 139,-360 121,-541 -20,28 -44,55 -72,82 -39,38 -86,75 -140,110 -275,181 -745,330 -1410,449 l -54,10 40,-37 c 82,-76 138,-178 167,-306 29,-129 32,-284 8,-466 v 0 -1 0 c -6,-44 -10,-86 -14,-126 -3,-41 -6,-81 -7,-121 -6,-184 10,-350 47,-497 -11,9 -23,20 -35,31 -64,59 -130,141 -183,246 -152,296 -309,549 -477,759 -168,210 -347,376 -540,496 l -35,22 11,-40 v 0 0 c 22,-77 39,-151 51,-222 12,-72 20,-141 23,-208 14,-324 -82,-593 -289,-807 3,19 6,38 7,57 3,36 2,72 -3,107 -23,180 -137,346 -343,497 l -1,1 c -260,163 -453,361 -580,595 -127,234 -189,504 -185,810 l 2,139 -33,-135 c -90,-364 -201,-662 -331,-894 -130,-230 -280,-395 -450,-494 l -1,-1 c -184,-122 -305,-247 -362,-376 -50,-112 -52,-225 -6,-341 -30,25 -58,52 -84,80 -39,43 -73,90 -102,140 -148,260 -152,618 -14,1075 l 11,35 -33,-17 c -81,-40 -160,-95 -241,-161 -80,-66 -161,-144 -246,-231 -237,-244 -354,-521 -458,-767 -95,-225 -180,-425 -335,-549 29,113 49,227 60,341 13,129 16,259 10,389 v 1 c -3,69 -4,133 -3,195 1,61 4,119 9,173 25,276 100,461 220,554 l 98,76 -114,-49 c -155,-66 -302,-106 -441,-132 -139,-26 -271,-39 -395,-50 -167,-14 -321,-69 -464,-153 -135,-79 -260,-183 -378,-303 -11,51 -18,101 -20,151 -3,60 0,119 9,177 47,303 255,594 635,859 172,120 284,253 334,405 49,152 35,322 -46,516 l -10,24 -17,-20 c -432,-512 -897,-771 -1395,-777 218,130 376,278 483,443 115,178 171,376 174,595 2,142 49,282 130,422 82,141 199,280 343,420 l 64,62 -82,-36 c -200,-89 -366,-207 -500,-353 -135,-146 -239,-320 -317,-519 v 0 0 c -30,-76 -65,-147 -105,-214 -40,-67 -86,-130 -136,-189 -248,-289 -619,-478 -1102,-572 58,41 112,84 161,129 67,60 127,123 179,189 269,340 346,752 248,1205 -52,238 -55,446 -16,633 39,187 120,353 238,510 l 24,32 -39,-6 c -157,-25 -278,-124 -375,-294 -96,-167 -169,-403 -233,-707 l -1,-3 c -13,-59 -28,-113 -45,-163 -17,-50 -37,-96 -59,-137 -105,-200 -258,-303 -426,-318 47,86 86,172 117,260 34,96 59,193 75,292 66,419 -40,858 -317,1316 v 528 0 0 c 0,306 125,584 327,786 202,202 480,327 786,327 v 0 0 h 738 v 0 l 2690,-5 c 610,-7 1059,209 1328,639 52,83 97,175 135,274 14,37 27,75 39,114 147,-474 439,-786 862,-932 94,-33 194,-57 300,-72 105,-15 216,-23 335,-22 h 6 l 2690,5 v 0 h 738 v 0 0 c 306,0 584,-125 786,-327 202,-202 327,-480 327,-786 v 0 0 z"
   class="fil1" />

   <path
   inkscape:connector-curvature="0"
   id="path5324"
   d="M 16544,19301 V 7213 H 4455 v 12162 c 253,-435 348,-852 286,-1249 -15,-96 -39,-191 -73,-286 -34,-94 -77,-188 -129,-280 v 0 0 l -14,-25 28,1 c 191,6 365,115 482,337 23,43 43,90 61,142 18,51 34,107 46,167 l 1,3 c 64,300 136,534 230,698 84,146 185,237 312,270 -108,-150 -182,-311 -220,-489 -40,-191 -37,-403 16,-646 96,-444 21,-847 -242,-1178 -51,-65 -110,-126 -175,-185 -66,-59 -139,-115 -219,-168 v 0 0 l -64,-42 76,13 c 526,89 929,286 1194,595 52,60 98,125 139,194 41,69 77,142 107,220 v 0 0 c 77,196 179,366 311,509 113,122 247,224 406,306 -116,-119 -212,-240 -282,-361 -84,-144 -132,-290 -134,-437 -4,-212 -57,-405 -169,-578 -112,-173 -284,-327 -523,-462 l -50,-28 58,-2 c 523,-14 1011,241 1462,767 69,-176 80,-331 35,-470 -47,-145 -156,-273 -322,-388 -388,-270 -600,-569 -648,-880 -9,-61 -13,-122 -10,-184 3,-61 12,-123 27,-185 v 0 0 l 7,-28 20,21 c 121,127 251,237 391,319 140,82 289,135 451,149 124,11 257,23 398,50 118,22 242,55 371,104 -48,-56 -87,-130 -116,-222 -82,-52 -144,-115 -196,-181 -90,-115 -199,-146 -270,-166 -9,-3 -18,-5 -28,-8 v 0 0 c -254,-79 -443,-180 -573,-288 -25,-21 -49,-43 -70,-64 -21,-21 -40,-43 -57,-65 v 0 0 l -32,-42 49,19 c 90,35 209,65 356,72 29,1 59,2 89,1 31,0 62,-2 96,-5 h 1 c 218,-17 409,-3 574,48 3,-72 3,-143 1,-215 -57,-33 -119,-61 -188,-83 -64,-21 -134,-36 -208,-45 -75,-9 -155,-12 -240,-7 h -1 c -412,22 -730,27 -962,-34 -235,-62 -380,-192 -442,-437 l -9,-35 31,19 c 91,54 207,77 347,69 142,-8 309,-48 500,-121 v 0 c 361,-159 726,-164 1095,-16 72,29 143,63 215,104 53,30 106,63 159,99 -149,-235 -407,-421 -769,-489 -77,-14 -158,-23 -244,-26 -86,-3 -177,0 -272,9 h -1 c -429,43 -773,49 -1037,-14 -267,-63 -452,-195 -560,-426 l -25,-53 47,34 c 100,73 222,102 367,90 147,-12 318,-67 513,-163 v 0 c 321,-157 695,-151 1121,11 82,32 167,69 253,112 70,35 142,74 215,118 -158,-256 -427,-428 -805,-482 -79,-11 -162,-17 -250,-18 -88,-1 -181,4 -278,14 h -1 c -400,42 -714,28 -944,-57 -233,-86 -380,-244 -444,-487 l -12,-47 37,32 c 89,77 273,108 548,72 54,-7 111,-17 172,-30 61,-13 125,-28 193,-47 v 0 0 0 c 198,-54 377,-84 537,-82 139,2 265,27 379,81 -39,-44 -96,-78 -172,-102 -104,-34 -243,-50 -416,-53 -532,-7 -903,-107 -1112,-291 v 0 c -41,-36 -76,-76 -105,-119 -29,-43 -51,-89 -68,-138 v 0 l -13,-39 35,21 c 105,64 256,94 450,88 174,-5 384,-38 629,-98 -473,-31 -801,-183 -986,-456 -38,-57 -71,-119 -96,-187 -26,-67 -45,-140 -58,-217 v 0 l -1,-3 -6,-37 30,23 c 194,149 461,229 800,241 66,2 135,2 207,-1 62,-3 127,-7 193,-14 -74,-70 -182,-137 -329,-193 -31,-12 -65,-23 -100,-34 -35,-11 -72,-21 -111,-30 v 0 0 c -281,-68 -471,-181 -568,-342 -97,-162 -101,-372 -10,-634 l 16,-47 12,48 c 50,197 273,359 669,486 78,25 162,49 253,71 61,15 124,29 191,43 -135,-71 -256,-144 -363,-219 -288,-202 -473,-416 -556,-642 -83,-228 -61,-468 64,-719 33,-67 74,-134 122,-202 l 29,-42 -2,51 c -13,359 151,666 495,920 67,50 141,97 222,143 60,34 123,66 190,98 -304,-322 -404,-638 -301,-949 21,-64 51,-128 90,-191 38,-63 86,-126 141,-189 v 0 l 1,-1 30,-33 -4,44 c -24,292 52,536 228,732 34,38 72,75 114,110 30,25 62,49 97,72 -12,-33 -19,-68 -22,-105 -1,-11 -2,-22 -2,-32 v 0 c 0,-11 0,-22 0,-33 v 0 -1 l 1,-28 23,16 c 78,57 173,118 287,178 115,60 249,119 404,171 228,76 401,153 518,238 117,84 179,176 185,282 83,31 151,74 205,129 56,57 96,127 121,209 64,205 17,390 -154,539 -33,29 -71,56 -113,82 -42,26 -89,50 -140,73 v 0 c -206,91 -350,173 -436,253 -82,77 -109,152 -83,232 36,112 123,203 276,246 30,9 63,15 99,20 36,5 74,7 116,7 h 1 c 128,1 238,12 324,44 89,33 153,87 188,174 32,79 75,134 132,164 58,30 132,35 228,14 329,-71 591,-63 787,22 38,17 74,36 107,59 20,14 39,28 57,44 23,-15 45,-31 68,-46 378,-254 684,-461 548,-1093 l -4,1 c -26,8 -53,16 -80,23 v 0 0 0 c -52,13 -102,22 -149,28 v 0 c -47,6 -92,8 -133,8 -217,-3 -361,-91 -422,-212 l -15,-29 32,8 c 156,41 290,62 401,63 98,1 178,-14 239,-44 -99,-71 -200,-108 -305,-117 -112,-10 -230,13 -356,61 v 0 h -1 v 0 c -34,13 -67,24 -98,33 -32,9 -62,16 -92,21 -152,26 -273,3 -358,-48 l -48,-29 57,2 c 107,3 210,-3 306,-21 96,-18 187,-47 272,-89 136,-68 280,-88 432,-58 141,29 289,101 445,218 l -1,-4 c -5,-15 -10,-30 -17,-44 -35,-76 -97,-150 -187,-224 -29,-15 -58,-30 -87,-45 v 0 0 0 c -37,-20 -73,-36 -109,-47 -35,-12 -70,-20 -104,-24 -173,-21 -325,58 -449,222 l -13,18 -11,-19 c -95,-158 -104,-290 -30,-394 73,-101 226,-175 460,-220 2,-2 3,-4 5,-6 v 0 c 34,-36 100,-60 201,-56 37,-52 83,-81 140,-89 11,-2 23,-2 35,-2 10,0 21,1 31,3 18,-14 39,-25 60,-35 23,-10 48,-18 75,-23 97,-19 217,-3 358,49 -3,-27 -2,-55 1,-82 5,-35 15,-70 31,-106 79,-179 296,-365 659,-546 18,-9 34,-16 50,-21 43,-14 79,-15 108,-5 30,10 53,32 68,63 4,8 7,16 10,25 18,54 -11,99 -85,147 -68,44 -177,93 -325,155 v 0 h -1 v 0 c -35,15 -68,30 -98,45 -30,15 -57,30 -82,44 -46,27 -84,53 -113,77 27,-17 57,-34 88,-49 201,-98 493,-159 876,-177 12,-1 24,-1 36,0 66,2 117,21 152,54 35,34 54,81 57,142 0,9 0,19 0,29 0,72 -50,112 -151,132 -95,18 -237,18 -426,7 h -1 c -51,-3 -100,-4 -146,-3 -46,1 -90,3 -132,6 -9,1 -18,2 -27,3 281,6 498,46 610,123 27,19 49,40 64,63 15,24 24,50 25,78 v 0 2 0 c 1,31 -6,58 -21,80 -15,23 -38,42 -67,55 -28,13 -62,20 -99,21 -27,1 -56,-1 -87,-6 l 2,1 c 101,63 166,145 195,247 v 0 0 1 c 3,9 5,19 7,29 l 9,42 -33,-27 -2,-2 c -12,-10 -25,-19 -38,-28 -13,-9 -27,-17 -41,-24 -53,-27 -112,-44 -178,-50 5,2 10,5 14,7 26,14 50,28 72,43 115,78 183,174 204,289 l 5,27 -26,-11 -2,-1 c -9,-4 -19,-8 -29,-11 -10,-3 -20,-6 -31,-9 -43,-11 -91,-18 -142,-19 13,13 26,25 38,38 20,20 38,41 54,61 86,105 130,210 133,312 l 1,40 -27,-30 c -70,-76 -153,-120 -249,-132 13,11 25,22 37,33 22,21 43,43 61,65 95,115 133,238 116,372 l -5,35 -22,-28 -1,-1 v 0 c -16,-20 -31,-38 -47,-55 -16,-17 -31,-33 -46,-48 v 0 c -60,-57 -117,-94 -174,-112 8,8 15,16 22,24 18,21 34,42 49,63 76,111 107,234 94,370 l -5,48 -23,-42 c -29,-51 -64,-93 -105,-124 -23,-18 -48,-32 -75,-43 11,11 22,23 33,35 v 0 c 67,79 112,177 137,296 l 8,40 -32,-25 -1,-1 c -12,-9 -23,-18 -35,-26 -12,-8 -24,-15 -36,-22 -49,-27 -100,-45 -154,-54 l 5,5 c 12,12 24,24 35,37 55,60 96,124 125,190 85,-5 178,-5 277,2 98,6 170,-9 223,-47 53,-38 87,-98 107,-182 22,-91 78,-154 161,-200 81,-44 187,-71 314,-91 h 1 c 41,-6 79,-15 113,-24 35,-10 66,-21 95,-34 146,-65 218,-168 237,-284 14,-83 -24,-153 -116,-218 -96,-67 -251,-127 -468,-186 h -1 c -54,-15 -104,-32 -149,-51 -45,-19 -87,-41 -123,-64 -191,-122 -265,-298 -232,-510 13,-85 43,-160 89,-224 45,-62 106,-115 184,-157 -9,-105 39,-205 142,-306 104,-101 264,-203 478,-312 146,-74 270,-152 375,-229 105,-76 190,-151 258,-218 l 20,-20 5,28 v 1 0 c 2,11 4,22 5,33 v 0 c 1,11 2,21 3,32 2,37 0,72 -7,107 30,-28 59,-57 85,-86 36,-41 69,-82 97,-125 145,-220 185,-473 118,-758 l -10,-43 34,28 1,1 v 0 c 64,54 120,109 167,166 47,57 86,116 117,176 148,293 95,620 -159,983 62,-41 120,-83 174,-125 73,-57 139,-115 198,-174 302,-302 420,-629 354,-982 l -9,-50 35,37 c 57,61 107,121 150,182 161,231 217,465 169,702 -48,236 -200,475 -455,717 -95,90 -204,180 -327,270 64,-23 124,-47 182,-70 87,-35 167,-71 240,-107 373,-184 570,-377 590,-579 l 5,-50 23,44 c 129,246 156,454 83,629 -72,174 -244,313 -512,422 v 0 0 c -37,15 -72,30 -105,46 -33,16 -65,32 -94,48 -137,76 -234,159 -297,239 67,-3 131,-8 193,-15 71,-8 140,-17 205,-29 333,-61 585,-180 755,-356 l 26,-27 -1,38 v 3 0 c -2,79 -10,153 -26,224 -16,70 -38,137 -68,199 -142,297 -445,496 -908,596 251,24 464,26 637,5 194,-23 338,-74 433,-154 l 31,-26 -7,40 v 0 c -9,51 -24,100 -47,147 -22,46 -51,91 -86,133 v 0 c -180,213 -532,367 -1057,452 -171,28 -306,64 -404,113 -71,36 -123,77 -155,126 104,-70 225,-114 363,-136 158,-25 339,-22 543,2 v 0 0 0 c 70,8 136,14 198,18 62,4 121,5 175,4 277,-4 455,-63 532,-152 l 32,-37 -5,48 c -27,250 -150,427 -368,547 -215,118 -524,179 -926,195 h -1 c -98,4 -190,13 -277,27 -87,14 -168,32 -244,55 -366,109 -607,318 -726,595 66,-53 131,-103 195,-148 79,-55 157,-105 234,-148 397,-223 767,-284 1107,-176 v 0 c 207,66 384,95 531,85 145,-9 262,-56 350,-143 l 41,-41 -17,56 c -73,245 -237,402 -491,504 -252,100 -593,145 -1024,166 h -1 c -96,5 -186,15 -271,31 -84,16 -163,37 -237,62 -349,120 -576,343 -689,596 47,-44 95,-84 143,-121 65,-50 131,-95 198,-134 343,-201 705,-249 1086,-145 v 0 c 200,43 371,58 513,46 140,-12 251,-52 333,-119 l 28,-23 -4,36 c -26,251 -150,401 -374,497 -220,95 -535,137 -946,175 h -1 c -85,8 -164,22 -237,42 -72,20 -139,45 -199,75 -283,139 -436,375 -482,603 88,-121 200,-213 336,-280 156,-76 345,-119 564,-134 h 1 c 33,-2 65,-6 95,-10 30,-4 59,-9 88,-15 144,-29 258,-75 342,-123 l 46,-26 -25,46 v 0 0 c -13,24 -29,48 -47,73 -18,24 -38,49 -60,74 -113,126 -285,254 -525,369 v 0 0 c -9,4 -17,8 -26,12 -68,30 -170,77 -243,204 -47,81 -107,161 -194,229 -87,68 -200,125 -352,161 v 0 0 0 c -33,8 -65,18 -98,30 -33,12 -66,27 -100,44 -72,37 -146,86 -220,147 634,-117 1084,-262 1349,-436 52,-34 98,-70 135,-106 37,-36 68,-73 91,-112 v 0 0 l 23,-38 7,44 c 30,202 -10,402 -119,603 -108,200 -283,401 -521,607 -189,163 -288,365 -308,593 -4,45 -5,90 -3,137 2,37 5,74 10,112 286,-278 631,-484 1035,-618 81,-27 164,-51 249,-72 85,-21 173,-39 263,-54 v 0 0 l 95,-16 -85,46 c -512,278 -804,688 -877,1229 v 0 c -23,214 -104,404 -243,572 -27,32 -56,64 -87,95 -7,7 -14,14 -21,21 211,-110 414,-323 610,-640 44,-71 87,-147 131,-229 43,-82 86,-168 128,-260 v 0 -1 -1 c 217,-359 512,-599 884,-720 72,-24 147,-43 226,-57 78,-15 159,-25 243,-30 h 1 l 67,-4 -58,34 c -401,236 -628,553 -680,951 -10,77 -14,158 -11,242 3,84 12,171 29,261 v 0 0 c 58,337 60,615 4,834 -52,203 -153,355 -304,456 176,4 336,-136 480,-419 31,-61 61,-128 90,-202 29,-74 58,-154 86,-241 54,-275 151,-471 292,-587 28,-23 57,-42 88,-59 31,-17 64,-30 98,-40 v 0 l 32,-10 -13,31 c -241,579 -254,1057 -39,1434 46,81 102,157 169,229 z"
   class="fil2" />

   <path
   inkscape:connector-curvature="0"
   id="path5326"
   d="m 13062,15638 c 48,-34 97,-64 144,-88 35,-18 69,-33 103,-46 34,-13 68,-23 101,-31 v 0 0 0 c 147,-35 257,-90 340,-155 83,-66 142,-142 186,-221 77,-136 185,-184 256,-216 10,-4 19,-8 26,-12 v 0 0 0 c 235,-114 405,-239 515,-362 21,-24 41,-48 58,-71 6,-8 11,-16 16,-23 -80,40 -180,77 -302,101 -28,6 -58,11 -90,15 -31,4 -64,7 -97,10 h -1 c -216,15 -401,56 -553,131 -152,74 -273,181 -362,326 l -35,57 7,-66 c 28,-257 188,-536 508,-693 62,-31 130,-57 205,-77 74,-20 155,-35 242,-43 h 1 c 408,-38 721,-80 937,-173 202,-87 319,-220 351,-438 -83,58 -190,93 -320,104 -145,13 -318,-2 -521,-46 h -1 c -373,-102 -727,-54 -1063,142 -65,38 -130,82 -195,132 -64,50 -128,105 -191,166 v 0 0 l -46,44 22,-60 c 105,-288 346,-544 733,-678 75,-26 155,-47 242,-63 86,-16 177,-27 275,-31 h 1 c 427,-20 766,-65 1014,-164 227,-90 379,-227 456,-432 -87,68 -196,106 -327,114 -151,10 -332,-20 -542,-87 v 0 c -332,-105 -694,-46 -1083,173 -76,43 -153,92 -231,146 -78,55 -158,116 -238,183 v 0 0 l -42,35 19,-51 c 113,-312 367,-548 766,-667 77,-23 160,-41 248,-55 88,-14 182,-23 281,-27 h 1 c 397,-16 701,-76 912,-192 196,-108 312,-264 347,-481 -93,78 -268,127 -522,131 -55,1 -114,0 -177,-4 -63,-4 -129,-9 -199,-18 v 0 0 0 c -202,-24 -380,-27 -535,-3 -154,25 -287,77 -398,166 l -40,32 16,-48 c 27,-80 92,-145 195,-196 101,-50 238,-88 412,-116 518,-84 864,-233 1039,-441 v 0 c 34,-40 61,-82 82,-126 15,-32 27,-66 36,-100 -98,69 -237,114 -416,135 -198,24 -445,19 -743,-15 l -102,-12 101,-18 c 508,-91 837,-290 984,-599 29,-60 51,-124 66,-192 13,-58 21,-119 24,-184 -174,166 -422,278 -745,338 -66,12 -135,22 -207,30 -72,8 -147,13 -225,16 h -1 l -30,1 17,-25 c 64,-91 170,-186 325,-273 30,-17 62,-33 96,-49 34,-16 69,-32 107,-47 v 0 0 c 261,-106 427,-240 496,-406 65,-156 45,-343 -61,-563 -44,196 -244,382 -599,557 -74,37 -155,73 -242,108 -87,36 -181,71 -282,106 v 0 l -1,1 -102,35 88,-62 c 158,-110 295,-220 410,-329 251,-237 400,-471 446,-701 47,-229 -8,-456 -164,-679 -33,-48 -71,-95 -113,-142 48,345 -75,664 -371,960 -60,60 -127,119 -201,176 -74,58 -155,114 -243,170 v 0 0 l -69,43 49,-65 c 286,-379 354,-718 203,-1017 -29,-58 -67,-115 -113,-170 -38,-46 -82,-90 -131,-134 54,275 10,521 -132,737 -29,44 -62,87 -100,129 -37,42 -79,82 -124,121 v 0 l -41,35 17,-51 c 15,-45 21,-94 18,-144 -1,-10 -1,-20 -3,-30 v 0 l -1,-4 c -66,63 -145,131 -241,201 -106,77 -231,156 -379,231 -211,107 -369,208 -470,307 -99,97 -144,192 -132,291 l 1,10 -9,5 c -78,41 -139,92 -182,153 -44,61 -71,131 -84,211 -32,200 38,366 218,481 35,23 75,43 119,62 44,19 93,36 145,50 h 1 c 220,60 378,122 477,190 103,71 145,151 129,247 -21,126 -98,237 -255,307 -30,13 -63,25 -99,36 -36,10 -75,19 -117,25 h -1 c -123,19 -227,45 -304,88 -75,41 -126,99 -146,181 -22,90 -60,157 -119,199 -59,42 -138,60 -242,53 -102,-7 -196,-7 -283,-1 v 0 0 0 0 c -195,13 -353,59 -474,134 -34,21 -65,45 -93,71 -28,26 -53,54 -76,85 v 0 0 c -5,7 -14,8 -21,3 -7,-5 -8,-14 -3,-21 v 0 0 c 24,-32 50,-62 80,-89 29,-27 62,-52 98,-74 121,-75 277,-122 467,-137 -27,-60 -66,-117 -116,-172 -11,-12 -22,-23 -34,-35 -12,-11 -24,-23 -37,-35 v 0 0 l -31,-29 42,3 c 74,5 144,26 211,63 13,7 26,15 38,23 l 5,4 c -25,-97 -65,-178 -121,-244 v 0 c -12,-14 -25,-28 -39,-41 -14,-13 -29,-25 -44,-37 v 0 l -55,-41 67,14 c 58,13 110,36 155,70 33,25 62,56 87,93 2,-110 -29,-211 -92,-303 -14,-21 -30,-41 -47,-60 -17,-20 -36,-39 -57,-58 h -1 l -34,-31 46,5 c 78,9 158,53 240,131 v 0 c 16,15 32,32 48,49 8,9 17,19 25,29 6,-111 -32,-215 -112,-313 -17,-21 -37,-42 -59,-63 -22,-21 -45,-41 -71,-61 v 0 0 l -36,-27 45,1 c 111,2 207,40 288,115 -12,-83 -53,-168 -123,-254 -16,-20 -34,-40 -53,-60 -19,-20 -40,-40 -62,-60 l -2,-2 -28,-25 38,-1 c 70,-1 132,5 188,20 11,3 22,6 33,10 l 7,2 c -25,-95 -87,-176 -186,-243 -21,-14 -44,-28 -69,-41 -25,-13 -51,-26 -80,-38 v 0 0 l -65,-27 71,-1 c 100,-2 189,17 265,56 8,4 17,9 25,14 -95,-95 -212,-159 -351,-183 -31,-5 -62,-9 -94,-10 -33,-2 -66,-1 -101,1 h -1 c -49,3 -95,5 -139,3 -153,7 -273,29 -361,67 -17,7 -33,15 -47,23 -14,8 -27,17 -39,26 -3,4 -7,7 -10,11 -38,38 -90,61 -148,61 v 0 0 0 0 c -58,0 -110,-24 -148,-62 -11,-11 -20,-22 -28,-35 -70,-51 -125,-74 -167,-69 v 0 c -8,1 -15,3 -21,5 -4,2 -8,4 -12,6 1,7 4,15 7,22 13,31 39,63 79,96 75,60 198,117 374,158 v 0 h 1 v 0 c 48,11 91,20 130,28 46,9 85,17 117,26 82,24 115,58 89,145 -9,31 -20,58 -31,83 -36,77 -83,127 -141,153 v 0 c -58,26 -126,27 -203,4 -26,-8 -52,-18 -80,-31 -82,-38 -156,-23 -235,1 142,653 -172,865 -560,1126 -80,54 -164,110 -247,173 v 0 0 0 c -255,193 -509,434 -657,755 -148,321 -190,724 -23,1242 24,76 51,147 79,214 13,-16 26,-32 40,-47 41,-45 87,-86 139,-123 v 0 0 l 54,-37 -30,58 c -67,127 -74,252 -20,373 55,123 171,244 350,362 175,102 329,270 462,505 118,209 220,471 305,787 11,-263 73,-499 187,-707 130,-239 327,-441 591,-607 198,-146 308,-305 330,-475 4,-33 5,-66 3,-101 v 0 c -2,-34 -8,-69 -17,-104 v 0 0 l -14,-54 40,38 c 240,227 352,516 336,869 -3,68 -11,139 -23,212 -10,60 -24,122 -41,186 177,-116 341,-272 497,-467 166,-208 323,-460 474,-754 56,-108 124,-193 190,-254 13,-12 26,-23 38,-33 12,-10 24,-19 37,-28 v 0 0 l 38,-29 -13,46 c -45,155 -66,333 -59,533 1,38 4,78 7,120 3,41 8,83 13,125 v 0 1 0 c 24,185 22,344 -9,477 -17,75 -43,142 -78,201 z M 9214,14594 c -30,-73 -60,-150 -87,-233 -170,-526 -127,-936 24,-1263 151,-327 408,-571 666,-767 v 0 0 0 c 52,-39 104,-76 155,-111 -15,-13 -32,-25 -49,-37 -32,-21 -66,-40 -103,-56 -190,-82 -446,-90 -769,-20 -103,22 -183,17 -248,-16 -64,-33 -111,-93 -147,-179 -32,-78 -90,-127 -171,-157 -83,-31 -189,-41 -314,-42 h -1 c -43,0 -83,-3 -119,-8 -37,-5 -71,-12 -103,-21 -165,-46 -258,-145 -297,-266 -30,-92 0,-177 91,-263 88,-83 235,-166 444,-258 v 0 c 50,-22 96,-46 137,-71 41,-25 77,-51 109,-79 161,-140 206,-314 145,-508 -24,-77 -62,-143 -114,-196 -52,-54 -120,-95 -203,-125 l -10,-3 v -10 c -2,-100 -61,-187 -173,-268 -115,-83 -286,-159 -510,-234 -157,-53 -293,-112 -409,-173 -105,-55 -193,-111 -268,-163 v 4 0 c 0,11 1,21 2,30 5,51 18,97 39,140 l 24,48 -45,-29 v 0 c -51,-32 -97,-66 -141,-101 -43,-36 -82,-73 -118,-113 -173,-193 -252,-429 -239,-710 -42,51 -79,101 -110,152 -37,61 -66,123 -87,185 -105,318 11,643 350,976 l 58,57 -74,-32 v 0 0 c -95,-42 -184,-86 -266,-132 -82,-46 -157,-95 -225,-145 -336,-249 -505,-547 -508,-895 -35,53 -65,106 -91,158 -122,244 -142,476 -63,696 80,221 262,430 545,628 130,91 281,179 454,265 l 96,48 -106,-20 h -2 v 0 c -105,-20 -203,-41 -295,-63 -91,-22 -176,-46 -255,-71 -377,-121 -602,-275 -674,-463 -73,233 -65,420 22,566 93,154 276,263 550,329 v 0 0 c 39,10 77,20 112,31 36,11 69,23 102,35 166,63 285,142 362,222 l 21,22 -30,3 h -2 c -78,8 -153,14 -225,17 -72,3 -142,3 -209,1 -328,-11 -590,-86 -786,-225 12,63 30,123 51,178 25,65 56,125 93,181 191,283 545,432 1062,448 l 102,3 -99,26 c -289,77 -533,119 -732,124 -180,5 -324,-19 -431,-73 14,33 30,64 50,94 27,41 61,78 100,113 v 0 c 204,180 568,277 1093,284 176,2 318,19 425,54 110,36 183,90 222,165 l 23,45 -44,-25 c -123,-71 -261,-104 -418,-106 -157,-2 -333,28 -529,81 v 0 0 0 c -68,18 -133,34 -195,47 -61,13 -119,23 -174,30 -252,33 -432,10 -536,-53 67,209 204,347 414,425 226,84 536,98 931,56 h 1 c 98,-10 192,-15 281,-14 89,1 174,7 254,18 412,59 698,254 856,547 l 26,48 -47,-28 v 0 0 c -89,-54 -176,-103 -262,-146 -85,-43 -169,-80 -250,-111 -418,-159 -784,-165 -1097,-12 v 0 c -199,97 -373,153 -524,166 -131,11 -244,-10 -340,-65 106,192 277,305 515,361 260,61 601,56 1027,13 h 1 c 97,-10 189,-13 276,-10 88,3 170,12 248,27 402,75 678,293 825,563 l 30,56 -52,-37 v 0 0 c -71,-51 -142,-97 -213,-136 -71,-40 -142,-74 -212,-102 -361,-145 -719,-140 -1073,15 h -1 c -194,73 -364,114 -509,122 -131,8 -242,-11 -332,-56 64,211 199,325 412,381 228,60 543,56 952,34 h 1 c 87,-5 169,-2 245,7 77,9 148,25 214,46 64,21 123,46 177,76 -2,-42 -5,-84 -9,-125 -13,-127 -36,-254 -71,-380 l -12,-42 36,24 c 187,126 279,343 383,590 103,244 219,517 452,758 84,86 164,163 243,229 68,56 134,103 202,140 -130,-448 -121,-803 28,-1064 14,-24 29,-48 45,-71 z m -1297,223 -4,-1 c -162,-51 -351,-65 -567,-48 h -1 c -33,3 -66,4 -97,5 -32,1 -62,0 -91,-1 -124,-6 -229,-28 -314,-55 6,7 13,14 19,21 20,21 43,41 67,62 128,106 314,205 563,283 v 0 0 0 c 7,2 17,5 27,8 75,21 189,54 285,176 44,55 95,109 159,154 -20,-74 -34,-157 -43,-251 -5,-55 -8,-114 -9,-176 -1,-56 0,-114 2,-176 z"
   class="fil3" />

   <path
   inkscape:connector-curvature="0"
   id="path5328"
   d="m 14743,12964 c 27,59 19,96 -24,111 v 0 c 580,13 932,-67 1056,-241 -190,98 -533,141 -1031,130 v 0 z"
   class="fil4" />

   <path
   inkscape:connector-curvature="0"
   id="path5330"
   d="m 14384,12387 c 174,-92 401,-123 682,-121 317,3 554,-83 710,-229 -177,66 -409,99 -698,99 -356,0 -628,50 -815,149 92,-9 132,25 121,102 z"
   class="fil4" />

   <path
   inkscape:connector-curvature="0"
   id="path5332"
   d="m 14816,11363 c 337,1 643,-47 919,-144 -238,180 -564,275 -978,285 81,-36 101,-83 60,-141 z"
   class="fil4" />

   <path
   inkscape:connector-curvature="0"
   id="path5334"
   d="m 14911,10884 c 426,-55 707,-196 844,-424 -159,164 -447,260 -863,289 96,19 103,64 19,135 z"
   class="fil4" />

   <path
   inkscape:connector-curvature="0"
   id="path5336"
   d="m 14901,10144 c 466,-219 724,-421 775,-608 -154,177 -455,346 -904,509 125,-7 168,26 129,99 z"
   class="fil4" />

   <path
   inkscape:connector-curvature="0"
   id="path5338"
   d="m 11550,12253 c 44,6 89,4 135,-7 -66,61 -136,74 -195,40 19,-12 40,-23 61,-33 z m 288,10 c 103,41 202,43 299,6 -89,110 -210,100 -299,-6 z m 472,-21 c 117,-1 206,-32 269,-93 -46,128 -153,174 -269,93 z m 385,-144 c 146,-7 250,-49 310,-126 -33,161 -175,188 -310,126 z m 391,-163 c 144,-9 255,-53 333,-133 -39,169 -191,188 -333,133 z m 425,-206 c 116,-48 186,-144 210,-288 49,163 -33,295 -210,288 z m 264,-436 c 45,-100 54,-205 28,-314 93,107 77,224 -28,314 z m 15,-403 c -17,-103 -74,-175 -173,-216 131,7 222,76 173,216 z m -239,-356 c -27,-104 -98,-157 -212,-159 50,-21 111,-39 161,-12 54,36 58,113 51,171 z m -328,-224 c -69,-86 -150,-121 -243,-105 43,-34 100,-70 157,-59 67,20 82,105 86,165 z"
   class="fil4" />

   <path
   inkscape:connector-curvature="0"
   id="path5340"
   d="m 11653,12434 c 0,-8 6,-15 15,-15 8,0 15,6 15,15 l 5,263 c 0,8 -6,15 -15,15 -8,0 -15,-6 -15,-15 z"
   class="fil5" />

   <path
   inkscape:connector-curvature="0"
   id="path5342"
   d="m 11828,12652 c 2,8 -3,16 -11,18 -8,2 -16,-3 -18,-11 l -55,-222 c -2,-8 3,-16 11,-18 8,-2 16,3 18,11 z"
   class="fil5" />

   <path
   inkscape:connector-curvature="0"
   id="path5344"
   d="m 11558,12647 c -2,8 -9,13 -18,12 -8,-2 -13,-9 -12,-18 l 42,-207 c 2,-8 10,-13 18,-12 8,2 13,9 12,18 z"
   class="fil5" />

   <path
   inkscape:connector-curvature="0"
   id="path5346"
   d="m 12391,12433 c -3,-8 1,-16 9,-19 8,-3 16,1 19,9 l 88,248 c 3,8 -1,16 -9,19 -8,3 -16,-1 -19,-9 z"
   class="fil5" />

   <path
   inkscape:connector-curvature="0"
   id="path5348"
   d="m 12626,12584 c 4,7 2,16 -5,21 -7,4 -16,2 -21,-5 l -122,-193 c -4,-7 -2,-16 5,-21 7,-4 16,-2 21,5 z"
   class="fil5" />

   <path
   inkscape:connector-curvature="0"
   id="path5350"
   d="m 12369,12665 c 1,8 -5,16 -13,17 -8,1 -16,-5 -17,-13 l -26,-209 c -1,-8 5,-16 13,-17 8,-1 16,5 17,13 z"
   class="fil5" />

   <path
   inkscape:connector-curvature="0"
   id="path5352"
   d="m 13124,12192 c -3,-8 0,-16 7,-20 7,-3 16,0 20,7 l 110,239 c 3,8 0,16 -7,20 -7,3 -16,0 -20,-7 z"
   class="fil5" />

   <path
   inkscape:connector-curvature="0"
   id="path5354"
   d="m 13371,12321 c 5,7 4,16 -3,21 -7,5 -16,4 -21,-3 l -139,-181 c -5,-7 -4,-16 3,-21 7,-5 16,-4 21,3 z"
   class="fil5" />

   <path
   inkscape:connector-curvature="0"
   id="path5356"
   d="m 13123,12425 c 2,8 -3,16 -11,18 -8,2 -16,-3 -18,-11 l -45,-206 c -2,-8 3,-16 12,-18 8,-2 16,3 18,11 l 45,206 z"
   class="fil5" />

   <path
   inkscape:connector-curvature="0"
   id="path5358"
   d="m 13785,11757 c -7,-4 -10,-13 -7,-20 4,-7 13,-10 20,-7 l 234,119 c 7,4 10,13 7,20 -4,7 -13,10 -20,7 z"
   class="fil5" />

   <path
   inkscape:connector-curvature="0"
   id="path5360"
   d="m 14059,11705 c 8,2 13,10 11,18 -2,8 -10,13 -18,11 l -222,-56 c -8,-2 -13,-10 -11,-18 2,-8 10,-13 18,-11 z"
   class="fil5" />

   <path
   inkscape:connector-curvature="0"
   id="path5362"
   d="m 13928,11941 c 6,5 7,15 2,21 -5,6 -15,7 -21,2 l -163,-134 c -6,-5 -7,-15 -2,-21 5,-6 15,-7 21,-2 z"
   class="fil5" />

   <path
   inkscape:connector-curvature="0"
   id="path5364"
   d="m 13867,9686 c 8,-3 16,0 20,8 3,8 0,16 -8,20 l -192,83 c -8,3 -16,0 -20,-8 -3,-8 0,-16 8,-20 z"
   class="fil5" />

   <path
   inkscape:connector-curvature="0"
   id="path5366"
   d="m 13774,9525 c 6,-5 16,-5 21,1 5,6 5,16 -1,21 l -169,147 c -6,5 -16,5 -21,-1 -5,-6 -5,-16 1,-21 z"
   class="fil5" />

   <path
   inkscape:connector-curvature="0"
   id="path5368"
   d="m 13656,9749 c -7,4 -16,2 -21,-5 -4,-7 -2,-16 5,-21 l 222,-140 c 7,-4 16,-2 21,5 4,7 2,16 -5,21 z"
   class="fil5" />

   <path
   inkscape:connector-curvature="0"
   id="path5370"
   d="m 14072,10209 c 8,-2 16,3 18,11 2,8 -3,16 -11,18 l -202,51 c -8,2 -16,-3 -18,-11 -2,-8 3,-16 11,-18 z"
   class="fil5" />

   <path
   inkscape:connector-curvature="0"
   id="path5372"
   d="m 14006,10035 c 7,-4 16,-2 21,5 4,7 2,16 -5,21 l -191,118 c -7,4 -16,2 -21,-5 -4,-7 -2,-16 5,-21 z"
   class="fil5" />

   <path
   inkscape:connector-curvature="0"
   id="path5374"
   d="m 13853,10237 c -8,3 -16,0 -20,-8 -3,-8 0,-16 8,-20 l 242,-102 c 8,-3 16,0 20,8 3,8 0,16 -8,20 z"
   class="fil5" />

   <path
   inkscape:connector-curvature="0"
   id="path5376"
   d="m 14207,10722 c 8,0 15,6 16,14 0,8 -6,15 -14,16 l -209,10 c -8,0 -15,-6 -16,-14 0,-8 6,-15 14,-16 z"
   class="fil5" />

   <path
   inkscape:connector-curvature="0"
   id="path5378"
   d="m 14177,10539 c 8,-3 16,1 19,9 3,8 -1,16 -9,19 l -211,78 c -8,3 -16,-1 -19,-9 -3,-8 1,-16 9,-19 z"
   class="fil5" />

   <path
   inkscape:connector-curvature="0"
   id="path5380"
   d="m 13987,10707 c -8,2 -16,-4 -18,-12 -2,-8 4,-16 12,-18 l 257,-52 c 8,-2 16,4 18,12 2,8 -4,16 -12,18 z"
   class="fil5" />

   <path
   inkscape:connector-curvature="0"
   id="path5382"
   d="m 14249,11309 c 8,1 14,8 13,16 -1,8 -8,14 -16,13 l -208,-21 c -8,-1 -14,-8 -13,-16 1,-8 8,-14 16,-13 z"
   class="fil5" />

   <path
   inkscape:connector-curvature="0"
   id="path5384"
   d="m 14248,11123 c 8,-2 16,4 18,12 2,8 -4,16 -12,18 l -220,46 c -8,2 -16,-4 -18,-12 -2,-8 4,-16 12,-18 z"
   class="fil5" />

   <path
   inkscape:connector-curvature="0"
   id="path5386"
   d="m 14035,11261 c -8,0 -15,-6 -16,-14 0,-8 6,-15 14,-16 l 262,-13 c 8,0 15,6 16,14 0,8 -6,15 -14,16 z"
   class="fil5" />

   <path
   inkscape:connector-curvature="0"
   id="path5388"
   d="m 13633,9469 v 0 l -3,1 c -85,55 -186,99 -301,131 41,49 68,95 82,139 13,41 14,79 3,115 -11,36 -33,69 -67,99 -39,35 -93,66 -163,93 4,1 9,3 13,4 23,9 44,23 62,44 32,37 55,93 63,174 8,-3 16,-6 24,-9 14,-4 27,-8 40,-11 69,-14 132,-5 181,30 v 0 0 0 c 11,8 22,18 31,28 9,10 17,22 24,35 33,59 41,139 25,227 10,1 19,2 28,3 14,2 28,5 41,8 69,18 124,54 157,109 v 0 c 1,2 2,4 3,5 9,16 16,33 21,51 2,9 4,18 5,27 6,44 0,91 -16,139 6,8 13,16 18,24 7,10 14,20 20,31 32,54 47,112 43,171 v 1 0 c -1,14 -3,28 -6,41 -3,13 -7,27 -13,40 -25,63 -73,118 -137,163 5,15 9,29 13,43 4,18 8,35 10,52 11,89 -7,172 -58,235 v 0 l -1,1 c -9,11 -18,20 -28,29 -10,9 -21,17 -32,24 -54,35 -123,52 -198,52 -2,7 -4,14 -6,22 -3,11 -7,22 -11,32 -22,53 -55,98 -101,130 v 0 l -1,1 c -13,9 -25,16 -39,23 -13,6 -27,12 -42,16 -68,20 -146,16 -226,-10 -1,4 -3,8 -5,13 -3,9 -7,18 -11,26 -21,43 -52,79 -91,106 v 0 l -1,1 v 0 c -13,8 -26,16 -40,21 -14,6 -28,11 -43,14 -70,17 -150,6 -230,-28 -3,8 -6,16 -10,23 -6,12 -12,24 -18,35 -34,58 -82,100 -141,119 v 0 0 0 c -13,4 -26,7 -39,9 -13,2 -26,2 -40,2 -63,-2 -128,-29 -188,-75 -6,8 -12,16 -17,23 -9,11 -19,22 -28,32 -51,51 -112,82 -179,86 h -1 v 0 c -14,1 -28,0 -42,-1 -14,-2 -27,-4 -41,-8 -63,-18 -121,-61 -169,-121 -6,5 -11,11 -17,15 -10,8 -20,16 -30,24 -54,37 -113,55 -174,49 h -1 c -7,-1 -14,-2 -22,-3 v 0 c -7,-1 -14,-3 -21,-5 -30,-9 -58,-25 -84,-46 8,-7 16,-13 24,-19 21,16 44,28 69,36 6,2 12,3 18,5 v 0 c 6,1 12,2 19,3 h 1 c 54,6 106,-10 154,-43 9,-6 19,-14 28,-22 9,-8 18,-16 26,-25 v 0 0 l 12,-13 11,14 c 47,62 104,106 165,124 12,3 24,6 36,7 12,1 24,2 36,1 h 1 c 59,-3 113,-31 159,-77 9,-9 18,-19 26,-29 8,-11 17,-22 24,-33 l 1,-1 9,-14 13,10 c 59,48 123,76 184,78 12,0 23,0 35,-2 11,-2 23,-4 34,-8 v 0 0 0 c 52,-17 93,-54 124,-106 6,-10 12,-21 17,-32 5,-11 10,-23 14,-36 v 0 0 l 6,-15 15,7 c 79,36 157,48 225,32 13,-3 26,-7 38,-12 12,-5 24,-12 35,-19 v 0 l 1,-1 v 0 c 35,-23 62,-55 81,-94 4,-8 7,-15 10,-23 3,-8 6,-16 9,-25 v 0 0 l 5,-15 15,5 c 79,28 156,34 222,14 13,-4 25,-8 37,-14 12,-6 24,-12 34,-20 l 1,-1 v 0 c 41,-29 71,-69 90,-117 4,-10 7,-19 10,-29 3,-10 6,-20 8,-31 v 0 l 3,-12 h 12 c 74,2 141,-13 193,-47 10,-6 20,-14 29,-22 9,-8 17,-17 25,-26 l 1,-1 v 0 c 46,-57 62,-131 52,-212 -2,-16 -5,-32 -9,-49 -4,-17 -9,-33 -15,-50 v 0 -1 l -4,-11 10,-7 c 64,-43 111,-96 135,-156 5,-11 8,-23 11,-35 3,-12 5,-24 6,-37 v -1 c 4,-53 -10,-106 -39,-154 -5,-9 -12,-19 -19,-28 -7,-9 -14,-18 -22,-27 v 0 l -1,-1 -6,-7 3,-8 c 17,-47 23,-92 18,-133 -1,-8 -3,-16 -5,-24 -4,-15 -10,-30 -18,-44 l -3,-5 v 0 c -29,-47 -77,-79 -139,-95 -12,-3 -25,-6 -38,-8 -13,-2 -27,-3 -41,-4 h -1 l -17,-1 4,-17 c 18,-88 12,-167 -19,-224 -6,-11 -13,-20 -21,-29 -8,-9 -16,-17 -26,-24 v 0 0 0 c -42,-30 -97,-38 -158,-25 -12,2 -24,6 -37,10 -13,4 -25,9 -38,14 l -2,1 -19,9 -2,-21 c -6,-84 -27,-142 -58,-177 -15,-17 -31,-29 -50,-36 -18,-7 -38,-10 -60,-8 -6,0 -12,1 -19,2 -1,0 -1,0 -2,0 -47,9 -98,36 -144,77 -86,75 -155,193 -188,321 -7,25 -12,50 -15,76 -4,26 -6,51 -6,76 v 4 c 0,8 -7,15 -15,15 -8,0 -15,-7 -15,-15 v -4 0 c 1,-27 3,-53 7,-80 4,-26 9,-53 16,-79 35,-133 107,-258 197,-336 50,-44 106,-74 159,-84 102,-32 177,-70 226,-113 30,-26 49,-55 58,-85 9,-30 8,-63 -3,-98 -14,-45 -45,-94 -91,-146 l -16,-18 24,-6 c 173,-45 312,-116 418,-212 96,-87 141,-176 183,-306 l 18,-15 v 0 c 8,-7 16,-14 24,-21 0,2 -1,3 -1,3 -41,154 -93,261 -203,361 -12,11 -24,21 -37,31 l 12,-3 c 28,-7 55,-12 81,-15 135,-19 237,2 279,70 v 0 0 0 c 10,16 16,33 19,52 3,19 2,39 -1,60 -16,96 -97,219 -224,345 18,-3 36,-5 54,-7 32,-3 63,-5 92,-6 154,-3 264,34 297,113 v 0 0 0 c 6,15 10,32 10,49 0,17 -2,35 -8,53 -24,83 -105,180 -227,276 19,1 38,3 55,5 30,4 58,8 85,14 141,29 234,86 250,166 v 0 0 c 4,19 3,38 -2,58 -5,19 -13,39 -25,58 -54,88 -184,178 -361,253 22,4 43,8 63,12 37,8 71,16 103,26 169,50 276,128 280,221 v 0 1 0 c 1,20 -3,39 -11,58 -8,18 -19,37 -35,54 -72,83 -228,155 -430,203 7,8 14,17 21,25 12,15 22,30 32,45 50,79 68,161 48,239 v 1 0 c -7,28 -19,54 -35,78 -16,24 -35,46 -59,66 -115,99 -318,153 -556,147 0,25 0,50 -2,73 -2,28 -5,55 -10,80 -25,133 -86,233 -183,276 v 0 0 c -23,10 -47,17 -71,20 -25,3 -50,3 -76,0 -123,-15 -260,-100 -386,-235 -1,24 -2,48 -4,71 -3,33 -8,64 -14,93 v 0 c -32,153 -106,264 -218,301 v 0 0 0 c -24,8 -48,12 -73,13 -25,1 -50,-1 -76,-7 -124,-27 -255,-127 -371,-279 -2,4 -4,8 -6,11 -12,23 -24,44 -37,64 -13,20 -27,38 -41,56 -70,84 -153,132 -243,132 -8,0 -17,0 -25,-1 -36,-3 -72,-15 -106,-33 -34,-18 -66,-43 -96,-74 -61,-63 -115,-150 -158,-256 v 0 0 0 c 7,-9 13,-18 21,-26 42,109 96,199 158,262 28,29 58,52 89,68 30,16 62,27 94,30 7,1 15,1 22,1 81,0 156,-44 220,-121 13,-16 26,-34 39,-53 13,-19 25,-40 36,-61 5,-10 11,-21 16,-33 l 11,-23 15,20 c 115,156 246,260 368,287 23,5 46,7 68,6 22,-1 44,-5 64,-12 v 0 0 0 c 100,-34 168,-136 198,-279 v 0 c 6,-29 11,-59 14,-90 3,-32 5,-65 5,-99 v -8 -40 l 26,30 c 128,146 269,238 393,254 24,3 47,3 69,0 22,-3 43,-9 63,-17 v 0 0 c 87,-38 143,-130 165,-254 5,-24 8,-50 10,-77 2,-27 3,-55 2,-84 v -2 -16 l 16,1 c 238,8 440,-42 552,-139 21,-18 39,-38 53,-60 14,-21 24,-44 31,-69 v 0 -1 c 18,-70 0,-144 -45,-216 -9,-14 -19,-29 -30,-43 -11,-14 -23,-28 -36,-42 v 0 0 l -18,-19 25,-6 c 209,-46 369,-118 439,-199 13,-15 23,-30 30,-46 6,-15 9,-30 9,-45 v -1 c -4,-79 -103,-147 -259,-194 -31,-9 -65,-18 -100,-25 -36,-7 -73,-14 -113,-19 h -3 l -57,-8 54,-21 c 196,-77 341,-171 397,-261 10,-17 18,-33 22,-49 4,-15 4,-31 1,-46 v 0 0 c -14,-68 -98,-117 -227,-143 -26,-5 -53,-10 -83,-13 -30,-3 -60,-6 -92,-7 h -1 l -42,-2 34,-25 c 135,-100 224,-201 249,-285 4,-15 7,-30 6,-44 0,-13 -3,-26 -8,-38 v 0 0 0 c -28,-67 -128,-98 -269,-95 -28,0 -58,2 -90,6 -31,3 -64,8 -98,14 v 0 h -1 l -49,9 37,-35 c 142,-134 233,-264 249,-362 3,-18 4,-35 1,-50 -2,-15 -7,-29 -15,-41 v 0 0 c -35,-56 -126,-73 -250,-56 -25,4 -51,9 -79,15 -27,6 -56,14 -85,23 z"
   class="fil5" />

   <path
   inkscape:connector-curvature="0"
   id="path5390"
   d="m 13864,15058 c 95,-142 251,-259 467,-353 -252,22 -451,122 -598,299 96,-46 140,-28 130,53 z"
   class="fil4" />

   <path
   inkscape:connector-curvature="0"
   id="path5392"
   d="m 14263,14039 c 637,-32 1015,-141 1135,-328 -189,127 -566,196 -1130,207 79,37 77,77 -5,121 z"
   class="fil4" />

   <path
   inkscape:connector-curvature="0"
   id="path5394"
   d="m 14805,9431 c 372,-331 529,-603 471,-815 -43,236 -232,486 -565,751 68,-21 99,0 94,64 z"
   class="fil4" />

   <path
   inkscape:connector-curvature="0"
   id="path5396"
   d="m 14268,9099 c 211,-257 260,-522 141,-656 38,218 -37,410 -225,575 82,-5 104,7 84,81 z"
   class="fil4" />

   <path
   inkscape:connector-curvature="0"
   id="path5398"
   d="m 7873,15216 c -115,-126 -286,-220 -514,-280 216,-13 402,36 559,147 1,16 2,32 3,48 -46,1 -62,29 -47,85 z"
   class="fil4" />

   <path
   inkscape:connector-curvature="0"
   id="path5400"
   d="m 7328,14266 c -635,62 -1025,9 -1171,-157 205,98 588,111 1148,39 -72,48 -65,88 23,119 z"
   class="fil4" />

   <path
   inkscape:connector-curvature="0"
   id="path5402"
   d="m 6696,13274 c -18,63 -5,98 40,106 v 0 c -572,98 -932,70 -1079,-83 202,69 548,62 1039,-23 z"
   class="fil4" />

   <path
   inkscape:connector-curvature="0"
   id="path5404"
   d="m 6965,12650 c -185,-66 -415,-63 -692,-19 -313,49 -560,0 -736,-123 184,39 419,38 704,-4 353,-52 629,-43 828,27 -92,4 -127,44 -104,119 z"
   class="fil4" />

   <path
   inkscape:connector-curvature="0"
   id="path5406"
   d="m 6388,11700 c -333,50 -643,48 -930,-7 261,143 598,189 1009,138 -86,-24 -112,-67 -80,-131 z"
   class="fil4" />

   <path
   inkscape:connector-curvature="0"
   id="path5408"
   d="m 6224,11241 c -429,9 -728,-90 -897,-296 181,139 480,192 896,159 -93,33 -92,79 1,136 z"
   class="fil4" />

   <path
   inkscape:connector-curvature="0"
   id="path5410"
   d="m 6125,10507 c -493,-148 -778,-311 -856,-487 178,152 501,276 969,371 -125,12 -162,51 -113,117 z"
   class="fil4" />

   <path
   inkscape:connector-curvature="0"
   id="path5412"
   d="m 6115,9788 c -417,-273 -612,-519 -586,-737 78,227 301,447 670,660 -70,-11 -98,15 -84,77 z"
   class="fil4" />

   <path
   inkscape:connector-curvature="0"
   id="path5414"
   d="m 6598,9381 c -246,-224 -334,-479 -236,-628 -6,221 97,400 307,536 -82,7 -102,22 -71,92 z"
   class="fil4" />

   <path
   inkscape:connector-curvature="0"
   id="path5416"
   d="m 9750,12101 c -43,12 -88,17 -134,13 74,51 145,53 199,11 -21,-9 -43,-17 -65,-24 z m -283,52 c -96,55 -194,72 -294,50 104,96 223,68 294,-50 z m -470,48 c -116,16 -209,-2 -279,-53 64,120 176,150 279,53 z m -402,-86 c -146,14 -254,-12 -325,-79 56,154 201,160 325,79 z m -411,-104 c -144,12 -260,-15 -349,-83 63,162 216,158 349,83 z m -450,-141 c -121,-31 -205,-116 -250,-254 -24,168 76,286 250,254 z m -326,-393 c -59,-92 -84,-194 -74,-307 -77,119 -43,233 74,307 z m -74,-397 c 1,-104 48,-184 139,-239 -129,26 -209,108 -139,239 z m 184,-387 c 11,-107 73,-170 187,-189 -52,-14 -115,-23 -161,12 -49,44 -41,120 -25,177 z m 292,-270 c 56,-95 131,-142 225,-140 -48,-27 -109,-55 -164,-35 -63,29 -65,116 -61,175 z"
   class="fil4" />

   <path
   inkscape:connector-curvature="0"
   id="path5418"
   d="m 9674,12296 c -1,-8 -9,-14 -17,-13 -8,1 -14,9 -13,17 l 20,154 c 9,-8 18,-15 27,-23 l -18,-135 z"
   class="fil5" />

   <path
   inkscape:connector-curvature="0"
   id="path5420"
   d="m 9534,12537 c -1,8 5,16 14,16 3,0 6,0 9,-2 l 5,-4 c 1,-2 2,-4 3,-7 l 21,-227 c 1,-8 -5,-16 -14,-16 -8,-1 -15,5 -16,13 l -21,227 z"
   class="fil5" />

   <path
   inkscape:connector-curvature="0"
   id="path5422"
   d="m 9783,12358 -27,-74 c -3,-8 -11,-12 -19,-9 -8,3 -12,11 -9,19 l 30,83 c 8,-7 17,-13 25,-19 z"
   class="fil5" />

   <path
   inkscape:connector-curvature="0"
   id="path5424"
   d="m 8944,12403 c 2,-8 -4,-16 -12,-18 -8,-2 -16,4 -18,12 l -50,258 c -2,8 4,16 12,18 8,1 16,-4 17,-12 z"
   class="fil5" />

   <path
   inkscape:connector-curvature="0"
   id="path5426"
   d="m 8734,12586 c -3,8 0,16 8,20 7,3 16,0 20,-8 l 92,-209 c 3,-7 0,-16 -8,-20 -8,-3 -16,0 -20,8 z"
   class="fil5" />

   <path
   inkscape:connector-curvature="0"
   id="path5428"
   d="m 9000,12629 c 0,8 7,15 15,15 8,0 15,-7 15,-15 l -5,-211 c 0,-8 -7,-15 -15,-15 -8,0 -15,7 -15,15 z"
   class="fil5" />

   <path
   inkscape:connector-curvature="0"
   id="path5430"
   d="m 8183,12272 c 2,-8 -2,-16 -10,-19 -8,-2 -16,2 -19,10 l -74,252 c -2,8 2,16 10,19 8,2 16,-2 18,-10 l 74,-252 z"
   class="fil5" />

   <path
   inkscape:connector-curvature="0"
   id="path5432"
   d="m 7958,12436 c -4,7 -1,16 6,20 7,4 16,1 20,-6 l 111,-200 c 4,-7 1,-16 -6,-20 -7,-4 -16,-1 -20,6 z"
   class="fil5" />

   <path
   inkscape:connector-curvature="0"
   id="path5434"
   d="m 8219,12503 c -1,8 6,15 14,16 8,1 15,-6 16,-14 l 14,-210 c 1,-8 -6,-15 -14,-16 -8,-1 -15,6 -16,14 z"
   class="fil5" />

   <path
   inkscape:connector-curvature="0"
   id="path5436"
   d="m 7466,11939 c 7,-5 8,-14 4,-21 -5,-7 -14,-8 -21,-3 l -214,152 c -7,5 -8,14 -4,21 5,7 14,8 21,4 l 214,-152 z"
   class="fil5" />

   <path
   inkscape:connector-curvature="0"
   id="path5438"
   d="m 7188,11927 c -8,3 -11,12 -8,20 3,8 12,11 19,8 l 211,-88 c 8,-3 11,-12 8,-20 -3,-8 -12,-11 -20,-8 l -211,88 z"
   class="fil5" />

   <path
   inkscape:connector-curvature="0"
   id="path5440"
   d="m 7351,12142 c -5,6 -5,16 1,21 6,6 16,5 21,-1 l 141,-156 c 6,-6 5,-16 -1,-21 -6,-6 -16,-5 -21,1 l -142,156 z"
   class="fil5" />

   <path
   inkscape:connector-curvature="0"
   id="path5442"
   d="m 7081,9903 c -8,-2 -16,3 -18,11 -2,8 3,16 11,18 l 202,54 c 8,2 16,-3 18,-11 2,-8 -3,-16 -11,-18 z"
   class="fil5" />

   <path
   inkscape:connector-curvature="0"
   id="path5444"
   d="m 7149,9730 c -7,-5 -16,-2 -21,5 -4,7 -2,16 5,21 l 189,121 c 7,4 16,2 21,-5 4,-7 2,-16 -5,-21 z"
   class="fil5" />

   <path
   inkscape:connector-curvature="0"
   id="path5446"
   d="m 7299,9934 c 8,3 16,0 20,-8 3,-8 0,-16 -8,-20 l -241,-106 c -8,-3 -16,0 -20,8 -3,8 0,16 8,20 z"
   class="fil5" />

   <path
   inkscape:connector-curvature="0"
   id="path5448"
   d="m 6955,10450 c -8,-1 -16,5 -16,13 -1,8 5,16 13,16 l 208,21 c 8,1 16,-5 16,-13 1,-8 -5,-16 -14,-16 l -208,-21 z"
   class="fil5" />

   <path
   inkscape:connector-curvature="0"
   id="path5450"
   d="m 6994,10268 c -8,-3 -16,0 -20,8 -3,8 0,16 8,20 l 206,89 c 8,3 16,0 20,-8 3,-8 0,-16 -8,-20 z"
   class="fil5" />

   <path
   inkscape:connector-curvature="0"
   id="path5452"
   d="m 7175,10446 c 8,2 16,-3 18,-11 2,-8 -3,-16 -11,-18 l -254,-65 c -8,-2 -16,3 -18,11 -2,8 3,16 11,18 l 254,66 z"
   class="fil5" />

   <path
   inkscape:connector-curvature="0"
   id="path5454"
   d="m 6897,10977 c -8,1 -14,8 -13,16 1,8 8,14 16,13 l 208,-21 c 8,-1 14,-8 13,-16 -1,-8 -8,-14 -16,-13 z"
   class="fil5" />

   <path
   inkscape:connector-curvature="0"
   id="path5456"
   d="m 6899,10792 c -8,-2 -16,3 -18,12 -2,8 3,16 12,18 l 220,46 c 8,2 16,-3 18,-12 2,-8 -4,-16 -12,-18 z"
   class="fil5" />

   <path
   inkscape:connector-curvature="0"
   id="path5458"
   d="m 7112,10930 c 8,0 15,-6 16,-14 0,-8 -6,-15 -14,-16 l -262,-14 c -8,0 -15,6 -16,14 0,8 6,15 14,16 z"
   class="fil5" />

   <path
   inkscape:connector-curvature="0"
   id="path5460"
   d="m 6941,11564 c -8,2 -13,10 -11,18 2,8 10,13 18,11 l 202,-52 c 8,-2 13,-10 11,-18 -2,-8 -10,-13 -18,-11 z"
   class="fil5" />

   <path
   inkscape:connector-curvature="0"
   id="path5462"
   d="m 6915,11380 c -8,0 -15,6 -16,14 0,8 6,15 14,16 l 224,13 c 8,0 15,-6 16,-14 0,-8 -6,-15 -14,-16 z"
   class="fil5" />

   <path
   inkscape:connector-curvature="0"
   id="path5464"
   d="m 7146,11485 c 8,-1 14,-8 13,-16 -1,-8 -8,-14 -16,-13 l -261,26 c -8,1 -14,8 -13,16 1,8 8,14 16,13 z"
   class="fil5" />

   <path
   inkscape:connector-curvature="0"
   id="path5466"
   d="m 7280,9653 v 0 h 3 c 93,42 198,71 317,85 -33,54 -53,104 -61,149 -7,42 -2,80 14,114 16,34 43,63 81,88 43,28 102,51 175,68 -4,2 -8,4 -12,6 -21,12 -40,29 -54,53 -26,41 -40,101 -37,181 -8,-2 -17,-4 -25,-5 -14,-2 -28,-4 -41,-5 -70,-4 -131,14 -175,57 v 0 0 0 c -10,10 -19,21 -27,33 -7,12 -14,24 -19,38 -24,63 -20,143 9,228 -9,2 -18,5 -27,7 -14,4 -27,9 -40,14 -66,28 -115,72 -139,131 v 0 c -1,2 -2,4 -2,6 -7,17 -11,35 -13,54 -1,9 -1,19 -1,28 1,44 13,90 36,135 -5,8 -10,17 -15,26 -6,11 -11,22 -15,33 -23,58 -30,118 -17,176 v 1 0 c 3,14 7,27 12,40 5,13 11,25 18,37 34,58 89,106 159,141 -3,15 -5,30 -6,45 -2,18 -2,36 -2,53 2,90 32,169 92,224 v 0 l 1,1 c 10,9 21,18 32,25 11,7 23,14 35,19 59,27 129,34 203,22 3,7 6,14 9,21 5,10 10,20 16,30 29,49 69,89 119,114 v 0 l 1,1 c 14,7 28,12 42,17 14,4 29,8 43,10 71,10 147,-6 222,-43 2,4 4,8 6,12 5,8 10,16 15,24 27,40 63,71 106,91 v 0 l 2,1 v 0 c 14,7 28,12 43,15 15,4 30,6 45,8 72,6 149,-16 223,-61 4,7 9,15 13,22 7,12 15,22 23,32 43,52 96,87 157,97 v 0 0 0 c 13,2 26,3 40,3 13,0 26,-2 39,-4 62,-12 122,-47 175,-102 7,7 14,14 21,21 11,10 22,19 33,27 58,43 123,65 189,59 h 1 v 0 c 14,-1 28,-4 41,-8 13,-4 26,-8 39,-14 59,-27 111,-78 150,-145 6,5 13,9 19,13 11,7 22,13 33,19 58,29 120,38 180,22 h 1 c 7,-2 14,-4 21,-7 v 0 c 7,-2 13,-5 20,-8 28,-14 54,-33 76,-57 -9,-5 -17,-10 -26,-15 -19,19 -39,35 -63,46 -6,3 -11,5 -17,7 v 0 c -6,2 -12,4 -18,6 v 0 c -52,14 -107,5 -159,-20 -10,-5 -20,-11 -31,-17 -10,-7 -20,-14 -30,-21 v 0 h -1 l -14,-11 -8,16 c -37,69 -87,120 -145,147 -11,5 -22,9 -34,12 -12,3 -24,6 -36,7 h -1 c -59,5 -117,-14 -169,-53 -10,-8 -20,-16 -30,-25 -10,-9 -20,-19 -29,-29 l -1,-1 -11,-12 -11,12 c -52,56 -110,93 -170,104 -11,2 -23,3 -34,3 -11,0 -23,-1 -34,-3 v 0 0 0 c -53,-9 -100,-40 -138,-86 -8,-9 -15,-19 -21,-29 -7,-10 -13,-21 -19,-33 v 0 0 l -8,-14 -14,9 c -73,47 -148,71 -218,65 -13,-1 -27,-3 -40,-7 -13,-3 -26,-8 -38,-13 v 0 l -1,-1 v 0 c -38,-18 -69,-46 -94,-81 -5,-7 -9,-14 -14,-22 -4,-7 -8,-15 -12,-23 v 0 0 l -7,-14 -14,7 c -74,39 -149,56 -218,47 -13,-2 -26,-5 -39,-9 -13,-4 -25,-9 -37,-15 l -1,-1 v 0 c -44,-23 -80,-58 -106,-102 -5,-9 -10,-18 -15,-27 -4,-9 -9,-19 -12,-30 v 0 l -4,-12 -12,2 c -73,13 -141,8 -198,-18 -11,-5 -21,-11 -31,-17 -10,-7 -20,-14 -29,-22 l -1,-1 v 0 c -54,-49 -81,-121 -82,-202 0,-16 0,-33 2,-50 2,-17 4,-34 8,-52 v 0 -1 l 2,-11 -11,-5 c -70,-33 -124,-78 -157,-134 -6,-11 -12,-22 -16,-33 -5,-12 -8,-23 -11,-36 v -1 c -12,-52 -6,-106 15,-158 4,-10 9,-20 14,-31 5,-10 11,-20 18,-30 v 0 -1 l 5,-7 -4,-8 c -24,-44 -36,-88 -37,-129 0,-8 0,-16 1,-24 2,-16 5,-31 11,-46 l 2,-5 v 0 c 21,-51 65,-90 123,-114 11,-5 24,-9 37,-13 13,-4 26,-7 40,-10 h 1 l 17,-3 -6,-16 c -31,-84 -37,-164 -14,-224 4,-11 10,-22 16,-32 6,-10 14,-19 22,-27 v 0 0 0 c 37,-36 91,-52 152,-48 12,1 25,2 38,4 13,2 26,5 40,9 l 2,1 20,6 -2,-21 c -6,-84 6,-144 31,-183 12,-19 27,-33 44,-43 17,-10 37,-15 58,-17 6,0 12,-1 19,0 1,0 1,0 2,0 48,2 102,22 154,55 96,61 181,169 233,290 10,24 19,48 26,73 7,25 13,50 17,74 l 1,4 c 1,8 9,14 17,12 8,-1 14,-9 12,-17 l -1,-4 v 0 c -4,-26 -11,-52 -18,-78 -8,-26 -17,-51 -27,-76 -54,-127 -144,-239 -245,-304 -56,-36 -116,-57 -169,-59 -106,-17 -186,-43 -240,-78 -33,-22 -57,-47 -70,-76 -13,-28 -17,-61 -12,-97 7,-46 30,-99 69,-158 l 13,-21 -24,-3 c -177,-19 -325,-69 -444,-149 -107,-72 -165,-154 -225,-276 l -20,-12 v 0 c -9,-6 -18,-11 -27,-17 1,2 1,3 1,3 63,146 131,244 254,327 13,9 27,18 41,26 l -12,-1 c -29,-2 -56,-3 -82,-3 -137,1 -234,37 -266,110 v 0 0 0 c -7,17 -11,35 -11,54 0,19 3,38 10,59 30,92 128,202 272,309 -19,0 -37,1 -54,1 -32,1 -63,4 -92,8 -153,20 -256,73 -277,156 v 0 0 0 c -4,16 -5,33 -3,50 2,17 7,34 15,51 36,79 131,163 266,240 -19,4 -37,8 -54,13 -29,8 -57,16 -82,26 -135,49 -219,119 -223,201 v 0 0 c -1,19 3,38 10,57 7,18 19,36 33,54 67,79 208,149 394,197 -21,7 -41,14 -61,21 -35,13 -68,27 -98,41 -160,75 -254,167 -245,260 v 0 1 0 c 2,19 9,38 19,56 10,17 25,33 42,48 84,71 248,120 456,137 -6,9 -12,19 -17,28 -9,17 -18,33 -25,50 -37,86 -44,170 -13,244 v 1 0 c 11,26 27,50 46,72 19,21 42,40 68,57 128,82 337,104 572,64 3,25 8,49 13,72 6,27 13,53 22,78 44,128 119,218 221,246 v 0 0 c 24,6 48,9 73,9 25,0 50,-4 75,-11 119,-33 242,-137 347,-289 4,24 9,47 15,69 8,32 17,62 28,90 v 0 c 55,147 144,245 259,266 v 0 0 0 c 24,4 49,5 74,2 25,-3 49,-9 74,-18 118,-45 234,-164 326,-330 3,3 5,7 8,10 15,21 31,40 46,58 16,18 32,34 49,49 19,17 38,32 58,44 7,-7 14,-15 21,-22 -20,-13 -40,-28 -59,-45 -16,-14 -31,-29 -46,-47 -15,-17 -30,-36 -44,-55 -7,-9 -14,-19 -21,-30 l -14,-21 -12,22 c -90,171 -205,294 -322,338 -22,8 -45,14 -67,16 -22,2 -44,2 -65,-2 v 0 0 0 c -104,-19 -186,-110 -237,-247 v 0 c -10,-28 -19,-57 -27,-87 -8,-31 -14,-63 -19,-97 l -1,-8 -6,-39 -22,33 c -105,163 -231,275 -352,309 -23,6 -46,10 -68,10 -22,0 -44,-2 -65,-8 v 0 0 c -92,-25 -160,-108 -201,-227 -8,-23 -15,-49 -21,-75 -6,-27 -11,-54 -14,-83 v -2 l -2,-16 -16,3 c -234,43 -442,23 -566,-57 -24,-15 -44,-32 -61,-51 -17,-19 -31,-40 -40,-64 v 0 -1 c -28,-66 -22,-142 12,-221 7,-16 15,-31 23,-47 9,-16 19,-31 30,-47 v 0 0 l 15,-22 -26,-2 c -213,-15 -382,-62 -464,-132 -15,-13 -27,-27 -36,-41 -8,-14 -14,-28 -15,-43 v -1 c -8,-79 80,-161 228,-230 30,-14 62,-27 96,-40 34,-13 70,-25 108,-36 l 3,-1 56,-16 -56,-13 c -205,-47 -362,-119 -431,-200 -13,-15 -22,-30 -28,-46 -6,-15 -9,-30 -8,-45 v 0 0 c 4,-69 80,-130 203,-175 25,-9 51,-17 80,-25 29,-8 59,-15 90,-21 h 1 l 41,-8 -37,-20 c -148,-79 -252,-166 -288,-245 -7,-15 -11,-29 -13,-43 -2,-13 -1,-26 2,-39 v 0 0 0 c 18,-70 112,-115 252,-134 28,-4 58,-6 89,-7 31,-1 64,-2 99,-1 v 0 h 1 l 50,1 -41,-29 c -160,-111 -269,-227 -300,-321 -6,-17 -9,-34 -9,-50 0,-15 3,-29 8,-42 v 0 0 c 27,-61 114,-91 239,-92 25,0 52,1 80,3 28,2 57,6 88,10 z"
   class="fil5" />

   <path
   inkscape:connector-curvature="0"
   id="path5468"
   d="m 11239,10008 c 10,5 20,10 29,15 l 14,7 c 106,55 214,111 336,128 72,10 138,24 198,39 l -9,-6 c -78,-50 -157,-100 -246,-137 -89,-36 -189,-59 -308,-56 -5,3 -9,6 -14,9 z"
   class="fil3" />

   <path
   inkscape:connector-curvature="0"
   id="path5470"
   d="m 11124,9956 c 27,11 56,23 85,37 93,-69 246,-124 458,-142 v 0 c 42,-4 86,-6 134,-6 47,-1 96,1 148,3 h 1 c 188,11 327,11 419,-6 85,-16 127,-48 127,-103 v -1 c 0,-9 0,-18 0,-27 -2,-53 -18,-94 -48,-122 -30,-28 -74,-44 -132,-46 -11,0 -22,0 -33,0 -379,18 -667,78 -865,174 -38,19 -73,39 -104,60 -31,21 -59,43 -83,67 v 0 0 l -38,36 13,-51 c 11,-41 77,-116 210,-194 26,-15 54,-30 84,-45 31,-15 64,-30 100,-45 v 0 h 1 v 0 c 147,-62 254,-109 320,-152 61,-40 85,-74 72,-112 -2,-7 -5,-15 -9,-21 -12,-23 -29,-40 -51,-48 -23,-8 -53,-7 -89,5 -14,5 -30,11 -46,19 -356,178 -569,359 -645,532 -14,33 -24,66 -28,98 -4,30 -4,61 1,91 z"
   class="fil3" />

   <path
   inkscape:connector-curvature="0"
   id="path5472"
   d="m 10913,10135 v 0 0 0 0 c -50,0 -95,20 -127,53 -33,33 -53,78 -53,127 v 0 0 0 0 c 0,50 20,95 53,127 33,33 78,53 127,53 v 0 0 0 0 c 50,0 95,-20 127,-53 3,-3 6,-6 9,-10 l 1,-1 c 27,-31 43,-72 43,-117 v 0 0 0 0 c 0,-50 -20,-95 -53,-127 -33,-33 -78,-53 -127,-53 z"
   class="fil6" />

   <path
   inkscape:connector-curvature="0"
   id="path5474"
   d="m 11050,10156 c 4,3 8,7 11,11 38,38 61,90 61,148 v 0 0 0 0 c 0,28 -5,55 -15,79 12,-7 25,-13 38,-18 64,-27 144,-47 239,-59 -47,-13 -91,-32 -131,-59 -63,-44 -131,-78 -204,-102 z"
   class="fil3" />

   <path
   inkscape:connector-curvature="0"
   id="path5476"
   d="m 10772,10907 c 36,-3 69,-7 99,-14 78,-17 134,-48 168,-93 -111,-23 -213,-57 -308,-95 -36,-14 -71,-30 -105,-46 53,54 93,109 119,165 7,16 13,32 18,47 4,12 7,23 9,35 z"
   class="fil7" />

   <path
   inkscape:connector-curvature="0"
   id="path5478"
   d="m 10515,10899 c 75,8 143,11 203,10 -153,-115 -297,-186 -434,-213 -145,-29 -283,-10 -413,55 -87,44 -181,74 -280,92 -78,14 -160,21 -245,22 73,27 166,35 278,16 28,-5 58,-12 89,-20 31,-9 63,-19 96,-32 v 0 h 1 v 0 c 130,-50 252,-73 369,-63 116,10 227,53 336,135 z"
   class="fil7" />

   <path
   inkscape:connector-curvature="0"
   id="path5480"
   d="m 10614,9979 c -48,59 -79,109 -92,149 -9,27 -9,50 -1,67 8,17 24,31 49,40 4,2 8,3 13,4 h 1 c 32,10 75,14 128,13 10,-34 28,-64 53,-88 22,-22 49,-39 78,-50 -42,-3 -86,-2 -132,1 -8,1 -15,-6 -16,-14 -1,-8 6,-15 14,-16 110,-8 211,1 304,26 93,25 179,65 257,119 50,35 108,55 172,65 65,10 136,10 213,5 h 1 c 36,-3 71,-3 104,-1 34,2 67,5 98,11 137,24 254,84 350,174 -33,-64 -85,-117 -155,-161 -105,-66 -252,-111 -440,-138 -127,-18 -237,-75 -345,-131 l -14,-7 c -214,-110 -387,-150 -515,-125 -25,5 -48,12 -69,21 -21,9 -40,20 -57,34 z"
   class="fil3" />

   <path
   inkscape:connector-curvature="0"
   id="path5482"
   d="m 10548,10259 c -27,-12 -45,-30 -55,-52 -11,-24 -11,-54 0,-88 13,-39 40,-86 81,-139 -2,0 -5,0 -7,0 -11,0 -21,0 -31,2 -50,7 -91,34 -123,83 l -5,7 h -8 c -96,-5 -157,16 -186,47 v 0 c -2,2 -4,4 -6,7 0,1 -1,1 -1,2 -7,10 -11,20 -12,30 -1,14 3,28 11,43 23,38 80,73 168,86 8,1 14,9 13,17 -1,8 -9,14 -17,13 -98,-15 -162,-55 -189,-100 -12,-20 -17,-41 -16,-61 1,-6 2,-11 3,-17 -212,44 -351,112 -417,204 -64,89 -57,204 20,342 128,-160 284,-237 462,-216 36,4 72,13 110,25 37,12 75,29 114,49 v 0 0 0 c 90,48 183,95 284,136 100,41 208,75 325,98 l 21,4 -11,18 c -36,61 -102,103 -199,125 -35,8 -73,13 -116,16 v 0 0 c -1,0 -1,0 -2,0 v 0 0 0 c -71,4 -154,1 -247,-8 -68,39 -158,57 -271,56 -105,-1 -229,-19 -374,-55 64,96 192,163 378,165 40,1 83,-2 129,-8 v 0 c 46,-6 94,-15 145,-28 v 0 0 0 c 28,-7 54,-15 79,-23 l 19,-6 h 1 c 90,-27 174,-47 269,-3 26,12 52,22 76,29 70,21 131,20 182,-2 v 0 c 51,-23 94,-69 126,-139 11,-24 21,-50 30,-79 19,-64 -6,-89 -69,-108 -30,-9 -68,-17 -114,-26 -38,-8 -82,-16 -131,-28 v 0 h -1 v 0 c -180,-43 -307,-102 -386,-164 -45,-36 -74,-72 -89,-108 -15,-37 -14,-73 2,-105 7,-14 18,-28 31,-40 z"
   class="fil7" />

   <path
   inkscape:connector-curvature="0"
   id="path5484"
   d="m 10705,10284 c -50,0 -91,-4 -124,-13 -17,12 -30,26 -38,41 -4,8 -7,16 -8,24 h 1 c 9,-4 19,-6 29,-8 v 0 c 40,-5 89,11 146,47 -6,-19 -9,-39 -9,-61 v 0 0 0 0 c 0,-10 1,-21 2,-31 z"
   class="fil3" />

   <path
   inkscape:connector-curvature="0"
   id="path5486"
   d="m 11307,9969 c 100,4 187,26 266,58 92,37 172,88 251,139 123,80 240,113 330,109 34,-1 64,-8 88,-19 23,-11 42,-25 54,-44 11,-18 17,-39 16,-63 v -2 c -1,-23 -8,-44 -21,-64 -13,-20 -32,-38 -56,-55 -130,-89 -407,-126 -766,-118 -1,0 -2,0 -3,0 -62,15 -115,34 -160,56 z"
   class="fil3" />

   <path
   inkscape:connector-curvature="0"
   id="path5488"
   d="m 11069,12923 c -5,-7 -3,-16 3,-21 7,-5 16,-3 21,3 99,135 257,217 473,250 219,34 497,17 836,-45 129,-24 254,-38 376,-46 121,-8 238,-10 350,-9 8,0 15,7 15,15 0,8 -7,15 -15,15 -111,0 -227,1 -348,9 -120,8 -244,22 -372,45 -342,63 -624,80 -845,46 -224,-34 -388,-121 -493,-262 z m 2108,295 c 77,-35 126,-98 121,-165 -4,-61 -51,-111 -119,-138 37,36 61,83 65,136 5,64 -21,124 -67,168 z m -1840,-333 c 7,-4 16,-2 21,5 4,7 2,16 -5,21 l -115,69 c -7,4 -16,2 -21,-5 -4,-7 -2,-16 5,-21 z m -102,348 c 3,8 -2,16 -9,19 -8,3 -16,-2 -19,-9 l -46,-137 c -3,-8 2,-16 9,-19 8,-3 16,2 19,9 z m 166,-311 c 6,-5 16,-4 21,2 5,6 4,16 -2,21 l -103,84 c -6,5 -16,4 -21,-2 -5,-6 -4,-16 2,-21 z m -50,355 c 4,7 1,16 -6,20 -7,4 -16,1 -20,-6 l -65,-127 c -4,-7 -1,-16 6,-20 7,-4 16,-1 20,6 z m 123,-327 c 6,-6 15,-6 21,0 6,6 6,15 0,21 l -91,95 c -6,6 -15,6 -21,0 -6,-6 -6,-15 0,-21 z m -5,356 c 5,7 3,16 -4,21 -7,5 -16,3 -21,-4 l -80,-116 c -5,-7 -3,-16 4,-21 7,-5 16,-3 21,4 z m 85,-335 c 5,-7 15,-8 21,-3 7,5 8,15 3,21 l -80,102 c -5,7 -15,8 -21,3 -7,-5 -8,-15 -3,-21 z m 32,351 c 5,6 5,16 -2,21 -6,5 -16,5 -21,-2 l -91,-105 c -5,-6 -5,-16 2,-21 6,-5 16,-5 21,2 z m 59,-335 c 5,-7 14,-8 21,-4 7,5 8,14 4,21 l -75,106 c -5,7 -14,8 -21,4 -7,-5 -8,-14 -4,-21 z m 51,346 c 6,6 6,15 0,21 -6,6 -15,6 -21,0 l -95,-99 c -6,-6 -6,-15 0,-21 6,-6 15,-6 21,0 z m 38,-338 c 4,-7 13,-9 21,-5 7,4 9,13 5,21 l -66,109 c -4,7 -13,9 -21,5 -7,-4 -9,-13 -5,-21 z m 76,338 c 6,5 7,15 1,21 -5,6 -15,7 -21,1 l -102,-90 c -6,-5 -7,-15 -1,-21 5,-6 15,-7 21,-1 z m 20,-335 c 4,-7 13,-10 20,-6 7,4 10,13 6,20 l -63,111 c -4,7 -13,10 -20,6 -7,-4 -10,-13 -6,-20 z m 87,332 c 6,5 7,15 2,21 -5,6 -15,7 -21,2 l -104,-85 c -6,-5 -7,-15 -2,-21 5,-6 15,-7 21,-2 z m 10,-334 c 4,-7 13,-10 20,-6 7,4 10,13 6,20 l -59,112 c -4,7 -13,10 -20,6 -7,-4 -10,-13 -6,-20 z m 96,327 c 7,5 8,14 3,21 -5,7 -14,8 -21,3 l -105,-80 c -7,-5 -8,-14 -3,-21 5,-7 14,-8 21,-3 z m 2,-332 c 4,-7 13,-10 20,-7 7,4 10,13 7,20 l -57,112 c -4,7 -13,10 -20,7 -7,-4 -10,-13 -7,-20 z m 103,322 c 7,5 8,14 3,21 -5,7 -14,8 -21,3 l -106,-77 c -7,-5 -8,-14 -3,-21 5,-7 14,-8 21,-3 z m -4,-331 c 4,-7 13,-11 20,-7 7,4 11,13 7,20 l -54,112 c -4,7 -13,11 -20,7 -7,-4 -11,-13 -7,-20 z m 109,317 c 7,5 9,14 4,21 -5,7 -14,9 -21,4 l -107,-73 c -7,-5 -9,-14 -4,-21 5,-7 14,-9 21,-4 z m -7,-329 c 4,-7 13,-10 20,-7 7,4 10,13 7,20 l -55,111 c -4,7 -13,10 -20,7 -7,-4 -10,-13 -7,-20 z m 108,315 c 7,5 9,14 4,21 -5,7 -14,9 -21,4 l -106,-72 c -7,-5 -9,-14 -4,-21 5,-7 14,-9 21,-4 z m -9,-329 c 4,-7 13,-11 20,-7 7,4 11,13 7,20 l -53,111 c -4,7 -13,11 -20,7 -7,-4 -11,-13 -7,-20 z m 111,311 c 7,4 9,14 4,21 -4,7 -14,9 -21,4 l -106,-69 c -7,-4 -9,-14 -4,-21 4,-7 14,-9 21,-4 z m -10,-327 c 4,-7 13,-11 20,-7 7,4 11,13 7,20 l -53,110 c -4,7 -13,11 -20,7 -7,-4 -11,-13 -7,-20 z m 110,308 c 7,4 9,14 4,21 -4,7 -14,9 -21,4 l -105,-68 c -7,-4 -9,-14 -4,-21 4,-7 14,-9 21,-4 z m 0,-323 c 4,-7 13,-10 20,-6 7,4 10,13 6,20 l -58,107 c -4,7 -13,10 -20,6 -7,-4 -10,-13 -6,-20 z m 95,311 c 7,5 8,14 4,21 -5,7 -14,8 -21,4 l -101,-72 c -7,-5 -8,-14 -4,-21 5,-7 14,-8 21,-4 z m 16,-322 c 4,-7 14,-9 21,-5 7,4 9,14 5,21 l -63,103 c -4,7 -14,9 -21,5 -7,-4 -9,-14 -5,-21 z m 79,313 c 7,5 8,15 3,21 -5,7 -15,8 -21,3 l -97,-75 c -7,-5 -8,-15 -3,-21 5,-7 15,-8 21,-3 z m 32,-320 c 5,-7 14,-8 21,-4 7,5 8,14 4,21 l -68,99 c -5,7 -14,8 -21,4 -7,-5 -8,-14 -4,-21 z m 63,314 c 6,5 7,15 2,21 -5,6 -15,7 -21,2 l -92,-79 c -6,-5 -7,-15 -2,-21 5,-6 15,-7 21,-2 z m 46,-319 c 5,-7 14,-8 21,-3 7,5 8,14 3,21 l -72,95 c -5,7 -14,8 -21,3 -7,-5 -8,-14 -3,-21 z m 50,314 c 6,6 6,15 1,21 -6,6 -15,6 -21,1 l -88,-81 c -6,-6 -6,-15 -1,-21 6,-6 15,-6 21,-1 z m 120,-287 c 5,-6 15,-7 21,-2 6,5 7,15 2,21 l -136,63 c -5,6 -15,7 -21,2 -6,-5 -7,-15 -2,-21 z m 62,301 c 6,6 6,15 0,21 -6,6 -15,6 -21,0 l -170,-99 c -6,-6 -6,-15 0,-21 6,-6 15,-6 21,0 z"
   class="fil5" />

   <path
   inkscape:connector-curvature="0"
   id="path5490"
   d="m 11083,13324 c -2,-6 1,-13 7,-16 6,-2 13,1 16,7 50,124 155,219 316,288 163,70 381,112 656,131 105,7 204,21 300,40 95,18 186,40 273,63 6,2 10,8 9,15 -2,6 -8,10 -15,9 -86,-22 -176,-44 -271,-62 -95,-18 -193,-32 -297,-39 -277,-19 -498,-63 -663,-133 -167,-71 -276,-171 -329,-301 z m 1572,648 c 66,-12 117,-51 127,-104 9,-48 -18,-96 -65,-131 22,35 31,76 23,118 -9,50 -41,92 -85,117 z m -1357,-625 c 6,-2 13,2 15,8 2,6 -2,13 -8,15 l -102,31 c -6,2 -13,-2 -15,-8 -2,-6 2,-13 8,-15 z m -148,249 c 1,7 -4,12 -11,13 -7,1 -12,-4 -13,-11 l -9,-115 c 0,-7 4,-12 11,-13 7,0 12,5 13,11 z m 191,-207 c 6,-3 13,0 16,6 3,6 0,13 -6,16 l -96,44 c -6,3 -13,0 -16,-6 -3,-6 0,-13 6,-16 z m -110,265 c 1,6 -3,13 -9,14 -6,1 -13,-3 -14,-9 l -25,-111 c -1,-6 3,-13 9,-14 6,-1 13,3 14,9 z m 160,-228 c 6,-3 13,-2 16,4 3,6 2,13 -4,16 l -89,55 c -6,4 -13,2 -16,-4 -3,-6 -2,-13 4,-16 z m -75,274 c 2,6 -1,13 -7,15 -6,2 -13,-1 -15,-7 l -39,-105 c -2,-6 1,-13 7,-15 6,-2 13,1 15,7 z m 132,-242 c 5,-4 13,-3 17,2 4,5 3,13 -2,17 l -83,63 c -5,4 -13,3 -17,-2 -4,-5 -3,-13 2,-17 z m -45,278 c 3,6 1,13 -5,16 -6,3 -13,1 -16,-5 l -49,-99 c -3,-6 -1,-13 5,-16 6,-3 13,-1 16,5 z m 112,-248 c 5,-4 13,-4 17,1 4,5 4,13 -1,17 l -79,67 c -5,4 -13,4 -17,-1 -4,-5 -4,-13 1,-17 z m -30,278 c 3,6 1,13 -4,16 -6,3 -13,1 -16,-4 l -54,-95 c -3,-6 -1,-13 4,-16 6,-3 13,-1 16,4 z m 96,-254 c 5,-5 12,-4 17,0 5,5 5,12 0,17 l -73,71 c -5,5 -12,4 -17,0 -5,-5 -5,-12 0,-17 z m -9,277 c 4,5 2,13 -3,17 -5,4 -13,2 -17,-3 l -61,-90 c -4,-5 -2,-13 3,-17 6,-4 13,-2 17,3 z m 83,-255 c 5,-5 12,-5 17,0 5,5 5,12 0,17 l -70,73 c -5,5 -12,5 -17,0 -5,-5 -5,-12 0,-17 z m 1,275 c 4,5 3,13 -3,17 -5,4 -13,3 -17,-3 l -63,-86 c -4,-5 -3,-13 2,-17 5,-4 13,-3 17,3 l 63,86 z m 75,-256 c 4,-5 12,-5 17,-1 5,4 5,12 1,17 l -68,75 c -4,5 -12,5 -17,1 -5,-4 -5,-12 -1,-17 z m 9,272 c 4,5 3,13 -2,17 -5,4 -13,3 -17,-2 l -65,-83 c -4,-5 -3,-13 2,-17 5,-4 13,-3 17,2 z m 68,-257 c 4,-5 12,-5 17,-1 5,4 6,12 1,17 l -66,75 c -4,5 -12,5 -17,1 -5,-4 -6,-12 -1,-17 z m 16,270 c 4,5 4,13 -2,17 -5,4 -13,4 -17,-1 l -67,-80 c -4,-5 -4,-13 2,-17 5,-4 13,-4 17,2 l 67,80 z m 62,-257 c 4,-5 12,-6 17,-2 5,4 6,12 1,17 l -64,76 c -4,5 -12,6 -17,1 -5,-4 -6,-12 -1,-17 l 64,-76 z m 21,267 c 4,5 4,12 -1,17 -5,4 -13,4 -17,-1 l -68,-78 c -4,-5 -4,-13 1,-17 5,-4 13,-4 17,1 z m 60,-256 c 4,-5 12,-6 17,-1 5,4 6,12 1,17 l -64,75 c -4,5 -12,6 -17,1 -5,-4 -6,-12 -1,-17 z m 21,265 c 4,5 4,12 -1,17 -5,4 -13,4 -17,-1 l -68,-77 c -4,-5 -4,-12 1,-17 5,-4 12,-4 17,1 z m 59,-257 c 4,-5 12,-6 17,-1 5,4 6,12 2,17 l -63,75 c -4,5 -12,6 -17,2 -5,-4 -6,-12 -2,-17 l 63,-75 z m 24,263 c 4,5 4,12 -1,17 -5,4 -12,4 -17,-1 l -68,-75 c -4,-5 -4,-12 1,-17 5,-4 12,-4 17,1 z m 58,-255 c 4,-5 12,-6 17,-1 5,4 6,12 1,17 l -63,75 c -4,5 -12,6 -17,1 -5,-4 -6,-12 -1,-17 z m 24,261 c 4,5 4,12 -1,17 -5,4 -12,4 -17,-1 l -68,-74 c -4,-5 -4,-12 1,-17 5,-4 12,-4 17,1 z m 64,-250 c 5,-5 12,-5 17,-1 5,5 5,12 0,17 l -66,71 c -5,5 -12,5 -17,1 -5,-5 -5,-12 -1,-17 l 66,-71 z m 11,260 c 4,5 4,13 -1,17 -5,4 -13,4 -17,-1 l -64,-76 c -4,-5 -4,-13 1,-17 5,-4 13,-4 17,1 z m 77,-246 c 5,-5 12,-4 17,0 5,5 4,12 0,17 l -69,67 c -5,5 -12,4 -17,0 -5,-5 -4,-12 0,-17 l 70,-67 z m -1,258 c 4,5 3,13 -2,17 -5,4 -13,3 -17,-2 l -60,-78 c -4,-5 -3,-13 2,-17 5,-4 13,-3 17,2 z m 88,-241 c 5,-4 13,-4 17,1 4,5 4,13 -1,17 l -73,63 c -5,4 -13,4 -17,-1 -4,-5 -4,-12 1,-17 z m -14,256 c 4,5 2,13 -3,17 -5,4 -13,2 -17,-3 l -56,-79 c -4,-5 -3,-13 3,-17 5,-4 13,-2 17,3 z m 99,-237 c 5,-4 13,-3 17,2 4,5 3,13 -2,17 l -75,59 c -5,4 -13,3 -17,-2 -4,-5 -3,-13 2,-17 z m -24,253 c 4,6 2,13 -4,17 -6,4 -13,2 -17,-4 l -52,-80 c -4,-6 -2,-13 4,-17 6,-4 13,-2 16,4 l 52,80 z m 150,-199 c 5,-4 13,-3 17,3 4,5 3,13 -3,17 l -118,22 c -5,4 -13,3 -17,-3 -4,-5 -3,-13 3,-17 z m -12,246 c 3,6 1,13 -4,16 -6,3 -13,2 -16,-4 l -112,-110 c -3,-6 -2,-13 4,-16 6,-3 13,-1 16,4 z"
   class="fil5" />

   <path
   inkscape:connector-curvature="0"
   id="path5492"
   d="m 10943,13590 c -1,-5 2,-11 8,-12 5,-1 11,2 12,8 25,109 99,201 222,279 125,79 299,143 523,195 85,20 166,45 242,72 76,27 148,58 216,88 5,2 7,8 5,13 -2,5 -8,7 -13,5 -68,-30 -139,-60 -215,-87 -76,-27 -155,-52 -239,-72 -226,-53 -402,-118 -529,-198 -128,-81 -205,-177 -231,-292 z m 1209,743 c 56,-1 103,-26 118,-69 14,-38 -2,-82 -36,-116 13,32 15,67 4,100 -14,40 -46,70 -86,85 z m -1035,-695 c 5,-1 10,3 11,9 1,5 -3,11 -9,11 l -88,12 c -5,1 -11,-3 -11,-9 -1,-6 3,-11 9,-11 z m -155,185 c 0,5 -5,10 -11,9 -5,0 -10,-5 -9,-11 l 8,-96 c 1,-6 5,-10 11,-9 5,0 10,5 9,11 z m 185,-146 c 5,-2 11,2 12,7 1,5 -2,11 -7,12 l -85,24 c -5,1 -11,-2 -12,-7 -1,-5 2,-11 7,-12 z m -126,204 c 0,5 -4,10 -9,11 -5,0 -10,-4 -11,-9 l -6,-95 c 0,-6 4,-10 9,-11 6,0 10,4 11,9 z m 162,-167 c 5,-2 11,0 13,5 2,5 0,11 -5,13 l -81,33 c -5,2 -11,0 -13,-5 -2,-5 0,-11 5,-13 l 81,-34 z m -98,216 c 1,5 -2,11 -8,12 -5,1 -11,-3 -12,-8 l -18,-92 c -1,-5 2,-11 8,-12 5,-1 11,3 12,8 z m 141,-182 c 5,-3 11,-1 13,4 3,5 1,11 -4,14 l -76,41 c -5,3 -11,1 -14,-4 -3,-5 -1,-11 4,-14 l 76,-41 z m -74,223 c 2,5 -1,11 -7,13 -5,2 -11,-1 -12,-7 l -27,-88 c -2,-5 1,-11 7,-12 5,-2 11,1 12,7 l 27,89 z m 126,-189 c 5,-3 11,-1 14,3 3,5 1,11 -3,14 l -74,45 c -5,3 -11,1 -14,-3 -3,-5 -1,-11 3,-14 z m -61,225 c 2,5 -1,11 -6,13 -5,2 -11,-1 -13,-6 l -32,-86 c -2,-5 1,-11 6,-13 5,-2 11,1 13,6 z m 113,-196 c 4,-3 11,-2 14,2 3,4 2,11 -2,14 l -70,49 c -5,3 -11,2 -14,-2 -3,-4 -2,-11 2,-14 z m -44,227 c 2,5 0,11 -5,13 -5,2 -11,0 -13,-5 l -38,-82 c -2,-5 0,-11 5,-13 5,-2 11,0 13,5 z m 102,-199 c 4,-3 11,-2 14,2 3,4 2,11 -2,14 l -68,51 c -4,3 -11,3 -14,-2 -3,-4 -2,-11 2,-14 z m -36,226 c 3,5 1,11 -4,13 -5,2 -11,1 -13,-4 l -41,-79 c -3,-5 -1,-11 4,-14 5,-3 11,-1 13,4 z m 95,-201 c 4,-3 11,-3 14,2 3,4 3,11 -2,14 l -66,52 c -4,3 -11,3 -14,-2 -3,-4 -3,-11 2,-14 z m -29,225 c 3,5 1,11 -4,14 -5,3 -11,1 -14,-4 l -43,-77 c -3,-5 -1,-11 4,-14 5,-3 11,-1 14,4 z m 90,-203 c 4,-3 11,-3 14,1 4,4 3,11 -1,14 l -64,53 c -4,3 -11,3 -14,-1 -4,-4 -3,-11 1,-14 z m -23,224 c 3,5 1,11 -4,14 -5,3 -11,1 -14,-3 l -45,-75 c -3,-5 -1,-11 3,-14 5,-3 11,-1 14,3 l 45,75 z m 86,-203 c 4,-4 10,-3 14,1 4,4 3,11 -1,14 l -63,54 c -4,4 -10,3 -14,-1 -4,-4 -3,-11 1,-14 z m -18,223 c 3,5 1,11 -3,14 -5,3 -11,2 -14,-3 l -46,-73 c -3,-5 -1,-11 3,-14 5,-3 11,-1 14,3 z m 84,-203 c 4,-4 10,-3 14,1 4,4 3,11 -1,14 l -63,54 c -4,4 -11,3 -14,-1 -4,-4 -3,-10 1,-14 l 63,-53 z m -18,221 c 3,5 2,11 -3,14 -5,3 -11,1 -14,-3 l -46,-72 c -3,-5 -1,-11 3,-14 5,-3 11,-2 14,3 l 45,72 z m 83,-204 c 4,-4 10,-3 14,1 4,4 3,10 -1,14 l -62,54 c -4,4 -10,3 -14,-1 -4,-4 -3,-10 1,-14 z m -15,220 c 3,5 2,11 -3,14 -5,3 -11,2 -14,-3 l -46,-71 c -3,-5 -2,-11 3,-14 5,-3 11,-2 14,3 z m 81,-203 c 4,-4 11,-3 14,1 4,4 3,10 -1,14 l -62,53 c -4,4 -10,3 -14,-1 -4,-4 -3,-10 1,-14 z m -15,218 c 3,5 2,11 -3,14 -5,3 -11,2 -14,-3 l -46,-70 c -3,-5 -2,-11 3,-14 5,-3 11,-2 14,3 z m 86,-197 c 4,-3 11,-3 14,2 3,4 3,11 -2,14 l -64,49 c -4,4 -11,3 -14,-2 -3,-4 -3,-11 2,-14 z m -25,215 c 3,5 1,11 -3,14 -5,3 -11,1 -14,-3 l -42,-71 c -3,-5 -1,-11 3,-14 5,-3 11,-1 14,3 z m 96,-192 c 5,-3 11,-2 14,2 3,5 2,11 -3,14 l -66,46 c -5,3 -11,2 -14,-3 -3,-5 -2,-11 2,-14 l 66,-46 z m -35,212 c 3,5 1,11 -4,14 -5,3 -11,1 -14,-4 l -39,-72 c -3,-5 -1,-11 4,-14 5,-3 11,-1 14,4 z m 105,-187 c 5,-3 11,-1 14,3 3,5 1,11 -3,14 l -68,42 c -5,3 -11,2 -14,-3 -3,-5 -2,-11 3,-14 z m -45,209 c 2,5 0,11 -5,13 -5,2 -11,0 -13,-5 l -35,-73 c -2,-5 0,-11 5,-13 5,-2 11,0 13,5 z m 113,-182 c 5,-3 11,-1 14,4 3,5 1,11 -4,14 l -69,39 c -5,3 -11,1 -14,-4 -3,-5 -1,-11 4,-14 z m -53,205 c 2,5 0,11 -5,13 -5,2 -11,0 -13,-5 l -32,-73 c -2,-5 0,-11 5,-13 5,-2 11,0 13,5 z m 150,-144 c 5,-2 11,0 13,5 2,5 0,11 -5,13 l -100,2 c -5,3 -11,1 -13,-4 -2,-5 0,-11 5,-13 l 100,-2 z m -42,201 c 2,5 -1,11 -6,13 -5,2 -11,-1 -13,-6 l -78,-106 c -2,-5 0,-11 6,-13 5,-2 11,0 13,6 z"
   class="fil5" />

   <path
   inkscape:connector-curvature="0"
   id="path5494"
   d="m 9054,13841 c 6,-6 5,-16 -1,-21 -1,-1 -2,-1 -3,-2 0,8 1,17 2,25 z m -33,-8 c -111,117 -272,180 -484,193 -101,6 -213,0 -337,-17 8,11 16,22 24,33 115,14 220,19 315,14 208,-12 370,-72 485,-183 -1,-13 -2,-26 -3,-39 z m -1038,-41 c 6,5 12,9 18,14 l -2,-5 c -3,-7 -10,-11 -17,-10 z m 107,91 c 19,18 37,37 54,57 0,-1 0,-2 -1,-3 l -46,-117 c -3,-8 -12,-12 -19,-9 -8,3 -12,12 -8,19 l 20,52 z m 701,-104 c -7,-5 -16,-4 -21,3 -5,7 -4,16 3,21 l 107,80 c 7,5 16,4 21,-3 5,-7 4,-16 -3,-21 z m 68,356 c -3,8 0,16 8,20 8,3 16,0 20,-8 l 59,-132 c 3,-8 0,-16 -8,-20 -8,-3 -16,0 -20,8 z m -136,-325 c -6,-6 -15,-6 -21,0 -6,6 -6,15 0,21 l 95,93 c 6,6 15,6 21,0 6,-6 6,-15 0,-21 z m 16,359 c -4,7 -3,16 4,21 7,4 16,2 21,-5 l 77,-120 c 4,-7 2,-16 -4,-21 -7,-4 -16,-2 -21,4 l -77,120 z m -91,-337 c -5,-6 -15,-8 -21,-2 -6,5 -8,15 -2,21 l 82,103 c 5,6 15,8 21,2 6,-5 8,-15 2,-21 z m -29,355 c -5,6 -5,16 2,21 6,5 16,5 21,-2 l 91,-108 c 5,-6 5,-16 -2,-21 -6,-5 -16,-5 -21,2 l -90,108 z m -52,-341 c -4,-7 -14,-9 -21,-5 -7,4 -9,14 -5,21 l 70,110 c 4,7 14,9 21,5 7,-4 9,-14 5,-21 z m -65,347 c -6,6 -6,15 0,21 6,6 15,6 21,1 l 100,-96 c 6,-6 6,-15 0,-21 -6,-6 -15,-6 -21,0 l -100,96 z m -27,-339 c -4,-7 -13,-10 -20,-6 -7,4 -10,13 -6,20 l 64,112 c 4,7 13,10 20,6 7,-4 10,-13 6,-20 z m -83,339 c -6,5 -7,15 -2,21 5,6 15,7 21,2 l 104,-89 c 6,-5 7,-15 2,-21 -5,-6 -15,-7 -21,-2 z m -5,-340 c -4,-7 -13,-11 -20,-7 -7,4 -11,12 -7,20 l 56,115 c 4,7 13,11 20,7 7,-4 11,-12 7,-20 z m -96,-6 c -3,-8 -12,-11 -20,-8 -8,3 -11,12 -8,20 l 52,116 c 3,8 12,11 20,8 8,-3 11,-12 8,-20 z m -97,-11 c -3,-8 -12,-11 -20,-8 -8,3 -11,12 -8,20 l 48,117 c 3,8 12,11 20,8 8,-3 11,-12 8,-20 z"
   class="fil5" />

   <path
   inkscape:connector-curvature="0"
   id="path5496"
   d="m 9264,13132 c -134,219 -130,474 14,764 51,-261 117,-453 196,-575 -55,35 -91,93 -141,149 -80,91 -115,-28 -75,-328 z"
   class="fil4" />

   <path
   inkscape:connector-curvature="0"
   id="path5498"
   d="m 9505,14664 c -34,-77 -10,-174 43,-304 66,-159 56,-362 4,-597 -54,-244 -43,-434 25,-568 -21,144 -19,325 33,539 17,72 57,159 51,272 -7,113 -2,188 62,188 117,0 179,-77 188,-188 48,81 19,238 -174,366 -85,57 -179,111 -232,293 z"
   class="fil4" />

   <path
   inkscape:connector-curvature="0"
   id="path5500"
   d="m 9924,13310 c -33,207 -33,413 0,620 50,-100 79,-252 87,-456 -54,142 -83,87 -87,-164 z"
   class="fil4" />

   <path
   inkscape:connector-curvature="0"
   id="path5502"
   d="m 10150,12356 c -283,186 -417,376 -403,570 71,-100 190,-181 357,-245 370,-141 645,-335 825,-580 -207,185 -466,346 -781,474 -223,90 -227,17 3,-220 z"
   class="fil4" />

   <path
   inkscape:connector-curvature="0"
   id="path5504"
   d="m 10352,12685 c -228,187 -238,575 -33,1163 37,-59 93,-112 138,-182 136,-208 173,-452 144,-713 -103,330 -198,466 -276,398 -124,-107 -110,-470 27,-667 z"
   class="fil4" />

   <path
   inkscape:connector-curvature="0"
   id="path5506"
   d="m 10479,13793 c -35,93 -54,219 -57,380 75,-38 146,-127 213,-268 -137,151 -189,114 -156,-112 z"
   class="fil4" />

   <path
   inkscape:connector-curvature="0"
   id="path5508"
   d="m 10773,14029 c -13,60 -13,139 0,238 43,-30 78,-91 106,-183 -70,105 -106,87 -106,-54 z"
   class="fil4" />

   <path
   inkscape:connector-curvature="0"
   id="path5510"
   d="m 10701,14440 c -13,60 -13,139 0,238 43,-30 78,-91 106,-183 -70,105 -106,87 -106,-54 z"
   class="fil4" />

   <path
   inkscape:connector-curvature="0"
   id="path5512"
   d="m 10916,12610 c -26,56 -42,133 -51,232 48,-20 95,-73 143,-157 -91,88 -122,62 -92,-75 z"
   class="fil4" />

   <path
   inkscape:connector-curvature="0"
   id="path5514"
   d="m 11340,12225 c -86,53 -153,134 -201,243 -18,-95 -10,-185 24,-270 -5,95 25,103 103,42 24,-19 53,-17 74,-15 z"
   class="fil4" />

   <path
   inkscape:connector-curvature="0"
   id="path5516"
   d="m 10661,11794 c 200,26 272,-51 216,-231 v 0 c 7,129 -65,206 -216,231 z"
   class="fil4" />

   <path
   inkscape:connector-curvature="0"
   id="path5518"
   d="m 10982,11701 c 127,-34 151,-98 72,-192 v 0 c 36,76 12,140 -72,192 z"
   class="fil4" />

   <path
   inkscape:connector-curvature="0"
   id="path5520"
   d="m 11793,11656 c -123,17 -214,-33 -272,-148 29,182 120,231 272,148 z"
   class="fil4" />

   <path
   inkscape:connector-curvature="0"
   id="path5522"
   d="m 11808,11537 c -82,35 -161,22 -236,-41 70,140 150,106 236,41 z"
   class="fil4" />

   <path
   inkscape:connector-curvature="0"
   id="path5524"
   d="m 11569,11709 c -93,-79 -120,-141 -79,-187 -30,-77 -8,-140 67,-190 -131,43 -159,109 -112,189 -37,107 -5,167 124,188 z"
   class="fil4" />

   <path
   inkscape:connector-curvature="0"
   id="path5526"
   d="m 11274,11394 c -62,10 -108,-2 -138,-34 v 0 c 119,14 183,-27 193,-122 108,8 147,-43 116,-151 72,-3 115,-32 129,-86 17,64 -13,101 -88,112 65,108 24,160 -125,157 -10,58 -27,93 -51,106 15,71 -25,117 -120,139 v 0 c 58,-28 85,-68 82,-120 v 0 z"
   class="fil4" />

   <path
   inkscape:connector-curvature="0"
   id="path5528"
   d="m 11950,10785 c -22,56 -81,77 -177,64 53,29 94,39 124,32 -33,55 -104,75 -213,60 138,74 212,53 222,-63 28,-11 43,-42 45,-93 v 0 z"
   class="fil4" />

   <path
   inkscape:connector-curvature="0"
   id="path5530"
   d="m 11407,11687 c -74,108 -50,173 71,192 v 0 c -77,-34 -101,-98 -71,-193 v 0 z"
   class="fil4" />

   <path
   inkscape:connector-curvature="0"
   id="path5532"
   d="m 11492,11791 c 21,129 83,159 184,91 v 0 c -79,29 -140,-2 -184,-91 z"
   class="fil4" />

   <path
   inkscape:connector-curvature="0"
   id="path5534"
   d="m 11005,11170 c 43,72 115,106 216,103 -51,-19 -84,-56 -97,-111 -32,31 -72,34 -119,8 z"
   class="fil4" />

   <path
   inkscape:connector-curvature="0"
   id="path5536"
   d="m 10850,11238 c 43,72 115,106 216,103 -51,-19 -84,-56 -97,-111 -32,31 -72,34 -119,8 z"
   class="fil4" />

   <path
   inkscape:connector-curvature="0"
   id="path5538"
   d="m 11150,11115 c 41,38 93,47 157,26 -36,-3 -64,-21 -82,-53 -15,26 -40,35 -74,27 z"
   class="fil4" />

   <path
   inkscape:connector-curvature="0"
   id="path5540"
   d="m 11255,11048 c 43,35 95,41 158,17 -36,-1 -65,-17 -85,-48 -13,27 -38,37 -73,31 z"
   class="fil4" />

   <path
   inkscape:connector-curvature="0"
   id="path5542"
   d="m 10133,14194 c -85,124 -107,277 -34,447 108,248 139,412 62,507 -36,-104 -91,-195 -152,-281 -151,-215 -138,-399 -28,-616 -289,267 -49,674 13,773 119,192 181,308 166,364 243,-134 315,-391 215,-770 1,340 -56,518 -173,533 98,-145 94,-318 -11,-517 -86,-164 -106,-311 -58,-440 z"
   class="fil4" />

   <path
   inkscape:connector-curvature="0"
   id="path5544"
   d="m 9102,13218 c -75,-8 -156,-14 -241,-17 -112,-4 -220,-16 -322,-33 -102,-16 -200,-37 -294,-58 -7,-2 -11,-8 -10,-15 1,-7 8,-11 15,-10 93,21 190,42 293,58 102,16 208,28 319,32 88,3 171,9 249,18 -3,8 -6,16 -9,25 z m -44,147 c 4,-15 7,-29 11,-44 l -18,23 c -5,6 -4,14 2,18 2,1 3,2 5,2 z m 66,-205 c 3,-8 6,-15 9,-23 l -75,-80 c -5,-5 -13,-6 -18,-1 -5,5 -6,13 -1,18 l 76,81 c 2,2 5,4 8,4 z m -890,-195 c -71,15 -124,58 -132,115 -8,52 22,103 74,138 -24,-37 -36,-81 -29,-126 8,-54 41,-99 88,-128 z m 750,385 c -4,6 -12,6 -18,2 -6,-4 -6,-13 -2,-18 l 67,-83 c 4,-6 12,-6 18,-2 6,4 6,12 2,18 z m -31,-283 c -5,-5 -4,-13 1,-18 5,-5 13,-5 18,1 l 75,80 c 5,5 5,13 -1,18 -5,5 -13,5 -18,0 l -75,-80 z m -55,277 c -4,5 -12,6 -18,2 -5,-4 -6,-12 -2,-18 l 65,-83 c 4,-6 13,-7 18,-2 6,4 6,12 2,18 z m -35,-281 c -5,-5 -5,-13 0,-18 5,-5 13,-5 18,0 l 76,78 c 5,5 5,13 0,18 -5,5 -13,5 -18,0 z m -53,275 c -4,6 -13,6 -18,2 -6,-4 -6,-12 -2,-18 l 65,-82 c 4,-5 12,-6 18,-2 5,4 6,12 2,18 z m -34,-279 c -5,-5 -5,-13 0,-18 5,-5 13,-5 18,0 l 75,77 c 5,5 5,13 0,18 -5,5 -13,5 -18,0 z m -61,270 c -5,5 -13,6 -18,1 -5,-5 -6,-13 -1,-18 l 69,-78 c 5,-5 13,-6 18,-1 5,5 6,13 1,18 z m -20,-278 c -5,-5 -4,-13 1,-18 5,-5 13,-4 18,1 l 71,79 c 5,5 4,13 -1,18 -5,5 -13,4 -18,-1 z m -74,266 c -5,5 -13,5 -18,0 -5,-5 -5,-13 0,-18 l 72,-74 c 5,-5 13,-5 18,0 5,5 5,13 0,18 z m -7,-277 c -4,-5 -4,-13 2,-18 6,-4 14,-4 18,2 l 67,81 c 4,5 4,14 -2,18 -6,5 -14,4 -18,-2 z m -87,262 c -5,5 -13,4 -18,-1 -5,-5 -5,-13 1,-18 l 76,-70 c 5,-5 13,-5 18,1 5,5 5,13 -1,18 z m 6,-275 c -4,-6 -3,-14 3,-18 6,-4 14,-3 18,3 l 62,83 c 4,6 3,14 -3,18 -6,4 -14,3 -18,-3 z m -99,258 c -5,5 -14,4 -18,-1 -5,-5 -4,-14 1,-18 l 78,-66 c 6,-5 13,-4 18,1 5,5 4,14 -2,18 l -78,66 z m 17,-272 c -4,-6 -2,-14 3,-18 6,-4 14,-3 18,3 l 59,84 c 4,6 3,14 -3,18 -6,4 -14,3 -18,-3 z m -154,218 c -6,4 -14,3 -18,-3 -4,-6 -3,-14 2,-18 l 125,-27 c 6,-4 14,-3 18,2 4,6 3,14 -2,18 l -125,27 z m 5,-264 c -4,-6 -2,-14 4,-18 6,-4 14,-2 18,4 l 124,115 c 4,6 2,14 -4,18 -6,4 -14,2 -18,-4 z"
   class="fil5" />

   <path
   inkscape:connector-curvature="0"
   id="path5546"
   d="m 10913,10222 v 0 0 0 0 c -25,0 -49,10 -65,27 -17,17 -27,40 -27,65 v 0 0 0 0 c 0,25 10,49 27,65 17,17 40,27 65,27 v 0 0 0 0 c 25,0 49,-10 65,-27 2,-2 3,-3 5,-5 h 1 c 14,-16 22,-37 22,-60 v 0 0 0 0 c 0,-25 -10,-49 -27,-65 -17,-17 -40,-27 -65,-27 z"
   class="fil0" />

   <path
   inkscape:connector-curvature="0"
   id="path5548"
   d="m 10887,10244 v 0 0 0 0 c -12,0 -24,5 -32,13 -8,8 -13,19 -13,32 v 0 0 0 0 c 0,12 5,24 13,32 8,8 19,13 32,13 v 0 0 0 0 c 12,0 24,-5 32,-13 1,-1 2,-2 2,-2 v 0 c 7,-8 11,-18 11,-29 v 0 0 0 0 c 0,-12 -5,-24 -13,-32 -8,-8 -19,-13 -32,-13 z"
   class="fil8" />

   <g
   id="g5572">
    <path
   inkscape:connector-curvature="0"
   id="path5550"
   d="m 5734,21079 c 14,-295 -99,-641 -342,-1035 -63,-102 -108,-192 -134,-273 -27,-83 -33,-155 -18,-219 l 12,-48 21,45 c 37,78 100,151 186,223 87,73 197,145 328,222 311,182 512,426 599,667 51,141 64,282 36,410 l -2,9 h -114 v 0 h -573 z"
   class="fil5" />

    <path
   inkscape:connector-curvature="0"
   id="path5552"
   d="m 6073,18727 c -1,-35 -2,-70 -2,-106 0,-60 1,-123 2,-188 5,-270 10,-573 -64,-826 -11,-36 -23,-72 -37,-107 l -18,-44 42,21 c 185,94 337,327 457,700 23,72 45,150 66,232 21,83 40,170 58,263 v 0 0 c 78,400 181,753 310,1059 129,305 283,562 463,772 l 44,51 -63,-23 c -563,-206 -946,-570 -1131,-1094 -37,-106 -67,-218 -88,-336 -21,-118 -34,-243 -38,-374 z"
   class="fil5" />

    <path
   inkscape:connector-curvature="0"
   id="path5554"
   d="m 7196,18600 v -1 c -3,-29 -5,-62 -7,-96 -11,-151 -23,-323 -86,-458 -2,-4 -4,-8 -6,-12 l -23,-46 47,23 c 100,48 189,168 267,359 15,36 29,76 44,118 14,42 28,87 41,134 v 0 0 0 c 83,292 224,703 372,990 29,56 57,106 86,151 28,44 56,81 84,110 v 0 0 l 55,55 -73,-26 c -312,-110 -567,-480 -701,-863 -26,-74 -48,-149 -64,-223 -17,-74 -28,-146 -34,-215 v 0 z"
   class="fil5" />

    <path
   inkscape:connector-curvature="0"
   id="path5556"
   d="m 7164,16148 v 0 l -51,-50 68,20 c 509,149 863,513 1039,1092 34,112 61,233 82,361 20,128 34,265 41,409 v 1 c 16,364 42,683 85,957 43,273 102,500 186,682 l 29,63 -55,-41 c -201,-149 -358,-351 -473,-605 -114,-253 -186,-559 -215,-917 -54,-658 -197,-1183 -427,-1575 -45,-76 -93,-147 -144,-213 -51,-66 -106,-127 -163,-183 z"
   class="fil5" />

    <path
   inkscape:connector-curvature="0"
   id="path5558"
   d="m 8306,15165 1,1 c 52,58 100,120 144,186 44,66 85,136 122,211 190,381 282,870 259,1467 -11,272 -21,576 6,873 27,296 90,586 227,832 l 45,80 -71,-58 v 0 0 c -60,-51 -119,-115 -176,-193 -56,-77 -110,-166 -161,-265 -258,-507 -426,-1282 -341,-2036 20,-179 18,-362 1,-544 -17,-182 -48,-364 -85,-539 l -14,-65 44,49 z"
   class="fil5" />

    <path
   inkscape:connector-curvature="0"
   id="path5560"
   d="m 10193,17119 c -12,284 -167,554 -497,834 l -69,59 42,-81 c 121,-229 154,-472 116,-738 -38,-268 -147,-559 -311,-883 -155,-307 -181,-623 -132,-927 10,-59 22,-117 37,-175 15,-58 32,-115 52,-171 v -1 l 36,-104 -2,110 c -2,129 5,304 54,504 49,200 142,426 310,657 244,335 375,632 364,915 z"
   class="fil5" />

    <path
   inkscape:connector-curvature="0"
   id="path5562"
   d="m 12229,17699 v 0 l -54,19 34,-46 c 98,-133 177,-284 240,-452 63,-169 110,-356 142,-561 58,-369 190,-597 390,-684 39,-17 81,-29 125,-35 44,-6 90,-7 139,-2 h 1 l 74,7 -69,27 c -84,33 -150,112 -205,236 -57,128 -101,302 -142,522 -72,388 -219,662 -418,826 -39,32 -80,60 -123,84 -43,24 -87,43 -133,59 z"
   class="fil5" />

    <path
   inkscape:connector-curvature="0"
   id="path5564"
   d="m 12708,18447 c -58,372 -123,790 -424,984 l -46,30 21,-51 c 121,-303 158,-624 195,-957 v 0 l 9,-78 c 47,-407 215,-678 462,-817 48,-27 99,-49 153,-66 54,-17 111,-30 169,-37 v 0 l 109,-14 -100,47 c -198,94 -352,275 -451,547 -19,53 -37,110 -52,170 -15,61 -28,124 -39,191 v 0 l -8,50 z"
   class="fil5" />

    <path
   inkscape:connector-curvature="0"
   id="path5566"
   d="m 14417,18404 c 205,-245 365,-453 474,-629 108,-174 166,-317 168,-432 l 2,-97 32,91 v 0 0 c 19,52 33,106 41,160 8,54 11,110 9,167 -11,291 -160,610 -449,957 v 0 0 0 c -45,54 -87,110 -128,168 -40,58 -79,118 -116,182 -189,323 -324,706 -403,1150 l -8,46 -24,-40 v 0 c -35,-59 -61,-126 -77,-198 -16,-72 -24,-150 -24,-232 0,-418 207,-939 504,-1293 z"
   class="fil5" />

    <path
   inkscape:connector-curvature="0"
   id="path5568"
   d="m 14589,20910 h -4 l -98,1 91,-35 c 276,-107 489,-273 646,-495 157,-223 260,-503 315,-838 69,-415 187,-691 328,-834 28,-28 57,-52 87,-70 30,-18 61,-31 92,-39 v 0 0 l 59,-15 -42,44 c -63,65 -110,181 -147,345 -38,167 -65,383 -87,649 -50,609 -286,1001 -692,1178 -79,35 -164,61 -256,79 -91,18 -189,28 -293,30 v 0 z"
   class="fil5" />

    <path
   inkscape:connector-curvature="0"
   id="path5570"
   d="m 14069,20622 c 8,161 5,313 -10,456 l -2057,-4 h -6 c -118,-1 -230,6 -335,22 -106,16 -205,40 -300,72 -423,146 -715,459 -862,932 -12,-39 -25,-77 -39,-114 -38,-99 -83,-190 -135,-274 -268,-430 -718,-645 -1328,-639 l -796,1 c 14,-399 145,-800 380,-1214 109,-192 174,-372 212,-531 39,-159 52,-296 58,-403 l 2,-32 26,19 v 0 0 c 23,16 42,36 60,60 17,24 32,51 44,83 60,157 54,412 -26,763 -58,255 -76,464 -50,628 22,144 78,252 169,325 -16,-109 -26,-216 -31,-322 -6,-119 -6,-236 1,-351 36,-591 247,-1124 656,-1579 127,-141 229,-284 298,-435 68,-150 104,-309 100,-483 l -1,-54 33,43 c 123,162 170,340 158,542 -12,200 -81,423 -191,678 v 0 0 0 c -46,108 -84,212 -112,312 -29,100 -49,196 -61,288 -59,451 79,804 366,1042 -79,-383 -99,-742 -61,-1077 40,-349 143,-671 310,-966 l 29,-51 4,58 v 1 c 3,41 8,80 14,116 6,36 14,69 23,99 43,139 121,219 233,238 -48,-135 -89,-267 -124,-395 -36,-132 -64,-262 -86,-389 -110,-648 -32,-1215 232,-1701 58,-121 99,-233 123,-334 24,-101 32,-191 23,-272 l -7,-66 39,54 2,3 v 0 c 34,47 62,97 86,150 24,53 43,109 57,168 69,288 20,644 -145,1070 13,-9 25,-18 37,-27 26,-19 50,-38 71,-57 120,-105 148,-190 193,-330 39,114 30,252 20,370 -6,75 -19,150 -41,219 45,-47 90,-90 135,-130 68,-60 137,-111 207,-155 l 70,-44 -46,69 c -112,167 -177,366 -204,596 -27,231 -15,495 30,792 v 0 1 0 c 14,96 26,189 34,279 8,90 14,176 16,258 11,395 -44,710 -148,945 7,-5 15,-10 22,-15 23,-17 45,-35 66,-55 109,-103 194,-248 253,-435 l 30,-94 4,98 c 10,212 -7,404 -49,575 -37,151 -95,286 -173,406 47,-20 93,-42 137,-65 60,-32 117,-67 170,-105 275,-196 460,-473 557,-831 l 32,-117 3,121 v 2 c 2,61 3,119 6,174 2,54 5,106 8,155 11,169 27,300 49,394 1,-15 1,-30 2,-46 3,-54 8,-110 16,-166 39,-290 140,-611 309,-960 67,-138 107,-264 118,-378 11,-113 -6,-215 -53,-307 l -23,-44 46,20 c 319,142 177,591 104,821 l -5,15 v 1 0 c -21,66 -38,130 -53,191 -14,62 -25,121 -33,178 -37,265 -5,481 88,644 1,-11 2,-22 4,-33 4,-28 9,-54 16,-80 35,-131 107,-233 217,-304 l 34,-22 -8,40 c -18,95 -30,198 -24,299 4,78 19,154 49,225 2,-17 4,-33 7,-49 18,-90 58,-169 120,-238 l 31,-34 v 46 6 c 0,21 0,42 1,61 1,19 2,38 3,57 v 0 c 5,62 14,115 28,160 3,-16 6,-33 10,-49 8,-37 17,-73 27,-107 54,-180 141,-335 261,-466 l 40,-44 -10,59 -1,5 v 0 c -5,31 -10,61 -13,90 -4,29 -7,58 -9,88 -13,149 -8,290 15,423 v 1 c 17,132 27,249 31,352 3,83 1,156 -4,221 10,-10 20,-20 30,-30 52,-55 98,-116 132,-184 l 30,-60 z"
   class="fil5" />

   </g>

   <g
   id="g5596">
    <path
   inkscape:connector-curvature="0"
   id="path5574"
   d="m 6385,21079 c 1,-5 3,-11 4,-16 26,-122 14,-256 -35,-391 -85,-235 -281,-471 -584,-649 -132,-78 -244,-151 -333,-225 -72,-61 -129,-122 -169,-187 -2,45 6,94 24,149 25,78 69,166 130,265 247,400 361,752 347,1054 h 538 v 0 z"
   class="fil3" />

    <path
   inkscape:connector-curvature="0"
   id="path5576"
   d="m 6106,18620 c 0,35 1,71 2,105 4,129 17,252 38,369 21,116 50,227 86,330 175,493 529,843 1047,1049 -164,-203 -305,-446 -425,-729 -130,-308 -234,-663 -312,-1066 v 0 0 c -18,-92 -37,-180 -58,-261 -21,-82 -42,-159 -65,-230 -107,-334 -240,-552 -397,-655 7,21 14,42 21,63 75,258 70,564 65,836 -1,65 -2,128 -2,187 z"
   class="fil3" />

    <path
   inkscape:connector-curvature="0"
   id="path5578"
   d="m 7231,18596 v 1 0 c 6,68 17,139 34,211 16,72 37,146 63,219 122,347 342,681 614,813 -14,-18 -27,-38 -41,-59 -29,-45 -59,-97 -88,-154 -149,-289 -291,-702 -374,-997 v 0 0 0 c -13,-47 -27,-91 -41,-132 -14,-41 -28,-80 -43,-116 -62,-151 -129,-255 -203,-311 51,133 62,290 72,430 2,32 4,63 7,95 z"
   class="fil3" />

    <path
   inkscape:connector-curvature="0"
   id="path5580"
   d="m 7238,16174 c 41,43 79,88 117,136 52,67 101,140 146,217 233,397 378,927 432,1590 29,354 100,656 212,906 101,225 237,408 407,549 -71,-173 -123,-383 -161,-628 -43,-275 -69,-595 -85,-961 v -1 c -6,-143 -20,-278 -40,-405 -20,-127 -47,-246 -81,-356 -164,-541 -487,-889 -947,-1047 z"
   class="fil3" />

    <path
   inkscape:connector-curvature="0"
   id="path5582"
   d="m 12270,17646 c 25,-11 50,-23 74,-36 41,-23 80,-50 117,-80 193,-159 336,-426 406,-805 41,-222 87,-399 145,-529 46,-104 100,-179 166,-224 -23,0 -46,2 -68,5 -41,6 -80,17 -116,32 -188,82 -313,301 -369,657 -33,207 -80,397 -144,568 -57,152 -127,290 -211,413 z"
   class="fil3" />

    <path
   inkscape:connector-curvature="0"
   id="path5584"
   d="m 12312,19367 c 248,-199 308,-582 361,-926 l 8,-50 v 0 c 11,-68 24,-133 39,-194 15,-61 33,-119 53,-173 86,-238 214,-409 377,-515 -21,5 -41,11 -61,17 -51,16 -100,38 -147,64 -238,134 -399,395 -444,790 l -9,78 v 0 c -36,315 -70,620 -177,910 z"
   class="fil3" />

    <path
   inkscape:connector-curvature="0"
   id="path5586"
   d="m 14920,17793 c -110,178 -271,387 -477,633 -293,349 -495,861 -496,1271 0,79 7,155 23,224 12,52 28,100 50,145 81,-427 214,-797 398,-1112 37,-63 76,-124 118,-184 41,-59 85,-116 130,-171 v 0 0 0 c 284,-341 430,-653 441,-936 2,-54 -1,-108 -9,-161 -4,-25 -9,-50 -15,-75 -21,104 -77,225 -163,365 z"
   class="fil3" />

    <path
   inkscape:connector-curvature="0"
   id="path5588"
   d="m 14681,20871 c 68,-5 132,-13 194,-25 89,-18 172,-43 249,-77 393,-172 622,-554 671,-1149 22,-267 49,-485 87,-654 31,-135 69,-239 117,-312 -9,4 -17,9 -26,14 -27,17 -54,38 -80,64 -136,138 -251,408 -318,815 -56,341 -161,626 -321,853 -144,203 -332,360 -572,469 z"
   class="fil3" />

    <path
   inkscape:connector-curvature="0"
   id="path5590"
   d="m 14024,21078 c 13,-124 17,-255 13,-392 -31,50 -67,95 -107,138 -11,11 -21,22 -32,33 -11,10 -22,21 -34,31 v 0 0 l -35,32 6,-47 c 10,-73 13,-161 9,-262 -3,-102 -14,-218 -30,-348 v 0 c -23,-137 -28,-281 -15,-432 2,-29 6,-59 10,-90 2,-12 3,-23 5,-35 -96,117 -167,252 -213,406 -10,34 -19,69 -27,105 -8,36 -14,73 -19,110 v 0 l -8,57 -25,-52 c -29,-58 -47,-136 -54,-232 v 0 c -1,-18 -2,-38 -3,-59 0,-7 0,-13 -1,-20 -41,55 -68,117 -81,185 -3,17 -6,34 -7,51 -2,17 -2,35 -2,53 v 6 65 l -33,-56 c -54,-91 -78,-194 -84,-299 -5,-89 3,-180 17,-265 -83,65 -139,151 -168,259 -6,24 -11,49 -15,76 -4,27 -6,54 -7,82 v 2 l -2,54 -30,-45 c -120,-176 -164,-415 -122,-715 8,-58 19,-118 34,-181 14,-63 32,-127 53,-194 v 0 -1 l 5,-15 c 66,-208 190,-602 -40,-754 34,85 45,178 35,278 -12,119 -53,248 -122,390 -167,346 -267,663 -306,950 -8,56 -13,110 -16,164 -3,53 -4,106 -2,156 v 2 l 3,89 -36,-82 c -40,-90 -68,-261 -85,-513 -3,-48 -6,-100 -8,-156 -1,-22 -2,-45 -3,-69 -105,316 -285,565 -539,746 -55,39 -113,75 -174,108 -62,33 -127,62 -195,89 v 0 0 l -55,21 35,-48 c 92,-127 159,-275 201,-442 35,-142 52,-300 51,-471 -59,150 -136,270 -231,360 -22,21 -45,40 -69,58 -24,18 -49,34 -75,48 v 0 0 l -49,27 25,-50 c 118,-234 182,-562 170,-982 -2,-82 -8,-167 -16,-256 -8,-88 -19,-180 -34,-277 v 0 -1 0 c -45,-300 -58,-566 -30,-801 24,-205 78,-385 167,-542 -46,32 -91,68 -136,107 -67,58 -133,125 -198,198 l -90,102 62,-122 c 45,-88 66,-192 75,-297 6,-69 6,-139 3,-205 -30,64 -83,129 -158,195 -23,20 -47,39 -73,59 -26,19 -54,39 -85,59 l -1,1 -47,31 21,-52 c 180,-443 235,-810 165,-1102 -13,-56 -32,-110 -55,-161 -15,-32 -31,-63 -49,-93 0,67 -9,140 -28,219 -25,104 -67,218 -125,341 v 1 c -261,479 -337,1039 -228,1679 21,125 49,254 85,385 35,132 78,267 127,404 l 5,15 9,26 -27,-2 c -143,-12 -240,-101 -291,-267 -10,-32 -18,-66 -24,-103 -3,-20 -7,-41 -9,-63 -148,277 -241,578 -278,902 -39,344 -16,715 71,1113 l 10,47 -38,-29 c -323,-245 -481,-621 -418,-1105 12,-94 33,-192 62,-293 29,-101 67,-207 114,-316 v 0 0 0 c 108,-251 177,-471 188,-666 10,-175 -25,-331 -119,-474 -4,158 -40,304 -103,442 -70,154 -174,300 -303,444 -404,449 -612,974 -648,1558 -7,114 -7,229 -1,347 6,118 19,238 37,360 v 0 l 6,39 -33,-21 c -120,-78 -192,-202 -218,-373 -26,-168 -8,-381 51,-641 78,-345 85,-593 27,-743 -11,-28 -24,-53 -39,-74 -8,-11 -17,-22 -26,-31 -7,103 -21,230 -56,374 -39,161 -105,344 -216,540 -231,408 -361,804 -375,1196 l 761,-1 c 610,-7 1059,209 1328,639 52,83 97,175 135,274 14,37 27,75 39,114 147,-474 439,-786 862,-932 94,-33 194,-57 300,-72 105,-15 216,-23 335,-22 h 6 l 2021,4 z"
   class="fil3" />

    <path
   inkscape:connector-curvature="0"
   id="path5592"
   d="m 8422,15372 c -31,-46 -63,-90 -98,-131 31,155 57,315 72,476 17,185 19,370 -1,551 -83,747 82,1513 338,2016 50,97 103,185 158,260 32,43 64,82 97,117 -107,-230 -160,-490 -184,-754 -27,-299 -17,-604 -6,-878 23,-591 -67,-1074 -255,-1450 -36,-73 -76,-142 -120,-207 z"
   class="fil3" />

    <path
   inkscape:connector-curvature="0"
   id="path5594"
   d="m 9738,17869 c 277,-253 409,-496 420,-751 11,-275 -118,-564 -357,-893 -172,-236 -265,-466 -316,-669 -37,-151 -51,-288 -54,-402 -6,21 -12,43 -18,64 -15,57 -27,114 -36,172 -48,297 -23,606 128,905 166,327 276,622 315,894 34,243 11,468 -82,680 z"
   class="fil3" />

   </g>

  </g>

 </g>

</svg>
