<?xml version="1.0" encoding="UTF-8"?>
<!-- Generator: Adobe Illustrator 26.3.1, SVG Export Plug-In . SVG Version: 6.00 Build 0)  -->
<svg version="1.1" id="Layer_1" xmlns="http://www.w3.org/2000/svg" xmlns:xlink="http://www.w3.org/1999/xlink" x="0px" y="0px" viewBox="0 0 136.3 196.8" style="enable-background:new 0 0 136.3 196.8;" xml:space="preserve">
<style type="text/css">
	.st0{fill:#00447C;}
	.st1{fill:#FFFFFF;}
	.st2{fill:#13B5EA;}
</style>
<g>
	<path class="st0" d="M135.3,20.2L68.2,0L1,20.2c0,0-1,7.5-1,16c0,26.7,3.4,82.5,37.1,126.4c15.4,20.1,31.1,34.1,31.1,34.1   s15.6-14,31.1-34.1c33.7-43.9,37.1-99.7,37.1-126.4C136.3,27.7,135.3,20.2,135.3,20.2L135.3,20.2z"/>
	<path class="st1" d="M113.5,22.9c-1.2,0-2.3,0.8-2.7,1.9l-6.3,19.3h5.9l5.7-17.6C116.8,24.8,115.4,22.9,113.5,22.9L113.5,22.9z"/>
	<path class="st2" d="M72.4,23.4l-18.6,0l-1.7,5.2h13L48.4,39.9c-1.3,0.9-1.5,2.6-0.5,3.8c0.9,1,2.3,1.2,3.5,0.5l16.9-11.4   l-3.7,11.4h5.9l5.3-16.3C76.5,25.7,74.8,23.4,72.4,23.4L72.4,23.4z"/>
	<path class="st1" d="M26.8,23.4L20,44.2h5.9L31,28.6h12.1l-8.3,5.6c-1.2,0.8-1.6,2.4-0.8,3.6c0.8,1.2,2.4,1.5,3.6,0.7L48,31.6   c3.7-2.5,1.9-8.2-2.5-8.2L26.8,23.4L26.8,23.4z"/>
	<path class="st1" d="M101.5,23.4l-18.7,0L76,44.2h5.9L87,28.6h12.1l-10.7,7.2l6.6,7.9c0.9,1,2.3,1.2,3.5,0.5   c1.3-0.9,1.5-2.6,0.5-3.8l-2.9-3.5l7.9-5.3C107.6,29.1,105.9,23.4,101.5,23.4L101.5,23.4z"/>
	<path class="st2" d="M116.3,103V80.7l-44.1,29.7V178c4.5-4.7,9.9-10.7,15.6-17.8v-48.7H83l17.7-12v41.7   C107.6,129.1,112.7,116,116.3,103L116.3,103z"/>
	<path class="st2" d="M21.9,109.1c3.4,10.8,7.8,21.8,13.7,32.1v-29.7h-4.8l17.7-12v60.7c5.6,7,11.1,13.1,15.6,17.8V83.1l0,0v-2.4   L21.9,109.1L21.9,109.1z"/>
	<polygon class="st1" points="116.3,51.7 100.8,56.3 100.8,82.8 87.8,91.5 87.8,51.7 72.2,56.3 72.2,110.4 116.3,80.7 116.3,51.7     "/>
	<path class="st1" d="M21.4,107.5c0.2,0.5,0.3,1.1,0.5,1.6l0,0l42.2-28.4l0,0v-29l-15.6,4.6v26.5l-13,8.7V51.7L20,56.3v46.6   C20.4,104.4,20.9,106,21.4,107.5L21.4,107.5L21.4,107.5z"/>
</g>
</svg>