<?xml version="1.0" encoding="UTF-8"?>
<!-- Generator: Adobe Illustrator 24.1.2, SVG Export Plug-In . SVG Version: 6.00 Build 0)  -->
<svg version="1.1" id="Слой_1" xmlns="http://www.w3.org/2000/svg" xmlns:xlink="http://www.w3.org/1999/xlink" x="0px" y="0px" viewBox="0 0 1189.5 1508.4" style="enable-background:new 0 0 1189.5 1508.4;" xml:space="preserve">
<style type="text/css">
	.st0{opacity:0.995;fill-rule:evenodd;clip-rule:evenodd;fill:#C88744;enable-background:new    ;}
	.st1{fill-rule:evenodd;clip-rule:evenodd;fill:#122E82;}
	.st2{fill-rule:evenodd;clip-rule:evenodd;fill:#C48545;}
	.st3{fill-rule:evenodd;clip-rule:evenodd;fill:#C68645;}
	.st4{fill-rule:evenodd;clip-rule:evenodd;fill:#C58645;}
	.st5{fill-rule:evenodd;clip-rule:evenodd;fill:#5D5169;}
	.st6{fill-rule:evenodd;clip-rule:evenodd;fill:#C58545;}
	.st7{fill-rule:evenodd;clip-rule:evenodd;fill:#BD8248;}
	.st8{fill-rule:evenodd;clip-rule:evenodd;fill:#1F3180;}
	.st9{fill-rule:evenodd;clip-rule:evenodd;fill:#23327F;}
	.st10{fill-rule:evenodd;clip-rule:evenodd;fill:#1C3180;}
	.st11{fill-rule:evenodd;clip-rule:evenodd;fill:#5A5169;}
	.st12{fill-rule:evenodd;clip-rule:evenodd;fill:#22327F;}
	.st13{fill-rule:evenodd;clip-rule:evenodd;fill:#112D82;}
	.st14{fill-rule:evenodd;clip-rule:evenodd;fill:#685964;}
	.st15{fill-rule:evenodd;clip-rule:evenodd;fill:#C78744;}
	.st16{fill-rule:evenodd;clip-rule:evenodd;fill:#21317F;}
	.st17{fill-rule:evenodd;clip-rule:evenodd;fill:#27337E;}
	.st18{fill-rule:evenodd;clip-rule:evenodd;fill:#C88744;}
	.st19{fill-rule:evenodd;clip-rule:evenodd;fill:#102D82;}
	.st20{fill-rule:evenodd;clip-rule:evenodd;fill:#1E60A8;}
	.st21{fill-rule:evenodd;clip-rule:evenodd;fill:#164796;}
	.st22{fill-rule:evenodd;clip-rule:evenodd;fill:#154795;}
	.st23{fill-rule:evenodd;clip-rule:evenodd;fill:#164897;}
	.st24{fill-rule:evenodd;clip-rule:evenodd;fill:#C18447;}
	.st25{fill-rule:evenodd;clip-rule:evenodd;fill:#C78746;}
	.st26{fill-rule:evenodd;clip-rule:evenodd;fill:#FEFEFE;}
	.st27{fill-rule:evenodd;clip-rule:evenodd;fill:#EDD8C3;}
	.st28{fill-rule:evenodd;clip-rule:evenodd;fill:#C88847;}
	.st29{fill-rule:evenodd;clip-rule:evenodd;fill:#C88846;}
	.st30{fill-rule:evenodd;clip-rule:evenodd;fill:#C68747;}
	.st31{fill-rule:evenodd;clip-rule:evenodd;fill:#142E82;}
	.st32{fill-rule:evenodd;clip-rule:evenodd;fill:#F1E1D1;}
	.st33{fill-rule:evenodd;clip-rule:evenodd;fill:#F2E3D3;}
	.st34{fill-rule:evenodd;clip-rule:evenodd;fill:#F1DFCE;}
	.st35{fill-rule:evenodd;clip-rule:evenodd;fill:#DCB387;}
	.st36{fill-rule:evenodd;clip-rule:evenodd;fill:#FEFEFD;}
	.st37{fill-rule:evenodd;clip-rule:evenodd;fill:#FEFDFD;}
	.st38{fill-rule:evenodd;clip-rule:evenodd;fill:#E1BD98;}
	.st39{fill-rule:evenodd;clip-rule:evenodd;fill:#D49F69;}
	.st40{fill-rule:evenodd;clip-rule:evenodd;fill:#494A6E;}
	.st41{fill-rule:evenodd;clip-rule:evenodd;fill:#5C5368;}
	.st42{fill-rule:evenodd;clip-rule:evenodd;fill:#4A4A6D;}
	.st43{fill-rule:evenodd;clip-rule:evenodd;fill:#916D56;}
	.st44{fill-rule:evenodd;clip-rule:evenodd;fill:#906D56;}
	.st45{fill-rule:evenodd;clip-rule:evenodd;fill:#55506A;}
	.st46{fill-rule:evenodd;clip-rule:evenodd;fill:#303D77;}
	.st47{fill-rule:evenodd;clip-rule:evenodd;fill:#58245A;}
	.st48{fill-rule:evenodd;clip-rule:evenodd;fill:#5C2357;}
	.st49{fill-rule:evenodd;clip-rule:evenodd;fill:#85675A;}
	.st50{fill-rule:evenodd;clip-rule:evenodd;fill:#642253;}
	.st51{fill-rule:evenodd;clip-rule:evenodd;fill:#602355;}
	.st52{fill-rule:evenodd;clip-rule:evenodd;fill:#8F6B57;}
	.st53{fill-rule:evenodd;clip-rule:evenodd;fill:#7E635D;}
	.st54{fill-rule:evenodd;clip-rule:evenodd;fill:#6B214F;}
	.st55{fill-rule:evenodd;clip-rule:evenodd;fill:#E7CCAF;}
	.st56{fill-rule:evenodd;clip-rule:evenodd;fill:#73204B;}
	.st57{fill-rule:evenodd;clip-rule:evenodd;fill:#9F7451;}
	.st58{fill-rule:evenodd;clip-rule:evenodd;fill:#886959;}
	.st59{fill-rule:evenodd;clip-rule:evenodd;fill:#E0BD96;}
	.st60{fill-rule:evenodd;clip-rule:evenodd;fill:#4C4A6E;}
	.st61{fill-rule:evenodd;clip-rule:evenodd;fill:#4D4B6D;}
	.st62{fill-rule:evenodd;clip-rule:evenodd;fill:#56235A;}
	.st63{fill-rule:evenodd;clip-rule:evenodd;fill:#FDFAFA;}
	.st64{fill-rule:evenodd;clip-rule:evenodd;fill:#782049;}
	.st65{fill-rule:evenodd;clip-rule:evenodd;fill:#CF161A;}
	.st66{fill-rule:evenodd;clip-rule:evenodd;fill:#E1BC95;}
	.st67{fill-rule:evenodd;clip-rule:evenodd;fill:#DEB68C;}
	.st68{fill-rule:evenodd;clip-rule:evenodd;fill:#6C5B63;}
	.st69{fill-rule:evenodd;clip-rule:evenodd;fill:#77605F;}
	.st70{fill-rule:evenodd;clip-rule:evenodd;fill:#7D635D;}
	.st71{fill-rule:evenodd;clip-rule:evenodd;fill:#AB86A1;}
	.st72{fill-rule:evenodd;clip-rule:evenodd;fill:#6A5A63;}
	.st73{fill-rule:evenodd;clip-rule:evenodd;fill:#EE1209;}
	.st74{fill-rule:evenodd;clip-rule:evenodd;fill:#75214B;}
	.st75{fill-rule:evenodd;clip-rule:evenodd;fill:#FCF4F5;}
	.st76{fill-rule:evenodd;clip-rule:evenodd;fill:#0A0502;}
	.st77{fill-rule:evenodd;clip-rule:evenodd;fill:#C28341;}
	.st78{fill-rule:evenodd;clip-rule:evenodd;fill:#DF1008;}
	.st79{fill-rule:evenodd;clip-rule:evenodd;fill:#EA1108;}
	.st80{fill-rule:evenodd;clip-rule:evenodd;fill:#C18341;}
	.st81{fill-rule:evenodd;clip-rule:evenodd;fill:#181108;}
	.st82{fill-rule:evenodd;clip-rule:evenodd;fill:#C08241;}
	.st83{fill-rule:evenodd;clip-rule:evenodd;fill:#F8F4F4;}
	.st84{fill-rule:evenodd;clip-rule:evenodd;fill:#C18241;}
	.st85{fill-rule:evenodd;clip-rule:evenodd;fill:#BD8040;}
	.st86{fill-rule:evenodd;clip-rule:evenodd;fill:#B2783C;}
	.st87{fill-rule:evenodd;clip-rule:evenodd;fill:#654422;}
	.st88{fill-rule:evenodd;clip-rule:evenodd;fill:#BA7D3E;}
	.st89{fill-rule:evenodd;clip-rule:evenodd;fill:#0E0904;}
	.st90{fill-rule:evenodd;clip-rule:evenodd;fill:#C48442;}
	.st91{fill-rule:evenodd;clip-rule:evenodd;fill:#BE8040;}
	.st92{fill-rule:evenodd;clip-rule:evenodd;fill:#DB1008;}
	.st93{fill-rule:evenodd;clip-rule:evenodd;fill:#0B2C80;}
	.st94{fill-rule:evenodd;clip-rule:evenodd;fill:#0A0603;}
	.st95{fill-rule:evenodd;clip-rule:evenodd;fill:#C58542;}
	.st96{fill-rule:evenodd;clip-rule:evenodd;fill:#F6EFF0;}
	.st97{fill-rule:evenodd;clip-rule:evenodd;fill:#080402;}
	.st98{fill-rule:evenodd;clip-rule:evenodd;fill:#0D0803;}
	.st99{fill-rule:evenodd;clip-rule:evenodd;fill:#FDFDFD;}
	.st100{fill-rule:evenodd;clip-rule:evenodd;fill:#D2BFC9;}
	.st101{fill-rule:evenodd;clip-rule:evenodd;fill:#F4B1AE;}
	.st102{fill-rule:evenodd;clip-rule:evenodd;fill:#A8849C;}
	.st103{fill-rule:evenodd;clip-rule:evenodd;fill:#F8F8F8;}
	.st104{fill-rule:evenodd;clip-rule:evenodd;fill:#BF8140;}
	.st105{fill-rule:evenodd;clip-rule:evenodd;fill:#E81108;}
	.st106{fill-rule:evenodd;clip-rule:evenodd;fill:#181008;}
	.st107{fill-rule:evenodd;clip-rule:evenodd;fill:#DBC5C3;}
	.st108{fill-rule:evenodd;clip-rule:evenodd;fill:#BA7E3F;}
	.st109{fill-rule:evenodd;clip-rule:evenodd;fill:#EC1108;}
	.st110{fill-rule:evenodd;clip-rule:evenodd;fill:#FBF9F9;}
	.st111{fill-rule:evenodd;clip-rule:evenodd;fill:#B67B3D;}
	.st112{fill-rule:evenodd;clip-rule:evenodd;fill:#0B2C82;}
	.st113{fill-rule:evenodd;clip-rule:evenodd;fill:#AB879F;}
	.st114{fill-rule:evenodd;clip-rule:evenodd;fill:#110B05;}
	.st115{fill-rule:evenodd;clip-rule:evenodd;fill:#F7B5B2;}
	.st116{fill-rule:evenodd;clip-rule:evenodd;fill:#FBF9FA;}
	.st117{fill-rule:evenodd;clip-rule:evenodd;fill:#1A1209;}
	.st118{fill-rule:evenodd;clip-rule:evenodd;fill:#BC7F3F;}
	.st119{fill-rule:evenodd;clip-rule:evenodd;fill:#DE1008;}
	.st120{fill-rule:evenodd;clip-rule:evenodd;fill:#B97D3E;}
	.st121{fill-rule:evenodd;clip-rule:evenodd;fill:#F9DAD9;}
	.st122{fill-rule:evenodd;clip-rule:evenodd;fill:#F8F4F6;}
	.st123{fill-rule:evenodd;clip-rule:evenodd;fill:#F8ECED;}
</style>
<g>
	<path class="st0" d="M570,0.4c112.7-5.2,203.9,36.1,273.5,124c41.6,57,62.1,121,61.5,192c93.3,19.2,187.7,28.9,283,29   c5.2,148.3-2.3,296-22.5,443c-10.8,79.1-29.2,156.5-55,232c-59.8,157.2-159,283.4-297.5,378.5c-67.9,45.9-140.7,82.4-218.5,109.5   c-135.8-46.9-253.4-121.5-353-224c-104.1-112.3-170.8-244.3-200-396C16.3,763,2.7,636.4,0.5,508.4c-0.7-54.3-0.6-108.7,0.5-163   c95.3-0.1,189.7-9.7,283-29c1.7-119.9,53-211.4,154-274.5C479,18.5,523,4.7,570,0.4z"/>
</g>
<g>
	<path class="st1" d="M571,37.4c102-5.1,183.8,32.6,245.5,113c33.9,47.1,51,99.8,51.5,158c-32.8-7.5-65.2-16.6-97-27.5   c-18-67.3-60-112-126-134c-73-18.3-135.1-0.2-186.5,54.5c-19.4,23.4-32.9,49.9-40.5,79.5c-31.7,10.3-63.7,19.5-96,27.5   c-0.2-61.9,18.6-117.2,56.5-166C428,81.1,492.2,46.1,571,37.4z"/>
</g>
<g>
	<path class="st2" d="M617,55.4c0.7,0.9,1.7,1.2,3,1c0,4.7,0,9.3,0,14c-0.6,14.3-1,28.7-1,43c-2,0-4,0-6,0c-2.8-1-5.8-1.3-9-1   c0-2.3,0-4.7,0-7c0-5.7,0-11.3,0-17c-1.3,0-2.7,0-4,0c-0.9,8-1.2,16-1,24c-5,0-10,0-15,0c0.5-19.3,1.2-38.7,2-58c5,0,10,0,15,0   c0,7,0,14,0,21c1.3,0,2.7,0,4,0c0-6.7,0-13.3,0-20C609,55.4,613,55.4,617,55.4z"/>
</g>
<g>
	<path class="st3" d="M544,58.4c3,0,6,0,9,0c1.1,6.3,2.1,12.6,3,19c14.8-4.9,22.3,0.5,22.5,16c0.7,5,0.7,10,0,15   c-1.8,2.8-4.3,4.3-7.5,4.5c-8.3,1.6-16.6,2.8-25,3.5c-2.4-19-5.1-38-8-57C540.2,59.7,542.2,59.4,544,58.4z"/>
</g>
<g>
	<path class="st4" d="M637,57.4c5.1,1,10.1,2.5,15,4.5c-2.4,6-3.9,12.2-4.5,18.5c5.8,1.1,10.8,3.8,15,8c0.7,3,0.7,6,0,9   c-1.9,5.3-3.5,10.6-5,16c-0.7,2.6-2.2,4.4-4.5,5.5c-3.3,0.7-6.7,0.7-10,0c-6.9-2.3-13.9-4.1-21-5.5C626.6,94.7,631.6,76,637,57.4z"/>
</g>
<g>
	<path class="st4" d="M520,64.4c3-0.3,4.8,1.1,5.5,4c5.5,16.4,11.4,32.8,17.5,49c-4.2,1.9-8.6,3.5-13,5c-6-12.9-11.2-26.2-15.5-40   c-1.5-2.1-3.3-2.4-5.5-1c5,12.3,9.4,24.8,13,37.5c0.1,2.7-0.9,4.9-3,6.5c-4.2,3-8.7,4.4-13.5,4c-0.7-2.4-1.6-4.7-2.5-7   c2.8-1.6,3.6-3.9,2.5-7c-4.4-13.3-9.3-26.5-14.5-39.5C500.6,72,510.3,68.2,520,64.4z"/>
</g>
<g>
	<path class="st5" d="M617,55.4c1.3,0,2.7,0,4,0c0.3,5.2,0,10.2-1,15c0-4.7,0-9.3,0-14C618.7,56.7,617.7,56.3,617,55.4z"/>
</g>
<g>
	<path class="st6" d="M676,68.4c4,1.2,8,2.3,12,3.5c0.9,0.4,1.6,1.1,2,2c-5.4,17.7-10.4,35.6-15,53.5c-5-0.8-10-1.8-15-3   C665.1,105.7,670.4,87,676,68.4z"/>
</g>
<g>
	<path class="st7" d="M717,72.4c3.9,0.5,5.2,2.5,4,6c2.4,4.7,5.2,5.1,8.5,1c1.1,0.8,2.3,1.5,3.5,2c1,0.5,1.2,1.2,0.5,2   c-4,5.5-8.9,6.3-14.5,2.5C714.5,82,713.9,77.5,717,72.4z"/>
</g>
<g>
	<path class="st4" d="M704,80.4c3.4,1.2,6.7,2.7,10,4.5c0.5,0.6,0.9,1.2,1,2c-3.6,6.4-6.8,12.9-9.5,19.5c6-5.3,12-10.7,18-16   c3.8,1.8,7.3,4,10.5,6.5c-9.3,16.7-19,33.2-29,49.5c-3.5-1.9-6.9-4.1-10-6.5c4.3-7.1,8.1-14.3,11.5-21.5c-6,6.2-12.2,12.2-18.5,18   c-4-2-7.6-4.3-11-7C686.2,113.2,695.2,96.9,704,80.4z"/>
</g>
<g>
	<path class="st8" d="M557,87.4c2.5-1.6,4.3-0.9,5.5,2c1.3,4.6,1.6,9.3,1,14c-1.7,1.4-3,1.1-4-1C559,97.2,558.2,92.2,557,87.4z"/>
</g>
<g>
	<path class="st4" d="M465,87.4c7.1-1.4,12.9,0.6,17.5,6c6.4,10.1,12.4,20.4,18,31c0.8,8.9-3.1,15.1-11.5,18.5c-5,1.9-10,1.9-15,0   c-8.5-10.2-15.7-21.4-21.5-33.5c-0.9-4.5-0.5-8.8,1-13C456.6,92.4,460.4,89.4,465,87.4z"/>
</g>
<g>
	<path class="st9" d="M644,89.4c2.3,0,3.7,1.2,4,3.5c-1.6,4.8-2.9,9.6-4,14.5c-1.7,0-3.3,0-5,0C640.3,101.3,642,95.3,644,89.4z"/>
</g>
<g>
	<path class="st10" d="M465,98.4c3.1,0.3,5.3,2,6.5,5c4.7,8.5,9.7,16.8,15,25c0.5,1.6,0.7,3.3,0.5,5c-1.9,0.2-3.4-0.5-4.5-2   c-4.7-8.5-9.7-16.8-15-25C465.7,104,464.9,101.4,465,98.4z"/>
</g>
<g>
	<path class="st11" d="M604,105.4c0,2.3,0,4.7,0,7c3.2-0.3,6.2,0,9,1c-3.3,0-6.7,0-10,0C602.6,110.5,603,107.9,604,105.4z"/>
</g>
<g>
	<path class="st4" d="M430,112.4c3.1,1.3,5.4,3.4,7,6.5c-2.6,3.6-5.6,7-9,10c1.5,3.2,3.9,5.2,7,6c3-2.3,6-4.7,9-7   c5.6-1.6,10.1-0.1,13.5,4.5c4.4,4.7,8.4,9.7,12,15c0.8,2.8,0.4,5.5-1,8c-6.5,6.7-13.4,13-20.5,19c-12.7-14.3-25.3-28.7-38-43   C416.6,125.1,423.3,118.7,430,112.4z"/>
</g>
<g>
	<path class="st4" d="M401,140.4c3.7,1.5,7,3.7,10,6.5c-2.5,2.1-4,4.6-4.5,7.5c11.2,9.2,22.5,18.2,34,27c-1.5,4.3-4,8.1-7.5,11.5   c-1.8,0-3.4-0.7-5-2c-10-8-20-16-30-24c-1-0.7-2-0.7-3,0c-1.1,2.1-2.6,4-4.5,5.5c-2.7-2-5.3-4-8-6c0-1.8,0.7-3.4,2-5   C390.2,154.6,395.7,147.6,401,140.4z"/>
</g>
<g>
	<path class="st12" d="M442,140.4c5.3,3.3,9.6,7.6,13,13c-0.7,2.5-2,3.1-4,2c-3.9-4-7.5-8.2-11-12.5   C440.8,142.2,441.5,141.4,442,140.4z"/>
</g>
<g>
	<path class="st4" d="M757,115.4c4.7,2.1,8.7,5.3,12,9.5c-5.9,5.4-11.2,11.2-16,17.5c1.6,1.1,3.2,1.3,5,0.5c4.3-5.1,9.3-9.3,15-12.5   c3.8,2.6,7.5,5.4,11,8.5c-6.3,4.3-11.9,9.3-17,15c-3.5,0.3-6.8,0.4-10,0.5c2.7,3.8,2.5,7.4-0.5,11c-3.3,3.3-6.7,6.7-10,10   c-0.7,0.7-0.7,1.3,0,2c2.4-3.3,5.1-3.6,8-1c12.8-8.4,25.5-17.1,38-26c7.1,8.7,13.6,17.9,19.5,27.5c-15.1,11.4-30.4,22.5-46,33.5   c-3-4-6-8-9-12c12.5-8.8,24.9-17.8,37-27c-0.4-1.9-1.4-2.7-3-2.5c-10.2,7.2-20.5,14.2-31,21c-2.3,0.7-4.7,0.7-7,0   c-6.3-7-12.6-14-19-21c3.4-5.4,7.6-10.2,12.5-14.5c0.8-2.1,0.6-4.1-0.5-6c-6,5.4-11.7,11-17,17c-3.8-3.3-7.5-6.8-11-10.5   C730.8,142.3,743.8,128.8,757,115.4z"/>
</g>
<g>
	<path class="st13" d="M578,165.4c66.3-3.3,116.8,23.1,151.5,79c25,47.8,26,96.1,3,145c-32.3,57.8-81.8,85.9-148.5,84.5   c-56.5-5.8-98.7-33.3-126.5-82.5c-27.9-59.3-22.5-115.3,16-168C500.8,190.7,535.7,171.3,578,165.4z"/>
</g>
<g>
	<path class="st2" d="M377,172.4c14.7,9.1,28.9,19.1,42.5,30c1.5,2.9,1.8,5.9,1,9c-1.7,5.1-4.2,9.8-7.5,14c-1.9-0.9-3.7-1.9-5.5-3   c0.1-1.9,0.3-3.9,0.5-6c-15.3-5-30.7-10-46-15c0.9-4.7,3-8.7,6.5-12c9.3,4.3,18.8,7.8,28.5,10.5c-8.7-5.7-17.3-11.3-26-17   C372.8,179.3,374.8,175.8,377,172.4z"/>
</g>
<g>
	<path class="st3" d="M542,184.4c1,4.1,1.3,8.5,1,13c-15.8,12.1-31.8,23.9-48,35.5c-5.2,0.4-10.2-0.4-15-2.5   C496.3,209.3,517,193.9,542,184.4z"/>
</g>
<g>
	<path class="st4" d="M644,183.4c26.1,8.7,47.4,24.1,64,46c-4.7,1.3-9.3,2.7-14,4c-16.6-11.9-33.1-23.9-49.5-36   C644,192.8,643.8,188.1,644,183.4z"/>
</g>
<g>
	<path class="st14" d="M542,184.4c0.1-0.5,0.4-0.9,1-1c1.3,4.8,1.3,9.5,0,14C543.3,192.9,542.9,188.6,542,184.4z"/>
</g>
<g>
	<path class="st4" d="M816,188.4c1.5,0,2.7,0.7,3.5,2c1,2.9,2.2,5.7,3.5,8.5c-8.7,6.4-17.7,12.4-27,18c9.9-3.1,19.7-6.6,29.5-10.5   c3.1,3.1,4.7,6.8,5,11c-13.7,5.2-27.5,10.1-41.5,14.5c-6.2,3-11.4,1.8-15.5-3.5c-1.7-3.3-3.3-6.7-5-10c-0.7-3.5,0.8-5.5,4.5-6   c1.3,0.8,2.3,2,3,3.5c0.7,0.7,1.3,0.7,2,0C790.9,207,803.5,197.8,816,188.4z"/>
</g>
<g>
	<path class="st15" d="M543,203.4c16.4,4.8,32.7,9.8,49,15c0.2,16.7,0,33.3-0.5,50c-14.8,10.8-29.7,21.7-44.5,32.5   c-2.7,0.3-5.4,0-8-1c-13.5-4.5-27-9-40.5-13.5c-0.7-16.7-0.7-33.3,0-50C513.5,225.6,528.3,214.6,543,203.4z"/>
</g>
<g>
	<path class="st15" d="M641,203.4c2.7-0.2,5.1,0.6,7,2.5c13.7,10.3,27.6,20.5,41.5,30.5c0.5,16.7,0.7,33.3,0.5,50   c-15.7,4.8-31.4,9.8-47,15c-15.7-10.6-31.2-21.6-46.5-33c-0.7-16.7-0.7-33.3,0-50C611.4,213.5,626.2,208.5,641,203.4z"/>
</g>
<g>
	<path class="st3" d="M370,216.4c7.3-0.1,14.3,1.4,21,4.5c5,2.2,7.4,6,7,11.5c0,3.5-0.7,6.8-2,10c2.9,1.8,5.9,3.5,9,5   c-1.5,3.9-2.9,7.9-4,12c-0.5,0.3-1,0.7-1.5,1c-2.7-1.2-5.6-1.9-8.5-2c-2.4,14.1-10.4,18.6-24,13.5c-13.5-3.9-17.5-12.4-12-25.5   c-3.8,0.2-6.8-1.1-9-4c1.4-3.9,2.4-7.9,3-12c3.7,0.3,7.4,0.9,11,2C360.8,225.4,364.1,220.1,370,216.4z"/>
</g>
<g>
	<path class="st4" d="M831,228.4c2.3-0.4,4.1,0.3,5.5,2c2.5,8.6,4.7,17.3,6.5,26c-3.3,0.7-6.7,1.3-10,2c-0.6-4-1.5-8-2.5-12   c-2.8-0.9-5.6-0.8-8.5,0.5c-0.5,0.6-0.9,1.2-1,2c1.7,4.7,2.2,9.5,1.5,14.5c-0.5,1.4-1.3,2.6-2.5,3.5c-8.8,4.5-18.2,6.9-28,7   c-2.7-1.8-4.5-4.3-5.5-7.5c-2-7.7-4.2-15.4-6.5-23C797,238.3,814,233.3,831,228.4z"/>
</g>
<g>
	<path class="st16" d="M370,231.4c5.5,0.2,10.9,1.4,16,3.5c1.7,1.4,2.3,3.3,2,5.5c-7-1-13.7-3-20-6   C368.6,233.4,369.3,232.4,370,231.4z"/>
</g>
<g>
	<path class="st12" d="M363,249.4c6.9,1.7,13.6,4.1,20,7c-6.9,3-13.4,2-19.5-3C363,252.1,362.8,250.8,363,249.4z"/>
</g>
<g>
	<path class="st17" d="M807,250.4c1.7,0,3.3,0,5,0c0.2,1.6-0.1,3.1-1,4.5c-4.2,1.6-8.5,2.8-13,3.5c-3.4,0.2-4.4-1.1-3-4   C799.1,253.1,803.1,251.7,807,250.4z"/>
</g>
<g>
	<path class="st18" d="M688,291.4c1.4-0.2,2.7,0,4,0.5c9.2,12.5,18.3,25,27.5,37.5c-4.4,18.6-9.9,36.9-16.5,55   c-15.2,6-30.7,11.4-46.5,16c-10-12.4-19.7-25-29-38c-0.7-1.7-0.7-3.3,0-5c5.3-16.7,10.7-33.3,16-50   C658.3,302,673.2,296.6,688,291.4z"/>
</g>
<g>
	<path class="st18" d="M496,291.4c16.3,4.8,32.5,10.2,48.5,16c5.6,17.3,11.1,34.6,16.5,52c-8.4,14-17.8,27.5-28,40.5   c-1.7,0.7-3.3,0.7-5,0c-14-4.7-28-9.3-42-14c-6.4-17.8-12.4-35.8-18-54c0.2-0.8,0.3-1.7,0.5-2.5C477.8,316.9,487,304.2,496,291.4z"/>
</g>
<g>
	<path class="st4" d="M739,324.4c-0.2,27.5-8,52.8-23.5,76c-6.1-5.5-8.1-12.2-6-20c5.5-16.3,10.9-32.6,16-49   C730,329,734.5,326.7,739,324.4z"/>
</g>
<g>
	<path class="st2" d="M449,326.4c4.4,1.2,8.7,2.7,13,4.5c6.4,19.1,12.8,38.3,19,57.5c-2.1,4.5-4.4,8.8-7,13   C459,378.7,450.7,353.7,449,326.4z"/>
</g>
<g>
	<path class="st19" d="M1127,735.4c-1,26.2-1.3,52.5-1,79c5.3,0,10.7,0,16,0c0,24.7,0,49.3,0,74c-16.5-0.3-32.8,0-49,1   c-45.6,222.6-167.2,389.1-365,499.5c-43,23.3-87.5,43.1-133.5,59.5c-128.1-44-238.1-115.4-330-214c-69.3-77.9-119-167.2-149-268   c-7-25.6-13.5-51.3-19.5-77c-16.2-1-32.5-1.3-49-1c0-24.7,0-49.3,0-74c5.3,0,10.7,0,16,0c0.3-26.5,0-52.8-1-79c-5.3,0-10.7,0-16,0   c0-25,0-50,0-75c6.7,0,13.3,0,20,0c-6.1-86.3-7.5-172.6-4-259c120,1.7,237.5-14.6,352.5-49c1.1,0.1,2.1,0.4,3,1   C433.5,424.1,476,470.6,545,492.9c74.6,17.7,137.5-1.8,188.5-58.5c19.2-24.1,31.7-51.5,37.5-82c101.5,29.8,205.2,46.3,311,49.5   c15,0.5,30,0.7,45,0.5c3.3,86.1,2,172.1-4,258c6.7,0,13.3,0,20,0c0,25,0,50,0,75C1137.6,735.4,1132.3,735.4,1127,735.4z"/>
</g>
<g>
	<path class="st15" d="M565,363.4c19.3-0.3,38.7,0,58,1c9.5,13.3,19.2,26.4,29,39.5c-9.8,13.1-19.5,26.2-29,39.5   c-19.3,1.3-38.7,1.3-58,0c-9-12.8-18.1-25.5-27.5-38c-0.7-1-0.7-2,0-3C546.6,389.4,555.8,376.4,565,363.4z"/>
</g>
<g>
	<path class="st20" d="M414,379.4c12,33.4,31.5,61.8,58.5,85c0.5,61.7,0.7,123.3,0.5,185c-19.7,0-39.3,0-59,0   C414,559.4,414,469.4,414,379.4z"/>
</g>
<g>
	<path class="st20" d="M774,378.4c1,90.2,1.3,180.5,1,271c-19.7,0-39.3,0-59,0c-0.2-61.7,0-123.3,0.5-185   C743.9,441.3,763,412.6,774,378.4z"/>
</g>
<g>
	<path class="st20" d="M371,390.4c1,86.2,1.3,172.5,1,259c-19.7,0-39.3,0-59,0c0-82.3,0-164.7,0-247   C332.4,398.8,351.7,394.8,371,390.4z"/>
</g>
<g>
	<path class="st21" d="M371,390.4c0.1-0.5,0.4-0.9,1-1c1,87,1.3,174,1,261c-20.2,0.3-40.2,0-60-1c19.7,0,39.3,0,59,0   C372.3,562.9,372,476.6,371,390.4z"/>
</g>
<g>
	<path class="st22" d="M819,390.4c-2,86-2.7,172.3-2,259c-1-86.5-1.3-173.2-1-260C817.2,389.2,818.2,389.5,819,390.4z"/>
</g>
<g>
	<path class="st20" d="M819,390.4c18.8,4.8,37.8,8.8,57,12c0,82.7,0,165.3,0,248c-19.8,0.3-39.5,0-59-1   C816.3,562.8,817,476.4,819,390.4z"/>
</g>
<g>
	<path class="st20" d="M268,410.4c1.3,0,2.7,0,4,0c0,80,0,160,0,240c-19.9,0.3-39.7,0-59.5-1c-0.5-77-0.7-154-0.5-231   C230.9,416.6,249.5,413.9,268,410.4z"/>
</g>
<g>
	<path class="st20" d="M974,418.4c2,63.8,2.7,127.8,2,192c-2,13-2.6,26.3-2,40c-19,0-38,0-57,0c-0.3-80,0-160,1-240   C936.5,414,955.2,416.6,974,418.4z"/>
</g>
<g>
	<path class="st23" d="M974,418.4c1,0,2,0,3,0c0.3,64.2,0,128.2-1,192C976.6,546.2,975.9,482.2,974,418.4z"/>
</g>
<g>
	<path class="st20" d="M152,423.4c6.3,0,12.7,0,19,0c0,75.3,0,150.7,0,226c-19.7,0-39.3,0-59,0c0-74.7,0-149.3,0-224   C125.5,425.6,138.8,424.9,152,423.4z"/>
</g>
<g>
	<path class="st20" d="M1018,423.4c19.7,1,39.3,1.7,59,2c0,74.7,0,149.3,0,224c-8,0-16,0-24,0c2.4-12.9,5.7-25.6,10-38   c-15-1-30-1.3-45-1C1018,548.1,1018,485.8,1018,423.4z"/>
</g>
<g>
	<path class="st24" d="M562,448.4c21.3-0.3,42.7,0,64,1c2.9,3,5.5,6.2,8,9.5c-9.3,3.6-18.9,5.6-29,6c-15.9,1.5-31.6,0.1-47-4   c-0.9-0.4-1.6-1.1-2-2C558.2,455.5,560.2,452,562,448.4z"/>
</g>
<g>
	<path class="st22" d="M516,492.4c-1,52.2-1.3,104.5-1,157c-1.3-52.5-1.3-105.2,0-158C515.6,491.6,515.9,491.9,516,492.4z"/>
</g>
<g>
	<path class="st20" d="M516,492.4c18.4,8.7,37.7,13.7,58,15c0,47.7,0,95.3,0,143c-19.8,0.3-39.5,0-59-1   C514.6,596.9,515,544.6,516,492.4z"/>
</g>
<g>
	<path class="st20" d="M673,491.4c2,52.7,2.7,105.7,2,159c-20,0-40,0-60,0c0-47.7,0-95.3,0-143C635.4,505.8,654.7,500.5,673,491.4z"/>
</g>
<g>
	<path class="st25" d="M1116,724.4c-1,33.5-1.3,67.2-1,101c5.7,0,11.3,0,17,0c0,17.7,0,35.3,0,53c-26.7,0-53.3,0-80,0   c1.3-39.3,1.8-78.7,1.5-118c-12.5,39.1-24.4,78.4-35.5,118c-29,0-58,0-87,0c0-51.3,0-102.7,0-154c-2,0-4,0-6,0c0.3,7,0.6,14,1,21   c-19,0-38,0-57,0c-0.6-7.1-1.7-14.1-3.5-21c-5.7-1-11.6-1.3-17.5-1c0,8.7,0,17.3,0,26c15.3,0,30.7,0,46,0c0,15.7,0,31.3,0,47   c-15.3,0-30.7,0-46,0c0,10,0,20,0,30c6.6,0.3,13.1,0,19.5-1c1.6-8.2,3.4-16.4,5.5-24.5c19-0.5,38-0.7,57-0.5   c-1.6,25.7-3.3,51.3-5,77c-51.7,0-103.3,0-155,0c0-17.3,0-34.7,0-52c3,0,6,0,9,0c0-33.7,0-67.3,0-101c-3,0-6,0-9,0   c0-17.7,0-35.3,0-53c50.3,0,100.7,0,151,0c0.3,16,0.7,16,1,0c21,0,42,0,63,0c0-16.7,0-33.3,0-50c21,0,42,0,63,0   c-4.3,16.7-8.7,33.3-13,50c32.3,0,64.7,0,97,0c0,17.7,0,35.3,0,53C1126.6,724.4,1121.3,724.4,1116,724.4z"/>
</g>
<g>
	<path class="st26" d="M1035,632.4c-3,9.2-5.7,18.6-8,28c-10.3,0-20.7,0-31,0c0-9.3,0-18.7,0-28C1009,632.4,1022,632.4,1035,632.4z"/>
</g>
<g>
	<path class="st27" d="M1035,632.4c-13,0-26,0-39,0c0,9.3,0,18.7,0,28c10.3,0,20.7,0,31,0c-10.5,1-21.2,1.3-32,1c0-10,0-20,0-30   C1008.5,631.1,1021.8,631.4,1035,632.4z"/>
</g>
<g>
	<path class="st25" d="M220,739.4c0,2,0,4,0,6c-18.7,0-37.3,0-56,0c-0.8-7.1-2.2-14.1-4-21c-5.6-1-11.3-1.3-17-1   c-1,8.5-1.3,17.2-1,26c15.3,0,30.7,0,46,0c0,15.3,0,30.7,0,46c-15.5-0.3-30.8,0-46,1c0,10,0,20,0,30c6.7,0,13.3,0,20,0   c1.5-8.4,3.2-16.7,5-25c19,0,38,0,57,0c0,2.7,0,5.3,0,8c-1.5,23-2.9,46-4,69c-54.3,0-108.7,0-163,0c0-17.7,0-35.3,0-53   c5.7,0,11.3,0,17,0c0.3-33.8,0-67.5-1-101c-5.3,0-10.7,0-16,0c0-17.7,0-35.3,0-53c52.7,0,105.3,0,158,0   C216.9,694.1,218.6,716.7,220,739.4z"/>
</g>
<g>
	<path class="st28" d="M398,824.4c2.8,1,5.8,1.3,9,1c0,17.3,0,34.7,0,52c-26,0-52,0-78,0c0.3-26.5,0-52.8-1-79c-7.3,0-14.7,0-22,0   c-1,26.2-1.3,52.5-1,79c-26,0-52,0-78,0c0-17.3,0-34.7,0-52c3,0,6,0,9,0c0-33.7,0-67.3,0-101c-3,0-6,0-9,0c0-17.7,0-35.3,0-53   c26.3,0,52.7,0,79,0c0,24.3,0,48.7,0,73c7.3,0,14.7,0,22,0c0-24.3,0-48.7,0-73c26.7,0,53.3,0,80,0c0,17.7,0,35.3,0,53   c-3.3,0-6.7,0-10,0C398,757.8,398,791.1,398,824.4z"/>
</g>
<g>
	<path class="st29" d="M482,759.4c-1.2,6.2-1.3,12.5-0.5,19c1-0.7,1.5-1.7,1.5-3c9.6-34.6,19.6-69.1,30-103.5c34-0.5,68-0.7,102-0.5   c0,17.7,0,35.3,0,53c-3,0-6,0-9,0c-1,33.5-1.3,67.2-1,101c3.3,0,6.7,0,10,0c0,17.7,0,35.3,0,53c-24.3,0-48.7,0-73,0   c0.9-33.3,1.6-66.7,2-100c1.2-7.2,1.3-14.5,0.5-22c-0.8,1.2-1.3,2.6-1.5,4c-11.9,38.9-23.5,77.9-35,117c-28.7,0-57.3,0-86,0   c0.3-51.2,0-102.2-1-153c-3,0-6,0-9,0c0-17.7,0-35.3,0-53c23.7,0,47.3,0,71,0C482.2,700.8,481.9,730.1,482,759.4z"/>
</g>
<g>
	<path class="st30" d="M661,671.4c32.3,0,64.7,0,97,0c1.8,26.3,3.5,52.7,5,79c-18.7,0-37.3,0-56,0c-0.9-8.4-2.3-16.7-4-25   c-4.3-1.2-8.6-1.3-13-0.5c-1.5,1.2-2.7,2.7-3.5,4.5c-0.7,29.3-0.7,58.7,0,88c0.8,2.4,2,4.6,3.5,6.5c4.7,0.5,9.3,0.7,14,0.5   c1.8-10.2,3.8-20.4,6-30.5c18.7-0.5,37.3-0.7,56-0.5c-1.8,28.2-3.8,56.4-6,84.5c-31.7,0.7-63.3,0.7-95,0c-5-0.7-9.7-2.3-14-5   c-12.3-8.9-22.4-19.8-30.5-32.5c-1.7-4.8-2.7-9.8-3-15c-0.7-36-0.7-72,0-108c0.9-4.6,2.5-9,5-13c7.1-9.5,15.3-18,24.5-25.5   C651.3,675.6,655.9,673.1,661,671.4z"/>
</g>
<g>
	<path class="st31" d="M993,775.4c-1-7.8-1.3-15.8-1-24c0-26.7,0-53.3,0-80c10.3-0.2,20.7,0,31,0.5   C1012.3,706.2,1002.3,740.7,993,775.4z"/>
</g>
<g>
	<path class="st32" d="M206,685.4c-0.9-0.7-1.2-1.7-1-3c-45.7,0-91.3,0-137,0c0,10.7,0,21.3,0,32c-1-10.8-1.3-21.8-1-33   c46.3,0,92.7,0,139,0C206,682.8,206,684.1,206,685.4z"/>
</g>
<g>
	<path class="st33" d="M521,682.4c27.8-1,55.8-1.3,84-1c0,11,0,22,0,33c-3,0-6,0-9,0c-0.3,0-0.7,0-1,0c2.8-1,5.8-1.3,9-1   c0-10.3,0-20.7,0-31C576.3,682.4,548.6,682.4,521,682.4z"/>
</g>
<g>
	<path class="st34" d="M1121,714.4c0-10.7,0-21.3,0-32c-30.4-0.3-60.7,0-91,1c30.3-2,61-2.7,92-2   C1122.3,692.6,1121.9,703.6,1121,714.4z"/>
</g>
<g>
	<path class="st26" d="M206,685.4c1.6,16.6,2.6,33.3,3,50c-12.3,0-24.7,0-37,0c0.4-7.3-1.6-13.8-6-19.5c-1.6-0.9-3.3-1.5-5-2   c-9.7-0.5-19.3-0.7-29-0.5c0,15.3,0,30.7,0,46c15.3,0,30.7,0,46,0c0,8.7,0,17.3,0,26c-15.5-0.3-30.8,0-46,1c0,16.7,0,33.3,0,50   c10.7,0.2,21.3,0,32-0.5c5-1.7,7.8-5.2,8.5-10.5c1-4.6,1.9-9.3,2.5-14c13,0,26,0,39,0c-0.9,18.7-2.3,37.4-4,56   c-47.3,0-94.7,0-142,0c0-10.7,0-21.3,0-32c5.3,0,10.7,0,16,0c0-40.3,0-80.7,0-121c-5.3,0-10.7,0-16,0c0-10.7,0-21.3,0-32   c45.7,0,91.3,0,137,0C204.7,683.7,205,684.7,206,685.4z"/>
</g>
<g>
	<path class="st26" d="M295,681.4c0,24.7,0,49.3,0,74c14.7,0,29.3,0,44,0c0-24.7,0-49.3,0-74c19.3,0,38.7,0,58,0c0,11,0,22,0,33   c-3,0-6,0-9,0c0,40.3,0,80.7,0,121c3,0,6,0,9,0c0,10.7,0,21.3,0,32c-19.3,0-38.7,0-58,0c0-26.3,0-52.7,0-79c-14.7,0-29.3,0-44,0   c0,26.3,0,52.7,0,79c-19.3,0-38.7,0-58,0c0-10.7,0-21.3,0-32c3,0,6,0,9,0c0-40.3,0-80.7,0-121c-3,0-6,0-9,0c0-11,0-22,0-33   C256.3,681.4,275.6,681.4,295,681.4z"/>
</g>
<g>
	<path class="st35" d="M295,681.4c1,24.2,1.3,48.5,1,73c14,0,28,0,42,0c-0.3-24.5,0-48.8,1-73c0,24.7,0,49.3,0,74   c-14.7,0-29.3,0-44,0C295,730.8,295,706.1,295,681.4z"/>
</g>
<g>
	<path class="st26" d="M521,682.4c27.7,0,55.3,0,83,0c0,10.3,0,20.7,0,31c-3.2-0.3-6.2,0-9,1c0,40.3,0,80.7,0,121c3.3,0,6.7,0,10,0   c0,10.7,0,21.3,0,32c-17.3,0-34.7,0-52,0c0.9-49.7,1.5-99.3,2-149c-3.3-0.6-6.6-0.9-10-1c-14.7,50.1-29.7,100.1-45,150   c-22.7,0-45.3,0-68,0c0.3-51.2,0-102.2-1-153c-3,0-6,0-9,0c0-11,0-22,0-33c16.7,0,33.3,0,50,0c-0.5,45-0.5,90,0,135   c3.5,1.7,6.6,1.3,9.5-1C494.2,770.9,507.3,726.5,521,682.4z"/>
</g>
<g>
	<path class="st36" d="M663,681.4c28.7,0,57.3,0,86,0c0.8,19.7,1.8,39.3,3,59c-12,0-24,0-36,0c-0.5-6.4-1.7-12.8-3.5-19   c-1.1-2.1-2.6-4-4.5-5.5c-6.6-1.6-13.2-1.9-20-1c-6.3,1.9-10.1,6.1-11.5,12.5c-0.7,30.3-0.7,60.7,0,91c2.3,11.8,9.5,17.5,21.5,17   c7.2,1,12.4-1.7,15.5-8c1.9-7.9,3.4-15.9,4.5-24c12.3,0,24.7,0,37,0c-1.3,21.3-2.7,42.7-4,64c-29.7,0.2-59.3,0-89-0.5   c-3.7-1.5-7-3.5-10-6c-6.5-6.5-13-13-19.5-19.5c-1.3-2.7-2.7-5.3-4-8c-1.6-38-1.9-76-1-114c1.2-4.7,3.2-9,6-13   c6.2-6.2,12.3-12.3,18.5-18.5C655.4,685.2,659.1,683.1,663,681.4z"/>
</g>
<g>
	<path class="st37" d="M881,811.4c12.7,0,25.3,0,38,0c0,1.3,0,2.7,0,4c-0.9,17.3-1.9,34.7-3,52c-45.3,0-90.7,0-136,0   c0-10.7,0-21.3,0-32c3,0,6,0,9,0c0-40.3,0-80.7,0-121c-3,0-6,0-9,0c0-11,0-22,0-33c43.7,0,87.3,0,131,0c1.6,18,3,36,4,54   c-12.3,0-24.7,0-37,0c-0.6-7-2.6-13.5-6-19.5c-1.3-0.7-2.7-1.3-4-2c-10-0.5-20-0.7-30-0.5c0,15.3,0,30.7,0,46c15.3,0,30.7,0,46,0   c0,9,0,18,0,27c-15.3,0-30.7,0-46,0c0,16.7,0,33.3,0,50c11.7,0.4,23.4-0.1,35-1.5c1.5-1.2,2.7-2.7,3.5-4.5   C878.3,824.1,879.8,817.8,881,811.4z"/>
</g>
<g>
	<path class="st26" d="M1030,683.4c30.3-1,60.6-1.3,91-1c0,10.7,0,21.3,0,32c-5.3,0-10.7,0-16,0c0,40.3,0,80.7,0,121   c5.3,0,10.7,0,16,0c0,10.7,0,21.3,0,32c-19.3,0-38.7,0-58,0c0-5,0-10,0-15c1-44.7,1.7-89.3,2-134c-2.2-0.1-4.4-0.4-6.5-1   c-1.7-0.1-3,0.6-4,2c-14.8,49.4-29.7,98.7-44.5,148c-22.7,0-45.3,0-68,0c0.3-51.2,0-102.2-1-153c-3,0-6,0-9,0c0-11,0-22,0-33   c16.7,0,33.3,0,50,0c-0.7,45-0.7,90,0,135c2.9,0.9,5.9,1.2,9,1C1003.6,772.7,1016.6,728,1030,683.4z"/>
</g>
<g>
	<path class="st38" d="M431,714.4c1,50.8,1.3,101.8,1,153c22.7,0,45.3,0,68,0c-22.8,1-45.8,1.3-69,1C431,817.1,431,765.8,431,714.4z   "/>
</g>
<g>
	<path class="st39" d="M595,714.4c0.3,0,0.7,0,1,0c0,40,0,80,0,120c3.2-0.3,6.2,0,9,1c-3.3,0-6.7,0-10,0   C595,795.1,595,754.8,595,714.4z"/>
</g>
<g>
	<path class="st40" d="M73,724.4c1,33.5,1.3,67.2,1,101c-5.7,0-11.3,0-17,0c5.1-1,10.5-1.3,16-1C73,791.1,73,757.8,73,724.4z"/>
</g>
<g>
	<path class="st41" d="M606,724.4c0,33.3,0,66.7,0,100c3.2-0.3,6.2,0,9,1c-3.3,0-6.7,0-10,0C604.6,791.6,605,757.9,606,724.4z"/>
</g>
<g>
	<path class="st42" d="M1116,724.4c0,33.3,0,66.7,0,100c5.5-0.3,10.9,0,16,1c-5.7,0-11.3,0-17,0C1114.6,791.6,1115,757.9,1116,724.4   z"/>
</g>
<g>
	<path class="st43" d="M62,735.4c1,26.2,1.3,52.5,1,79c-5.3,0-10.7,0-16,0c-0.3,0-0.7,0-1,0c5.1-1,10.5-1.3,16-1   C62,787.4,62,761.4,62,735.4z"/>
</g>
<g>
	<path class="st44" d="M1127,735.4c0,26,0,52,0,78c5.5-0.3,10.9,0,16,1c-0.3,0-0.7,0-1,0c-5.3,0-10.7,0-16,0   C1125.6,787.9,1126,761.6,1127,735.4z"/>
</g>
<g>
	<path class="st45" d="M220,739.4c1,2.1,1.3,4.4,1,7c-19.2,0.3-38.2,0-57-1c18.7,0,37.3,0,56,0C220,743.4,220,741.4,220,739.4z"/>
</g>
<g>
	<path class="st46" d="M143,723.4c0,8.3,0,16.7,0,25c15.5-0.3,30.8,0,46,1c-0.3,0-0.7,0-1,0c-15.3,0-30.7,0-46,0   C141.6,740.6,142,731.9,143,723.4z"/>
</g>
<g>
	<path class="st47" d="M225,767.4c-8.3,0-16.7,0-25,0c0-3.3,0-6.7,0-10c8.3,0,16.7,0,25,0C225,760.8,225,764.1,225,767.4z"/>
</g>
<g>
	<path class="st48" d="M768,772.4c-23.3,0-46.7,0-70,0c-0.3,7.2,0,14.2,1,21c-0.4,1.7-0.9,3.3-1.5,5c-0.5-12.3-0.7-24.7-0.5-37   c23.7,0,47.3,0,71,0C768,765.1,768,768.8,768,772.4z"/>
</g>
<g>
	<path class="st49" d="M992,751.4c-0.3,8.2,0,16.2,1,24c-0.5,1-1,2-1.5,3C990.6,769.3,990.8,760.3,992,751.4z"/>
</g>
<g>
	<path class="st50" d="M200,767.4c8.3,0,16.7,0,25,0c0,3.7,0,7.3,0,11c-8.3,0-16.7,0-25,0C200,774.8,200,771.1,200,767.4z"/>
</g>
<g>
	<path class="st51" d="M920,778.4c-4.7,0-9.3,0-14,0c0.3,1.6-0.1,2.9-1,4c0-8.3,0-16.7,0-25c5,0,10,0,15,0   C920,764.4,920,771.4,920,778.4z"/>
</g>
<g>
	<path class="st52" d="M482,759.4c-0.3,5.5,0,10.9,1,16c0,1.3-0.5,2.3-1.5,3C480.6,771.9,480.8,765.6,482,759.4z"/>
</g>
<g>
	<path class="st53" d="M544,778.4c0.3-6.2,0-12.2-1-18c0.2-1.4,0.7-2.8,1.5-4C545.3,763.9,545.1,771.3,544,778.4z"/>
</g>
<g>
	<path class="st54" d="M768,772.4c0,3.3,0,6.7,0,10c-22.7,0-45.3,0-68,0c-0.4,3.7-0.8,7.3-1,11c-1-6.8-1.3-13.8-1-21   C721.3,772.4,744.6,772.4,768,772.4z"/>
</g>
<g>
	<path class="st55" d="M178,759.4c1,8.8,1.3,17.8,1,27c-15.7,0-31.3,0-47,0c15.2-1,30.5-1.3,46-1C178,776.8,178,768.1,178,759.4z"/>
</g>
<g>
	<path class="st56" d="M200,778.4c8.3,0,16.7,0,25,0c0,3.7,0,7.3,0,11c-8.3,0-16.7,0-25,0C200,785.8,200,782.1,200,778.4z"/>
</g>
<g>
	<path class="st56" d="M920,778.4c0,3.7,0,7.3,0,11c-5,0-10,0-15,0c0-2.3,0-4.7,0-7c0.9-1.1,1.3-2.4,1-4   C910.6,778.4,915.3,778.4,920,778.4z"/>
</g>
<g>
	<path class="st57" d="M188,749.4c0.3,0,0.7,0,1,0c0,15.7,0,31.3,0,47c-15.7,0-31.3,0-47,0c15.2-1,30.5-1.3,46-1   C188,780.1,188,764.8,188,749.4z"/>
</g>
<g>
	<path class="st58" d="M167,801.4c19.2-1,38.5-1.3,58-1c0.3,3.2,0,6.2-1,9c0-2.7,0-5.3,0-8C205,801.4,186,801.4,167,801.4z"/>
</g>
<g>
	<path class="st59" d="M881,811.4c12.8-1,25.8-1.3,39-1c0.3,1.9,0,3.6-1,5c0-1.3,0-2.7,0-4C906.3,811.4,893.6,811.4,881,811.4z"/>
</g>
<g>
	<path class="st60" d="M46,814.4c0.3,0,0.7,0,1,0c0,24.7,0,49.3,0,74c16.5-0.3,32.8,0,49,1c-16.7,0-33.3,0-50,0   C46,864.4,46,839.4,46,814.4z"/>
</g>
<g>
	<path class="st61" d="M1142,814.4c0.3,0,0.7,0,1,0c0,25,0,50,0,75c-16.7,0-33.3,0-50,0c16.2-1,32.5-1.3,49-1   C1142,863.8,1142,839.1,1142,814.4z"/>
</g>
<g>
	<path class="st62" d="M318,855.4c-0.7-4-1.3-8-2-12c-0.3-11.4,0-22.7,1-34C318,824.8,318.3,840.1,318,855.4z"/>
</g>
<g>
	<path class="st63" d="M540,889.4c0,19,0,38,0,57c-2.7,2.3-2.7,4.7,0,7c0,4.7,0,9.3,0,14c-3,3.7-6.3,7-10,10c-1-43.5-1.3-87.2-1-131   c0.5-3.1,1.4-6.1,2.5-9c-0.4,17.3-0.5,34.6-0.5,52C534,889.4,537,889.4,540,889.4z"/>
</g>
<g>
	<path class="st64" d="M1041,858.4c0.3-5.9,0-11.5-1-17c0.6-1.3,1.1-2.6,1.5-4C1042.3,844.6,1042.1,851.6,1041,858.4z"/>
</g>
<g>
	<path class="st65" d="M1040,841.4c1,5.5,1.3,11.1,1,17c0,4.3,0,8.7,0,13c-3.3,0-6.7,0-10,0C1034,861.4,1037,851.4,1040,841.4z"/>
</g>
<g>
	<path class="st35" d="M68,835.4c0,10.7,0,21.3,0,32c47.3,0,94.7,0,142,0c-47.5,1-95.2,1.3-143,1C66.6,857.3,67,846.3,68,835.4z"/>
</g>
<g>
	<path class="st66" d="M941,714.4c1,50.8,1.3,101.8,1,153c22.7,0,45.3,0,68,0c-22.8,1-45.8,1.3-69,1C941,817.1,941,765.8,941,714.4z   "/>
</g>
<g>
	<path class="st67" d="M1121,835.4c1,10.8,1.3,21.8,1,33c-20,0-40,0-60,0c-0.3-5.5,0-10.9,1-16c0,5,0,10,0,15c19.3,0,38.7,0,58,0   C1121,856.8,1121,846.1,1121,835.4z"/>
</g>
<g>
	<path class="st68" d="M306,798.4c0,26.7,0,53.3,0,80c-26.7,0-53.3,0-80,0c-0.3-17.8,0-35.5,1-53c0,17.3,0,34.7,0,52c26,0,52,0,78,0   C304.6,850.9,305,824.6,306,798.4z"/>
</g>
<g>
	<path class="st69" d="M328,798.4c1,26.2,1.3,52.5,1,79c26,0,52,0,78,0c0-17.3,0-34.7,0-52c-3.2,0.3-6.2,0-9-1c3.3,0,6.7,0,10,0   c0,18,0,36,0,54c-26.7,0-53.3,0-80,0C328,851.8,328,825.1,328,798.4z"/>
</g>
<g>
	<path class="st70" d="M421,724.4c1,50.8,1.3,101.8,1,153c28.7,0,57.3,0,86,0c-28.8,1-57.8,1.3-87,1C421,827.1,421,775.8,421,724.4z   "/>
</g>
<g>
	<path class="st71" d="M529,846.4c-0.3,43.8,0,87.5,1,131c-0.3,1-1,1.7-2,2C527.6,934.9,528,890.6,529,846.4z"/>
</g>
<g>
	<path class="st72" d="M770,825.4c0,17.3,0,34.7,0,52c51.7,0,103.3,0,155,0c-51.8,1-103.8,1.3-156,1   C768.6,860.6,769,842.9,770,825.4z"/>
</g>
<g>
	<path class="st73" d="M1031,871.4c3.3,0,6.7,0,10,0c0,6,0,12,0,18c8.7-0.3,17.4,0,26,1c-42.4,203.1-152.1,358-329,464.5   c-45.9,26.5-93.7,49-143.5,67.5c-18.5-6.7-36.6-14-54.5-22c0-24,0-48,0-72c1.3-1.4,2.8-2.8,4.5-4c0.5-6,0.5-12,0-18   c5.8-10.4,10.6-21.3,14.5-32.5c13.9-0.7,27.8-2.2,41.5-4.5c0.9,0.4,1.6,1.1,2,2c1.2,7.9,3.2,15.5,6,23c4.7,7.5,8.4,15.5,11,24   c5.2,4.3,11,5.2,17.5,2.5c2.3-1.2,4.7-2.3,7-3.5c0.3,0.3,0.7,0.7,1,1c-7,5.7-7.7,12.1-2,19c0.8,2.9,1.3,5.9,1.5,9   c1.4,1.7,3.3,2.3,5.5,2c-0.8,5.9,1.6,10.3,7,13c2-1,4-2,6-3c5.4,1.9,10.1,0.8,14-3.5c4.7,0,9.3,0,14,0c5.3-5,10.3-10.3,15-16   c4.1-1.5,8.1-3.1,12-5c2.1-2.3,3.5-4.9,4-8c-2-5.8-3.9-11.6-5.5-17.5c-0.2-8.9-1.7-17.6-4.5-26c1.5-6.4-0.5-11.6-6-15.5   c-2.9-1.5-5.9-1.8-9-1c-11.8,8.1-24.8,12.3-39,12.5c1.5-10.8,3.7-21.4,6.5-32c2.1-1,4.3-0.8,6.5,0.5c13.8,1.7,24.3-3.5,31.5-15.5   c5.2-13.7,5.9-27.7,2-42c-5.4-13.8-11.1-27.4-17-41c-10.6-24.2-12-48.9-4-74c1.4-3.8,3.1-7.4,5-11c11.1,7.5,22.6,8,34.5,1.5   c8.6-9.5,10.1-20,4.5-31.5c-4.8-5.8-11-8.5-18.5-8c-4.1-0.1-8.1,0.6-12,2c-9.4-6.2-17.9-5.2-25.5,3c-2.4,4.4-3,9.1-2,14   c2.4-1.1,4.9-1.3,7.5-0.5c0.5,0.6,0.9,1.2,1,2c-10.1,15-16.1,31.5-18,49.5c-1.8-1.6-3-3.6-3.5-6c-0.7-6.7-0.7-13.3,0-20   c3.5-2.6,6-6,7.5-10c-1.4-1.6-3.1-2.9-5-4c3-7.4,4.7-15,5-23c2.8,2.9,4.3,2.3,4.5-2c0.5-4.2,1-8.3,1.5-12.5c0.1-2.7-0.6-5.2-2-7.5   c2.3-1.8,4.5-3.8,6.5-6c0.5-1,0.6-2,0.5-3c-2,0.1-3.7-0.5-5-2c1.8-2,2.8-4.3,3-7c-2.8-0.3-5.5-1.2-8-2.5   c-9.6-12.4-22.1-16.5-37.5-12.5c-5.7-1.8-11.5-2.8-17.5-3c-13.7,2.2-27.3,3.7-41,4.5c5.5-6.2,11-12.3,16.5-18.5   c5.2-9,6.8-18.7,5-29c-0.8-2.2-2.3-3.7-4.5-4.5c-9.9-4-19.2-3-28,3c-6.2,5.3-12.2,10.8-18,16.5c0-19,0-38,0-57c28.7,0,57.3,0,86,0   c-0.3-7.7,0-15.4,1-23c8.1,8.6,17.4,15.4,28,20.5c3.6,0.9,7.3,1.6,11,2c120,0.5,240,0.7,360,0.5   C1027.3,883.3,1029,877.3,1031,871.4z"/>
</g>
<g>
	<path class="st74" d="M316,843.4c0.7,4,1.3,8,2,12c0,11,0,22,0,33c52.8-0.3,105.5,0,158,1c-4,0-8,0-12,0c-114,0-228,0-342,0   c64.5-1,129.2-1.3,194-1C316,873.4,316,858.4,316,843.4z"/>
</g>
<g>
	<path class="st73" d="M122,889.4c114,0,228,0,342,0c0,51,0,102,0,153c-5.2,5.3-10.2,10.8-15,16.5c2.9,4.6,6.3,8.9,10,13   c1.9-0.1,3.6-0.9,5-2.5c0,3.3,0,6.7,0,10c-7.5,1.9-13.8,5.6-19,11c2.2,4.1,4.7,8.1,7.5,12c3.1-2.6,6.6-4.3,10.5-5   c1,11.2,1.3,22.5,1,34c-0.9,2.3-0.9,4.6,0,7c0,3,0,6,0,9c-1.3,0.8-2.5,1.8-3.5,3c-0.3,6.8-0.8,13.7-1.5,20.5c0.8,4,2.2,7.8,4,11.5   c-1.4,1.3-2.1,3-2,5c0.7,4.1,1.7,8.1,3,12c0,34,0,68,0,102c-3,3.4-5,7.4-6,12c1.2,2.6,2.9,4.7,5,6.5c-1.6,2.7-2.9,5.6-4,8.5   c0.9,3.8,2.6,7.1,5,10c0,7.7,0,15.3,0,23c-123.1-68.6-217-165.6-281.5-291C154.8,1012.6,134.6,952.3,122,889.4z"/>
</g>
<g>
	<path class="st75" d="M464,889.4c4,0,8,0,12,0c0,47,0,94,0,141c-3.7,4.3-7.7,8.3-12,12C464,991.4,464,940.4,464,889.4z"/>
</g>
<g>
	<path class="st76" d="M540,1328.4c-1.3-0.2-2.3,0.1-3,1c-2.7,0.4-5.3,0.9-8,1.5c-0.8,0.7-1.1,1.5-1,2.5c-2.6,3.7-5.6,7.2-9,10.5   c-1.7,0.5-3.4,1.1-5,2c-3,3.4-6.4,6.4-10,9c-2.8,0.4-5.7,0.9-8.5,1.5c-2.8-1.1-5.4-2.4-8-4c-1.5,0.8-3,1-4.5,0.5   c-1.7-1.2-3.3-2.3-5-3.5c-1,0.4-1.7,1-2,2c-2.9,1-5.7,1-8.5,0c-1.8-4.3-3-8.6-3.5-13c-2.4-2.9-4.1-6.2-5-10c1.1-2.9,2.4-5.8,4-8.5   c-2.1-1.8-3.8-3.9-5-6.5c1-4.6,3-8.6,6-12c0.7,0,1-0.3,1-1c4.7,0.6,8.4-1.1,11-5c10.2-3.5,17.7-0.5,22.5,9c4-1.5,7.6-3.5,11-6   c0.3-12.3,0.7-24.7,1-37c2-10.3,3.3-20.6,4-31c3.1-5.1,7.6-8.1,13.5-9c1.6,0.3,2.9-0.1,4-1c3-1.7,5.6-3.7,8-6   c18.9-9.4,38.9-14.7,60-16c-0.4-3.3-0.9-6.7-1.5-10c-0.3-2.3-1.5-4.2-3.5-5.5c-7.2-4.8-14.9-8.8-23-12c-2-0.7-4-0.7-6,0   c-8.9,4.9-17.5,10.1-26,15.5c-3.9,2.1-7.5,4.4-11,7c-0.7,0-1,0.3-1,1c-9.2,4.9-18.9,8.7-29,11.5c-2,0.7-4,0.7-6,0   c-1.2-1.9-2.7-3.4-4.5-4.5c-2.2,2.1-4.9,3.5-8,4c-1.8,0-3.3-0.7-4.5-2c-0.6-1.5-1.4-2.8-2.5-4c-1.4,1.7-3.1,3.1-5,4   c-1.3-0.1-2.1-0.8-2.5-2c-0.3-1-1-1.7-2-2c-1.3-3.9-2.3-7.9-3-12c-0.1-2,0.6-3.7,2-5c-1.8-3.7-3.2-7.5-4-11.5   c0.7-6.8,1.2-13.7,1.5-20.5c1-1.2,2.2-2.2,3.5-3c1.4-0.4,2.4-1.2,3-2.5c-0.9-2.3-1.9-4.5-3-6.5c-0.9-2.4-0.9-4.7,0-7   c0.3,0,0.7,0,1,0c3.4-1.1,6.7-2.5,10-4c0.7,0,1-0.3,1-1c12.1-2.6,17.3-9.9,15.5-22c-3.5-5.7-8.7-8.7-15.5-9c-3.2-0.3-6.2,0-9,1   c-0.7,0-1.3,0-2,0c-1-0.2-1.7,0.2-2,1c-3.9,0.7-7.4,2.4-10.5,5c-2.8-3.9-5.3-7.9-7.5-12c5.2-5.4,11.5-9.1,19-11   c3.9-0.9,7.9-1.2,12-1c15.9-0.1,28.4,6.2,37.5,19c7.9,21.7,1.9,38.3-18,50c-0.5,3.5-1.1,6.8-2,10c2.4,2.7,5,5,8,7   c10-7.5,18.8-16.2,26.5-26c1,0.2,1.7-0.2,2-1c1-0.4,1.8-1.1,2.5-2c0.1-6.9,1.2-13.5,3.5-20c-1.5-4.3-3.5-8.3-6-12c-0.3-1-1-1.7-2-2   c-9-14.2-17.7-28.7-26-43.5c-2.1-0.4-4.1-1-6-2c-2.1-4.2-5.4-6.7-10-7.5c-3.7,3-7,6.3-10,10c-4.4,3.2-8.4,6.9-12,11   c-1.4,1.6-3.1,2.4-5,2.5c-3.7-4.1-7.1-8.4-10-13c4.8-5.7,9.8-11.2,15-16.5c4.3-3.7,8.3-7.7,12-12c0.6-5.6,1.8-11.3,3.5-17   c1.5-3.4,4-5.4,7.5-6c1.5-5.5,4.8-9.5,10-12c0.7,0.3,1.3,0.7,2,1c0.9-4.7,3.7-7,8.5-7c2.9,0.7,5.7,1.2,8.5,1.5   c4.5-3.3,8.5-7.2,12-11.5c1-0.3,1.7-1,2-2c3.7-3,7-6.3,10-10c2.5-2,4.8-4.1,7-6.5c-2-2.9-4.3-5.4-7-7.5c-2.7-2.3-2.7-4.7,0-7   c5.8-5.7,11.8-11.2,18-16.5c8.8-6,18.1-7,28-3c2.2,0.8,3.7,2.3,4.5,4.5c1.8,10.3,0.2,20-5,29c-5.5,6.2-11,12.3-16.5,18.5   c13.7-0.8,27.3-2.3,41-4.5c6,0.2,11.8,1.2,17.5,3c15.4-4,27.9,0.1,37.5,12.5c2.5,1.3,5.2,2.2,8,2.5c-0.2,2.7-1.2,5-3,7   c1.3,1.5,3,2.1,5,2c0.1,1,0,2-0.5,3c-2,2.2-4.2,4.2-6.5,6c1.4,2.3,2.1,4.8,2,7.5c-0.5,4.2-1,8.3-1.5,12.5c-0.2,4.3-1.7,4.9-4.5,2   c-0.3,8-2,15.6-5,23c1.9,1.1,3.6,2.4,5,4c-1.5,4-4,7.4-7.5,10c-0.7,6.7-0.7,13.3,0,20c0.5,2.4,1.7,4.4,3.5,6   c1.9-18,7.9-34.5,18-49.5c-0.1-0.8-0.5-1.4-1-2c-2.6-0.8-5.1-0.6-7.5,0.5c-1-4.9-0.4-9.6,2-14c7.6-8.2,16.1-9.2,25.5-3   c3.9-1.4,7.9-2.1,12-2c7.5-0.5,13.7,2.2,18.5,8c5.6,11.5,4.1,22-4.5,31.5c-11.9,6.5-23.4,6-34.5-1.5c-1.9,3.6-3.6,7.2-5,11   c-8,25.1-6.6,49.8,4,74c5.9,13.6,11.6,27.2,17,41c3.9,14.3,3.2,28.3-2,42c-7.2,12-17.7,17.2-31.5,15.5c-2.2-1.3-4.4-1.5-6.5-0.5   c-2.8,10.6-5,21.2-6.5,32c14.2-0.2,27.2-4.4,39-12.5c3.1-0.8,6.1-0.5,9,1c5.5,3.9,7.5,9.1,6,15.5c2.8,8.4,4.3,17.1,4.5,26   c1.6,5.9,3.5,11.7,5.5,17.5c-0.5,3.1-1.9,5.7-4,8c-3.9,1.9-7.9,3.5-12,5c-4.7,5.7-9.7,11-15,16c-4.7,0-9.3,0-14,0   c-3.9,4.3-8.6,5.4-14,3.5c-2,1-4,2-6,3c-5.4-2.7-7.8-7.1-7-13c-2.2,0.3-4.1-0.3-5.5-2c-0.2-3.1-0.7-6.1-1.5-9c-5.7-6.9-5-13.3,2-19   c-0.3-0.3-0.7-0.7-1-1c-2.3,1.2-4.7,2.3-7,3.5c-6.5,2.7-12.3,1.8-17.5-2.5c-2.6-8.5-6.3-16.5-11-24c-2.8-7.5-4.8-15.1-6-23   c-0.4-0.9-1.1-1.6-2-2c-13.7,2.3-27.6,3.8-41.5,4.5c-3.9,11.2-8.7,22.1-14.5,32.5c0.5,6,0.5,12,0,18   C542.8,1325.7,541.3,1327,540,1328.4z"/>
</g>
<g>
	<path class="st77" d="M570,931.4c3.7-0.2,7.3,0,11,0.5c3.7,2.5,5.3,6,5,10.5c-0.2,4.9-1.4,9.6-3.5,14c-5.3,6.2-10.8,12.2-16.5,18   c-1.8-2.3-3.8-4.5-6-6.5c-0.7-0.7-1.3-0.7-2,0c-13.2,13.2-26.3,26.3-39.5,39.5c-1.3-2.3-2-4.6-2-7c15.2-15.2,30.3-30.3,45.5-45.5   c3.2-0.4,5.1,1.1,5.5,4.5c4.9-8,2.7-11.9-6.5-11.5c-3.2,3.3-6.5,6.5-10,9.5c-2.3-1.7-4.3-3.7-6-6c5.5-5.4,11.2-10.5,17-15.5   C564.6,934.1,567.2,932.6,570,931.4z"/>
</g>
<g>
	<path class="st78" d="M540,953.4c2.7,2.1,5,4.6,7,7.5c-2.2,2.4-4.5,4.5-7,6.5C540,962.8,540,958.1,540,953.4z"/>
</g>
<g>
	<path class="st79" d="M540,1036.4c0-14,0-28,0-42c6-6.8,12.5-13.2,19.5-19c1.5,1.5,3,3,4.5,4.5c-2.7,1-5.4,2.1-8,3.5   c-1.7,1.5-2.7,3.3-3,5.5c2,8.3,3.7,16.6,5,25c-1.2,5.9-1.1,11.7,0.5,17.5c0.5,1,1.4,1.7,2.5,2c8.2-2.2,16.5-3.2,25-3   c-0.5,6.9-3.2,12.7-8,17.5c-5.9,3.1-11.9,5.9-18,8.5C552.9,1050.1,546.3,1043.4,540,1036.4z"/>
</g>
<g>
	<path class="st80" d="M606,979.4c7.6,0.5,15.1,1.8,22.5,4c7.2-1.5,14.4-1.3,21.5,0.5c4.4,2.2,7.8,5.5,10,10c1.8,0.7,3.5,1.8,5,3   c-5.4,3.6-4.8,6,2,7c-2.6,2.3-5.6,2.9-9,2c-2.9-5.1-5.7-10.2-8.5-15.5c-2.9-3-6.4-4.2-10.5-3.5c9.8,4.6,12.2,11.6,7,21   c-6.1,2.5-12.4,3.1-19,2c-0.8-0.3-1.5-0.8-2-1.5c2.8-3.7,5.7-7.4,8.5-11c2.2,0.2,3.3,1.3,3.5,3.5c0,2.3-1,4-3,5   c6.3,0,8.5-3.2,6.5-9.5c-2.3-2.6-5.1-4.2-8.5-5c-3.6,7-8.9,12.2-16,15.5c-4.7,0.5-9.3,0.7-14,0.5c0.6,8-2.7,13.4-10,16.5   c-8.3,1.1-16.6,1.8-25,2c-2.2,2.2-3.5,1.8-4-1c-0.1-1.7,0.6-3,2-4c7.3-1.2,14.6-1.9,22-2c7.8-2.5,8.8-6.5,3-12   c-9.4-0.6-18.7-0.1-28,1.5c-2-3.8-1.3-7,2-9.5c8.3-1.1,16.6-1.9,25-2.5c-5.6-2.8-11.6-4.2-18-4c0-1,0-2,0-3c-2.5,0.5-5,1.2-7.5,2   c-3-0.7-3.8-2.4-2.5-5c1.9-1.1,3.9-1.9,6-2.5c9.6-1.2,19.3-1.9,29-2C599.5,981.6,602.9,980.8,606,979.4z"/>
</g>
<g>
	<path class="st81" d="M602,984.4c6-0.3,10.7,2,14,7c-0.3,0.3-0.7,0.7-1,1c-2.4-1.4-4.7-2.7-7-4c-0.7,0.2-1.3,0.3-2,0.5   c0.8,1.5,1.8,2.8,3,4c-5.1,2.7-9.1,1.6-12-3.5c-1.3,0.7-2.7,1.3-4,2c-1.2-0.3-1.2-0.8,0-1.5C596,988.1,599,986.2,602,984.4z"/>
</g>
<g>
	<path class="st82" d="M504,995.4c2.4,0.2,4.7,0.5,7,1c0.8,4.4,1.8,8.7,3,13c-0.7,2.6-1.7,5.1-3,7.5c3.4,5.2,2.1,7.2-4,6   c-1.7-2.4-3.4-4.7-5-7c0.2-5.8,0.3-11.6,0.5-17.5C503,997.4,503.5,996.4,504,995.4z"/>
</g>
<g>
	<path class="st83" d="M540,994.4c0,14,0,28,0,42c-3-2.2-5.5-4.8-7.5-8c-2.9-7.8-4.3-15.8-4-24C531.9,1000.5,535.7,997.2,540,994.4z   "/>
</g>
<g>
	<path class="st84" d="M495,1004.4c1.4,8.6,3.1,17.2,5,26c-3.1-0.1-5.6-1.5-7.5-4c-1.3-5.6-1.6-11.3-1-17   C492.5,1007.6,493.6,1005.9,495,1004.4z"/>
</g>
<g>
	<path class="st85" d="M650,1006.4c2.8,2.5,6.1,3.7,10,3.5c0.8,0.8,1.7,1.7,2.5,2.5c0.7,4.3,0.7,8.7,0,13c-1.1-3.1-2.9-5.6-5.5-7.5   c-3.4-0.7-6.6-1.8-9.5-3.5c-0.7-1.3-0.7-2.7,0-4C648.9,1009.5,649.8,1008.1,650,1006.4z"/>
</g>
<g>
	<path class="st82" d="M629,1013.4c1.6,2,2.3,4.3,2,7c-0.2,8.3,0,16.7,0.5,25c1.9,6.9,6.2,11.6,13,14c-3.2-6-6.2-12.4-9-19   c-1.3-6.3-2.1-12.6-2.5-19c-0.3-2.6,0-4.9,1-7c1.4,4.6,2.9,9.3,4.5,14c2.7,2.5,5.7,4.5,9,6c2.1,3,3.4,6.3,4,10   c3.2-4.7,3.2-9.4,0-14c-3.4-2.3-6.9-4.5-10.5-6.5c-1.7-3-3.3-6-5-9c2-1.5,4-1.7,6-0.5c2.6,4,6.3,6.5,11,7.5   c4.6,5.3,6.1,11.5,4.5,18.5c-0.7,4.2-1.8,8.2-3.5,12c-0.5,1-1.2,1.2-2,0.5c-5-7.4-6.2-6.6-3.5,2.5c1.9,2.6,4.4,4.4,7.5,5.5   c-2.9,3-6.6,4.3-11,4c2.1,0.9,3.6,2.4,4.5,4.5c0.3,6.7,0.7,13.3,1,20c0.7,3.5,2.2,6.5,4.5,9c-0.6,1.3-1.6,2.1-3,2.5   c-2.7,0.7-5.3,0.7-8,0c-2.5-2.7-4.9-4.9-7-6.5c3.5,8.6,8.2,16.4,14,23.5c-4.5,2.4-8.3,1.5-11.5-2.5c-3.2-6.3-6.8-12.3-11-18   c1.8,8.3,4.9,16.1,9.5,23.5c-7.8,0.3-14.7-2.2-20.5-7.5c1.1,5.4,3.6,10.3,7.5,14.5c-12.9-1.4-23.1-7.6-30.5-18.5   c-8.6-16.2-10.9-33.2-7-51c-6.7,11.1-9.7,23.1-9,36c-3.8,7.8-9.9,12-18.5,12.5c3.5-3.2,6.7-6.7,9.5-10.5c1.1-6.3,2.1-12.6,3-19   c1.1-3.4,2.6-6.5,4.5-9.5c-0.3-0.2-0.7-0.3-1-0.5c-6.5,9-11,19-13.5,30c-3.5,5.6-8.3,9.1-14.5,10.5c3.6-3.8,6.9-7.8,10-12   c-3.3,0.5-6.6,0.5-10,0c-2-0.7-3.3-2-4-4c1.8-1.2,3.3-2.7,4.5-4.5c2.3-6.8,4.9-13.5,8-20c5.7-6.6,12.9-10.8,21.5-12.5   c9.5-6.2,14.5-15,15-26.5c2.9-1.1,5.4-2.7,7.5-5c-0.3,4-0.7,8-1,12c4.8-6.9,7.3-14.6,7.5-23c1.3,0,2.7,0,4,0c0.2,5,0,10-0.5,15   c-6.4,12-12.1,24.3-17,37c-4,12.4-3,24.4,3,36c3.9,5.9,8.6,11.3,14,16c-2-4.3-4.3-8.7-7-13c-4.3-10.6-5.6-21.6-4-33   c3.9-16.4,9-32.4,15.5-48c-1.3-3.3-1.3-6.7,0-10c5.1-4.6,7.8-3.4,8,3.5c-3.6,17-4.8,34.2-3.5,51.5c1,8.4,4.7,15.4,11,21   c-3.3-9.5-5.5-19.3-6.5-29.5c1.2-9.5,2.2-19,3-28.5c0.1-5.6-0.6-11.1-2-16.5c0.2-0.5,0.3-1,0.5-1.5   C626.5,1013.3,627.6,1013.6,629,1013.4z"/>
</g>
<g>
	<path class="st86" d="M570,1010.4c6,0.8,12,2,18,3.5c-1.4,1.1-3.1,1.6-5,1.5c-4.6-1.5-9.2-2-14-1.5c-1.2,1.3-2.5,2.5-4,3.5   c-1.1-0.9-1.2-1.9-0.5-3C566,1012.5,567.8,1011.1,570,1010.4z"/>
</g>
<g>
	<path class="st82" d="M521,1014.4c2,1.3,3.1,3.3,3.5,6c2.8,10.3-1,15.5-11.5,15.5c-3.1,3.6-5.3,7.8-6.5,12.5c-1.2,0.9-2.5,1.6-4,2   c-6.6-2.6-8.1-6.9-4.5-13c2.2,1.3,4.4,1.3,6.5,0c0.8-2.6,1.3-5.3,1.5-8c3.5,0.3,6.8-0.2,10-1.5C518,1023.5,519.7,1019,521,1014.4z"/>
</g>
<g>
	<path class="st87" d="M629,1013.4c1.9-0.3,3.6,0,5,1c-1,2.1-1.3,4.4-1,7c-0.7-0.3-1.3-0.7-2-1   C631.3,1017.7,630.6,1015.4,629,1013.4z"/>
</g>
<g>
	<path class="st88" d="M485,1015.4c1.5,8.3,3.1,16.6,5,25c-3.1-0.6-5.6-2.3-7.5-5c-0.7-5-0.7-10,0-15   C483.5,1018.9,484.4,1017.2,485,1015.4z"/>
</g>
<g>
	<path class="st89" d="M631,1020.4c0.7,0.3,1.3,0.7,2,1c0.4,6.4,1.2,12.7,2.5,19c2.8,6.6,5.8,13,9,19c-6.8-2.4-11.1-7.1-13-14   C631,1037.1,630.8,1028.8,631,1020.4z"/>
</g>
<g>
	<path class="st84" d="M680,1029.4c3-0.2,6,0,9,0.5c1.5,1.2,2.7,2.7,3.5,4.5c1.7,6.2,4.1,12.2,7,18c6.3,6.6,12.6,6.6,19,0   c1.8-13.3-3.9-18.3-17-15c-2.8-1.8-3-3.6-0.5-5.5c10.2-3,18-0.2,23.5,8.5c1.7,17.3-6.1,24.8-23.5,22.5   c-11.3-4.3-17.8-12.4-19.5-24.5c-0.5-0.5-1-1-1.5-1.5c-2.3-0.2-4.3-0.4-6-0.5C675.3,1033.4,677.3,1031.1,680,1029.4z"/>
</g>
<g>
	<path class="st90" d="M528,1033.4c9,9,17.7,18.3,26,28c-4.7,7.5-8.5,15.5-11.5,24c-1.6,2.6-3.7,4.4-6.5,5.5c2,4.8,5,9,9,12.5   c-1.2,1.7-2.3,3.3-3.5,5c-11.4-16.5-22.1-33.5-32-51c0.2-3.7,1.5-7,4-10c6.4,11.2,13.1,22.2,20,33c-5.1-12-11.1-23.6-18-35   c-0.5-1.6-0.7-3.3-0.5-5C521.5,1042,525.8,1039.7,528,1033.4z"/>
</g>
<g>
	<path class="st91" d="M477,1038.4c2,1.9,2.8,4.3,2.5,7c-6.3,5.5-12.5,11.2-18.5,17c-1.6-1.4-2.5-3.1-2.5-5   C464.8,1051.2,471,1044.9,477,1038.4z"/>
</g>
<g>
	<path class="st92" d="M704,1041.4c6.8-1.4,9.9,1.3,9.5,8c-5.8,3.2-9.7,1.5-11.5-5C702.4,1043.2,703.1,1042.2,704,1041.4z"/>
</g>
<g>
	<path class="st93" d="M528,1101.4c0,12.3,0,24.7,0,37c-7.7,9.8-16.5,18.5-26.5,26c-3-2-5.6-4.3-8-7c0.9-3.2,1.5-6.5,2-10   c19.9-11.7,25.9-28.3,18-50c-9.1-12.8-21.6-19.1-37.5-19c0-6.7,0-13.3,0-20c3-3.7,6.3-7,10-10c4.6,0.8,7.9,3.3,10,7.5   c1.9,1,3.9,1.6,6,2C510.3,1072.7,518.9,1087.2,528,1101.4z"/>
</g>
<g>
	<path class="st94" d="M613,1048.4c0,10.8,0.2,21.8,0.5,33c3.2,9.3,7.2,18.3,12,27c0.7,1.1,0.6,2.1-0.5,3c-4.8-1.8-8.9-4.5-12.5-8   c-5.1-10.8-6.8-22.1-5-34C609,1062.3,610.8,1055.3,613,1048.4z"/>
</g>
<g>
	<path class="st95" d="M680,1055.4c1.6,0.3,2.6,1.3,3,3c-10.1,18.4-13.6,38.1-10.5,59c1.1,10.6,3.4,20.9,7,31   c6.6,14.2,12.9,28.6,19,43c3.9,12.7,2.9,25.1-3,37c-9.5,11.7-20.9,14-34,7c-4.7,14.9-8.5,30.1-11.5,45.5c-0.1,2.2,0.9,3.5,3,4   c15.3,0.1,29.6-3.6,43-11c6.6-1.7,9.3,0.6,8,7c4.1,9.4,6,19.2,5.5,29.5c1.7,4.5,3.2,9,4.5,13.5c0.1,2-0.5,3.7-2,5   c-4.3,0-8.3,1-12,3c-2.6,5.2-5.9,9.9-10,14c-1.5,0.9-3.2,1.4-5,1.5c-3.9-1.7-7.9-2.2-12-1.5c-1.2,1.1-1.2,2.3,0,3.5   c-4.1,2.8-7.9,2.5-11.5-1c-3.1,4.3-4.9,3.8-5.5-1.5c1.5-5.8,5.1-9.1,11-10c4.5-5.9,8.8-5.9,13,0c3.7-1,7.1-3,10-6   c-2.5-2.6-5.5-3.1-9-1.5c0-1.6-0.4-3.1-1-4.5c8.2-4.8,10.8-11.7,8-20.5c0.8-0.9,1.8-1.6,3-2c2.1,1.8,3.9,3.8,5.5,6   c0.8-0.1,1.4-0.5,2-1c0.8-3.6,0-6.7-2.5-9.5c-4.9-0.7-9.3,0.6-13,4c-13.9,3.6-27.9,6.6-42,9c-2.9,1.2-5.6,2.9-8,5   c-4.1,1.3-7.2,0.1-9.5-3.5c-0.7-2.7-1.3-5.3-2-8c-5.9-7.4-9.9-15.7-12-25c-4.9-27.4-5.8-54.9-2.5-82.5c-1-5.9-2.7-11.5-5-17   c4.8-4.7,9.5-9.5,14-14.5c-0.2-0.3-0.3-0.7-0.5-1c-5.1,7.1-11.9,10.6-20.5,10.5c7.3-6.3,14.3-13,21-20c-0.7-0.7-1.3-0.7-2,0   c-5.5,6.5-11.8,11.8-19,16c-2.7,0.7-5.3,0.7-8,0c8.6-5.9,16.6-12.6,24-20c-0.7-0.7-1.3-0.7-2,0c-6.3,6.5-13.7,11.5-22,15   c-4.4,1.4-7.7,0-10-4c1.7-1.4,3-3,4-5c5-1.8,9-5,12-9.5c1.7,1.8,3.7,2.3,6,1.5c3.2-1.8,5.7-4.3,7.5-7.5c5,1.7,9.5,0.7,13.5-3   c-1.8-2.2-2.9-4.5-3.5-7c0.9,1.2,2.1,2,3.5,2.5c5.6,1,10.9,0.3,16-2c-5.3-4.7-4.3-5.9,3-3.5c2.1,16.7,5.9,33.1,11.5,49   c3.4,3.8,6.1,8.2,8,13c2.6,8.2,4.6,16.5,6,25c12.6,6.9,20.9,3.2,25-11c0.8-7.2-0.2-14.2-3-21c-17-31-23-64-18-99   C670.4,1074,674.3,1064.3,680,1055.4z"/>
</g>
<g>
	<path class="st96" d="M476,1058.4c0,6.7,0,13.3,0,20c-4.1-0.2-8.1,0.1-12,1c0-3.3,0-6.7,0-10C467.5,1065.3,471.5,1061.6,476,1058.4   z"/>
</g>
<g>
	<path class="st97" d="M634,1065.4c4,2.1,7.1,5.1,9.5,9c0.2,6.8,0.9,13.5,2,20c-2.4-2-4.4-4.4-6-7   C637.3,1080.2,635.5,1072.8,634,1065.4z"/>
</g>
<g>
	<path class="st98" d="M566,1067.4c0.9-0.1,1.5,0.2,2,1c-2.8,5.7-4.9,11.7-6.5,18c-2.2,2.4-4.8,4.1-8,5c-1.3-0.3-1.6-1-1-2   c3.6-4.4,6.3-9.4,8-15C562.1,1071.9,564,1069.6,566,1067.4z"/>
</g>
<g>
	<path class="st82" d="M470,1083.4c10.8-0.6,20.8,1.9,30,7.5c10.7,10.6,12.9,22.7,6.5,36.5c-4.5,6.6-10.3,11.6-17.5,15   c-1.8-0.8-3.5-1.8-5-3c-3.6,1.6-7.3,3-11,4c-0.7-2.3-0.8-4.7-0.5-7c9-3.4,16.7-8.7,23-16c6.3-15.2,1.8-25.3-13.5-30.5   c-5.7-0.7-11.3-0.7-17,0c-4.2,1.7-8.5,2.8-13,3.5c0.1-2.1,1.1-3.6,3-4.5C459.9,1086.6,464.9,1084.7,470,1083.4z"/>
</g>
<g>
	<path class="st99" d="M465,1096.4c0.7,0,1.3,0,2,0c2.7,0,5.3,0,8,0c0,10.3,0,20.7,0,31c-3.3,1.5-6.6,2.9-10,4   C465,1119.8,465,1108.1,465,1096.4z"/>
</g>
<g>
	<path class="st100" d="M467,1096.4c2.8-1,5.8-1.3,9-1c0,10.3,0,20.7,0,31c0,0.7-0.3,1-1,1c0-10.3,0-20.7,0-31   C472.3,1096.4,469.6,1096.4,467,1096.4z"/>
</g>
<g>
	<path class="st93" d="M476,1095.4c6.8,0.3,12,3.3,15.5,9c1.8,12.1-3.4,19.4-15.5,22C476,1116.1,476,1105.8,476,1095.4z"/>
</g>
<g>
	<path class="st101" d="M463,1097.4c0.3-0.8,1-1.2,2-1c0,11.7,0,23.3,0,35c-0.3,0-0.7,0-1,0C464.3,1119.9,463.9,1108.6,463,1097.4z"/>
</g>
<g>
	<path class="st102" d="M528,1101.4c1,0.3,1.7,1,2,2c-1.3,11.3-1.3,22.7,0,34c-0.3,0.8-1,1.2-2,1C528,1126.1,528,1113.8,528,1101.4z   "/>
</g>
<g>
	<path class="st103" d="M530,1103.4c2.5,3.8,4.5,7.8,6,12c-2.3,6.5-3.4,13.1-3.5,20c-0.7,0.9-1.5,1.6-2.5,2   C528.6,1126.1,528.6,1114.8,530,1103.4z"/>
</g>
<g>
	<path class="st104" d="M580,1102.4c1.3,2.3,1.1,4.6-0.5,7c-1.8,3.2-4.3,5.7-7.5,7.5c-7.4,3.4-15.1,6.1-23,8c-2.2,0.9-4.2,2.1-6,3.5   c-0.3-0.3-0.7-0.7-1-1c4-4.9,9-8.4,15-10.5c-4.8,0.2-9.5,1.4-14,3.5c-1-0.5-1.2-1.2-0.5-2c1.5-1.5,3-3,4.5-4.5   c8.2-0.8,16.2-2.5,24-5C574.4,1107.3,577.4,1105.1,580,1102.4z"/>
</g>
<g>
	<path class="st105" d="M659,1101.4c-0.2,16.2,2,32.2,6.5,48c4.8,14.7,10.5,29,17,43c1,5.6,0.1,10.9-2.5,16c-4.4,4.3-8.3,4-11.5-1   c-0.9-6.5-2.6-12.9-5-19c-9.7-19.9-15.9-40.9-18.5-63c5.3,0,9.7-2.2,13-6.5c-3.3-3.4-5.9-7.3-8-11.5   C653.9,1106.7,656.9,1104.7,659,1101.4z"/>
</g>
<g>
	<path class="st85" d="M586,1107.4c5.4,10.9,13.4,19.4,24,25.5c-2.5,0.9-4.7,0.4-6.5-1.5c-1.3,3.4-3.2,6.4-5.5,9   c-0.6-3.5-1.8-6.9-3.5-10c-1.6,5.8-4.3,11.2-8,16C587.3,1133.4,587.1,1120.4,586,1107.4z"/>
</g>
<g>
	<path class="st90" d="M579,1119.4c3.5,11.7,2,23-4.5,34c-4.4,6-10.3,10.2-17.5,12.5c-16.1,13.7-34.1,24.4-54,32   c-2.7,0.7-5.3,0.7-8,0c-3.4-4.8-7.9-7.9-13.5-9.5c-4.8-0.1-8.8,1.6-12,5c-2.1-2.9-1.6-5.4,1.5-7.5c-1.1-3.3-0.1-5.9,3-8   c3.5-1.5,7.2-1.8,11-1c1.3,0.7,2.3,1.7,3,3c1.8,0.8,3.4,0.6,5-0.5c-2.7-4.1-2.5-8.1,0.5-12c3,3.6,6.9,4.8,11.5,3.5   c12.3-11.7,24.7-23.3,37-35c8.6-4.1,17.6-7.1,27-9C573.3,1125.6,576.6,1123.1,579,1119.4z"/>
</g>
<g>
	<path class="st106" d="M570,1141.4c1.3,2.3,1.1,4.6-0.5,7c-15.3,15.7-33.5,26.8-54.5,33.5c-2.4,2.7-5,5-8,7c-1,0.7-2,0.7-3,0   c4.6-1.8,7.6-4.9,9-9.5c9-1.5,17.3-4.6,25-9.5C550,1162.1,560.7,1152.6,570,1141.4z"/>
</g>
<g>
	<path class="st107" d="M464,1138.4c1.1,2,2.1,4.2,3,6.5c-0.6,1.3-1.6,2.1-3,2.5C464,1144.4,464,1141.4,464,1138.4z"/>
</g>
<g>
	<path class="st91" d="M479,1147.4c4.7,0.2,7.2,2.6,7.5,7c-7.7,0.3-14.7,2.7-21,7c-0.7-2.5-0.4-4.8,1-7   C470.3,1151.4,474.5,1149.1,479,1147.4z"/>
</g>
<g>
	<path class="st108" d="M479,1161.4c6.2-0.4,8.5,2.2,7,8c-7.5-1.5-13.7,0.8-18.5,7c-1.9-2.3-1.9-4.6,0-7   C470.9,1166.1,474.8,1163.4,479,1161.4z"/>
</g>
<g>
	<path class="st109" d="M540,1214.4c0-9.3,0-18.7,0-28c8.5-5.4,17.1-10.6,26-15.5c2-0.7,4-0.7,6,0c8.1,3.2,15.8,7.2,23,12   c2,1.3,3.2,3.2,3.5,5.5c0.6,3.3,1.1,6.7,1.5,10C578.8,1199.7,558.8,1205,540,1214.4z"/>
</g>
<g>
	<path class="st110" d="M540,1186.4c0,9.3,0,18.7,0,28c-2.4,2.3-5,4.3-8,6c-1,0-2,0-3,0c0-9,0-18,0-27   C532.4,1190.9,536.1,1188.5,540,1186.4z"/>
</g>
<g>
	<path class="st111" d="M479,1193.4c4.2,0.2,5.5,2.2,4,6C477.2,1200.4,475.9,1198.4,479,1193.4z"/>
</g>
<g>
	<path class="st112" d="M528,1194.4c0,9,0,18,0,27c-5.9,0.9-10.4,3.9-13.5,9c-0.7,10.4-2,20.7-4,31c-0.3,12.3-0.7,24.7-1,37   c-3.4,2.5-7,4.5-11,6c-4.8-9.5-12.3-12.5-22.5-9c0-30.7,0-61.3,0-92c1.2,1.3,2.7,2,4.5,2c3.1-0.5,5.8-1.9,8-4   c1.8,1.1,3.3,2.6,4.5,4.5c2,0.7,4,0.7,6,0C509.1,1203.2,518.7,1199.3,528,1194.4z"/>
</g>
<g>
	<path class="st113" d="M529,1193.4c0,9,0,18,0,27c1,0,2,0,3,0c-1.1,0.9-2.4,1.3-4,1c0-9,0-18,0-27   C528,1193.8,528.3,1193.4,529,1193.4z"/>
</g>
<g>
	<path class="st114" d="M635,1192.4c0.7-0.1,1.4,0,2,0.5c-9.4,10.3-14.6,22.4-15.5,36.5c-2.8,19-1.5,37.7,4,56   c3.3,8.8,8.8,11.4,16.5,8c-2.7,7.6-7.3,9.4-14,5.5c-5.3-5.4-8.4-11.9-9.5-19.5c-2.3-12.6-3-25.2-2-38c1.9-12.1,4.4-24.1,7.5-36   c-0.8-3.3-1.3-6.7-1.5-10c1.3,2.7,2.7,5.3,4,8C628.8,1199.4,631.6,1195.7,635,1192.4z"/>
</g>
<g>
	<path class="st115" d="M464,1199.4c1,0.3,1.7,1,2,2c-1,32.8-1.3,65.8-1,99c0,0.7-0.3,1-1,1C464,1267.4,464,1233.4,464,1199.4z"/>
</g>
<g>
	<path class="st116" d="M476,1203.4c0,30.7,0,61.3,0,92c-2.6,3.9-6.3,5.6-11,5c-0.3-33.2,0-66.2,1-99c0.4,1.2,1.2,1.9,2.5,2   c1.9-0.9,3.6-2.3,5-4C474.5,1200.6,475.4,1202,476,1203.4z"/>
</g>
<g>
	<path class="st95" d="M595,1205.4c2,0,4,0,6,0c-1.5,12.1-2.5,24.3-3,36.5c-16.2,7.6-33.2,12-51,13c-3.3-2.2-4.8-5.4-4.5-9.5   c-2.1,3.3-1.9,6.5,0.5,9.5c3.1,2.4,6.6,3.5,10.5,3.5c15.2-1.4,30-4.4,44.5-9c1.3,3.7,1.3,7.3,0,11c-18.7,4.4-37.7,6.1-57,5   c-1.3,8-1.8,16-1.5,24c1.9-5.7,3.8-11.3,5.5-17c1.9-1,3.9-1.3,6-1c-1.7,12.1-6.2,23.1-13.5,33c0.4,5.3,0.4,10.6,0,16   c-4,1.5-8.2,2.5-12.5,3c-3,3.9-5.9,7.9-8.5,12c-5.2,3.5-10,7.3-14.5,11.5c-5.5,2.9-9.5,1.6-12-4c-1.3-0.5-2.6-0.7-4-0.5   c0,1,0,2,0,3c-1.4,0.2-2.7,0-4-0.5c-2.9-2.8-6-2.9-9.5-0.5c-1.8-6.6,0.4-11.5,6.5-14.5c6.2-4.4,10.9-3.3,14,3.5   c3.2-1.5,6.4-3.2,9.5-5c0.2-1.9-0.5-3.6-2-5c-3.4,3.7-6.2,3.5-8.5-0.5c-2.5-1.1-5.2-1.8-8-2c-1.4-2.9-3.2-3.1-5.5-0.5   c-0.6,0.9-0.5,1.8,0.5,2.5c-3.5,2.5-6.7,5.3-9.5,8.5c-1.8-0.5-3-1.7-3.5-3.5c0.6-2.3,1.5-4.4,2.5-6.5c4-1.3,7.5-3.4,10.5-6.5   c4.2-2.7,8.5-3,13-1c1.2,1.9,2.6,3.8,4,5.5c1.2-0.8,2.6-1.1,4-1c-0.5-2-0.7-4-0.5-6c5.8-2.6,11.2-5.9,16-10c0.2-14.4,0.9-28.7,2-43   c0.2-4.8,1.7-9.2,4.5-13c-5-12.5-0.7-18.7,13-18.5c1-2.3,2.7-4,5-5C557.2,1213.3,575.6,1207.5,595,1205.4z"/>
</g>
<g>
	<path class="st117" d="M694,1281.4c1.1,1.3,0.8,2.5-1,3.5c-12.5,7-25.9,9.1-40,6.5c12.5,0.3,24.5-1.9,36-6.5   C690.7,1283.7,692.4,1282.6,694,1281.4z"/>
</g>
<g>
	<path class="st118" d="M481,1300.4c4.9-0.6,8.2,1.4,10,6c-3.9,0.5-7.6,1.5-11,3c-4.1-2.6-6.1-1.3-6,4c-3,0-6,0-9,0   c0.1-5.2,2.7-7.4,8-6.5C475.2,1304.1,477.9,1302,481,1300.4z"/>
</g>
<g>
	<path class="st119" d="M681,1308.4c3.7,0.3,4.9,2.3,3.5,6c-1.4,1.7-3.1,3.1-5,4c-2.2-1.8-4-4-5.5-6.5   C676.4,1310.7,678.7,1309.6,681,1308.4z"/>
</g>
<g>
	<path class="st120" d="M660,1312.4c3.8-0.1,6.8,1.4,9,4.5c-4.4,0.4-8.4,1.7-12,4c-3.8,2.3-6.8,5.5-9,9.5c-1.9-1.2-2.4-2.9-1.5-5   C650.2,1320.2,654.7,1315.9,660,1312.4z"/>
</g>
<g>
	<path class="st108" d="M666,1322.4c3.9-0.9,6.6,0.4,8,4c-2.9,0.7-5.4,2-7.5,4c-0.7-0.7-1.3-1.3-2-2c-4.2,4.2-8.4,8.5-12.5,13   c-1.2-3.8-0.7-7.5,1.5-11C658,1328.4,662.2,1325.7,666,1322.4z"/>
</g>
<g>
	<path class="st121" d="M537,1329.4c0.7-0.9,1.7-1.2,3-1c0,24,0,48,0,72c-1,0.2-1.7-0.2-2-1c0.7-11.5,1-23.2,1-35   C539,1352.4,538.3,1340.7,537,1329.4z"/>
</g>
<g>
	<path class="st122" d="M537,1329.4c1.3,11.3,2,23,2,35c0,11.8-0.3,23.5-1,35c-3.1-1.1-6.1-2.4-9-4c-1-20.7-1.3-41.3-1-62   c-0.1-1,0.2-1.8,1-2.5C531.6,1330.4,534.3,1329.9,537,1329.4z"/>
</g>
<g>
	<path class="st123" d="M464,1338.4c0.5,4.4,1.7,8.7,3.5,13c2.8,1,5.6,1,8.5,0c0.3,5.7,0,11.4-1,17c-4-2-7.6-4.3-11-7   C464,1353.8,464,1346.1,464,1338.4z"/>
</g>
</svg>