<?xml version="1.0" encoding="UTF-8" standalone="no"?>
<svg xmlns:dc="http://purl.org/dc/elements/1.1/" xmlns:cc="http://creativecommons.org/ns#" xmlns:rdf="http://www.w3.org/1999/02/22-rdf-syntax-ns#" xmlns:svg="http://www.w3.org/2000/svg" xmlns="http://www.w3.org/2000/svg" id="svg1216" version="1.1" viewBox="0 0 211.41101 264.58334" height="264.58334mm" width="211.41101mm">
  <defs id="defs1210"/>
  <metadata id="metadata1213">
    <rdf:RDF>
      <cc:Work rdf:about="">
        <dc:format>image/svg+xml</dc:format>
        <dc:type rdf:resource="http://purl.org/dc/dcmitype/StillImage"/>
        <dc:title/>
      </cc:Work>
    </rdf:RDF>
  </metadata>
  <g transform="translate(-0.00238985,-32.636926)" id="layer1">
    <path id="path1109" d="M 0.60483748,33.239374 V 247.13722 c 0,9.48017 2.98365582,26.74357 22.63970552,26.74357 h 62.95725 c 12.477088,0 19.506047,22.51927 19.506047,22.51927 0,0 7.02911,-22.51927 19.50625,-22.51927 h 62.9572 c 19.65596,0 22.63967,-17.2634 22.63967,-26.74357 V 33.239374 Z" style="display:inline;opacity:1;fill:#009fe3;fill-opacity:1;fill-rule:nonzero;stroke:none;stroke-width:1.20489526;stroke-linecap:butt;stroke-linejoin:round;stroke-miterlimit:4;stroke-dasharray:none;stroke-dashoffset:0;stroke-opacity:1"/>
    <path id="path1104" d="m 105.70789,251.54788 a 86.600274,43.416629 0 0 0 -75.671052,22.3331 H 86.2019 c 12.47708,0 19.50599,22.51902 19.50599,22.51902 0,0 7.02923,-22.51902 19.50636,-22.51902 h 56.08244 a 86.600274,43.416629 0 0 0 -75.5888,-22.3331 z" style="display:inline;opacity:1;fill:#4c9b30;fill-opacity:1;fill-rule:nonzero;stroke:#229334;stroke-width:1.64094591;stroke-linecap:butt;stroke-linejoin:round;stroke-miterlimit:10;stroke-dasharray:none;stroke-dashoffset:91.01101685;stroke-opacity:1"/>
    <g transform="matrix(0.21798945,0,0,0.21800967,-726.50086,142.44822)" id="g1910" style="display:inline;stroke-width:1.40094304">
      <path style="opacity:1;fill:#ffffff;fill-opacity:1;fill-rule:nonzero;stroke:#a9a9a9;stroke-width:1.68113172;stroke-linecap:butt;stroke-linejoin:round;stroke-miterlimit:10;stroke-dasharray:none;stroke-dashoffset:91.01101685;stroke-opacity:1" d="m 3711.6797,458.00195 -18.3516,24.84375 h 248.6563 l -18.3516,-24.84375 z" id="path1710"/>
      <path style="opacity:1;fill:#ffd700;fill-opacity:1;fill-rule:nonzero;stroke:#b8860b;stroke-width:1.40094304;stroke-linecap:butt;stroke-linejoin:round;stroke-miterlimit:10;stroke-dasharray:none;stroke-dashoffset:91.01101685;stroke-opacity:1" d="m 3753.0854,-299.3058 c 5.571,28.90996 7.7897,53.35022 11.0251,79.14599 l 107.0885,-0.0625 c 3.6318,-26.30734 6.7878,-52.37673 11.1777,-79.0631 -41.7226,-8.51215 -84.6397,-9.63268 -129.2913,-0.0204 z" id="path1648"/>
      <path style="opacity:1;fill:none;fill-opacity:1;fill-rule:nonzero;stroke:#b8860b;stroke-width:1.40094304;stroke-linecap:butt;stroke-linejoin:round;stroke-miterlimit:10;stroke-dasharray:none;stroke-dashoffset:91.01101685;stroke-opacity:1" d="m 3757.418,-272.03719 120.9046,-0.65049" id="path1650"/>
      <path style="opacity:1;fill:none;fill-opacity:1;fill-rule:nonzero;stroke:#b8860b;stroke-width:1.40094304;stroke-linecap:butt;stroke-linejoin:round;stroke-miterlimit:10;stroke-dasharray:none;stroke-dashoffset:91.01101685;stroke-opacity:1" d="m 3758.5171,-265.82894 118.9546,-0.81374" id="path1652"/>
      <g id="g1610" transform="translate(0,-1.2815408)" style="stroke-width:1.40094304;stroke-miterlimit:10;stroke-dasharray:none">
        <path id="path1596" d="m 3817.6562,-300.62891 c -21.4394,0 -21.6145,20.01285 -22.7734,37.97657 l 6.6699,43.58007 h 16.1035 16.1036 l 6.6699,-43.58007 c -1.1589,-17.96372 -1.334,-37.97657 -22.7735,-37.97657 z" style="opacity:1;fill:#ffd700;fill-opacity:1;fill-rule:nonzero;stroke:#b8860b;stroke-width:1.40094304;stroke-linecap:butt;stroke-linejoin:round;stroke-miterlimit:10;stroke-dasharray:none;stroke-dashoffset:91.01101685;stroke-opacity:1"/>
        <path id="path1601" d="m 3805.5829,-297.47309 c 2.8632,5.39442 4.6104,11.40363 12.0733,11.40363 7.4629,0 9.2101,-6.00921 12.0733,-11.40363" style="opacity:1;fill:#ffd700;fill-opacity:1;fill-rule:nonzero;stroke:#b8860b;stroke-width:1.40094304;stroke-linecap:butt;stroke-linejoin:round;stroke-miterlimit:10;stroke-dasharray:none;stroke-dashoffset:91.01101685;stroke-opacity:1"/>
        <path id="path1605" d="m 3817.6562,-286.18475 v 67.27523" style="opacity:1;fill:#ffd700;fill-opacity:1;fill-rule:nonzero;stroke:#b8860b;stroke-width:1.40094304;stroke-linecap:butt;stroke-linejoin:round;stroke-miterlimit:10;stroke-dasharray:none;stroke-dashoffset:91.01101685;stroke-opacity:1"/>
      </g>
      <path id="path1344" d="m 3817.6562,-432.94727 c -5.012,0 -9.327,5.94714 -10.0156,10.53321 -1.2347,-1.4592 -3.6917,-3.02085 -5.4101,-1.72656 -2.6269,1.97853 0.022,5.93245 -0.586,8.12695 -3.5916,-1.82737 -4.8019,-0.83376 -5.2246,3.36133 -0.8235,8.1722 11.7465,15.89067 7.2891,20.30273 -2.4595,2.43446 -6.3572,-5.21083 -12.1875,-4.23828 -7.2077,1.20232 3.9848,6.76908 0.832,7.42969 -2.3052,0.17172 -6.5365,-8.05176 -10.0508,-4.8086 -3.0364,8.6745 3.4474,13.57568 7.1485,16.53711 -2.1251,-0.0961 -3.3854,-1.79155 -6.9922,-0.6875 4.1606,7.39659 10.8696,12.98355 19.414,13.9336 -4.2314,0.48768 1.5019,6.89393 4.625,4.97265 4.5925,6.02034 -3.7512,8.85893 -9.996,7.07422 -13.8101,-3.94674 -21.1587,-19.21537 -23.9629,-32.42383 -1.5044,0.90263 -3.1026,1.41427 -4.9317,1.84961 1.9391,6.20493 1.9623,13.10246 1.4278,19.77539 0,6.8146 -4.7996,13.24425 -11.1622,14.30469 -1.3886,0.23142 -2.9168,-0.001 -3.666,-1.25 -0.5607,-0.93444 -0.2052,-2.26938 -0.2422,-3.30273 -1.818,-2.82798 14.8702,-23.90231 -1.4101,-14.86914 1.1382,-3.2251 5.4928,-8.14095 4.2715,-11.80469 -1.4072,-4.22175 -10.092,3.56919 -10.4356,5.8418 -3.4388,-3.72535 2.7326,-8.41128 4.1485,-11.80665 4.7253,-11.33118 -4.326,-20.1608 -8.5411,-10.07226 0,-6.94315 -4.0195,-9.17009 -8.3418,-13.41797 -1.2964,2.30495 -3.557,3.831 -2.2636,7.19727 -8.8661,-15.73374 -26.9368,-20.55631 -31.0918,-10.375 1.3183,4.36803 3.6134,4.53182 6.8105,2.47656 19.9223,12.07472 39.4238,57.78773 40.4707,78.80469 -0.571,1.23924 -1.1367,6.34866 0.01,7.69726 0.4107,0.10582 0.6734,0.20206 0.9668,0.39649 1.8897,3.88831 1.6908,9.20672 2.043,12.71679 0.062,2.54454 1.0835,6.43133 1.1015,11.28711 22.4474,-3.20985 43.8743,-3.75781 65.9531,-3.75781 22.0789,0 43.5077,0.54796 65.9551,3.75781 0.018,-4.85578 1.0396,-8.74257 1.1016,-11.28711 0.3522,-3.51007 0.1513,-8.82848 2.041,-12.71679 0.2934,-0.19443 0.5561,-0.29067 0.9668,-0.39649 1.1465,-1.3486 0.5827,-6.45802 0.012,-7.69726 1.0469,-21.01696 20.5465,-66.72997 40.4688,-78.80469 3.1971,2.05526 5.4922,1.89147 6.8105,-2.47656 -4.155,-10.18131 -22.2237,-5.35874 -31.0898,10.375 1.2934,-3.36627 -0.9692,-4.89232 -2.2657,-7.19727 -4.3223,4.24788 -8.3398,6.47482 -8.3398,13.41797 -4.2151,-10.08854 -13.2683,-1.25892 -8.543,10.07226 1.4159,3.39537 7.5892,8.0813 4.1504,11.80665 -0.3436,-2.2726 -9.0283,-10.06355 -10.4355,-5.8418 -1.2213,3.66374 3.1333,8.57959 4.2715,11.80469 -16.2803,-9.03317 0.4078,12.04116 -1.4102,14.86914 -0.037,1.03335 0.3185,2.36829 -0.2422,3.30273 -0.7492,1.24868 -2.2774,1.48142 -3.666,1.25 -6.3626,-1.06044 -11.1621,-7.49009 -11.1621,-14.30469 -0.5345,-6.67293 -0.5133,-13.57046 1.4258,-19.77539 -1.8291,-0.43534 -3.4253,-0.94698 -4.9297,-1.84961 -2.8042,13.20846 -10.1528,28.47709 -23.9629,32.42383 -6.2448,1.78471 -14.5886,-1.05388 -9.9961,-7.07422 3.1231,1.92128 8.8564,-4.48497 4.625,-4.97265 8.5444,-0.95005 15.2535,-6.53701 19.4141,-13.9336 -3.6068,-1.10405 -4.8691,0.5914 -6.9942,0.6875 3.7011,-2.96143 10.1868,-7.86261 7.1504,-16.53711 -3.5143,-3.24316 -7.7456,4.98032 -10.0508,4.8086 -3.1528,-0.66061 8.0398,-6.22737 0.8321,-7.42969 -5.8303,-0.97255 -9.73,6.67274 -12.1895,4.23828 -4.4574,-4.41206 8.1145,-12.13053 7.291,-20.30273 -0.4227,-4.19509 -1.6349,-5.1887 -5.2265,-3.36133 -0.608,-2.1945 2.0429,-6.14843 -0.584,-8.12695 -1.7184,-1.29429 -4.1774,0.26736 -5.4121,1.72656 -0.6886,-4.58607 -5.0036,-10.53321 -10.0157,-10.53321 z" style="opacity:1;fill:#ffd700;fill-opacity:1;fill-rule:nonzero;stroke:#b8860b;stroke-width:1.40094304;stroke-linecap:square;stroke-linejoin:round;stroke-miterlimit:10;stroke-dasharray:none;stroke-dashoffset:91.01101685;stroke-opacity:0.99215686"/>
      <path style="opacity:1;fill:none;fill-opacity:1;fill-rule:nonzero;stroke:#b8860b;stroke-width:1.40094304;stroke-linecap:square;stroke-linejoin:round;stroke-miterlimit:10;stroke-dasharray:none;stroke-dashoffset:91.01101685;stroke-opacity:1" d="m 3750.6007,-310.3983 c 22.2125,-4.17 44.4249,-3.84382 67.0563,-4.66504 22.6314,0.82122 44.8438,0.49504 67.0563,4.66504" id="path1057"/>
      <path style="opacity:1;fill:none;fill-opacity:1;fill-rule:nonzero;stroke:#b8860b;stroke-width:1.40094304;stroke-linecap:butt;stroke-linejoin:round;stroke-miterlimit:10;stroke-dasharray:none;stroke-dashoffset:91.01101685;stroke-opacity:1" d="m 3748.5595,-323.11599 c 21.4944,-5.92713 45.1395,-6.26268 69.0975,-6.87359 23.958,0.61091 47.6031,0.94646 69.0975,6.87359" id="path1059"/>
      <path style="opacity:1;fill:none;fill-opacity:1;fill-rule:nonzero;stroke:#b8860b;stroke-width:1.40094304;stroke-linecap:butt;stroke-linejoin:round;stroke-miterlimit:10;stroke-dasharray:none;stroke-dashoffset:91.01101685;stroke-opacity:1" d="m 3747.582,-331.20898 c 23.2186,-5.15535 45.5039,-4.77947 68.8917,-5.45492" id="path1061"/>
      <path style="opacity:1;fill:#b8860b;fill-opacity:1;fill-rule:nonzero;stroke:none;stroke-width:0.56177813;stroke-linecap:square;stroke-linejoin:round;stroke-miterlimit:10;stroke-dasharray:none;stroke-dashoffset:91.01101685;stroke-opacity:0.99215686" d="m 3707.8008,-413.2832 -0.2656,0.36132 c 0.2899,0.21331 0.5813,0.42648 0.8691,0.64649 8.9976,6.88251 17.735,15.94073 25.0176,28.50195 1.0884,1.87723 2.1444,3.83259 3.164,5.8711 3.0954,6.44195 5.7554,13.70325 8.0684,21.85156 2.0447,7.20294 3.8588,15.1255 5.1426,23.91601 l 1.9843,-0.28906 c -1.2959,-8.8738 -2.9874,-16.9264 -5.2031,-24.19336 -0.6047,-1.98355 -1.2481,-3.90376 -1.9199,-5.76953 1.4226,-2.12147 2.4936,-4.08379 3.5508,-5.60351 1.7217,-2.46453 3.5373,-5.08299 4.3945,-6.3711 -1.1405,1.71382 -2.6826,3.23075 -5.1035,5.79102 -1.6052,1.69752 -2.7488,3.06602 -3.5488,4.28906 -1.3921,-3.6711 -2.9021,-7.11527 -4.4942,-10.35547 0.5014,-1.71101 0.9821,-3.14341 1.6153,-4.34961 0.8368,-1.57486 2.0473,-3.40504 3.1914,-5.32226 1.1656,-1.95309 2.1268,-3.81455 2.6621,-5.74219 0.6018,-2.16697 0.5033,-3.90931 0.1797,-5.36328 0.2878,1.45753 0.2598,3.20889 -0.4746,5.26953 -0.6538,1.83417 -1.7317,3.58342 -3.0196,5.41211 -1.2694,1.80254 -2.6213,3.54012 -3.6133,5.12304 -0.7317,1.16755 -1.2007,2.14952 -1.5156,3.0293 -0.3119,-0.60704 -0.6224,-1.21407 -0.9394,-1.80664 -0.073,-0.14212 -0.1491,-0.27666 -0.2227,-0.41797 0.9144,-1.61892 1.7695,-3.28469 2.627,-4.43164 1.3784,-1.82789 2.8611,-3.72046 3.5175,-4.66406 -0.9209,1.32383 -2.0415,2.25579 -4.0312,4.21484 -1.3854,1.36404 -2.2897,2.47889 -2.8398,3.52539 -0.7576,-1.40734 -1.5254,-2.789 -2.3165,-4.11523 -0.3942,-0.66102 -0.7952,-1.3078 -1.1972,-1.94922 1.0454,-1.39637 2.8336,-4.35962 3.5722,-7.94922 0.3227,-1.56838 0.4061,-3.07076 0.2559,-4.48633 -0.2013,-1.89742 -0.784,-3.303 -1.2852,-4.30273 0.5011,0.99958 0.9716,2.46039 0.9942,4.32031 0.017,1.3873 -0.2156,2.82555 -0.6758,4.28516 -0.9635,3.05594 -2.6428,5.42534 -3.6973,6.83008 -2.7582,-4.25602 -5.6823,-8.07869 -8.7207,-11.51758 0,-0.72557 -0.027,-3.16411 -0.082,-4.80274 -0.077,-2.27801 -0.2048,-3.56533 -0.3418,-4.8125 0.123,1.12016 0.1799,2.66834 0.1426,4.8125 -0.03,1.74739 -0.091,3.32625 -0.1055,4.37305 -4.6334,-5.17976 -9.5179,-9.50088 -14.4629,-13.16016 -0.2924,-0.21647 -0.5819,-0.43419 -0.873,-0.64843 z m 39.3047,17.86914 c -0.057,-0.28843 -0.1201,-0.57091 -0.1993,-0.83594 0.078,0.26134 0.1361,0.55203 0.1993,0.83594 z" id="path1063"/>
      <path transform="translate(-0.5607,0.02469825)" style="opacity:1;fill:#b8860b;fill-opacity:1;fill-rule:nonzero;stroke:none;stroke-width:0.56177813;stroke-linecap:square;stroke-linejoin:round;stroke-miterlimit:10;stroke-dasharray:none;stroke-dashoffset:91.01101685;stroke-opacity:0.99215686" d="m 3754.6416,-345.33538 c 1.2632,0.63045 3.4243,1.35822 5.9718,1.14727 1.9249,-0.15941 3.9226,-0.84683 5.7714,-2.3181 1.8585,-1.47893 3.4251,-3.63542 4.662,-6.46643 1.6761,-3.836 2.4366,-8.18239 2.8786,-11.78319 0.1723,-1.40429 0.3119,-2.81241 0.4185,-4.2232 0.6035,1.27951 1.2372,2.54454 1.9006,3.79404 1.5721,2.96111 3.7954,6.7431 6.9141,10.01089 2.3338,2.44526 4.9339,4.35827 7.8749,5.6662 2.935,1.30531 5.9666,1.89876 8.9785,2.00943 3.9398,0.14475 7.5733,-0.55756 9.9006,-1.17964 -2.3074,0.61675 -5.9215,1.52577 -9.9007,1.66782 -3.0515,0.10893 -6.2381,-0.22917 -9.433,-1.34789 -3.2163,-1.12618 -6.149,-2.94202 -8.8105,-5.39974 -2.4464,-2.2592 -4.4208,-4.84373 -5.9445,-7.2382 -0.5828,2.91246 -1.5187,6.0636 -2.9881,8.8824 -1.5544,2.98192 -3.5014,5.20301 -5.7374,6.6171 -2.2158,1.40134 -4.4654,1.85419 -6.4725,1.79653 -2.6334,-0.0757 -4.7479,-1.01821 -5.9843,-1.63529 z" id="path1087"/>
      <path id="path1103" transform="translate(0.38138938,24.660615)" style="opacity:1;fill:#b8860b;fill-opacity:1;fill-rule:nonzero;stroke:none;stroke-width:1.96272123;stroke-linecap:square;stroke-linejoin:round;stroke-miterlimit:10;stroke-dasharray:none;stroke-dashoffset:91.01101685;stroke-opacity:0.99215686" d="m 3799.938,-408.94521 c 0,0 0.5809,0.51202 2.1395,1.52136 1.6387,1.06123 4.0904,2.46363 7.4859,3.99216 2.4982,1.12464 4.64,1.9149 5.0033,2.03526 0,0 0.2203,-0.66496 0.2203,-0.66496 0,0 0.2203,-0.66496 0.2203,-0.66496 0.014,0.005 -2.6527,-0.87332 -5.0012,-1.7701 -3.4164,-1.30459 -5.9902,-2.47204 -7.7206,-3.29883 -1.6617,-0.79394 -2.3475,-1.14993 -2.3475,-1.14993 z m -15.4825,-5.92478 c 0,0 -0.1934,0.77919 1.3672,2.65286 0.627,0.75286 1.5754,1.68824 3.055,2.83132 2.0483,1.5825 4.9372,3.42913 9.0805,5.67385 3.1229,1.69187 6.3462,3.28483 9.93,5.02004 1.4004,0.67801 2.9197,1.40906 4.1315,2.00606 1.1559,0.56948 2.1908,1.09431 2.9467,1.52005 0,0 0.3438,-0.61035 0.3438,-0.61035 0,0 0.3438,-0.61034 0.3438,-0.61034 -0.7955,-0.44804 -1.8627,-0.98307 -3.0253,-1.54611 -1.2463,-0.60354 -2.7339,-1.30217 -4.1615,-1.97304 -3.6432,-1.71216 -6.7904,-3.20052 -9.9718,-4.8267 -4.1695,-2.13125 -7.0719,-3.83561 -9.1653,-5.27382 -1.5067,-1.03519 -2.4949,-1.8659 -3.1678,-2.52392 -1.6513,-1.6148 -1.7068,-2.3399 -1.7068,-2.3399 z m 19.6557,-27.20206 c 0,0 0.4188,1.12428 1.8318,3.69373 1.4019,2.54912 3.836,6.56588 8.0097,11.96551 0,0 0.5542,-0.4284 0.5542,-0.4284 0,0 0.5542,-0.4284 0.5542,-0.4284 -4.1013,-5.30604 -6.8733,-9.182 -8.5256,-11.48238 -1.7005,-2.36757 -2.4243,-3.32006 -2.4243,-3.32006 z m 10.4423,-14.95866 c 0,0 -1.1283,23.96676 -0.8817,95.85458 0,0 1.2105,-0.004 1.2105,-0.004 0,0 1.2105,-0.004 1.2105,-0.004 -0.2466,-71.88782 -1.5393,-95.84628 -1.5393,-95.84628 z"/>
      <ellipse style="opacity:1;fill:none;fill-opacity:1;fill-rule:nonzero;stroke:#b8860b;stroke-width:1.40094304;stroke-linecap:butt;stroke-linejoin:round;stroke-miterlimit:10;stroke-dasharray:none;stroke-dashoffset:91.01101685;stroke-opacity:1" id="path1107" cx="3761.2363" cy="331.19312" rx="8.8378582" ry="6.8454652" transform="rotate(-9.8832705)"/>
      <ellipse transform="matrix(0.9858414,-0.16768046,0.1756902,0.98444551,0,0)" ry="3.161159" rx="4.1746035" cy="316.08353" cx="3759.9673" id="ellipse1109" style="opacity:1;fill:none;fill-opacity:1;fill-rule:nonzero;stroke:#b8860b;stroke-width:1.40096629;stroke-linecap:butt;stroke-linejoin:round;stroke-miterlimit:10;stroke-dasharray:none;stroke-dashoffset:91.01101685;stroke-opacity:1"/>
      <ellipse transform="rotate(-9.8832705)" ry="6.8454652" rx="8.8378582" cy="333.54117" cx="3788.8848" id="ellipse1111" style="opacity:1;fill:none;fill-opacity:1;fill-rule:nonzero;stroke:#b8860b;stroke-width:1.40094304;stroke-linecap:butt;stroke-linejoin:round;stroke-miterlimit:10;stroke-dasharray:none;stroke-dashoffset:91.01101685;stroke-opacity:1"/>
      <ellipse style="opacity:1;fill:none;fill-opacity:1;fill-rule:nonzero;stroke:#b8860b;stroke-width:1.40096629;stroke-linecap:butt;stroke-linejoin:round;stroke-miterlimit:10;stroke-dasharray:none;stroke-dashoffset:91.01101685;stroke-opacity:1" id="ellipse1113" cx="3787.6067" cy="318.3205" rx="4.1746035" ry="3.161159" transform="matrix(0.9858414,-0.16768046,0.1756902,0.98444551,0,0)"/>
      <ellipse style="opacity:1;fill:#ffd700;fill-opacity:1;fill-rule:nonzero;stroke:#b8860b;stroke-width:1.5368346;stroke-linecap:butt;stroke-linejoin:round;stroke-miterlimit:10;stroke-dasharray:none;stroke-dashoffset:91.01101685;stroke-opacity:1" id="path1123" cx="3767.3259" cy="-391.36993" rx="8.7436371" ry="8.3205576"/>
      <ellipse ry="4.7666926" rx="4.4292274" cy="-391.99048" cx="3767.3259" id="ellipse1125" style="opacity:1;fill:#ffd700;fill-opacity:1;fill-rule:nonzero;stroke:#b8860b;stroke-width:1.5368346;stroke-linecap:butt;stroke-linejoin:round;stroke-miterlimit:10;stroke-dasharray:none;stroke-dashoffset:91.01101685;stroke-opacity:1"/>
      <path id="path1352" d="m 3887.7409,-331.36366 c -23.2186,-5.15535 -45.5128,-4.62479 -68.9006,-5.30024" style="opacity:1;fill:none;fill-opacity:1;fill-rule:nonzero;stroke:#b8860b;stroke-width:1.40094304;stroke-linecap:butt;stroke-linejoin:round;stroke-miterlimit:10;stroke-dasharray:none;stroke-dashoffset:91.01101685;stroke-opacity:0.99215686"/>
      <path transform="matrix(-1,0,0,1,7635.8747,0.02469825)" style="opacity:1;fill:#b8860b;fill-opacity:1;fill-rule:nonzero;stroke:none;stroke-width:0.56177813;stroke-linecap:square;stroke-linejoin:round;stroke-miterlimit:10;stroke-dasharray:none;stroke-dashoffset:91.01101685;stroke-opacity:0.99215686" d="m 3708.0961,-412.94646 c 0.2899,0.21331 0.5812,0.42658 0.869,0.64659 8.9976,6.88251 17.7349,15.94034 25.0175,28.50156 1.0884,1.87723 2.1443,3.83286 3.1639,5.87137 3.0954,6.44195 5.7547,13.70356 8.0677,21.85187 2.0447,7.20294 3.8593,15.12492 5.1431,23.91543 l 1.9844,-0.2898 c -1.2959,-8.8738 -2.988,-16.92508 -5.2037,-24.19204 -2.5073,-8.22371 -5.632,-15.40934 -9.0353,-21.77079 -1.0536,-2.04587 -2.1435,-4.00722 -3.2656,-5.88855 -7.5099,-12.5912 -16.4572,-21.59084 -25.602,-28.35795 -0.2924,-0.21647 -0.5817,-0.43519 -0.8728,-0.64943 z" id="path1354"/>
      <path id="path1356" d="m 3723.6609,-408.68444 c 0.123,1.12016 0.1788,2.66873 0.1415,4.81289 -0.034,1.95419 -0.1164,3.91767 -0.1164,4.88973 0,0 0.2005,0 0.2005,0 0,0 0.2005,0 0.2005,0 0,-0.67222 -0.028,-3.22276 -0.084,-4.89138 -0.077,-2.27801 -0.205,-3.56407 -0.342,-4.81124 z" style="opacity:1;fill:#daa520;fill-opacity:1;fill-rule:nonzero;stroke:none;stroke-width:0.56177813;stroke-linecap:square;stroke-linejoin:round;stroke-miterlimit:10;stroke-dasharray:none;stroke-dashoffset:91.01101685;stroke-opacity:0.99215686" transform="matrix(-1,0,0,1,7635.8747,0.02469825)"/>
      <path transform="matrix(-1,0,0,1,7635.8747,0.02469825)" style="opacity:1;fill:#b8860b;fill-opacity:1;fill-rule:nonzero;stroke:none;stroke-width:0.56177813;stroke-linecap:square;stroke-linejoin:round;stroke-miterlimit:10;stroke-dasharray:none;stroke-dashoffset:91.01101685;stroke-opacity:0.99215686" d="m 3736.184,-402.98697 c 0.5011,0.99958 0.9721,2.45912 0.9947,4.31904 0.017,1.3873 -0.2162,2.82604 -0.6764,4.28565 -1.0764,3.41418 -3.0919,6.04462 -4.075,7.33992 -0.019,0.0247 0.5009,0.54009 0.4815,0.56527 0.019,-0.0252 0.6549,0.33844 0.6748,0.31227 1.0372,-1.36668 2.8793,-4.38604 3.6299,-8.03354 0.3227,-1.56838 0.4054,-3.07128 0.2552,-4.48685 -0.2013,-1.89742 -0.7835,-3.30203 -1.2847,-4.30176 z" id="path1358"/>
      <path transform="matrix(-1,0,0,1,7635.8747,0.02469825)" style="opacity:1;fill:#b8860b;fill-opacity:1;fill-rule:nonzero;stroke:none;stroke-width:0.56177813;stroke-linecap:square;stroke-linejoin:round;stroke-miterlimit:10;stroke-dasharray:none;stroke-dashoffset:91.01101685;stroke-opacity:0.99215686" d="m 3747.4661,-396.27412 c 0.4794,1.60431 0.6052,3.63669 -0.2746,6.1051 -0.6538,1.83417 -1.7318,3.58245 -3.0197,5.41114 -1.2694,1.80254 -2.6208,3.5411 -3.6128,5.12403 -1.2327,1.96688 -1.7798,3.44635 -1.9581,4.70486 -0.018,0.13026 0.6904,0.57992 0.6834,0.69873 0.01,-0.11881 0.7877,-0.38129 0.8029,-0.48821 0.1467,-1.03563 0.5018,-2.32625 1.5467,-4.29287 0.8368,-1.57486 2.047,-3.40547 3.1911,-5.32269 1.1656,-1.95309 2.1258,-3.81418 2.6611,-5.74182 0.7193,-2.5901 0.4581,-4.59854 -0.02,-6.19827 z" id="path1360"/>
      <path transform="matrix(-1,0,0,1,7635.8747,0.02469825)" style="opacity:1;fill:#b8860b;fill-opacity:1;fill-rule:nonzero;stroke:none;stroke-width:0.56177813;stroke-linecap:square;stroke-linejoin:round;stroke-miterlimit:10;stroke-dasharray:none;stroke-dashoffset:91.01101685;stroke-opacity:0.99215686" d="m 3744.0251,-387.92535 c -0.9209,1.32383 -2.0404,2.25552 -4.0301,4.21457 -1.8098,1.78192 -2.8096,3.14116 -3.2536,4.47415 -0.01,0.0284 0.6021,0.31647 0.5939,0.34272 0.01,-0.0263 0.6705,0.1048 0.6784,0.0811 0.3998,-1.20038 0.9109,-2.34952 2.4936,-4.44841 1.3784,-1.82789 2.8614,-3.7205 3.5178,-4.6641 z" id="path1362"/>
      <path transform="matrix(-1,0,0,1,7635.8747,0.02469825)" style="opacity:1;fill:#b8860b;fill-opacity:1;fill-rule:nonzero;stroke:none;stroke-width:0.56177813;stroke-linecap:square;stroke-linejoin:round;stroke-miterlimit:10;stroke-dasharray:none;stroke-dashoffset:91.01101685;stroke-opacity:0.99215686" d="m 3753.1636,-374.38682 c -1.1405,1.71382 -2.6829,3.2322 -5.1038,5.79247 -2.0562,2.17445 -3.3721,3.81473 -4.152,5.29203 -0.089,0.16823 0.4203,1.0472 0.3429,1.213 0.077,-0.1658 1.0746,-0.26751 1.156,-0.42177 0.856,-1.62147 1.4814,-2.81008 3.3634,-5.50422 1.7217,-2.46453 3.5363,-5.0834 4.3935,-6.37151 z" id="path1364"/>
      <path transform="matrix(-1,0,0,1,7635.8747,0.02469825)" style="opacity:1;fill:#b8860b;fill-opacity:1;fill-rule:nonzero;stroke:none;stroke-width:0.56177813;stroke-linecap:square;stroke-linejoin:round;stroke-miterlimit:10;stroke-dasharray:none;stroke-dashoffset:91.01101685;stroke-opacity:0.99215686" d="m 3754.6416,-345.33538 c 1.2632,0.63045 3.4243,1.35822 5.9718,1.14727 1.9249,-0.15941 3.9226,-0.84683 5.7714,-2.3181 1.8585,-1.47893 3.4251,-3.63542 4.662,-6.46643 1.6761,-3.836 2.4366,-8.18239 2.8786,-11.78319 0.1723,-1.40429 0.3119,-2.81241 0.4185,-4.2232 0.6035,1.27951 1.2372,2.54454 1.9006,3.79404 1.5721,2.96111 3.7954,6.7431 6.9141,10.01089 2.3338,2.44526 4.9339,4.35827 7.8749,5.6662 2.935,1.30531 5.9666,1.89876 8.9785,2.00943 3.9398,0.14475 7.5733,-0.55756 9.9006,-1.17964 -2.3074,0.61675 -5.9215,1.52577 -9.9007,1.66782 -3.0515,0.10893 -6.2381,-0.22917 -9.433,-1.34789 -3.2163,-1.12618 -6.149,-2.94202 -8.8105,-5.39974 -2.4464,-2.2592 -4.4208,-4.84373 -5.9445,-7.2382 -0.5828,2.91246 -1.5187,6.0636 -2.9881,8.8824 -1.5544,2.98192 -3.5014,5.20301 -5.7374,6.6171 -2.2158,1.40134 -4.4654,1.85419 -6.4725,1.79653 -2.6334,-0.0757 -4.7479,-1.01821 -5.9843,-1.63529 z" id="path1366"/>
      <path id="path1374" transform="matrix(-1,0,0,1,7634.9326,24.660615)" style="opacity:1;fill:#b8860b;fill-opacity:1;fill-rule:nonzero;stroke:none;stroke-width:1.96272123;stroke-linecap:square;stroke-linejoin:round;stroke-miterlimit:10;stroke-dasharray:none;stroke-dashoffset:91.01101685;stroke-opacity:0.99215686" d="m 3799.938,-408.94521 c 0,0 0.5809,0.51202 2.1395,1.52136 1.6387,1.06123 4.0904,2.46363 7.4859,3.99216 2.4982,1.12464 4.64,1.9149 5.0033,2.03526 0,0 0.2203,-0.66496 0.2203,-0.66496 0,0 0.2203,-0.66496 0.2203,-0.66496 0.014,0.005 -2.6527,-0.87332 -5.0012,-1.7701 -3.4164,-1.30459 -5.9902,-2.47204 -7.7206,-3.29883 -1.6617,-0.79394 -2.3475,-1.14993 -2.3475,-1.14993 z m -15.4826,-5.92478 c 0,0 -0.1934,0.77919 1.3672,2.65286 0.627,0.75286 1.5754,1.68824 3.055,2.83132 2.0483,1.5825 4.9372,3.42913 9.0805,5.67385 3.1229,1.69187 6.3462,3.28483 9.93,5.02004 1.4004,0.67801 2.9197,1.40906 4.1315,2.00606 1.1559,0.56948 2.1908,1.09431 2.9467,1.52005 0,0 0.3438,-0.61035 0.3438,-0.61035 0,0 0.3438,-0.61034 0.3438,-0.61034 -0.7955,-0.44804 -1.8627,-0.98307 -3.0253,-1.54611 -1.2463,-0.60354 -2.7339,-1.30217 -4.1615,-1.97304 -3.6432,-1.71216 -6.7904,-3.20052 -9.9718,-4.8267 -4.1695,-2.13125 -7.0719,-3.83561 -9.1653,-5.27382 -1.5067,-1.03519 -2.4949,-1.8659 -3.1678,-2.52392 -1.6513,-1.6148 -1.7068,-2.3399 -1.7068,-2.3399 z m 19.6558,-27.20206 c 0,0 0.4188,1.12428 1.8318,3.69373 1.4019,2.54912 3.836,6.56588 8.0097,11.96551 0,0 0.5542,-0.4284 0.5542,-0.4284 0,0 0.5542,-0.4284 0.5542,-0.4284 -4.1013,-5.30604 -6.8733,-9.182 -8.5256,-11.48238 -1.7005,-2.36757 -2.4243,-3.32006 -2.4243,-3.32006 z m 10.4423,-14.95866 c 0,0 -1.1283,23.96676 -0.8817,95.85458 0,0 1.2105,-0.004 1.2105,-0.004 0,0 1.2105,-0.004 1.2105,-0.004 -0.2466,-71.88782 -1.5393,-95.84628 -1.5393,-95.84628 z"/>
      <ellipse transform="matrix(-0.98515948,-0.17164146,-0.17164146,0.98515948,0,0)" ry="6.8454652" rx="8.8378582" cy="-979.34332" cx="-3760.7656" id="ellipse1376" style="opacity:1;fill:none;fill-opacity:1;fill-rule:nonzero;stroke:#b8860b;stroke-width:1.40094304;stroke-linecap:butt;stroke-linejoin:round;stroke-miterlimit:10;stroke-dasharray:none;stroke-dashoffset:91.01101685;stroke-opacity:0.99215686"/>
      <ellipse style="opacity:1;fill:none;fill-opacity:1;fill-rule:nonzero;stroke:#b8860b;stroke-width:1.40096629;stroke-linecap:butt;stroke-linejoin:round;stroke-miterlimit:10;stroke-dasharray:none;stroke-dashoffset:91.01101685;stroke-opacity:0.99215686" id="ellipse1378" cx="-3756.8315" cy="-964.25177" rx="4.1746035" ry="3.161159" transform="matrix(-0.9858414,-0.16768046,-0.1756902,0.98444551,0,0)"/>
      <ellipse style="opacity:1;fill:none;fill-opacity:1;fill-rule:nonzero;stroke:#b8860b;stroke-width:1.40094304;stroke-linecap:butt;stroke-linejoin:round;stroke-miterlimit:10;stroke-dasharray:none;stroke-dashoffset:91.01101685;stroke-opacity:0.99215686" id="ellipse1380" cx="-3733.1172" cy="-976.9953" rx="8.8378582" ry="6.8454652" transform="matrix(-0.98515948,-0.17164146,-0.17164146,0.98515948,0,0)"/>
      <ellipse transform="matrix(-0.9858414,-0.16768046,-0.1756902,0.98444551,0,0)" ry="3.161159" rx="4.1746035" cy="-962.01477" cx="-3729.1921" id="ellipse1382" style="opacity:1;fill:none;fill-opacity:1;fill-rule:nonzero;stroke:#b8860b;stroke-width:1.40096629;stroke-linecap:butt;stroke-linejoin:round;stroke-miterlimit:10;stroke-dasharray:none;stroke-dashoffset:91.01101685;stroke-opacity:0.99215686"/>
      <ellipse ry="7.6154246" rx="8.7436361" cy="-322.39993" cx="-3818.0759" id="ellipse1384" style="opacity:1;fill:none;fill-opacity:1;fill-rule:nonzero;stroke:#b8860b;stroke-width:1.40094304;stroke-linecap:butt;stroke-linejoin:round;stroke-miterlimit:10;stroke-dasharray:none;stroke-dashoffset:91.01101685;stroke-opacity:0.99215686" transform="scale(-1,1)"/>
      <ellipse style="opacity:1;fill:none;fill-opacity:1;fill-rule:nonzero;stroke:#b8860b;stroke-width:1.40094304;stroke-linecap:butt;stroke-linejoin:round;stroke-miterlimit:10;stroke-dasharray:none;stroke-dashoffset:91.01101685;stroke-opacity:1" id="ellipse1386" cx="-3818.0759" cy="-322.39993" rx="4.2950635" ry="3.7069788" transform="scale(-1,1)"/>
      <ellipse ry="8.3205576" rx="8.7436371" cy="-391.36993" cx="-3867.988" id="ellipse1388" style="opacity:1;fill:#ffd700;fill-opacity:1;fill-rule:nonzero;stroke:#b8860b;stroke-width:1.5368346;stroke-linecap:butt;stroke-linejoin:round;stroke-miterlimit:10;stroke-dasharray:none;stroke-dashoffset:91.01101685;stroke-opacity:1" transform="scale(-1,1)"/>
      <ellipse style="opacity:1;fill:#ffd700;fill-opacity:1;fill-rule:nonzero;stroke:#b8860b;stroke-width:1.5368346;stroke-linecap:butt;stroke-linejoin:round;stroke-miterlimit:10;stroke-dasharray:none;stroke-dashoffset:91.01101685;stroke-opacity:1" id="ellipse1390" cx="-3867.988" cy="-391.99048" rx="4.4292274" ry="4.7666926" transform="scale(-1,1)"/>
      <path transform="matrix(-1,0,0,1,7635.8747,0.02469825)" style="opacity:1;fill:#b8860b;fill-opacity:1;fill-rule:nonzero;stroke:none;stroke-width:0.56177813;stroke-linecap:square;stroke-linejoin:round;stroke-miterlimit:10;stroke-dasharray:none;stroke-dashoffset:91.01101685;stroke-opacity:0.99215686" d="m 3723.6609,-408.68444 c 0.123,1.12016 0.1788,2.66873 0.1415,4.81289 -0.034,1.95419 -0.1164,3.91767 -0.1164,4.88973 0,0 0.2005,0 0.2005,0 0,0 0.2005,0 0.2005,0 0,-0.67222 -0.028,-3.22276 -0.084,-4.89138 -0.077,-2.27801 -0.205,-3.56407 -0.342,-4.81124 z" id="path1400"/>
      <ellipse style="opacity:1;fill:none;fill-opacity:1;fill-rule:nonzero;stroke:#b8860b;stroke-width:1.40094304;stroke-linecap:butt;stroke-linejoin:round;stroke-miterlimit:10;stroke-dasharray:none;stroke-dashoffset:91.01101685;stroke-opacity:0.99215686" id="ellipse1428" cx="-3818.0759" cy="-322.39993" rx="8.7436361" ry="7.6154246" transform="scale(-1,1)"/>
      <g id="g1570" transform="matrix(1.5650555,0,0,1.7749918,-2122.4273,170.30409)" style="stroke-width:0.84053814;stroke-miterlimit:10;stroke-dasharray:none">
        <path style="opacity:1;fill:#ffd700;fill-opacity:1;fill-rule:nonzero;stroke:#b8860b;stroke-width:0.84053814;stroke-linecap:butt;stroke-linejoin:round;stroke-miterlimit:10;stroke-dasharray:none;stroke-dashoffset:91.01101685;stroke-opacity:1" d="m 3763.6327,-219.74954 c -4.0463,-5.66486 -4.8475,-11.86197 -4.2824,-19.02384 0.4347,-5.50862 -2.0301,-16.63713 -7.4322,-18.80056 -11.6483,0.35721 -10.2411,-3.6071 -5.7462,-6.46477 7.924,0.003 14.3072,-0.84582 19.3549,4.22381 8.0345,6.86818 8.3769,15.58478 8.329,26.1106 -0.024,5.3865 -0.8338,11.5111 2.3166,13.95476 z" id="path1564"/>
        <path style="opacity:1;fill:none;fill-opacity:1;fill-rule:nonzero;stroke:#b8860b;stroke-width:0.84053814;stroke-linecap:butt;stroke-linejoin:round;stroke-miterlimit:10;stroke-dasharray:none;stroke-dashoffset:91.01101685;stroke-opacity:1" d="m 3751.5783,-257.56465 c -1.7154,-2.53745 1.8882,-6.88969 4.4242,-6.36584" id="path1566"/>
        <path style="opacity:1;fill:none;fill-opacity:1;fill-rule:nonzero;stroke:#b8860b;stroke-width:0.84053814;stroke-linecap:butt;stroke-linejoin:round;stroke-miterlimit:10;stroke-dasharray:none;stroke-dashoffset:91.01101685;stroke-opacity:1" d="m 3752.3033,-262.0346 c 13.318,3.47558 14.4278,18.09763 14.4731,27.8465 0.027,5.76137 0.03,10.65014 3.527,14.43856" id="path1568"/>
      </g>
      <g id="g1660" transform="translate(-0.16135514,-1.1090296)" style="stroke-width:1.40094304;stroke-miterlimit:10;stroke-dasharray:none">
        <g style="fill:#ffd700;fill-opacity:1;stroke-width:1.32951152;stroke-miterlimit:10;stroke-dasharray:none" transform="matrix(1.110342,0,0,1,-378.97603,0.6779406)" id="g1578">
          <path id="path1572" d="m 3763.6327,-219.74954 c -4.0463,-5.66486 -2.8274,-11.2208 -2.6136,-18.40618 0.1532,-5.14745 -0.6422,-12.58601 -3.8083,-16.03085 -11.1365,2.20307 -18.6045,-4.01954 -11.816,-8.89763 5.352,-3.84583 17.7664,0.42382 20.7995,2.89871 8.1987,7.21951 2.7391,34.45218 10.8621,40.43595 z" style="opacity:1;fill:#ffd700;fill-opacity:1;fill-rule:nonzero;stroke:#b8860b;stroke-width:1.32951152;stroke-linecap:butt;stroke-linejoin:round;stroke-miterlimit:10;stroke-dasharray:none;stroke-dashoffset:91.01101685;stroke-opacity:1"/>
        </g>
        <path id="path1580" d="m 3797.0921,-261.99149 c -5.161,1.10797 -3.5357,10.20044 1.7059,6.70607 2.2794,-1.5196 -0.2369,-5.13961 -1.6471,-2.11768 l -3.0547,0.2395" style="opacity:1;fill:none;fill-opacity:1;fill-rule:nonzero;stroke:#b8860b;stroke-width:1.40094304;stroke-linecap:butt;stroke-linejoin:round;stroke-miterlimit:10;stroke-dasharray:none;stroke-dashoffset:91.01101685;stroke-opacity:1"/>
        <path id="path1582" d="m 3792.5869,-253.50863 c 1.3658,-0.26533 3.0019,-0.60007 4.0655,-0.98298" style="opacity:1;fill:#ffd700;fill-opacity:1;fill-rule:nonzero;stroke:#b8860b;stroke-width:1.40094304;stroke-linecap:butt;stroke-linejoin:round;stroke-miterlimit:10;stroke-dasharray:none;stroke-dashoffset:91.01101685;stroke-opacity:1"/>
        <path id="path1584" d="m 3798.6542,-258.96369 -4.5174,0.25108" style="opacity:1;fill:#ffd700;fill-opacity:1;fill-rule:nonzero;stroke:#b8860b;stroke-width:1.40094304;stroke-linecap:butt;stroke-linejoin:round;stroke-miterlimit:10;stroke-dasharray:none;stroke-dashoffset:91.01101685;stroke-opacity:1"/>
        <path id="path1588" d="m 3798.4534,-258.11565 c -0.3446,0.0258 -0.5685,0.34418 -0.7369,0.612 -0.1254,0.19363 -0.1928,0.48617 -0.4575,0.53055 -0.8595,0.10298 -1.7268,0.13354 -2.5869,0.22999 -0.1477,0.0731 -0.031,0.24759 0,0.35526 0.2335,0.59206 0.6764,1.14145 1.2993,1.34222 0.3306,0.12396 0.6908,0.12506 1.0333,0.0546 0.5884,-0.1 1.1236,-0.39491 1.6128,-0.72498 0.4082,-0.28401 0.6676,-0.77614 0.6345,-1.27679 -0.013,-0.41328 -0.2065,-0.85132 -0.5732,-1.06452 -0.071,-0.0365 -0.1494,-0.0594 -0.2294,-0.0583 z" style="opacity:1;fill:#daa520;fill-opacity:1;fill-rule:nonzero;stroke:none;stroke-width:1.40094304;stroke-linecap:butt;stroke-linejoin:round;stroke-miterlimit:10;stroke-dasharray:none;stroke-dashoffset:91.01101685;stroke-opacity:1"/>
      </g>
      <g id="g1562" transform="matrix(1.0354214,0,0,0.99999997,-132.53838,-8.9671516e-6)" style="stroke-width:1.37677169;stroke-miterlimit:10;stroke-dasharray:none">
        <path id="path1553" d="m 3763.6327,-219.74954 c -4.0463,-5.66486 -4.8475,-11.86197 -4.2824,-19.02384 0.4347,-5.50862 -1.1134,-15.76157 -6.5155,-17.925 -15.8921,6.97505 -15.6317,-15.03713 6.9684,-7.52248 2.3539,0.83117 4.0231,2.70541 5.7236,4.40596 7.0943,7.09427 7.8649,16.16914 7.8649,26.06513 0.7684,5.12801 -1.0147,10.65777 3.6647,14.00023 z" style="opacity:1;fill:#ffd700;fill-opacity:1;fill-rule:nonzero;stroke:#b8860b;stroke-width:1.37677169;stroke-linecap:butt;stroke-linejoin:round;stroke-miterlimit:10;stroke-dasharray:none;stroke-dashoffset:91.01101685;stroke-opacity:1"/>
        <path id="path1555" d="m 3752.8348,-256.69838 c -5.1985,-4.04653 3.0101,-8.6886 6.5045,-7.67359" style="opacity:1;fill:none;fill-opacity:1;fill-rule:nonzero;stroke:#b8860b;stroke-width:1.37677169;stroke-linecap:butt;stroke-linejoin:round;stroke-miterlimit:10;stroke-dasharray:none;stroke-dashoffset:91.01101685;stroke-opacity:1"/>
        <path id="path1557" d="m 3751.5132,-260.87281 c 14.0436,1.06388 12.4508,15.76918 13.1489,26.09361 0.3888,5.75121 2.1443,11.24124 5.6413,15.02966" style="opacity:1;fill:none;fill-opacity:1;fill-rule:nonzero;stroke:#b8860b;stroke-width:1.37677169;stroke-linecap:butt;stroke-linejoin:round;stroke-miterlimit:10;stroke-dasharray:none;stroke-dashoffset:91.01101685;stroke-opacity:1"/>
      </g>
      <g style="stroke-width:0.84053814;stroke-miterlimit:10;stroke-dasharray:none" transform="matrix(-1.5650555,0,0,1.7749918,9757.8003,170.15236)" id="g1626">
        <path id="path1620" d="m 3763.6327,-219.74954 c -4.0463,-5.66486 -4.8475,-11.86197 -4.2824,-19.02384 0.4347,-5.50862 -2.0301,-16.63713 -7.4322,-18.80056 -11.6483,0.35721 -10.2411,-3.6071 -5.7462,-6.46477 7.924,0.003 14.3072,-0.84582 19.3549,4.22381 8.0345,6.86818 8.3769,15.58478 8.329,26.1106 -0.024,5.3865 -0.8338,11.5111 2.3166,13.95476 z" style="opacity:1;fill:#ffd700;fill-opacity:1;fill-rule:nonzero;stroke:#b8860b;stroke-width:0.84053814;stroke-linecap:butt;stroke-linejoin:round;stroke-miterlimit:10;stroke-dasharray:none;stroke-dashoffset:91.01101685;stroke-opacity:1"/>
        <path id="path1622" d="m 3751.5783,-257.56465 c -1.7154,-2.53745 1.8882,-6.88969 4.4242,-6.36584" style="opacity:1;fill:none;fill-opacity:1;fill-rule:nonzero;stroke:#b8860b;stroke-width:0.84053814;stroke-linecap:butt;stroke-linejoin:round;stroke-miterlimit:10;stroke-dasharray:none;stroke-dashoffset:91.01101685;stroke-opacity:1"/>
        <path id="path1624" d="m 3752.3033,-262.0346 c 13.318,3.47558 14.4278,18.09763 14.4731,27.8465 0.027,5.76137 0.03,10.65014 3.527,14.43856" style="opacity:1;fill:none;fill-opacity:1;fill-rule:nonzero;stroke:#b8860b;stroke-width:0.84053814;stroke-linecap:butt;stroke-linejoin:round;stroke-miterlimit:10;stroke-dasharray:none;stroke-dashoffset:91.01101685;stroke-opacity:1"/>
      </g>
      <g style="fill:#ffd700;fill-opacity:1;stroke-width:1.32951152;stroke-miterlimit:10;stroke-dasharray:none" transform="matrix(-1.110342,0,0,1,8015.0939,-0.44362968)" id="g1630">
        <path id="path1628" d="m 3763.6327,-219.74954 c -4.0463,-5.66486 -2.8274,-11.2208 -2.6136,-18.40618 0.1532,-5.14745 -0.6422,-12.58601 -3.8083,-16.03085 -11.1365,2.20307 -18.6045,-4.01954 -11.816,-8.89763 5.352,-3.84583 17.7664,0.42382 20.7995,2.89871 8.1987,7.21951 2.7391,34.45218 10.8621,40.43595 z" style="opacity:1;fill:#ffd700;fill-opacity:1;fill-rule:nonzero;stroke:#b8860b;stroke-width:1.32951152;stroke-linecap:butt;stroke-linejoin:round;stroke-miterlimit:10;stroke-dasharray:none;stroke-dashoffset:91.01101685;stroke-opacity:1"/>
      </g>
      <path id="path1632" d="m 3838.7998,-263.11306 c 5.161,1.10797 3.5357,10.20044 -1.7059,6.70607 -2.2794,-1.5196 0.2369,-5.13961 1.6471,-2.11768 l 3.0547,0.2395" style="opacity:1;fill:none;fill-opacity:1;fill-rule:nonzero;stroke:#b8860b;stroke-width:1.40094304;stroke-linecap:butt;stroke-linejoin:round;stroke-miterlimit:10;stroke-dasharray:none;stroke-dashoffset:91.01101685;stroke-opacity:1"/>
      <path id="path1634" d="m 3843.305,-254.6302 c -1.3658,-0.26533 -3.0019,-0.60007 -4.0655,-0.98298" style="opacity:1;fill:#ffd700;fill-opacity:1;fill-rule:nonzero;stroke:#b8860b;stroke-width:1.40094304;stroke-linecap:butt;stroke-linejoin:round;stroke-miterlimit:10;stroke-dasharray:none;stroke-dashoffset:91.01101685;stroke-opacity:1"/>
      <path id="path1636" d="m 3837.2377,-260.08526 4.5174,0.25108" style="opacity:1;fill:#ffd700;fill-opacity:1;fill-rule:nonzero;stroke:#b8860b;stroke-width:1.40094304;stroke-linecap:butt;stroke-linejoin:round;stroke-miterlimit:10;stroke-dasharray:none;stroke-dashoffset:91.01101685;stroke-opacity:1"/>
      <path id="path1638" d="m 3837.4385,-259.23722 c 0.3446,0.0258 0.5685,0.34418 0.7369,0.612 0.1254,0.19363 0.1928,0.48617 0.4575,0.53055 0.8595,0.10298 1.7268,0.13354 2.5869,0.22999 0.1477,0.0731 0.031,0.24759 0,0.35526 -0.2335,0.59206 -0.6764,1.14145 -1.2993,1.34222 -0.3306,0.12396 -0.6908,0.12506 -1.0333,0.0546 -0.5884,-0.1 -1.1236,-0.39491 -1.6128,-0.72498 -0.4082,-0.28401 -0.6676,-0.77614 -0.6345,-1.27679 0.013,-0.41328 0.2065,-0.85132 0.5732,-1.06452 0.071,-0.0365 0.1494,-0.0594 0.2294,-0.0583 z" style="opacity:1;fill:#daa520;fill-opacity:1;fill-rule:nonzero;stroke:none;stroke-width:1.40094304;stroke-linecap:butt;stroke-linejoin:round;stroke-miterlimit:10;stroke-dasharray:none;stroke-dashoffset:91.01101685;stroke-opacity:1"/>
      <g style="stroke-width:1.37677169;stroke-miterlimit:10;stroke-dasharray:none" transform="matrix(-1.0354214,0,0,0.99999997,7767.9114,-0.15173853)" id="g1646">
        <path style="opacity:1;fill:#ffd700;fill-opacity:1;fill-rule:nonzero;stroke:#b8860b;stroke-width:1.37677169;stroke-linecap:butt;stroke-linejoin:round;stroke-miterlimit:10;stroke-dasharray:none;stroke-dashoffset:91.01101685;stroke-opacity:1" d="m 3763.6327,-219.74954 c -4.0463,-5.66486 -4.8475,-11.86197 -4.2824,-19.02384 0.4347,-5.50862 -1.1134,-15.76157 -6.5155,-17.925 -15.8921,6.97505 -15.6317,-15.03713 6.9684,-7.52248 2.3539,0.83117 4.0231,2.70541 5.7236,4.40596 7.0943,7.09427 7.8649,16.16914 7.8649,26.06513 0.7684,5.12801 -1.0147,10.65777 3.6647,14.00023 z" id="path1640"/>
        <path style="opacity:1;fill:none;fill-opacity:1;fill-rule:nonzero;stroke:#b8860b;stroke-width:1.37677169;stroke-linecap:butt;stroke-linejoin:round;stroke-miterlimit:10;stroke-dasharray:none;stroke-dashoffset:91.01101685;stroke-opacity:1" d="m 3752.8348,-256.69838 c -5.1985,-4.04653 3.0101,-8.6886 6.5045,-7.67359" id="path1642"/>
        <path style="opacity:1;fill:none;fill-opacity:1;fill-rule:nonzero;stroke:#b8860b;stroke-width:1.37677169;stroke-linecap:butt;stroke-linejoin:round;stroke-miterlimit:10;stroke-dasharray:none;stroke-dashoffset:91.01101685;stroke-opacity:1" d="m 3751.5132,-260.87281 c 14.0436,1.06388 12.4508,15.76918 13.1489,26.09361 0.3888,5.75121 2.1443,11.24124 5.6413,15.02966" id="path1644"/>
      </g>
      <rect style="opacity:1;fill:#ffd700;fill-opacity:1;fill-rule:nonzero;stroke:#b8860b;stroke-width:1.40094304;stroke-linecap:butt;stroke-linejoin:round;stroke-miterlimit:10;stroke-dasharray:none;stroke-dashoffset:91.01101685;stroke-opacity:1" id="rect1662" width="110.34261" height="6.555748" x="3762.4849" y="-220.15981" ry="3.4556336" rx="3.4559541"/>
      <path style="opacity:1;fill:#ffffff;fill-opacity:1;fill-rule:nonzero;stroke:#a9a9a9;stroke-width:1.40094304;stroke-linecap:butt;stroke-linejoin:round;stroke-miterlimit:10;stroke-dasharray:none;stroke-dashoffset:91.01101685;stroke-opacity:1" d="m 3742.2321,409.85271 c -4.3625,1.60992 -8.7361,3.4305 -5.4235,11.63798 30.9589,11.98019 56.3299,10.24982 80.8476,10.24982 24.5177,0 49.8887,1.73037 80.8476,-10.24982 3.3126,-8.20748 -1.061,-10.02806 -5.4235,-11.63798" id="path1687"/>
      <path style="opacity:1;fill:#ffffff;fill-opacity:1;fill-rule:nonzero;stroke:#a9a9a9;stroke-width:1.40094304;stroke-linecap:butt;stroke-linejoin:round;stroke-miterlimit:10;stroke-dasharray:none;stroke-dashoffset:91.01101685;stroke-opacity:1" d="m 3748.1076,398.66669 -5.8755,11.18602 c 19.5536,10.64238 49.973,9.83014 75.4241,9.83014 25.4511,0 55.8705,0.81224 75.4241,-9.83014 l -5.8755,-11.18602 z" id="path1685"/>
      <path id="path1705" d="m 3908.221,462.61909 c 2.5721,-14.53905 -4.1601,-18.09893 -12.203,-20.11224 h -156.7236 c -8.0429,2.01331 -14.7751,5.57319 -12.203,20.11224 14.8202,18.82624 61.1286,16.60954 90.5648,16.60954 29.4362,0 83.1794,0.47665 90.5648,-16.60954 z" style="opacity:1;fill:#ffffff;fill-opacity:1;fill-rule:nonzero;stroke:#a9a9a9;stroke-width:1.40094304;stroke-linecap:butt;stroke-linejoin:round;stroke-miterlimit:10;stroke-dasharray:none;stroke-dashoffset:91.01101685;stroke-opacity:1"/>
      <path style="opacity:1;fill:#ffffff;fill-opacity:1;fill-rule:nonzero;stroke:#a9a9a9;stroke-width:1.40094304;stroke-linecap:butt;stroke-linejoin:round;stroke-miterlimit:10;stroke-dasharray:none;stroke-dashoffset:91.01101685;stroke-opacity:1" d="m 3742.6841,428.38309 -3.3897,14.12376 c 3.6318,8.63567 54.3077,11.76711 78.3618,11.76711 24.0541,0 74.73,-3.13144 78.3618,-11.76711 l -3.3897,-14.12376" id="path1691"/>
      <path style="opacity:1;fill:#ffffff;fill-opacity:1;fill-rule:nonzero;stroke:#a9a9a9;stroke-width:1.40094304;stroke-linecap:butt;stroke-linejoin:round;stroke-miterlimit:10;stroke-dasharray:none;stroke-dashoffset:91.01101685;stroke-opacity:1" d="m 3736.8086,421.49069 5.8755,6.8924 c 28.1339,8.26117 50.505,7.9093 74.9721,7.9093 24.4671,0 46.8382,0.35187 74.9721,-7.9093 l 5.8755,-6.8924" id="path1689"/>
      <path style="opacity:1;fill:#ffffff;fill-opacity:1;fill-rule:nonzero;stroke:#a9a9a9;stroke-width:1.40094304;stroke-linecap:butt;stroke-linejoin:round;stroke-miterlimit:10;stroke-dasharray:none;stroke-dashoffset:91.01101685;stroke-opacity:1" d="m 3750.5757,387.89449 c -4.9396,0.76633 -7.0496,6.89557 -2.4681,10.7722 1.5093,4.02492 53.2719,6.66925 69.5486,6.02999 16.2767,0.63926 68.0393,-2.00507 69.5486,-6.02999 4.5815,-3.87663 2.4715,-10.00587 -2.4681,-10.7722 z" id="path1683"/>
      <rect style="opacity:1;fill:#ffffff;fill-opacity:1;fill-rule:nonzero;stroke:#a9a9a9;stroke-width:1.68113172;stroke-linecap:butt;stroke-linejoin:round;stroke-miterlimit:10;stroke-dasharray:none;stroke-dashoffset:91.01101685;stroke-opacity:1" id="rect1708" width="248.65596" height="82.471924" x="3693.3281" y="482.84521"/>
      <path style="opacity:1;fill:#ffffff;fill-opacity:1;fill-rule:nonzero;stroke:#a9a9a9;stroke-width:1.40094292;stroke-linecap:butt;stroke-linejoin:round;stroke-miterlimit:10;stroke-dasharray:none;stroke-dashoffset:91.01101685;stroke-opacity:1" d="m 3764.2096,-213.50949 106.8976,0.16041 13.6296,601.24357 c -28.2539,8.45553 -110.8856,8.46718 -134.1611,0 z" id="rect1664"/>
      <path style="opacity:1;fill:#e7e7e7;fill-opacity:1;fill-rule:nonzero;stroke:none;stroke-width:1.40094304;stroke-linecap:butt;stroke-linejoin:round;stroke-miterlimit:10;stroke-dasharray:none;stroke-dashoffset:91.01101685;stroke-opacity:1" d="m 3764.6973,-213.00977 -13.6114,600.51758 c 1.9576,0.69309 4.3618,1.32471 7.086,1.9043 l 10.7636,-597.32227 h 3.0821 l -7.6328,598.45508 c 1.6747,0.26288 3.4037,0.51526 5.2363,0.7461 l 5.5781,-599.20118 h 23.2403 l -2.5157,601.25196 c 1.6578,0.0682 3.333,0.12699 5.0215,0.17773 l 2.377,-601.42969 h 10.5742 l -0.9746,601.63672 c 0.9554,0.005 1.9095,0.0137 2.8672,0.0137 1.5689,-8e-5 3.1368,-0.0324 4.707,-0.0469 l -0.9023,-601.60352 h 7.7187 l 1.5762,601.47657 c 3.3879,-0.0871 6.7436,-0.20888 10.0488,-0.36329 l -3.0313,-601.11328 h 3.8497 l 6.4961,600.71289 c 9.1413,-0.58317 17.658,-1.43466 24.8867,-2.55664 l -7.4473,-598.15625 h 3.752 l 8.7675,597.27344 c 2.9825,-0.57023 5.6957,-1.18921 8.0157,-1.86914 l -13.6075,-600.34375 z" id="rect1782"/>
      <path id="path1815" d="m 3743.3723,430.78313 c 28.1339,8.26117 49.4462,6.90928 73.9133,6.90928 24.4671,0 45.6029,1.11659 73.7368,-7.14458" style="opacity:1;fill:none;fill-opacity:1;fill-rule:nonzero;stroke:#a9a9a9;stroke-width:5.60377216;stroke-linecap:square;stroke-linejoin:round;stroke-miterlimit:10;stroke-dasharray:none;stroke-dashoffset:91.01101685;stroke-opacity:1"/>
      <path style="opacity:1;fill:#ffffff;fill-opacity:1;fill-rule:nonzero;stroke:#a9a9a9;stroke-width:4.6231122;stroke-linecap:butt;stroke-linejoin:round;stroke-miterlimit:10;stroke-dasharray:none;stroke-dashoffset:91.01101685;stroke-opacity:1" d="m 3727.0914,462.61909 c 14.8202,18.82624 61.1286,16.60954 90.5648,16.60954 29.4362,0 83.1794,0.47665 90.5648,-16.60954" id="path1817"/>
    </g>
    <g transform="matrix(0.18885211,0,0,0.18886963,-345.39748,145.15887)" id="g4196" style="display:inline;stroke-width:1.40094304">
      <path style="opacity:1;fill:#ffcc00;fill-opacity:1;fill-rule:nonzero;stroke:#000000;stroke-width:1.09959364;stroke-linecap:square;stroke-linejoin:round;stroke-miterlimit:10;stroke-dasharray:none;stroke-dashoffset:91.01101685;stroke-opacity:1" id="path1823" d="m 3454.827,83.242079 -41.547,14.847678 -9.574,43.069083 -33.632,-28.55693 -42.0859,13.2432 7.915,-43.404611 -32.5119,-29.825888 41.547,-14.847678 9.5741,-43.0690881 33.6319,28.5569341 42.086,-13.2432 -7.9151,43.404612 z" transform="matrix(1.4822042,-0.30187585,0.29496673,1.5169224,-2954.2193,896.25954)"/>
      <path transform="matrix(1.4822042,-0.30187585,0.29496673,1.5169224,-2325.5735,896.25954)" d="m 3454.827,83.242079 -41.547,14.847678 -9.574,43.069083 -33.632,-28.55693 -42.0859,13.2432 7.915,-43.404611 -32.5119,-29.825888 41.547,-14.847678 9.5741,-43.0690881 33.6319,28.5569341 42.086,-13.2432 -7.9151,43.404612 z" id="path4140" style="opacity:1;fill:#ffcc00;fill-opacity:1;fill-rule:nonzero;stroke:#000000;stroke-width:1.09959364;stroke-linecap:square;stroke-linejoin:round;stroke-miterlimit:10;stroke-dasharray:none;stroke-dashoffset:91.01101685;stroke-opacity:1"/>
    </g>
    <path style="display:inline;opacity:1;fill:none;fill-opacity:1;fill-rule:nonzero;stroke:#000000;stroke-width:1.20489526;stroke-linecap:butt;stroke-linejoin:round;stroke-miterlimit:4;stroke-dasharray:none;stroke-dashoffset:0;stroke-opacity:1" d="M 0.60483748,33.239374 V 247.13722 c 0,9.48017 2.98365582,26.74357 22.63970552,26.74357 h 62.95725 c 12.477088,0 19.506047,22.51927 19.506047,22.51927 0,0 7.02911,-22.51927 19.50625,-22.51927 h 62.9572 c 19.65596,0 22.63967,-17.2634 22.63967,-26.74357 V 33.239374 Z" id="path1142"/>
  </g>
</svg>