<?xml version="1.0" encoding="UTF-8" standalone="no"?>
<svg xmlns:dc="http://purl.org/dc/elements/1.1/" xmlns:cc="http://creativecommons.org/ns#" xmlns:rdf="http://www.w3.org/1999/02/22-rdf-syntax-ns#" xmlns:svg="http://www.w3.org/2000/svg" xmlns="http://www.w3.org/2000/svg" width="797.1283" height="1024.2195" viewBox="0 0 210.90686 270.99141" version="1.1" id="svg1915">
  <defs id="defs1909"/>
  <metadata id="metadata1912">
    <rdf:RDF>
      <cc:Work rdf:about="">
        <dc:format>image/svg+xml</dc:format>
        <dc:type rdf:resource="http://purl.org/dc/dcmitype/StillImage"/>
        <dc:title/>
        <cc:license rdf:resource="http://creativecommons.org/licenses/by-sa/4.0/"/>
      </cc:Work>
      <cc:License rdf:about="http://creativecommons.org/licenses/by-sa/4.0/">
        <cc:permits rdf:resource="http://creativecommons.org/ns#Reproduction"/>
        <cc:permits rdf:resource="http://creativecommons.org/ns#Distribution"/>
        <cc:requires rdf:resource="http://creativecommons.org/ns#Notice"/>
        <cc:requires rdf:resource="http://creativecommons.org/ns#Attribution"/>
        <cc:permits rdf:resource="http://creativecommons.org/ns#DerivativeWorks"/>
        <cc:requires rdf:resource="http://creativecommons.org/ns#ShareAlike"/>
      </cc:License>
    </rdf:RDF>
  </metadata>
  <g style="display:inline" transform="translate(-0.97308739,0.19755592)" id="layer1">
    <g style="fill:#1f679e;stroke:none;stroke-width:0.5091691" transform="matrix(0.50218699,0,0,0.53769413,0.9672467,-0.21086953)" id="g1284">
      <path style="opacity:1;fill:#1f679e;fill-opacity:1;fill-rule:nonzero;stroke:none;stroke-width:1.52750742;stroke-linecap:round;stroke-linejoin:round;stroke-miterlimit:4;stroke-dasharray:none;stroke-dashoffset:0;stroke-opacity:1" d="M 1.5,1.5 V 450 c 0,15.732 12.768,28.5 28.5,28.5 h 151.5 c 15.73202,10e-6 28.5,12.768 28.5,28.5 2e-5,-15.73199 12.768,-28.5 28.5,-28.5 H 390 c 15.732,0 28.50003,-12.768 28.5,-28.5 V 1.5 Z" id="rect2333"/>
      <path style="opacity:1;fill:#1f679e;fill-opacity:1;fill-rule:nonzero;stroke:none;stroke-width:1.52750742;stroke-linecap:round;stroke-linejoin:round;stroke-miterlimit:4;stroke-dasharray:none;stroke-dashoffset:0;stroke-opacity:1" d="m 410.6875,469.5625 c 0.29836,-0.31536 0.59114,-0.64004 0.875,-0.96875 -0.28726,0.33275 -0.573,0.64955 -0.875,0.96875 z" id="path2436-6"/>
      <path style="opacity:1;fill:#1f679e;fill-opacity:1;fill-rule:nonzero;stroke:none;stroke-width:1.52750742;stroke-linecap:round;stroke-linejoin:round;stroke-miterlimit:4;stroke-dasharray:none;stroke-dashoffset:0;stroke-opacity:1" d="m 411.5625,468.59375 c 1.4421,-1.66995 2.6914,-3.49469 3.71875,-5.46875 -1.02644,1.96363 -2.28246,3.80498 -3.71875,5.46875 z" id="path2434-7"/>
      <path style="opacity:1;fill:#1f679e;fill-opacity:1;fill-rule:nonzero;stroke:none;stroke-width:1.52750742;stroke-linecap:round;stroke-linejoin:round;stroke-miterlimit:4;stroke-dasharray:none;stroke-dashoffset:0;stroke-opacity:1" d="m 9.3125,469.5625 c -0.3019969,-0.3192 -0.5877429,-0.636 -0.875,-0.96875 0.2838612,0.32871 0.5766393,0.65339 0.875,0.96875 z" id="path2432-5"/>
      <path style="opacity:1;fill:#1f679e;fill-opacity:1;fill-rule:nonzero;stroke:none;stroke-width:1.52750742;stroke-linecap:round;stroke-linejoin:round;stroke-miterlimit:4;stroke-dasharray:none;stroke-dashoffset:0;stroke-opacity:1" d="m 8.4375,468.59375 c -1.4362857,-1.66377 -2.6923083,-3.50512 -3.71875,-5.46875 1.0273532,1.97406 2.2766532,3.7988 3.71875,5.46875 z" id="path2430-3"/>
      <path style="opacity:1;fill:#1f679e;fill-opacity:1;fill-rule:nonzero;stroke:none;stroke-width:1.52750742;stroke-linecap:round;stroke-linejoin:round;stroke-miterlimit:4;stroke-dasharray:none;stroke-dashoffset:0;stroke-opacity:1" d="m 3.125,459.46875 c 0.1286403,0.36417 0.2633909,0.73653 0.40625,1.09375 -0.1453052,-0.36209 -0.275599,-0.72451 -0.40625,-1.09375 z" id="path2428-5"/>
      <path style="opacity:1;fill:#1f679e;fill-opacity:1;fill-rule:nonzero;stroke:none;stroke-width:1.52750742;stroke-linecap:round;stroke-linejoin:round;stroke-miterlimit:4;stroke-dasharray:none;stroke-dashoffset:0;stroke-opacity:1" d="m 416.875,459.46875 c -0.13065,0.36924 -0.26094,0.73166 -0.40625,1.09375 0.14286,-0.35722 0.27761,-0.72958 0.40625,-1.09375 z" id="path2422-6"/>
      <path id="path2957-2" d="M 1.5,1.5 V 450 c 0,15.732 12.768,28.5 28.5,28.5 h 151.5 c 15.73202,10e-6 28.5,12.768 28.5,28.5 2e-5,-15.73199 12.768,-28.5 28.5,-28.5 H 390 c 15.732,0 28.50003,-12.768 28.5,-28.5 V 1.5 Z" style="opacity:1;fill:#1f679e;fill-opacity:1;fill-rule:nonzero;stroke:none;stroke-width:1.52750742;stroke-linecap:round;stroke-linejoin:round;stroke-miterlimit:4;stroke-dasharray:none;stroke-dashoffset:0;stroke-opacity:1"/>
    </g>
    <g id="g1733">
      <rect style="opacity:1;fill:#ffffff;fill-opacity:1;fill-rule:evenodd;stroke:none;stroke-width:0.85248744;stroke-linecap:butt;stroke-linejoin:round;stroke-miterlimit:4;stroke-dasharray:none;stroke-dashoffset:0;stroke-opacity:0.98431373" id="rect1688" width="44.130249" height="58.477364" x="84.638138" y="90.924904"/>
      <rect style="opacity:1;fill:none;fill-opacity:0.98431373;fill-rule:nonzero;stroke:#000000;stroke-width:0.66627508;stroke-linecap:butt;stroke-linejoin:round;stroke-miterlimit:4;stroke-dasharray:none;stroke-dashoffset:0;stroke-opacity:0.98431373" id="rect2146" width="44.130264" height="58.47736" x="84.638138" y="90.924904"/>
      <path style="opacity:1;fill:none;fill-opacity:0.98431373;fill-rule:nonzero;stroke:#000000;stroke-width:0.66145831;stroke-linecap:butt;stroke-linejoin:round;stroke-miterlimit:4;stroke-dasharray:none;stroke-dashoffset:0;stroke-opacity:0.98431373" d="m 84.635733,96.456956 h 3.542046 v 3.345217 h 3.332949 v -3.345217 h 3.383615 v 3.345217 h 3.136141 v -3.345217 h 3.345216 v 3.345217 h 3.50202 v -3.345217 h 3.29295 v 3.345217 h 3.8679 v -3.345217 h 3.11001 v 3.345217 h 3.26681 v -3.345217 h 3.52815 v 3.345217 h 3.21455 v -3.345217 h 3.61272" id="path2152"/>
      <path style="opacity:1;fill:none;fill-opacity:0.98431373;fill-rule:nonzero;stroke:#000000;stroke-width:0.67828965;stroke-linecap:butt;stroke-linejoin:round;stroke-miterlimit:4;stroke-dasharray:none;stroke-dashoffset:0;stroke-opacity:0.98431373" d="M 91.690255,149.47743 V 90.9225" id="path2156"/>
      <path id="path2158" d="M 122.05069,149.2861 V 90.9225" style="opacity:1;fill:none;fill-opacity:0.98431373;fill-rule:nonzero;stroke:#000000;stroke-width:0.67718053;stroke-linecap:butt;stroke-linejoin:round;stroke-miterlimit:4;stroke-dasharray:none;stroke-dashoffset:0;stroke-opacity:0.98431373"/>
      <path style="opacity:1;fill:#000000;fill-opacity:0.98431373;fill-rule:nonzero;stroke:none;stroke-width:2.49885893;stroke-linecap:butt;stroke-linejoin:round;stroke-miterlimit:4;stroke-dasharray:none;stroke-dashoffset:0;stroke-opacity:0.98431373" d="m 378.61328,424.11523 a 11.215599,11.944986 0 0 0 -11.21484,11.94532 v 60.16015 h 22.43164 v -60.16015 a 11.215599,11.944986 0 0 0 -11.2168,-11.94532 z" transform="scale(0.26458333)" id="rect2160"/>
      <path id="path2174" d="m 113.35859,112.21382 a 2.9674605,3.1604442 0 0 0 -2.96726,3.16053 v 15.91738 h 5.93504 v -15.91738 a 2.9674605,3.1604442 0 0 0 -2.96778,-3.16053 z" style="opacity:1;fill:#000000;fill-opacity:0.98431373;fill-rule:nonzero;stroke:none;stroke-width:0.66115642;stroke-linecap:butt;stroke-linejoin:round;stroke-miterlimit:4;stroke-dasharray:none;stroke-dashoffset:0;stroke-opacity:0.98431373"/>
    </g>
    <path id="path2436" d="m 207.20917,252.33627 c 0.14983,-0.16961 0.29686,-0.34424 0.43941,-0.52103 -0.14426,0.17896 -0.28775,0.34935 -0.43941,0.52103 z" style="opacity:1;fill:#d40000;fill-opacity:1;fill-rule:nonzero;stroke:none;stroke-width:1.54033291;stroke-linecap:round;stroke-linejoin:round;stroke-miterlimit:4;stroke-dasharray:none;stroke-dashoffset:0;stroke-opacity:1"/>
    <path id="path2434" d="m 207.64858,251.81524 c 0.7242,-0.89816 1.35159,-1.87957 1.86751,-2.94129 -0.51547,1.05611 -1.14622,2.04646 -1.86751,2.94129 z" style="opacity:1;fill:#d40000;fill-opacity:1;fill-rule:nonzero;stroke:none;stroke-width:1.54033291;stroke-linecap:round;stroke-linejoin:round;stroke-miterlimit:4;stroke-dasharray:none;stroke-dashoffset:0;stroke-opacity:1"/>
    <path id="path2432" d="m 5.643863,252.33627 c -0.1516589,-0.17168 -0.2951568,-0.34207 -0.4394136,-0.52103 0.1425514,0.17679 0.2895808,0.35142 0.4394136,0.52103 z" style="opacity:1;fill:#d40000;fill-opacity:1;fill-rule:nonzero;stroke:none;stroke-width:1.54033291;stroke-linecap:round;stroke-linejoin:round;stroke-miterlimit:4;stroke-dasharray:none;stroke-dashoffset:0;stroke-opacity:1"/>
    <path id="path2430" d="m 5.2044494,251.81524 c -0.721284,-0.89483 -1.3520422,-1.88518 -1.8675079,-2.94129 0.5159234,1.06172 1.1433056,2.04313 1.8675079,2.94129 z" style="opacity:1;fill:#d40000;fill-opacity:1;fill-rule:nonzero;stroke:none;stroke-width:1.54033291;stroke-linecap:round;stroke-linejoin:round;stroke-miterlimit:4;stroke-dasharray:none;stroke-dashoffset:0;stroke-opacity:1"/>
    <path id="path2428" d="m 2.536581,246.90749 c 0.064602,0.19586 0.1322715,0.39613 0.2040135,0.58826 -0.07297,-0.19475 -0.1384023,-0.38967 -0.2040135,-0.58826 z" style="opacity:1;fill:#d40000;fill-opacity:1;fill-rule:nonzero;stroke:none;stroke-width:1.54033291;stroke-linecap:round;stroke-linejoin:round;stroke-miterlimit:4;stroke-dasharray:none;stroke-dashoffset:0;stroke-opacity:1"/>
    <path id="path2422" d="m 210.31645,246.90749 c -0.0656,0.19859 -0.13104,0.39351 -0.20402,0.58826 0.0718,-0.19213 0.13942,-0.3924 0.20402,-0.58826 z" style="opacity:1;fill:#d40000;fill-opacity:1;fill-rule:nonzero;stroke:none;stroke-width:1.54033291;stroke-linecap:round;stroke-linejoin:round;stroke-miterlimit:4;stroke-dasharray:none;stroke-dashoffset:0;stroke-opacity:1"/>
    <path style="opacity:1;fill:none;fill-opacity:1;fill-rule:nonzero;stroke:#000000;stroke-width:1.54033291;stroke-linecap:round;stroke-linejoin:round;stroke-miterlimit:4;stroke-dasharray:none;stroke-dashoffset:0;stroke-opacity:1" d="M 1.7205272,0.59567166 V 241.81486 c 0,8.46123 6.4119234,15.32831 14.3123288,15.32831 h 76.081329 c 7.900415,10e-6 14.312325,6.86708 14.312325,15.32831 1e-5,-8.46122 6.41193,-15.32831 14.31233,-15.32831 h 76.08133 c 7.90041,0 14.31235,-6.86708 14.31233,-15.32831 V 0.59567166 Z" id="path2957"/>
    <path style="opacity:1;fill:none;fill-opacity:1;fill-rule:nonzero;stroke:#000000;stroke-width:1.54033291;stroke-linecap:round;stroke-linejoin:round;stroke-miterlimit:4;stroke-dasharray:none;stroke-dashoffset:0;stroke-opacity:1" d="m 8.5126791,134.50327 v 13.78831 H 1.7203286 v 93.52349 c 0,8.46123 6.4118987,15.32826 14.3123054,15.32826 h 76.081662 c 7.900414,1e-5 14.312304,6.86707 14.312304,15.32825 1e-5,-8.46118 6.4119,-15.32825 14.31231,-15.32825 h 76.08114 c 7.90041,0 14.31232,-6.86703 14.31231,-15.32826 v -93.52349 h -6.79184 v -13.78831 h -14.9567 v 13.78831 h -15.27039 v -13.78831 h -14.95671 v 13.78831 H 143.7251 v -13.78831 h -14.95671 v 13.78831 H 113.9047 V 134.50327 H 98.947989 v 13.78831 H 84.084813 V 134.50327 H 69.128102 v 13.78831 H 53.696485 V 134.50327 H 38.739774 v 13.78831 H 23.468873 v -13.78831 z" id="path1016"/>
    <path id="path1021" d="m 8.5126791,134.50327 v 13.78831 H 1.7203286 v 93.52349 c 0,8.46123 6.4118987,15.32826 14.3123054,15.32826 h 76.081662 c 7.900414,1e-5 14.312304,6.86707 14.312304,15.32825 1e-5,-8.46118 6.4119,-15.32825 14.31231,-15.32825 h 76.08114 c 7.90041,0 14.31232,-6.86703 14.31231,-15.32826 v -93.52349 h -6.79184 v -13.78831 h -14.9567 v 13.78831 h -15.27039 v -13.78831 h -14.95671 v 13.78831 H 143.7251 v -13.78831 h -14.95671 v 13.78831 H 113.9047 V 134.50327 H 98.947989 v 13.78831 H 84.084813 V 134.50327 H 69.128102 v 13.78831 H 53.696485 V 134.50327 H 38.739774 v 13.78831 H 23.468873 v -13.78831 z" style="opacity:1;fill:#ffffff;fill-opacity:1;fill-rule:nonzero;stroke:#000000;stroke-width:1.54033291;stroke-linecap:round;stroke-linejoin:round;stroke-miterlimit:4;stroke-dasharray:none;stroke-dashoffset:0;stroke-opacity:1"/>
    <g id="g1411">
      <rect style="opacity:1;fill:none;fill-opacity:0.98431373;fill-rule:evenodd;stroke:#1f679e;stroke-width:1.58749998;stroke-linecap:butt;stroke-linejoin:round;stroke-miterlimit:4;stroke-dasharray:none;stroke-dashoffset:0;stroke-opacity:0.98431373" id="rect3763" width="14.270204" height="12.664799" x="1.7205272" y="168.48958"/>
      <rect y="168.48958" x="15.99073" height="12.664799" width="30.227404" id="rect3765" style="opacity:1;fill:none;fill-opacity:0.98431373;fill-rule:evenodd;stroke:#1f679e;stroke-width:1.58749998;stroke-linecap:butt;stroke-linejoin:round;stroke-miterlimit:4;stroke-dasharray:none;stroke-dashoffset:0;stroke-opacity:0.98431373"/>
      <rect style="opacity:1;fill:none;fill-opacity:0.98431373;fill-rule:evenodd;stroke:#1f679e;stroke-width:1.58749998;stroke-linecap:butt;stroke-linejoin:round;stroke-miterlimit:4;stroke-dasharray:none;stroke-dashoffset:0;stroke-opacity:0.98431373" id="rect3767" width="30.227404" height="12.664799" x="46.218132" y="168.48958"/>
      <rect y="168.48958" x="76.445534" height="12.664799" width="30.227404" id="rect3769" style="opacity:1;fill:none;fill-opacity:0.98431373;fill-rule:evenodd;stroke:#1f679e;stroke-width:1.58749998;stroke-linecap:butt;stroke-linejoin:round;stroke-miterlimit:4;stroke-dasharray:none;stroke-dashoffset:0;stroke-opacity:0.98431373"/>
      <rect style="opacity:1;fill:none;fill-opacity:0.98431373;fill-rule:evenodd;stroke:#1f679e;stroke-width:1.58749998;stroke-linecap:butt;stroke-linejoin:round;stroke-miterlimit:4;stroke-dasharray:none;stroke-dashoffset:0;stroke-opacity:0.98431373" id="rect3771" width="30.227404" height="12.664799" x="106.42651" y="168.48958"/>
      <rect y="168.48958" x="136.2467" height="12.664799" width="30.227404" id="rect3773" style="opacity:1;fill:none;fill-opacity:0.98431373;fill-rule:evenodd;stroke:#1f679e;stroke-width:1.58749998;stroke-linecap:butt;stroke-linejoin:round;stroke-miterlimit:4;stroke-dasharray:none;stroke-dashoffset:0;stroke-opacity:0.98431373"/>
      <rect style="opacity:1;fill:none;fill-opacity:0.98431373;fill-rule:evenodd;stroke:#1f679e;stroke-width:1.58749998;stroke-linecap:butt;stroke-linejoin:round;stroke-miterlimit:4;stroke-dasharray:none;stroke-dashoffset:0;stroke-opacity:0.98431373" id="rect3775" width="30.227404" height="12.664799" x="166.47411" y="168.48958"/>
      <rect y="168.42072" x="196.70151" height="12.733672" width="14.430993" id="rect3777" style="opacity:1;fill:none;fill-opacity:0.98431373;fill-rule:evenodd;stroke:#1f679e;stroke-width:1.5875001;stroke-linecap:butt;stroke-linejoin:round;stroke-miterlimit:4;stroke-dasharray:none;stroke-dashoffset:0;stroke-opacity:0.98431373"/>
      <rect y="181.15437" x="1.720528" height="12.664804" width="28.540407" id="rect3789" style="opacity:1;fill:none;fill-opacity:0.98431373;fill-rule:evenodd;stroke:#1f679e;stroke-width:1.58749986;stroke-linecap:butt;stroke-linejoin:round;stroke-miterlimit:4;stroke-dasharray:none;stroke-dashoffset:0;stroke-opacity:0.98431373"/>
      <rect style="opacity:1;fill:none;fill-opacity:0.98431373;fill-rule:evenodd;stroke:#1f679e;stroke-width:1.58749998;stroke-linecap:butt;stroke-linejoin:round;stroke-miterlimit:4;stroke-dasharray:none;stroke-dashoffset:0;stroke-opacity:0.98431373" id="rect3791" width="30.227404" height="12.664799" x="30.260933" y="181.15437"/>
      <rect y="181.15437" x="60.488335" height="12.664799" width="30.227404" id="rect3793" style="opacity:1;fill:none;fill-opacity:0.98431373;fill-rule:evenodd;stroke:#1f679e;stroke-width:1.58749998;stroke-linecap:butt;stroke-linejoin:round;stroke-miterlimit:4;stroke-dasharray:none;stroke-dashoffset:0;stroke-opacity:0.98431373"/>
      <rect style="opacity:1;fill:none;fill-opacity:0.98431373;fill-rule:evenodd;stroke:#1f679e;stroke-width:1.58749998;stroke-linecap:butt;stroke-linejoin:round;stroke-miterlimit:4;stroke-dasharray:none;stroke-dashoffset:0;stroke-opacity:0.98431373" id="rect3795" width="30.227404" height="12.664799" x="90.715736" y="181.15437"/>
      <rect y="181.15437" x="120.69672" height="12.664799" width="30.227404" id="rect3797" style="opacity:1;fill:none;fill-opacity:0.98431373;fill-rule:evenodd;stroke:#1f679e;stroke-width:1.58749998;stroke-linecap:butt;stroke-linejoin:round;stroke-miterlimit:4;stroke-dasharray:none;stroke-dashoffset:0;stroke-opacity:0.98431373"/>
      <rect style="opacity:1;fill:none;fill-opacity:0.98431373;fill-rule:evenodd;stroke:#1f679e;stroke-width:1.58749998;stroke-linecap:butt;stroke-linejoin:round;stroke-miterlimit:4;stroke-dasharray:none;stroke-dashoffset:0;stroke-opacity:0.98431373" id="rect3799" width="30.227404" height="12.664799" x="150.51691" y="181.15437"/>
      <rect y="181.15437" x="180.74431" height="12.664799" width="30.227404" id="rect3801" style="opacity:1;fill:none;fill-opacity:0.98431373;fill-rule:evenodd;stroke:#1f679e;stroke-width:1.58749998;stroke-linecap:butt;stroke-linejoin:round;stroke-miterlimit:4;stroke-dasharray:none;stroke-dashoffset:0;stroke-opacity:0.98431373"/>
      <rect style="opacity:1;fill:none;fill-opacity:0.98431373;fill-rule:evenodd;stroke:#1f679e;stroke-width:1.58749986;stroke-linecap:butt;stroke-linejoin:round;stroke-miterlimit:4;stroke-dasharray:none;stroke-dashoffset:0;stroke-opacity:0.98431373" id="rect3825" width="28.540407" height="12.664804" x="1.720528" y="206.48398"/>
      <rect y="206.48398" x="30.260933" height="12.664799" width="30.227404" id="rect3827" style="opacity:1;fill:none;fill-opacity:0.98431373;fill-rule:evenodd;stroke:#1f679e;stroke-width:1.58749998;stroke-linecap:butt;stroke-linejoin:round;stroke-miterlimit:4;stroke-dasharray:none;stroke-dashoffset:0;stroke-opacity:0.98431373"/>
      <rect style="opacity:1;fill:none;fill-opacity:0.98431373;fill-rule:evenodd;stroke:#1f679e;stroke-width:1.58749998;stroke-linecap:butt;stroke-linejoin:round;stroke-miterlimit:4;stroke-dasharray:none;stroke-dashoffset:0;stroke-opacity:0.98431373" id="rect3829" width="30.227404" height="12.664799" x="60.488335" y="206.48398"/>
      <rect y="206.48398" x="90.715736" height="12.664799" width="30.227404" id="rect3831" style="opacity:1;fill:none;fill-opacity:0.98431373;fill-rule:evenodd;stroke:#1f679e;stroke-width:1.58749998;stroke-linecap:butt;stroke-linejoin:round;stroke-miterlimit:4;stroke-dasharray:none;stroke-dashoffset:0;stroke-opacity:0.98431373"/>
      <rect style="opacity:1;fill:none;fill-opacity:0.98431373;fill-rule:evenodd;stroke:#1f679e;stroke-width:1.58749998;stroke-linecap:butt;stroke-linejoin:round;stroke-miterlimit:4;stroke-dasharray:none;stroke-dashoffset:0;stroke-opacity:0.98431373" id="rect3833" width="30.227404" height="12.664799" x="120.69672" y="206.48398"/>
      <rect y="206.48398" x="150.51691" height="12.664799" width="30.227404" id="rect3835" style="opacity:1;fill:none;fill-opacity:0.98431373;fill-rule:evenodd;stroke:#1f679e;stroke-width:1.58749998;stroke-linecap:butt;stroke-linejoin:round;stroke-miterlimit:4;stroke-dasharray:none;stroke-dashoffset:0;stroke-opacity:0.98431373"/>
      <rect style="opacity:1;fill:none;fill-opacity:0.98431373;fill-rule:evenodd;stroke:#1f679e;stroke-width:1.58749998;stroke-linecap:butt;stroke-linejoin:round;stroke-miterlimit:4;stroke-dasharray:none;stroke-dashoffset:0;stroke-opacity:0.98431373" id="rect3837" width="30.227404" height="12.664799" x="180.74431" y="206.48398"/>
      <rect y="231.81357" x="1.720528" height="12.664804" width="28.540407" id="rect3859" style="opacity:1;fill:none;fill-opacity:0.98431373;fill-rule:evenodd;stroke:#1f679e;stroke-width:1.58749986;stroke-linecap:butt;stroke-linejoin:round;stroke-miterlimit:4;stroke-dasharray:none;stroke-dashoffset:0;stroke-opacity:0.98431373"/>
      <rect style="opacity:1;fill:none;fill-opacity:0.98431373;fill-rule:evenodd;stroke:#1f679e;stroke-width:1.58749998;stroke-linecap:butt;stroke-linejoin:round;stroke-miterlimit:4;stroke-dasharray:none;stroke-dashoffset:0;stroke-opacity:0.98431373" id="rect3861" width="30.227404" height="12.664799" x="30.260933" y="231.81357"/>
      <rect y="231.81357" x="60.488335" height="12.664799" width="30.227404" id="rect3863" style="opacity:1;fill:none;fill-opacity:0.98431373;fill-rule:evenodd;stroke:#1f679e;stroke-width:1.58749998;stroke-linecap:butt;stroke-linejoin:round;stroke-miterlimit:4;stroke-dasharray:none;stroke-dashoffset:0;stroke-opacity:0.98431373"/>
      <rect style="opacity:1;fill:none;fill-opacity:0.98431373;fill-rule:evenodd;stroke:#1f679e;stroke-width:1.58749998;stroke-linecap:butt;stroke-linejoin:round;stroke-miterlimit:4;stroke-dasharray:none;stroke-dashoffset:0;stroke-opacity:0.98431373" id="rect3865" width="30.227404" height="12.664799" x="90.715736" y="231.81357"/>
      <rect y="231.81357" x="120.69672" height="12.664799" width="30.227404" id="rect3867" style="opacity:1;fill:none;fill-opacity:0.98431373;fill-rule:evenodd;stroke:#1f679e;stroke-width:1.58749998;stroke-linecap:butt;stroke-linejoin:round;stroke-miterlimit:4;stroke-dasharray:none;stroke-dashoffset:0;stroke-opacity:0.98431373"/>
      <rect style="opacity:1;fill:none;fill-opacity:0.98431373;fill-rule:evenodd;stroke:#1f679e;stroke-width:1.58749998;stroke-linecap:butt;stroke-linejoin:round;stroke-miterlimit:4;stroke-dasharray:none;stroke-dashoffset:0;stroke-opacity:0.98431373" id="rect3869" width="30.227404" height="12.664799" x="150.51691" y="231.81357"/>
      <rect y="231.81357" x="180.74431" height="12.664799" width="30.227404" id="rect3871" style="opacity:1;fill:none;fill-opacity:0.98431373;fill-rule:evenodd;stroke:#1f679e;stroke-width:1.58749998;stroke-linecap:butt;stroke-linejoin:round;stroke-miterlimit:4;stroke-dasharray:none;stroke-dashoffset:0;stroke-opacity:0.98431373"/>
      <path id="rect3875" transform="matrix(0.26458333,0,0,0.26458333,0.97308739,-0.19755592)" d="m 3.65625,924.75977 c 4.4465867,27.12949 26.522108,47.7812 53.103516,47.86328 v -47.86328 z" style="opacity:1;fill:none;fill-opacity:0.98431373;fill-rule:evenodd;stroke:#1f679e;stroke-width:6;stroke-linecap:butt;stroke-linejoin:round;stroke-miterlimit:4;stroke-dasharray:none;stroke-dashoffset:0;stroke-opacity:0.98431373"/>
      <rect y="244.47838" x="15.990729" height="12.664799" width="30.227404" id="rect3877" style="opacity:1;fill:none;fill-opacity:0.98431373;fill-rule:evenodd;stroke:#1f679e;stroke-width:1.58749998;stroke-linecap:butt;stroke-linejoin:round;stroke-miterlimit:4;stroke-dasharray:none;stroke-dashoffset:0;stroke-opacity:0.98431373"/>
      <rect style="opacity:1;fill:none;fill-opacity:0.98431373;fill-rule:evenodd;stroke:#1f679e;stroke-width:1.58749998;stroke-linecap:butt;stroke-linejoin:round;stroke-miterlimit:4;stroke-dasharray:none;stroke-dashoffset:0;stroke-opacity:0.98431373" id="rect3879" width="30.227404" height="12.664799" x="46.218132" y="244.47838"/>
      <rect y="244.47838" x="76.445534" height="12.664799" width="30.227404" id="rect3881" style="opacity:1;fill:none;fill-opacity:0.98431373;fill-rule:evenodd;stroke:#1f679e;stroke-width:1.58749998;stroke-linecap:butt;stroke-linejoin:round;stroke-miterlimit:4;stroke-dasharray:none;stroke-dashoffset:0;stroke-opacity:0.98431373"/>
      <rect style="opacity:1;fill:none;fill-opacity:0.98431373;fill-rule:evenodd;stroke:#1f679e;stroke-width:1.58749998;stroke-linecap:butt;stroke-linejoin:round;stroke-miterlimit:4;stroke-dasharray:none;stroke-dashoffset:0;stroke-opacity:0.98431373" id="rect3883" width="30.227404" height="12.664799" x="106.42651" y="244.47838"/>
      <rect y="244.47838" x="136.2467" height="12.664799" width="30.227404" id="rect3885" style="opacity:1;fill:none;fill-opacity:0.98431373;fill-rule:evenodd;stroke:#1f679e;stroke-width:1.58749998;stroke-linecap:butt;stroke-linejoin:round;stroke-miterlimit:4;stroke-dasharray:none;stroke-dashoffset:0;stroke-opacity:0.98431373"/>
      <rect style="opacity:1;fill:none;fill-opacity:0.98431373;fill-rule:evenodd;stroke:#1f679e;stroke-width:1.58749998;stroke-linecap:butt;stroke-linejoin:round;stroke-miterlimit:4;stroke-dasharray:none;stroke-dashoffset:0;stroke-opacity:0.98431373" id="rect3887" width="30.227404" height="12.664799" x="166.47411" y="244.47838"/>
      <path id="rect3889" transform="matrix(0.26458333,0,0,0.26458333,0.97308739,-0.19755592)" d="m 739.76172,924.5 v 48.12695 h 0.44726 c 26.73724,0 48.94845,-20.8153 53.30469,-48.12695 z" style="opacity:1;fill:none;fill-opacity:0.98431373;fill-rule:evenodd;stroke:#1f679e;stroke-width:6.00000048;stroke-linecap:butt;stroke-linejoin:round;stroke-miterlimit:4;stroke-dasharray:none;stroke-dashoffset:0;stroke-opacity:0.98431373"/>
      <rect style="opacity:1;fill:none;fill-opacity:0.98431373;fill-rule:evenodd;stroke:#1f679e;stroke-width:1.58749998;stroke-linecap:butt;stroke-linejoin:round;stroke-miterlimit:4;stroke-dasharray:none;stroke-dashoffset:0;stroke-opacity:0.98431373" id="rect3807" width="14.270204" height="12.664799" x="1.7205266" y="193.81918"/>
      <rect y="193.81918" x="15.990729" height="12.664799" width="30.227404" id="rect3809" style="opacity:1;fill:none;fill-opacity:0.98431373;fill-rule:evenodd;stroke:#1f679e;stroke-width:1.58749998;stroke-linecap:butt;stroke-linejoin:round;stroke-miterlimit:4;stroke-dasharray:none;stroke-dashoffset:0;stroke-opacity:0.98431373"/>
      <rect style="opacity:1;fill:none;fill-opacity:0.98431373;fill-rule:evenodd;stroke:#1f679e;stroke-width:1.58749998;stroke-linecap:butt;stroke-linejoin:round;stroke-miterlimit:4;stroke-dasharray:none;stroke-dashoffset:0;stroke-opacity:0.98431373" id="rect3811" width="30.227404" height="12.664799" x="46.218132" y="193.81918"/>
      <rect y="193.81918" x="76.445534" height="12.664799" width="30.227404" id="rect3813" style="opacity:1;fill:none;fill-opacity:0.98431373;fill-rule:evenodd;stroke:#1f679e;stroke-width:1.58749998;stroke-linecap:butt;stroke-linejoin:round;stroke-miterlimit:4;stroke-dasharray:none;stroke-dashoffset:0;stroke-opacity:0.98431373"/>
      <rect style="opacity:1;fill:none;fill-opacity:0.98431373;fill-rule:evenodd;stroke:#1f679e;stroke-width:1.58749998;stroke-linecap:butt;stroke-linejoin:round;stroke-miterlimit:4;stroke-dasharray:none;stroke-dashoffset:0;stroke-opacity:0.98431373" id="rect3815" width="30.227404" height="12.664799" x="106.42651" y="193.81918"/>
      <rect y="193.81918" x="136.2467" height="12.664799" width="30.227404" id="rect3817" style="opacity:1;fill:none;fill-opacity:0.98431373;fill-rule:evenodd;stroke:#1f679e;stroke-width:1.58749998;stroke-linecap:butt;stroke-linejoin:round;stroke-miterlimit:4;stroke-dasharray:none;stroke-dashoffset:0;stroke-opacity:0.98431373"/>
      <rect style="opacity:1;fill:none;fill-opacity:0.98431373;fill-rule:evenodd;stroke:#1f679e;stroke-width:1.58749998;stroke-linecap:butt;stroke-linejoin:round;stroke-miterlimit:4;stroke-dasharray:none;stroke-dashoffset:0;stroke-opacity:0.98431373" id="rect3819" width="30.227404" height="12.664799" x="166.47411" y="193.81918"/>
      <rect y="193.75032" x="196.70151" height="12.733672" width="14.430993" id="rect3821" style="opacity:1;fill:none;fill-opacity:0.98431373;fill-rule:evenodd;stroke:#1f679e;stroke-width:1.5875001;stroke-linecap:butt;stroke-linejoin:round;stroke-miterlimit:4;stroke-dasharray:none;stroke-dashoffset:0;stroke-opacity:0.98431373"/>
      <rect y="219.14877" x="1.7205266" height="12.664799" width="14.270204" id="rect3841" style="opacity:1;fill:none;fill-opacity:0.98431373;fill-rule:evenodd;stroke:#1f679e;stroke-width:1.58749998;stroke-linecap:butt;stroke-linejoin:round;stroke-miterlimit:4;stroke-dasharray:none;stroke-dashoffset:0;stroke-opacity:0.98431373"/>
      <rect style="opacity:1;fill:none;fill-opacity:0.98431373;fill-rule:evenodd;stroke:#1f679e;stroke-width:1.58749998;stroke-linecap:butt;stroke-linejoin:round;stroke-miterlimit:4;stroke-dasharray:none;stroke-dashoffset:0;stroke-opacity:0.98431373" id="rect3843" width="30.227404" height="12.664799" x="15.990729" y="219.14877"/>
      <rect y="219.14877" x="46.218132" height="12.664799" width="30.227404" id="rect3845" style="opacity:1;fill:none;fill-opacity:0.98431373;fill-rule:evenodd;stroke:#1f679e;stroke-width:1.58749998;stroke-linecap:butt;stroke-linejoin:round;stroke-miterlimit:4;stroke-dasharray:none;stroke-dashoffset:0;stroke-opacity:0.98431373"/>
      <rect style="opacity:1;fill:none;fill-opacity:0.98431373;fill-rule:evenodd;stroke:#1f679e;stroke-width:1.58749998;stroke-linecap:butt;stroke-linejoin:round;stroke-miterlimit:4;stroke-dasharray:none;stroke-dashoffset:0;stroke-opacity:0.98431373" id="rect3847" width="30.227404" height="12.664799" x="76.445534" y="219.14877"/>
      <rect y="219.14877" x="106.42651" height="12.664799" width="30.227404" id="rect3849" style="opacity:1;fill:none;fill-opacity:0.98431373;fill-rule:evenodd;stroke:#1f679e;stroke-width:1.58749998;stroke-linecap:butt;stroke-linejoin:round;stroke-miterlimit:4;stroke-dasharray:none;stroke-dashoffset:0;stroke-opacity:0.98431373"/>
      <rect style="opacity:1;fill:none;fill-opacity:0.98431373;fill-rule:evenodd;stroke:#1f679e;stroke-width:1.58749998;stroke-linecap:butt;stroke-linejoin:round;stroke-miterlimit:4;stroke-dasharray:none;stroke-dashoffset:0;stroke-opacity:0.98431373" id="rect3851" width="30.227404" height="12.664799" x="136.2467" y="219.14877"/>
      <rect y="219.14877" x="166.47411" height="12.664799" width="30.227404" id="rect3853" style="opacity:1;fill:none;fill-opacity:0.98431373;fill-rule:evenodd;stroke:#1f679e;stroke-width:1.58749998;stroke-linecap:butt;stroke-linejoin:round;stroke-miterlimit:4;stroke-dasharray:none;stroke-dashoffset:0;stroke-opacity:0.98431373"/>
      <rect style="opacity:1;fill:none;fill-opacity:0.98431373;fill-rule:evenodd;stroke:#1f679e;stroke-width:1.5875001;stroke-linecap:butt;stroke-linejoin:round;stroke-miterlimit:4;stroke-dasharray:none;stroke-dashoffset:0;stroke-opacity:0.98431373" id="rect3855" width="14.430993" height="12.733672" x="196.70151" y="219.07991"/>
    </g>
    <path id="path1109" transform="matrix(0.26458333,0,0,0.26458333,0.97308739,-0.19755592)" d="m 398.56055,644.16992 -23.8418,22.125 h -19.54492 l 12.21875,38.64844 h 0.0332 c -46.94558,12.10721 -81.56836,56.36628 -81.56836,109.42187 v 158.26172 h 58.61328 c 29.85984,4e-5 54.09375,25.95437 54.09375,57.93355 4e-5,-31.97918 24.23394,-57.93355 54.09375,-57.93355 h 58.61133 V 814.36523 c 0,-53.05559 -34.62124,-97.31466 -81.56641,-109.42187 h 0.0274 l 12.21875,-38.64844 H 422.4043 Z" style="opacity:1;fill:#ffffff;fill-opacity:1;fill-rule:nonzero;stroke:#000000;stroke-width:3.22199988;stroke-linecap:round;stroke-linejoin:round;stroke-miterlimit:4;stroke-dasharray:none;stroke-dashoffset:0;stroke-opacity:1"/>
    <path style="opacity:1;fill:#000000;fill-opacity:1;fill-rule:nonzero;stroke:none;stroke-width:1.54033291;stroke-linecap:round;stroke-linejoin:round;stroke-miterlimit:4;stroke-dasharray:none;stroke-dashoffset:0;stroke-opacity:1" d="m 105.19257,189.14851 c -14.136097,0 -25.516274,12.42975 -25.516274,27.8691 v 40.12572 h 12.438 c 7.900414,1e-5 14.312304,6.86708 14.312304,15.32825 1e-5,-8.46117 6.4119,-15.32825 14.31231,-15.32825 h 12.438 v -40.12572 c 0,-15.43935 -11.38018,-27.8691 -25.51627,-27.8691 z" id="path1106"/>
    <path id="rect2176" transform="matrix(0.26458333,0,0,0.26458333,0.97308739,-0.19755592)" d="m 392.58398,68.892578 v 15.203125 h -14.7539 v 8.927735 h 14.7539 v 9.830082 h -22.21093 v 8.92578 h 22.21093 v 11.14062 l -12.15429,-3.34375 v 7.98242 l 12.15429,3.34571 v 24.35742 h 11.95899 v -21.06641 l 12.15625,3.34571 v -7.98438 l -12.15625,-3.3457 V 111.7793 h 22.21289 v -8.92578 h -22.21289 v -9.830082 h 14.75391 V 84.095703 H 404.54297 V 68.892578 Z" style="opacity:1;fill:#ffd42a;fill-opacity:1;fill-rule:nonzero;stroke:#b9870a;stroke-width:2.3868525;stroke-linecap:butt;stroke-linejoin:round;stroke-miterlimit:4;stroke-dasharray:none;stroke-dashoffset:0;stroke-opacity:1"/>
    <g id="g1737">
      <path style="opacity:1;fill:#ffd700;fill-opacity:0.98431373;fill-rule:nonzero;stroke:#b8860b;stroke-width:3.15088725;stroke-linecap:butt;stroke-linejoin:round;stroke-miterlimit:4;stroke-dasharray:none;stroke-dashoffset:0;stroke-opacity:0.98431373" d="m 398.56445,150.99023 c -9.91019,0 -17.94385,7.54309 -17.94336,16.84766 0.005,2.78895 0.74712,5.53314 2.16016,7.98633 l -0.0176,-0.004 c -16.59359,8.58265 -24.92869,26.59512 -43.25781,35.96094 -52.12983,26.63731 -88.74888,94.51597 -23.29102,132.61914 h 164.69922 c 65.4579,-38.10317 28.8388,-105.98183 -23.29101,-132.61914 -18.32912,-9.36582 -26.66422,-27.37829 -43.25782,-35.96094 l -0.008,0.002 c 1.40931,-2.45344 2.14818,-5.19687 2.15039,-7.98438 4.9e-4,-9.30457 -8.03317,-16.84766 -17.94336,-16.84766 z" transform="matrix(0.26458333,0,0,0.26458333,0.97308739,-0.19755592)" id="path2227"/>
      <path style="color:#000000;font-style:normal;font-variant:normal;font-weight:normal;font-stretch:normal;font-size:medium;line-height:normal;font-family:sans-serif;font-variant-ligatures:normal;font-variant-position:normal;font-variant-caps:normal;font-variant-numeric:normal;font-variant-alternates:normal;font-feature-settings:normal;text-indent:0;text-align:start;text-decoration:none;text-decoration-line:none;text-decoration-style:solid;text-decoration-color:#000000;letter-spacing:normal;word-spacing:normal;text-transform:none;writing-mode:lr-tb;direction:ltr;text-orientation:mixed;dominant-baseline:auto;baseline-shift:baseline;text-anchor:start;white-space:normal;shape-padding:0;clip-rule:nonzero;display:inline;overflow:visible;visibility:visible;opacity:1;isolation:auto;mix-blend-mode:normal;color-interpolation:sRGB;color-interpolation-filters:linearRGB;solid-color:#000000;solid-opacity:1;vector-effect:none;fill:#b8860b;fill-opacity:0.98431373;fill-rule:evenodd;stroke:none;stroke-width:1.83707929;stroke-linecap:butt;stroke-linejoin:round;stroke-miterlimit:4;stroke-dasharray:none;stroke-dashoffset:0;stroke-opacity:1;color-rendering:auto;image-rendering:auto;shape-rendering:auto;text-rendering:auto;enable-background:accumulate" d="m 398.56445,150.99023 c -0.69471,0 -1.37663,0.047 -2.05078,0.11915 0.0671,0.60429 0.005,1.27245 -0.23828,2.0332 -1.64339,6.29815 -7.65495,9.27618 -11.97461,8.16211 -0.63458,0.002 -1.29715,-0.24382 -1.95508,-0.63672 -0.20607,0.4102 -0.39542,0.82833 -0.5664,1.25586 0.99396,1.07778 1.7007,2.19168 1.62695,3.5664 -0.53836,1.91788 -1.44143,3.54466 -2.57227,4.86133 0.0865,0.53211 0.19384,1.06074 0.33399,1.58203 1.39704,-1.57011 2.52373,-3.48393 3.24414,-5.59961 -0.37932,4.09726 2.17828,6.19445 4.63281,8.06836 2.4255,1.85172 4.73016,3.47207 3.57813,6.65625 -1.51555,4.89217 -5.54698,7.73368 -9.81836,8.16993 -4.25981,0.43506 -8.56353,-1.55536 -10.4375,-6.09571 -0.007,-0.0145 -0.0141,-0.0285 -0.0215,-0.043 -0.45165,0.39364 -0.9021,0.78905 -1.3457,1.19336 0.8489,1.22085 1.9965,2.23999 3.13867,3.20118 2.42425,2.04013 4.75229,3.84029 3.4336,6.99609 -2.23506,5.97882 -8.36368,8.71587 -13.79688,7.6582 -2.53901,-0.48578 -4.89696,-1.80209 -6.56641,-3.92969 -0.28549,0.28531 -0.57486,0.56801 -0.86328,0.85157 0.44031,0.38339 0.88764,0.75735 1.33399,1.11718 2.58096,2.08077 4.97268,3.9077 3.38672,6.97461 -2.43951,5.03392 -9.26084,8.89506 -14.45508,6.70313 -1.03608,-0.73089 -2.40436,0.69451 -3.40625,-0.86328 -0.86714,-0.23717 -1.79463,-0.88282 -2.67969,-1.75586 -0.33872,0.18268 -0.67382,0.36827 -1.01953,0.54492 -0.0274,0.014 -0.0546,0.0289 -0.082,0.043 2.40805,2.07525 4.76344,3.868 4.43945,6.11523 -2.15376,4.85622 -7.13942,7.44693 -12.28711,7.63086 -3.44072,0.12294 -6.90695,-0.84102 -9.53515,-2.89258 -0.27344,0.20387 -0.54861,0.40528 -0.82032,0.61133 2.56544,2.05053 4.66206,3.9581 2.91602,6.7168 -2.10197,3.75848 -5.99542,5.90703 -10.1582,6.48633 -2.35943,0.32811 -4.796,0.14539 -7.03711,-0.52735 -0.46914,0.48717 -0.93123,0.97889 -1.39063,1.47266 1.30787,0.45913 2.68193,0.75712 4.08399,0.88086 -0.26963,1.10442 -0.2872,2.47782 -1.17188,3.08203 -2.34677,4.30869 -7.11794,6.73194 -12.00391,7.13672 -0.42755,0.59926 -0.84335,1.20335 -1.25586,1.80859 5.94235,0.0621 11.84533,-3.27475 14.68555,-8.30273 -0.51992,2.31529 0.28615,4.13121 1.60742,5.68359 3.25479,3.82167 9.72326,6.08414 7.01953,10.30078 -2.05385,3.40981 -6.48226,6.18234 -10.77148,6.67969 -1.99415,0.23431 -3.95873,-0.0255 -5.64648,-0.94726 -4.6742,-0.0505 -8.65204,-4.70821 -9.67578,-9.09571 -0.43875,0.72203 -0.8668,1.44706 -1.28321,2.17578 0.53121,1.2542 1.16961,2.43099 1.82031,3.39844 4.23457,4.11908 11.15304,6.42711 3.50196,11.79688 -2.4503,3.29333 -7.28981,3.01961 -10.8711,3.37304 -0.89401,0.0882 -1.71151,0.2145 -2.40234,0.44336 -0.57097,2.14951 -1.02623,4.30739 -1.37109,6.46875 0.0215,0.056 0.0362,0.1052 0.0586,0.16211 0.28822,3.88728 4.05609,6.24146 6.58594,8.57227 2.53754,2.3379 3.74693,4.57777 -1.15821,8.23437 -1.47485,1.50256 -3.24518,2.48746 -5.13281,3.08789 0.11196,0.53714 0.23565,1.07217 0.36524,1.60743 3.69391,-1.3472 6.95953,-4.04235 8.875,-7.42969 -1.12693,5.04617 3.90611,7.66781 6.99023,10.43554 1.843,1.64854 2.96684,3.32203 1.52734,5.53711 -0.85943,1.40899 -2.11317,2.69605 -3.58203,3.75977 -2.1832,1.59778 -4.83892,2.69048 -7.41015,2.94141 0.3143,0.51081 0.63422,1.02038 0.96875,1.52734 2.0962,-0.33769 4.11889,-1.09071 5.93554,-2.17774 2.51393,-1.48591 4.64214,-3.58138 6.03516,-6.02929 -0.74166,3.76564 1.88919,6.38975 4.73438,8.68555 2.82766,2.2817 5.88037,4.24149 5.52734,6.5996 -1.84456,3.69451 -5.59518,5.97664 -9.70703,6.88672 0.53484,0.45658 1.09143,0.90652 1.64843,1.35742 3.9972,-1.31042 7.47218,-3.93158 9.46485,-7.23242 -0.85339,4.0372 2.68289,6.5555 6.13281,8.83985 3.21348,2.12774 6.31106,4.02716 4.98438,6.71484 h 3.90625 c 0.0429,-2.15683 2.08429,-3.35484 7.04687,-2.21875 2.60428,-0.31269 5.07846,-1.06061 7.25781,-2.14062 3.09838,-1.52254 5.54041,-3.69927 6.99219,-6.22461 -0.57641,4.07618 3.71905,6.46251 7.75586,8.56836 1.30887,0.68279 2.56703,1.33835 3.63086,2.01562 h 6.22852 c -5.06088,-0.47142 -9.86183,-2.40087 -12.73243,-5.86719 -4.16552,-4.33106 -4.83434,-9.43702 3.92969,-7.82226 6.31678,-1.02903 11.37399,-4.63557 13.51367,-9.125 -0.22502,3.82134 3.35711,6.1892 7.07227,8.17383 3.6956,1.97419 7.49556,3.55192 7.53906,5.93164 -1.79809,5.02002 -7.72572,8.08709 -14.35351,8.70898 h 7.48632 c 4.03832,-1.7631 7.12952,-4.59991 8.63477,-7.87305 -0.19371,4.01849 4.08492,6.08758 8.18945,7.87305 h 2.60352 c -2.12692,-0.81501 -4.03514,-1.97394 -5.53321,-3.51953 -4.51072,-4.0177 -5.64372,-9.06622 3.17774,-8.08008 3.06309,-0.73403 5.77646,-2.08777 7.93555,-3.83789 1.98194,-1.73475 3.48292,-3.86435 4.29687,-6.17383 0.0952,3.82957 3.59524,5.97809 7.30664,7.73828 3.67675,1.74379 7.56614,3.09753 7.79492,5.46289 -1.05674,3.90094 -4.53227,6.7942 -8.77929,8.41016 h 3.98242 c 3.13355,-1.97741 5.50868,-4.69905 6.61523,-7.68945 0.12378,4.11741 4.72703,5.89122 9.22852,7.41015 0.27948,0.0943 0.53179,0.18652 0.80859,0.2793 h 3.99024 c -2.7145,-0.47065 -5.21934,-1.41238 -7.26758,-2.89648 -2.59263,-1.65755 -4.72721,-4.082 -4.97656,-6.01563 -0.25132,-1.94823 1.36493,-3.31875 6.48242,-3.05664 6.24949,-1.9019 10.97332,-6.20837 12.4082,-10.96289 0.83649,3.28671 4.24558,5.30818 8.19922,6.77344 3.93627,1.45881 8.37803,2.32737 10.84766,3.48828 -0.22964,5.30983 -5.89811,9.70199 -12.91407,11.77344 -1.30458,0.38517 -2.63891,0.68579 -3.98046,0.89648 h 7.16406 c 5.99501,-2.34741 10.36393,-6.48732 11.67383,-10.87891 0.7965,5.0919 9.14134,5.68759 15.35156,6.95508 1.08862,0.19066 2.07407,0.41322 2.92773,0.68946 0.96728,-0.64129 1.91056,-1.28786 2.82617,-1.94336 -2.01334,0.20363 -4.03586,0.25715 -6.00195,0.0937 -3.02303,-0.33652 -5.78215,-1.14703 -8.05273,-2.48047 -6.29073,-3.14944 -8.35679,-7.8216 1.93359,-8.51758 1.20727,-0.45845 2.35332,-0.98681 3.42578,-1.57422 5.11515,-2.90948 8.23604,-6.9815 8.90039,-11.02539 1.09336,3.70626 5.94159,4.8738 10.73438,5.61719 2.25263,0.3494 4.46046,0.6077 6.27734,1.01367 0.43223,-0.61033 0.84789,-1.22359 1.25,-1.83984 -7.9271,0.76758 -15.67835,-3.02737 -17.51562,-8.20118 12.00411,-2.04937 19.00437,-11.16119 16.75781,-18.7832 3.35415,-0.62197 6.54681,-0.40084 9.36523,0.43555 0.0292,-0.66157 0.0476,-1.32364 0.0527,-1.98633 -1.32829,-0.30175 -2.73249,-0.48635 -4.21094,-0.51953 1.59591,-0.70481 2.97307,-1.56604 4.15039,-2.53711 -0.0378,-0.80823 -0.0922,-1.61714 -0.16406,-2.42578 -2.86156,3.01872 -7.36439,4.89358 -12.14649,5.3789 -6.4652,0.65616 -13.01453,-1.26818 -15.89062,-5.92578 -1.57759,-2.35117 1.67331,-3.6463 5.15625,-5.22461 3.51541,-1.59298 7.24076,-3.46406 6.99414,-6.77343 1.20978,-2.71481 1.41125,-5.65962 0.67969,-8.40821 3.58303,-0.89222 7.09457,-0.43622 10.10547,0.89844 -0.25224,-0.60596 -0.50886,-1.2114 -0.77735,-1.81445 -3.16911,-0.53864 -2.9168,-1.80567 -1.65429,-3.47657 -0.24137,-0.48164 -0.48106,-0.96409 -0.73243,-1.44336 -4.08545,3.99162 -11.11606,5.55463 -17.00195,3.88477 -3.24352,-0.9979 -6.4515,-3.30282 -7.53906,-5.54297 -1.09336,-2.25207 -0.0304,-4.29337 5.13086,-4.99219 4.43641,-3.10891 6.44694,-8.16578 5.76562,-13.02539 -1.02325,-1.16856 -2.07142,-2.32259 -3.14844,-3.45703 -1.13633,0.36113 -2.33023,0.59536 -3.54687,0.68555 -5.22453,0.3873 -10.48636,-1.7779 -13.08203,-6.48828 -1.40742,-2.38117 0.99468,-3.51936 3.60937,-4.92188 0.27985,-0.15011 0.56287,-0.30494 0.84375,-0.46289 -0.40017,-0.32099 -0.80661,-0.63495 -1.21093,-0.95117 -0.61062,0.46085 -1.26392,0.87353 -1.96094,1.22266 -4.2343,2.1209 -9.63576,1.92527 -13.52149,-1.62891 -4.10879,-3.2865 -5.83847,-7.99624 -0.0137,-8.32031 0.43107,-0.27945 0.83747,-0.59204 1.21875,-0.92969 -0.51123,-0.29593 -1.02417,-0.58695 -1.53906,-0.875 -1.39898,1.07148 -3.05461,1.6577 -4.83789,1.44141 -0.13356,-0.0464 -0.25888,-0.0638 -0.37891,-0.0586 -0.88178,0.0521 -1.4989,1.25087 -2.70703,0.22461 -2.2396,0.0613 -5.81728,-2.70296 -7.79297,-5.58008 -1.80748,-2.6322 -2.20251,-5.18625 0.56836,-5.7207 -0.47443,-0.39898 -0.95112,-0.79536 -1.41406,-1.20312 -2.85635,0.76153 -6.08782,0.14305 -8.82422,-2.49414 -3.12813,-2.67406 -5.43652,-7.6705 -3.26367,-9.51563 -0.43877,-0.45623 -0.87822,-0.91522 -1.31836,-1.36719 -3.23951,0.071 -6.64543,-1.51325 -8.78906,-5.00195 -1.21509,-1.67299 -2.00298,-3.42208 -2.13282,-4.85156 -1.29033,-0.94829 -2.62751,-1.83968 -4.01953,-2.66797 0.71802,0.52764 1.37361,1.05009 1.83203,1.60156 -0.4002,7.04875 -6.29802,11.71023 -12.74414,11.57617 -2.71124,-0.0912 -5.35125,-1.25111 -7.28515,-3.6875 -3.45571,-3.84349 -5.18372,-11.05813 1.59375,-9.74609 2.36517,-0.86198 4.38719,-2.66223 5.79687,-4.99219 0.96402,-1.42715 1.67073,-3.04159 2.07032,-4.75195 0.35873,3.2462 2.4246,5.41036 4.67382,7.13086 0.62862,0.48085 1.26332,0.92254 1.88868,1.34765 0.19482,-0.35241 0.37372,-0.71105 0.54101,-1.07421 -1.30069,-0.75968 -2.49484,-1.82937 -3.46875,-3.24805 -3.00292,-3.7808 -4.08481,-8.94311 1.84961,-8.17578 0.6986,-0.29298 1.35443,-0.66181 1.96875,-1.0918 -0.21132,-0.53558 -0.44888,-1.05808 -0.71484,-1.56641 -2.22017,1.43205 -4.88074,2.03826 -7.36914,1.67188 -0.43777,0.0339 -0.90085,-0.0123 -1.38086,-0.12891 -2.15205,-0.64082 -4.51598,-3.10565 -5.90039,-5.72656 -1.00566,-1.90393 -1.47674,-3.86249 -1.03907,-5.23437 -0.13646,-0.003 -0.26904,-0.0195 -0.40625,-0.0195 z m -0.93164,1.88868 c -0.15586,6.40492 6.09958,8.2261 8.26367,11.42968 0.47478,0.60594 0.76886,1.27149 0.80079,2.03711 -0.19099,0.89451 -0.47017,1.73514 -0.82813,2.51953 -3.29258,8.12093 -14.35967,9.86971 -18.55078,1.86524 -2.48183,-4.03873 -2.84059,-9.12415 2.36523,-8.02735 3.77213,-1.39835 6.73679,-5.23399 7.94922,-9.82421 z m -3.49414,27.9375 c 0.31641,6.70447 7.26272,9.13842 9.83203,12.31445 -0.46601,5.18332 -3.9105,8.99332 -8.22461,10.54297 -4.28938,1.54074 -9.28326,0.76332 -12.3789,-3.07031 -3.66736,-3.99717 -5.15532,-11.65105 1.90234,-10.06446 4.18743,-1.34302 7.501,-5.14799 8.86914,-9.72265 z m 25.39258,0.0684 c 0.0743,4.13937 3.03618,6.10182 5.74805,7.82617 2.68784,1.70902 5.17716,3.20687 4.46093,6.49023 -0.89321,4.98827 -4.5475,8.2029 -8.98828,9.11914 -4.39375,0.90653 -9.38987,-0.51695 -12.29687,-4.66406 -3.51752,-4.3039 -3.79044,-9.18391 2.66992,-8.48633 4.32881,-1.63769 7.38355,-5.63192 8.40625,-10.28515 z m -40.55469,13.73242 c -0.42329,4.09325 2.41634,6.23741 5.12891,8.14843 2.68362,1.8906 5.22473,3.54077 3.9375,6.71094 -1.95057,5.18804 -8.33384,9.53536 -13.50195,7.70313 -1.05666,-0.64191 -2.26012,0.83329 -3.33008,-0.63281 -2.36995,-0.50403 -5.28006,-4.04096 -6.4961,-7.27735 -1.22073,-3.24903 -0.73694,-6.06723 3.38672,-5.26367 4.87213,-0.76799 9.04391,-4.55636 10.875,-9.38867 z m 52.10547,0.54297 c 0.29662,4.09922 3.33891,5.86396 6.1582,7.39062 2.78174,1.50634 5.38502,2.79544 4.79883,6.08984 -0.81919,5.37207 -5.97531,10.55116 -11.35742,9.4004 -1.13263,-0.51434 -2.05642,1.14149 -3.35156,-0.19141 -2.39248,-0.18897 -5.89008,-3.30953 -7.66797,-6.34961 -1.78126,-3.04581 -1.79873,-5.9184 2.47266,-5.66016 4.72557,-1.40112 8.04325,-5.66041 8.94726,-10.67968 z m -26.26953,0.54882 c -0.0164,1.38177 0.31681,2.51929 0.88086,3.48829 1.49035,2.36906 4.45053,3.7106 6.76172,5.10546 2.31134,1.39494 4.04577,2.88134 3.16601,5.58204 -1.26955,4.28285 -5.47403,8.16294 -10.04101,8.80078 -1.05329,0.14793 -2.11285,0.10175 -3.13672,-0.17774 -1.11847,-0.56537 -2.18186,0.99884 -3.39258,-0.39453 -2.41478,-0.33273 -5.6546,-3.64794 -7.17383,-6.78516 -1.52485,-3.14879 -1.308,-5.99647 2.89844,-5.49218 4.80773,-1.11433 8.64096,-5.18305 10.03711,-10.12696 z m -42.05273,11.33204 c -0.0891,0.66907 -0.0897,1.29449 -0.0137,1.88476 0.38785,3.0603 2.78608,5.11317 5.09766,6.94141 2.29781,1.81739 4.49521,3.40114 4.35547,5.56836 -1.86388,5.41199 -7.19345,8.37247 -12.62305,8.40625 -4.56283,0.0305 -9.06053,-2.01654 -11.26758,-6.20313 -2.69989,-4.30886 -2.81122,-9.46964 3.6543,-7.73242 4.81759,-0.9433 8.83887,-4.42893 10.79688,-8.86523 z m 80.75,1.14062 c 0.77084,3.28219 3.06103,5.33467 5.60937,6.86133 2.53394,1.51797 5.27372,2.47377 6.86524,3.67969 0.46616,5.26625 -2.45694,9.46815 -6.85938,11.45117 -4.35135,1.95998 -9.84811,1.55998 -13.62109,-2.13477 -3.89246,-3.38202 -6.42918,-9.59735 0.59961,-9.04492 4.20073,-1.88629 6.8778,-6.09756 7.40625,-10.8125 z m -53.79493,1.07227 c -0.15108,3.82523 2.456,6.06447 5.18946,7.9414 2.71296,1.86296 5.52373,3.34724 5.58789,5.72461 -1.26071,5.09365 -5.64341,8.31789 -10.57813,9.12696 -4.91868,0.80644 -10.19214,-0.83535 -12.9375,-5.23047 -3.01685,-4.12943 -3.46445,-9.22274 2.91406,-7.96094 4.61745,-1.27984 8.28794,-5.04359 9.82422,-9.60156 z m 27.59375,0.29492 c 0.15171,3.82455 2.97979,5.91312 5.8418,7.62305 2.8484,1.70175 5.72275,3.01723 5.97656,5.38476 -0.83265,5.16128 -4.90791,8.63674 -9.80468,9.75 -4.86423,1.10588 -10.34042,-0.18857 -13.56446,-4.36523 -0.0775,-0.0863 -0.15364,-0.17416 -0.22851,-0.26172 -2.7078,-3.26749 -3.68339,-7.30783 0.0449,-7.89649 0.66748,-0.10444 1.4812,-0.1083 2.45508,0.008 4.65891,-1.60716 8.08501,-5.59086 9.27929,-10.24219 z m -72.24414,9.35742 c -0.79353,4.04082 2.22884,6.45438 5.04688,8.59766 2.80075,2.1301 5.4181,4.00441 3.71094,7.04882 -2.31432,4.70529 -7.43027,7.07801 -12.58399,7.04297 -5.13744,-0.0349 -10.16279,-2.47013 -12.2168,-7.20508 -2.47064,-4.55237 -2.05035,-9.05896 4.40625,-7.17968 5.00976,-0.76914 9.37631,-4.01775 11.63672,-8.30469 z m 112.27539,1.63477 c 0.10743,0.51087 0.25582,0.97931 0.44141,1.41015 1.37815,3.21674 4.74582,4.30767 7.85352,5.33789 3.05401,1.01243 5.81484,1.96426 5.60546,5.12696 -0.0563,5.24883 -3.90186,9.21349 -8.92773,10.6875 -4.75554,1.39678 -10.2066,0.44474 -13.63281,-3.42969 -3.91288,-3.75895 -4.71518,-8.04882 1.57031,-8.00586 4.24619,-2.09857 6.80246,-6.41756 7.08984,-11.12695 z m -83.90234,1.77929 c -0.4603,4.08854 2.66134,6.27826 5.63086,8.22461 2.94049,1.92741 5.71329,3.6056 4.29492,6.76172 -1.86975,4.85497 -6.74481,7.58874 -11.88672,7.88672 -5.13032,0.29731 -10.32366,-1.85275 -12.6289,-6.48633 -0.17441,-0.28545 -0.33541,-0.57228 -0.48438,-0.85742 -1.65028,-3.1525 -1.69061,-6.14891 1.01953,-6.73633 0.83829,-0.1818 1.93961,-0.13483 3.35352,0.20117 4.83418,-1.04449 8.84058,-4.56847 10.70117,-8.99414 z m 57.03711,0.94922 c 0.2485,4.10457 3.67152,5.86355 6.88867,7.38281 3.17819,1.50088 6.17424,2.77254 5.37695,6.08008 -0.92787,5.0574 -5.22035,8.42917 -10.26562,9.41602 -5.0211,0.98212 -10.52211,-0.46802 -13.60352,-4.74414 -3.46384,-4.04544 -3.9691,-8.48711 2.5918,-7.83203 4.6284,-1.6751 7.95256,-5.67832 9.01172,-10.30274 z m -28.66992,0.44141 c -0.061,2.92047 1.60067,4.76046 3.71093,6.20703 3.88401,2.58664 9.14248,3.88504 7.64454,8.05078 -1.1295,3.79254 -4.10614,6.4615 -7.73633,7.81836 -5.87456,2.19962 -13.298,0.81027 -16.67578,-4.69922 -3.13977,-4.25976 -3.24455,-8.68736 3.19531,-7.64648 4.72832,-1.38847 8.40681,-5.18713 9.86133,-9.73047 z m -75.77735,6.29687 c 0.2219,7.07948 6.57532,12.46564 13.68555,13.3125 -0.23027,0.76038 -0.35804,1.56125 -0.4668,1.85547 -1.86646,5.06418 -6.9719,7.95398 -12.33593,8.39063 -5.35386,0.43582 -10.82959,-1.5844 -13.46094,-6.22657 -0.64299,-0.76132 -1.05944,-1.58442 -1.32813,-2.44336 -0.64917,-2.07735 -0.4324,-4.36749 -0.4414,-6.51367 0.63876,-0.0155 1.27686,-0.0635 1.91211,-0.14453 5.207,-0.66444 10.12013,-3.50743 12.43554,-8.23047 z m 147.17578,2.97071 c 1.9776,-0.14849 7.52981,8.0093 12.27735,6.11328 2.20603,0.19522 4.30482,-0.12626 6.20312,-0.83008 0.35663,2.66445 1.44013,5.60088 -0.31445,8.14062 -1.83422,4.93777 -7.1265,7.7172 -12.70703,7.95118 -5.60971,0.2352 -11.09638,-2.09889 -13.52149,-6.85352 -0.57922,-0.39426 -0.73705,-1.97878 -1.13671,-3.11328 4.22952,-1.54188 7.52696,-4.73457 8.40625,-9.09375 -0.0204,-1.43101 0.19797,-2.1058 0.61328,-2.27344 0.0562,-0.0227 0.11589,-0.0362 0.17968,-0.041 z m -117.43945,2.52539 c 0.52821,0.0997 0.94541,1.07652 1.34961,3.55859 0.24106,0.54444 0.51915,1.06223 0.83008,1.55273 2.53645,4.00522 7.2908,6.17252 12.19336,6.31836 -0.16235,0.79324 -0.21261,1.64462 -0.35156,1.96875 -1.69324,6.01188 -8.06274,9.3538 -14.49219,9.19141 -4.58639,-0.1179 -8.99579,-2.03039 -11.39453,-5.86133 -2.30204,-2.50555 -2.00737,-5.80759 -2.09766,-8.79883 2.84597,-0.0302 5.68968,-0.82017 8.15039,-2.54882 2.97186,-1.56819 4.65374,-5.59955 5.8125,-5.38086 z m 89.08789,1.73828 c 0.53072,-0.0167 1.19229,0.83916 2.27344,3.15429 3.52409,4.36989 9.47506,5.79766 14.87109,4.58008 -0.0454,2.75082 0.4757,5.83297 -1.66406,8.21289 -2.66468,4.66622 -8.44499,6.70841 -13.93945,6.21094 -5.51676,-0.49948 -10.48704,-3.5045 -12.15235,-8.49414 -0.49167,-0.44445 -0.43196,-1.94419 -0.63281,-3.10352 2.7283,-0.60751 5.24445,-1.94848 7.13281,-4.11132 2.45101,-2.14061 2.94944,-6.41263 4.11133,-6.44922 z m -29.85937,0.39648 c 1.78978,6.92601 9.24772,11.07575 16.46875,10.48828 -0.33503,2.30189 -0.068,4.90702 -1.93946,6.81836 -2.42385,4.09965 -7.12691,6.12763 -11.91015,6.1875 -4.78637,0.0599 -9.53595,-1.84515 -12.24414,-5.42578 -0.69252,-0.90545 -1.2509,-1.91734 -1.64453,-3.0332 -1.11362,-0.99665 -0.54123,-2.94343 -0.71485,-4.35352 0.81959,-0.1644 1.62501,-0.39248 2.40625,-0.67773 4.64538,-1.6958 8.39894,-5.3681 9.57813,-10.00391 z m -30.10547,0.73047 c 2.00886,-0.19601 4.35254,9.71118 9.71094,9.27344 1.98272,0.78441 4.08861,1.08027 6.16406,0.96484 -0.0337,1.1117 0.19666,2.42855 -0.54883,3.14063 -1.53847,5.11044 -6.4903,8.20559 -11.9375,8.81054 -5.43398,0.6035 -11.15048,-1.30869 -13.96289,-5.92382 -2.15963,-2.15384 -1.68613,-5.18692 -2.07812,-7.76563 4.5568,-0.40748 8.84328,-2.57704 11.24804,-6.50586 0.48667,-1.36812 0.94064,-1.94889 1.4043,-1.99414 z m -44.7832,8.65234 c -0.78978,4.04313 2.42007,6.47672 5.45507,8.64844 3.0142,2.15682 5.85831,4.05513 4.06446,7.08985 -2.99917,6.0462 -11.83065,8.08674 -17.72657,6.37109 -6.09262,-0.61033 -13.25895,-11.96778 -7.84179,-13.73633 6.5821,0.64385 13.12985,-2.95237 16.04883,-8.37305 z m 123.6582,1.40625 c 0.86277,4.05222 4.94005,5.28202 8.82812,6.28125 3.8251,0.98305 7.42013,1.73743 7.02344,5.1543 -0.19083,5.38679 -5.39602,9.67188 -11.29883,11.25781 -1.32275,0.34225 -2.65021,0.53996 -3.92187,0.57813 -3.30635,0.65333 -7.94099,-1.19276 -11.04297,-3.66016 -3.10065,-2.46637 -4.6251,-5.47847 -2.20508,-7.04492 6.6044,-1.1329 11.50219,-6.05557 12.49414,-11.69726 0.0509,-0.2882 0.0925,-0.578 0.12305,-0.86915 z m -92.95899,2.25 c -0.45622,4.0883 2.97858,6.3006 6.23047,8.26172 3.2231,1.94369 6.25016,3.63299 4.73242,6.78516 -2.44772,6.24253 -11.16192,8.90259 -17.45507,7.51367 -3.77072,-0.15484 -8.31056,-4.13628 -10.13282,-7.7832 -1.19569,-2.40518 -1.21227,-4.63083 0.83008,-5.48047 0.0516,-0.0214 0.10594,-0.0428 0.16016,-0.0625 6.83772,0.36505 13.17406,-3.64577 15.63476,-9.23438 z m 61.94532,0.98438 c 1.28504,6.4441 10.60675,8.06675 14.08593,10.76172 -0.0164,6.91557 -8.35347,13.739 -16.27734,12.09765 -6.87066,0.86419 -14.10503,-6.53553 -13.0918,-11.57031 7.31437,0.0173 13.72306,-4.99957 15.28321,-11.28906 z m -30.98243,0.50586 c -0.0524,2.7164 1.51652,4.4996 3.5879,5.89844 4.08994,2.80548 10.1909,4.0577 8.54101,8.37109 -1.15704,3.87635 -4.67721,6.59334 -8.63672,7.91406 -2.61766,0.85514 -5.4246,1.12527 -7.88672,0.76367 -3.14227,0.0969 -7.10335,-2.44604 -9.5625,-5.34375 -2.45937,-2.89804 -3.38814,-6.09541 -0.76367,-7.2832 6.83334,-0.12882 12.77725,-4.57682 14.7207,-10.32031 z m -81.31835,5.86719 c -1.45483,7.52609 10.59929,10.42675 9.92187,15.16211 -2.13154,4.49626 -6.96593,6.9908 -11.99219,7.41796 -5.03025,0.42752 -10.14455,-1.21396 -13.05859,-4.93164 -0.42908,-0.54894 -0.8106,-1.14463 -1.13867,-1.78515 -2.56063,-4.17857 -2.77034,-9.19107 3.25976,-7.81055 0.25664,0.0589 0.52474,0.12845 0.80469,0.21094 5.16084,-0.73018 9.80165,-3.96371 12.20313,-8.26367 z m 161.06445,1.07617 c 1.19647,3.68215 5.09158,4.95789 8.99805,5.82226 3.87438,0.85729 7.68559,1.29523 8.64648,3.51758 0.42822,5.24647 -3.48416,9.79429 -9.17187,12.20313 -5.65447,2.39476 -12.82851,2.52712 -17.80469,-0.85547 -0.88179,-0.51317 -1.6843,-1.08237 -2.36524,-1.67774 -2.26095,-2.00988 -3.13735,-4.25897 -1.19531,-5.58203 0.87482,-0.60371 2.30571,-1.03273 4.44727,-1.22265 5.24862,-2.62997 8.26887,-7.38857 8.44531,-12.20508 z m -129.90234,3.58203 c -0.31821,2.32172 0.62699,4.16349 2.11718,5.73828 3.38921,3.56219 9.55219,5.64545 9.34571,8.95313 -1.81193,4.55995 -6.57211,7.29627 -11.90821,7.95117 -6.22829,0.76267 -12.80241,-1.34037 -15.78711,-6.3418 -3.08985,-4.38578 -3.27175,-9.53937 3.96485,-7.67773 5.41551,-0.84089 10.05184,-4.2299 12.26758,-8.62305 z m 96.78124,1.78516 c 0.55756,3.79864 4.15245,5.57558 7.9004,6.93554 3.7035,1.34384 7.53583,2.2624 8.125,4.57422 -0.48831,5.2572 -5.34678,9.26736 -11.32227,10.91016 -5.96704,1.64049 -12.65246,0.81049 -16.75977,-3.14063 -4.42059,-3.67777 -5.80074,-8.59334 2.01368,-8.28515 5.32585,-1.94677 9.0669,-6.24731 10.04296,-10.99414 z m -64.63476,1.04492 c -0.16705,3.82516 2.93751,6.10983 6.16992,8.02148 3.21246,1.89983 6.52521,3.41257 6.59375,5.79102 -1.50576,5.07918 -6.67001,8.26141 -12.46484,9 -5.7802,0.73672 -11.98673,-0.99834 -15.27344,-5.46094 -3.61486,-4.2085 -4.20069,-9.30094 3.37305,-7.91211 5.4551,-1.19016 9.7912,-4.90443 11.60156,-9.43945 z m 32.08594,0.58398 c 0.13919,3.82953 3.37958,5.92453 6.74609,7.63477 3.34124,1.6974 6.80391,3.00424 7.0625,5.36914 -1.00283,4.64807 -5.11498,7.9488 -10.03906,9.36328 -4.92424,1.41452 -10.47363,0.89565 -14.42383,-1.88477 -0.9231,-0.61477 -1.76351,-1.3437 -2.49805,-2.1875 -3.94941,-3.91904 -5.02195,-8.94492 2.5586,-8.13281 0.0227,0.003 0.0457,0.005 0.0684,0.008 5.13134,-1.5506 9.1006,-5.52535 10.52539,-10.16992 z m -114.9336,2.94922 c -0.80409,3.58657 1.55339,5.96832 4.09766,8.03906 3.16277,2.57015 6.66341,4.6729 4.53516,7.95508 -1.67235,2.92209 -4.46527,4.86077 -7.58399,5.84375 -6.67515,2.12962 -14.70426,-0.13032 -17.36523,-6.5332 -2.35723,-4.51476 -1.99261,-9.07184 4.39453,-7.16992 4.95924,-0.74529 9.49759,-3.90936 11.92187,-8.13477 z m 30.78907,5.13086 c -0.812,4.04095 2.54536,6.50697 5.7539,8.7207 3.1864,2.19841 6.21151,4.13759 4.31641,7.15235 -2.55679,4.66227 -8.31456,6.92898 -13.94336,6.80664 -5.64218,-0.12263 -10.98625,-2.62235 -13.17969,-7.38086 -2.63722,-4.59524 -2.20217,-9.08128 4.58399,-7.14649 5.30402,-0.712 10.04497,-3.89487 12.46875,-8.15234 z m 134.52929,2.31836 c 0.43917,2.2614 2.0706,3.65392 4.23047,4.61523 2.78479,1.19749 6.36776,1.64279 9.12305,2.38282 2.74034,0.73602 4.7178,1.79207 4.2539,4.2832 -0.51702,4.47678 -4.38184,8.17879 -9.73632,10.32617 -7.10641,2.73169 -15.77761,2.36101 -20.67383,-2.11523 -4.82057,-3.7063 -5.62882,-7.9725 2.4707,-8.07813 5.64218,-2.20462 9.48921,-6.65536 10.33203,-11.41406 z m -101.68359,1.78711 c -0.49488,4.08558 3.22475,6.35133 6.73633,8.35547 3.4827,1.98767 6.74449,3.71178 5.0957,6.84765 -1.9706,4.38278 -6.83866,6.974 -12.23438,7.55469 -5.38593,0.57964 -11.15305,-0.8696 -14.70117,-4.34766 -0.7077,-0.70138 -1.32065,-1.48234 -1.82422,-2.34374 -3.06583,-4.30685 -2.98903,-8.54387 3.32032,-7.52149 0.34778,0.0556 0.71473,0.1264 1.10156,0.21289 5.67856,-0.92026 10.36062,-4.36646 12.50586,-8.75781 z m 66.72656,1.52148 c 0.20945,4.10891 4.31613,5.83715 8.26563,7.32032 3.90442,1.46623 7.62982,2.68376 6.49414,6.01757 -1.3665,5.08563 -6.82614,8.53055 -12.85938,9.54688 -6.04614,1.01852 -12.35707,-0.43766 -15.83398,-4.72461 -3.9452,-4.08833 -4.41197,-8.47984 3.07031,-7.82617 5.37647,-1.66644 9.47104,-5.69976 10.86328,-10.33399 z m -33.21289,0.32813 c 0.4369,3.69683 3.70732,6.05003 7.12305,7.92969 2.47033,1.44211 5.06676,2.6305 6.44922,3.92187 -0.41453,3.88037 -3.01163,7.00006 -6.52539,8.96094 -6.21468,3.3043 -15.22888,3.28709 -20.52735,-1.66406 -4.84982,-4.01129 -7.21154,-11.25784 2.39258,-9.6875 5.44008,-1.24393 9.6311,-4.96871 11.08789,-9.46094 z m -86.56641,4.92773 c -0.94547,4.05134 2.19105,6.63809 5.20313,8.98047 2.99846,2.33179 5.86027,4.4093 3.95508,7.41406 -4.1584,7.27263 -15.50389,8.5132 -21.98438,4.33594 -1.77475,-1.14561 -3.2311,-2.70509 -4.17187,-4.67969 -2.82076,-4.88001 -2.10369,-9.74581 4.7539,-7.8125 0.77601,-0.11202 1.5406,-0.28213 2.28907,-0.5039 4.20839,-1.23046 7.89426,-4.09479 9.95507,-7.73438 z M 486.0332,287 c 1.06425,4.03879 5.96038,5.01288 10.51758,5.7793 4.50861,0.75823 8.66834,1.31634 8.31445,4.80273 -0.2161,4.72478 -4.17655,8.80706 -9.82812,11.24805 -5.62333,2.42882 -12.76339,3.1304 -18.38867,1.18945 -1.14977,-0.42332 -2.22074,-0.95636 -3.19141,-1.60351 -5.95773,-3.38351 -6.99032,-7.76639 0.96289,-8.80274 0.41007,-0.0609 0.84299,-0.11572 1.30078,-0.16211 6.1571,-2.7364 9.84172,-7.59118 10.3125,-12.45117 z m -142.15625,3.0293 c -0.68101,3.69367 2.18553,6.0948 5.33399,8.18554 3.82118,2.50804 7.96483,4.52361 5.98828,7.9043 -1.56061,3.00175 -4.53588,5.08861 -8.12695,6.21094 -7.70324,2.4188 -17.34908,0.31241 -21.00196,-5.97461 -3.43677,-4.96214 -2.69251,-9.71219 4.89844,-7.85156 5.65134,-0.78186 10.56243,-4.10969 12.9082,-8.47461 z m 104.36328,2.62695 c 0.82851,3.2253 3.92633,5.19846 7.48438,6.66016 3.54193,1.45511 7.50285,2.36434 9.72851,3.61914 0.25899,5.21341 -4.39535,9.69173 -10.63867,12.00195 -6.23502,2.30719 -13.63827,2.29836 -18.76367,-1.05469 -2.92304,-1.68231 -5.30836,-4.41003 -5.67187,-6.63476 -0.36625,-2.24117 1.27676,-3.87617 6.57812,-3.59571 5.8187,-1.93322 10.07202,-6.24434 11.2832,-10.99609 z m -69.71289,0.66992 c -0.37783,4.12916 3.5123,6.36402 7.20313,8.3418 3.6618,1.9622 7.10843,3.66352 5.59961,6.87109 -1.99979,4.87685 -7.67085,7.74298 -13.8457,8.19922 -6.16375,0.45542 -12.62549,-1.51482 -15.95899,-6 -4.18242,-4.79605 -3.75775,-9.53717 4.46094,-8.12109 5.87847,-1.11561 10.56994,-4.77777 12.54101,-9.29102 z m 34.43555,0.86328 c -0.0352,4.1479 3.88082,6.14221 7.66992,7.89258 3.75585,1.73499 7.35978,3.21598 6.09961,6.51367 -2.4877,7.65832 -13.74855,10.98559 -21.7207,8.36133 -2.75412,-0.81277 -5.20811,-2.2251 -6.99414,-4.26562 -4.57207,-4.4794 -4.6005,-9.23878 3.68164,-8.41016 1.19288,-0.31866 2.32888,-0.74707 3.39258,-1.26563 3.78221,-1.93587 6.65693,-5.16422 7.87109,-8.82617 z m -90.53125,7.58594 c -0.83625,4.03897 2.62789,6.53421 5.97266,8.78711 3.32144,2.23714 6.49398,4.21523 4.50976,7.21094 -3.05151,4.93966 -11.63005,8.40553 -17.6582,6.05273 -1.22636,-0.77252 -2.78567,0.61034 -3.95508,-0.98437 -2.7822,-0.74218 -5.97959,-4.552 -7.24609,-7.89258 -1.26854,-3.34606 -0.63108,-6.16834 4.26953,-4.97266 5.86306,-0.30085 11.4076,-3.59655 14.10742,-8.20117 z m 144.81641,3.51563 c 0.65097,3.75824 5.06747,5.10319 9.68554,6.05664 5.34995,0.98246 10.65992,1.44534 9.66797,5.19726 -0.64502,2.8838 -3.13933,5.95111 -6.77734,8.29688 -3.47081,2.16827 -7.79767,3.57382 -11.97461,3.41992 -1.85473,-0.32606 -3.22106,1.42966 -5.33789,0.29883 -3.81696,0.1462 -9.26412,-2.53723 -12.10352,-5.38867 -2.86365,-2.87583 -3.008,-5.67977 3.3418,-5.92579 7.04921,-1.95894 12.25541,-6.77265 13.49805,-11.95507 z m -110.07422,1.05078 c -0.5394,4.08118 3.46717,6.41052 7.24219,8.46679 3.74622,2.04061 7.24891,3.80674 5.46289,6.92188 -2.7121,5.11416 -11.45883,9.13578 -18.56836,6.99219 -1.46211,-0.7081 -3.09245,0.69942 -4.5918,-0.8418 -0.60771,-0.12206 -1.24957,-0.35454 -1.90234,-0.67383 -3.13586,-1.5609 -6.32174,-5.07305 -7.45703,-7.99414 -1.13608,-2.92303 -0.22354,-5.13437 4.85937,-4.15234 1.56844,-0.10525 3.10266,-0.38498 4.5625,-0.81641 4.70242,-1.38348 8.48684,-4.30053 10.39258,-7.90234 z m 71.54492,2.21093 c 0.16368,4.11406 4.54053,5.86296 8.78711,7.36329 4.20003,1.48388 8.22501,2.70862 6.91406,6.04492 -1.92968,5.46726 -10.37946,10.66534 -17.68945,9.51758 -1.55709,-0.52015 -2.91488,1.12984 -4.61719,-0.2168 -3.27654,-0.21442 -7.72108,-3.38723 -9.92578,-6.46875 -2.21722,-3.09901 -2.15583,-5.93263 3.41797,-5.61133 6.30411,-1.31881 11.42498,-5.59913 13.11328,-10.62891 z m -35.41797,0.0742 c -0.21759,5.56191 7.46476,7.27164 11.70313,9.74414 1.88782,1.21243 3.02159,2.5986 2.10937,4.70899 -0.46702,1.18245 -1.21124,2.328 -2.15625,3.37695 -3.56102,3.65851 -9.8477,6.139 -15.41211,4.89063 -1.51476,-0.60176 -2.99358,0.92729 -4.625,-0.50977 -3.28569,-0.41846 -7.69034,-3.86698 -9.76172,-7.07617 -2.08248,-3.22639 -1.76924,-6.05099 4.05078,-5.3711 6.64752,-0.91362 12.03772,-4.86617 14.0918,-9.76367 z m -58.17773,9.14063 c -0.77076,5.11294 5.24287,7.9679 9.48633,10.79883 2.09195,1.37216 3.66079,2.7101 3.54492,4.28515 -0.99031,2.12936 -2.73613,3.83346 -4.96485,5.08985 -3.96342,2.25376 -9.3342,3.04417 -14.20703,2.34375 -4.89348,-0.70341 -9.22709,-2.8873 -11.53906,-6.56055 -3.30424,-4.45435 -3.48929,-9.61176 4.24219,-7.61719 5.82996,-0.7297 10.97616,-4.00104 13.4375,-8.33984 z" transform="matrix(0.26458333,0,0,0.26458333,0.97308739,-0.19755592)" id="path2839"/>
    </g>
    <g id="g3206">
      <path style="opacity:1;fill:#ffd42a;fill-opacity:0.98431373;fill-rule:nonzero;stroke:#b8860b;stroke-width:0.62389868;stroke-linecap:butt;stroke-linejoin:round;stroke-miterlimit:4;stroke-dasharray:none;stroke-dashoffset:0;stroke-opacity:0.98431373" d="m 48.161669,46.657464 c -1.068893,0 -1.929599,1.449403 -1.929599,3.249414 v 76.432032 c 0,0.15909 0.860708,0.28731 1.929599,0.28731 1.068892,0 1.929082,-0.12822 1.929082,-0.28731 V 49.906878 c 0,-1.800011 -0.86019,-3.249414 -1.929082,-3.249414 z" id="rect2236"/>
      <path style="opacity:1;fill:#ffd42a;fill-opacity:0.98431373;fill-rule:nonzero;stroke:#b8860b;stroke-width:2.5279057;stroke-linecap:butt;stroke-linejoin:round;stroke-miterlimit:4;stroke-dasharray:none;stroke-dashoffset:0;stroke-opacity:0.98431373" d="m 167.98242,104.05078 c -28.74495,21.61048 -55.87578,82.41855 -55.56054,122.9336 0.44165,56.76297 19.68059,92.81668 40.19726,111.89062 0.75173,0.69887 1.96773,2.68672 2.89844,6.25195 1.23943,10.67387 -8.05161,8.9453 5.41406,32.46485 6.15675,10.75357 -19.05379,10.07215 6.10156,19.0957 1.23288,-8.2063 3.48834,-17.70995 1.21289,-26.67578 -1.92302,-7.57716 -0.22676,-14.68906 0.0293,-21.57031 l -0.0273,-0.0176 c 0.55683,-2.95909 1.13777,-6.3511 1.74609,-10.25977 2.76677,-2.39324 2.04546,-5.1243 0.5293,-7.18359 -29.43431,-39.97846 -8.22534,-69.4085 0.5332,-70.70899 v -53.25781 c -24.54322,-0.19115 -14.37615,-50.7526 -3.07422,-102.96289 z" transform="matrix(0.26458333,0,0,0.26458333,0.97308739,-0.19755592)" id="path2241"/>
      <path style="opacity:1;fill:#ffd42a;fill-opacity:0.98431373;fill-rule:nonzero;stroke:#b8860b;stroke-width:0.62443608;stroke-linecap:butt;stroke-linejoin:round;stroke-miterlimit:4;stroke-dasharray:none;stroke-dashoffset:0;stroke-opacity:0.98431373" d="m 50.244418,53.64317 c -0.721835,0.05006 -1.378721,0.625185 -2.09304,0.748469 -0.642658,0.176039 -1.310458,0.20709 -1.915017,0.648689 -0.327292,0.303211 -0.531769,0.917844 -0.629855,1.560513 -0.06582,0.446674 0.01964,0.940038 0.200658,1.280565 0.406753,0.927956 1.074129,1.350785 1.68333,1.278361 1.001123,-9.78e-4 1.981497,-0.356836 2.923238,-0.877645 0.625012,-0.415974 1.016794,-1.641378 0.988807,-2.881873 -0.08618,-0.990186 -0.609765,-1.882737 -1.158121,-1.757079 z" id="path2273"/>
      <path id="path2275" d="m 50.244418,58.632796 c -0.721835,0.05007 -1.378721,0.625186 -2.09304,0.748469 -0.642658,0.176039 -1.310458,0.207092 -1.915017,0.648691 -0.327292,0.303211 -0.531769,0.917842 -0.629855,1.560512 -0.06582,0.446673 0.01964,0.940038 0.200658,1.280564 0.406753,0.927956 1.074129,1.350786 1.68333,1.278361 1.001123,-9.77e-4 1.981497,-0.356836 2.923238,-0.877644 0.625012,-0.415974 1.016794,-1.641377 0.988807,-2.881873 -0.08618,-0.990185 -0.609765,-1.882737 -1.158121,-1.75708 z" style="opacity:1;fill:#ffd42a;fill-opacity:0.98431373;fill-rule:nonzero;stroke:#b8860b;stroke-width:0.62443608;stroke-linecap:butt;stroke-linejoin:round;stroke-miterlimit:4;stroke-dasharray:none;stroke-dashoffset:0;stroke-opacity:0.98431373"/>
      <path style="opacity:1;fill:#ffd42a;fill-opacity:0.98431373;fill-rule:nonzero;stroke:#b8860b;stroke-width:0.62443608;stroke-linecap:butt;stroke-linejoin:round;stroke-miterlimit:4;stroke-dasharray:none;stroke-dashoffset:0;stroke-opacity:0.98431373" d="m 50.244418,63.295234 c -0.721835,0.05006 -1.378721,0.625186 -2.09304,0.748469 -0.642658,0.176039 -1.310458,0.207091 -1.915017,0.64869 -0.327292,0.303211 -0.531769,0.917844 -0.629855,1.560512 -0.06582,0.446675 0.01964,0.940039 0.200658,1.280565 0.406753,0.927956 1.074129,1.350785 1.68333,1.278361 1.001123,-9.76e-4 1.981497,-0.356837 2.923238,-0.877644 0.625012,-0.415975 1.016794,-1.641378 0.988807,-2.881874 -0.08618,-0.990184 -0.609765,-1.882736 -1.158121,-1.757079 z" id="path2277"/>
      <path id="path2279" d="m 50.035834,86.399344 c -0.721835,0.05006 -1.378721,0.625186 -2.09304,0.748469 -0.642658,0.176039 -1.310458,0.207091 -1.915017,0.64869 -0.327292,0.303211 -0.531769,0.917844 -0.629855,1.560512 -0.06582,0.446675 0.01964,0.940039 0.200658,1.280565 0.406753,0.927956 1.074129,1.350785 1.68333,1.278361 1.001123,-9.76e-4 1.981497,-0.356837 2.923238,-0.877644 0.625012,-0.415975 1.016794,-1.641378 0.988807,-2.881874 -0.08618,-0.990184 -0.609765,-1.882736 -1.158121,-1.757079 z" style="opacity:1;fill:#ffd42a;fill-opacity:0.98431373;fill-rule:nonzero;stroke:#b8860b;stroke-width:0.62443608;stroke-linecap:butt;stroke-linejoin:round;stroke-miterlimit:4;stroke-dasharray:none;stroke-dashoffset:0;stroke-opacity:0.98431373"/>
    </g>
    <g transform="translate(132.04232)" id="g3220">
      <path id="path3208" d="m 48.161669,46.657464 c -1.068893,0 -1.929599,1.449403 -1.929599,3.249414 v 76.432032 c 0,0.15909 0.860708,0.28731 1.929599,0.28731 1.068892,0 1.929082,-0.12822 1.929082,-0.28731 V 49.906878 c 0,-1.800011 -0.86019,-3.249414 -1.929082,-3.249414 z" style="opacity:1;fill:#ffd42a;fill-opacity:0.98431373;fill-rule:nonzero;stroke:#b8860b;stroke-width:0.62389868;stroke-linecap:butt;stroke-linejoin:round;stroke-miterlimit:4;stroke-dasharray:none;stroke-dashoffset:0;stroke-opacity:0.98431373"/>
      <path id="path3210" transform="matrix(0.26458333,0,0,0.26458333,0.97308739,-0.19755592)" d="m 167.98242,104.05078 c -28.74495,21.61048 -55.87578,82.41855 -55.56054,122.9336 0.44165,56.76297 19.68059,92.81668 40.19726,111.89062 0.75173,0.69887 1.96773,2.68672 2.89844,6.25195 1.23943,10.67387 -8.05161,8.9453 5.41406,32.46485 6.15675,10.75357 -19.05379,10.07215 6.10156,19.0957 1.23288,-8.2063 3.48834,-17.70995 1.21289,-26.67578 -1.92302,-7.57716 -0.22676,-14.68906 0.0293,-21.57031 l -0.0273,-0.0176 c 0.55683,-2.95909 1.13777,-6.3511 1.74609,-10.25977 2.76677,-2.39324 2.04546,-5.1243 0.5293,-7.18359 -29.43431,-39.97846 -8.22534,-69.4085 0.5332,-70.70899 v -53.25781 c -24.54322,-0.19115 -14.37615,-50.7526 -3.07422,-102.96289 z" style="opacity:1;fill:#ffd42a;fill-opacity:0.98431373;fill-rule:nonzero;stroke:#b8860b;stroke-width:2.5279057;stroke-linecap:butt;stroke-linejoin:round;stroke-miterlimit:4;stroke-dasharray:none;stroke-dashoffset:0;stroke-opacity:0.98431373"/>
      <path id="path3212" d="m 50.244418,53.64317 c -0.721835,0.05006 -1.378721,0.625185 -2.09304,0.748469 -0.642658,0.176039 -1.310458,0.20709 -1.915017,0.648689 -0.327292,0.303211 -0.531769,0.917844 -0.629855,1.560513 -0.06582,0.446674 0.01964,0.940038 0.200658,1.280565 0.406753,0.927956 1.074129,1.350785 1.68333,1.278361 1.001123,-9.78e-4 1.981497,-0.356836 2.923238,-0.877645 0.625012,-0.415974 1.016794,-1.641378 0.988807,-2.881873 -0.08618,-0.990186 -0.609765,-1.882737 -1.158121,-1.757079 z" style="opacity:1;fill:#ffd42a;fill-opacity:0.98431373;fill-rule:nonzero;stroke:#b8860b;stroke-width:0.62443608;stroke-linecap:butt;stroke-linejoin:round;stroke-miterlimit:4;stroke-dasharray:none;stroke-dashoffset:0;stroke-opacity:0.98431373"/>
      <path style="opacity:1;fill:#ffd42a;fill-opacity:0.98431373;fill-rule:nonzero;stroke:#b8860b;stroke-width:0.62443608;stroke-linecap:butt;stroke-linejoin:round;stroke-miterlimit:4;stroke-dasharray:none;stroke-dashoffset:0;stroke-opacity:0.98431373" d="m 50.244418,58.632796 c -0.721835,0.05007 -1.378721,0.625186 -2.09304,0.748469 -0.642658,0.176039 -1.310458,0.207092 -1.915017,0.648691 -0.327292,0.303211 -0.531769,0.917842 -0.629855,1.560512 -0.06582,0.446673 0.01964,0.940038 0.200658,1.280564 0.406753,0.927956 1.074129,1.350786 1.68333,1.278361 1.001123,-9.77e-4 1.981497,-0.356836 2.923238,-0.877644 0.625012,-0.415974 1.016794,-1.641377 0.988807,-2.881873 -0.08618,-0.990185 -0.609765,-1.882737 -1.158121,-1.75708 z" id="path3214"/>
      <path id="path3216" d="m 50.244418,63.295234 c -0.721835,0.05006 -1.378721,0.625186 -2.09304,0.748469 -0.642658,0.176039 -1.310458,0.207091 -1.915017,0.64869 -0.327292,0.303211 -0.531769,0.917844 -0.629855,1.560512 -0.06582,0.446675 0.01964,0.940039 0.200658,1.280565 0.406753,0.927956 1.074129,1.350785 1.68333,1.278361 1.001123,-9.76e-4 1.981497,-0.356837 2.923238,-0.877644 0.625012,-0.415975 1.016794,-1.641378 0.988807,-2.881874 -0.08618,-0.990184 -0.609765,-1.882736 -1.158121,-1.757079 z" style="opacity:1;fill:#ffd42a;fill-opacity:0.98431373;fill-rule:nonzero;stroke:#b8860b;stroke-width:0.62443608;stroke-linecap:butt;stroke-linejoin:round;stroke-miterlimit:4;stroke-dasharray:none;stroke-dashoffset:0;stroke-opacity:0.98431373"/>
      <path style="opacity:1;fill:#ffd42a;fill-opacity:0.98431373;fill-rule:nonzero;stroke:#b8860b;stroke-width:0.62443608;stroke-linecap:butt;stroke-linejoin:round;stroke-miterlimit:4;stroke-dasharray:none;stroke-dashoffset:0;stroke-opacity:0.98431373" d="m 50.035834,86.399344 c -0.721835,0.05006 -1.378721,0.625186 -2.09304,0.748469 -0.642658,0.176039 -1.310458,0.207091 -1.915017,0.64869 -0.327292,0.303211 -0.531769,0.917844 -0.629855,1.560512 -0.06582,0.446675 0.01964,0.940039 0.200658,1.280565 0.406753,0.927956 1.074129,1.350785 1.68333,1.278361 1.001123,-9.76e-4 1.981497,-0.356837 2.923238,-0.877644 0.625012,-0.415975 1.016794,-1.641378 0.988807,-2.881874 -0.08618,-0.990184 -0.609765,-1.882736 -1.158121,-1.757079 z" id="path3218"/>
    </g>
    <g id="g3674"/>
    <g transform="matrix(-1,0,0,1,212.85303,0)" id="g3684"/>
    <path id="path4024" d="m 1.7205271,162.22211 h 7.416398 l 6.8538049,-8.06403 6.853811,8.06403 h 16.519783 l 6.853807,-8.06404 6.853806,8.06404 h 16.680585 l 6.853806,-8.06404 6.853806,8.06404 h 16.112575 l 6.853801,-8.06404 6.85381,8.06404 h 16.11257 l 6.8538,-8.06404 6.85382,8.06404 h 16.68058 l 6.8538,-7.31799 6.85382,7.31799 h 16.51978 l 6.8538,-8.06404 6.85381,8.06404 h 7.4164" style="opacity:1;fill:none;fill-opacity:0.98431373;fill-rule:evenodd;stroke:#1f679e;stroke-width:1.58749998;stroke-linecap:butt;stroke-linejoin:round;stroke-miterlimit:4;stroke-dasharray:none;stroke-dashoffset:0;stroke-opacity:0.98431373"/>
    <path transform="matrix(0.26458333,0,0,0.26458333,0.97308739,-0.19755592)" id="path1085" d="m 390.06445,701.65625 v 144.00977 c -3.86642,-0.37599 -7.25224,-1.01154 -9.54297,-1.88477 -2.68289,-0.55812 -3.44554,-3.70823 -6.08203,-4.43945 -0.54507,-0.16479 -1.10026,-0.32302 -1.67773,-0.31055 -4.07565,0.22564 -6.38365,4.35333 -7.60156,7.77539 -2.28498,7.07754 -2.13105,15.1491 1.13476,21.90039 1.44398,3.11528 5.00833,6.40798 8.63281,4.60938 2.36089,-0.97078 3.1755,-3.82735 5.79883,-4.3086 2.59591,-0.77891 5.8432,-1.3204 9.33789,-1.65234 v 284.04293 h 17 V 867.35156 c 3.76398,0.363 7.06958,0.97281 9.33789,1.81446 2.62334,0.48124 3.43795,3.33782 5.79883,4.30859 3.62449,1.79856 7.18885,-1.4941 8.63281,-4.60938 3.26582,-6.75129 3.41976,-14.82284 1.13477,-21.90039 -1.21791,-3.42206 -3.52591,-7.54975 -7.60156,-7.77539 -0.57748,-0.0113 -1.13265,0.14576 -1.67774,0.31055 -2.63648,0.73123 -3.39913,3.88133 -6.08203,4.43945 -2.63437,0.82272 -5.96012,1.38854 -9.54297,1.73047 V 701.65625 Z" style="color:#000000;font-style:normal;font-variant:normal;font-weight:normal;font-stretch:normal;font-size:medium;line-height:normal;font-family:sans-serif;font-variant-ligatures:normal;font-variant-position:normal;font-variant-caps:normal;font-variant-numeric:normal;font-variant-alternates:normal;font-feature-settings:normal;text-indent:0;text-align:start;text-decoration:none;text-decoration-line:none;text-decoration-style:solid;text-decoration-color:#000000;letter-spacing:normal;word-spacing:normal;text-transform:none;writing-mode:lr-tb;direction:ltr;text-orientation:mixed;dominant-baseline:auto;baseline-shift:baseline;text-anchor:start;white-space:normal;shape-padding:0;clip-rule:nonzero;display:inline;overflow:visible;visibility:visible;opacity:1;isolation:auto;mix-blend-mode:normal;color-interpolation:sRGB;color-interpolation-filters:linearRGB;solid-color:#000000;solid-opacity:1;vector-effect:none;fill:#ffffff;fill-opacity:0.98431373;fill-rule:evenodd;stroke:none;stroke-width:17;stroke-linecap:butt;stroke-linejoin:round;stroke-miterlimit:4;stroke-dasharray:none;stroke-dashoffset:0;stroke-opacity:1;color-rendering:auto;image-rendering:auto;shape-rendering:auto;text-rendering:auto;enable-background:accumulate"/>
    <g transform="translate(0.33255882)" id="g1668">
      <g id="g1650">
        <path style="opacity:1;fill:#ffffff;fill-opacity:0.98431373;fill-rule:evenodd;stroke:#000000;stroke-width:0.26458332;stroke-linecap:butt;stroke-linejoin:round;stroke-miterlimit:4;stroke-dasharray:none;stroke-dashoffset:0;stroke-opacity:0.98431373" d="m 84.304151,205.8383 c 2.813471,0.21924 2.966001,5.2064 6.127793,5.2064 3.161789,0 1.378566,-3.97207 3.439064,-3.99097 2.060501,-0.0189 0.612296,2.82608 2.185398,3.6959 1.597628,0.88338 4.572884,0.47362 5.475114,1.72702 -0.90223,1.2534 -3.877486,0.84313 -5.475114,1.72651 -1.573102,0.86982 -0.124897,3.71535 -2.185398,3.69642 -2.060498,-0.0189 -0.277275,-3.99097 -3.439064,-3.99097 -3.161792,0 -3.314322,4.98716 -6.127793,5.2064 -0.768429,-2.57428 0.154348,-4.91105 -3.233912,-5.18108 l -2.459797,0.7276 v -4.36976 l 2.459797,0.72761 c 3.38826,-0.27003 2.465483,-2.6068 3.233912,-5.18108 z" id="path973"/>
        <path style="opacity:1;fill:#ffffff;fill-opacity:0.98431373;fill-rule:evenodd;stroke:#000000;stroke-width:0.26458332;stroke-linecap:butt;stroke-linejoin:round;stroke-miterlimit:4;stroke-dasharray:none;stroke-dashoffset:0;stroke-opacity:0.98431373" d="m 75.626432,210.04334 h -3.43915 l -6.1745,-4.36732 v 13.88006 l 6.1745,-3.99083 h 3.43915 z" id="path977"/>
        <ellipse transform="scale(-1,1)" style="opacity:1;fill:#ffffff;fill-opacity:0.98431373;fill-rule:evenodd;stroke:#000000;stroke-width:0.26458332;stroke-linecap:butt;stroke-linejoin:round;stroke-miterlimit:4;stroke-dasharray:none;stroke-dashoffset:0;stroke-opacity:0.98431373" id="ellipse975" cx="-76.94767" cy="212.98" rx="1.813189" ry="3.8007915"/>
      </g>
      <g id="g1658" transform="matrix(-1,0,0,1,212.18792,0)">
        <path id="path1652" d="m 84.304151,205.8383 c 2.813471,0.21924 2.966001,5.2064 6.127793,5.2064 3.161789,0 1.378566,-3.97207 3.439064,-3.99097 2.060501,-0.0189 0.612296,2.82608 2.185398,3.6959 1.597628,0.88338 4.572884,0.47362 5.475114,1.72702 -0.90223,1.2534 -3.877486,0.84313 -5.475114,1.72651 -1.573102,0.86982 -0.124897,3.71535 -2.185398,3.69642 -2.060498,-0.0189 -0.277275,-3.99097 -3.439064,-3.99097 -3.161792,0 -3.314322,4.98716 -6.127793,5.2064 -0.768429,-2.57428 0.154348,-4.91105 -3.233912,-5.18108 l -2.459797,0.7276 v -4.36976 l 2.459797,0.72761 c 3.38826,-0.27003 2.465483,-2.6068 3.233912,-5.18108 z" style="opacity:1;fill:#ffffff;fill-opacity:0.98431373;fill-rule:evenodd;stroke:#000000;stroke-width:0.26458332;stroke-linecap:butt;stroke-linejoin:round;stroke-miterlimit:4;stroke-dasharray:none;stroke-dashoffset:0;stroke-opacity:0.98431373"/>
        <path id="path1654" d="m 75.626432,210.04334 h -3.43915 l -6.1745,-4.36732 v 13.88006 l 6.1745,-3.99083 h 3.43915 z" style="opacity:1;fill:#ffffff;fill-opacity:0.98431373;fill-rule:evenodd;stroke:#000000;stroke-width:0.26458332;stroke-linecap:butt;stroke-linejoin:round;stroke-miterlimit:4;stroke-dasharray:none;stroke-dashoffset:0;stroke-opacity:0.98431373"/>
        <ellipse ry="3.8007915" rx="1.813189" cy="212.98" cx="-76.94767" id="ellipse1656" style="opacity:1;fill:#ffffff;fill-opacity:0.98431373;fill-rule:evenodd;stroke:#000000;stroke-width:0.26458332;stroke-linecap:butt;stroke-linejoin:round;stroke-miterlimit:4;stroke-dasharray:none;stroke-dashoffset:0;stroke-opacity:0.98431373" transform="scale(-1,1)"/>
      </g>
    </g>
    <g id="g1686" transform="translate(0.33255882,27.50741)">
      <g id="g1676">
        <path id="path1670" d="m 84.304151,205.8383 c 2.813471,0.21924 2.966001,5.2064 6.127793,5.2064 3.161789,0 1.378566,-3.97207 3.439064,-3.99097 2.060501,-0.0189 0.612296,2.82608 2.185398,3.6959 1.597628,0.88338 4.572884,0.47362 5.475114,1.72702 -0.90223,1.2534 -3.877486,0.84313 -5.475114,1.72651 -1.573102,0.86982 -0.124897,3.71535 -2.185398,3.69642 -2.060498,-0.0189 -0.277275,-3.99097 -3.439064,-3.99097 -3.161792,0 -3.314322,4.98716 -6.127793,5.2064 -0.768429,-2.57428 0.154348,-4.91105 -3.233912,-5.18108 l -2.459797,0.7276 v -4.36976 l 2.459797,0.72761 c 3.38826,-0.27003 2.465483,-2.6068 3.233912,-5.18108 z" style="opacity:1;fill:#ffffff;fill-opacity:0.98431373;fill-rule:evenodd;stroke:#000000;stroke-width:0.26458332;stroke-linecap:butt;stroke-linejoin:round;stroke-miterlimit:4;stroke-dasharray:none;stroke-dashoffset:0;stroke-opacity:0.98431373"/>
        <path id="path1672" d="m 75.626432,210.04334 h -3.43915 l -6.1745,-4.36732 v 13.88006 l 6.1745,-3.99083 h 3.43915 z" style="opacity:1;fill:#ffffff;fill-opacity:0.98431373;fill-rule:evenodd;stroke:#000000;stroke-width:0.26458332;stroke-linecap:butt;stroke-linejoin:round;stroke-miterlimit:4;stroke-dasharray:none;stroke-dashoffset:0;stroke-opacity:0.98431373"/>
        <ellipse ry="3.8007915" rx="1.813189" cy="212.98" cx="-76.94767" id="ellipse1674" style="opacity:1;fill:#ffffff;fill-opacity:0.98431373;fill-rule:evenodd;stroke:#000000;stroke-width:0.26458332;stroke-linecap:butt;stroke-linejoin:round;stroke-miterlimit:4;stroke-dasharray:none;stroke-dashoffset:0;stroke-opacity:0.98431373" transform="scale(-1,1)"/>
      </g>
      <g transform="matrix(-1,0,0,1,212.18792,0)" id="g1684">
        <path style="opacity:1;fill:#ffffff;fill-opacity:0.98431373;fill-rule:evenodd;stroke:#000000;stroke-width:0.26458332;stroke-linecap:butt;stroke-linejoin:round;stroke-miterlimit:4;stroke-dasharray:none;stroke-dashoffset:0;stroke-opacity:0.98431373" d="m 84.304151,205.8383 c 2.813471,0.21924 2.966001,5.2064 6.127793,5.2064 3.161789,0 1.378566,-3.97207 3.439064,-3.99097 2.060501,-0.0189 0.612296,2.82608 2.185398,3.6959 1.597628,0.88338 4.572884,0.47362 5.475114,1.72702 -0.90223,1.2534 -3.877486,0.84313 -5.475114,1.72651 -1.573102,0.86982 -0.124897,3.71535 -2.185398,3.69642 -2.060498,-0.0189 -0.277275,-3.99097 -3.439064,-3.99097 -3.161792,0 -3.314322,4.98716 -6.127793,5.2064 -0.768429,-2.57428 0.154348,-4.91105 -3.233912,-5.18108 l -2.459797,0.7276 v -4.36976 l 2.459797,0.72761 c 3.38826,-0.27003 2.465483,-2.6068 3.233912,-5.18108 z" id="path1678"/>
        <path style="opacity:1;fill:#ffffff;fill-opacity:0.98431373;fill-rule:evenodd;stroke:#000000;stroke-width:0.26458332;stroke-linecap:butt;stroke-linejoin:round;stroke-miterlimit:4;stroke-dasharray:none;stroke-dashoffset:0;stroke-opacity:0.98431373" d="m 75.626432,210.04334 h -3.43915 l -6.1745,-4.36732 v 13.88006 l 6.1745,-3.99083 h 3.43915 z" id="path1680"/>
        <ellipse transform="scale(-1,1)" style="opacity:1;fill:#ffffff;fill-opacity:0.98431373;fill-rule:evenodd;stroke:#000000;stroke-width:0.26458332;stroke-linecap:butt;stroke-linejoin:round;stroke-miterlimit:4;stroke-dasharray:none;stroke-dashoffset:0;stroke-opacity:0.98431373" id="ellipse1682" cx="-76.94767" cy="212.98" rx="1.813189" ry="3.8007915"/>
      </g>
    </g>
    <g transform="translate(0.15776577)" id="g1715">
      <ellipse style="opacity:1;fill:#000000;fill-opacity:1;fill-rule:evenodd;stroke:none;stroke-width:0.8524875;stroke-linecap:butt;stroke-linejoin:round;stroke-miterlimit:4;stroke-dasharray:none;stroke-dashoffset:0;stroke-opacity:1" id="path1701" cx="99.913185" cy="226.40564" rx="1.5099647" ry="1.5191693"/>
      <ellipse ry="1.5191693" rx="1.5099647" cy="226.40564" cx="112.62432" id="ellipse1711" style="opacity:1;fill:#000000;fill-opacity:1;fill-rule:evenodd;stroke:none;stroke-width:0.8524875;stroke-linecap:butt;stroke-linejoin:round;stroke-miterlimit:4;stroke-dasharray:none;stroke-dashoffset:0;stroke-opacity:1"/>
    </g>
    <g id="g2567" style="fill:#ffffff;fill-rule:evenodd;stroke:none;stroke-width:1;stroke-linecap:butt;stroke-linejoin:miter;stroke-dasharray:none" transform="matrix(0.35277778,0,0,0.35277778,-278.35795,23.276846)">
      <path id="path2565" d="m 0,0 c 0,0 457.841,0 457.841,0 0,0 0,423.523 0,423.523 0,0 -0.21,4.395 -0.21,4.395 0,0 -0.209,4.393 -0.209,4.393 0,0 -0.418,4.395 -0.418,4.395 0,0 -0.628,4.394 -0.628,4.394 0,0 -0.838,4.185 -0.838,4.185 0,0 -1.046,3.976 -1.046,3.976 0,0 -1.255,4.185 -1.255,4.185 0,0 -1.465,3.767 -1.465,3.767 0,0 -1.465,3.975 -1.465,3.975 0,0 -1.883,3.558 -1.883,3.558 0,0 -1.883,3.766 -1.883,3.766 0,0 -2.093,3.348 -2.093,3.348 0,0 -2.302,3.348 -2.302,3.348 0,0 -2.72,3.348 -2.72,3.348 0,0 -2.72,2.93 -2.72,2.93 0,0 -2.72,2.93 -2.72,2.93 0,0 -3.14,2.719 -3.14,2.719 0,0 -3.347,2.72 -3.347,2.72 0,0 -3.348,2.303 -3.348,2.303 0,0 -3.767,2.511 -3.767,2.511 0,0 -3.766,1.882 -3.766,1.882 0,0 -3.767,2.093 -3.767,2.093 0,0 -4.184,1.674 -4.184,1.674 0,0 -4.186,1.674 -4.186,1.674 0,0 -4.394,1.256 -4.394,1.256 0,0 -4.604,1.256 -4.604,1.256 0,0 -4.603,1.254 -4.603,1.254 0,0 -4.813,0.837 -4.813,0.837 0,0 -5.021,0.628 -5.021,0.628 0,0 -5.232,0.419 -5.232,0.419 0,0 -5.231,0.209 -5.231,0.209 0,0 -5.441,0.209 -5.441,0.209 0,0 -51.894,0 -51.894,0 0,0 -3.557,0 -3.557,0 0,0 -3.349,0.209 -3.349,0.209 0,0 -3.347,0 -3.347,0 0,0 -3.349,0.419 -3.349,0.419 0,0 -3.138,0.209 -3.138,0.209 0,0 -3.139,0.419 -3.139,0.419 0,0 -2.93,0.419 -2.93,0.419 0,0 -2.93,0.627 -2.93,0.627 0,0 -2.928,0.628 -2.928,0.628 0,0 -2.721,0.628 -2.721,0.628 0,0 -2.72,0.628 -2.72,0.628 0,0 -2.72,0.837 -2.72,0.837 0,0 -2.721,0.837 -2.721,0.837 0,0 -2.511,0.837 -2.511,0.837 0,0 -2.302,0.836 -2.302,0.836 0,0 -2.51,1.046 -2.51,1.046 0,0 -2.302,1.047 -2.302,1.047 0,0 -2.302,1.046 -2.302,1.046 0,0 -2.302,1.047 -2.302,1.047 0,0 -2.092,1.255 -2.092,1.255 0,0 -2.093,1.256 -2.093,1.256 0,0 -2.092,1.255 -2.092,1.255 0,0 -2.093,1.255 -2.093,1.255 0,0 -2.092,1.256 -2.092,1.256 0,0 -1.883,1.465 -1.883,1.465 0,0 -1.884,1.465 -1.884,1.465 0,0 -1.883,1.464 -1.883,1.464 0,0 -1.674,1.465 -1.674,1.465 0,0 -1.884,1.465 -1.884,1.465 0,0 -1.673,1.464 -1.673,1.464 0,0 -1.883,1.674 -1.883,1.674 0,0 -7.324,7.324 -7.324,7.324 0,0 -7.325,-7.324 -7.325,-7.324 0,0 -1.882,-1.674 -1.882,-1.674 0,0 -1.674,-1.464 -1.674,-1.464 0,0 -1.884,-1.465 -1.884,-1.465 0,0 -1.674,-1.465 -1.674,-1.465 0,0 -1.883,-1.464 -1.883,-1.464 0,0 -1.883,-1.465 -1.883,-1.465 0,0 -2.092,-1.465 -2.092,-1.465 0,0 -1.884,-1.256 -1.884,-1.256 0,0 -2.093,-1.255 -2.093,-1.255 0,0 -2.092,-1.255 -2.092,-1.255 0,0 -2.092,-1.256 -2.092,-1.256 0,0 -2.093,-1.255 -2.093,-1.255 0,0 -2.302,-1.047 -2.302,-1.047 0,0 -2.302,-1.046 -2.302,-1.046 0,0 -2.301,-1.047 -2.301,-1.047 0,0 -2.511,-1.046 -2.511,-1.046 0,0 -2.511,-0.836 -2.511,-0.836 0,0 -2.512,-0.837 -2.512,-0.837 0,0 -2.51,-0.837 -2.51,-0.837 0,0 -2.721,-0.837 -2.721,-0.837 0,0 -2.72,-0.628 -2.72,-0.628 0,0 -2.721,-0.628 -2.721,-0.628 0,0 -2.928,-0.628 -2.928,-0.628 0,0 -2.93,-0.627 -2.93,-0.627 0,0 -3.139,-0.419 -3.139,-0.419 0,0 -2.929,-0.419 -2.929,-0.419 0,0 -3.139,-0.209 -3.139,-0.209 0,0 -3.348,-0.419 -3.348,-0.419 0,0 -3.348,0 -3.348,0 0,0 -3.558,-0.209 -3.558,-0.209 0,0 -3.556,0 -3.556,0 0,0 -51.6857,0 -51.6857,0 0,0 -5.4405,-0.209 -5.4405,-0.209 0,0 -5.2314,-0.209 -5.2314,-0.209 0,0 -5.2305,-0.419 -5.2305,-0.419 0,0 -5.0224,-0.628 -5.0224,-0.628 0,0 -4.8125,-0.837 -4.8125,-0.837 0,0 -4.6036,-1.254 -4.6036,-1.254 0,0 -4.6035,-1.256 -4.6035,-1.256 0,0 -4.3945,-1.256 -4.3945,-1.256 0,0 -4.1846,-1.674 -4.1846,-1.674 0,0 -4.1855,-1.674 -4.1855,-1.674 0,0 -3.9756,-2.093 -3.9756,-2.093 0,0 -3.7666,-1.882 -3.7666,-1.882 0,0 -3.5576,-2.511 -3.5576,-2.511 0,0 -3.3477,-2.303 -3.3477,-2.303 0,0 -3.3476,-2.72 -3.3476,-2.72 0,0 -2.9297,-2.719 -2.9297,-2.719 0,0 -2.9297,-2.93 -2.9297,-2.93 0,0 -2.7207,-2.93 -2.7207,-2.93 0,0 -2.5108,-3.348 -2.5108,-3.348 0,0 -2.5107,-3.348 -2.5107,-3.348 0,0 -2.0928,-3.348 -2.0928,-3.348 0,0 -1.88278,-3.766 -1.88278,-3.766 0,0 -1.88379,-3.558 -1.88379,-3.558 0,0 -1.67383,-3.975 -1.67383,-3.975 0,0 -1.25488,-3.767 -1.25488,-3.767 0,0 -1.25586,-4.185 -1.25586,-4.185 0,0 -1.0459,-3.976 -1.0459,-3.976 0,0 -0.83789,-4.185 -0.83789,-4.185 0,0 -0.627933,-4.394 -0.627933,-4.394 0,0 -0.417968,-4.395 -0.417968,-4.395 0,0 -0.208984,-4.393 -0.208984,-4.393 C 0.208985,427.918 0,423.523 0,423.523 0,423.523 0,0 0,0 Z"/>
    </g>
    <path id="path3413" d="M 1.7205272,0.59567166 V 241.81486 c 0,8.46123 6.4119234,15.32831 14.3123288,15.32831 h 76.081329 c 7.900415,10e-6 14.312325,6.86708 14.312325,15.32831 1e-5,-8.46122 6.41193,-15.32831 14.31233,-15.32831 h 76.08133 c 7.90041,0 14.31235,-6.86708 14.31233,-15.32831 V 0.59567166 Z" style="opacity:1;fill:none;fill-opacity:1;fill-rule:nonzero;stroke:#000000;stroke-width:1.54033291;stroke-linecap:round;stroke-linejoin:round;stroke-miterlimit:4;stroke-dasharray:none;stroke-dashoffset:0;stroke-opacity:1"/>
  </g>
</svg>