<?xml version="1.0" encoding="UTF-8"?>
<!-- Generator: Adobe Illustrator 12.0.0, SVG Export Plug-In  -->
<!DOCTYPE svg PUBLIC "-//W3C//DTD SVG 1.1//EN" "http://www.w3.org/Graphics/SVG/1.1/DTD/svg11.dtd">
<svg version="1.1" xmlns="http://www.w3.org/2000/svg" xmlns:xlink="http://www.w3.org/1999/xlink" xmlns:a="http://ns.adobe.com/AdobeSVGViewerExtensions/3.0/" width="501" height="437" viewBox="-0.3779297 -0.4165039 501 437" enable-background="new -0.3779297 -0.4165039 501 437" xml:space="preserve">
<defs>
</defs>
<polygon fill-rule="evenodd" clip-rule="evenodd" fill="#FFFFFF" points="1.9209,1.91943 498.081,1.91943 498.081,434.002 1.9209,434.002 1.9209,1.91943"/>
<path fill="#0D2B88" d="M0,0h500v435.9233398H0v-1.9208984V1.9194336V0L0,0z M3.840332,3.8388672V432.081543h492.3198242V3.8388672  H3.840332L3.840332,3.8388672z"/>
<path fill-rule="evenodd" clip-rule="evenodd" fill="#FF1100" d="M166.9824219,166.3823242l3.9775391-13.7319336  c0,0-7.324707-2.1455078-6.4082031-22.284668C164.5517578,130.3657227,158.4584961,144.4121094,166.9824219,166.3823242  L166.9824219,166.3823242z"/>
<path fill-rule="evenodd" clip-rule="evenodd" d="M169.4423828,172.4750977c0,0,5.1796875,3.3476563,8.8413086,4.578125  c0,0-1.8022461,22.284668,11.2998047,33.2700195l-4.578125,1.8305664  C185.0053711,212.1538086,170.3583984,182.5444336,169.4423828,172.4750977L169.4423828,172.4750977z"/>
<path fill-rule="evenodd" clip-rule="evenodd" fill="#0D2B88" d="M179.5126953,172.7895508  c0,0,4.8925781-16.5048828,31.125-14.9609375l-3.9765625-18.3085938c0,0-22.2558594,13.7607422-32.640625,14.3608398  L179.5126953,172.7895508L179.5126953,172.7895508z"/>
<path fill-rule="evenodd" clip-rule="evenodd" fill="#0D2B88" d="M339.7109375,169.7285156l-0.3125,3.0610352l-6.0947266,0.9165039  c0,0-1.2001953-6.4077148-11.8984375-6.7231445l5.7753906-17.078125L339.7109375,169.7285156L339.7109375,169.7285156z"/>
<path fill-rule="evenodd" clip-rule="evenodd" d="M296.6865234,84.59375l14.9345703,12.2158203  c0,0-1.5009766-9.4868164,1.2998047-9.9672852l-7.0810547-5.5957031  C305.8398438,81.246582,305.2128906,84.9086914,296.6865234,84.59375L296.6865234,84.59375z"/>
<path fill-rule="evenodd" clip-rule="evenodd" fill="#FF1100" d="M225.5703125,87.6552734l16.1918945-10.0703125  c0,0-22.8461914-5.7822266-21.0541992-8.8828125l-8.3520508,2.2197266l-5.7612305,4.640625  C206.5947266,75.5625,225.2558594,75.4394531,225.5703125,87.6552734L225.5703125,87.6552734z"/>
<path fill-rule="evenodd" clip-rule="evenodd" fill="#0D2B88" d="M245.7109375,79.7314453l1.8295898,13.4165039  c0,0,23.5141602-12.5014648,47.0004883,3.9760742l-1.8291016-12.815918  C292.7119141,84.3081055,251.2021484,81.8769531,245.7109375,79.7314453L245.7109375,79.7314453z"/>
<path fill-rule="evenodd" clip-rule="evenodd" d="M229.5463867,138.9194336l-18.9086914-3.6616211  c0,0,17.3935547-23.1723633,15.2485352-42.7099609l18.9086914,3.6616211  C244.7949219,96.2094727,225.5703125,105.0478516,229.5463867,138.9194336L229.5463867,138.9194336z"/>
<path fill-rule="evenodd" clip-rule="evenodd" fill="#0D2B88" d="M267.0800781,173.1044922  c0,0-25.9194336-4.8637695-37.2192383-29.2924805l-12.815918,14.3310547c0,0,25.6318359,6.378418,36.6171875,28.9790039  L267.0800781,173.1044922L267.0800781,173.1044922z"/>
<path fill-rule="evenodd" clip-rule="evenodd" fill="#FF1100" d="M312.8496094,146.2431641l14.3310547-0.6020508  l-15.8466797-46.4003906l-13.1308594,0.9150391C298.203125,100.1557617,319.5439453,113.8876953,312.8496094,146.2431641  L312.8496094,146.2431641z"/>
<path fill-rule="evenodd" clip-rule="evenodd" d="M311.6210938,151.1352539c0,0-10.7011719,25.3447266-37.5341797,22.8852539  l3.3779297,11.2709961l11.5830078-2.4326172c0,0,19.2089844-16.0053711,28.9931641-15.690918L311.6210938,151.1352539  L311.6210938,151.1352539z"/>
<path fill-rule="evenodd" clip-rule="evenodd" fill="#0D2D89" d="M71.4931641,287.987793  c0,0,48.0595703-45.3134766,134.1098633-75.0615234c0,0,45.3134766-16.0195313,77.3530273-22.4282227  c0,0,58.5273438-10.5297852,66.3701172-10.5268555c0,0,72.1669922-6.6333008,89.6015625-1.4433594  c0,0,9.359375,1.8413086,11.2353516,3.1015625c2.5263672,1.6992188-10.0976563,2.1455078-17.7080078,3.0615234  c0,0-22.2548828,0.6005859-25.9169922,1.5151367c0,0-14.1738281,1.6821289-20.1376953,7.6391602l-7.6396484,6.4072266  l-8.5527344,0.3149414c0,0-3.0615234,0.6298828,0,1.8305664c0,0,5.1757813,1.5449219,0,2.7470703  c0,0-17.3945313,1.8310547-18.3085938,3.347168c0,0-6.1230469,1.5151367,0.9140625,5.4926758  c0,0,8.8681641,3.0615234,17.1074219,3.0615234l0.6035156,13.7324219c0,0,1.2783203,12.6318359-7.0107422,17.6787109  c0,0-7.9521484,5.8046875-23.515625,10.3828125l-40.5634766,14.9599609l-0.9160156-9.46875  c0,0-15.2783203,3.0644531-41.5078125,13.1328125c0,0-12.8173828,6.0917969-11.9013672-3.0634766l-14.6469727,4.2646484  c0,0-8.2392578,2.4580078-10.9848633-1.2011719l-7.6381836-8.2421875c0,0-2.4609375-2.4580078-9.1542969,0.2871094  l-4.8637695,1.5449219l-3.3745117-4.5771484c0,0-2.7182617-3.0585938-7.6088867-1.2265625l-9.784668,3.6591797  c0,0-20.1108398,8.2109375-31.4106445,6.0908203c0,0-7.0375977-2.4580078-8.8686523-6.4042969  c0,0-0.5712891-3.3203125-8.5239258-0.2871094c0,0-25.6621094,11.875-28.0932617,13.1015625  c0,0-22.2558594,10.3564453-25.9165039,9.15625C74.2402344,290.5668945,71.2075195,291.6518555,71.4931641,287.987793  L71.4931641,287.987793z"/>
<path fill-rule="evenodd" clip-rule="evenodd" fill="#0D2B88" d="M64.8525391,328.4731445h17.1171875l-1.6796875,8.5449219  c-2.8798828-0.1201172-5.84375-0.1201172-8.7416992-0.1201172h-8.5581055l-2.8486328,15.5605469H45.4516602  c1.8476563-6.1914063,5.9765625-24.7529297,8.2641602-39.3105469h34.8388672l-1.8154297,8.5449219  c-3.7543945-0.1201172-7.5283203-0.1201172-11.3007813-0.1201172h-9.2329102L64.8525391,328.4731445L64.8525391,328.4731445z"/>
<path fill-rule="evenodd" clip-rule="evenodd" fill="#0D2B88" d="M107.2011719,321.3999023  c-2.3608398,10.3095703-4.3271484,20.6865234-6.0917969,31.0585938H87.1606445  c3.4663086-12.1992188,5.7915039-23.5732422,8.3310547-39.3105469h23.7880859  c3.2338867,0,16.1264648,0.2919922,14.5332031,10.4287109c-0.972168,6.1904297-5.6777344,9.546875-12.3173828,11.4941406  c1.703125,5.8935547,4.1157227,11.5517578,6.0288086,17.3876953H112.565918  c-1.2514648-7.4853516-3.2792969-14.7363281-5.2319336-22.0439453c1.0517578,0.1777344,2.1782227,0.2978516,3.2558594,0.2978516  c3.9086914,0,8.7617188-1.2998047,9.4013672-5.3662109c0.6196289-3.9462891-3.894043-3.9462891-6.9946289-3.9462891H107.2011719  L107.2011719,321.3999023z"/>
<path fill-rule="evenodd" clip-rule="evenodd" fill="#0D2B88" d="M150.59375,341.1420898l-7.7084961,11.3164063h-15.4975586  c5.8666992-6.8955078,25.1044922-32.4160156,29.894043-39.3105469h16.9814453  c3.1147461,13.2001953,6.6523438,26.2871094,10.3339844,39.3105469h-14.9589844  c-0.5439453-3.8320313-1.5112305-7.5429688-2.46875-11.3164063H150.59375L150.59375,341.1420898z M166.1069336,332.8891602  l-2.4086914-11.2539063l-7.8339844,11.2539063H166.1069336L166.1069336,332.8891602z"/>
<path fill-rule="evenodd" clip-rule="evenodd" fill="#0D2B88" d="M223.9023438,338.6049805h0.1357422  c0.9291992-3.7685547,4.0625-18.5625,5.1455078-25.4570313h12.8696289  c-1.0336914,4.0087891-6.8457031,28.9960938-8.6689453,39.3105469h-16.440918  c-3.847168-8.5449219-8.7680664-16.6777344-12.2470703-24.9931641h-0.1347656  c-0.7592773,3.5390625-4.0112305,19.0996094-4.9379883,24.9931641h-12.9370117  c1.8569336-6.2480469,6.6889648-27.9941406,8.4663086-39.3105469H212L223.9023438,338.6049805L223.9023438,338.6049805z"/>
<path fill-rule="evenodd" clip-rule="evenodd" fill="#0D2B88" d="M279.9804688,352.2807617  c-4.1943359,0.5273438-8.4951172,0.8818359-12.6708984,0.8818359c-10.5810547,0-24.7944336-3.8886719-22.3774414-19.2714844  c2.2480469-14.3183594,16.1733398-21.4482422,31.3344727-21.4482422c4.0429688,0,8.0126953,0.4697266,11.8964844,1.0595703  l-0.9375,8.9570313c-3.3251953-0.7099609-6.7177734-1.4140625-10.2880859-1.4140625  c-11.3896484,0-16.9101563,6.8378906-17.8359375,12.7314453c-1.1308594,7.1875,4.1679688,10.7841797,11.8486328,10.7841797  c4.1103516,0,8.1982422-0.7099609,12.2460938-1.5927734L279.9804688,352.2807617L279.9804688,352.2807617z"/>
<path fill-rule="evenodd" clip-rule="evenodd" fill="#0D2B88" d="M333.2939453,313.1479492l-1.8505859,8.7792969  c-4.0820313-0.1777344-8.1640625-0.3544922-12.2099609-0.3544922h-9.9716797l-1.5556641,6.9003906h7.6835938  c3.7734375,0,7.4902344-0.0625,11.2802734-0.1826172l-2.0253906,8.6074219h-18.8701172l-1.5898438,7.1298828h4.4482422  c6.0654297,0,12.15625-0.1767578,18.2685547-0.4697266l-2.0039063,8.9003906h-36.7265625  c1.8261719-6.4833984,5.4833984-20.3369141,8.4658203-39.3105469H333.2939453L333.2939453,313.1479492z"/>
<path fill-rule="evenodd" clip-rule="evenodd" fill="#FF1100" d="M363.4951172,352.4584961  c6.4130859-6.0712891,21.4042969-19.5693359,22.4951172-26.5224609c0.4541016-2.8867188-1.1298828-5.2460938-4.7001953-5.2460938  c-3.640625,0-6.6787109,2.1826172-7.1201172,5.4238281c-0.5009766,2.7714844,1.6552734,4.4785156,4.6875,4.4785156  c0.9423828,0,1.8476563-0.1777344,2.7509766-0.3544922l-7.7832031,8.3671875h-2.0898438  c-5.1884766,0-12.6376953-2.7666016-11.3037109-11.2539063c1.6201172-10.3144531,12.3837891-14.9082031,22.9619141-14.9082031  c14.3544922,0,17.1240234,7.2451172,16.2158203,13.0234375c-1.4433594,9.1923828-11.9384766,19.7988281-19.0634766,26.9921875  H363.4951172L363.4951172,352.4584961z"/>
<path fill-rule="evenodd" clip-rule="evenodd" fill="#FF1100" d="M444.3847656,323.1069336  c-0.7304688,4.65625-4.1806641,7.3076172-8.8369141,9.0771484l-0.0185547,0.1152344  c4.578125,0.8876953,8.0986328,3.3613281,7.3574219,8.0751953c-0.9550781,6.0703125-7.1982422,12.7880859-22.2255859,12.7880859  c-8.0859375,0-18.0458984-2.2392578-16.6826172-10.9042969c0.8134766-5.1826172,5.4804688-8.7216797,11.0556641-9.8964844  l0.0175781-0.1201172c-3.9931641-1.5917969-6.2060547-4.2441406-5.5302734-8.5449219  c1.3515625-8.6025391,11.6738281-11.2539063,19.8271484-11.2539063  C437.4345703,312.4428711,445.7001953,314.7397461,444.3847656,323.1069336L444.3847656,323.1069336z M417.4169922,340.7866211  c-0.4726563,3.0068359,2.2128906,4.3642578,5.3789063,4.3642578c3.3691406,0,6.4101563-1.7695313,6.9003906-4.8916016  c0.4648438-2.9492188-2.0361328-4.1865234-5.1367188-4.1865234  C421.1230469,336.0727539,417.9257813,337.5454102,417.4169922,340.7866211L417.4169922,340.7866211z M421.0996094,324.6420898  c-0.4179688,2.6513672,1.7978516,4.0029297,4.6943359,4.0029297c3.4375,0,6.2646484-1.7070313,6.71875-4.5927734  c0.4277344-2.7148438-1.8818359-3.8896484-4.8466797-3.8896484  C424.3642578,320.1625977,421.5244141,321.9272461,421.0996094,324.6420898L421.0996094,324.6420898z"/>
<path fill-rule="evenodd" clip-rule="evenodd" d="M99.6425781,373.0874023h5.4194336  c0.7441406,5.4443359,1.6381836,10.8574219,2.6464844,16.2441406c1.9379883-2.21875,3.8486328-4.4628906,5.6586914-6.7392578  c-0.4423828-3.1943359-1.0351563-6.3632813-1.6733398-9.5048828h5.2070313l0.4291992,5.0107422h0.0703125l3.9921875-5.0107422  h4.8505859l-7.8598633,9.2753906c0.3222656,2.3017578,0.715332,4.609375,1.1577148,6.8535156  c4.5751953-5.3291016,9.0576172-10.7109375,13.440918-16.1289063h5.3842773l-16.6748047,19.2089844h-6.4189453  c-0.1855469-1.8691406-0.4423828-3.7431641-0.7768555-5.5859375c-1.590332,1.8427734-3.152832,3.7167969-4.6074219,5.5859375  h-6.453125L99.6425781,373.0874023L99.6425781,373.0874023z"/>
<path fill-rule="evenodd" clip-rule="evenodd" d="M170.8164063,382.3051758  c-1.7939453,6.828125-8.4951172,10.3408203-16.5532227,10.3408203c-7.2021484,0-12.3828125-3.0849609-10.7382813-9.3330078  c1.8095703-6.8847656,8.6972656-10.5703125,16.8637695-10.5703125  C167.6977539,372.7426758,172.4609375,376.0571289,170.8164063,382.3051758L170.8164063,382.3051758z M148.96875,383.0834961  c-1.0371094,3.9453125,1.4619141,6.5087891,6.3476563,6.5087891c5.2773438,0,9.0185547-3.1113281,10.09375-7.203125  c1.0073242-3.8261719-1.1181641-6.5927734-6.0039063-6.5927734  C154.0581055,375.7963867,150.0678711,378.9067383,148.96875,383.0834961L148.96875,383.0834961z"/>
<path fill-rule="evenodd" clip-rule="evenodd" d="M197.3920898,392.2963867h-5.7402344  c-0.7490234-3.6542969-2.1235352-7.109375-3.3032227-10.6230469c0.6904297,0.0839844,1.3808594,0.1728516,2.0947266,0.1728516  c2.7089844,0,5.5341797-0.9814453,6.1777344-3.4296875c0.5908203-2.2441406-1.871582-2.5058594-4.0117188-2.5058594  c-1.2841797,0-2.5473633,0.0576172-3.8535156,0.1464844c-0.7646484,2.5058594-4.0478516,13.3632813-4.8413086,16.2392578h-5.3842773  c2.4584961-6.3632813,4.3964844-12.7841797,6.121582-19.2089844h10.7319336c4.1367188,0,7.4267578,1.1796875,6.4804688,4.78125  c-0.8862305,3.3720703-4.1064453,5.0419922-8.0449219,5.6474609L197.3920898,392.2963867L197.3920898,392.2963867z"/>
<path fill-rule="evenodd" clip-rule="evenodd" d="M224.7729492,392.2963867h-16.6499023  c2.4648438-6.3896484,4.4667969-12.7841797,6.2636719-19.2089844h5.5615234  c-0.5883789,1.7011719-4.1352539,12.4697266-5.2470703,16.1601563h4.3144531c2.2822266,0,4.5644531,0,6.8339844-0.0888672  L224.7729492,392.2963867L224.7729492,392.2963867z"/>
<path fill-rule="evenodd" clip-rule="evenodd" d="M251.9619141,373.0874023c6.0615234,0,10.28125,2.390625,8.6064453,8.7587891  c-1.5664063,5.9609375-6.8857422,10.4501953-16.1191406,10.4501953h-10.269043  c1.1445313-2.9912109,4.0991211-11.5205078,6.121582-19.2089844H251.9619141L251.9619141,373.0874023z M240.4023438,389.2475586  h3.815918c7.1303711,0,10.2895508-3.7480469,11.2680664-7.4589844c0.6894531-2.6201172,0.09375-5.6474609-4.8984375-5.6474609  h-6.0620117L240.4023438,389.2475586L240.4023438,389.2475586z"/>
<path fill-rule="evenodd" clip-rule="evenodd" d="M310.6181641,376.6049805  c-1.7070313-0.4326172-3.4970703-0.8085938-5.4228516-0.8085938c-5.4179688,0-10.1474609,2.7919922-11.3300781,7.2871094  c-1.0957031,4.1757813,1.6757813,6.5087891,6.7392578,6.5087891c2.1035156,0,4.3056641-0.3759766,6.4228516-0.8349609  L305.5,392.1235352c-2.1425781,0.2871094-4.3056641,0.5224609-6.5527344,0.5224609  c-6.9892578,0-12.1708984-3.0849609-10.5263672-9.3330078c1.8085938-6.8847656,8.6992188-10.5703125,16.8632813-10.5703125  c2.0332031,0,4.0419922,0.2294922,5.9892578,0.5478516L310.6181641,376.6049805L310.6181641,376.6049805z"/>
<path fill-rule="evenodd" clip-rule="evenodd" d="M345.0224609,373.0874023  c-0.4355469,1.2421875-2.9697266,8.4404297-4.1337891,12.4697266c-0.6708984,2.2763672-2.7568359,7.0888672-13.3476563,7.0888672  c-7.7353516,0-9.9824219-2.8554688-9.1865234-5.8779297c0.6962891-2.6464844,2.6308594-7.4277344,4.4160156-13.6806641h5.4208984  c-1.0283203,2.9697266-3.3466797,9.4785156-3.9833984,11.8955078c-0.8193359,3.1113281,0.4648438,4.609375,4.3847656,4.609375  c4.3505859,0,6.1806641-2.0722656,7.2792969-5.2978516c1.3574219-3.9462891,2.6669922-7.5800781,3.6591797-11.2070313H345.0224609  L345.0224609,373.0874023z"/>
<path fill-rule="evenodd" clip-rule="evenodd" d="M359.9853516,381.4125977  c0.6552734,0.0839844,1.2783203,0.140625,1.9570313,0.140625c3.28125,0,5.2675781-1.1796875,5.828125-3.3085938  c0.4833984-1.8427734-0.6337891-2.3339844-3.1318359-2.3339844c-1.28125,0-2.546875,0.0576172-3.8525391,0.1464844  c-0.6259766,1.8427734-3.6113281,11.4316406-4.8779297,16.2392578h-5.1699219  c1.3701172-3.3095703,4.7841797-14.3964844,6.0498047-19.2089844h11.3037109c4.7050781,0,5.3369141,3.0273438,4.8076172,5.0419922  c-1.0595703,4.0292969-5.5302734,6.2480469-10.2363281,6.2480469c-0.8564453,0-1.6962891-0.0576172-2.5576172-0.171875  L359.9853516,381.4125977L359.9853516,381.4125977z"/>
<polygon fill="#0D2B88" points="44.8276,360.617 442.286,360.617 442.286,363.499 44.8276,363.499 44.8276,360.617"/>
<path d="M341.2431641,172.1870117c1.9550781-6.0161133,1.8632813-18.3154297,1.8632813-18.3505859v-0.0087891  c0-24.9770508-10.1230469-47.5898438-26.4902344-63.956543c-16.3691406-16.3681641-38.9824219-26.4916992-63.9580078-26.4916992  c-24.9750977,0-47.5874023,10.1235352-63.9555664,26.4916992c-16.3681641,16.3666992-26.4921875,38.9794922-26.4921875,63.956543  v0.1499023c-0.0063477,0.1005859-2.4375,34.9155273,13.9941406,57.8842773l-3.9013672,2.7753906  c-17.4501953-24.3935547-14.9003906-60.8540039-14.8935547-60.9599609v0.1503906  c0-26.3017578,10.6611328-50.1147461,27.8984375-67.3505859c17.2358398-17.2373047,41.0488281-27.8974609,67.3500977-27.8974609  c26.3017578,0,50.1152344,10.6601563,67.3505859,27.8974609c17.2363281,17.234375,27.8974609,41.0424805,27.8974609,67.3413086  c0,0,0,0.0048828,0,0.0092773v-0.0092773c0,0.0024414,0,0.0063477,0,0.0092773  c0.0029297,0.3505859,0.0732422,13.140625-2.1064453,19.840332L341.2431641,172.1870117L341.2431641,172.1870117z"/>
</svg>