<svg id="svg5494" xmlns:rdf="http://www.w3.org/1999/02/22-rdf-syntax-ns#" xmlns="http://www.w3.org/2000/svg" height="898.46" width="718.6" version="1.1" xmlns:cc="http://creativecommons.org/ns#" xmlns:xlink="http://www.w3.org/1999/xlink" xmlns:dc="http://purl.org/dc/elements/1.1/">

<defs id="defs5496">

<linearGradient id="linearGradient3711">

<stop id="stop3714" stop-color="#d7df23" offset="0"/>

<stop id="stop3716" stop-color="#002c00" offset="0.3649"/>

<stop id="stop3718" stop-color="#003f00" offset="1"/>

</linearGradient>

<linearGradient id="linearGradient3673">

<stop id="stop3675" stop-color="#d7df23" offset="0"/>

<stop id="stop3677" stop-color="#94bf00" offset="0.25772"/>

<stop id="stop3679" stop-color="#005d00" offset="1"/>

</linearGradient>

<radialGradient id="radialGradient3663" gradientUnits="userSpaceOnUse" cy="655.76" cx="256.16" gradientTransform="matrix(1.6397556,1.0212328,-0.75419829,1.2109883,330.69333,-428.47255)" r="47.959">

<stop id="stop3729" stop-color="#d7df23" offset="0"/>

<stop id="stop3731" stop-color="#94bf00" offset="0.34685"/>

<stop id="stop3733" stop-color="#005d00" offset="1"/>

</radialGradient>

<radialGradient id="radialGradient3671" gradientUnits="userSpaceOnUse" cy="591.73" cx="421.98" gradientTransform="matrix(1.3803099,0.43281729,-0.34888867,1.1126507,57.705739,-244.55334)" r="120.46">

<stop id="stop3721" stop-color="#d7df23" offset="0"/>

<stop id="stop3723" stop-color="#94bf00" offset="0.5226"/>

<stop id="stop3725" stop-color="#005d00" offset="1"/>

</radialGradient>

<radialGradient id="radialGradient3699" gradientUnits="userSpaceOnUse" cy="409.96" cx="427.89" gradientTransform="matrix(0.51655477,-0.77448106,1.1196136,0.74674746,-262.10009,426.6183)" r="167.52">

<stop id="stop3695" stop-color="#fff200" offset="0"/>

<stop id="stop3709" stop-color="#ffe700" offset="0.44886"/>

<stop id="stop3713" stop-color="#fcc20e" offset="0.70179"/>

<stop id="stop3711" stop-color="#f99d1c" offset="1"/>

</radialGradient>

<radialGradient id="radialGradient3789" gradientUnits="userSpaceOnUse" cy="593.47" cx="416.43" gradientTransform="matrix(1.611973,0.61057562,-0.47772449,1.2612348,28.674862,-409.29617)" r="120.46">

<stop id="stop3775" stop-color="#d7df23" offset="0"/>

<stop id="stop3777" stop-color="#002c00" offset="0.96086"/>

<stop id="stop3779" stop-color="#003f00" offset="1"/>

</radialGradient>

<radialGradient id="radialGradient3791" gradientUnits="userSpaceOnUse" cy="664.36" cx="261.15" gradientTransform="matrix(2.1091116,-2.1884661e-7,2.7322128e-7,2.633142,-289.6498,-1104.3484)" r="47.959">

<stop id="stop3783" stop-color="#d7df23" offset="0"/>

<stop id="stop3785" stop-color="#002c00" offset="0.94238"/>

<stop id="stop3787" stop-color="#003f00" offset="1"/>

</radialGradient>

<radialGradient id="radialGradient3690" gradientUnits="userSpaceOnUse" cy="218.64" cx="354.74" gradientTransform="matrix(1.1034429,-0.00953678,0.00974403,1.1274208,-40.48124,-30.523166)" r="133.59">

<stop id="stop3722" stop-color="#d7df23" offset="0"/>

<stop id="stop3724" stop-color="#94bf00" offset="0.49483"/>

<stop id="stop3726" stop-color="#005d00" offset="1"/>

</radialGradient>

<radialGradient id="radialGradient3698" gradientUnits="userSpaceOnUse" cy="273.79" cx="401.45" gradientTransform="matrix(1.7180561,0.01152356,-0.01318119,1.9651848,-278.91824,-289.67297)" r="79.484">

<stop id="stop3730" stop-color="#d7df23" offset="0"/>

<stop id="stop3732" stop-color="#94bf00" offset="0.63218"/>

<stop id="stop3734" stop-color="#005d00" offset="1"/>

</radialGradient>

<radialGradient id="radialGradient3740" gradientUnits="userSpaceOnUse" cy="213.2" cx="313.8" gradientTransform="matrix(0.6918281,0.43545602,-0.91964341,1.461078,287.43273,-239.0991)" r="133.59">

<stop id="stop3744" stop-color="#d7df23" offset="0"/>

<stop id="stop3746" stop-color="#002c00" offset="0.75679"/>

<stop id="stop3748" stop-color="#003f00" offset="1"/>

</radialGradient>

<radialGradient id="radialGradient3752" gradientUnits="userSpaceOnUse" cy="284.14" cx="434.69" gradientTransform="matrix(2.038639,3.4174999e-7,-3.9776855e-7,1.965229,-422.01651,-281.77695)" r="79.484">

<stop id="stop3756" stop-color="#d7df23" offset="0"/>

<stop id="stop3758" stop-color="#002c00" offset="0.79202"/>

<stop id="stop3760" stop-color="#003f00" offset="1"/>

</radialGradient>

<radialGradient id="radialGradient3714" gradientUnits="userSpaceOnUse" cy="320.11" cx="428.88" gradientTransform="matrix(2.0670551,-3.4519581e-7,3.8655994e-7,2.3147464,-457.64289,-420.86038)" r="33.432">

<stop id="stop3710" stop-color="#eb0000" offset="0"/>

<stop id="stop3717" stop-color="#d20000" offset="0.42998"/>

<stop id="stop3712" stop-color="#ac0000" offset="1"/>

</radialGradient>

<radialGradient id="radialGradient3737" gradientUnits="userSpaceOnUse" cy="306.86" cx="474.57" gradientTransform="matrix(1.4200693,-1.2666963e-6,1.902822e-6,2.1332177,-199.35237,-347.73845)" r="19.714">

<stop id="stop3757" stop-color="#eb0000" offset="0"/>

<stop id="stop3762" stop-color="#d20000" offset="0.57788"/>

<stop id="stop3764" stop-color="#ac0000" offset="1"/>

</radialGradient>

<radialGradient id="radialGradient3745" gradientUnits="userSpaceOnUse" cy="290.75" cx="502.49" gradientTransform="matrix(2.0977625,1.6901601e-6,-2.1893386e-6,2.7173239,-551.61895,-499.30786)" r="9.8651">

<stop id="stop3768" stop-color="#eb0000" offset="0"/>

<stop id="stop3770" stop-color="#d20000" offset="0.66084"/>

<stop id="stop3772" stop-color="#ac0000" offset="1"/>

</radialGradient>

<radialGradient id="radialGradient3753" gradientUnits="userSpaceOnUse" cy="275.08" cx="535.42" gradientTransform="matrix(1.3818972,6.3217682e-7,-6.5394898e-7,1.4294897,-204.47474,-118.14386)" r="19.183">

<stop id="stop3776" stop-color="#eb0000" offset="0"/>

<stop id="stop3778" stop-color="#d20000" offset="0.6739"/>

<stop id="stop3780" stop-color="#ac0000" offset="1"/>

</radialGradient>

<radialGradient id="radialGradient3139" xlink:href="#linearGradient3711" gradientUnits="userSpaceOnUse" cy="915.94" cx="373.45" gradientTransform="matrix(1,4.9816884e-8,-2.8104225e-8,0.56415056,2.7000236,400.71172)" r="150.72"/>

<radialGradient id="radialGradient3172" xlink:href="#linearGradient3673" gradientUnits="userSpaceOnUse" cy="867.61" cx="374.21" gradientTransform="matrix(1.377431,-1.0242586e-7,3.8450209e-8,0.5265079,-141.99561,431.42009)" r="150.72"/>

</defs>

<metadata id="metadata5499">

<rdf:RDF>

<cc:Work rdf:about="">

<dc:format>image/svg+xml</dc:format>

<dc:type rdf:resource="http://purl.org/dc/dcmitype/StillImage"/>

<dc:title/>

</cc:Work>

</rdf:RDF>

</metadata>

<g id="layer2" transform="translate(-9.8360032,-59.416973)">

<path id="path3750" fill-rule="nonzero" fill="url(#radialGradient3752)" d="m448.27,273.25c-1.2043-2.841-1.2728-4.324-0.4306-9.3238,1.1489-6.8202,3.7857-13.462,7.0362-17.724,1.2378-1.6229,6.5806-5.8456,11.873-9.384,17.193-11.495,27.974-23.803,37.335-42.622,7.209-14.493,9.9887-24.709,5.0252-18.468-3.715,4.6706-8.5244,9.3898-15.929,15.63-10.43,8.7896-11.9,10.201-16.563,15.902-6.9168,8.4553-13.269,17.848-23.456,34.685-5.3966,8.9189-11.706,18.16-14.021,20.536-8.2264,8.4414-18.689,11.344-23.504,6.5212-7.0456-7.0576,2.0829-29.541,18.844-46.413,7.9293-7.9819,9.5062-9.1037,21.447-15.258,14.586-7.5179,19.98-11.865,25.43-20.495,5.258-8.3254,14.338-29.47,13.161-30.647-0.54905-0.54905-14.352,8.2829-22.652,14.493-15.864,11.871-25.331,22.679-41.278,47.122-14.47,22.18-29.623,36.786-37.474,36.123-2.3454-0.19825-3.4884-0.86516-4.3222-2.5218-2.5979-5.1617-0.75234-16.903,4.4282-28.172,4.4381-9.6543,16.396-22.313,34.08-36.078,21.023-16.363,28.271-22.661,34.687-30.137,5.1585-6.0113,12.131-17.494,12.131-19.977,0-0.57072-1.723,0.12809-3.8288,1.5529-2.1059,1.4248-7.4775,4.5141-11.937,6.8651-10.217,5.3862-15.867,9.7431-24.403,18.817-6.267,6.6618-10.168,11.652-25.458,32.569-6.4044,8.7611-12.664,13.97-16.805,13.983-5.2395,0.0165-7.1542-3.2971-7.0066-12.126,0.18666-11.166,4.4422-21.556,16.788-40.991,25.296-39.82,53.627-61.514,75.14-57.538,10.482,1.9377,18.191,7.6796,28.862,21.497,23.951,31.014,37.942,64.84,38.167,92.277,0.13116,15.99-2.8403,22.048-15.111,30.804-13.136,9.3734-33.411,15.544-38.601,11.748-3.776-2.7611,0.24896-7.9912,14.246-18.512,13.138-9.875,19.78-18.443,23.854-30.774,2.1383-6.4713,4.8691-19.857,4.1897-20.536-1.3606-1.3606-18.757,21.398-35.42,46.339-11.488,17.195-16.094,23.271-22.178,29.256-10.103,9.9401-16.673,14.357-21.356,14.357-3.2571,0-3.6801-0.28634-4.9908-3.3784z"/>

<path id="path3736" d="m203.11,304.45c-8.1874-8.8037-16.055-45.817-12.551-75.379,4.8759-41.142,18.65-71.593,42.774-102.58,15.089-19.378,40.671-38.204,67.57-50.242,13.405-5.9991,23.183-9.9223,36.685-12.365,9.3492-1.6911,15.055-2.2742,36.091-2.2757,25.588-0.0017,32.089,1.839,47.934,5.8449,13.943,3.525,34.275,12.922,38.909,19.798,2.6126,3.8768,0.0593,10.761-3.2206,13.198-2.299,1.7081-5.0104,2.8438-16.139,2.8193-14.38-0.0317-20.376-1.2592-45.12-9.5481-19.502-6.5329-29.749-6.1343-49.259-5.3597-12.021,0.4773-43.086-0.74796-44.006,0.12209-0.66854,0.63186,7.3131,1.7245,12.397,3.0068,12.094,3.0505,39.614,4.4251,70.348,4.4693,21.822,0.03137,26.172,3.372,32.185,9.5629,9.4217,9.7012,5.4726,21.817-6.0971,25.66-8.5356,2.8351-27.11,2.8842-43.205-1.5751-2.7252-0.75507-13.642-4.1642-22.313-6.7973-26.95-8.1837-31.695-9.0554-45.837-10.186-9.7493-0.77938-28.297-0.94727-31.178,1.4814-1.0298,0.86789,17.972,6.5401,25.759,8.5798,12.571,3.2926,34.097,6.7676,61.934,7.8189l16.589,1.8524,9.1624,3.6234c6.9504,4.4505,10.477,10.127,11.857,14.733,0.88909,2.9675,0.78536,6.4826-0.73978,9.4443-4.0077,7.7825-20.883,14.269-37.108,12.189-9.9167-1.2718-13.929-4.5179-25.968-10.551-11.695-5.8608-19.876-9.1756-30.216-11.197-15.048-2.9419-30.83-4.3542-47.102,0.2212l-9.3401,3.2937,4.8578,4.2701c16.451,5.7938,35.752,9.0201,84.956,11.752,13.463,0.74756,22.21,3.0024,30.96,8.8545,7.7978,5.2155,10.031,11.605,10.031,15.884,0,9.58-15.897,13.417-55.351,9.0904-12.691-1.3917-33.498-0.88706-43.915,1.4628-26.629,6.007-43.102,20.975-51.437,43.396-1.7385,4.6763-2.3029,6.9602-2.1609,17.108,0.26518,18.95-5.6807,33.125-10.689,38.525-2.8962,3.1235-5.1353,3.1202-8.0481-0.0118v-0.00003-0.00001z" fill-rule="nonzero" fill="url(#radialGradient3740)"/>

<path id="path3743" fill-rule="nonzero" fill="url(#radialGradient3753)" d="m534.84,301.85c-0.44513-0.44513-0.69364-2.7232-0.69364-6.3584,0-4.894-0.15729-5.822-1.1561-6.8208-1.4739-1.4739-3.6515-1.4488-6.9364,0.0797-6.1726,2.8723-9.8334,1.2562-9.8189-4.3345,0.0191-7.352,6.2538-18.635,15.487-28.026,5.6015-5.6975,9.3347-8.2558,12.581-8.6217,2.3324-0.26289,2.5669-0.15652,3.6799,1.6691,1.5734,2.5807,1.5863,8.5459,0.037,16.979-1.5854,8.629-1.7181,8.0925,2.0025,8.0925,6.139,0,6.1019,2.86-0.0911,7.0195-1.9614,1.3174-3.8387,2.4879-4.1719,2.6012-0.33313,0.11324-1.2643,3.4424-2.0693,7.3982-0.80497,3.9558-1.8644,7.8041-2.3544,8.5518-1.4324,2.1861-5.084,3.1814-6.4951,1.7703zm0.84195-24.473c2.8225-1.6541,4.3739-4.1555,4.4525-7.1791,0.0713-2.7404-1.2494-5.8042-2.502-5.8042-1.1926,0-6.9775,5.9209-8.3185,8.5141-2.7107,5.242,0.82051,7.7202,6.368,4.4692z"/>

<path id="path3739" fill-rule="nonzero" fill="url(#radialGradient3737)" d="m469.12,333.63c-9.0881-3.2099-14.297-13.696-14.264-28.713,0.0273-12.187,5.0644-21.066,13.806-24.336,11.227-4.2005,21.983,3.7267,24.762,18.248,1.6655,8.7046,0.8959,17.209-2.1517,23.778-1.8648,4.0197-7.1721,9.0246-11.147,10.512-3.4952,1.3077-8.139,1.5232-11.006,0.51064zm9.9478-15.461c1.0204-0.62218,2.4202-2.2385,3.1106-3.5919,1.0864-2.1296,1.209-3.0618,0.9108-6.9288-0.18951-2.4574-0.7104-5.3271-1.1575-6.377-2.7702-6.5045-10.795-6.689-13.407-0.30825-0.59473,1.4531-1.1164,4.6804-1.2855,7.9526-0.27762,5.373-0.24529,5.5537,1.329,7.4246,0.88745,1.0547,2.155,2.1366,2.8168,2.4043,2.1463,0.86828,5.7586,0.59768,7.6828-0.57553z"/>

<path id="path3747" d="m294.58,723.02c-23.837-4.5372-42.235-10.158-56.098-17.139-10.665-5.3706-15.191-8.6179-20.524-14.725-7.9947-9.1544-5.9148-15.179,6.2018-17.964,15.635-3.5938,30.211-17.809,48.462-38.496,6.1312-6.9494,11.06-10.4,10.5-8.1714-3.542,14.113-1.7912,46.819,1.0705,60.325,3.3912,16.005,10.32,27.391,20.678,34.482,7.0113,4.7993,5.8907,5.3588-10.292,1.6885z" fill-rule="nonzero" fill="url(#radialGradient3791)"/>

<path id="path3745" d="m366.69,727.12c-38.263-2.5387-60.653-17.019-68.177-44.093-3.1967-11.503-3.3994-33.409-0.5131-55.447,2.1216-16.2,3.8342-23.718,9.2464-40.592,7.5874-23.656,9.1623-33.647,9.1086-57.787-0.0586-26.332-3.3706-43.742-8.9372-57.065-1.0529-2.52-3.9557-8.0325-2.5096-9.7074,0.81713-0.94644,19.651,24.973,27.368,39.749,6.7766,12.975,38.841,83.315,42.046,92.235,5.8478,16.279,17.347,36.446,29.112,51.055,14.139,17.557,38.485,32.628,58.729,36.353,15.801,2.9078,46.444,2.8907,61.928-0.0344,6.5818-1.2434,12.269-1.9582,12.639-1.5885,1.2198,1.2198-4.5414,9.1802-10.334,14.279-15.906,14.001-46.642,24.569-86.833,29.857-18.79,2.4721-56.101,3.8981-72.874,2.7853v0.00001z" fill-rule="nonzero" fill="url(#radialGradient3789)"/>

<path id="path3715" d="m384.41,580.46c-30.669-64.085-55.577-108.89-72.367-130.17-3.3374-4.2308-19.746-21.786-36.464-39.011-41.126-42.375-44.793-46.735-54.661-64.991-10.492-19.411-11.937-39.404-2.8475-39.404,8.1628,0,14.574,7.4438,26.205,30.428,12.288,24.281,20.791,37.174,31.835,48.27,10.957,11.009,17.949,14.817,28.616,15.585l7.6517,0.55132-2.0661-3.1864c-10.56-16.29-29.14-37.95-51.35-59.88-17.73-17.52-19.91-20.09-23.3-27.48-5.2664-11.467-7.3917-18.162-8.0795-25.451-1.0636-11.273,4.4836-20.625,12.219-20.601,9.0048,0.0282,23.693,11.314,31.862,24.481,4.9417,7.9648,12.359,23.916,14.928,32.102,2.3396,7.4552,12.708,28.115,18.751,37.363,10.879,16.648,32.752,41.759,34.688,39.823,1.2856-1.2856-6.3988-22.978-12.135-34.256-7.4069-14.563-13.221-23.433-31.383-47.875-8.3085-11.181-16.14-22.381-17.404-24.888-6.566-13.024-9.45-34.284-6.3137-46.541,3.3531-13.104,10.287-16.003,20.062-8.3876,6.9945,5.4494,10.541,10.665,17.435,25.64,6.1632,13.387,6.9429,16.163,9.8971,35.234,3.9092,25.236,11.36,39.579,37.806,72.774,4.7484,5.9603,9.5319,12.358,10.63,14.217,2.3623,3.9991,5.1206,4.5777,4.3259,0.90737-2.3189-10.709-4.6625-19.143-7.4055-26.648-3.3207-9.0863-15.023-32.164-25.075-49.451-20.247-34.819-21.232-37.706-20.699-60.695,0.34403-14.852,0.59907-16.587,3.008-20.462,1.4477-2.3288,4.1674-5.1703,6.044-6.3146,11.366-6.9306,22.332,4.5172,24.844,25.933,2.9724,25.347,14.659,58.007,30.973,86.561,8.0016,14.005,14.088,21.236,22.762,27.042,13.969,9.351,28.03,12.581,42.193,9.6929,4.6975-0.95796,11.245-2.9796,14.55-4.4926,9.7453-4.4615,22.158-14.535,28.534-23.157,3.1674-4.283,8.8039-10.606,12.525-14.052,13.519-12.516,34.856-24.463,40.099-22.452,6.7001,2.571-5.7186,24.623-29.925,53.138-27.062,31.879-43.595,59.033-53.819,88.396-5.9384,17.054-18.01,39.749-18.828,73.499-69.759-75.504-14.394,145.58-58.326,58.196z" fill-rule="nonzero" fill="#f99d1c"/>

<path id="path7097" d="m246.09,957.23c-3.3092-0.84251-6.0255-2.5039-9.0429-5.5308-10.315-10.348-14.359-32.437-9.6922-52.942,1.3248-5.821,4.3348-13.334,7.2931-18.204l1.2755-2.0996,2.4649,0.22727c4.6415,0.42796,13.446,1.902,17.494,2.9286,12.011,3.0465,19.516,7.5885,22.296,13.493,0.9919,2.1066,1.0654,2.5237,1.018,5.7791-0.0723,4.9717-0.83997,6.2133-5.3828,8.7059-1.2833,0.70417-2.3344,1.3638-2.3356,1.4659-0.001,0.10206,1.739,1.0363,3.8672,2.0761,10.544,5.1514,14.257,9.4827,15.446,18.019,0.47701,3.4232,0.47506,4.2241-0.02,8.2603-0.43911,3.5798-0.7421,4.8257-1.5219,6.2585-3.0316,5.5702-12.127,9.7673-24.694,11.396-5.1122,0.66248-16.129,0.76232-18.466,0.16735h-0.00001zm12.834-15.462c2.2162-0.81779,5.4703-3.1682,6.8985-4.9826,4.786-6.0804,3.3246-11.495-3.6875-13.663-2.9921-0.92482-8.3969-1.418-12.505-1.141l-3.3343,0.22475-0.21777,1.9429c-0.30245,2.6983-0.31154,7.9204-0.0173,9.9429,0.37946,2.6083,1.9459,5.7601,3.4225,6.8864,2.4513,1.8697,5.7635,2.1466,9.4413,0.78948zm-4.5835-34.185c2.214-0.94904,3.7976-2.0922,5.0079-3.6152,3.0892-3.8872,1.3067-7.863-4.4882-10.011-2.7964-1.0365-9.052-2.3889-9.3589-2.0233-0.37585,0.44779-1.3296,3.3186-1.8643,5.6116-1.29,5.5324-0.0694,9.2792,3.4446,10.573,1.7441,0.64231,5.0865,0.39574,7.259-0.5355z" fill="url(#radialGradient3139)"/>

<path id="path7099" d="m312.48,957.74c-2.3075-0.34508-3.944-1.0905-5.1327-2.3381-0.82209-0.86278-1.0303-1.4681-1.2892-3.7481-0.77663-6.8396-1.2108-9.7858-3.2818-22.269-2.9812-17.97-3.7235-24.08-3.5315-29.067,0.15375-3.992,0.55337-5.4565,1.9118-7.0058,1.2374-1.4112,4.5518-0.29579,8.0361,2.7044,2.492,2.1458,3.6965,2.6109,6.7614,2.6109,2.5868,0,3.1797-0.16322,10.021-2.7587,3.7589-1.4261,7.01-2.1241,9.8942-2.1241,2.8464,0,4.3328,0.54197,5.5926,2.0393,2.5363,3.0142,1.1358,9.0209-2.63,11.28-0.79099,0.47442-3.6181,1.7192-6.2824,2.7661-5.5024,2.1621-7.7097,3.6374-9.5571,6.3876-1.6242,2.4179-2.4169,4.9856-2.7299,8.8424-0.22195,2.7349-0.0494,4.5049,1.4164,14.533,1.6703,11.427,1.7363,12.708,0.74891,14.541-1.4292,2.6534-5.7782,4.2303-9.9475,3.6068z" fill="url(#radialGradient3139)"/>

<path id="path7101" d="m346.74,956.76c-2.7664-1.2768-4.1458-3.8191-4.7545-8.7631-0.81634-6.6302,1.1218-20.784,3.7774-27.584,2.2689-5.81,5.6171-12.531,8.0587-16.177,2.4084-3.5962,6.0636-7.2397,8.3956-8.3686,7.2812-3.5248,14.954,1.8166,24.277,16.899,13.676,22.125,17.661,30.313,18.109,37.208,0.21899,3.3725-0.34471,5.0363-1.9955,5.89-1.957,1.012-4.0935,0.2225-8.9818-3.3189-5.2907-3.833-9.5132-5.4216-13.362-5.0273-2.6836,0.27493-4.9826,1.0638-9.0361,3.1006-10.961,5.5074-20.615,7.9285-24.488,6.141zm23.846-24.647c3.0541-1.0026,4.7011-2.5322,4.7011-4.366,0-0.85633-0.29289-1.8001-0.77855-2.5087-0.84027-1.226-3.9201-3.2265-6.8279-4.4349l-1.8109-0.75258-2.321,2.2408c-1.2766,1.2324-2.6611,2.9217-3.0768,3.754-0.9176,1.8373-0.98305,4.0288-0.1502,5.0294,1.5021,1.8047,6.4151,2.3016,10.264,1.038z" fill="url(#radialGradient3139)"/>

<path id="path7103" d="m425.77,957.38c-6.0678-0.50246-9.2571-1.7096-11.181-4.2317-2.1807-2.8591-0.0678-5.2116,5.2128-5.8038,4.4044-0.49393,7.5242-2.7616,9.3819-6.8193,0.90122-1.9685,1.4106-5.7948,0.99289-7.4589-0.28821-1.1483-2.7476-2.6697-10.12-6.2599-3.2578-1.5865-6.7861-3.4365-7.8408-4.1112-2.7851-1.7816-5.6101-4.8118-6.8679-7.3669-1.0234-2.0788-1.0807-2.3916-0.89293-4.8742,0.73163-9.6738,11.669-17.335,25.695-17.997,4.5348-0.21434,7.6528,0.16823,10.718,1.3151,2.0186,0.75525,3.9695,2.3372,3.9695,3.2187,0,1.0032-2.4716,3.3109-4.6275,4.3208-1.166,0.54617-3.2877,1.2649-4.7151,1.5972-1.4273,0.33231-3.1081,0.83948-3.735,1.127-3.3532,1.5381-2.5397,6.4506,1.6993,10.262,1.8358,1.6505,4.0662,2.8218,10.248,5.3816,4.3073,1.7836,9.5557,5.1944,11.048,7.1798,2.6449,3.519,3.3969,8.3493,1.9225,12.35-1.823,4.9458-6.2364,10.364-11.172,13.716-6.2878,4.27-10.5,5.2209-19.736,4.456z" fill="url(#radialGradient3139)"/>

<path id="path7105" d="m473.9,957.18c-2.2291-0.7799-4.3221-2.325-4.9387-3.646-0.45662-0.97824-0.5678-4.8297-0.78288-27.119-0.18743-19.424-0.14968-26.167,0.14962-26.727,1.0413-1.9458,5.2423-2.4992,9.7223-1.2808,3.2737,0.8903,7.7366,3.1032,8.7949,4.361l0.91217,1.084-0.0958,23.405-0.0958,23.405-1.027,1.8543c-1.2515,2.2595-3.1961,3.9833-5.3033,4.7014-2.001,0.68183-5.3253,0.664-7.3356-0.0393z" fill="url(#radialGradient3139)"/>

<path id="path7107" d="m478.15,894.97c-8.003-2.0782-10.481-4.562-10.604-10.631-0.0586-2.8823,0.81705-4.5918,3.0681-5.9896,1.52-0.94389,1.9409-1.0378,4.64-1.0347,3.3711,0.004,5.6037,0.79101,7.5299,2.6549,1.2305,1.1906,1.584,1.9454,2.3204,4.9542,0.92753,3.7893,1.0302,5.8412,0.3888,7.7722-0.99213,2.987-2.6361,3.496-7.3432,2.2737z" fill="url(#radialGradient3139)"/>

<path id="path7109" d="m509.02,957.09c-3.1767-0.77252-6.3387-3.096-7.6412-5.6148-1.0191-1.9708-2.2058-8.8569-2.6301-15.262-0.46849-7.0722,0.0326-24.189,0.93429-31.914,1.3566-11.623,2.6424-16.387,5.6748-21.026,2.7081-4.1428,5.705-6.2641,8.8526-6.2661,4.2855-0.003,7.4401,3.9826,7.439,9.3981-0.00026,1.2775-0.2344,3.6462-0.52031,5.2638-0.70476,3.9874-1.7735,12.317-2.3086,17.993-0.47027,4.988-0.62401,28.576-0.19647,30.142,0.19335,0.70817,0.6808,1.0615,2.2576,1.6364,2.2203,0.80958,4.661,2.7023,5.4486,4.2254,0.86467,1.6721,0.66023,4.1697-0.46873,5.7264-1.9963,2.7527-4.7236,4.5368-8.4524,5.5295-1.8999,0.50578-6.6119,0.60015-8.389,0.168z" fill="url(#radialGradient3139)"/>

<path id="path6754" d="m283.05,849.62h-17.1l-3.2018-18.082c-1.3579-7.4733-2.7825-15.671-3.0375-19.59h-0.0883c-0.19067,3.1351-1.5318,11.457-3.0612,19.59l-3.2995,18.082h-17.424l-15.094-62.321h16.867l3.5139,16.788c2.935,14.051,3.471,20.109,3.564,22.465h0.0977c0.34543-5.0434,1.4294-12.805,3.1351-21.998l3.1875-17.253h17.808l4.0166,20.817c0.87431,4.736,2.1322,10.72,2.4991,18.332h0.0883c0.37165-5.5365,2.2418-17.598,3.5187-23.711l3.0946-15.437h17.086l-16.169,62.319z" fill-rule="evenodd" clip-rule="evenodd" fill="#00296d"/>

<path id="path6756" d="m332.1,838.07c-6.6157,0-10.461-3.9356-10.461-19.83,0-11.893,3.0374-19.514,10.292-19.514,6.8682,0,9.9104,3.7402,9.9104,19.309,0.002,15.995-2.9541,20.035-9.7413,20.035zm-0.28349,12.619c22.284,0,27.904-16.75,27.904-34.646,0-13.67-6.1702-29.853-27.342-29.853-16.457,0-28.621,11.661-28.621,33.836,0,18.675,10.037,30.663,28.059,30.663z" fill-rule="evenodd" clip-rule="evenodd" fill="#00296d"/>

<path id="path6758" d="m390.96,800.44c5.0243,0,7.4209,1.4246,7.4209,5.9082,0,4.2071-1.8892,6.7467-7.3137,6.7467h-4.5598v-12.657h4.4526v0.002zm27.904,49.18c-2.0345-4.6717-7.3518-16.238-9.3815-20.39-1.5318-3.2376-4.1214-6.0963-6.2726-6.7015,7.328-1.2555,12.976-6.7086,12.976-17.477,0-10.358-5.9272-17.755-24.233-17.755h-21.446v62.321h15.997v-24.688c3.4901,0,4.9266,0.7814,7.347,7.2208l6.5133,17.467h18.499v0.002z" fill-rule="evenodd" clip-rule="evenodd" fill="#00296d"/>

<polygon id="polygon6760" fill-rule="evenodd" transform="matrix(2.3823135,0,0,2.3823135,-250.69857,-495.35184)" points="285.72,564.57,285.72,538.41,292.51,538.41,292.51,559,302.22,559,300.13,564.57,300.13,564.57" clip-rule="evenodd" fill="#00296d"/>

<path id="path6762" d="m509.53,816.79c0,17.243-3.5639,19.459-8.0498,19.459h-5.3507v-35.809h4.9409c4.8123,0,8.4596,1.851,8.4596,16.35zm17.608,0.51217c0-12.657-3.0898-21.265-10.163-26.151-4.9981-3.4806-10.544-3.8522-14.842-3.8522h-21.998v62.321h22.603c8.412,0,13.41-2.7825,17.327-7.5472,5.6866-6.6895,7.0731-15.111,7.0731-24.771z" fill-rule="evenodd" clip-rule="evenodd" fill="#00296d"/>

<path id="path6764" d="m593.6,850.69c-7.7235,0-14.694-2.3275-20.4-8.6168-4.9409-5.4531-7.1565-13.577-7.1565-22.418,0-7.8068,1.2388-13.679,4.3001-19.318,5.2673-9.7532,14.275-14.146,25.191-14.146,6.337,0,13.048,1.8058,15.94,4.5883l-6.8396,11.781c-2.7635-2.1227-5.8629-3.2852-9.2791-3.2852-2.7826,0-5.3697,0.68851-6.9897,2.4109-3.0065,3.1351-4.0285,6.3179-4.0285,13.67,0,10.265,0.47408,15.216,3.0613,18.277,2.075,2.3919,4.6169,3.8713,7.9569,3.8713,4.0118,0,7.2494-0.96721,10.711-4.1214l6.8968,10.925c-3.926,3.6926-10.263,6.3822-19.363,6.3822z" fill-rule="evenodd" clip-rule="evenodd" fill="#00296d"/>

<path id="path6766" d="m669.59,830.39c0,5.3698-0.1858,7.7711-1.527,10.275-2.5872,5.1744-9.5674,10.032-21.905,10.032-9.808,0-16.657-2.6896-20.39-7.7806-2.318-3.4162-3.0065-4.9409-3.0065-13.26v-42.35h16.09v40.685c0,5.6866,1.7486,9.5197,7.39,9.5197,5.7318,0,7.3518-3.1828,7.3518-9.2958v-40.909h15.997v43.084z" fill-rule="evenodd" clip-rule="evenodd" fill="#00296d"/>

<path id="path6768" d="m704.58,800.44c3.8427,0,6.468,0.96723,6.468,6.1416,0,6.7944-2.3442,8.1332-7.3899,8.1332h-4.6241v-14.275h5.546zm23.852,6.2345c0-14.191-9.241-19.375-25.098-19.375h-20.297v62.321h15.997v-22.186h4.9886c20.397,0.002,24.409-11.566,24.409-20.759z" fill-rule="evenodd" clip-rule="evenodd" fill="#00296d"/>

<polygon id="polygon6770" fill-rule="evenodd" transform="matrix(2.3823135,0,0,2.3823135,-250.19828,-495.35184)" points="117.42,544.13,127.1,544.13,129.23,538.45,109.15,538.45,109.15,564.57,109.15,564.57,117.42,564.57,117.42,555.11,123.15,555.11,125.39,549.41,117.42,549.41" clip-rule="evenodd" fill="#00296d"/>

<polygon id="polygon6772" fill-rule="evenodd" transform="matrix(2.3823135,0,0,2.3823135,-250.19828,-495.35184)" points="131.94,538.45,131.92,564.57,131.92,564.57,140.05,564.57,140.05,538.45" clip-rule="evenodd" fill="#00296d"/>

<path id="path6774" d="m156.75,787.4-22.446,62.219h18.839l2.4109-8.412h21.91l2.4895,8.412h19.399l-22.501-62.219h-20.102zm2.2441,41.876,7.459-25.879,7.7973,25.879h-15.256z" fill-rule="evenodd" clip-rule="evenodd" fill="#00296d"/>

<polygon id="polygon6776" fill-rule="evenodd" transform="matrix(2.3823135,0,0,2.3823135,-250.19828,-495.35184)" points="154.14,564.57,154.14,555.11,159.88,555.11,162.11,549.41,154.14,549.41,154.14,549.41,154.14,544.13,163.85,544.13,165.97,538.45,145.89,538.45,145.89,564.57" clip-rule="evenodd" fill="#00296d"/>

<path id="path6980" fill="url(#radialGradient3172)" d="m243.39,955.73c-3.3092-0.84251-6.0255-2.5039-9.0429-5.5308-10.315-10.348-14.359-32.437-9.6922-52.942,1.3248-5.821,4.3348-13.334,7.2931-18.204l1.2755-2.0996,2.4649,0.22727c4.6415,0.42796,13.446,1.902,17.494,2.9286,12.011,3.0465,19.516,7.5885,22.296,13.493,0.9919,2.1066,1.0654,2.5237,1.018,5.7791-0.0723,4.9717-0.83997,6.2133-5.3828,8.7059-1.2833,0.70417-2.3344,1.3638-2.3356,1.4659-0.001,0.10206,1.739,1.0363,3.8672,2.0761,10.544,5.1514,14.257,9.4827,15.446,18.019,0.47701,3.4232,0.47506,4.2241-0.02,8.2603-0.43911,3.5798-0.7421,4.8257-1.5219,6.2585-3.0316,5.5702-12.127,9.7673-24.694,11.396-5.1122,0.66248-16.129,0.76232-18.466,0.16735h-0.00001zm12.834-15.462c2.2162-0.81779,5.4703-3.1682,6.8985-4.9826,4.786-6.0804,3.3246-11.495-3.6875-13.663-2.9921-0.92482-8.3969-1.418-12.505-1.141l-3.3343,0.22475-0.21777,1.9429c-0.30245,2.6983-0.31154,7.9204-0.0173,9.9429,0.37946,2.6083,1.9459,5.7601,3.4225,6.8864,2.4513,1.8697,5.7635,2.1466,9.4413,0.78948zm-4.5835-34.185c2.214-0.94904,3.7976-2.0922,5.0079-3.6152,3.0892-3.8872,1.3067-7.863-4.4882-10.011-2.7964-1.0365-9.052-2.3889-9.3589-2.0233-0.37585,0.44779-1.3296,3.3186-1.8643,5.6116-1.29,5.5324-0.0694,9.2792,3.4446,10.573,1.7441,0.64231,5.0865,0.39574,7.259-0.5355z"/>

<path id="path6982" fill="url(#radialGradient3172)" d="m309.78,956.24c-2.3075-0.34508-3.944-1.0905-5.1327-2.3381-0.82209-0.86278-1.0303-1.4681-1.2892-3.7481-0.77663-6.8396-1.2108-9.7858-3.2818-22.269-2.9812-17.97-3.7235-24.08-3.5315-29.067,0.15375-3.992,0.55337-5.4565,1.9118-7.0058,1.2374-1.4112,4.5518-0.29579,8.0361,2.7044,2.492,2.1458,3.6965,2.6109,6.7614,2.6109,2.5868,0,3.1797-0.16322,10.021-2.7587,3.7589-1.4261,7.01-2.1241,9.8942-2.1241,2.8464,0,4.3328,0.54197,5.5926,2.0393,2.5363,3.0142,1.1358,9.0209-2.63,11.28-0.79099,0.47442-3.6181,1.7192-6.2824,2.7661-5.5024,2.1621-7.7097,3.6374-9.5571,6.3876-1.6242,2.4179-2.4169,4.9856-2.7299,8.8424-0.22195,2.7349-0.0494,4.5049,1.4164,14.533,1.6703,11.427,1.7363,12.708,0.74891,14.541-1.4292,2.6534-5.7782,4.2303-9.9475,3.6068z"/>

<path id="path6984" fill="url(#radialGradient3172)" d="m344.04,955.26c-2.7664-1.2768-4.1458-3.8191-4.7545-8.7631-0.81634-6.6302,1.1218-20.784,3.7774-27.584,2.2689-5.81,5.6171-12.531,8.0587-16.177,2.4084-3.5962,6.0636-7.2397,8.3956-8.3686,7.2812-3.5248,14.954,1.8166,24.277,16.899,13.676,22.125,17.661,30.313,18.109,37.208,0.21899,3.3725-0.34471,5.0363-1.9955,5.89-1.957,1.012-4.0935,0.2225-8.9818-3.3189-5.2907-3.833-9.5132-5.4216-13.362-5.0273-2.6836,0.27493-4.9826,1.0638-9.0361,3.1006-10.961,5.5074-20.615,7.9285-24.488,6.141zm23.846-24.647c3.0541-1.0026,4.7011-2.5322,4.7011-4.366,0-0.85633-0.29289-1.8001-0.77855-2.5087-0.84027-1.226-3.9201-3.2265-6.8279-4.4349l-1.8109-0.75258-2.321,2.2408c-1.2766,1.2324-2.6611,2.9217-3.0768,3.754-0.9176,1.8373-0.98305,4.0288-0.1502,5.0294,1.5021,1.8047,6.4151,2.3016,10.264,1.038z"/>

<path id="path6986" fill="url(#radialGradient3172)" d="m423.07,955.88c-6.0678-0.50246-9.2571-1.7096-11.181-4.2317-2.1807-2.8591-0.0678-5.2116,5.2128-5.8038,4.4044-0.49393,7.5242-2.7616,9.3819-6.8193,0.90122-1.9685,1.4106-5.7948,0.99289-7.4589-0.28821-1.1483-2.7476-2.6697-10.12-6.2599-3.2578-1.5865-6.7861-3.4365-7.8408-4.1112-2.7851-1.7816-5.6101-4.8118-6.8679-7.3669-1.0234-2.0788-1.0807-2.3916-0.89293-4.8742,0.73163-9.6738,11.669-17.335,25.695-17.997,4.5348-0.21434,7.6528,0.16823,10.718,1.3151,2.0186,0.75525,3.9695,2.3372,3.9695,3.2187,0,1.0032-2.4716,3.3109-4.6275,4.3208-1.166,0.54617-3.2877,1.2649-4.7151,1.5972-1.4273,0.33231-3.1081,0.83948-3.735,1.127-3.3532,1.5381-2.5397,6.4506,1.6993,10.262,1.8358,1.6505,4.0662,2.8218,10.248,5.3816,4.3073,1.7836,9.5557,5.1944,11.048,7.1798,2.6449,3.519,3.3969,8.3493,1.9225,12.35-1.823,4.9458-6.2364,10.364-11.172,13.716-6.2878,4.27-10.5,5.2209-19.736,4.456z"/>

<path id="path6988" fill="url(#radialGradient3172)" d="m471.2,955.68c-2.2291-0.7799-4.3221-2.325-4.9387-3.646-0.45662-0.97824-0.5678-4.8297-0.78288-27.119-0.18743-19.424-0.14968-26.167,0.14962-26.727,1.0413-1.9458,5.2423-2.4992,9.7223-1.2808,3.2737,0.8903,7.7366,3.1032,8.7949,4.361l0.91217,1.084-0.0958,23.405-0.0958,23.405-1.027,1.8543c-1.2515,2.2595-3.1961,3.9833-5.3033,4.7014-2.001,0.68183-5.3253,0.664-7.3356-0.0393z"/>

<path id="path6990" fill="url(#radialGradient3172)" d="m475.45,893.47c-8.003-2.0782-10.481-4.562-10.604-10.631-0.0586-2.8823,0.81705-4.5918,3.0681-5.9896,1.52-0.94389,1.9409-1.0378,4.64-1.0347,3.3711,0.004,5.6037,0.79101,7.5299,2.6549,1.2305,1.1906,1.584,1.9454,2.3204,4.9542,0.92753,3.7893,1.0302,5.8412,0.3888,7.7722-0.99213,2.987-2.6361,3.496-7.3432,2.2737z"/>

<path id="path6992" fill="url(#radialGradient3172)" d="m506.32,955.59c-3.1767-0.77252-6.3387-3.096-7.6412-5.6148-1.0191-1.9708-2.2058-8.8569-2.6301-15.262-0.46849-7.0722,0.0326-24.189,0.93429-31.914,1.3566-11.623,2.6424-16.387,5.6748-21.026,2.7081-4.1428,5.705-6.2641,8.8526-6.2661,4.2855-0.003,7.4401,3.9826,7.439,9.3981-0.00026,1.2775-0.2344,3.6462-0.52031,5.2638-0.70476,3.9874-1.7735,12.317-2.3086,17.993-0.47027,4.988-0.62401,28.576-0.19647,30.142,0.19335,0.70817,0.6808,1.0615,2.2576,1.6364,2.2203,0.80958,4.661,2.7023,5.4486,4.2254,0.86467,1.6721,0.66023,4.1697-0.46873,5.7264-1.9963,2.7527-4.7236,4.5368-8.4524,5.5295-1.8999,0.50578-6.6119,0.60015-8.389,0.168z"/>

<path id="path3653" fill-rule="nonzero" fill="url(#radialGradient3663)" d="m289.58,723.02c-23.837-4.5372-42.235-10.158-56.098-17.139-10.665-5.3706-15.191-8.6179-20.524-14.725-7.9947-9.1544-5.9148-15.179,6.2018-17.964,15.635-3.5938,35.474-17.809,53.725-38.496,6.1312-6.9494,8.3139-8.7986,7.7544-6.5695-3.542,14.113-4.3083,45.217-1.4467,58.723,3.3912,16.005,10.266,27.47,20.678,34.482,7.0577,4.7529,6.3865,4.863-10.292,1.6885z"/>

<path id="path3655" fill-rule="nonzero" fill="url(#radialGradient3671)" d="m365.49,730.12c-38.263-2.5387-60.653-17.019-68.177-44.093-3.1967-11.503-3.3994-33.409-0.5131-55.447,2.1216-16.2,3.8342-23.718,9.2464-40.592,7.5874-23.656,9.1623-33.647,9.1086-57.787-0.0586-26.332-3.5995-51.294-9.166-64.616-1.0529-2.52-1.6674-4.8288-1.3655-5.1308,0.88415-0.88415,18.736,27.947,26.453,42.724,6.7766,12.975,38.841,83.315,42.046,92.235,5.8478,16.279,17.347,36.446,29.112,51.055,14.139,17.557,38.485,32.628,58.729,36.353,15.801,2.9078,46.444,2.8907,61.928-0.0344,6.5818-1.2434,12.269-1.9582,12.639-1.5885,1.2198,1.2198-4.5414,9.1802-10.334,14.279-15.906,14.001-46.642,24.569-86.833,29.857-18.79,2.4721-56.101,3.8981-72.874,2.7853v0.00001z"/>

<path id="path3691" fill-rule="nonzero" fill="url(#radialGradient3699)" d="m484.39,677.52c-23.469-3.346-45.994-14.415-61.123-30.036-14.806-15.287-20.378-24.31-38.855-62.919-30.669-64.085-55.577-108.89-72.367-130.17-3.3374-4.2308-19.746-21.786-36.464-39.011-41.126-42.375-44.793-46.735-54.661-64.991-10.492-19.411-11.937-39.404-2.8475-39.404,8.1628,0,14.574,7.4438,26.205,30.428,12.288,24.281,20.791,37.174,31.835,48.27,10.957,11.009,17.949,14.817,28.616,15.585l7.6517,0.55132-2.0661-3.1864c-10.553-16.275-29.128-37.937-51.338-59.871-17.734-17.514-19.916-20.085-23.309-27.473-5.2664-11.467-7.3917-18.162-8.0795-25.451-1.0636-11.273,4.4836-20.625,12.219-20.601,9.0048,0.0282,23.693,11.314,31.862,24.481,4.9417,7.9648,12.359,23.916,14.928,32.102,2.3396,7.4552,12.708,28.115,18.751,37.363,10.879,16.648,32.752,41.759,34.688,39.823,1.2856-1.2856-6.3988-22.978-12.135-34.256-7.4069-14.563-13.221-23.433-31.383-47.875-8.3085-11.181-16.14-22.381-17.404-24.888-6.566-13.024-9.45-34.284-6.3137-46.541,3.3531-13.104,10.287-16.003,20.062-8.3876,6.9945,5.4494,10.541,10.665,17.435,25.64,6.1632,13.387,6.9429,16.163,9.8971,35.234,3.9092,25.236,11.36,39.579,37.806,72.774,4.7484,5.9603,9.5319,12.358,10.63,14.217,2.3623,3.9991,5.1206,4.5777,4.3259,0.90737-2.3189-10.709-4.6625-19.143-7.4055-26.648-3.3207-9.0863-15.023-32.164-25.075-49.451-20.247-34.819-21.232-37.706-20.699-60.695,0.34403-14.852,0.59907-16.587,3.008-20.462,1.4477-2.3288,4.1674-5.1703,6.044-6.3146,11.366-6.9306,22.332,4.5172,24.844,25.933,2.9724,25.347,14.659,58.007,30.973,86.561,8.0016,14.005,14.088,21.236,22.762,27.042,13.969,9.351,28.03,12.581,42.193,9.6929,4.6975-0.95796,11.245-2.9796,14.55-4.4926,9.7453-4.4615,22.158-14.535,28.534-23.157,3.1674-4.283,8.8039-10.606,12.525-14.052,13.519-12.516,34.856-24.463,40.099-22.452,6.7001,2.571-5.7186,24.623-29.925,53.138-27.062,31.879-43.595,59.033-53.819,88.396-5.9384,17.054-8.9565,39.749-9.7745,73.499-0.67178,27.717,0.85016,44.318,5.8145,63.425,9.1006,35.026,29.456,60.512,65.252,81.699l8.199,4.8527-4.3528,0.72974c-9.9946,1.6756-32.057,1.9077-42.314,0.44527z"/>

<path id="path3737" fill-rule="nonzero" fill="url(#radialGradient3714)" d="m432.99,360.64c-11.782-1.4882-19.267-4.0417-22.823-7.7855-1.5319-1.6131-1.7482-2.2891-1.9385-6.0583-0.14162-2.8046,0.10723-5.3484,0.73418-7.5051,0.82757-2.8467,1.6329-3.9415,6.3199-8.591,2.9543-2.9307,6.0472-6.2389,6.873-7.3516,3.7816-5.0955,7.9438-15.772,7.9438-20.377,0-2.3875-0.2773-3.1107-1.762-4.5954-1.5306-1.5306-2.0618-1.7218-4.0447-1.4558-3.1632,0.42428-8.836,3.2062-13.066,6.4073-5.9256,4.4848-9.6857,5.4711-12.479,3.2736-3.5733-2.8108-4.3807-8.5482-1.7409-12.371,3.7005-5.3594,15.021-12.463,23.187-14.55,2.9744-0.76027,4.3386-0.82387,7.1288-0.33238,16.19,2.8518,24.418,17.976,18.767,34.498-1.7553,5.1326-2.5097,6.5813-6.8463,13.147-12.625,19.113-9.1365,23.369,9.9001,12.078,8.1033-4.8064,10.599-4.7747,12.483,0.15826,1.2583,3.2949,0.87119,5.2665-1.8346,9.343-3.7858,5.7036-12.908,11.917-18.451,12.569-1.2552,0.14746-5.0134-0.0769-8.3516-0.49855z"/>

<path id="path3741" fill-rule="nonzero" fill="url(#radialGradient3745)" d="m502.42,316.56c-1.9758-1.6386-2.428-6.1483-2.3196-23.133,0.11542-18.087,0.17335-17.858-4.5999-18.167-2.6266-0.16998-2.686-0.21704-2.857-2.2611-0.32323-3.864,5.0686-8.2541,10.992-8.9503,3.9598-0.4654,6.2399,0.60745,7.7411,3.6424,1.0118,2.0455,1.0736,3.6328,0.91892,23.58-0.1,12.891-0.40765,22.148-0.77448,23.302-0.37261,1.1721-1.1616,2.1247-2.0347,2.4566-2.2789,0.86645-5.7326,0.63706-7.0668-0.46938z"/>

<path id="path3680" d="m202.51,302.25c-8.1874-8.8037-16.055-45.817-12.551-75.379,4.8759-41.142,18.65-71.593,42.774-102.58,15.089-19.378,40.671-38.204,67.57-50.242,13.405-5.9991,23.183-9.9223,36.685-12.365,9.3492-1.6911,15.055-2.2742,36.091-2.2757,25.588-0.0017,32.089,1.839,47.934,5.8449,13.943,3.525,34.275,12.922,38.909,19.798,2.6126,3.8768,0.0593,10.761-3.2206,13.198-2.299,1.7081-5.0104,2.8438-16.139,2.8193-14.38-0.0317-20.376-1.2592-45.12-9.5481-19.502-6.5329-29.749-6.1343-49.259-5.3597-12.021,0.4773-43.086-0.74796-44.006,0.12209-0.66854,0.63186,7.3131,1.7245,12.397,3.0068,12.094,3.0505,39.614,4.4251,70.348,4.4693,21.822,0.03137,26.172,3.372,32.185,9.563,9.4217,9.7012,5.4726,21.817-6.0971,25.66-8.5356,2.8351-27.11,2.8842-43.205-1.5751-2.7252-0.75507-13.642-4.1642-22.313-6.7973-26.95-8.1837-31.695-9.0554-45.837-10.186-9.7493-0.77938-28.297-0.94727-31.178,1.4814-1.0298,0.86789,17.972,6.5401,25.759,8.5798,12.571,3.2926,34.097,6.7676,61.934,7.8189l16.589,1.8524,9.1624,3.6234c6.9504,4.4505,10.477,10.127,11.857,14.733,0.88909,2.9675,0.78536,6.4826-0.73978,9.4443-4.0077,7.7825-20.883,14.269-37.108,12.189-9.9167-1.2718-13.929-4.5179-25.968-10.551-11.695-5.8608-19.876-9.1756-30.216-11.197-15.048-2.9419-30.83-4.3542-47.102,0.2212l-9.3401,3.2937,4.8578,4.2701c16.451,5.7938,35.752,9.0201,84.956,11.752,13.463,0.74756,22.21,3.0024,30.96,8.8545,7.7978,5.2155,10.031,11.605,10.031,15.884,0,9.58-15.897,13.417-55.351,9.0904-12.691-1.3917-33.498-0.88706-43.915,1.4628-26.629,6.007-43.102,20.975-51.437,43.396-1.7385,4.6763-2.3029,6.9602-2.1609,17.108,0.26518,18.95-5.6807,33.125-10.689,38.525-2.8962,3.1235-5.1353,3.1202-8.0481-0.0118v-0.00003-0.00001z" fill-rule="nonzero" fill="url(#radialGradient3690)"/>

<path id="path3682" fill-rule="nonzero" fill="url(#radialGradient3698)" d="m448.27,270.35c-1.2043-2.841-1.2728-4.324-0.4306-9.3238,1.1489-6.8202,3.7857-13.462,7.0362-17.724,1.2378-1.6229,6.5806-5.8456,11.873-9.384,17.193-11.495,27.974-23.803,37.335-42.622,7.209-14.493,9.9887-24.709,5.0252-18.468-3.715,4.6706-8.5244,9.3898-15.929,15.63-10.43,8.7896-11.9,10.201-16.563,15.902-6.9168,8.4553-13.269,17.848-23.456,34.685-5.3966,8.9189-11.706,18.16-14.021,20.536-8.2264,8.4414-18.689,11.344-23.504,6.5212-7.0456-7.0576,2.0829-29.541,18.844-46.413,7.9293-7.9819,9.5062-9.1037,21.447-15.258,14.586-7.5179,19.98-11.865,25.43-20.495,5.258-8.3254,14.338-29.47,13.161-30.647-0.54905-0.54905-14.352,8.2829-22.652,14.493-15.864,11.871-25.331,22.679-41.278,47.122-14.47,22.18-29.623,36.786-37.474,36.123-2.3454-0.19825-3.4884-0.86516-4.3222-2.5218-2.5979-5.1617-0.75234-16.903,4.4282-28.172,4.4381-9.6543,16.396-22.313,34.08-36.078,21.023-16.363,28.271-22.661,34.687-30.137,5.1585-6.0113,12.131-17.494,12.131-19.977,0-0.57072-1.723,0.12809-3.8288,1.5529-2.1059,1.4248-7.4775,4.5141-11.937,6.8651-10.217,5.3862-15.867,9.7431-24.403,18.817-6.267,6.6618-10.168,11.652-25.458,32.569-6.4044,8.7611-12.664,13.97-16.805,13.983-5.2395,0.0165-7.1542-3.2971-7.0066-12.126,0.18666-11.166,4.4422-21.556,16.788-40.991,25.296-39.82,53.627-61.514,75.14-57.538,10.482,1.9377,18.191,7.6796,28.862,21.497,23.951,31.014,37.942,64.84,38.167,92.277,0.13116,15.99-2.8403,22.048-15.111,30.804-13.136,9.3734-33.411,15.544-38.601,11.748-3.776-2.7611,0.24896-7.9912,14.246-18.512,13.138-9.875,19.78-18.443,23.854-30.774,2.1383-6.4713,4.8691-19.857,4.1897-20.536-1.3606-1.3606-18.757,21.398-35.42,46.339-11.488,17.195-16.094,23.271-22.178,29.256-10.103,9.9401-16.673,14.357-21.356,14.357-3.2571,0-3.6801-0.28634-4.9908-3.3784z"/>

</g>

</svg>