<?xml version="1.0" encoding="UTF-8"?>
<!-- Generator: Adobe Illustrator 24.1.2, SVG Export Plug-In . SVG Version: 6.00 Build 0)  -->
<svg version="1.1" id="Слой_1" xmlns="http://www.w3.org/2000/svg" xmlns:xlink="http://www.w3.org/1999/xlink" x="0px" y="0px" viewBox="0 0 974.6 1017.4" style="enable-background:new 0 0 974.6 1017.4;" xml:space="preserve">
<style type="text/css">
	.st0{opacity:0.983;fill-rule:evenodd;clip-rule:evenodd;fill:#133D5D;enable-background:new    ;}
	.st1{fill-rule:evenodd;clip-rule:evenodd;fill:#FAFAFB;}
	.st2{fill-rule:evenodd;clip-rule:evenodd;fill:#133D5E;}
	.st3{fill-rule:evenodd;clip-rule:evenodd;fill:#F3F5F6;}
	.st4{fill-rule:evenodd;clip-rule:evenodd;fill:#EDF0F2;}
	.st5{fill-rule:evenodd;clip-rule:evenodd;fill:#F4F5F7;}
	.st6{fill-rule:evenodd;clip-rule:evenodd;fill:#F4F6F7;}
	.st7{fill-rule:evenodd;clip-rule:evenodd;fill:#F5F6F8;}
	.st8{fill-rule:evenodd;clip-rule:evenodd;fill:#F5F6F7;}
	.st9{fill-rule:evenodd;clip-rule:evenodd;fill:#1A3D5E;}
	.st10{fill-rule:evenodd;clip-rule:evenodd;fill:#163D5E;}
	.st11{fill-rule:evenodd;clip-rule:evenodd;fill:#12385A;}
	.st12{fill-rule:evenodd;clip-rule:evenodd;fill:#193B5D;}
	.st13{fill-rule:evenodd;clip-rule:evenodd;fill:#F2F4F6;}
	.st14{fill-rule:evenodd;clip-rule:evenodd;fill:#F2F3F5;}
	.st15{fill-rule:evenodd;clip-rule:evenodd;fill:#143C5D;}
	.st16{fill-rule:evenodd;clip-rule:evenodd;fill:#F3F5F7;}
	.st17{fill-rule:evenodd;clip-rule:evenodd;fill:#153B5D;}
	.st18{fill-rule:evenodd;clip-rule:evenodd;fill:#1C3E5F;}
	.st19{fill-rule:evenodd;clip-rule:evenodd;fill:#163A5C;}
	.st20{fill-rule:evenodd;clip-rule:evenodd;fill:#A4B1BE;}
	.st21{fill-rule:evenodd;clip-rule:evenodd;fill:#1F395C;}
	.st22{fill-rule:evenodd;clip-rule:evenodd;fill:#1A3A5C;}
	.st23{fill-rule:evenodd;clip-rule:evenodd;fill:#A8B5C2;}
	.st24{fill-rule:evenodd;clip-rule:evenodd;fill:#2A4163;}
	.st25{fill-rule:evenodd;clip-rule:evenodd;fill:#133C5D;}
	.st26{fill-rule:evenodd;clip-rule:evenodd;fill:#F7F8F9;}
	.st27{fill-rule:evenodd;clip-rule:evenodd;fill:#F6F7F9;}
	.st28{fill-rule:evenodd;clip-rule:evenodd;fill:#00294D;}
	.st29{fill-rule:evenodd;clip-rule:evenodd;fill:#91A0B0;}
	.st30{fill-rule:evenodd;clip-rule:evenodd;fill:#FCFCFC;}
	.st31{fill-rule:evenodd;clip-rule:evenodd;fill:#8093A5;}
	.st32{fill-rule:evenodd;clip-rule:evenodd;fill:#123B5C;}
	.st33{fill-rule:evenodd;clip-rule:evenodd;fill:#F9F9FA;}
	.st34{fill-rule:evenodd;clip-rule:evenodd;fill:#F9FAFA;}
	.st35{fill-rule:evenodd;clip-rule:evenodd;fill:#FAFBFB;}
	.st36{fill-rule:evenodd;clip-rule:evenodd;fill:#FBFBFB;}
	.st37{fill-rule:evenodd;clip-rule:evenodd;fill:#F8F9FA;}
	.st38{fill-rule:evenodd;clip-rule:evenodd;fill:#143D5E;}
	.st39{fill-rule:evenodd;clip-rule:evenodd;fill:#B2BDC8;}
	.st40{fill-rule:evenodd;clip-rule:evenodd;fill:#4B6781;}
	.st41{fill-rule:evenodd;clip-rule:evenodd;fill:#D4DAE0;}
	.st42{fill-rule:evenodd;clip-rule:evenodd;fill:#577188;}
	.st43{fill-rule:evenodd;clip-rule:evenodd;fill:#8798AA;}
	.st44{fill-rule:evenodd;clip-rule:evenodd;fill:#95A4B4;}
	.st45{fill-rule:evenodd;clip-rule:evenodd;fill:#FDFDFD;}
	.st46{fill-rule:evenodd;clip-rule:evenodd;fill:#153D5E;}
	.st47{fill-rule:evenodd;clip-rule:evenodd;fill:#183054;}
	.st48{fill-rule:evenodd;clip-rule:evenodd;fill:#8698A9;}
	.st49{fill-rule:evenodd;clip-rule:evenodd;fill:#92A1B1;}
	.st50{fill-rule:evenodd;clip-rule:evenodd;fill:#F6F7F8;}
	.st51{fill-rule:evenodd;clip-rule:evenodd;fill:#F5F7F8;}
	.st52{fill-rule:evenodd;clip-rule:evenodd;fill:#EAEDF0;}
	.st53{fill-rule:evenodd;clip-rule:evenodd;fill:#E9ECEF;}
	.st54{fill-rule:evenodd;clip-rule:evenodd;fill:#EDEFF2;}
	.st55{fill-rule:evenodd;clip-rule:evenodd;fill:#1B3E5F;}
	.st56{fill-rule:evenodd;clip-rule:evenodd;fill:#093356;}
	.st57{fill-rule:evenodd;clip-rule:evenodd;fill:#F1F3F5;}
	.st58{fill-rule:evenodd;clip-rule:evenodd;fill:#183C5E;}
	.st59{fill-rule:evenodd;clip-rule:evenodd;fill:#7A8EA1;}
	.st60{fill-rule:evenodd;clip-rule:evenodd;fill:#2B4C6B;}
	.st61{fill-rule:evenodd;clip-rule:evenodd;fill:#98A6B5;}
	.st62{fill-rule:evenodd;clip-rule:evenodd;fill:#4D637E;}
	.st63{fill-rule:evenodd;clip-rule:evenodd;fill:#8396A7;}
	.st64{fill-rule:evenodd;clip-rule:evenodd;fill:#15385A;}
	.st65{fill-rule:evenodd;clip-rule:evenodd;fill:#687F94;}
</style>
<g>
	<path class="st0" d="M455,0.4c171.5-6.2,311,56.8,418.5,189c88.8,119.7,119.2,253.4,91,401c-38,158.5-130.5,273-277.5,343.5   c-27.9,11.9-56.5,21.6-86,29c-31.8,19.5-64.8,36.8-99,52c-7.8,2.4-15.8,3.1-24,2c-36.2-15.4-70.8-33.4-104-54   C253,932.8,156.8,867,85.5,765.4C4.3,642-19.1,508,15.5,363.4C57.1,218,146,111.8,282,44.9C337.1,19.9,394.8,5,455,0.4z"/>
</g>
<g>
	<path class="st1" d="M456,33.4c149.5-6.1,274.4,45.9,374.5,156c89.3,106.6,124.7,229.2,106,368C911.8,697.7,839.3,805.2,719,879.9   c-41.3,24-85.3,41.3-132,52c-27.1,16.9-55.1,32.2-84,46c-5.3,2.6-10.8,4.8-16.5,6.5c-34.4-15.3-67.5-32.8-99.5-52.5   C253.6,899.3,153.4,823.2,86.5,703.4c-60.2-118.3-69.6-240.6-28-367C107.1,206.5,195.6,115.3,324,62.9   C366.7,46.9,410.7,37.1,456,33.4z"/>
</g>
<g>
	<path class="st2" d="M464,46.4c142.4-3.4,261.2,47.3,356.5,152c96.9,117.3,128.3,250.6,94,400C876,734.9,792.5,833.1,664,892.9   c-11.7,4.6-23.3,9.1-35,13.5c-1.2-0.3-1.2-0.8,0-1.5c41.1-26.8,77.6-58.9,109.5-96.5c20.5-25,35.9-53,46-84c3.1-13.2,5.1-26.5,6-40   c56.2-90.8,71.2-188.1,45-292c-9.8-35.7-24.8-69.1-45-100c-0.3-16.7-0.7-33.3-1-50c-11.4-9.1-23.9-16.3-37.5-21.5c-12-4-24-8-36-12   c-86.9-69.4-185.6-94.7-296-76c-61,12-115.3,37.6-163,77c-19.6,4.9-38.2,11.9-56,21c-5.5,3.6-10.8,7.4-16,11.5   c-0.8,17-1.3,34-1.5,51c-59.6,96.5-72.6,199.1-39,308c9.7,28.8,22.7,56.2,39,82c2.2,33,11.9,63.7,29,92   c16.8,26.2,36.7,50,59.5,71.5c23.4,21.8,48.4,41.5,75,59c-47.1-15-90.1-37.7-129-68c-112.3-90.3-169.6-208-172-353   c5.2-149.8,67.6-269.2,187-358C302.4,78.7,379.4,51.9,464,46.4z"/>
</g>
<g>
	<path class="st3" d="M474,71.4c2.7,0,5.3,0,8,0c0,4,0,8,0,12c5,0,10,0,15,0c-0.2-3.7,0-7.3,0.5-11c2.1-1.1,4.2-1.3,6.5-0.5   c1.2,9.8,1.3,19.6,0.5,29.5c-2.4,0.9-4.9,1.3-7.5,1c0-4.3,0-8.7,0-13c-5,0-10,0-15,0c0.2,4,0,8-0.5,12c-2.7,1.3-5.3,1.3-8,0   C472.6,91.3,472.8,81.3,474,71.4z"/>
</g>
<g>
	<path class="st4" d="M573,70.4c2.8,0.6,5.3,2,7.5,4c1.9-1.5,4-2.2,6.5-2c0,4.5-2.1,6.8-6.5,7C574.7,79.2,572.2,76.2,573,70.4z"/>
</g>
<g>
	<path class="st5" d="M513,72.4c2.6-0.3,5.1,0.1,7.5,1c-0.3,3.2-0.5,6.6-0.5,10c8.4-1.5,14.9,1.2,19.5,8c0.9,5.4-1,9.5-5.5,12.5   c-8,0.8-15.8,0.3-23.5-1.5C510.4,92.4,511.3,82.4,513,72.4z"/>
</g>
<g>
	<path class="st6" d="M438,73.4c2.7,0,5.3,0,8,0c0,3.4,0.3,6.7,1,10c3.5-0.4,7-0.7,10.5-1c9.1,0.3,13.1,4.9,12,14   c-1.7,3.7-4.5,5.8-8.5,6.5c-7,0.7-14,1.2-21,1.5C439.2,94.1,438.5,83.8,438,73.4z"/>
</g>
<g>
	<path class="st5" d="M426,74.4c2-0.3,3.5,0.4,4.5,2c1.7,9.3,3,18.7,4,28c-2.3,1.3-4.7,1.7-7,1c-1.9-6.9-3.2-13.9-4-21   c-3.5-2.6-6.8-2.3-10,1c-0.9,7.7-1.9,15.3-3,23c-2.1,1.8-4.6,2.4-7.5,2c0.4-9.1,1.2-18.1,2.5-27C411.1,77.5,417.9,74.5,426,74.4z"/>
</g>
<g>
	<path class="st6" d="M547,75.4c2-0.2,4,0,6,0.5c0.6,1.2,0.9,2.6,1,4c-1,8.8-2,17.7-3,26.5c-2.7,0-5.3,0-8,0   C543.3,95.9,544.6,85.6,547,75.4z"/>
</g>
<g>
	<path class="st7" d="M563,78.4c3.1-0.6,5.4,0.4,7,3c-1.9,7-3.4,14-4.5,21c5.5-6.2,11-12.3,16.5-18.5c3.7-0.8,7.2-0.3,10.5,1.5   c-1.4,10-3.5,19.8-6.5,29.5c-2,0-4-0.3-6-1c-0.6-0.7-0.9-1.6-1-2.5c1.7-6,2.9-12,3.5-18c-4.8,5.5-9.7,11-14.5,16.5   c-4,0.5-7.8,0-11.5-1.5C557.5,98.2,559.6,88.2,563,78.4z"/>
</g>
<g>
	<path class="st8" d="M379,83.4c14.7-0.8,21.5,6.2,20.5,21c-2,6.7-6.5,10.5-13.5,11.5c-15.8,2.5-23-4.3-21.5-20.5   C367.3,89,372.2,85,379,83.4z"/>
</g>
<g>
	<path class="st9" d="M448,89.4c4.3-0.2,8.7,0,13,0.5c1.5,2.6,1.1,4.9-1,7c-4,0.5-8,0.7-12,0.5C448,94.7,448,92.1,448,89.4z"/>
</g>
<g>
	<path class="st10" d="M379,89.4c5.8-0.8,9.6,1.5,11.5,7c2.4,10.6-1.7,15.1-12.5,13.5c-4.5-3.8-6.3-8.7-5.5-14.5   C373.9,92.6,376.1,90.6,379,89.4z"/>
</g>
<g>
	<path class="st11" d="M519,89.4c3.7,0.5,7.3,1,11,1.5c1.3,2.3,1.3,4.7,0,7c-3.7,0.3-7.3,0.1-11-0.5C519,94.7,519,92.1,519,89.4z"/>
</g>
<g>
	<path class="st6" d="M351,92.4c3.8-0.3,5.3,1.3,4.5,5c-5.4,2.4-10.9,4.5-16.5,6.5c-1.3,2-0.9,3.9,1,5.5c5.6-3.4,11.6-4.9,18-4.5   c9.7,7.5,9.1,14.2-2,20c-6.1,1.7-12.1,3.6-18,5.5c-2.6-9.4-6-18.6-10-27.5c0.8-1.2,1.8-2.2,3-3C338,98,344.6,95.5,351,92.4z"/>
</g>
<g>
	<path class="st6" d="M617,93.4c5.6-1.4,7.8,0.6,6.5,6c-4.3,7.6-2.2,10.4,6.5,8.5c2.7-2,5.3-4,8-6c8.2-0.9,9.5,1.5,4,7   c-2.9,2.4-5.9,4.5-9,6.5c2.1,5.5,3.5,11.1,4,17c-3,0.2-5.5-0.8-7.5-3c-1.3-3.6-2.3-7.2-3-11c-1.8-3.8-4.6-5.1-8.5-4   c-1.1,3.7-2.7,7.1-5,10c-2.1-0.5-3.9-1.5-5.5-3C609.7,111.9,612.9,102.5,617,93.4z"/>
</g>
<g>
	<path class="st5" d="M319,104.4c4.8-0.6,6.5,1.2,5,5.5c-3,1.5-6,3-9,4.5c3.7,7,7.1,14.2,10,21.5c-2,2.8-4.5,3.6-7.5,2.5   c-3.3-6.5-6.5-13-9.5-19.5c-1.3-0.7-2.7-0.7-4,0c-2.3,2.4-5,2.9-8,1.5c-1.2-1.5-1.2-3,0-4.5C303.9,112.6,311.6,108.8,319,104.4z"/>
</g>
<g>
	<path class="st5" d="M656,111.4c7.7,0.4,15.1,2.6,22,6.5c0.9,0.7,1.5,1.5,2,2.5c-4.3,8.2-8.3,16.5-12,25c-3.5,1.6-6.2,0.8-8-2.5   c3.2-6.9,6.5-13.8,10-20.5c-3-3.8-6.7-4.7-11-2.5c-4.8,5.7-9.8,11.2-15,16.5c-2.6-0.4-4.6-1.8-6-4   C643.3,124.8,649.3,117.8,656,111.4z"/>
</g>
<g>
	<path class="st12" d="M351,111.4c4-0.5,5.8,1.1,5.5,5c-3.7,2.3-7.5,4.3-11.5,6c-1.8-2.4-2.8-5-3-8C345.2,114,348.2,113,351,111.4z"/>
</g>
<g>
	<path class="st13" d="M289,119.4c1,0,2,0,3,0c0.6,6.1,1.8,12.1,3.5,18c2.9,10.8-0.9,17.8-11.5,21c-1.8-0.9-3.1-2.2-4-4   c1.9-2.2,4.2-3.9,7-5c2.5-2.1,2.5-4.1,0-6c-3.6,2.6-7.6,3.5-12,2.5c-4.5-3-8.8-6.1-13-9.5c1.7-1.8,3.7-3.2,6-4c3.4,1.2,6.4,3,9,5.5   c2.7,0.7,5.4,0.6,8-0.5c1-4,1-8,0-12c0.3-1.3,0.7-2.7,1-4C287.2,121,288.2,120.3,289,119.4z"/>
</g>
<g>
	<path class="st14" d="M684,122.4c2.8,0.6,5.3,2,7.5,4c-0.5,4.6-0.5,9.3,0,14c1.4,1.7,3,3,5,4c3.3-3.5,7-6.5,11-9   c2.2,1.2,4.4,2.5,6.5,4c-5.2,5-10.5,9.8-16,14.5c-8.5,6.4-16.1,5.6-23-2.5c0.5-2.3,1.8-3.6,4-4c2.1,1.5,4.5,2.5,7,3   c2,0.1,3.6-0.6,5-2c-4.1-1.6-6.6-4.6-7.5-9C683,133.7,683.2,128.1,684,122.4z"/>
</g>
<g>
	<path class="st15" d="M394,187.4c-5.2-0.1-10.2,0.6-15,2c-29.6,2.2-59,6-88,11.5c96.1-62.8,199.1-76.8,309-42   c29.1,10.5,56.4,24.1,82,41c1.2,0.7,1.2,1.2,0,1.5c-44.6-8.7-89.6-13.9-135-15.5C495.9,185,444.9,185.5,394,187.4z"/>
</g>
<g>
	<path class="st16" d="M717,143.4c1.4-0.2,2.7,0,4,0.5c6.9,4.9,13.6,10.1,20,15.5c-0.9,1.6-2.1,2.9-3.5,4c-5.5-3.4-10.8-7.1-16-11   c-1.7,1-2.3,2.3-2,4c5,3.7,9.3,8,13,13c0.8,5-1.1,8.8-5.5,11.5c-3.5,0.8-6.8,0.5-10-1c-5.8-3.9-11.1-8.2-16-13   C706.1,158.9,711.4,151.1,717,143.4z"/>
</g>
<g>
	<path class="st8" d="M254,144.4c11.1-1.7,17,3,17.5,14c-1.1,4.1-3.5,7.5-7,10c1.4,4.3-0.3,7-5,8c-1.3-0.4-2.5-1.1-3.5-2   c-10,6.9-17.5,4.9-22.5-6c-0.3-6.4,2.2-11.6,7.5-15.5c-1-1.6-1-3.1,0-4.5c1.4-1.2,2.9-2.2,4.5-3c1.2,0.8,2.2,1.8,3,3   C250.3,146.9,252.1,145.6,254,144.4z"/>
</g>
<g>
	<path class="st17" d="M254,151.4c6.7-0.5,9.8,2.5,9.5,9c-1.3,1.3-2.7,2.7-4,4c-2.3-3.8-4.8-7.5-7.5-11   C252.7,152.7,253.4,152.1,254,151.4z"/>
</g>
<g>
	<path class="st18" d="M244,158.4c1.5,0,2.7,0.7,3.5,2c1.4,2.5,3.1,4.8,5,7c0.6,0.9,0.5,1.8-0.5,2.5c-5.7,2.5-9.4,0.6-11-5.5   C241.4,162.1,242.4,160.1,244,158.4z"/>
</g>
<g>
	<path class="st19" d="M714,161.4c4.3,2.3,7.9,5.3,11,9c-0.7,3.5-2.7,4.7-6,3.5c-3-2-5.7-4.3-8-7C712.1,165.1,713.1,163.3,714,161.4   z"/>
</g>
<g>
	<path class="st20" d="M394,187.4c-4.8,1.4-9.8,2.1-15,2C383.7,188,388.7,187.4,394,187.4z"/>
</g>
<g>
	<path class="st21" d="M537,201.4c-36.7,0.7-73.5,1.4-110.5,2c-3.7,0-7.2-0.3-10.5-1C456.2,200.2,496.6,199.9,537,201.4z"/>
</g>
<g>
	<path class="st1" d="M769,251.4c1.2,147.6,1.3,295.3,0.5,443c-2.2,19.4-7.7,37.7-16.5,55c-17.2,31.7-39.2,59.9-66,84.5   c-59.9,53-126.6,95.9-200,128.5C420,932,358.4,893.5,302,846.9c-16.5-15-32.2-30.9-47-47.5c-19.6-22.8-34.4-48.5-44.5-77   c-2.6-9.2-4.6-18.5-6-28c-0.8-147.3-0.7-294.7,0.5-442c1-0.4,1.7-1,2-2c29.5-14.6,60.5-24.8,93-30.5c19.9-3.7,39.9-6.5,60-8.5   c5.2,0.1,10.2-0.6,15-2c52.9-3.9,105.9-5,159-3.5c60.2,1,119.6,8.7,178,23C731.7,234.8,750.7,242.3,769,251.4z"/>
</g>
<g>
	<path class="st22" d="M537,201.4c58.8,1.5,116.8,9,174,22.5c16.1,4.5,31.8,10.1,47,17c5.6,2.9,10.9,6.1,16,9.5   c-1.3,1.1-2.5,0.8-3.5-1c-0.3,0.9-0.8,1.6-1.5,2c-18.3-9.2-37.3-16.7-57-22.5c-58.4-14.3-117.8-22-178-23   c-53.1-1.5-106.1-0.4-159,3.5c-5.2-0.1-10.2,0.6-15,2c-20.1,2-40.1,4.8-60,8.5c-32.5,5.7-63.5,15.9-93,30.5c-0.4,0.1-0.8-0.1-1-0.5   c1.2-0.4,2.2-1.1,3-2c-2,0.1-4,0.6-6,1.5c5.2-4,10.9-7.5,17-10.5c44.2-16.9,89.8-27.6,137-32c19.6-2.3,39.3-3.8,59-4.5   c3.3,0.7,6.8,1,10.5,1C463.4,202.8,500.3,202.1,537,201.4z"/>
</g>
<g>
	<path class="st23" d="M375,209.4c-4.8,1.4-9.8,2.1-15,2C364.7,210,369.7,209.4,375,209.4z"/>
</g>
<g>
	<path class="st24" d="M556,222.4c-46,0-92,0-138,0C463.9,219.8,509.9,219.8,556,222.4z"/>
</g>
<g>
	<path class="st25" d="M418,222.4c46,0,92,0,138,0c58.2,2,115.2,11.1,171,27.5c9,3.8,18,7.7,27,11.5c0.3,59.5,0,118.8-1,178   c-41.6-15.5-84.6-25.3-129-29.5c-20-1.7-40-3.2-60-4.5c-4.8-1.3-9.8-1.3-15,0c0.1,0.6,0.5,0.9,1,1c5.1,5.6,10.4,11.1,16,16.5   c55.7,2.8,110.4,11.8,164,27c8.1,3.2,16.1,6.7,24,10.5c0.3,62.2,0,124.2-1,186c-17-4.9-34.2-9.2-51.5-13c-6.9,3.4-12.4,8.4-16.5,15   c11.5,3.1,23.2,5.6,35,7.5c11.1,3,22.1,6.2,33,9.5c1,7.6,1.3,15.2,1,23c-0.2,8.2-1.5,16.2-4,24c-9.7-6.5-20.1-12-31-16.5   c-15.9-6-32.1-11.1-48.5-15.5c-4.2,5.1-7.4,10.8-9.5,17c28.8,5,55.4,15.2,80,30.5c1.2,0.8,2.2,1.8,3,3   c-9.4,22.4-22.3,42.6-38.5,60.5c-19.9-26.3-45.3-45.6-76-58c-5.3,4.2-11,7.8-17,11c10.4,5.4,21.2,10.9,32.5,16.5   c19.3,11.2,35.3,26,48,44.5c-18.1,18.3-37.3,35.3-57.5,51c-20-36.9-48.9-64.8-86.5-83.5c-1.1-0.7-2.1-0.6-3,0.5   c-3,4.7-4.9,9.7-5.5,15c34.7,18.1,61.6,44.2,80.5,78.5c-25.2,17.9-51.2,34.4-78,49.5c-0.7-7.7-1.3-15.3-2-23   c-1.3-20.8-8.2-39.4-20.5-56c-2.3,7.1-4.5,14.3-6.5,21.5c9.2,22.5,11.5,45.6,7,69.5c-11,6.2-22.4,11.8-34,17   c-66.7-31.2-128.1-70.7-184-118.5c-22.8-20.8-42.7-44-59.5-69.5c-4.8-8.5-9.3-17.2-13.5-26c10.8,13,23.1,25.1,37,36.5   c14.8,10.2,30.7,18.7,47.5,25.5c5.5-4,10.6-8.3,15.5-13c-37.8-12.6-68-35.3-90.5-68c-0.7-0.7-0.7-1.3,0-2   c11.1,9.5,23.2,17.3,36.5,23.5c18.6,8.7,38,15.3,58,20c5.9,2,11.9,2.6,18,2c6-4.7,12-9.3,18-14c-45.7-5.1-87.1-21.1-124-48   c-1.2-0.7-1.2-1.2,0-1.5c22,8.8,44.7,15,68,18.5c-13.3-9.3-26.7-18.7-40-28c-7.3-1.5-14.3-3.9-21-7c5.7-0.2,11.4-0.4,17-0.5   c-1.8-5.8-0.8-11.2,3-16c-7.3-0.8-14.7-1.6-22-2.5c10.9-2.6,21.9-4.9,33-7c28.6-25.6,60.6-45.9,96-61c11.3-4.2,23-5.5,35-4   c7.7,2.2,15,4.9,22,8c-9.1-11.9-7.7-22.6,4-32c-3-2.9-4.8-6.4-5.5-10.5c-3.4-29.5-0.9-58.5,7.5-87c-0.5-0.3-1-0.7-1.5-1   c-68.3,21.3-111.3,66.6-129,136c-1.9,9.9-3,19.9-3.5,30c-29.7,2.7-58.7,8.7-87,18c-1-62.2-1.3-124.2-1-186   c10.2-5.4,20.9-9.9,32-13.5c34.7-9.6,70-16.3,106-20c33-2.8,66-4.8,99-6c2.5-5.5,5.2-11,8-16.5c-0.1-0.6-0.5-0.9-1-1   c-18.2-1.2-36.5-1-55,0.5c3.7,0.5,7.3,0.7,11,0.5c-54,1.8-107.3,8.9-160,21.5c-11.5,3.2-22.8,6.7-34,10.5c-2.1,0-3.9,0.6-5.5,2   c-0.5-59.3-0.7-118.3-0.5-177c11.5-5.9,23.5-10.7,36-14.5C309.6,232.6,363.3,224.4,418,222.4z"/>
</g>
<g>
	<path class="st26" d="M151,261.4c4.3-0.2,6.5,1.8,6.5,6c-58.3,89.9-78.3,187.9-60,294c8.6,43.9,23.9,85.2,46,124c0.7,2,0.7,4,0,6   c-2.9,1.5-5.6,1.2-8-1c-50-90.3-65-186.3-45-288C102,351.4,122.1,304.4,151,261.4z"/>
</g>
<g>
	<path class="st27" d="M819,261.4c2-0.2,3.8,0.1,5.5,1c65.4,101.5,83.7,211.2,55,329c-9.2,35.1-22.9,68.5-41,100   c-5.5,2.5-8.2,0.8-8-5c38.8-68.1,56.5-141.4,53-220c-4.4-72-26.4-138-66-198C816.6,265.7,817.1,263.4,819,261.4z"/>
</g>
<g>
	<path class="st28" d="M221,261.4c-0.2,58.7,0,117.7,0.5,177c1.6-1.4,3.4-2,5.5-2c-2,1.4-4.2,2.8-6.5,4   C219.6,380.6,219.8,320.9,221,261.4z"/>
</g>
<g>
	<path class="st29" d="M754,261.4c1.3,59.5,1.3,119.2,0,179c-0.6-0.1-0.9-0.5-1-1C754,380.2,754.3,320.9,754,261.4z"/>
</g>
<g>
	<path class="st30" d="M320,333.4c-10.7,0-21.3,0-32,0c0,4.7,0,9.3,0,14c0,1.5-0.7,2.7-2,3.5c-5.3,0.7-10.7,0.7-16,0   c-0.5-0.5-1-1-1.5-1.5c-0.7-24.7-0.7-49.3,0-74c0.5-0.5,1-1,1.5-1.5c17.7-0.7,35.3-0.7,53,0c19.8,4.7,27.6,17.2,23.5,37.5   C343.5,325.7,334.6,333,320,333.4z"/>
</g>
<g>
	<path class="st31" d="M313,289.4c-8,0-16,0-24,0c0,9.7,0,19.3,0,29c8,0,16,0,24,0c-8.1,1-16.5,1.3-25,1c0-10.3,0-20.7,0-31   C296.5,288.1,304.8,288.4,313,289.4z"/>
</g>
<g>
	<path class="st32" d="M313,289.4c9.4,0.2,13.7,5.1,13,14.5c0.8,9.4-3.5,14.2-13,14.5c-8,0-16,0-24,0c0-9.7,0-19.3,0-29   C297,289.4,305,289.4,313,289.4z"/>
</g>
<g>
	<path class="st33" d="M375,290.4c14.7-2.5,27.2,1.5,37.5,12c12,36.5-1.2,53-39.5,49.5c-10.9-2.9-17.7-9.7-20.5-20.5   C348,310.9,355.5,297.2,375,290.4z"/>
</g>
<g>
	<path class="st34" d="M667,290.4c8.4-0.3,16.7,0.2,25,1.5c9,2.9,14.2,9.1,15.5,18.5c0.7,13,0.7,26,0,39c-2.4,1.3-5,1.9-8,2   c-2.5-0.2-5-0.3-7.5-0.5c-0.7-1.4-1.2-2.9-1.5-4.5c-6.1,4.5-12.9,6.5-20.5,6c-10.4,0.9-18.3-3.1-23.5-12   c-3.2-13.5,1.9-22,15.5-25.5c9-0.5,18-0.7,27-0.5c0.7-5.1-1.3-8.6-6-10.5c-7.1-1.9-13.1-0.3-18,5c-4.9,0.8-9.8,0.6-14.5-0.5   c-1.2-6.3,0.9-11.2,6.5-14.5C660.5,293,663.8,291.9,667,290.4z"/>
</g>
<g>
	<path class="st35" d="M454,291.4c11.3-0.2,22.7,0,34,0.5c0.5,0.5,1,1,1.5,1.5c0.8,19.2,0.7,38.4-0.5,57.5   c-22.9,0.8-45.7,0.7-68.5-0.5c-0.7-3.7-0.7-7.3,0-11c2.3-0.7,4.7-1.3,7-2c2.5-12.2,5.9-24.2,10-36   C441.9,296.1,447.4,292.8,454,291.4z"/>
</g>
<g>
	<path class="st36" d="M546,349.4c0.2-12,0-24-0.5-36c-0.7,0.5-1.2,1.2-1.5,2c-5.9,11.7-12.3,23.2-19,34.5c-3.9,1.1-7.9,1.6-12,1.5   c-3.6,0-7.1-0.4-10.5-1c-0.7-19-0.7-38,0-57c0.5-0.5,1-1,1.5-1.5c4.7-0.7,9.3-0.7,14,0c0.5,0.5,1,1,1.5,1.5c0.3,12,0.7,24,1,36   c6.6-12.2,13.4-24.2,20.5-36c0.8-0.3,1.5-0.8,2-1.5c6.3-0.7,12.7-0.7,19,0c0.5,0.5,1,1,1.5,1.5c0.7,18.7,0.7,37.3,0,56   c-2.6,1.3-5.4,1.9-8.5,2c-2.7-0.2-5.3-0.3-8-0.5C546.4,350.5,546.1,350,546,349.4z"/>
</g>
<g>
	<path class="st37" d="M594,294.4c0,7,0,14,0,21c8.2,0.3,16.2,0,24-1c-0.2-7,0-14,0.5-21c0.5-0.5,1-1,1.5-1.5c5-0.7,10-0.7,15,0   c0.5,0.5,1,1,1.5,1.5c0.8,19.2,0.7,38.4-0.5,57.5c-5.9,0.8-11.8,0.6-17.5-0.5c-0.5-7.3-0.7-14.7-0.5-22c-7.8-1-15.8-1.3-24-1   c0,7.3,0,14.7,0,22c-0.1,0.6-0.4,1.1-1,1.5c-5.3,0.7-10.7,0.7-16,0c-0.5-0.5-1-1-1.5-1.5c-0.2-9.2-0.3-18.3-0.5-27.5   c-0.1-9.9,0.4-19.8,1.5-29.5c5.4-1.1,10.9-1.3,16.5-0.5C593.7,292.6,594,293.4,594,294.4z"/>
</g>
<g>
	<path class="st15" d="M378,303.4c9-2.1,15.5,0.9,19.5,9c1.1,7.9,0.5,15.5-2,23c-7.4,6.5-14.8,6.5-22,0c-0.7-1.3-1.3-2.7-2-4   c-0.7-6.3-0.7-12.7,0-19C372.7,308.6,374.8,305.6,378,303.4z"/>
</g>
<g>
	<path class="st38" d="M456,305.4c5,0,10,0,15,0c0,11,0,22,0,33c-8.7,0-17.3,0-26,0c2.1-7.6,4-15.2,5.5-23   C451.5,311.6,453.4,308.3,456,305.4z"/>
</g>
<g>
	<path class="st39" d="M594,294.4c1,6.5,1.3,13.1,1,20c7.7,0,15.3,0,23,0c-7.8,1-15.8,1.3-24,1C594,308.4,594,301.4,594,294.4z"/>
</g>
<g>
	<path class="st40" d="M546,349.4c-0.7-11.3-1.3-22.7-2-34c0.3-0.8,0.8-1.5,1.5-2C546,325.4,546.1,337.4,546,349.4z"/>
</g>
<g>
	<path class="st41" d="M183,319.4c0.1-0.5,0.4-0.9,1-1c1.3,113.3,1.3,226.7,0,340c-0.6-0.1-0.9-0.5-1-1   C184.3,544.7,184.3,432.1,183,319.4z"/>
</g>
<g>
	<path class="st42" d="M792,320.4c-1.3,111.7-1.3,223.3,0,335c-0.5,1-1,2-1.5,3c-0.7-113.3-0.7-226.7,0-340   C791.2,319,791.7,319.6,792,320.4z"/>
</g>
<g>
	<path class="st2" d="M183,319.4c1.3,112.7,1.3,225.3,0,338c-49.4-94.9-56.2-192.9-20.5-294C168.5,348.4,175.3,333.7,183,319.4z"/>
</g>
<g>
	<path class="st2" d="M792,320.4c49.9,95,56.4,193,19.5,294c-6,14-12.5,27.6-19.5,41C790.6,543.7,790.6,432.1,792,320.4z"/>
</g>
<g>
	<path class="st19" d="M668,327.4c7,0,14,0,21,0c0.5,3.5-0.2,6.7-2,9.5c-6.5,3.5-13.1,4.1-20,2C662.8,334.6,663.2,330.8,668,327.4z"/>
</g>
<g>
	<path class="st43" d="M618,328.4c-7.7,0-15.3,0-23,0c0.3,7.2,0,14.2-1,21c0-7.3,0-14.7,0-22C602.1,327.1,610.1,327.4,618,328.4z"/>
</g>
<g>
	<path class="st44" d="M320,333.4c-10.2,1-20.5,1.3-31,1c0.3,4.5,0,8.9-1,13c0-4.7,0-9.3,0-14C298.6,333.4,309.3,333.4,320,333.4z"/>
</g>
<g>
	<path class="st45" d="M427,759.4c2.7-0.4,5.3-0.9,8-1.5c-2.9-0.8-5.5-0.6-8,0.5c-20.9,2.2-41.6,5.4-62,9.5c13-9.8,26.3-19.2,40-28   c19.2-11.4,38.6-22.6,58-33.5c-1.7-0.2-3.4,0-5,0.5c-15.5,5.8-31.2,11.1-47,16c-3.3,0.7-6.7,0.7-10,0c-23.6-5.4-46.3-13.2-68-23.5   c4.3-5.6,10-10.5,17-14.5c1.2-0.7,1.2-1.2,0-1.5c-9.3,3.7-18.7,7.3-28,11c-12.1-7.2-23.8-15.2-35-24c26.7-23.9,56.1-44,88-60.5   c12.2-6.6,25.2-9,39-7c25.1,12.4,48.5,27.6,70,45.5c0.3-0.3,0.7-0.7,1-1c-10-23.9-22-46.7-36-68.5c12.9-12.9,25.9-25.9,39-39   c-12,1.9-24,4.4-36,7.5c-3-59.3,12.5-112.9,46.5-161c3-3.8,6.2-7.5,9.5-11c6.9,16.1,16.4,30.4,28.5,43c13.3,13.3,26.7,26.7,40,40   c7.3,8.9,13.3,18.5,18,29c1.8,18,1.8,36,0,54c-3,28.1-6.7,56.1-11,84c20.2-17.2,42.7-30.7,67.5-40.5c8.4-1,16.4,0.3,24,4   c5,4,9.6,8.3,14,13c4.9,3.7,9.9,7.2,15,10.5c-11.8,4.7-22,11.7-30.5,21c-10,19.7-20.4,39.4-31,59c-18.1,26.7-43,43.8-74.5,51.5   c-8.2,2-16.6,3.3-25,4c-2.3,0.3-4.2,1.5-5.5,3.5c-6.5,11.3-12.1,22.9-17,35c-10,26.5-19.5,53.2-28.5,80c-9.3,1.2-18.6,1.3-28,0.5   c-36.2-3.7-71.5-11.4-106-23c13-11,26-22,39-33c-0.3-0.2-0.7-0.3-1-0.5c-16.8,8.2-33.1,17.2-49,27c-10.2-6.7-18.5-15.2-25-25.5   c19.2-19.6,41.9-33.6,68-42C402.1,765.8,414.5,762.3,427,759.4z"/>
</g>
<g>
	<path class="st46" d="M207,250.4c-0.3,1-1,1.6-2,2c-1.2,147.3-1.3,294.7-0.5,442c1.4,9.5,3.4,18.8,6,28   c10.1,28.5,24.9,54.2,44.5,77c-2.1,0-4-0.7-5.5-2c-0.4,0.2-0.6,0.6-0.5,1c-26.2-29.4-42.4-63.7-48.5-103   c-0.7-148.3-0.7-296.7,0-445c0.7-0.8,1.5-1.1,2.5-1c2-0.9,4-1.4,6-1.5c-0.8,0.9-1.8,1.6-3,2C206.2,250.3,206.5,250.5,207,250.4z"/>
</g>
<g>
	<path class="st47" d="M465,403.4c-14.7,0.6-29.3,0.9-44,1c-3.7,0.2-7.3,0-11-0.5C428.4,402.4,446.8,402.2,465,403.4z"/>
</g>
<g>
	<path class="st48" d="M564,405.4c-4.9-0.3-9.5,0-14,1c-0.5-0.1-0.9-0.4-1-1C554.1,404.1,559.1,404.1,564,405.4z"/>
</g>
<g>
	<path class="st28" d="M221,460.4c-0.3,61.8,0,123.8,1,186c-1.3-30.7-2-61.7-2-93C220,522.2,220.3,491.2,221,460.4z"/>
</g>
<g>
	<path class="st49" d="M754,460.4c1.3,62.2,1.3,124.5,0,187c-0.6-0.1-0.9-0.5-1-1C754,584.6,754.3,522.6,754,460.4z"/>
</g>
<g>
	<path class="st50" d="M301,472.4c11.7-1.3,20.5,3.1,26.5,13c8.7-3.4,15.1-0.7,19,8c1.7,6-0.5,8.5-6.5,7.5c-1.6-1.8-2.4-4-2.5-6.5   c-3.1-2.9-5.7-2.5-8,1c-0.3,4.9-2.8,6.8-7.5,5.5c-1.4-4.8-2.9-9.7-4.5-14.5c-10-8-18-6.3-24,5c0.9,5.5-1.3,8-6.5,7.5   c-3.3-8-1.7-15,5-21C295,476,298,474.2,301,472.4z"/>
</g>
<g>
	<path class="st51" d="M250,486.4c7.1-1.4,12.9,0.6,17.5,6c2.1,3.7,1.9,7.2-0.5,10.5c-4.7,1.3-7.2-0.6-7.5-5.5c-2.7-2.7-5.3-2.7-8,0   c-0.9,6.1-3.9,7.4-9,4C241.8,494.8,244.3,489.8,250,486.4z"/>
</g>
<g>
	<path class="st52" d="M661,487.4c4,0,8,0,12,0c0,6,0,12,0,18c-1.3,0-2.7,0-4,0c0-1.7,0-3.3,0-5c-3,0-6,0-9,0c0.3,3.7-1.3,5.3-5,5   C655.1,498.7,657.1,492.7,661,487.4z"/>
</g>
<g>
	<path class="st53" d="M677,487.4c1.7-0.2,3.4,0,5,0.5c2.5,3.8,5,7.7,7.5,11.5c0.5-4,0.7-8,0.5-12c1.3,0,2.7,0,4,0c0,6,0,12,0,18   c-2.1,0.3-4.1,0-6-1c-2.4-3.2-4.5-6.5-6.5-10c-0.5,3.7-0.7,7.3-0.5,11c-1.6,0.2-3.1-0.1-4.5-1C675.7,498.7,675.8,493,677,487.4z"/>
</g>
<g>
	<path class="st53" d="M698,487.4c2.1-0.3,4.1,0,6,1c1.9,3.5,4.1,6.8,6.5,10c0.5-3.7,0.7-7.3,0.5-11c1.6-0.2,3.1,0.1,4.5,1   c0.7,5.3,0.7,10.7,0,16c-1.7,1.1-3.6,1.2-5.5,0.5c-2.6-3.4-5.1-6.9-7.5-10.5c-0.5,3.7-0.7,7.3-0.5,11c-1.3,0-2.7,0-4,0   C698,499.4,698,493.4,698,487.4z"/>
</g>
<g>
	<path class="st54" d="M722,487.4c5.5-0.9,10.4,0.5,14.5,4c2.2,11.2-2.3,15.7-13.5,13.5c-4.4-3-5.9-7.1-4.5-12.5   C719.4,490.6,720.6,488.9,722,487.4z"/>
</g>
<g>
	<path class="st55" d="M725,490.4c7.8,0.3,9.8,3.8,6,10.5c-7.6,1.9-10.1-0.9-7.5-8.5C724.2,491.9,724.7,491.2,725,490.4z"/>
</g>
<g>
	<path class="st56" d="M663,491.4c1.7,0,3.3,0,5,0c0,2,0,4,0,6C661.5,498.5,659.8,496.5,663,491.4z"/>
</g>
<g>
	<path class="st1" d="M614,510.4c16.1,16.2,28.8,34.9,38,56c-16,4.1-30.8,10.8-44.5,20C610.4,561.2,612.6,535.9,614,510.4z"/>
</g>
<g>
	<path class="st57" d="M662,533.4c-0.5,0.1-0.9,0.4-1,1c4.3,1,8.6,1.3,13,1c0.9,1.1,1.3,2.4,1,4c-6.6,0.3-13.1,0-19.5-1   c-1.1-3.5-0.3-6.3,2.5-8.5c4.2-1.5,8.2-3.4,12-5.5c-1.9-2.8-4.6-3.7-8-2.5c-1.5,3-3.6,3.8-6.5,2.5c-0.2-3.2,1.3-5.3,4.5-6.5   c3.7-0.7,7.3-0.7,11,0c4.2,3,5,6.8,2.5,11.5C669.8,531.4,666,532.8,662,533.4z"/>
</g>
<g>
	<path class="st5" d="M683,517.4c13-2.2,18.5,3.2,16.5,16c-2.4,4.5-6.3,6.5-11.5,6c-5.4,0.5-8.9-1.8-10.5-7   C676,526.1,677.8,521.1,683,517.4z"/>
</g>
<g>
	<path class="st26" d="M705,517.4c2,0,4,0,6,0c0,7.3,0,14.7,0,22c-2,0.2-3.8-0.1-5.5-1c-0.3-5-0.7-10-1-15c-1.5,1.3-2.7,1-3.5-1   C702.3,520.7,703.6,519.1,705,517.4z"/>
</g>
<g>
	<path class="st6" d="M716,517.4c5.7-0.2,11.3,0,17,0.5c0.8,1,1.2,2.2,1,3.5c-4.3,0-8.7,0-13,0c0,1.3,0,2.7,0,4   c3.8-0.2,7.4,0.3,11,1.5c4.2,4.4,3.8,8.4-1,12c-4.3,0.7-8.7,0.7-13,0c-2.4-1.5-3.4-3.7-3-6.5c3.2,0.8,6.4,1.8,9.5,3   c4.3,0.1,5.4-1.7,3.5-5.5c-4.3-0.5-8.7-0.7-13-0.5C714.7,525.3,715,521.3,716,517.4z"/>
</g>
<g>
	<path class="st58" d="M686,521.4c7.3,0.2,9.8,3.8,7.5,11c-3.8,4.2-7.2,3.9-10-1C682.3,527.5,683.1,524.2,686,521.4z"/>
</g>
<g>
	<path class="st26" d="M272,523.4c10.6-0.3,18.8,4.1,24.5,13c9.2-2.9,15.5,0.1,19,9c1,5.5-1.1,7.6-6.5,6.5c-1.5-1.5-2.3-3.3-2.5-5.5   c-2.7-2.7-5.3-2.7-8,0c-0.3,4.9-2.8,6.8-7.5,5.5c-1.3-4.5-2.8-9-4.5-13.5c-6.7-7.4-13.7-7.7-21-1c-2.2,4.1-4,8.2-5.5,12.5   c-1.7,0.7-3.3,0.7-5,0c-1.5-2.6-2.4-5.4-2.5-8.5c-3-2.8-5.6-2.4-8,1c-0.6,6-3.3,7.3-8,4c-1.4-9.1,2.5-14.4,11.5-16   c3.5,0.1,6.6,1.1,9.5,3C261.1,528.3,265.9,524.9,272,523.4z"/>
</g>
<g>
	<path class="st59" d="M662,533.4c4,0.7,8,1.3,12,2c-4.4,0.3-8.7,0-13-1C661.1,533.8,661.4,533.5,662,533.4z"/>
</g>
<g>
	<path class="st60" d="M774,250.4c1.2,146.8,1.3,293.8,0.5,441c-2.1,22.6-8.6,43.6-19.5,63c-1.9-1.5-2.5-3.2-2-5   c8.8-17.3,14.3-35.6,16.5-55c0.8-147.7,0.7-295.4-0.5-443c0.7-0.4,1.2-1.1,1.5-2C771.5,251.2,772.7,251.6,774,250.4z"/>
</g>
<g>
	<path class="st61" d="M753,665.4c1.3,3.4,2,7.3,2,11.5c0,4-0.3,7.8-1,11.5C754.3,680.7,753.9,673,753,665.4z"/>
</g>
<g>
	<path class="st62" d="M463,706.4c2.6-2.3,5.6-3.5,9-3.5C469.2,704.6,466.2,705.8,463,706.4z"/>
</g>
<g>
	<path class="st63" d="M427,759.4c0-0.3,0-0.7,0-1c2.5-1.1,5.1-1.3,8-0.5C432.3,758.5,429.6,759,427,759.4z"/>
</g>
<g>
	<path class="st64" d="M753,749.4c-0.5,1.8,0.1,3.5,2,5c-11.9,22.7-26.7,43.4-44.5,62C670.1,857.2,625.2,892,576,920.9   c-29,16.4-58.5,31.9-88.5,46.5c-71.7-32.1-137.2-73.6-196.5-124.5c-14.9-14-28.9-28.9-42-44.5c-0.1-0.4,0.1-0.8,0.5-1   c1.5,1.3,3.4,2,5.5,2c14.8,16.6,30.5,32.5,47,47.5C358.4,893.5,420,932,487,962.4C560.4,929.8,627,887,687,833.9   C713.7,809.3,735.7,781.1,753,749.4z"/>
</g>
<g>
	<path class="st65" d="M541,893.4c0.7,7.7,1.3,15.3,2,23c-0.1,0.5-0.4,0.9-1,1C541,909.4,540.6,901.4,541,893.4z"/>
</g>
</svg>