<?xml version="1.0" encoding="UTF-8" standalone="no"?>
<!-- Created with Inkscape (http://www.inkscape.org/) -->
<svg xmlns:dc="http://purl.org/dc/elements/1.1/" xmlns:cc="http://web.resource.org/cc/" xmlns:rdf="http://www.w3.org/1999/02/22-rdf-syntax-ns#" xmlns:svg="http://www.w3.org/2000/svg" xmlns="http://www.w3.org/2000/svg" xmlns:sodipodi="http://sodipodi.sourceforge.net/DTD/sodipodi-0.dtd" xmlns:inkscape="http://www.inkscape.org/namespaces/inkscape" id="svg2" sodipodi:version="0.32" inkscape:version="0.45.1" width="600" height="430" version="1.0" sodipodi:docbase="C:\Wiki Uploads\To Upload" sodipodi:docname="1990_Football_World_Cup_logo.svg" inkscape:output_extension="org.inkscape.output.svg.inkscape">
  <metadata id="metadata7">
    <rdf:RDF>
      <cc:Work rdf:about="">
        <dc:format>image/svg+xml</dc:format>
        <dc:type rdf:resource="http://purl.org/dc/dcmitype/StillImage"/>
      </cc:Work>
    </rdf:RDF>
  </metadata>
  <defs id="defs5"/>
  <sodipodi:namedview inkscape:window-height="573" inkscape:window-width="744" inkscape:pageshadow="2" inkscape:pageopacity="0.0" guidetolerance="10.0" gridtolerance="10.0" objecttolerance="10.0" borderopacity="1.0" bordercolor="#666666" pagecolor="#ffffff" id="base" showguides="true" inkscape:guide-bbox="true" inkscape:zoom="0.87674419" inkscape:cx="300" inkscape:cy="215" inkscape:window-x="22" inkscape:window-y="29" inkscape:current-layer="svg2"/>
  <path id="path2187" d="M 281.5,291.96405 C 267.60186,290.8044 254.3076,287.25861 238.60833,280.52416 C 235.04,278.99348 234.84967,278.72175 236.31761,277.25382 C 237.78554,275.78589 238.52431,275.7995 245.20928,277.41765 C 259.88266,280.96945 272.74678,280.51595 288.31511,275.89804 L 295.13021,273.87653 L 301.31511,278.96656 C 304.7168,281.76608 310.07036,285.34938 313.21191,286.92945 C 318.21563,289.44611 318.63639,289.87444 316.60558,290.38414 C 314.31966,290.95787 291.97124,293.10914 291,292.84894 C 290.725,292.77527 286.45,292.37707 281.5,291.96405 z M 393.3935,240.25 C 393.09446,239.2875 392.20051,236.7 391.40696,234.5 C 390.08768,230.84249 390.11552,230.39079 391.73207,229.22455 C 399.06573,223.93377 409.58908,212.58224 411.71338,210.38484 C 410.6064,214.38636 409.70904,218.38788 407.88575,222.3894 C 403.82424,229.87448 395.26668,242 394.43135,242 C 394.15959,242 393.69255,241.2125 393.3935,240.25 z M 417,143.08106 C 413.42008,141.03304 398.8903,136.86551 393.05252,136.21227 L 386.68714,135.5 L 384.98834,130.5 C 381.98207,121.65177 378.11813,115.16304 369.58591,104.63465 L 361.23838,94.334154 L 369.28425,81.147834 L 377.33013,67.961513 L 379.58812,70.08278 L 381.8461,72.204048 L 415.1391,126.10377 C 417.81391,134.42143 419.83199,144.04414 418.88592,143.96959 C 418.67367,143.95287 417.825,143.55303 417,143.08106 z M 274.5,108.29671 C 270.08675,107.39305 260.58405,106.81342 248.78475,106.72817 L 230.06951,106.59295 L 229.54261,104.04648 C 228.09838,97.066556 227.01557,81.983534 227.0082,68.743431 L 227,53.986862 L 236.45479,49.290205 L 245.90958,44.593548 L 299.22333,90.180567 C 295.74729,89.82356 293.65989,92.155983 287,103.83868 C 285.075,107.21549 283.05,109.92247 282.5,109.85418 C 281.95,109.7859 278.35,109.08504 274.5,108.29671 z " style="fill:#fe3333" sodipodi:nodetypes="cssscccsssccssccsccccccccccccsccccccccccssc"/>
  <path id="path2185" d="M 192.11281,242.98922 C 173.96637,218.90708 165,193.26586 165,165.45443 L 165,157.05358 L 174.5,157.67761 L 184,158.30165 L 212.48647,225.92029 L 205.99323,238.4424 C 202.42195,245.32955 199.19605,250.97249 198.82456,250.98225 C 198.45306,250.99201 195.43278,247.39515 192.11281,242.98922 z M 300.01886,241.23822 C 292.74472,233.72597 285.66191,224.42053 279.82094,214.70207 L 275.10119,206.84914 L 281.61259,198.31517 C 285.77051,192.86572 290.72201,184.39878 295.31199,174.88957 C 302.9922,158.97823 302.17465,159.78459 308.77132,161.61439 L 359.24118,216.5 L 358.5453,221.7767 L 357.84942,227.05339 L 349.74667,231.12737 C 339.3943,236.33244 326.55404,241.22777 314.81964,244.44325 L 305.57521,246.97643 L 300.01886,241.23822 z " style="fill:#009865" sodipodi:nodetypes="cccccccscccccscccccccc"/>
  <path id="path2183" d="M 29.059588,383.25 C 32.483839,376.7875 37.061936,368.2375 39.233136,364.25 L 43.180774,357 L 52.095391,357 L 61.010008,357 L 51.5,376 L 41.989992,395 L 32.411834,395 L 22.833677,395 L 29.059588,383.25 z M 71,394.15997 C 71,393.65667 73.301991,388.01479 76.115536,381.62244 L 81.231071,370 L 90.115536,370 C 95.001991,370 98.983287,370.3375 98.962859,370.75 C 98.942432,371.1625 96.804932,376.675 94.212859,383 L 89.5,394.5 L 80.25,394.78753 C 75.112785,394.94721 71,394.66818 71,394.15997 z M 119,381.52469 L 139.5,368.08562 L 143.25,371.74576 C 145.3125,373.75883 147,375.78229 147,376.24233 C 147,376.70237 140.8125,381.10727 133.25,386.03099 L 119.5,394.98322 L 109,394.97348 L 98.5,394.96375 L 119,381.52469 z M 171.5,391 L 167.5941,387 L 156.54705,386.99682 L 145.5,386.99363 L 151.5,383 C 154.8,380.8035 158.16374,379.00493 158.97497,379.00318 C 159.78621,379.00143 157.14045,375.66827 153.09552,371.59616 L 145.7411,364.19233 L 151.52164,360.35427 L 157.30217,356.51621 L 175.12966,375.0081 C 184.93478,385.17865 192.96679,393.8375 192.97858,394.25 C 192.99036,394.6625 189.04133,395 184.20295,395 L 175.4059,395 L 171.5,391 z M 203.87994,394.54661 C 203.59223,394.2589 204.76458,385.80571 206.48516,375.76175 L 209.61349,357.5 L 218.30675,357.21107 C 226.11163,356.95166 226.99577,357.10495 226.9586,358.71107 C 226.93583,359.69498 225.90806,368.15 224.67466,377.5 L 222.43212,394.5 L 213.41758,394.78486 C 208.45959,394.94153 204.16765,394.83432 203.87994,394.54661 z M 232.18963,391.25 L 232.5,387.5 L 245.75,387.22097 L 259,386.94195 L 259,390.97097 L 259,395 L 245.43963,395 L 231.87927,395 L 232.18963,391.25 z M 268.67392,394.25 C 268.33831,393.68326 269.52425,358.52287 269.9219,357.25 C 269.96485,357.1125 273.825,357 278.5,357 L 287,357 L 287,376 L 287,395 L 278.05902,395 C 273.14148,395 268.91818,394.6625 268.67392,394.25 z M 297,394.61849 C 297,394.25343 318.68751,374.94025 322.21963,372.15989 C 323.69329,370.99987 324.53208,371.25784 328.46104,374.07941 C 330.95747,375.8722 333,377.46843 333,377.62658 C 333,377.78472 328.68215,381.75844 323.40478,386.45706 L 313.80955,395 L 305.40478,395 C 300.78215,395 297,394.82832 297,394.61849 z M 364,391 L 358.63879,387 L 346.31651,387 L 333.99424,387 L 337.95014,383.42608 C 340.12589,381.46043 343.04244,379.54793 344.43138,379.17608 C 346.78655,378.54556 346.37235,378.07079 338.28419,372.1302 L 329.61166,365.7604 L 334.24762,361.3802 C 336.7974,358.97109 339.24728,357.00493 339.69179,357.01095 C 340.47089,357.02151 388.32657,391.92657 390.38744,393.98744 C 391.07085,394.67085 387.81802,395 380.38061,395 L 369.36121,395 L 364,391 z M 436,394.30268 C 436,393.91915 440.99525,388.54239 447.10055,382.35432 C 453.20585,376.16625 458.02313,370.51754 457.80562,369.80164 C 457.58812,369.08574 455.53978,367.6 453.25377,366.5 C 449.49507,364.69136 447,361.20551 447,357.76288 C 447,355.50737 465.69951,360.47985 471.52709,364.28499 C 479.73158,369.64215 478.78619,373.53509 466.32826,385.69293 L 456.79147,395 L 446.39574,395 C 440.67808,395 436,394.68621 436,394.30268 z M 519.39877,393.61033 C 504.48461,391.17076 492.84489,386.9182 486.5,381.59083 L 483.5,379.07193 L 493,379.04863 C 501.51752,379.02774 503.08872,379.32394 508.19261,381.91264 C 515.50579,385.6219 526.05057,387.37448 537.4632,386.77753 C 546.80916,386.28867 550.97719,384.89267 554.40735,381.10238 C 556.08414,379.24954 557.42718,379 565.72238,379 C 575.01889,379 575.12637,379.0277 574.45245,381.25 C 572.92401,386.29014 567.49708,390.19021 558.5,392.71424 C 551.37002,394.71448 529.24821,395.22145 519.39877,393.61033 z M 430.32405,378.97423 C 417.81348,375.75541 412,371.79784 412,366.5 C 412,360.56639 417.79165,357.48116 430.99781,356.3798 C 438.07361,355.78971 438.82795,355.90183 439.31055,357.61541 C 439.60246,358.65193 440.13234,360.5125 440.48804,361.75 C 441.06067,363.74219 440.77578,364 438.00165,364 C 433.84446,364 431,365.62503 431,368 C 431,370.21976 433.66644,371.86703 439.787,373.42839 L 444.08537,374.52492 L 440.79269,377.67272 L 437.5,380.82051 L 430.32405,378.97423 z M 482,371.0348 C 482,367.66029 487.72985,362.24477 493.63977,360.03359 C 514.40701,352.26357 559.58168,358.34576 570.94532,370.44179 L 573.34863,373 L 563.58204,373 C 555.29768,373 553.42576,372.69346 551.24765,370.98016 C 543.05518,364.53596 516.49061,362.0494 506.79617,366.81931 C 504.20906,368.09223 501.81624,370.00363 501.47878,371.06686 C 500.92943,372.79772 499.87823,373 491.43261,373 C 482.72234,373 482,372.84951 482,371.0348 z M 389.68329,368.32232 C 389.40972,367.32004 388.8977,365.15 388.54546,363.5 C 388.19322,361.85 387.67107,359.7125 387.38512,358.75 C 386.9156,357.16958 387.78661,357 396.3736,357 C 401.6032,357 406.0806,357.3375 406.32339,357.75 C 406.56617,358.1625 407.04845,359.85 407.39513,361.5 C 408.02196,364.48335 407.98426,364.51247 400.60335,366.74661 C 396.52119,367.98225 392.50611,369.25229 391.68096,369.56893 C 390.75493,369.92428 389.9903,369.44713 389.68329,368.32232 z M 67.701391,360.5 L 69.370425,357 L 95.685212,357 C 110.15835,357 122,357.15785 122,357.35078 C 122,357.5437 121.50598,359.1187 120.90217,360.85078 L 119.80435,364 L 92.918353,364 L 66.032357,364 L 67.701391,360.5 z M 298,272.30554 C 282.27228,270.62317 254.26871,261.63133 255.31229,258.59868 C 255.80279,257.17327 259.32195,257.39847 271.17884,259.61405 C 279.60838,261.18919 282.06083,261.27009 290.17884,260.24084 C 295.30548,259.59086 302.73869,258.08322 306.69708,256.89054 L 313.89416,254.72202 L 319.91288,259.61101 C 323.22317,262.29995 328.44515,265.90066 331.51727,267.61257 L 337.10295,270.72514 L 328.23375,271.86257 C 319.8758,272.93444 305.80637,273.14057 298,272.30554 z M 213.77031,227.49343 C 208.51523,221.62074 201.45222,210.85502 196.8525,201.70664 C 188.43836,184.97175 184,166.50532 184,148.232 L 184,137.72598 L 193.75,138.38134 C 199.1125,138.74179 207.60625,139.31097 212.625,139.64618 L 221.75,140.25567 L 222.39182,146.52017 C 223.66059,158.90404 228.71868,169.67366 237.69747,179.10875 L 243.03498,184.7175 L 230.91212,207.60875 C 224.24454,220.19894 218.49917,230.76133 218.14463,231.08073 C 217.79008,231.40013 215.82164,229.78585 213.77031,227.49343 z M 316.98106,220.24845 C 310.40359,213.15326 294,189.98854 294,187.7952 C 294,187.28365 296.00454,184.40432 298.45454,181.39669 C 304.38557,174.11572 311.86226,161.59437 317.05268,150.25 C 319.38038,145.1625 321.78327,141.00574 322.39243,141.01277 C 323.00159,141.01979 326.96046,142.13076 331.1899,143.48158 C 340.66598,146.50812 355.38458,149.54809 368.12266,151.10966 L 377.74533,152.2893 L 378.37266,158.29134 C 379.35522,167.69193 379.11003,186.96073 377.86897,197.87482 L 376.73793,207.82133 L 366.11897,213.04819 C 357.0576,217.50837 335.76404,225.27076 326.83207,227.36991 C 324.47387,227.92412 323.33019,227.09733 316.98106,220.24845 z M 412.40178,220.3419 C 412.02643,218.77885 411.05475,216.18288 410.24249,214.57307 C 408.82199,211.75779 408.87502,211.56883 411.63283,209.61941 C 413.20977,208.5047 418.25267,203.97182 422.83927,199.54633 L 431.17855,191.5 L 428.5978,197.35516 C 425.85201,203.58475 420.37695,213.02136 415.84124,219.3419 L 413.08423,223.1838 L 412.40178,220.3419 z M 426.5,120.3836 C 421,118.56364 413.97642,116.8084 410.89205,116.48308 C 405.3263,115.89603 405.27464,115.86 404.02851,111.69579 C 401.70551,103.93302 396.99736,96.014023 388.39162,85.3949 C 380.74392,75.957965 379.988,74.661153 381.26512,73.169099 C 382.05088,72.251094 385.74184,66.395266 389.46725,60.156146 L 396.24073,48.812293 L 401.24086,53.656146 C 412.94517,64.994655 423.29589,80.174744 429.75639,95.476287 C 432.62434,102.26894 438,120.28856 438,123.10948 C 438,124.22783 438.41389,124.32594 426.5,120.3836 z M 288,88.315375 C 281.17077,87.386261 272.51579,87.045125 263.24299,87.339576 C 249.30506,87.782166 248.97489,87.744266 248.49076,85.646149 C 247.12941,79.746337 246.01555,63.907541 246.0082,50.345022 L 246,35.190044 L 250.28321,32.679915 C 260.66207,26.597498 280.23463,20.017292 292.5,18.48682 C 297.27499,17.890996 297.8458,18.09165 305.18422,22.945681 C 314.09274,28.838262 322.93399,37.353871 328.43298,45.338158 L 332.29438,50.944746 L 325.88605,57.737915 C 317.71737,66.397141 311.36389,74.714741 306.41301,83.230845 C 303.55022,88.155187 301.96322,89.932462 300.5,89.852793 C 299.4,89.792899 293.775,89.101061 288,88.315375 z " style="fill:#333333"/>
</svg>