<?xml version="1.0" encoding="UTF-8" standalone="no"?>
<!-- Generator: Adobe Illustrator 12.0.0, SVG Export Plug-In . SVG Version: 6.00 Build 51448)  -->
<svg xmlns:dc="http://purl.org/dc/elements/1.1/" xmlns:cc="http://creativecommons.org/ns#" xmlns:rdf="http://www.w3.org/1999/02/22-rdf-syntax-ns#" xmlns:svg="http://www.w3.org/2000/svg" xmlns="http://www.w3.org/2000/svg" xmlns:sodipodi="http://sodipodi.sourceforge.net/DTD/sodipodi-0.dtd" xmlns:inkscape="http://www.inkscape.org/namespaces/inkscape" version="1.1" id="Layer_1" width="326.5" height="306.3" viewBox="0 0 500 469.04466" overflow="visible" enable-background="new 0 0 557.922 702.992" xml:space="preserve" inkscape:version="0.48.0 r9654" sodipodi:docname="FIFA_World_Cup_1994.svg" style="overflow:visible"><metadata id="metadata117"><rdf:RDF><cc:Work rdf:about=""><dc:format>image/svg+xml</dc:format><dc:type rdf:resource="http://purl.org/dc/dcmitype/StillImage"/></cc:Work></rdf:RDF></metadata><defs id="defs115"><inkscape:perspective sodipodi:type="inkscape:persp3d" inkscape:vp_x="0 : 351.496 : 1" inkscape:vp_y="0 : 1000 : 0" inkscape:vp_z="557.922 : 351.496 : 1" inkscape:persp3d-origin="278.961 : 234.33067 : 1" id="perspective119"/><inkscape:perspective id="perspective2850" inkscape:persp3d-origin="0.5 : 0.33333333 : 1" inkscape:vp_z="1 : 0.5 : 1" inkscape:vp_y="0 : 1000 : 0" inkscape:vp_x="0 : 0.5 : 1" sodipodi:type="inkscape:persp3d"/><inkscape:perspective id="perspective2956" inkscape:persp3d-origin="0.5 : 0.33333333 : 1" inkscape:vp_z="1 : 0.5 : 1" inkscape:vp_y="0 : 1000 : 0" inkscape:vp_x="0 : 0.5 : 1" sodipodi:type="inkscape:persp3d"/></defs><sodipodi:namedview pagecolor="#ffffff" bordercolor="#666666" borderopacity="1" objecttolerance="10" gridtolerance="10" guidetolerance="10" inkscape:pageopacity="0" inkscape:pageshadow="2" inkscape:window-width="1854" inkscape:window-height="1058" id="namedview113" showgrid="false" inkscape:zoom="0.67141589" inkscape:cx="329.56928" inkscape:cy="-17.941048" inkscape:window-x="58" inkscape:window-y="-8" inkscape:window-maximized="1" inkscape:current-layer="Layer_1" fit-margin-top="0" fit-margin-left="0" fit-margin-right="0" fit-margin-bottom="0"/>
<g transform="scale(0.98696515,1.013207)" style="font-size:71.9391861px;font-style:normal;font-weight:normal;fill:#000000;fill-opacity:1;stroke:none;font-family:Univers LT 67 CondensedBoldObl;-inkscape-font-specification:Univers LT 67 CondensedBoldObl" id="text2816"><path d="m 29.029165,14.865356 11.150486,0 -0.862796,36.472342 0.144897,0 15.826709,-36.472342 12.803629,0 0.144897,36.472342 0.144897,0 14.098921,-36.472342 10.647738,0 -22.300972,51.939003 -12.015478,0 -0.287599,-37.984979 -0.142701,0 -16.834402,37.984979 -11.798132,0 z" style="" id="path3034"/><path d="m 101.3767,61.050191 c 0.9118,5e-6 1.71532,-0.180018 2.41056,-0.540071 0.69519,-0.360041 1.31868,-1.03147 1.87049,-2.014289 0.55175,-0.982802 1.07938,-2.349809 1.58289,-4.101025 0.50345,-1.751191 1.04279,-4.017218 1.61801,-6.798086 0.33661,-1.582138 0.6125,-2.985004 0.82767,-4.208601 0.21513,-1.22355 0.3227,-2.314668 0.32273,-3.273356 -3e-5,-1.295263 -0.26348,-2.266365 -0.79035,-2.913308 -0.52692,-0.646884 -1.41387,-0.970341 -2.66084,-0.970371 -1.10358,3e-5 -2.01504,0.239695 -2.73438,0.718996 -0.71938,0.479361 -1.3308,1.186648 -1.83426,2.121864 -0.5035,0.935271 -0.94734,2.122255 -1.33152,3.560954 -0.38421,1.438748 -0.768044,3.093354 -1.151491,4.963822 -0.478616,2.253971 -0.837931,4.148241 -1.077946,5.682818 -0.240048,1.534603 -0.360063,2.829528 -0.360048,3.884777 -1.5e-5,1.535332 0.275874,2.566807 0.82767,3.09443 0.551762,0.527636 1.378695,0.791451 2.480815,0.791446 z m -1.36555,6.474263 c -2.302266,-1e-6 -4.220686,-0.240032 -5.755264,-0.720095 -1.534602,-0.480062 -2.769518,-1.163566 -3.704754,-2.050512 -0.935252,-0.886943 -1.594971,-1.965986 -1.979161,-3.237132 -0.384203,-1.271136 -0.576301,-2.697785 -0.576296,-4.279951 -5e-6,-1.34358 0.107936,-2.770595 0.323823,-4.281049 0.215876,-1.510427 0.515549,-3.105024 0.899021,-4.783798 0.528354,-2.493964 1.176365,-4.855857 1.944035,-7.085685 0.767652,-2.229776 1.83462,-4.184055 3.200907,-5.862842 1.366264,-1.678723 3.128444,-3.009872 5.286547,-3.99345 2.158072,-0.983507 4.915862,-1.475278 8.273402,-1.475315 2.35052,3.7e-5 4.30517,0.252143 5.86394,0.756318 1.55871,0.504249 2.79362,1.199827 3.70475,2.086737 0.91106,0.886979 1.54627,1.953947 1.90562,3.200908 0.35928,1.247022 0.53893,2.614029 0.53897,4.101025 -4e-5,1.247019 -0.0959,2.565727 -0.2876,3.956129 -0.19177,1.390447 -0.45522,2.829171 -0.79034,4.316175 -0.57524,2.829167 -1.27045,5.430725 -2.08564,7.804682 -0.81527,2.373978 -1.91846,4.412414 -3.30958,6.115313 -1.39119,1.70291 -3.16581,3.034058 -5.32387,3.993451 -2.15811,0.959394 -4.86761,1.43909 -8.12851,1.439091 z" style="" id="path3036"/><path d="m 139.36168,30.474719 -0.93525,4.676223 0.1427,0 c 1.39187,-2.110487 2.98684,-3.537502 4.7849,-4.281049 1.79801,-0.743475 3.72814,-1.115231 5.79039,-1.115268 l -1.94074,9.064847 c -0.24006,2.8e-5 -0.45594,-0.01205 -0.64765,-0.03622 -0.19176,-0.02412 -0.40764,-0.0362 -0.64764,-0.03622 -1.91882,2.8e-5 -3.45377,0.275918 -4.60487,0.82767 -1.15115,0.551806 -2.06225,1.235309 -2.73329,2.050512 -0.67108,0.815253 -1.15078,1.702564 -1.43909,2.661935 -0.28835,0.959415 -0.50423,1.870875 -0.64765,2.734382 l -4.10102,19.782837 -10.14279,0 7.48195,-36.32964 z" style="" id="path3038"/><path d="m 167.92395,14.865356 -10.79043,51.939003 -10.14499,0 10.79044,-51.939003 z" style="" id="path3040"/><path d="m 180.75393,61.265341 c 0.86351,5e-6 1.61873,-0.251735 2.26567,-0.755221 0.64689,-0.503474 1.22209,-1.270769 1.72559,-2.301887 0.50346,-1.031102 0.97108,-2.36225 1.40287,-3.993451 0.43174,-1.631175 0.88765,-3.597162 1.36774,-5.897968 0.38344,-1.727035 0.70689,-3.309924 0.97037,-4.748671 0.26342,-1.438701 0.39514,-2.709842 0.39517,-3.813427 -3e-5,-1.198665 -0.21554,-2.121834 -0.64655,-2.769509 -0.43105,-0.647616 -1.19835,-0.971438 -2.30188,-0.971469 -1.10359,3.1e-5 -2.00297,0.299704 -2.69816,0.89902 -0.69524,0.599376 -1.29458,1.438754 -1.79804,2.518135 -0.5035,1.079436 -0.92319,2.374361 -1.25907,3.884778 -0.33592,1.510464 -0.6956,3.17751 -1.07904,5.001143 -0.38349,2.013939 -0.69523,3.740261 -0.93525,5.178972 -0.24005,1.438737 -0.36006,2.685728 -0.36005,3.740978 -1e-5,2.685725 0.98353,4.028582 2.95063,4.028577 z m 3.45338,5.539018 0.79035,-4.028576 -0.1449,0 c -1.29385,1.773893 -2.72013,3.00881 -4.27885,3.704754 -1.55876,0.695944 -3.32167,1.043916 -5.28874,1.043917 -1.53387,-1e-6 -2.79257,-0.227957 -3.77611,-0.68387 -0.98355,-0.455913 -1.76292,-1.067334 -2.33811,-1.834265 -0.5752,-0.766927 -0.98282,-1.678021 -1.22284,-2.733285 -0.24004,-1.055255 -0.36005,-2.158813 -0.36005,-3.310678 0,-1.725583 0.18002,-3.523621 0.54007,-5.394122 0.36004,-1.870474 0.70765,-3.597528 1.04282,-5.181167 0.38346,-1.82217 0.83901,-3.824381 1.36665,-6.006641 0.52762,-2.18221 1.2832,-4.208572 2.26676,-6.079089 0.98353,-1.870457 2.29053,-3.429196 3.921,-4.676223 1.63044,-1.246956 3.71608,-1.870452 6.25692,-1.870489 1.82363,3.7e-5 3.32272,0.311785 4.49729,0.935244 1.17452,0.623532 2.14599,1.702941 2.91441,3.23823 l 0.1427,0 3.95613,-19.062743 10.14499,0 -10.79264,51.939003 z" style="" id="path3042"/><path d="m 219.74441,67.667155 c -2.82917,0 -5.16728,-0.311748 -7.01434,-0.935244 -1.84708,-0.623496 -3.32203,-1.486657 -4.42484,-2.589486 -1.10284,-1.102824 -1.87014,-2.433606 -2.30189,-3.992352 -0.43177,-1.558733 -0.64766,-3.249197 -0.64765,-5.071397 -1e-5,-2.158806 0.21588,-4.448982 0.64765,-6.870535 0.43175,-2.421516 0.91182,-4.879274 1.44019,-7.373283 0.71862,-3.454082 1.49762,-6.787443 2.33701,-10.000092 0.83937,-3.212577 2.07428,-6.065875 3.70475,-8.559902 1.63044,-2.493939 3.82475,-4.496516 6.58294,-6.007739 2.75814,-1.511122 6.36703,-2.266708 10.82666,-2.26676 4.36444,5.2e-5 7.52985,0.899438 9.49625,2.698158 1.96631,1.798821 2.94949,4.424528 2.94953,7.87713 -4e-5,0.960167 -0.0842,2.003718 -0.25247,3.130655 -0.16836,1.127014 -0.39595,2.313998 -0.68277,3.560954 l -10.64774,0 c 0.48003,-2.207081 0.72006,-4.05415 0.72009,-5.541214 -3e-5,-1.390384 -0.25177,-2.397344 -0.75522,-3.020884 -0.50351,-0.623451 -1.30703,-0.935199 -2.41056,-0.935244 -1.53389,4.5e-5 -2.82844,0.3718 -3.88368,1.115268 -1.05528,0.743555 -1.99053,1.882606 -2.80573,3.417155 -0.81525,1.53463 -1.54669,3.513058 -2.19431,5.93529 -0.64767,2.422301 -1.30739,5.28804 -1.97916,8.597225 -0.62352,2.877473 -1.10322,5.39524 -1.4391,7.553307 -0.33591,2.158104 -0.50386,4.004808 -0.50384,5.540116 -2e-5,2.062233 0.35966,3.572673 1.07904,4.531326 0.71934,0.95867 1.9667,1.438 3.74208,1.437993 1.24697,7e-6 2.27808,-0.359674 3.09333,-1.079043 0.8152,-0.719354 1.48663,-1.606665 2.01429,-2.661935 0.5276,-1.055248 0.94729,-2.206008 1.25907,-3.452282 0.31171,-1.246245 0.5876,-2.373587 0.82767,-3.382028 l 10.71799,0 c -0.71868,3.454125 -1.66563,6.356088 -2.84086,8.705897 -1.17532,2.349827 -2.56647,4.244097 -4.17348,5.682818 -1.60707,1.438727 -3.45341,2.457762 -5.53902,3.057108 -2.08566,0.599346 -4.39962,0.89902 -6.94188,0.89902 z" style="" id="path3044"/><path d="m 260.57904,63.13583 -0.14271,0 c -1.34361,1.630459 -2.7827,2.76951 -4.31727,3.417155 -1.53461,0.647645 -3.26129,0.971468 -5.18007,0.971469 -2.15736,-1e-6 -3.9554,-0.539705 -5.39412,-1.619115 -1.43873,-1.079408 -2.15809,-2.626072 -2.15809,-4.639998 0,-0.240026 0,-0.504207 0,-0.792543 0,-0.28686 0.0476,-0.574459 0.1427,-0.862796 l 6.04397,-29.135283 10.14279,0 -5.17897,25.179154 c -0.24005,1.10357 -0.36006,1.990514 -0.36005,2.660837 -1e-5,0.911834 0.22794,1.631562 0.68387,2.159185 0.4559,0.527636 1.2349,0.791451 2.33702,0.791446 1.63043,5e-6 2.76948,-0.527624 3.41715,-1.582891 0.64762,-1.055252 1.16318,-2.398109 1.54667,-4.028577 l 5.18116,-25.179154 10.1428,0 -6.04397,29.135283 c -0.47863,2.350557 -0.83794,4.748673 -1.07794,7.194357 l -10.50284,0 z" style="" id="path3046"/><path d="m 293.45529,61.265341 c 0.91181,5e-6 1.70325,-0.251735 2.37434,-0.755221 0.67104,-0.503474 1.27039,-1.270769 1.79804,-2.301887 0.52761,-1.031102 1.0073,-2.36225 1.43909,-3.993451 0.43174,-1.631175 0.88765,-3.597162 1.36774,-5.897968 0.38344,-1.678736 0.69519,-3.237476 0.93525,-4.676223 0.24,-1.4387 0.36001,-2.709841 0.36004,-3.813426 -3e-5,-1.246965 -0.22798,-2.194283 -0.68387,-2.841958 -0.45594,-0.647616 -1.25909,-0.971438 -2.40946,-0.971469 -1.05528,3.1e-5 -1.91881,0.299704 -2.59058,0.89902 -0.67182,0.599376 -1.24738,1.438754 -1.72669,2.518135 -0.47935,1.079436 -0.88697,2.374361 -1.22285,3.884778 -0.33591,1.510464 -0.69559,3.17751 -1.07904,5.001143 -0.38348,2.013939 -0.69523,3.764045 -0.93524,5.250322 -0.24005,1.486305 -0.36007,2.75708 -0.36005,3.812329 -2e-5,2.590591 0.91108,3.885881 2.73328,3.885876 z m 1.72779,-30.790622 -0.79254,4.028577 0.14489,0 c 1.29527,-1.773857 2.72229,-3.008774 4.28105,-3.704754 1.55872,-0.695908 3.3209,-1.04388 5.28655,-1.043917 1.48699,3.7e-5 2.73398,0.227993 3.74098,0.68387 1.00692,0.455949 1.79837,1.067736 2.37433,1.835362 0.5759,0.767696 0.98351,1.67879 1.22285,2.733286 0.23926,1.054559 0.35891,2.157751 0.35895,3.30958 -4e-5,1.727082 -0.1797,3.525487 -0.53898,5.395219 -0.35935,1.869779 -0.70732,3.596467 -1.04391,5.180069 -0.3835,1.822207 -0.83905,3.824418 -1.36665,6.006641 -0.52766,2.182247 -1.28288,4.208609 -2.26566,6.07909 -0.98284,1.870493 -2.28948,3.429232 -3.9199,4.676223 -1.63049,1.246992 -3.71686,1.870488 -6.25912,1.870489 -1.82221,-1e-6 -3.32094,-0.311749 -4.4962,-0.935245 -1.17529,-0.623495 -2.14639,-1.702904 -2.9133,-3.238229 l -0.1449,0 -3.95613,19.064938 -10.14279,0 10.79044,-51.941199 z" style="" id="path3048"/></g>
<g id="g3742" transform="translate(345.57366,235.24542)"><path transform="matrix(0.33318672,0,0,0.33202129,-619.91863,-139.0504)" style="fill:#2e3192;fill-opacity:1;stroke:none" d="m 2169.1097,-20.198189 c 0,5.852782 -4.6267,10.597399 -10.3341,10.597399 -5.7073,0 -10.3341,-4.744617 -10.3341,-10.597399 0,-5.852782 4.6268,-10.597399 10.3341,-10.597399 5.7074,0 10.3341,4.744617 10.3341,10.597399 z" id="path3795"/><path transform="matrix(0.33318672,0,0,0.33202129,-631.49468,-138.74324)" style="fill:#2e3192;fill-opacity:1;stroke:none" d="m 2169.1097,-20.198189 c 0,5.852782 -4.6267,10.597399 -10.3341,10.597399 -5.7073,0 -10.3341,-4.744617 -10.3341,-10.597399 0,-5.852782 4.6268,-10.597399 10.3341,-10.597399 5.7074,0 10.3341,4.744617 10.3341,10.597399 z" id="path3795-7"/><path transform="matrix(0.33318672,0,0,0.33202129,-607.07061,-138.71808)" style="fill:#2e3192;fill-opacity:1;stroke:none" d="m 2169.1097,-20.198189 c 0,5.852782 -4.6267,10.597399 -10.3341,10.597399 -5.7073,0 -10.3341,-4.744617 -10.3341,-10.597399 0,-5.852782 4.6268,-10.597399 10.3341,-10.597399 5.7074,0 10.3341,4.744617 10.3341,10.597399 z" id="path3795-3"/><path transform="matrix(0.33318672,0,0,0.33202129,-595.55315,-138.71808)" style="fill:#2e3192;fill-opacity:1;stroke:none" d="m 2169.1097,-20.198189 c 0,5.852782 -4.6267,10.597399 -10.3341,10.597399 -5.7073,0 -10.3341,-4.744617 -10.3341,-10.597399 0,-5.852782 4.6268,-10.597399 10.3341,-10.597399 5.7074,0 10.3341,4.744617 10.3341,10.597399 z" id="path3795-33"/><path transform="matrix(0.33318672,0,0,0.33202129,-583.73259,-139.02009)" style="fill:#2e3192;fill-opacity:1;stroke:none" d="m 2169.1097,-20.198189 c 0,5.852782 -4.6267,10.597399 -10.3341,10.597399 -5.7073,0 -10.3341,-4.744617 -10.3341,-10.597399 0,-5.852782 4.6268,-10.597399 10.3341,-10.597399 5.7074,0 10.3341,4.744617 10.3341,10.597399 z" id="path3795-9"/><path transform="matrix(0.33318672,0,0,0.33202129,-643.0879,-138.91943)" style="fill:#2e3192;fill-opacity:1;stroke:none" d="m 2169.1097,-20.198189 c 0,5.852782 -4.6267,10.597399 -10.3341,10.597399 -5.7073,0 -10.3341,-4.744617 -10.3341,-10.597399 0,-5.852782 4.6268,-10.597399 10.3341,-10.597399 5.7074,0 10.3341,4.744617 10.3341,10.597399 z" id="path3795-1"/><path transform="matrix(0.33318672,0,0,0.33202129,-654.41349,-139.12077)" style="fill:#2e3192;fill-opacity:1;stroke:none" d="m 2169.1097,-20.198189 c 0,5.852782 -4.6267,10.597399 -10.3341,10.597399 -5.7073,0 -10.3341,-4.744617 -10.3341,-10.597399 0,-5.852782 4.6268,-10.597399 10.3341,-10.597399 5.7074,0 10.3341,4.744617 10.3341,10.597399 z" id="path3795-5"/><path transform="matrix(0.33318672,0,0,0.33202129,-666.17333,-138.86909)" style="fill:#2e3192;fill-opacity:1;stroke:none" d="m 2169.1097,-20.198189 c 0,5.852782 -4.6267,10.597399 -10.3341,10.597399 -5.7073,0 -10.3341,-4.744617 -10.3341,-10.597399 0,-5.852782 4.6268,-10.597399 10.3341,-10.597399 5.7074,0 10.3341,4.744617 10.3341,10.597399 z" id="path3795-8"/><path transform="matrix(0.33318672,0,0,0.33202129,-748.96765,-138.86909)" style="fill:#2e3192;fill-opacity:1;stroke:none" d="m 2169.1097,-20.198189 c 0,5.852782 -4.6267,10.597399 -10.3341,10.597399 -5.7073,0 -10.3341,-4.744617 -10.3341,-10.597399 0,-5.852782 4.6268,-10.597399 10.3341,-10.597399 5.7074,0 10.3341,4.744617 10.3341,10.597399 z" id="path3795-88"/><path transform="matrix(0.33318672,0,0,0.33202129,-736.69251,-138.91943)" style="fill:#2e3192;fill-opacity:1;stroke:none" d="m 2169.1097,-20.198189 c 0,5.852782 -4.6267,10.597399 -10.3341,10.597399 -5.7073,0 -10.3341,-4.744617 -10.3341,-10.597399 0,-5.852782 4.6268,-10.597399 10.3341,-10.597399 5.7074,0 10.3341,4.744617 10.3341,10.597399 z" id="path3795-0"/><path transform="matrix(0.33318672,0,0,0.33202129,-725.52863,-138.81875)" style="fill:#2e3192;fill-opacity:1;stroke:none" d="m 2169.1097,-20.198189 c 0,5.852782 -4.6267,10.597399 -10.3341,10.597399 -5.7073,0 -10.3341,-4.744617 -10.3341,-10.597399 0,-5.852782 4.6268,-10.597399 10.3341,-10.597399 5.7074,0 10.3341,4.744617 10.3341,10.597399 z" id="path3795-2"/><path transform="matrix(0.33318672,0,0,0.33202129,-713.50605,-138.71808)" style="fill:#2e3192;fill-opacity:1;stroke:none" d="m 2169.1097,-20.198189 c 0,5.852782 -4.6267,10.597399 -10.3341,10.597399 -5.7073,0 -10.3341,-4.744617 -10.3341,-10.597399 0,-5.852782 4.6268,-10.597399 10.3341,-10.597399 5.7074,0 10.3341,4.744617 10.3341,10.597399 z" id="path3795-4"/><path transform="matrix(0.33318672,0,0,0.33202129,-701.43292,-138.91943)" style="fill:#2e3192;fill-opacity:1;stroke:none" d="m 2169.1097,-20.198189 c 0,5.852782 -4.6267,10.597399 -10.3341,10.597399 -5.7073,0 -10.3341,-4.744617 -10.3341,-10.597399 0,-5.852782 4.6268,-10.597399 10.3341,-10.597399 5.7074,0 10.3341,4.744617 10.3341,10.597399 z" id="path3795-43"/><path transform="matrix(0.33318672,0,0,0.33202129,-690.42059,-138.91943)" style="fill:#2e3192;fill-opacity:1;stroke:none" d="m 2169.1097,-20.198189 c 0,5.852782 -4.6267,10.597399 -10.3341,10.597399 -5.7073,0 -10.3341,-4.744617 -10.3341,-10.597399 0,-5.852782 4.6268,-10.597399 10.3341,-10.597399 5.7074,0 10.3341,4.744617 10.3341,10.597399 z" id="path3795-36"/><path transform="matrix(0.33318672,0,0,0.33202129,-678.49905,-138.81875)" style="fill:#2e3192;fill-opacity:1;stroke:none" d="m 2169.1097,-20.198189 c 0,5.852782 -4.6267,10.597399 -10.3341,10.597399 -5.7073,0 -10.3341,-4.744617 -10.3341,-10.597399 0,-5.852782 4.6268,-10.597399 10.3341,-10.597399 5.7074,0 10.3341,4.744617 10.3341,10.597399 z" id="path3795-76"/><path sodipodi:nodetypes="ccccssssscscccssccsssssssscccsscccscccccssscscccsscccssscccscccssssssssssssssssssscccsccsssssssssssscccsc" id="path2946" d="m -249.2536,181.44838 c -18.16707,-1.71079 -39.3494,-6.15163 -58.52542,-12.26979 l -12.35348,-3.94142 0,-20.61331 c 0,-11.3373 0.28993,-20.6133 0.6443,-20.6133 1.08831,0 6.48372,2.79726 6.11125,3.1684 -0.19251,0.19185 0.4147,0.39448 1.34938,0.45029 0.93469,0.0556 6.81729,1.85807 13.07248,4.00508 6.25516,2.147 13.84373,4.4635 16.86347,5.1478 29.46656,6.67743 38.05432,7.76626 61.17916,7.75698 10.3534,-0.004 21.07765,-0.20738 23.80847,-0.33372 l 5.60827,-0.25946 10.14,11.78598 9.6725,11.16381 8.11213,9.14956 c 1.20919,1.36383 -16.91812,4.18327 -29.44789,5.3673 -15.13337,1.43009 -41.252,1.4467 -56.23462,0.0358 z m 382.67562,-8.73354 c -1.78756,-1.15503 -3.10908,-2.32744 -2.93673,-2.60536 0.17238,-0.27791 -0.11227,-0.50773 -0.63254,-0.5107 -0.52025,-0.003 -4.12253,-1.79076 -8.00506,-3.9729 -7.79912,-4.38343 -24.341918,-12.08121 -28.628701,-13.32162 -1.509881,-0.43691 -5.79458,-1.8685 -9.521593,-3.18133 C 75.620995,146.278 50.756804,139.73821 44.620419,138.8449 39.962052,138.16673 22.071014,135.16962 18.513828,134.4715 16.938002,134.16224 13.573918,130.78379 5.9642572,121.86837 0.2461145,115.16903 -7.485839,106.13973 -11.217872,101.80327 l -6.785502,-7.884469 2.863765,-0.25877 c 3.225913,-0.29146 31.317743,1.85554 39.728128,3.03634 27.832893,3.907699 53.843544,10.009109 76.081771,17.846759 10.81555,3.81183 22.73763,8.83384 31.83418,13.40971 l 4.638,2.33306 0,22.26449 c 0,12.24545 -0.10583,22.26447 -0.23516,22.26447 -0.12934,0 -1.69773,-0.945 -3.48529,-2.10002 z m -370.80579,-62.84135 c -22.90189,-1.51682 -50.73349,-8.45373 -72.94438,-18.181039 l -9.41218,-4.122081 -0.20829,-22.032542 c -0.11456,-12.117898 -0.0366,-22.032538 0.17349,-22.032538 0.21,0 3.12737,1.622448 6.48309,3.605433 14.16401,8.369931 40.73663,18.93535 51.02282,20.286954 2.27449,0.298872 5.90003,0.854497 6.13587,1.234735 11.72121,13.095557 25.70043,28.718369 36.97189,41.966438 0.56334,0.66211 -4.8284,0.16175 -18.22231,-0.72536 z M 133.22074,91.245171 C 115.49066,83.960254 98.24333,78.214716 79.492892,73.347026 65.890577,69.815806 63.599782,69.326153 46.158095,66.221816 19.631181,61.500455 15.956055,61.20146 -16.271864,61.1428 L -46.151374,61.0884 -58.23449,47.161866 C -72.009054,31.285841 -75.86271,26.321557 -74.441775,26.283648 c 1.485945,-0.03963 15.608081,-1.36393 24.80236,-2.325836 50.6271483,-5.2966 107.728148,1.63375 165.212315,20.051802 7.33366,2.349722 15.18092,5.044033 17.43836,5.987363 l 4.10444,1.715149 0.0134,20.517122 c 0.008,11.284413 -0.0748,20.505643 -0.18268,20.491633 -0.10785,-0.014 -1.7844,-0.6781 -3.72566,-1.47573 z M 131.65205,16.394918 C 129.27939,15.310894 124.338,13.371804 120.67118,12.085829 117.00435,10.799855 112.94534,9.2606519 111.65117,8.6653719 108.83129,7.3683309 85.197741,0.30386475 79.100714,-1.064497 76.728057,-1.5969932 72.316107,-2.6614172 69.296365,-3.4298653 56.168006,-6.7707411 34.395365,-10.318264 12.0994,-12.749259 c -21.246661,-2.31658 -43.961674,-1.687242 -71.828309,1.990068 -21.383673,2.8218042 -25.247519,3.5325103 -35.687831,6.5643073 -5.07976,1.4751193 -5.56191,1.497741 -6.44576,0.3023865 -0.52542,-0.710598 -0.7356,-1.6462468 -0.46707,-2.0792162 0.26853,-0.4329704 0.14817,-0.5777861 -0.26747,-0.3218044 -1.08293,0.6669445 -5.20475,-3.9141272 -4.51802,-5.0213962 0.32174,-0.51878 0.23004,-0.707335 -0.21171,-0.435276 -0.42865,0.263989 -2.38381,-1.352344 -4.34481,-3.591855 -11.03276,-12.599651 -14.76716,-17.241603 -14.50941,-18.03563 0.35918,-1.106446 5.00888,-3.356663 8.95746,-4.334925 1.64034,-0.406406 7.31763,-1.980009 12.61622,-3.496915 10.03569,-2.873063 29.871204,-6.484209 48.015792,-8.741505 12.66881,-1.576075 44.4884,-2.498418 60.6272281,-1.757378 34.9927149,1.606747 87.4672119,12.205224 120.1650299,24.270201 3.45112,1.273415 7.77486,2.856236 9.60826,3.517376 l 3.33347,1.202091 0,20.6063368 c 0,11.3334871 -0.2647,20.5775152 -0.58825,20.5422972 -0.32355,-0.03525 -2.52952,-0.95097 -4.90217,-2.034986 z m -5.39082,-76.210009 C 98.70648,-70.878494 62.965093,-78.361704 17.137212,-82.662516 c -31.162012,-2.92446 -48.203543,-2.37594 -96.082647,3.092577 -10.087246,1.152121 -20.935905,3.129329 -40.351875,7.354321 -4.07509,0.886754 -7.66,1.347223 -7.96643,1.023257 -0.30645,-0.323969 -0.72019,-1.820066 -0.91942,-3.324652 -0.57378,-4.333142 -4.87158,-16.366964 -8.69332,-24.341339 -1.92782,-4.022498 -3.42436,-7.395138 -3.32565,-7.494718 0.0988,-0.0995 7.74511,-1.91581 16.992,-4.03604 16.12814,-3.69807 38.126204,-7.25361 61.52035,-9.94344 15.292703,-1.75835 68.5777389,-2.16179 83.925252,-0.63542 17.867938,1.77706 49.332093,6.43969 60.750556,9.00257 5.843831,1.31163 13.625256,3.03782 17.292082,3.83599 7.53969,1.64112 31.42653,8.97864 34.70741,10.661349 l 2.15695,1.106255 0,20.301654 c 0,11.165912 -0.2647,20.265636 -0.58825,20.221607 -0.32355,-0.044 -4.95539,-1.833464 -10.29299,-3.976546 z" style="fill:#ee3324;fill-opacity:1" inkscape:connector-curvature="0"/><path sodipodi:nodetypes="csssssssssssssssccsssssscccsssssssssssccsssscccssssssssssssssccccsccccccsscccccccccscccccsscccccssccccsscccssccccccscccssscccscccsssscc" id="path2946-1" d="m -109.50134,207.51463 c -8.14251,-9.54156 -17.28015,-20.18117 -20.30588,-23.64355 -3.02577,-3.46241 -8.14364,-9.44855 -11.37307,-13.30256 -3.2294,-3.85399 -9.57773,-11.27681 -14.10731,-16.49511 -4.52964,-5.2183 -11.96344,-13.8477 -16.51956,-19.17646 -7.46573,-8.73176 -53.43914,-62.458397 -56.2638,-65.752476 -1.39772,-1.630003 -1.46984,-1.600991 7.29028,-2.931571 3.45115,-0.5242 8.92195,-1.79286 12.1574,-2.819248 3.23545,-1.026387 6.24552,-1.870654 6.68906,-1.876142 0.44359,-0.0054 5.385,5.334749 10.98091,11.867197 5.59591,6.532447 18.77615,21.920281 29.28941,34.19519 10.51326,12.27493 22.74757,26.5387 27.18742,31.69728 4.43982,5.15861 11.54461,13.42957 15.78848,18.37994 4.24384,4.95037 15.83404,18.46143 25.756059,30.02459 9.922013,11.56316 17.887683,21.23003 17.701546,21.4819 -0.894841,1.21078 -18.270645,15.69931 -18.827895,15.69931 -0.35117,0 -7.30057,-7.80672 -15.44305,-17.34829 z m 68.977573,4.6472 c -5.998902,-6.98558 -14.939351,-17.44934 -19.8677,-23.25273 -4.928317,-5.80343 -11.442445,-13.38653 -14.475779,-16.85132 -3.033332,-3.46482 -10.280019,-11.88656 -16.103832,-18.71496 -10.239662,-12.00603 -19.983562,-23.37976 -65.885222,-76.905617 -11.86327,-13.833735 -21.67389,-25.450208 -21.80141,-25.814391 -0.12747,-0.364182 2.16673,-2.403122 5.09826,-4.530985 2.93154,-2.127863 7.32417,-5.687993 9.76138,-7.911401 l 4.43129,-4.042546 3.39441,4.110169 c 1.8669,2.260596 5.87308,6.953596 8.90261,10.428881 3.02954,3.475295 9.07941,10.509736 13.44418,15.632093 15.26163,17.910568 32.71457,38.309727 40.735544,47.611997 4.448045,5.1586 13.797418,16.06199 20.776434,24.22975 6.978971,8.16777 15.263939,17.84014 18.411009,21.49414 3.147106,3.654 11.603834,13.50223 18.792776,21.88493 7.188944,8.38271 15.693367,18.28454 18.898684,22.00409 3.205358,3.71952 5.807615,7.06084 5.782789,7.42522 -0.02494,0.36437 -2.365655,2.59696 -5.201832,4.96128 -2.836176,2.36438 -5.55148,4.65056 -6.034012,5.08043 -4.089262,3.64318 -6.921716,5.86206 -7.483066,5.86206 -0.368222,0 -5.577651,-5.71549 -11.576513,-12.70109 z m 55.341202,-5.72727 C 6.0280971,196.24804 -2.0455964,186.82042 -3.1240503,185.48434 -4.2025443,184.14823 -13.732391,172.99576 -24.301477,160.70104 -34.870562,148.40635 -51.459538,129.06238 -61.165822,117.71448 -92.949329,80.555604 -95.86619,77.150248 -115.28585,54.53175 -125.85494,42.221698 -137.07696,29.109387 -140.22374,25.393296 l -5.72132,-6.756534 4.62094,-8.070194 c 2.54156,-4.4386011 5.29264,-9.73954435 6.11353,-11.7798769 0.82091,-2.0403324 1.72998,-3.7110124 2.02015,-3.7126227 0.29021,-0.00159 2.23147,2.0145484 4.31394,4.48035375 2.08246,2.46580695 11.0297,12.92953885 19.88274,23.25273685 8.85303,10.3232 23.635134,27.562509 32.849108,38.309572 9.213962,10.747065 19.318051,22.529751 22.45357,26.183752 3.13552,3.654005 9.01961,10.512588 13.075759,15.241297 4.056147,4.72871 12.650976,14.7063 19.099563,22.17242 6.448587,7.4661 12.783593,14.89288 14.077776,16.50391 1.294184,1.61106 6.7089048,7.98854 12.0327591,14.17223 5.3238169,6.18365 10.4312139,12.12231 11.3498099,13.19704 0.918558,1.0747 4.696083,5.47122 8.394526,9.77004 20.119001,23.38516 25.867024,30.22475 25.815758,30.71821 -0.07264,0.69876 -16.944114,14.95731 -18.32164,15.48406 -0.635523,0.243 -7.205138,-6.75487 -17.015794,-18.12513 z M -257.64506,46.992797 c -3.45113,-0.587593 -7.85186,-1.531257 -9.77943,-2.097036 l -3.50462,-1.028685 -3.6896,-9.742881 c -2.02925,-5.358588 -3.70767,-10.270465 -3.72973,-10.91529 -0.0256,-0.751575 6.49818,-4.580297 18.1751,-10.666536 l 18.21524,-9.4941201 11.76523,6.074998 c 6.47088,3.3412511 14.63916,7.5843031 18.15172,9.4290161 l 6.38654,3.354003 -1.77574,4.754747 c -0.97667,2.615108 -2.57222,7.040937 -3.5457,9.835171 -2.54549,7.306744 -2.81706,7.669332 -6.48449,8.658022 -11.43431,3.082539 -28.33632,3.855874 -40.18452,1.838591 z m 67.99985,-58.760698 c -1.84309,-11.069479 -3.33758,-20.346458 -3.32107,-20.615529 0.0165,-0.269059 6.56426,-6.731343 14.55066,-14.360624 l 14.52075,-13.871425 7.24492,5.549617 c 3.98471,3.052293 8.2052,6.349076 9.37882,7.326182 l 2.13388,1.776574 -1.07788,8.988452 c -1.87033,15.596237 -5.29312,25.521778 -13.65816,39.6064249 -3.38966,5.707364 -3.44656,5.726645 -16.89822,5.726645 l -9.52263,0 -3.35107,-20.1263169 z M -318.96793,7.0153009 c -1.96221,-0.244688 -3.00302,-1.097586 -4.86163,-3.983823 -4.46419,-6.9325132 -9.45221,-18.5854819 -11.4509,-26.7515829 -2.01142,-8.21795 -3.89327,-22.220936 -3.14782,-23.42288 0.39321,-0.63403 9.54095,-7.753198 15.22505,-11.848815 l 2.89538,-2.086228 14.7449,14.583321 14.74493,14.583328 -0.46739,3.134993 c -0.25704,1.724253 -1.70268,10.345305 -3.21252,19.1578943 -1.50984,8.81259495 -2.74777,16.2866896 -2.75095,16.6091006 -0.006,0.588429 -17.04296,0.60779 -21.71905,0.0247 l 0,-8e-6 z m 60.09356,-28.0990949 c -9.24587,-6.689457 -17.49624,-12.64233 -18.3341,-13.228588 -1.47586,-1.032686 -1.31076,-1.707753 5.29436,-21.644734 3.74977,-11.318338 6.81775,-20.998152 6.81775,-21.51069 0,-0.70058 5.69462,-0.92787 22.94218,-0.91567 l 22.94221,0.0162 6.82056,21.230173 c 3.75136,11.676589 6.65143,21.50299 6.4446,21.836438 -0.32214,0.519422 -32.92857,24.425961 -35.27972,25.8665743 -0.46043,0.2821136 -8.40198,-4.9602683 -17.64784,-11.6497343 l 0,-2.5e-5 z m 78.4876,-63.636496 c -4.96099,-0.761172 -14.13787,-2.160179 -20.39306,-3.108896 l -11.37302,-1.724937 -8.62783,-17.555677 c -4.74531,-9.65565 -8.73822,-17.85168 -8.87314,-18.21345 -0.13492,-0.36179 4.06275,-3.53388 9.32816,-7.04915 l 9.57348,-6.39137 3.22141,0.93885 c 4.77704,1.39224 15.64428,7.31297 22.71087,12.37342 6.99811,5.01134 20.12009,18.45101 20.12009,20.60715 0,1.67419 -5.50106,20.375917 -6.19044,21.04533 -0.2621,0.254491 -4.53551,-0.160073 -9.49652,-0.92127 z m -135.30009,-9.506904 c -1.65147,-5.695941 -3.13563,-10.735186 -3.29807,-11.198356 -0.45226,-1.2893 12.61898,-14.73047 18.9224,-19.45799 6.35257,-4.76438 15.24529,-9.72672 22.52571,-12.56993 l 4.94877,-1.93261 8.93618,6.06804 c 4.91493,3.33744 9.0933,6.4668 9.28523,6.95416 0.19195,0.48735 -3.71793,8.98558 -8.68857,18.88494 -8.06836,16.068607 -9.27225,18.048648 -11.22587,18.463247 -3.77749,0.80168 -34.65098,5.144763 -36.57224,5.144763 -1.67504,0 -2.08638,-0.881421 -4.83354,-10.356264 z" style="fill:#2e3192;fill-opacity:1" inkscape:connector-curvature="0"/></g><g transform="scale(1.0017535,0.99824956)" style="font-size:73.63703156px;font-style:normal;font-weight:normal;fill:#000000;fill-opacity:1;stroke:none;font-family:Zurich Cn BT;-inkscape-font-specification:Zurich Cn BT" id="text2834"><path d="m 445.06666,46.796724 c -1.07868,1.126628 -2.31915,1.971583 -3.7214,2.534868 -1.40228,0.563322 -2.94238,0.844974 -4.62029,0.844956 -3.71542,1.8e-5 -6.484,-1.312359 -8.30574,-3.937136 -1.82175,-2.624733 -2.73263,-6.609806 -2.73262,-11.955231 -10e-6,-6.20829 1.2045,-10.804608 3.61353,-13.788966 2.40902,-2.984262 6.11843,-4.476417 11.12825,-4.476469 5.4892,5.2e-5 9.35442,1.73191 11.59568,5.195581 2.2412,3.463765 3.36181,9.761978 3.36185,18.894658 -4e-5,7.263049 -0.1918,12.28484 -0.57529,15.065389 -0.38356,2.780575 -1.03076,5.021804 -1.9416,6.723694 -1.24649,2.349102 -2.93041,4.116916 -5.05176,5.303448 -2.12141,1.186534 -4.65627,1.779801 -7.60461,1.779802 -4.36262,-10e-7 -7.73645,-1.006757 -10.1215,-3.020269 -2.38505,-2.013509 -3.57758,-4.842012 -3.57758,-8.485518 l 0,-0.287644 10.21139,0 c 0.11984,1.582055 0.50336,2.786565 1.15058,3.613536 0.64718,0.826984 1.54607,1.240473 2.69667,1.240467 1.65393,6e-6 2.84047,-0.749068 3.5596,-2.247224 0.71909,-1.498139 1.07864,-4.033005 1.07867,-7.604605 -3e-5,-1.390265 -0.012,-2.462939 -0.036,-3.218025 -0.024,-0.755047 -0.06,-1.480151 -0.10787,-2.175312 z m -4.42253,-23.478995 c -1.60603,4.4e-5 -2.75661,0.737133 -3.45174,2.211268 -0.69515,1.47422 -1.04272,3.997101 -1.04271,7.56865 -10e-6,3.64353 0.33557,6.214352 1.00676,7.712472 0.67115,1.498175 1.80974,2.247249 3.41578,2.247224 1.60599,2.5e-5 2.7326,-0.68313 3.37982,-2.049468 0.64718,-1.366284 0.97078,-3.883172 0.9708,-7.550672 -2e-5,-3.739342 -0.32961,-6.364097 -0.98878,-7.874273 -0.6592,-1.51009 -1.75585,-2.265157 -3.28993,-2.265201 z" style="" id="path3016"/></g>
<g transform="scale(1.0017535,0.99824956)" style="font-size:74.61628723px;font-style:normal;font-weight:normal;fill:#000000;fill-opacity:1;stroke:none;font-family:Zurich Cn BT;-inkscape-font-specification:Zurich Cn BT" id="text2838"><path d="m 475.1551,68.298203 0,-12.096 -16.28588,0 0,-10.602217 12.60608,-29.292722 13.80838,0 0,32.280288 3.97128,0 0,7.614651 -3.97128,0 0,12.096 z m 1.23875,-19.710651 0.3279,-25.722216 c -0.65582,2.016044 -1.34199,4.007752 -2.0585,5.975133 -0.71655,1.967459 -1.47559,3.947023 -2.27711,5.938698 l -5.68366,13.808385 z" style="" id="path3013"/></g>
<g style="font-size:197.83834839px;font-style:normal;font-variant:normal;font-weight:300;font-stretch:normal;line-height:125%;letter-spacing:0px;word-spacing:0px;fill:#ee3324;fill-opacity:1;stroke:none;font-family:Univers LT 47 CondensedLt;-inkscape-font-specification:Univers LT 47 CondensedLt Light" id="text3005" transform="matrix(0.3837234,0,0,0.38238121,139.58348,101.74779)"><path d="m 464.55697,-142.65964 c 0,4.61676 0.164,9.56251 0.4921,14.83727 0.328,5.27484 1.3826,10.15518 3.1637,14.64105 1.781,4.48592 4.6499,8.21209 8.6065,11.17852 3.9566,2.966459 9.5634,4.449682 16.8206,4.449674 7.253,8e-6 12.8579,-1.483215 16.8146,-4.449674 3.9565,-2.96643 6.8253,-6.6926 8.6065,-11.17852 1.781,-4.48587 2.8355,-9.36621 3.1637,-14.64105 0.3279,-5.27476 0.4919,-10.22051 0.492,-14.83727 l 0,-89.81455 12.6668,0 0,99.11237 c -10e-5,9.23346 -1.1221,16.85082 -3.3659,22.85212 -2.2441,6.00133 -5.2779,10.74986 -9.1016,14.24559 -3.8239,3.495743 -8.2746,5.935916 -13.3521,7.320526 -5.0776,1.384609 -10.3856,2.076914 -15.924,2.076916 -5.5425,-2e-6 -10.8525,-0.692307 -15.9301,-2.076916 -5.0776,-1.38461 -9.5283,-3.824783 -13.352,-7.320526 -3.8238,-3.49573 -6.8577,-8.24426 -9.1016,-14.24559 -2.244,-6.0013 -3.3659,-13.61866 -3.3659,-22.85212 l 0,-99.11237 12.6667,0 z" id="path3778" inkscape:connector-curvature="0"/><path d="m 617.54377,-196.27306 c -0.1289,-4.35095 -0.5566,-8.27434 -1.283,-11.7702 -0.7266,-3.49562 -1.9804,-6.46307 -3.7614,-8.90236 -1.7811,-2.43904 -4.1881,-4.31873 -7.2209,-5.63907 -3.0329,-1.32008 -6.9885,-1.98018 -11.8668,-1.98032 -7.7845,1.4e-4 -13.9186,1.58298 -18.4024,4.74853 -4.484,3.16582 -6.7259,8.9689 -6.7259,17.40927 0,5.27693 0.6269,9.43176 1.8807,12.46452 1.2538,3.03296 3.0671,5.63816 5.4398,7.8156 2.3728,2.17764 5.2084,4.18914 8.507,6.03453 3.2984,1.84556 6.9924,4.21932 11.0819,7.12129 4.351,3.16375 8.6698,5.93297 12.9565,8.30766 4.2866,2.37484 8.1114,5.07865 11.4744,8.11145 3.3628,3.03292 6.0667,6.69267 8.1115,10.97928 2.0446,4.2867 3.0669,9.85935 3.067,16.71796 -1e-4,12.7956 -3.199,22.32586 -9.5967,28.59081 -6.3978,6.264962 -15.8617,9.39744 -28.3915,9.397442 -13.979,-2e-6 -24.1673,-3.659759 -30.5651,-10.979279 -6.3978,-7.319503 -9.2666,-17.970733 -8.6065,-31.953723 l 13.0592,0 c 0,3.95665 0.1982,7.84784 0.5947,11.6736 0.3964,3.82582 1.452,7.28835 3.1667,10.3876 1.7146,3.09929 4.3852,5.57166 8.0118,7.41713 3.6265,1.845484 8.6055,2.768222 14.9369,2.768214 8.3076,8e-6 14.5061,-2.143319 18.5956,-6.429984 4.0894,-4.28664 6.1341,-10.5838 6.1342,-18.89149 -10e-5,-4.8783 -0.792,-8.96672 -2.3758,-12.26528 -1.5839,-3.29846 -3.7936,-6.29912 -6.6292,-9.00198 -2.8357,-2.70275 -6.3304,-5.30795 -10.4842,-7.8156 -4.1539,-2.50753 -8.8028,-5.34317 -13.9467,-8.50691 -6.9916,-4.22218 -12.3992,-8.01476 -16.2229,-11.37776 -3.8238,-3.36283 -6.6927,-6.56071 -8.6066,-9.59366 -1.9139,-3.03276 -3.1013,-6.03342 -3.5621,-9.00198 -0.4609,-2.96836 -0.6913,-6.23165 -0.6913,-9.78988 0,-6.19844 0.9227,-11.50745 2.7682,-15.92705 1.8455,-4.41936 4.4507,-8.04691 7.8156,-10.88268 3.3649,-2.8355 7.4543,-4.91241 12.2683,-6.23075 4.8139,-1.31805 10.1209,-1.97715 15.921,-1.9773 7.3859,1.5e-4 13.4204,1.05471 18.1036,3.16368 4.683,2.10925 8.3438,4.97809 10.9823,8.60652 2.6383,3.6287 4.4516,7.78353 5.4398,12.46452 0.9881,4.68123 1.4822,9.59377 1.4822,14.73765 z" id="path3780" inkscape:connector-curvature="0"/><path d="m 712.81597,-137.90809 -24.3313,-80.72201 -0.3985,0 -24.1321,80.72201 z m -16.4221,-94.5661 44.5148,142.836288 -13.2524,0 -11.4774,-37.589768 -55.9861,0 -11.2782,37.589768 -12.6607,0 45.1065,-142.836288 z" id="path3782" inkscape:connector-curvature="0"/></g></svg>