<svg width="352" height="422" xmlns="http://www.w3.org/2000/svg"><linearGradient id="ap" x2="1" gradientTransform="matrix(-17.25 29.78-29.78-17.25-203.8-16.64)" gradientUnits="userSpaceOnUse">
    <stop stop-color="#791426"/>
    <stop stop-color="#af1c3b" offset=".5347"/>
    <stop stop-color="#791426" offset="1"/>
  </linearGradient>
  <mask id="k" x="0" y="0" width="1" height="1" maskUnits="userSpaceOnUse">
    <g clip-path="url(#by)">
      <path d="m47.9 751.1 17.6 42.9 34.6-14.2-17.6-42.9z" fill="url(#at)"/>
    </g>
  </mask>
  <clipPath id="by">
    <path d="m-32768 32767h65535v-65535h-65535z"/>
  </clipPath>
  <linearGradient id="at" x2="1" gradientTransform="matrix(7.371,17.93,17.93,-7.371,63.74,748.2)" gradientUnits="userSpaceOnUse">
    <stop stop-color="#fff"/>
    <stop stop-color="#fff" stop-opacity="0" offset=".6"/>
    <stop stop-color="#fff" stop-opacity="0" offset="1"/>
  </linearGradient>
  <linearGradient id="ak" x2="1" gradientTransform="matrix(1.386 3.366 3.372-1.384 32.34 782.7)" gradientUnits="userSpaceOnUse">
    <stop stop-color="#858380"/>
    <stop stop-color="#a19f9c" offset="1"/>
  </linearGradient>
  <mask id="j" x="0" y="0" width="1" height="1" maskUnits="userSpaceOnUse">
    <g clip-path="url(#bt)">
      <path d="m83.3 793.6 16.7-44.2-35-13.2-16.7 44.2z" fill="url(#aj)"/>
    </g>
  </mask>
  <clipPath id="bt">
    <path d="m-32768 32767h65535v-65535h-65535z"/>
  </clipPath>
  <linearGradient id="aj" x2="1" gradientTransform="matrix(9.983,-26.37,-26.37,-9.983,67.67,790.9)" gradientUnits="userSpaceOnUse">
    <stop stop-color="#fff"/>
    <stop stop-color="#fff" stop-opacity="0" offset=".6"/>
    <stop stop-color="#fff" stop-opacity="0" offset="1"/>
  </linearGradient>
  <linearGradient id="ai" x2="1" gradientTransform="matrix(1.877-4.951-4.959-1.874 33.08 790.7)" gradientUnits="userSpaceOnUse">
    <stop stop-color="#9d9b98"/>
    <stop stop-color="#797775" offset="1"/>
  </linearGradient>
  <clipPath id="bs">
    <path d="m62.1 783h21.8v-60.9h-21.8z"/>
  </clipPath>
  <clipPath id="br">
    <path d="m72 783c-2.7 0-4.6-.9-4.7-1.5 12.5-.4 13.5-9.2 1.3-31.3-4.6-8.4-6.5-16.1-6.5-21.3v-.2c0-3.3 .8-5.5 2-6.2 .4-.2 .9-.4 1.3-.4h.1c1.9 0 3.7 2.1 2.5 4.7-1.6 3.2-.2 9.9 3.8 17.2s18 27.3 9.4 35.4c-2.9 2.7-6.2 3.6-8.8 3.6z"/>
  </clipPath>
  <mask id="i" x="0" y="0" width="1" height="1" maskUnits="userSpaceOnUse">
    <g clip-path="url(#bq)">
      <path d="m117.4 769-34.9-60.3-49.2 28.5 34.9 60.3z" fill="url(#ah)"/>
    </g>
  </mask>
  <clipPath id="bq">
    <path d="m-32768 32767h65535v-65535h-65535z"/>
  </clipPath>
  <linearGradient id="ah" x2="1" gradientTransform="matrix(-29.15,-50.32,-50.32,29.15,77.87,770.2)" gradientUnits="userSpaceOnUse">
    <stop stop-color="#fff" stop-opacity=".8"/>
    <stop stop-color="#fff" stop-opacity=".8" offset=".2"/>
    <stop stop-color="#fff" offset=".8"/>
    <stop stop-color="#fff" offset="1"/>
  </linearGradient>
  <linearGradient id="ag" x2="1" gradientTransform="matrix(-5.482-9.447-9.463 5.472 35 786.8)" gradientUnits="userSpaceOnUse">
    <stop stop-color="#797775"/>
    <stop stop-color="#f2" offset=".8"/>
    <stop stop-color="#f2" offset="1"/>
  </linearGradient>
  <clipPath id="bp">
    <path d="m63.9 782.3h16.2v-58.7h-16.2z"/>
  </clipPath>
  <clipPath id="bo">
    <path d="m63.9 723.6h16.2v58.7h-16.2z"/>
  </clipPath>
  <clipPath id="bn">
    <path d="m58.8 743.8h11.6v-25.2h-11.6z"/>
  </clipPath>
  <clipPath id="bm">
    <path d="m58.8 727c0-4.3 2-6.8 3.6-7.8 .5-.3 1.4-.6 2.3-.6h.2"/>
  </clipPath>
  <mask id="h" x="0" y="0" width="1" height="1" maskUnits="userSpaceOnUse">
    <g clip-path="url(#bl)">
      <path d="m58.8 743.8h13v-25.4h-13z" fill="url(#af)"/>
    </g>
  </mask>
  <clipPath id="bl">
    <path d="m-32768 32767h65535v-65535h-65535z"/>
  </clipPath>
  <linearGradient id="af" x2="1" gradientTransform="matrix(0,58.21,58.21,0,64.58,721.9)" gradientUnits="userSpaceOnUse">
    <stop stop-color="#fff"/>
    <stop stop-color="#fff" stop-opacity=".8" offset="1"/>
  </linearGradient>
  <linearGradient id="ae" x2="1" gradientTransform="matrix(0 10.93 10.95 0 32.5 777.7)" gradientUnits="userSpaceOnUse">
    <stop stop-color="#9d9b98"/>
    <stop stop-color="#f2" offset="1"/>
  </linearGradient>
  <clipPath id="bk">
    <path d="m62.1 786.1h23.8v-41.5h-23.8z"/>
  </clipPath>
  <clipPath id="bj">
    <path d="m63 781.3c-.4-.8-.7-1.7-1-2.7 .2 .2 .6 .4 .9 .6 .7 .4 1.8 .8 2.9 .9 2.6 .3 7-.4 8.7-5.2 1.8-5-2-14.8-5.4-22 1.7-2.9 3.2-5.6 4.8-8.5 0 0 8.6 14.8 8.7 15 2.6 5.2 5 14.9 1 21.5-1.4 2.3-3.5 4.1-3.5 4.1-.3 0-.6-.1-.8-.2-1.8-1.1-1.2-2-7.6 .8-.5 .2-1.1 .3-1.6 .3-3 0-6.2-2.8-7.1-4.8"/>
  </clipPath>
  <mask id="g" x="0" y="0" width="1" height="1" maskUnits="userSpaceOnUse">
    <g clip-path="url(#bi)">
      <path d="m65 736.4-16.5 45.9 36.3 13 16.5-45.9z" fill="url(#ad)"/>
    </g>
  </mask>
  <clipPath id="bi">
    <path d="m-32768 32767h65535v-65535h-65535z"/>
  </clipPath>
  <linearGradient id="ad" x2="1" gradientTransform="matrix(-15.18,42.21,42.21,15.18,84.52,744.9)" gradientUnits="userSpaceOnUse">
    <stop stop-color="#fff"/>
    <stop stop-color="#fff" stop-opacity=".8" offset="1"/>
  </linearGradient>
  <linearGradient id="ac" x2="1" gradientTransform="matrix(-2.855 7.924 7.938 2.85 36.25 782.1)" gradientUnits="userSpaceOnUse">
    <stop stop-color="#9d9b98"/>
    <stop stop-color="#f2" offset="1"/>
  </linearGradient>
  <clipPath id="bh">
    <path d="m59.4 785.6h26.6v-67h-26.6z"/>
  </clipPath>
  <clipPath id="bg">
    <path d="m70.2 785.6c-2.1 0-4.4-1.7-5.3-2.7-1-1.1-2.6-3.4-2.8-4.3 .8 .7 2.2 1.4 3.8 1.6 2.6 .3 7-.4 8.7-5.2 1.8-5-2-14.8-5.4-22-.1-.2-.2-.3-.2-.5-.3-.6-4.4-8.4-4.5-8.8-2.5-7.2-4.9-14.6-5-16.8 0-3.9 1.4-8.3 5.3-8.3h.2c.4 0 .7 0 1.1 .1 3.7 .8 4.6 6.8 4.1 9.9 0 0-1.2 5-1.2 5.1 0 0 7.3 14.7 7.8 15.6 .6 1.1 5.9 10 6 10.2 2.6 5.2 3.5 11.3 3.3 15-.1 1.3-1.4 5.3-2.3 6.4-1.7 2.1-4.2 4-4.3 3.9-1.8-1.1-1.5-2-8.1 .5-.3 .1-.7 .2-1.1 .2z"/>
  </clipPath>
  <mask id="f" x="0" y="0" width="1" height="1" maskUnits="userSpaceOnUse">
    <g clip-path="url(#bf)">
      <path d="m62.5 709.2-24.9 69.2 45.5 16.4 24.9-69.2z" fill="url(#ab)"/>
    </g>
  </mask>
  <clipPath id="bf">
    <path d="m-32768 32767h65535v-65535h-65535z"/>
  </clipPath>
  <linearGradient id="ab" x2="1" gradientTransform="matrix(-23.07,64.15,64.15,23.07,83.55,719.8)" gradientUnits="userSpaceOnUse">
    <stop stop-color="#fff"/>
    <stop stop-color="#fff" offset=".01866"/>
    <stop stop-color="#fff" stop-opacity="0" offset="1"/>
  </linearGradient>
  <linearGradient id="aa" x2="1" gradientTransform="matrix(-4.338 12.04 12.06 4.331 36.07 777.3)" gradientUnits="userSpaceOnUse">
    <stop stop-color="#44433e"/>
    <stop stop-color="#f2efea" offset="1"/>
  </linearGradient>
  <mask id="e" x="0" y="0" width="1" height="1" maskUnits="userSpaceOnUse">
    <g clip-path="url(#be)">
      <path d="m77.15 751.8h-14.2v29.14h14.2z" fill="url(#z)"/>
    </g>
  </mask>
  <clipPath id="be">
    <path d="m-32768 32767h65535v-65535h-65535z"/>
  </clipPath>
  <linearGradient id="z" x2="1" gradientTransform="matrix(0,-28.64,-28.64,0,69.38,781.5)" gradientUnits="userSpaceOnUse">
    <stop stop-color="#fff" stop-opacity=".2"/>
    <stop stop-color="#fff" stop-opacity=".8" offset="1"/>
  </linearGradient>
  <linearGradient id="y" x2="1" gradientTransform="matrix(0-5.377-5.386 0 33.41 788.9)" gradientUnits="userSpaceOnUse">
    <stop stop-color="#f2efea"/>
    <stop stop-color="#f2efea" offset="1"/>
  </linearGradient>
  <linearGradient id="x" x2="1" gradientTransform="matrix(1.761 1.139 1.141-1.758 31.72 789.2)" gradientUnits="userSpaceOnUse">
    <stop stop-color="#faf6f2"/>
    <stop stop-color="#fffbf7" offset="1"/>
  </linearGradient>
  <mask id="d" x="0" y="0" width="1" height="1" maskUnits="userSpaceOnUse">
    <g clip-path="url(#bd)">
      <path d="m58.6 789.5h10.7v-3.4h-10.7z" fill="url(#w)"/>
    </g>
  </mask>
  <clipPath id="bd">
    <path d="m-32768 32767h65535v-65535h-65535z"/>
  </clipPath>
  <linearGradient id="w" x2="1" gradientTransform="matrix(10.66,0,0,-10.66,58.59,787.8)" gradientUnits="userSpaceOnUse">
    <stop stop-color="#fff" stop-opacity=".8"/>
    <stop stop-color="#fff" stop-opacity=".8" offset=".1"/>
    <stop stop-color="#fff" stop-opacity="0" offset="1"/>
  </linearGradient>
  <linearGradient id="v" x2="1" gradientTransform="matrix(2.005 0 0-2.001 31.38 790.1)" gradientUnits="userSpaceOnUse">
    <stop stop-color="#b0aeab"/>
    <stop stop-color="#faf6f2" offset="1"/>
  </linearGradient>
  <mask id="c" x="0" y="0" width="1" height="1" maskUnits="userSpaceOnUse">
    <g clip-path="url(#bc)">
      <path d="m81.3 777.9-11.8 6.4 4.8 8.8 11.8-6.4z" fill="url(#u)"/>
    </g>
  </mask>
  <clipPath id="bc">
    <path d="m-32768 32767h65535v-65535h-65535z"/>
  </clipPath>
  <linearGradient id="u" x2="1" gradientTransform="matrix(-14.58,7.912,7.912,14.58,85.94,781.7)" gradientUnits="userSpaceOnUse">
    <stop stop-color="#fff" stop-opacity=".8"/>
    <stop stop-color="#fff" stop-opacity=".6" offset=".5"/>
    <stop stop-color="#fff" stop-opacity=".4" offset="1"/>
  </linearGradient>
  <linearGradient id="t" x2="1" gradientTransform="matrix(-2.742 1.485 1.488 2.737 36.52 789)" gradientUnits="userSpaceOnUse">
    <stop stop-color="#fffbf7"/>
    <stop stop-color="#fffbf7" offset=".5"/>
    <stop stop-color="#b4b2af" offset="1"/>
  </linearGradient>
  <mask id="b" x="0" y="0" width="1" height="1" maskUnits="userSpaceOnUse">
    <g clip-path="url(#bb)">
      <path d="m61.6 790.4h17.8v-2.5h-17.8z" fill="url(#s)"/>
    </g>
  </mask>
  <clipPath id="bb">
    <path d="m-32768 32767h65535v-65535h-65535z"/>
  </clipPath>
  <linearGradient id="s" x2="1" gradientTransform="matrix(17.78,0,0,-17.78,61.64,789.2)" gradientUnits="userSpaceOnUse">
    <stop stop-color="#fff"/>
    <stop stop-color="#fff" offset=".1"/>
    <stop stop-color="#fff" stop-opacity="0" offset="1"/>
  </linearGradient>
  <linearGradient id="r" x2="1" gradientTransform="matrix(3.344 0 0-3.338 31.95 790.4)" gradientUnits="userSpaceOnUse">
    <stop stop-color="#CCC9C6"/>
    <stop stop-color="#faf6f2" offset="1"/>
  </linearGradient>
  <mask id="a" x="0" y="0" width="1" height="1" maskUnits="userSpaceOnUse">
    <g clip-path="url(#ba)">
      <path d="m62.4 786.3-2-34.1-10.3 .6 2 34.1z" fill="url(#q)"/>
    </g>
  </mask>
  <clipPath id="ba">
    <path d="m-32768 32767h65535v-65535h-65535z"/>
  </clipPath>
  <linearGradient id="q" x2="1" gradientTransform="matrix(-1.903,-32.99,-32.99,1.903,57.85,786.5)" gradientUnits="userSpaceOnUse">
    <stop stop-color="#fff" stop-opacity=".8"/>
    <stop stop-color="#fff" stop-opacity=".8" offset=".1"/>
    <stop stop-color="#fff" stop-opacity="0" offset="1"/>
  </linearGradient>
  <linearGradient id="p" x2="1" gradientTransform="matrix(-.3579-6.193-6.204 .3573 31.24 789.9)" gradientUnits="userSpaceOnUse">
    <stop stop-color="#fffbf7"/>
    <stop stop-color="#fffbf7" offset="1"/>
  </linearGradient>
  <mask id="o" x="0" y="0" width="1" height="1" maskUnits="userSpaceOnUse">
    <g clip-path="url(#bz)">
      <path d="m62.8 758.9h20.1v-41.6h-20.1z" fill="url(#az)"/>
    </g>
  </mask>
  <clipPath id="bz">
    <path d="m-32768 32767h65535v-65535h-65535z"/>
  </clipPath>
  <linearGradient id="az" x2="1" gradientTransform="matrix(19.47,0,0,-19.47,62.85,738.2)" gradientUnits="userSpaceOnUse">
    <stop stop-color="#fff"/>
    <stop stop-color="#fff" offset=".1"/>
    <stop stop-color="#fff" stop-opacity="0" offset="1"/>
  </linearGradient>
  <linearGradient id="ay" x2="1" gradientTransform="matrix(3.661 0 0-3.655 32.18 780.8)" gradientUnits="userSpaceOnUse">
    <stop stop-color="#dad7d3"/>
    <stop stop-color="#faf6f2" offset="1"/>
  </linearGradient>
  <mask id="n" x="0" y="0" width="1" height="1" maskUnits="userSpaceOnUse">
    <g clip-path="url(#bx)">
      <path d="m54.9 756.4-1.5 29 13.4 .7 1.5-29z" fill="url(#ax)"/>
    </g>
  </mask>
  <clipPath id="bx">
    <path d="m-32768 32767h65535v-65535h-65535z"/>
  </clipPath>
  <linearGradient id="ax" x2="1" gradientTransform="matrix(-.6522 12.33 12.33 .6522 62.37 766.1)" gradientUnits="userSpaceOnUse">
    <stop stop-color="#fff"/>
    <stop stop-color="#fff" offset=".1"/>
    <stop stop-color="#fff" stop-opacity="0" offset="1"/>
  </linearGradient>
  <linearGradient id="aw" x2="1" gradientTransform="matrix(-.1227 2.315 2.319 .1224 32.09 786)" gradientUnits="userSpaceOnUse">
    <stop stop-color="#BBB8B5"/>
    <stop stop-color="#faf6f2" offset="1"/>
  </linearGradient>
  <mask id="m" x="0" y="0" width="1" height="1" maskUnits="userSpaceOnUse">
    <g clip-path="url(#bw)">
      <path d="m90.4 713.9h-39.4v76.5h39.4z" fill="url(#av)"/>
    </g>
  </mask>
  <clipPath id="bw">
    <path d="m-32768 32767h65535v-65535h-65535z"/>
  </clipPath>
  <linearGradient id="av" x2="1" gradientTransform="matrix(0,-66.27,-66.27,0,69.69,784)" gradientUnits="userSpaceOnUse">
    <stop stop-color="#fff" stop-opacity="0"/>
    <stop stop-color="#fff" offset=".5"/>
    <stop stop-color="#fff" stop-opacity="0" offset="1"/>
  </linearGradient>
  <linearGradient id="au" x2="1" gradientTransform="matrix(0-12.44-12.46 0 33.46 789.4)" gradientUnits="userSpaceOnUse">
    <stop stop-color="#dad7d3"/>
    <stop stop-color="#fffbf7" offset=".5"/>
    <stop stop-color="#eeebe7" offset="1"/>
  </linearGradient>
  <mask id="l" x="0" y="0" width="1" height="1" maskUnits="userSpaceOnUse">
    <g clip-path="url(#bv)">
      <path d="m90.41 714.4h-39.39v75.96h39.39z" fill="url(#as)"/>
    </g>
  </mask>
  <clipPath id="bv">
    <path d="m-32768 32767h65535v-65535h-65535z"/>
  </clipPath>
  <linearGradient id="as" x2="1" gradientTransform="matrix(0,-66.27,-66.27,0,69.69,787.9)" gradientUnits="userSpaceOnUse">
    <stop stop-color="#fff" stop-opacity="0"/>
    <stop stop-color="#fff" offset=".5"/>
    <stop stop-color="#fff" stop-opacity="0" offset="1"/>
  </linearGradient>
  <linearGradient id="ar" x2="1" gradientTransform="matrix(0-12.44-12.46 0 33.46 790.1)" gradientUnits="userSpaceOnUse">
    <stop stop-color="#dad7d3"/>
    <stop stop-color="#fffbf7" offset=".5"/>
    <stop stop-color="#eeebe7" offset="1"/>
  </linearGradient>
  <clipPath id="bu">
    <path d="m54.9 763.3h22.4v-40.9h-22.4z"/>
  </clipPath>
  <linearGradient id="aq" x2="1" gradientTransform="matrix(-1.747 7.171 7.184 1.744 34.09 777.6)" gradientUnits="userSpaceOnUse">
    <stop stop-color="#faf6f2"/>
    <stop stop-color="#fffbf7" offset=".5"/>
    <stop stop-color="#fffbf7" offset=".7"/>
    <stop stop-color="#ebe7" offset=".9"/>
    <stop stop-color="#CCC9C6" offset="1"/>
  </linearGradient>
  <linearGradient id="ao" x2="1" gradientTransform="matrix(-4.565 7.879-7.879-4.565 24.98 6.368)" gradientUnits="userSpaceOnUse">
    <stop stop-color="#791426"/>
    <stop stop-color="#af1c3b" offset=".5"/>
    <stop stop-color="#791426" offset="1"/>
  </linearGradient>
  <linearGradient id="an" x2="1" gradientTransform="matrix(-4.565 7.878-7.878-4.565 27.23 7.667)" gradientUnits="userSpaceOnUse">
    <stop stop-color="#791426"/>
    <stop stop-color="#af1c3b" offset=".5"/>
    <stop stop-color="#791426" offset="1"/>
  </linearGradient>
  <linearGradient id="am" x2="1" gradientTransform="matrix(17.22-40.91 40.91 17.22 27.34 70.62)" gradientUnits="userSpaceOnUse">
    <stop stop-color="#791426"/>
    <stop stop-color="#af1c3b" offset=".5"/>
    <stop stop-color="#791426" offset="1"/>
  </linearGradient>
  <linearGradient id="al" x2="1" gradientTransform="matrix(20.08 44.94-44.94 20.08 27.1 20.66)" gradientUnits="userSpaceOnUse">
    <stop stop-color="#791426"/>
    <stop stop-color="#af1c3b" offset=".5"/>
    <stop stop-color="#791426" offset="1"/>
  </linearGradient>
  <g>
    <path d="m170.8 146.1c-9.572-15.98-18.61-31.43-24.46-45.81-2.127-5.859-3.191-11.72-4.254-17.05-3.191-15.98-2.127-25.04 4.254-37.82 0-.5327 0-.5327 .5318-1.065 2.659-1.598 6.913-3.196 11.17-3.729 10.1-1.065 27.12 1.598 34.03 20.24 6.913 19.71-7.976 57.53-21.27 85.23m62.22-110.3c-.5318-1.065-3.191-5.859-3.722-7.457 0-.5327 0-.5327-.5318-.5327-10.64-19.71-11.17-15.98-17.55-17.05h-.5318c-7.445-1.598-20.74-6.925-27.12-9.055-6.381-2.663-23.93 2.663-35.1 3.729-2.659 .5327-4.786 1.065-6.913 1.598-5.318 2.131-6.381 5.327-8.508 7.99-1.064 1.598-2.127 2.131-3.191 2.131-8.508 3.196-29.25 28.76-24.99 63.39 .5318 3.196 1.064 6.925 2.127 10.12 8.508 33.56 36.69 78.83 44.14 91.62-5.318 11.72-15.95 36.22-19.67 59.13 0 .5327-1.064 5.859-1.064 10.65-.5318 11.72 1.595 22.37 8.508 29.83 0 0 1.064 1.598 1.595 1.598 3.191 3.196 7.445 5.327 11.7 6.925 5.849 2.663 10.1 1.065 14.36 .5327 2.127 1.065 3.722 2.131 5.849 2.663 12.23 4.261 26.06 1.065 32.44-2.663 8.508-2.663 12.23-7.99 14.89-15.45 2.659-7.457 6.381-22.37-2.127-44.74-3.722-9.588-11.7-24.5-23.4-46.34 9.572-18.11 35.1-62.85 39.88-75.64 0-.5327 .5318-1.598 .5318-2.131 7.976-19.71 12.76-45.81-.5318-70.31" fill="#fff"/>
    <path d="m163.3 206.9c-2.659-5.327-9.04-17.05-10.1-19.71-13.83 27.17-17.55 57.53-17.55 66.58 0 6.925 0 17.05 9.572 21.31 12.76-17.58-9.572-43.15 18.08-68.18" fill="#aca9a6"/>
    <path d="m195.8 115.2c3.191-16.51 11.7-30.36 1.064-52.73-8.508-18.64-23.4-25.57-38.82-21.84 10.1-1.065 27.12 1.598 34.03 20.24 6.913 19.71-7.976 57.53-21.27 85.23-.5318 .5327-.5318 1.065-1.064 2.131 6.381 11.19 11.7 20.77 18.08 31.96 0 0 8.508-13.85 12.23-19.71-7.445-16.51-6.381-34.62-4.254-44.74" fill="#aca9a6"/>
    <path d="m235.7 62.51v-1.598-.5327c0-2.663 0-4.794-.5318-6.392 0-1.598-.5318-3.196-1.064-3.729-1.064-3.729-4.254-7.99-7.445-12.25-6.381-8.523-14.89-15.98-14.89-15.98-.5318 0-1.064 .5327-1.595 1.065-6.913 4.261-6.913 10.12-31.37-1.598-3.722-1.598-9.572-.5327-12.76-.5327 24.46 18.11 51.58 17.58 69.13 42.61" fill="#bcbab7"/>
    <path d="m217.1 131.2c1.064-1.598 1.595-2.663 2.659-3.729 1.064-1.598 1.595-3.196 2.659-4.794 .5318-.5327 .5318-1.598 1.064-2.131 10.1-20.24 12.76-43.68 12.76-58.59-12.76-36.22-48.92-20.24-60.62-43.15l-9.04 .5327c.5318 .5327 1.064 1.598 1.595 2.131 4.786 5.327 15.42 15.98 27.12 18.64 11.7 2.663 21.27 4.261 31.37 19.18s-.5318 35.69-10.1 55.93c-3.722 7.99-4.254 16.51-4.786 24.5 1.595-2.131 1.595-4.261 3.722-6.925 .5318-.5327 1.064-1.598 1.595-2.131" fill="#ccc9c6"/>
    <path d="m226.1 60.38c-10.1-14.91-19.67-16.51-31.37-19.18-11.7-2.663-22.33-13.32-27.12-18.64-.5318-.5327-1.064-1.598-1.595-2.131-7.976 .5327-14.36 7.457-19.14 16.51-1.595 3.196-2.659 6.925-3.722 10.65 3.191-2.663 8.508-5.327 14.89-5.859 15.42-3.729 30.31 3.196 38.82 21.84 10.64 22.9 2.127 36.75-1.064 52.73-2.127 10.12-3.191 28.23 4.254 44.74 2.659-4.261 5.318-10.65 12.23-19.71 .5318-7.99 1.064-15.98 4.786-24.5 9.04-20.24 19.67-41.02 10.1-55.93" fill="#bbb8b5"/>
  </g>
  <g stroke-width=".1879">
    <g transform="matrix(3.873 0 0-3.879-97 3067)">
      <g mask="url(#k)" stroke-width=".1879">
        <path d="m68 785.6h-.1c-2.1-.2-3.8-1.9-4.9-4.3-.4-.8-.7-1.7-1-2.7l.9 .6c.7 .4 1.8 .8 2.9 .9 2.6 .3 7-.4 8.7-5.2 1.8-5-2-14.8-5.4-22 1.7-2.9 2.7-4.7 4.6-7.8 0 0 8.1 12.4 8.2 12.6 2.6 5.2 4 11.6 3.6 16.7-.6 8.2-5.7 10.6-5.8 10.7-.1-.1-.3-.1-.4-.2-1.8-1.1-1.9-2.8-8.1 .2-.7 .3-1.6 .4-2.3 .4h-.8" fill="url(#ak)" stroke-width=".1879"/>
      </g>
    </g>
    <g transform="matrix(3.873 0 0-3.879 156.4 184.1)">
      <path d="m0 0c-2.8-3.9-7.1-24.9-.9-24.2 9.9 1.4 2.2 21.5 .9 24.2" fill="#9a9794" stroke-width=".1879"/>
    </g>
    <g transform="matrix(3.873 0 0-3.879-97 3067)">
      <g mask="url(#j)" stroke-width=".1879">
        <path d="m68 785.6h-.1c-2.1-.2-3.8-1.9-4.9-4.3-.4-.8-.7-1.7-1-2.7l.9 .6c.7 .4 1.8 .8 2.9 .9 2.6 .3 7-.4 8.7-5.2 1.8-5-2-14.8-5.4-22 1.7-2.9 3.1-5.8 4.7-8.8 0 0 8.7 15.1 8.8 15.3 2.6 5.2 3.7 11.3 3.3 15-.4 3.8-1.2 5.2-2.1 6.6-.3 .5-4 3.9-4.1 4-.1-.1-.3-.1-.4-.2-1.8-1.1-1.9-2.8-8.1 .2-.7 .3-1.6 .4-2.3 .4h-.8" fill="url(#ai)" stroke-width=".1879"/>
      </g>
    </g>
    <g transform="matrix(3.873 0 0-3.879-97 3067)">
      <g clip-path="url(#bs)" opacity=".3" stroke-width=".1879">
        <g clip-path="url(#br)" stroke-width=".1879">
          <g mask="url(#i)" stroke-width=".1879">
            <path d="m72 783c-2.7 0-4.6-.9-4.7-1.5 12.5-.4 13.5-9.2 1.3-31.3-4.6-8.4-6.5-16.1-6.5-21.3v-.2c0-3.3 .8-5.5 2-6.2 .4-.2 .9-.4 1.3-.4h.1c1.9 0 3.7 2.1 2.5 4.7-1.6 3.2-.2 9.9 3.8 17.2s18 27.3 9.4 35.4c-2.9 2.7-6.2 3.6-8.8 3.6z" fill="url(#ag)" stroke-width=".1879"/>
          </g>
        </g>
      </g>
    </g>
    <g transform="matrix(3.873 0 0-3.879-97 3067)">
      <g clip-path="url(#bp)" opacity=".3" stroke-width=".1879">
        <g clip-path="url(#bo)" stroke-width=".1879">
          <g transform="translate(66.2,781.8)" stroke-width=".1879">
            <path d="m0 0c.7 .2 1.4 .4 2.2 .4 .7 .1 1.5 .1 2.2 0 1.5-.1 3-.5 4.3-1.2s2.5-1.8 3.3-3.1c.4-.6 .7-1.3 1-2s.5-1.4 .6-2.2c.6-3 .3-6.1-.3-9-.6-3-1.6-5.8-2.7-8.6s-2.4-5.4-3.8-8.1l-4-7.8c-1.3-2.6-2.5-5.3-3.4-8-.2-.7-.4-1.4-.5-2.1-.2-.7-.3-1.4-.3-2.1-.1-1.4 .1-2.9 .6-4.2l-.2-.1c-.8 1.3-1.2 2.8-1.3 4.3s.1 3.1 .4 4.5c.3 1.5 .8 2.9 1.2 4.4 .5 1.4 1.1 2.8 1.7 4.2 2.4 5.5 5.2 10.7 7.7 15.9 .6 1.3 1.2 2.7 1.8 4s1.1 2.7 1.5 4.1c.8 2.8 1.3 5.7 .9 8.6-.1 .7-.3 1.4-.5 2.1s-.5 1.3-.9 2c-.7 1.2-1.7 2.3-3 3-1.2 .7-2.7 1.2-4.1 1.3-.7 .1-1.5 .1-2.2 0-.7 0-1.5-.1-2.2-.3z" fill="#797775" stroke-width=".1879"/>
          </g>
        </g>
      </g>
    </g>
    <g transform="matrix(3.873 0 0-3.879-97 3067)">
      <g clip-path="url(#bn)" opacity=".6" stroke-width=".1879">
        <g clip-path="url(#bm)" stroke-width=".1879">
          <g mask="url(#h)" stroke-width=".1879">
            <path d="m58.8 727c0-4.3 2-6.8 3.6-7.8 .5-.3 1.4-.6 2.3-.6h.2c.4 0 .7 .1 1.1 .1 2.5 .6 4.3 3.1 4.4 7.6v.3c0 1.8-.3 4-1 6.5-.2 .8-2 4.6-2.3 5.3-.7 1.4-2.3 4.6-2.7 5.3-2.8-6.4-5.6-14.5-5.6-16.8" fill="url(#ae)" stroke-width=".1879"/>
          </g>
        </g>
      </g>
    </g>
    <g transform="matrix(3.873 0 0-3.879-97 3067)">
      <g clip-path="url(#bk)" opacity=".4" stroke-width=".1879">
        <g clip-path="url(#bj)" stroke-width=".1879">
          <g mask="url(#g)" stroke-width=".1879">
            <path d="m63 781.3c-.4-.8-.7-1.7-1-2.7 .2 .2 .6 .4 .9 .6 .7 .4 1.8 .8 2.9 .9 2.6 .3 7-.4 8.7-5.2 1.8-5-2-14.8-5.4-22 1.7-2.9 3.2-5.6 4.8-8.5 0 0 8.6 14.8 8.7 15 2.6 5.2 5 14.9 1 21.5-1.4 2.3-3.5 4.1-3.5 4.1-.3 0-.6-.1-.8-.2-1.8-1.1-1.2-2-7.6 .8-.5 .2-1.1 .3-1.6 .3-3 0-6.2-2.8-7.1-4.8" fill="url(#ac)" stroke-width=".1879"/>
          </g>
        </g>
      </g>
    </g>
    <g transform="matrix(3.873 0 0-3.879-97 3067)">
      <g clip-path="url(#bh)" opacity=".4" stroke-width=".1879">
        <g clip-path="url(#bg)" stroke-width=".1879">
          <g mask="url(#f)" stroke-width=".1879">
            <path d="m70.2 785.6c-2.1 0-4.4-1.7-5.3-2.7-1-1.1-2.6-3.4-2.8-4.3 .8 .7 2.2 1.4 3.8 1.6 2.6 .3 7-.4 8.7-5.2 1.8-5-2-14.8-5.4-22-.1-.2-.2-.3-.2-.5-.3-.6-4.4-8.4-4.5-8.8-2.5-7.2-4.9-14.6-5-16.8 0-3.9 1.4-8.3 5.3-8.3h.2c.4 0 .7 0 1.1 .1 3.7 .8 4.6 6.8 4.1 9.9 0 0-1.2 5-1.2 5.1 0 0 7.3 14.7 7.8 15.6 .6 1.1 5.9 10 6 10.2 2.6 5.2 3.5 11.3 3.3 15-.1 1.3-1.4 5.3-2.3 6.4-1.7 2.1-4.2 4-4.3 3.9-1.8-1.1-1.5-2-8.1 .5-.3 .1-.7 .2-1.1 .2z" fill="url(#aa)" stroke-width=".1879"/>
          </g>
        </g>
      </g>
    </g>
    <g transform="matrix(3.873 0 0-3.879-97 3067)">
      <g mask="url(#e)" stroke-width=".1879">
        <path d="m65.8 780.9c-.3 0-1.5-.3-2.2-.5l-.4-.6-.2-.5c.7 .4 1.8 .8 2.9 .9 2.6 .3 7-.4 8.7-5.2 1.8-5-2-14.8-5.4-22-.1-.2-.2-.3-.2-.5 .6-.5 1-.8 1-.8 .1 .2 .2 .3 .3 .5 3.5 7.3 7 17.7 5.1 23-.7 2-2 3.6-3.7 4.5-.1 .1-.8 .4-1 .5-.1 0-.2 .1-.3 .1-.2 .1-.9 .3-1 .3-.4 .1-.9 .2-1.3 .2h-1-1" fill="url(#y)" stroke-width=".1879"/>
      </g>
    </g>
    <g transform="matrix(3.873 0 0-3.879 188.5 176.2)">
      <path d="m0 0c-.3 .5-.4 .7-.4 .7-.1 .2-.2 .3-.3 .5-3.8 6.8-7.9 12.8-10.1 18.3-.5 1.5-.9 3-1.1 4.4-.8 4.1-.5 6.5 1.1 9.8 1.5 3.2 6 7.1 8.6 5.9 5.5-2.6 6.2-1.4 7.5-.3 0 0 .1 .1 .2 .1 0 0 .2 .1 .2 .2 14.3-11-1-32.3-5.6-39.7m-8.7-25.8c-.4-.1-.7-.1-1.1 0-.6 .1-1.1 .3-1.7 .7-.8 .5-1.3 1.3-1.6 2.2-.9 2.7-.7 8 4.1 20 .5-1.1 1-2.1 1.2-2.5 2.8-5.6 3.4-10.7 3.4-13.7-.3-3.8-2.1-6.2-4.2-6.6m20.3 61.9c-.2 .3-.8 1.5-1 1.9 0 .1-.1 .1-.1 .1-2.8 5.1-2.8 4.1-4.6 4.4h-.2c-2 .4-5.3 1.7-7 2.3s-6.2-.7-9.1-1c-.7-.1-1.3-.2-1.8-.4-1.3-.5-1.7-1.4-2.2-2.1-.3-.4-.5-.5-.8-.6-2.2-.8-7.5-7.3-6.4-16.4 .1-.9 .3-1.8 .5-2.6 2.2-8.7 9.5-20.3 11.3-23.6-1.3-3.1-4.2-9.3-5.1-15.2 0-.2-.3-1.6-.3-2.7-.1-3 .4-5.8 2.2-7.7 0 0 .3-.4 .4-.4 .9-.9 1.9-1.4 3-1.8 1.5-.6 2.6-.3 3.7-.1 .5-.3 1-.5 1.5-.7 3.1-1.1 6.7-.2 8.3 .7 2.2 .7 3.2 2 3.9 4 .6 1.9 1.6 5.8-.6 11.5-1 2.5-3 6.3-6.1 12 2.5 4.7 9.1 16.2 10.2 19.6 .1 .2 .1 .3 .2 .5 2 5.1 3.3 11.8-.1 18.1" fill="#efece8" stroke-width=".1879"/>
    </g>
    <g transform="matrix(3.873 0 0-3.879 210.2 141.7)">
      <path d="m0 0c-.2-.3-.7-1.1-1.4-2.1-1.6-2.8-3.2-5.1-4.2-6.8 .3-.5 1.1-1.7 1.4-2.3 0 .1-.1 .1-.1 .2 .2 .3 .3 .6 .5 1 0 1.9 3.2 8.5 3.8 10" fill="#dad7d3" stroke-width=".1879"/>
    </g>
    <g transform="matrix(3.873 0 0-3.879 183.5 6.509)">
      <path d="m0 0c-1.2 .6-2.8 .6-4.2 .3-.4-.1-1.5-.3-1.5-.3s2.2-.5 3.9-1.1c1.1-.4 3-1.2 5.2 0v.1c-1 .1-2.3 .3-3.4 1" fill="#bbb8b5" stroke-width=".1879"/>
    </g>
    <g transform="matrix(3.873 0 0-3.879-97 3067)">
      <path d="m65.4 788.5c-.5-.2-.9-.4-1.2-.5-4.1-2.3-5.2-4.5-5.4-4.7-.1-.8-.3-1.4-.4-2.3 .8-.4 4.4 .3 6.8 2.2 .3 .3 .6 .5 .9 .7 .1 .1 .2 .2 .3 .2 1.4 1.2 3 4.3 4.5 3.5 .1-.1 .2-.1 .4-.2-.2 .1-.4 .2-.5 .3-1.1 .6-2.3 1-3.5 1-.6 0-1.3-.1-2-.4" fill="url(#x)" stroke-width=".1879"/>
    </g>
    <g transform="matrix(3.873 0 0-3.879 132.9 18.28)">
      <path d="m0 0c-.2-.5-.3-.9-.4-1.4-.1-.4-.1-.8-.2-1.2 2.6 3.2 5.2 4.5 5.4 4.7 .3 .1 1.1 .7 1.5 .8-2.8-.8-4.3-1.9-6-2.4-.1-.1-.2-.3-.3-.4" fill="#f6f2ee" stroke-width=".1879"/>
    </g>
    <g transform="matrix(3.873 0 0-3.879 185.7 22.56)">
      <path d="m0 0c-4.3 2.4-6.4-.6-6.4-.6v-.1c-1.5-1.4-3-3.2-3.7-5.2 1.5 3.2 6 7.1 8.6 5.9 6-2.9 6.3-1.1 7.9 0-1.2-.7-2.2-2.4-6.3-.1" fill="#ebe7e3" stroke-width=".1879"/>
    </g>
    <g transform="matrix(3.873 0 0-3.879 208.6 23.04)">
      <path d="m0 0c-2.8-1.2-4.7 1.1-7.5 2.8-.1 .1-.2 .1-.4 .2-2 1-5.3-4.2-5.2-4.2 .6 .5 2.9 3.7 7.2 1.4 4.2-2.3 4.8-1 5.9-.2 .1 0 .4 .3 .4 .3l-.4-.2" fill="#fffbf7" stroke-width=".1879"/>
    </g>
    <g transform="matrix(3.873 0 0-3.879 155.4 29.15)">
      <path d="m0 0c-2.4-1.8-6.1-2.6-6.8-2.2-.3-3.6-1.1-8.4-.3-13.7 .4-2.3 .8-4.8 1.2-7.3-1 7.8-1.2 17.2 5.9 23.2" fill="#efece8" stroke-width=".1879"/>
    </g>
    <g transform="matrix(3.873 0 0-3.879 141.7 7.063)">
      <path d="m0 0c-1.3-.5-1.7-1.4-2.2-2.1-.3-.4-.5-.5-.8-.6 .2 0 .4 .1 .7 .2 .7 .2 1.4 .5 2.1 .8s1.4 .6 2.4 1c.5 .2 1.7 .6 2.3 .8s2.2 .4 2.3 .5c0 0 .6 .1 .8 .1-.1 0-6.8-.4-7.6-.6" fill="#efece8" stroke-width=".1879"/>
    </g>
    <g transform="matrix(3.873 0 0-3.879-97 3067)">
      <g mask="url(#d)" stroke-width=".1879">
        <path d="m69.1 789.5c-.1 0-6.6-.4-7.4-.6-1.3-.5-1.7-1.4-2.2-2.1-.3-.4-.5-.6-.8-.6 .2 0 .4 .1 .7 .2 .7 .2 1.4 .5 2.1 .8s1.4 .6 2.4 1c.5 .2 1.7 .6 2.3 .8s2.2 .4 2.3 .5c.2 0 .6 .1 .8 .1h-.2" fill="url(#v)" stroke-width=".1879"/>
      </g>
    </g>
    <g transform="matrix(3.873 0 0-3.879 208 284.6)">
      <path d="m0 0c-.1-.1-.1-.3-.2-.4-.2-.5-.5-.9-.8-1.3 2.2 .7 3.2 2 3.9 4-2.4-2.5-2.9-2.4-2.9-2.4" fill="#d2cfcb" stroke-width=".1879"/>
    </g>
    <g transform="matrix(3.873 0 0-3.879 187.9 287.3)">
      <path d="m0 0c-1.8 .8-3.2-.7-4.1-1.7 3.1-1.1 6.7-.2 8.3 .7 .3 .4 .5 .8 .8 1.3-.9-1.5-3.3-1-5-.3" fill="#dedbd7" stroke-width=".1879"/>
    </g>
    <g transform="matrix(3.873 0 0-3.879 166.8 277.1)">
      <path d="m0 0c.9 1.8 1.4 5 1.1 6.8-.3-3.8-2.2-6.2-4.2-6.6-.4-.1-.7-.1-1.1 0-.6 .1-1.1 .3-1.7 .7-.1 .1-.2 .1-.3 .2-1.6 .5-2.9 1.8-3.2 3.5 0-.3 0-.5 .1-.8v-.1c.1-.8 .3-1.6 .5-2.3 1.8-3.2 6.8-5.5 8.8-1.4" fill="#ebe7e3" stroke-width=".1879"/>
    </g>
    <g transform="matrix(3.873 0 0-3.879 154.7 276.2)">
      <path d="m0 0c-.4-.1-.7-.1-1.1 0-.6 .1-1.1 .3-1.7 .7-.4 .3-.8 .7-1.1 1.1-1.4 1.5-2.2 4.1-2.4 5.9v.1c-.1-.5-.1-1-.1-1.6 0-1.1 0-2.1 .2-3.1v-.1c1.6-3 6-6 8.9-.9-.8-1.1-1.8-1.8-2.8-2" fill="#f2efea" stroke-width=".1879"/>
    </g>
    <g transform="matrix(3.873 0 0-3.879 229 27.99)">
      <path d="m0 0c-2.8 5.1-2.8 4.1-4.6 4.4-2.3-.1-4.9-1.8-8.2-.3 4.6-2.8 8.5 3.2 12.8-4.2l.1-.1v.1c0 .1-.1 .1-.1 .1" fill="#e7e4e0" stroke-width=".1879"/>
    </g>
    <g transform="matrix(3.873 0 0-3.879-97 3067)">
      <g mask="url(#c)" stroke-width=".1879">
        <path d="m79.3 785h.1c1 .7 3 1 4.8-1.7-2.6 4.5-5.1 4.1-7.7 3.6-1.7-.3-3.4-.5-5.2 .6 2.6-1.6 5.5-4.1 7.9-2.6" fill="url(#t)" stroke-width=".1879"/>
      </g>
    </g>
    <g transform="matrix(3.873 0 0-3.879 151.7 290.7)">
      <path d="m0 0c1.2 .7 2.1 1.7 2.9 2.9-2.2-2-6.9-1.4-8.3 3.9 .3-1.8 .9-3.4 2-4.6 0 0 .3-.4 .4-.4 .9-.9 1.9-1.4 3-1.8" fill="#ccc9c6" stroke-width=".1879"/>
    </g>
    <g transform="matrix(3.873 0 0-3.879 183.6 1.705)">
      <path d="m0 0c-1.7 .6-6.2-.7-9.1-1-.7-.1-1.3-.2-1.8-.4 1.7 .4 1.8 0 6.8 .6 0 0 .7 .1 .8 .1 1.1 .1 2.2 0 3.1-.5 1.1-.6 2.2-.9 3.3-1 1.3-.1 2.5 0 3.7-.1-2 .5-5.3 1.7-7 2.3" fill="#f2efea" stroke-width=".1879"/>
    </g>
    <g transform="matrix(3.873 0 0-3.879-97 3067)">
      <g mask="url(#b)" stroke-width=".1879">
        <path d="m71.1 790.4c-2.1 0-5.4-.9-7.7-1.2-.7-.1-1.3-.2-1.8-.4 1.7 .3 1.9 0 6.8 .6 0 0 .7 .1 .8 .1 1.1 .1 2.2 0 3.1-.5 1.1-.6 2.2-.9 3.3-1 .8-.1 1.5-.1 2.3-.1h1.4c-2 .4-5.3 1.7-7 2.3-.3 .1-.7 .2-1.1 .2z" fill="url(#r)" stroke-width=".1879"/>
      </g>
    </g>
    <g transform="matrix(3.873 0 0-3.879 196.2 10.34)">
      <path d="m0 0-.1-.1c-1.9-1-3.6-.5-4.7-.1 .2-.1 .4-.2 .5-.3 3.3-1.4 5.9 .2 8.2 .3h-.2c-1.2 .1-2.4 0-3.7 .1" fill="#ebe7e3" stroke-width=".1879"/>
    </g>
    <g transform="matrix(3.873 0 0-3.879 210.2 231.7)">
      <path d="m0 0c-2.1 9.3-6.7 15.4-10.8 20.4-3.4 4.2-5.3 8.8-6.2 12.9 .1-.9 .2-1.9 .2-2.9 .8-5.7 2.9-12.5 9.2-20.2 5.7-7 6.9-7.9 7.5-10.1" fill="#fffbf7" stroke-width=".1879"/>
    </g>
    <g transform="matrix(3.873 0 0-3.879 229.7 29.28)">
      <path d="m0 0 .1-.2s.4-.9 .4-1c1.1-2.5 0-4.5-.2-4.9 1.5-5.4-.1-11.6-2.6-17.2-1.1-2.5-1-4.7-1.4-6.2 2.1 3.8 4 7.5 4.5 9.1 .1 .2 .1 .4 .2 .5 2 5.1 3.3 11.8-.1 18.1-.1 .3-.6 1.2-.9 1.7" fill="#ebe7e3" stroke-width=".1879"/>
    </g>
    <g transform="matrix(3.873 0 0-3.879 210.2 22.22)">
      <path d="m0 0c1.5-1.2 2.6-2.5 3.5-3.9-.3 2.2-.8 4.3-2.7 4.1-.2 0-.4-.1-.7-.2l-.1-.1" fill="#dedbd7" stroke-width=".1879"/>
    </g>
    <g transform="matrix(3.873 0 0-3.879 231.7 33.45)">
      <path d="m0 0s-1.1 1.6-1.7 2.2c-.7 .7-1.6 1.1-2.5 1.1-.8 0-1.1-.2-1.3-.3l-.1-.1c2.6 .7 3.1-1.8 3.5-3.9 .8-1.3 1.4-2.6 1.8-4 .1 .3 1.2 2.5 .3 4.9" fill="#ccc9c6" stroke-width=".1879"/>
    </g>
    <g transform="matrix(3.873 0 0-3.879 172.1 293.7)">
      <path d="m0 0c1.1 .9 2 1.9 3.2 1.9-.8 0-4-.6-4.8-1.2 .5-.3 1-.5 1.5-.7" fill="#d2cfcb" stroke-width=".1879"/>
    </g>
    <g transform="matrix(3.873 0 0-3.879 214 256.3)">
      <path d="m0 0c0 .9-.1 1.7-.3 2.6-.3 1.7-.9 3.2-1.8 4.5-3.3 4.7-11.2 13.3-13.3 20 .6-4.2-.4-9.2 1.3-11.7 .6-.7 1.1-1.5 1.7-2.2 4-4.8 8.7-7.6 8.6-14.4-.1-3.6-1.3-4.9-3.1-6.6 .1 0 .1 0 .2-.1 1.7-.7 4.1-1.2 5 .3 1.2 2.3 1.9 4.5 1.8 7.7" fill="#efece8" stroke-width=".1879"/>
    </g>
    <g transform="matrix(3.873 0 0-3.879 200.2 263.7)">
      <path d="m0 0c1.1 8.8-4 13.5-8.8 19-.6 .6-2.2 1.3-1.5-.1 2.7-4.3 4.5-8.4 5-10.2 2.5-10.2-.3-13.4-3.4-15.8 .7 .5 3.9 1.2 4.8 1.2 .2 0 .4 0 .7-.1 1.4 1.4 2.5 2.1 3 4.2 .1 .3 .2 .6 .2 1 0 .2 .1 .5 .1 .8" fill="#e7e4e0" stroke-width=".1879"/>
    </g>
    <g transform="matrix(3.873 0 0-3.879 185.8 238.8)">
      <path d="m0 0c-1.2 4.7-4 12.1-8.9 18.5-.1-.2-.5-1.6-.9-2.7 .3-.6 .6-1 .8-1.4 .3-.5 .4-.8 .6-1.3 .5-1.1 1-2.1 1.2-2.5 2.8-5.6 3.4-10.7 3.4-13.7 .2-3.8-1.7-8.2-5-10.3 1.5-.6 2.6-.3 3.7-.1 2.7 1 7.6 3.2 5.1 13.5" fill="#f2efea" stroke-width=".1879"/>
    </g>
    <g transform="matrix(3.873 0 0-3.879-97 3067)">
      <g mask="url(#a)" stroke-width=".1879">
        <path d="m56.3 783.3c-3.3-4.5-4.2-11.9-2.8-15.8 1.7-5 2.5-7.5 6.7-14.2 .4-.6-2.2 9.6-2.7 12.1-.5 2.3-2.1 11.6 1.2 18.9 .3 .7 .7 1.4 1 2.1-1.3-.7-2.4-1.8-3.4-3.1" fill="url(#p)" stroke-width=".1879"/>
      </g>
    </g>
    <g transform="matrix(3.873 0 0-3.879 161.5 19.92)">
      <path d="m0 0c-1.5-.7-2.8-1.8-4-3.1-1.1-1.2-2-2.7-2.6-4.2-1.2-3.1-1.3-6.5-.8-9.8s1.7-6.5 2.4-9.8c.3-1.7 .5-3.4 .5-5.1-.1-1.7-.4-3.4-.9-5 .3 1.7 .5 3.3 .4 5 0 1.7-.3 3.3-.7 5-.4 1.6-.9 3.2-1.4 4.9-.5 1.6-.9 3.3-1.2 5s-.4 3.4-.2 5.2c.1 .9 .2 1.7 .4 2.6 .2 .8 .5 1.7 .8 2.5 .7 1.6 1.7 3 2.9 4.3 1.2 1.2 2.7 2.2 4.3 2.8" fill="#ccc9c6" stroke-width=".1879"/>
    </g>
    <g transform="matrix(3.873 0 0-3.879 148.1 176.7)">
      <path d="m0 0c.3 .9 .6 1.8 .7 2.8s.1 1.9 0 2.9c-.1 1.9-.4 3.8-.7 5.7l-.9 5.7c-.3 1.9-.4 3.8-.5 5.7l1.7-11.4c.3-1.9 .6-3.8 .6-5.8 0-1 0-1.9-.1-2.9-.2-1-.4-1.9-.8-2.8" fill="#ccc9c6" stroke-width=".1879"/>
    </g>
    <g transform="matrix(3.873 0 0-3.879 129.6 25.28)">
      <path d="m0 0c-.4-1.2-.7-2.4-1-3.7-.3-1.2-.5-2.5-.6-3.7-.3-2.5-.3-5 0-7.6 .2-2.5 .8-5 1.5-7.4 .3-1.2 .6-2.5 .9-3.7s.5-2.5 .5-3.8c-.1 1.3-.3 2.5-.7 3.7-.3 1.2-.7 2.4-1 3.7-.7 2.4-1.3 4.9-1.6 7.5-.1 1.3-.2 2.5-.2 3.8s.1 2.6 .2 3.8c.2 1.3 .4 2.5 .7 3.8 .3 1.2 .7 2.4 1.2 3.6" fill="#ccc9c6" stroke-width=".1879"/>
    </g>
    <g transform="matrix(3.873 0 0-3.879 120.4 29.33)">
      <path d="m0 0c-.6-1.1-.9-2.2-1.2-3.3s-.5-2.3-.7-3.5c-.3-2.4-.4-4.7-.1-7.1 .2-2.4 .8-4.7 1.7-6.8 .5-1.1 1-2.1 1.6-3.2 .5-1.1 1.1-2.1 1.7-3.1-.4 .5-.7 .9-1.1 1.4-.3 .5-.7 1-1 1.5s-.6 1-.9 1.6c-.3 .5-.5 1.1-.8 1.6-.9 2.2-1.5 4.6-1.7 7s-.1 4.8 .3 7.2c.2 1.2 .5 2.4 .8 3.5 .4 1.1 .8 2.3 1.4 3.3" fill="#dedbd7" stroke-width=".1879"/>
    </g>
    <g transform="matrix(3.873 0 0-3.879 130.4 28.72)">
      <path d="m0 0c1.1 1.7 2.6 3 4.2 4.1 .8 .6 1.7 1 2.7 1.4 .3 .1 .7 .2 1.1 .3h.4 .8c.3 0 .5-.1 .8-.2 1.9-.7 3.6-1.8 5.2-2.8 .8-.5 1.7-1 2.6-1.3 .5-.1 .9-.2 1.4-.2s1 .2 1.4 .4c-.4-.3-.9-.5-1.4-.5-.5-.1-1 0-1.5 .1-1 .3-1.9 .7-2.7 1.2-1.7 1-3.4 2.1-5.2 2.7-.2 .1-.5 .1-.7 .2h-.7c-.5 0-.9-.1-1.4-.3-.9-.3-1.8-.8-2.6-1.3s-1.6-1.1-2.4-1.7-1.4-1.3-2.1-2.1" fill="#ccc9c6" stroke-width=".1879"/>
    </g>
    <g transform="matrix(3.873 0 0-3.879 210.2 22.22)">
      <path d="m0 0c.4 .3 .9 .5 1.4 .6 .5 0 1.1-.1 1.5-.3 .8-.4 1.5-1 2-1.9 0 0 .1-.1 .1-.2s.1-.1 .1-.1c.5-1 .9-1.9 .9-3 .1-1-.2-2.1-.8-2.9 .5 .9 .6 1.9 .5 2.9s-.4 2-.9 2.8c-.5 .9-1.2 1.6-2 2.1-.4 .2-.9 .4-1.4 .4s-1-.1-1.4-.4" fill="#bbb8b5" stroke-width=".1879"/>
    </g>
    <g transform="matrix(3.873 0 0-3.879 152.5 166.1)">
      <path d="m0 0c.5-2.2 1.2-4.3 2.2-6.3 .5-1 1.1-2 1.7-2.9l1.5-2.1c.2-.2 .3-.5 .5-.7 .6-.9 1.1-2 1.6-3s.9-2.1 1.2-3.2 .5-2.2 .6-3.3 .1-1.6 .1-2.7c0 1.1-.1 1.6-.2 2.7s-.4 2.2-.7 3.3-.8 2.1-1.2 3.1c-.5 1-1 2-1.6 2.9-.2 .2-.3 .5-.5 .7l-.5 .7c-.3 .5-.6 .9-1 1.4-.6 .9-1.2 1.9-1.7 2.9-1 2-1.6 4.2-2 6.4" fill="#ccc9c6" stroke-width=".1879"/>
    </g>
    <g transform="matrix(3.873 0 0-3.879 150.1 142.7)">
      <path d="m0 0c.2-1.5 .6-3 1-4.4 .5-1.4 1-2.9 1.6-4.2 1.3-2.7 2.9-5.3 5-7.5 .5-.5 1.1-1.1 1.6-1.7s1-1.2 1.4-1.9c.8-1.3 1.5-2.7 1.9-4.2 .7-2.5 .8-5.1 .4-7.6-.1-.5-.2-1-.3-1.4 .3 1.5 .4 3 .4 4.5s-.3 3-.7 4.5c-.4 1.4-1.1 2.8-1.9 4.1-.4 .6-.9 1.2-1.4 1.8s-1 1.1-1.6 1.6c-2.1 2.2-3.8 4.8-5 7.6-.6 1.4-1.1 2.8-1.6 4.3-.2 .7-.4 1.5-.5 2.2-.2 .7-.3 1.5-.3 2.3" fill="#d2cfcb" stroke-width=".1879"/>
    </g>
    <g transform="matrix(3.873 0 0-3.879 220.3 127.4)">
      <path d="m0 0c.8 1.5 1.4 3.1 2 4.8 .6 1.6 1 3.3 1.4 4.9 .4 1.7 .6 3.4 .7 5.1v2.6l-.2 1.2-.1 .3c0 .1-.1 .2-.1 .3l-.2 .6c.8-1.5 1-3.3 1-5.1 0-.9-.1-1.7-.2-2.6s-.3-1.7-.4-2.6c-.4-1.7-.9-3.4-1.5-5s-1.4-3.2-2.4-4.6" fill="#fffbf7" stroke-width=".1879"/>
    </g>
    <g transform="matrix(3.873 0 0-3.879-97 3067)">
      <g mask="url(#o)" stroke-width=".1879">
        <path d="m63.1 758.5c-.1 .3-.1 .5-.1 .5s0-.2 .1-.5m-.2-12.8c.2-.3 .3-.5 .4-.8 .1-.1 .1-.2 .2-.4 5.6-9.8 14.5-17 9.5-24.8-.4-.7-.9-1.4-1.7-2.1 .9 .7 1.6 .7 2.2 .6 .7-.1 1.2-.2 1.9 .7 .2 .2 .4 .6 .6 1.2l.3 .9s2.7-3.7 5.4-1c.9 3 1.2 7.4-2.7 12.3-4.5 5.5-7.3 6.1-10.9 12.3-2.9 4.9-4.6 12.1-5 13.9 .4-2 1.9-10.1-.2-12.8" fill="url(#ay)" stroke-width=".1879"/>
      </g>
    </g>
    <g transform="matrix(3.873 0 0-3.879-97 3067)">
      <g mask="url(#n)" stroke-width=".1879">
        <path d="m57.6 781c-.8-3.6-1.3-8.8-.5-14.1 .4-2.3 2.1-7.4 2.5-9.9-1 7.8-4.7 22.8 7.2 28.5-2.8-.7-8.4-4.9-9.2-4.5" fill="url(#aw)" stroke-width=".1879"/>
      </g>
    </g>
    <g transform="matrix(3.873 0 0-3.879-97 3067)">
      <g mask="url(#m)" stroke-width=".1879">
        <path d="m71.1 790.4c-2.1 0-5.4-.9-7.7-1.2-.7-.1-1.3-.2-1.8-.4-1.3-.5-1.7-1.4-2.2-2.1-.3-.4-.5-.6-.8-.6-2.2-.8-7.5-7.3-6.4-16.4 .1-.9 .3-1.7 .5-2.6 2.2-8.7 9.5-20.3 11.3-23.6-1.3-3.1-4.2-9.3-5.1-15.2 0-.2-.3-1.6-.3-2.7-.1-3 .4-5.8 2.2-7.7 0 0 .3-.4 .4-.4 .9-.9 1.9-1.4 3-1.8 1.5-.6 2.6-.3 3.7-.1 .5-.3 1-.5 1.5-.7 3.1-1.1 6.7-.2 8.3 .7 2.2 .7 3.2 2 3.9 4 .6 1.9 1.6 5.8-.6 11.5-1 2.5-3 6.3-6.1 12 2.5 4.7 9.1 16.2 10.2 19.6 .1 .2 .1 .4 .2 .5 2 5.1 3.3 11.8-.1 18.1-.2 .3-.8 1.5-1 1.9 0 .1-.1 .1-.1 .1-2.8 5.1-2.8 4.1-4.6 4.4h-.2c-2 .4-5.3 1.7-7 2.3-.3 .1-.7 .2-1.1 .2zm2.2-44.4c-.1 .2-.2 .3-.3 .5-3.8 6.8-7.9 12.8-10.1 18.3-.5 1.5-.9 3-1.1 4.4-.8 4.1-.5 6.5 1.1 9.8 1.5 3.2 6 7.1 8.6 5.9 2.8-1.3 4.3-1.6 5.3-1.5s1.5 .6 2.1 1.2c.1 .1 .5 .3 .5 .4 1.5-1.2 2.6-2.5 3.5-3.9 7.6-11.5-5-29.2-9.1-35.8-.3 .5-.4 .7-.4 .7m-9.4-26.5c-.6 .1-1.1 .3-1.7 .7-.8 .5-1.3 1.3-1.6 2.2-.9 2.7-.7 8 4.1 20 .5-1.1 1-2.1 1.2-2.5 2.8-5.6 3.4-10.7 3.4-13.7-.3-3.8-2.1-6.2-4.2-6.6-.2 0-.5-.1-.7-.1h-.4" fill="url(#au)" stroke-width=".1879"/>
      </g>
    </g>
    <g transform="matrix(3.873 0 0-3.879-97 3067)">
      <g mask="url(#l)" stroke-width=".1879">
        <path d="m71.2 790.4c-2.1 0-5.5-.9-7.8-1.2-.7-.1-1.3-.2-1.8-.4-1.3-.5-1.7-1.4-2.2-2.1-.3-.4-.5-.6-.8-.6-2.2-.8-7.5-7.3-6.4-16.4 .1-.9 .3-1.7 .5-2.6 2.2-8.7 9.5-20.3 11.3-23.6-1.3-3.1-4.2-9.3-5.1-15.2 0-.2-.3-1.6-.3-2.7-.1-3 .4-5.8 2.2-7.7 0 0 .3-.4 .4-.4 .9-.9 1.9-1.4 3-1.8 1.5-.6 2.6-.3 3.7-.1 .5-.3 1-.5 1.5-.7 1.1-.4 2.2-.5 3.2-.5 2.1 0 4 .6 5.1 1.2 2.2 .7 3.2 2 3.9 4 .6 1.9 1.6 5.8-.6 11.5-1 2.5-3 6.3-6.1 12 2.5 4.7 9.1 16.2 10.2 19.6 .1 .2 .1 .4 .2 .5 2 5.1 3.3 11.8-.1 18.1-.2 .3-.8 1.5-1 1.9 0 .1-.1 .1-.1 .1-2.8 5.1-2.8 4.1-4.6 4.4h-.2c-2 .4-5.3 1.7-7 2.3-.3 .1-.7 .2-1.2 .2zm2-44.4c-.1 .2-.2 .3-.3 .5-3.8 6.8-7.9 12.8-10.1 18.3-.5 1.5-.9 3-1.1 4.4-.8 4.1-.5 6.5 1.1 9.8 1.5 3.2 6 7.1 8.6 5.9 2.8-1.3 4.3-1.6 5.3-1.5s1.5 .6 2.1 1.2c.1 .1 .5 .3 .5 .4 1.5-1.2 2.6-2.5 3.5-3.9 7.6-11.5-5-29.2-9.1-35.8-.3 .5-.4 .7-.4 .7m-9.4-26.5c-.6 .1-1.1 .3-1.7 .7-.8 .5-1.3 1.3-1.6 2.2-.9 2.7-.7 8 4.1 20 .5-1.1 1-2.1 1.2-2.5 2.8-5.6 3.4-10.7 3.4-13.7-.3-3.8-2.1-6.2-4.2-6.6-.2 0-.5-.1-.7-.1h-.4" fill="url(#ar)" stroke-width=".1879"/>
      </g>
    </g>
  </g>
  <path d="m176.6 255.3c0.5-13.8-2.1-27.2-6.4-40-4.3-12.8-10.1-25-17-36.8-3.2-5.9-6.9-11.7-10.6-17.6-3.2-5.9-6.9-11.7-9.6-18.1-6.4-12.2-12.2-24.5-16.5-37.3 2.7 6.4 5.8 12.2 9 18.1s6.4 11.7 9.6 18.1c6.4 11.7 13.8 23.4 20.7 35.2s12.8 24 17 37.3c2.1 6.4 3.2 13.3 4.3 20.2 .5 6.9 1.1 13.8 .5 20.2" fill="#e1deda"/>
  <g transform="matrix(3.873 0 0-3.879-97 3067)" stroke-width=".2">
    <g clip-path="url(#bu)" opacity=".4" stroke-width=".2">
      <path d="m57.2 758.6c0.8-1.6 1.6-3.1 2.5-4.6 .4-.6 .7-1.3 1.1-1.9 1-1.6 2.2-3.3 3.5-5 5.8-7.6 9.5-15.2 6.8-22.7-.5-1.4-.2-2 .4-2h0.1c1.7 .1 5.8 4.3 5.8 10.6v0.3c0 4.4-2 9.7-7.9 15.4-9.1 6.9-14.6 14.6-14.6 14.6 .7-1.6 1.5-3.2 2.3-4.7" fill="url(#aq)" stroke-width=".2"/>
    </g>
  </g>
  <g>
    <path d="m153.2 187.7c-1.1-1.6-1.6-3.2-2.7-5.3-5.3 11.7-16 36.2-19.7 59.1 0 .5-1.1 5.9-1.1 10.6 0 .5 0 1.6 .5 2.1 3.2 13.3 8 15.4 10.1 16-1.1-1.6-2.1-3.2-2.7-5.3-3.2-10.1-2.7-30.9 16-77.2" fill="#f2efea"/>
    <path d="m217.1 230.8c-3.7-9.6-11.7-24.5-23.4-46.3l-8-12.8c-14.9-26.6-30.3-49.5-39.4-71.4-2.1-5.9-3.2-11.7-4.3-17 1.1 5.3 .5 11.2 2.1 19.7 3.2 16 10.6 33.6 23.9 50.1 16 19.2 33.5 43.2 42 79.4 1.1 4.8 2.7 14.9 3.2 24.5 .5 11.7-1.6 19.7-5.3 28.2 0 0 2.7 3.7 9.6-6.4 .5-1.1 1.1-1.6 1.6-2.7 2.7-7.5 6.4-22.4-2.1-44.7" fill="#fffbf7"/>
    <path d="m127.2 35.9 2.7 4.3 4.3-2.7-2.7-4.3z" fill="url(#ao)"/>
    <path d="m120.8 74.8 3.7 3.7 3.7-3.7-3.7-3.7z" fill="url(#an)"/>
    <path d="m193.8 257c-.4 .5-.6 1.3-.7 2.4-.1 1.1-.1 2.1 .1 3-.4-.4-1.2-.6-1.6-.3 .1 .4 .3 .9 .3 1.3 .1 .3 .1 .7 .1 1-.7 .5-1.6 1.3-1.8 2.7v0.6c-.3-.9-.8-1.8-1-2.6-.2-.7-.6-1.3-1-1.7-.1-.1-.3-.2-.4-.2-.1 .2-.2 .5-.2 .7-.1 .1-.1 .2-.1 .4-.3-.3-.5-.5-.7-.7-.2-.2-.4-.2-.6-.3-.5-.1-.6 0-.6 .7v0.8c-1.1-.4-1.7 .5-1.6 .5 .2 .2 .4 .3 .5 .7 .1 .3-.1 .8-.2 1.2-.3 .9-.1 2.2 .5 2.8 .4 .4 1.2 .3 1.8-.2 .6-.6 .9-2.4 .5-3-.2-.4-.4-.4-.8-.1 .1 .3 .3 .5 .3 .7-.1 .3-.3 .7-.5 1-.3 .3-.6 .4-.9 .1-.4-.5-.4-1.3-.1-2.1 .1-.2 .4-.6 .5-.7 .6-.4 1.3-.6 1.8-.3 .5 .4 .8 .9 .9 1.8 .1 1.5-.6 3.8-.6 5.2 .1 1.3 1 1.9 2.1 2.1 .5 .1 1.8 .3 2 .3 1.3 .5 2.5 .4 3.2-.9 .7-1.3 1.1-3.7 1.9-4.9 .5-.7 1-1.1 1.6-1.2 .5-.1 1.1 .4 1.5 1 .1 .2 .2 .6 .2 .9 0 .9-.4 1.6-1 1.8-.4 .1-.6-.1-.7-.5-.1-.3-.1-.8 .1-1.1 .1-.3 .4-.4 .6-.5-.3-.5-.4-.5-.7-.3-.6 .4-1.2 2.1-.9 2.9 .2 .7 .9 1.2 1.5 1 .8-.2 1.5-1.3 1.7-2.2 .1-.4 .2-.9 .4-1.2 .2-.3 .4-.3 .7-.4 0 0 .1-.1 .1-.1-.2-1-.9-.8-1.3-1.1 .1-.3 .2-.5 .4-.7 .3-.6 .3-.8-.2-.9-.2-.1-.5-.1-.7-.1-.3 .1-.6 .2-1 .3 .1-.2 .1-.3 .1-.4 .1-.2 .1-.5 .1-.7h-.2-.3c-.5 .2-.9 .4-1.4 .8s-1.3 1.2-2 2.1c0.1-.3 .2-.6 .3-.9 .4-1 .3-1.7-.1-2.1l-.4-.7c0.1-.1 .1-.2 .2-.4 .2-.7 .5-1.2 .8-1.9-.1-.4-.9-.9-1.4-.6 .3-.9 .5-1.9 .5-3.1 0-1.1-.3-1.7-.5-2.2-.1-.1-.1-.1-.2-.1-.1 0-.2 .1-.3 .2m-19.7 12.7c-.2-.6-.4-1.2-.5-1.9-.8 .2-1.3 .8-1.6 1.4-.3 .6-.5 1.4-.8 2.1-.3-.3-.6-.6-1-.9-1.1 1.2-1.2 2.5-.3 4 .7 1.2 1.7 2.3 2.6 3.5 1 1.3 2 2.5 2.1 4.2 .1 1.5-.7 2.9-2.1 4-1.1 .9-2.2 1.2-3.7 1.2-.1 0-.2 .4-.2 .5 .1 .6 1.2 .3 1.8 .2 4.1-1.1 6.8-4.2 5.6-7.4-.5-1.3-2.1-3.2-2.7-4.5-.5-1-1-2-.7-3.2 .3-1.4 1.6-2.8 3.4-2.5 1 .2 1.8 1 1.8 2 0 .6-.5 1.5-1.2 1.8-.4 .2-.9 .2-1.1-.1-.3-.3-.3-.6-.1-1 .1-.1 .1-.1 .1-.2-.6 .1-1.4 .9-1.3 1.6 .2 1.2 2.8 2.1 4 1.3 1.1-.7 1.7-2.4 1.3-3.8-.4-1.3-1-2-2.2-2.4-.2-.1-.3-.1-.4-.2 .3-.6 .5-1.2 .7-1.8h-.3c-1.4 0-2.2 .9-3 2.1m9.5 4.9c-.8 .3-1.8 1.3-2 2 .4-.1 .7-.2 1.1-.3 .7-.1 1.2 .3 1.4 1 .1 .6-.3 1.6-.9 2.1-1 .8-2 1.5-3 2.3-1.2 .9-1.7 1.9-1.6 3 .1 1.5 1.4 2.7 1.6 2.9-2 2.6-4.4 4.7-6.8 6.7 .7 .2 1.3 .4 2 .5 2.2-1.9 4.3-3.8 6.4-6.1 1.8 .7 3.9 1 5.6-.4 1.1-.9 1.6-1.9 2-2.9 .3-.8 .6-1.7 .9-2.4 .4-1.1 1.2-2 2-2.3 .8-.3 1.2 .1 1.3 1.1 0 .2 0 .3 .1 .5 .5-.7 .7-1.4 .9-2 .3-1.2-.1-2-.5-2.4-.6-.6-1.6-.6-2.7 .2-.4 .3-.9 .9-1.3 1.4-.5 .7-.9 1.5-1.3 2.3-1.2 1.7-2.2 2.7-2.9 3.4 .7-1.1 1.3-2.3 1.9-3.6 .4-1.1 .8-2.1 1.2-3.2 .1-.1 .1-.3 .1-.5-.2 .2-.3 .3-.4 .4-1.4 1.8-3.1 3.4-4.7 4.9-.2 .2-.3 .3-.4 .5 .1-.9 .7-1.9 1.3-2.9 .3-.3 .5-.5 .7-.7 .7-.8 1.2-1.8 1.6-2.7 .5-1.2 .1-2-.6-2.4-.4-.3-.9-.4-1.4-.4-.4 0-.9 .1-1.4 .3m-16.5 3c-.7-.1-2.1-.1-2.1-.1 3.9 2 5.1 4.7 5.7 8.2 .9-.4 1.7-3 1.5-4.3-.2-1.9-1.2-3.2-2.9-4.5-.1 .3-.1 .4-.1 .6-.9-.4-1.5-1.3-2.7-1.5 .2 .6 .4 1.1 .5 1.6m35.7 4.8c-.1-.1-.2-.1-.3-.1-.7-.4-3.6-1.1-5.1 .5-1 1.1-2.2 3.9-.4 5.2 .5 .3 .8 .6 1.5 .2 .6-.3 1-.9 1.3-1.5 .1-.1 .1-.3 .1-.4-.1 .1-.2 .1-.2 .2-.6 .6-1 .8-1.2 .6-.3-.2-.5-1.3-.2-1.9 .9-1.6 2.6-2.1 3.4-1.6 .6 .4 .8 1.3 .3 2.6-.6 1.5-1.6 2.7-2.9 3.2-1.1 .5-2.2 .6-3.4 .8-.7 .1-1.4-.1-2.1-.2-.9-.2-1.9-.4-2.9-.1-2.7 .8-6 3.3-7.8 5.9 .4 0 .7 .1 1.1 .1 .5-.6 1.2-1.2 1.9-1.8 2.1-1.7 4.2-2.4 6.2-2.4 1.5 .1 2.9 .4 4.4 .4 .9 .1 1.8 .1 2.7-.1 1.3-.2 2.6-1.2 3.6-3-.4-.1-.7-.2-1-.2 1.5-1.3 2.7-2.9 3.1-5.1-.6 .4-1.2 .8-1.8 1.2 .4-.9 .8-1.7 1-2.4 .3-.9 .2-1.5-.1-2-.4 .7-.8 1.3-1.3 2m-30 5.9c-.9 .7-.9 1.9-.1 2.8 .3 .3 .5 .6 .7 .8 .7-.6 1.4-1.2 2.1-1.8 1.6-1.2 2.1-2.7 1.9-4.2-.1-.4-.2-.7-.3-1.2-1.4 1.3-2.9 2.4-4.3 3.5m-7.1 .5c-.7-.1-1.5-.1-2.2-.2 0 .1 .8 .9 1.3 1.2-.4 .3-.7 .6-1 .9 3.5-.2 6.2 1.5 8.8 3.1-.3-2.1-3.4-5-7-5.5 .1 .2 .1 .3 .2 .5m14.1 4.5c-.6 .6-1.3 1.3-2 1.9 1.3 .2 2.5 .4 3.7 .4 .2-.1 .3-.2 .4-.3 .7-.5 1.2-1.2 1.8-1.8 .4-.5 .7-1 1.1-1.5 .4-.5 .8-.9 1.2-1.4-2.6 .1-4.7 .8-6.3 2.7m13.2-.1c-2.2 .2-4.6 1.2-6.9 2.4 3.7-.2 7.1-.7 10.2-1.5-.7-.6-1.6-.9-2.7-.9h-.6" fill="url(#am)"/>
    <path d="m171.4 180.8c-.1 0-.2 .1-.2 .2v0.1c0.1 .6 .2 1.4 .9 2.3 .7 1.1 1.4 1.9 2.2 2.5-.5 .2-1 1-.9 1.4 .6 .5 1.2 .7 1.8 1.2 1.2 1 1.9 .5 2 0 .1-.2-.2-.5-.4-.8 .3 .2 .5 .4 .9 .4 .5-.1 .9-.4 .5-1.2-.2-.4-.6-.9-.8-1.4-.2-.5-.3-.9-.5-1.4-.6-.1-1.2 .5-1.3 1.2-.5-.9-1.1-1.8-1.8-2.8-.7-.9-1.4-1.6-2.1-1.8-.1 0-.1-.1-.2-.1zm10.3 4c0.2 1.1 1.2 2.8 2.3 4.1-.5-1.1-.3-1.8 .2-2.3 .2-.2 .1-1-.5-1.7-.2-.3-.7-.8-1.1-.9-.1-.1-.2-.1-.3-.1-.5 0-.6 .4-.6 .9m7.3 1c-.3 .2-.7 .6-1 2-.2-.3-.8-.8-1.1-1.1-.1 .2-.3 .3-.3 .5-.2 .6-.1 1.4 .4 2.2 .7 1.4 1.6 2.9 2.4 4.3 1.5 2.6 3 5.1 2.2 7.4h0.3c0.1 0 .1-.1 .2-.1 1.2-.8 2-2.2 1.2-3.8-.9-1.7-3.2-3.8-4-5.6-.5-1-.5-1.8-.2-2.6 .3-.6 1.2-1 2.2-.9 .2 .1 .8 .3 1.1 .5 1 .6 1.5 1.6 1.3 2.4-.1 .5-.5 .6-1.1 .5-.4-.2-.9-.5-1.2-.8-.2-.3-.1-.7-.2-1.1-.7-.1-.9 .1-.9 .6-.1 .9 1.1 2.2 2.2 2.4 1 .3 1.9-.2 2.2-.9 .3-1 0-2.1-.9-2.8-.4-.4-.9-.9-1.1-1.2-.2-.4 0-.7 .1-1.1 0-.1-.1-.1-.1-.2-1.2-.5-1.4 .3-2.1 .7-.2-.4-.4-.6-.5-.9-.3-.5-.4-.7-.6-.7-.1 0-.3 .1-.5 .3m-9.1 1.4c-.2 .2-.3 .6-.1 .9 .4 .7 1.2 1.5 2.1 1.9 1.6 .8 3.2 2 4.3 3.6 .2 .3 .4 .5 .6 .9-1-1-2.1-1.8-3.1-2.7-1.1-1-2.1-1.4-3-1.3-.3 0-.4 .3-.4 .5 .1 .9 .7 1.9 1.6 3 .8 1 1.6 2.1 2.4 3.1-.2-.2-.4-.3-.5-.5-1.3-1.1-2.4-2.3-3.4-3.8-.5-.7-2.5-3.2-3.4-2-.3 .4 .2 1.3 1.1 2.1 .9 .6 1.7 1.2 2.6 1.8 0 1 .4 1.7 1.6 2.6 .7 .5 1.4 .9 2.1 1.4 .2 .2 .5 .4 .6 .6 .4 1 1 1.5 1.8 1.9 .8 .4 1.5 .4 2.1 .4 .5 0 1-.3 1.3-.7 .5-.6 .8-2.4 .1-3.7-.3-.4-.7-1-1.1-1.3-.3-.3-.5-.5-.7-.9-.4-.9-.9-1.7-1.5-2.6-.9-1.2-1.6-1.5-2.4-1.4-.7-.9-1.3-1.7-2.1-2.4-.7-.7-1.5-1.1-2-1.1-.2 0-.3 .1-.3 .1m-5.7 7.4c0 1.2 1.8 1.3 2.2 1.2 .5-.2 .9-.6 1.4-.8 .4-.1 .9 0 1.5 .1-1.2-.7-2.9-1.6-4-1.6-.7 0-1.2 .3-1.2 1.1m2.5 2.1c-.2 .1-.4 .2-.5 .3 .3 .3 .6 .9 1 1.1-.5 .1-.9 .2-1.3 .3-.3 .1-.5 .3-.7 .5-.5 .5-.4 .6 .4 1.2 .3 .2 .5 .4 .9 .6-1.2 .9-.7 2.1-.6 2.1 .4-.1 .7-.2 1.1-.1 .4 .2 .9 .6 1.2 1.1 .7 1 1.7 1.3 2.8 1.1 .7-.2 1.2-1.1 1-2.1-.2-1.1-1.4-2.3-2.3-2.3-.5 0-.6 .2-.6 .9 .4 .1 .7 0 1 .2 .3 .3 .6 .8 .7 1.2 .2 .6-.1 1-.5 1-.8 .2-1.7-.4-2.3-1.4-.2-.3-.4-.9-.4-1.1-.1-1 .3-1.9 1-2.1 .7-.3 1.6-.2 2.6 .3 1.7 1 3.7 3.4 5.3 4.4 1.6 1 3 .2 3.9-.9 .1-.1 .1-.1 .1-.1 0-.1 0-.1 .1-.3-2.3 .7-4.7-1-7.2-2.7-1.3-.9-2.7-1.9-4.1-2.7-.6-.4-1.2-.5-1.7-.5-.2 0-.3 0-.5 .1m19.5 1.2c-1.2 .6-1.8 2.4-.6 4.6 .3 .5 .6 1.1 1 1.6 1.5 1.9 3.2 3.5 4.9 5.1 1 1 2 2.1 3 3.1 2.5 2.8 2 6.1 2.1 6.2 1.1-1.8 2.1-3.7 1.2-6.6-.6-1.8-1.8-3-3.1-4.2-1-.9-2-1.5-3-2.3-1.4-1.1-2.2-2.6-2.3-3.9-.1-1.2 .7-1.7 2.1-1.3 .2 .1 .3 .1 .6 .2-.5-1-1.5-1.7-2.3-2.1-.9-.5-1.6-.7-2.3-.7-.5 0-1 .1-1.3 .3m-2.1 7.6c1.8 2.8 3.2 5.8 4.6 8.8 .7 1.5 1.7 2.8 2.6 4.1 .3 .5 1.1 .6 1.6 .7 .4 .1 .6 .2 .9 .6 3.1 5.7 5.5 11.7 7.5 17.4 .1 .2 .1 .5 .1 .6-.9 1.7-.3 2.9 .5 4 .7 .9 2 2.7 2.5 2.7 .1-1.1 .2-2.1 .2-3.2 0-1-.1-2-.3-2.8-.2-.5-.7-.9-1.2-1.3-.3-.3-.7-.5-.9-.9-2.1-5.6-4.5-11.4-7.7-17-.3-.6-.4-1-.2-1.5 .3-1 0-2.1-.5-3.1-1.5-2.6-3.5-4.6-5.5-6.4-1.2-1.1-2.6-2.1-3.8-3.1-.2-.1-.3-.2-.6-.4 .2 .3 .2 .5 .3 .7m-5.6 1.4c-1.1 .8-1.6 2-1.5 3.8 .1 1.3 1 3 1.8 3.6 .1-.6 .1-1.2 .1-1.7 .2-1.1 1-1.6 2-1.4 .9 .2 2.1 1.2 2.5 2.3 .7 1.7 1.2 3.5 1.8 5.2 .6 2 1.8 3.2 3.5 3.6 1.3 .3 2.6 .1 3.9-.5-.5-.3-1-.6-1.4-.9-1.4-.9-2.3-2.3-3.1-4-.9-2.1-1.8-4.3-2.9-6.3-.8-1.3-1.8-2.6-2.9-3.5-.7-.6-1.4-.9-2.1-.9-.6 0-1.1 .2-1.6 .6m-10.9 13.7c-.9-.2-1.8-.3-2.8-.4-.3 1.1 .2 2.1 .9 2.9 .6 .8 1.4 1.5 2.2 2.2-.5 .3-1.1 .5-1.7 .7 1 2 2.5 3 5 2.8 2-.3 4-.7 6-1.2 2.2-.5 4.4-1.1 6.5-.1 2 .9 3.3 2.7 3.9 5.1 .5 1.9 .2 3.6-.6 5.4-.1 .1 .4 .5 .5 .5 .3-.7 1-1.9 1.2-2.7 1.1-5.9-2.8-10-7.6-10.3-1.9-.2-3.8 .1-5.7 .1-1.6 .1-3.2 0-4.5-1-1.6-1.2-2.6-3.7-1.2-5.8 .8-1.2 2.3-1.7 3.6-1.1 .8 .4 1.6 1.6 1.5 2.6 0 .6-.2 1.2-.7 1.4-.5 .2-1 0-1.4-.5-.1-.1-.2-.1-.2-.2-.3 .9 .3 2.3 1.2 2.7 1.6 .5 3.2-1.5 2.9-3.6-.3-1.9-1.1-3.4-2.8-4.2-1.8-.8-3.3-.5-4.6 .8-.2 .2-.3 .3-.4 .4-.7-.7-1.3-1.3-1.9-1.9-1.1 1.9-.4 3.5 .7 5.3m9.1 3c1.8-.1 3.7-2.4 2.9-4.5-.6-1.5-2.5-2.8-3.9-3.7 2.2 2.6 3.1 5.4 1.1 8.2m23.3 3.2c0.6 1.1 1.1 2.3 1.5 3.5 1.8-1.1 3-3.2 2.3-5.5-.4-1.2-1-2.2-1.6-3.3-.5-.8-1-1.5-1.5-2.2-.5-.7-.9-1.5-1.4-2.3-1.1 3.5-1.1 6.8 .7 9.9m-6.8 4.4c0.6 1.5 2.2 2.1 3.8 1.5 .5-.2 1.1-.4 1.4-.6-.5-1.3-1.1-2.5-1.5-3.7-1-2.8-2.7-4.1-4.9-4.5-.5-.1-1.1-.1-1.8-.2 1.1 2.6 2 5.1 2.9 7.5m-19.2-.3c0.3 .2 .5 .3 .7 .4-1 1.1-2.6 1.4-3.4 2.9 .9 0 1.7 0 2.5 .1-.4 1-1.1 2.9-1.1 2.9 4.6-4.5 9-4.8 14-4-.2-1.4-3.3-3.7-5.2-4.2-.6-.2-1.2-.2-1.8-.2-2 0-3.8 .7-5.8 2.1m29.4 1.4c1.2-.5 2.5-1 3.7-1.2-.1-.2-.2-.4-.2-.6-.2-.5-.4-1.1-.7-1.7-1.2 1-2.2 2.2-2.8 3.5m0.3 3.1c-.1 0-.1 .1-.3 .3 1.9 .3 2.6 2 2.9 3.9 1.1-.3 1.6-1.2 2-2 .4 .4 .8 .8 1.2 1.1-.4-1.4-.8-2.8-1.3-4.2-.3-.1-.5-.1-.7-.1-1.3 0-2.6 .4-3.9 1m-16.2 6.6h0.7c-.4 1-.8 2-1.3 3 .1 .1 1.6-.7 2.3-1.2 .3 .6 .5 1.2 .7 1.8 1.5-4.9 5-7.7 8.5-10.6-.3-.1-.5-.1-.8-.1-3.1 0-7.9 2.7-10.1 7m11.4-3.3c-1.2 1.1-2.3 2.2-3 3.8-.6 1.5-.4 2.7 .6 3.8 1.2-1.1 2.1-2.2 1.8-3.6 .9-.1 1.6-.1 2.7-.2-.7-1.7-1.2-3.1-.2-5-.1-.1-.1-.1-.2-.2-.5 .5-1.2 .9-1.7 1.3m7.2 2.2c0.6 1.1 1.1 2 1.7 2.8 .4 .6 1.2 1 2.1 .6 .3-.1 .7-.4 1-.7-.1-.4-.2-.9-.3-1.3-.6 .1-1.1-.3-1.5-.6-.7-.5-1.4-.8-2.3-.8-.2 0-.4 0-.5 .1m-6.4 5.1c-.3 .9-.6 1.5-1.7 1.8 .4 .6 1.1 .7 1.9 .7 .7-.1 1.2-.6 1.5-1.2 .5-.9 .5-1.9 .4-2.8-.1-.5-.2-1.1-.3-1.4-1 .9-1.5 1.9-1.9 2.9m7.7 1.4c0.9 .5 2.1-.1 2.8-1.5-1.2 .3-1.5-.4-2.1-1-.5-.5-1.2-.9-1.9-1.3-.3 1.4 .3 3.3 1.2 3.8m-4.8-.2c0.1 .8 .1 1.5-.7 2.2 .7 .2 1.4 .1 2.1-.5 .6-.5 .7-1 .7-1.7-.1-1.1-.9-2.4-1.9-2.9 0 1.1-.2 2-.2 2.9m3.6 3.3c0.1 .2 .2 .3 .4 .3h0.1c0.2 0 .3-.1 .5-.2 .5-.3 .7-.6 .6-1-.2-1.2-1.1-1.9-2-2.6-.2 1.3-.2 2.5 .4 3.5" fill="url(#al)"/>
    <path d="m137.8 171.4 1.6-.9-4.3-7.5-1.6 .9 1.6 2.9-7.8 4.5 1 1.7 7.8-4.5zm7.1 8.6-7.8 1.2 4.9-6.1-1.5-2.7-9.4 5.4 1 1.7 7.2-4.2 .1 .1-5.7 6.8 .8 1.4 8.7-1.5 .1 .1-7.2 4.2 1 1.7 9.4-5.4z" fill="#bcbab7"/>
    <path d="m81.2 351-3.8-12.7-3.7 12.7zm12.3 10h-9.6l-1.2-4.1h-10.7l-1.2 4.1h-9.3l11.1-30.5h9.8zm-50.4-30.5v30.5h9.5v-11h6.8l2.4-6.7h-9.3v-6.2h11.4l2.4-6.7zm-16 30.5h9.5v-30.5h-9.5zm-26.2-30.5v30.5h9.5v-11h6.8l2.4-6.7h-9.3v-6.2h11.5l2.4-6.7zm235.5 24.4h3.1c3 0 5.4-.7 7-2.3 1.6-1.5 2.4-3.8 2.4-6.9s-.9-5.3-2.5-6.9-4-2.3-7-2.3h-3.1zm-8.1-24.4h11.1c2.7 0 5.1 .2 7.3 .7 2.2 .5 4.1 1.3 5.7 2.4s2.8 2.7 3.7 4.6c0.9 2 1.3 4.4 1.3 7.4 0 2.9-.5 5.3-1.3 7.2-.9 2-2.1 3.5-3.7 4.7-1.6 1.2-3.5 2.1-5.7 2.6-2.2 .5-4.6 .8-7.2 .8h-11.1zm-23.4 0h8.1v24.4h12.6v6h-20.6zm-21.1 12.7h2.1c0.6 0 1.3 0 2-.1 .7-.1 1.3-.2 1.9-.4 .6-.2 1.1-.6 1.4-1.1 .4-.5 .6-1.1 .6-2 0-.7-.2-1.3-.5-1.7-.3-.4-.7-.8-1.3-1-.5-.2-1.2-.4-1.9-.5-.7-.1-1.4-.1-2.2-.1h-2.1zm-8.1-12.7h14.5c1.3 0 2.6 .2 3.8 .5 1.2 .3 2.2 .8 3.1 1.4 .9 .6 1.6 1.4 2.1 2.4 .5 1 .7 2.1 .7 3.4 0 2-.5 3.7-1.4 5-1 1.3-2.4 2.2-4.4 2.7v0.1c0.6 .2 1.2 .4 1.5 .9 .4 .4 .7 .9 1 1.4 .3 .6 .5 1.2 .8 2 .3 .7 .6 1.6 1 2.5l3 8.3h-8.5l-1.8-5.5c-.4-1.3-.8-2.4-1.2-3.2-.4-.9-.7-1.5-1.2-2-.4-.5-.9-.9-1.4-1-.5-.2-1.2-.3-1.9-.3h-1.7v12h-8.1zm-25.2 15.2c0 1.3 .1 2.4 .4 3.6 .3 1.2 .6 2.2 1.2 3.1 .5 .9 1.3 1.6 2.1 2.2 .9 .5 1.9 .8 3.1 .8 1.2 0 2.3-.3 3.1-.8 .9-.5 1.6-1.3 2.1-2.2 .5-.9 1-1.9 1.2-3.1 .3-1.2 .4-2.4 .4-3.6 0-1.3-.1-2.6-.4-3.7-.3-1.2-.7-2.2-1.2-3.1-.5-.9-1.3-1.6-2.1-2.1-.9-.5-1.9-.8-3.1-.8-1.2 0-2.3 .3-3.1 .8-.9 .5-1.6 1.2-2.1 2.1-.5 .9-1 1.9-1.2 3.1-.3 1.2-.4 2.4-.4 3.7m-8.3 0c0-2.4 .3-4.6 1-6.6 .6-2 1.6-3.6 2.9-5s2.9-2.4 4.8-3.1c1.9-.7 4.1-1.1 6.6-1.1s4.7 .4 6.6 1.1c1.9 .7 3.5 1.8 4.8 3.1 1.3 1.3 2.2 3 2.9 5 .6 2 1 4.2 1 6.6 0 2.4-.3 4.6-1 6.6s-1.6 3.6-2.9 5c-1.3 1.4-2.9 2.4-4.8 3.1s-4.1 1.1-6.5 1.1c-2.5 0-4.7-.4-6.6-1.1-1.9-.7-3.5-1.8-4.8-3.1-1.3-1.4-2.3-3-2.9-5-.6-2-1-4.2-1-6.6m-43.2-15.2h8.3l3.9 23.4h0.1l4.1-23.4h10.3l4.3 23.4h0.1l3.9-23.4h7.9l-6.8 30.5h-10.4l-4.3-23.4h-.1l-4 23.4h-10.5zm236.7 14.1h2.1c0.7 0 1.3-.1 2-.2 .6-.2 1.1-.4 1.6-.7 .4-.3 .8-.7 1.1-1.3 .3-.5 .4-1.2 .4-2s-.1-1.4-.4-2-.6-1-1.1-1.3c-.4-.3-1-.5-1.6-.7-.6-.2-1.3-.2-2-.2h-2.1zm-8.1-14.1h9.7c4.7 0 8.1 .8 10.3 2.4 2.2 1.6 3.3 4.2 3.3 7.6 0 3.1-1.1 5.5-3.2 7.2-2.1 1.8-5.1 2.6-8.9 2.6h-3.1v10.6h-8.1zm-4 18.9c0 2.1-.3 3.9-1 5.4-.6 1.5-1.5 2.8-2.7 3.7-1.2 1-2.6 1.7-4.2 2.2-1.6 .5-3.5 .7-5.4 .7-2 0-3.8-.2-5.4-.7-1.6-.5-3-1.2-4.2-2.2-1.2-1-2.1-2.2-2.7-3.7-.6-1.5-1-3.3-1-5.4v-18.9h8.1v17.5c0 1 .1 2 .2 2.9 .2 .9 .4 1.7 .9 2.3 .4 .7 .9 1.2 1.6 1.6 .6 .4 1.5 .6 2.6 .6 1 0 1.9-.2 2.6-.6 .7-.4 1.2-.9 1.6-1.6 .4-.7 .7-1.5 .9-2.3 .2-.9 .2-1.8 .2-2.9v-17.5h8.1zm-29.2 10.9c-1.2 .3-2.4 .6-3.8 .9-1.4 .3-3.1 .4-5.2 .4-2 0-4.1-.3-6.2-.9-2.1-.5-3.9-1.4-5.6-2.7-1.6-1.2-3-2.8-4.1-4.8s-1.6-4.4-1.6-7.3c0-2.7 .4-5 1.3-7 .9-2 2.1-3.6 3.6-5 1.5-1.3 3.4-2.3 5.5-3 2.1-.6 4.5-1 7-1 1.6 0 3.1 .2 4.6 .5s3 .7 4.4 1.1l-.6 6.6c-1.3-.7-2.6-1.3-3.9-1.6-1.3-.4-2.7-.5-4-.5-1.4 0-2.8 .3-3.9 .7-1.2 .5-2.2 1.2-3 2-.9 .9-1.5 1.9-1.9 3.1-.4 1.2-.7 2.5-.7 3.9 0 1.5 .3 2.8 .7 4s1.2 2.2 2.1 3c0.9 .9 2 1.4 3.2 1.9 1.2 .4 2.6 .6 4.1 .6 1.3 0 2.7-.2 3.9-.5 1.3-.3 2.5-.7 3.6-1.1zm-143.3 41.9c-2.1 0-3.1-2.9-3.1-10.8 0-4.1 2-5.1 7.7-5.1 1.5 0 2.7 0 3.8 .1-1.8 5.6-4.3 15.9-8.5 15.9m-11.5-5.4c0 2.1 .2 3.9 .6 5.4h-30.1c-4 0-6.5-.9-6.5-4.6v-10.3h9.5c0.8-2.3 1.3-4.4 1.5-6.7h-11c0.1-3.1 .3-6 .5-9.3-3.6 1.3-6.4 2.8-8.7 5.3v3.9h-4.9c-.4 2.8-.4 4.8-.5 6.7h5.4v10.8c0 7.6 4.6 10.8 10.8 10.8h40.9c5 0 8.9-4.1 12.6-13.4v13.4h8.2v-28.2c-3.7-.3-7.1-.5-10.7-.5-10.2 0-17.4 4.2-17.4 16.7m43.1-3.1v-2.8c0-3.6-.3-6.7-.7-10.3h-7.9c0.3 3.6 .5 6.7 .5 10.3v18h8.2c0-10.1 3.2-21.5 11.8-20.3 0-1.8-.3-5.9-.7-8.5-6.3 .5-9.3 6.1-11 13.5m-112.9 8.5c-2.1 0-3.1-2.9-3.1-10.8 0-4.1 2-5.1 7.7-5.1 1.5 0 2.7 0 3.8 .1-1.8 5.6-4.3 15.9-8.5 15.9m-11.5-5.4c0 8.5 3.1 12.6 7.2 12.6 5 0 9-4.5 12.8-14v13.4h8.2v-28.2c-3.7-.3-7.1-.5-10.7-.5-10.2 0-17.4 4.2-17.4 16.7m267.3-13.1c0-7-4.9-11.3-13.6-11.3-4.8 0-8.3 1-10.5 2.1-1.2 1.8-1.8 3.7-2.6 6.9 3.3-1.3 6.4-2.3 11.3-2.3 3.8 0 6.9 1.7 6.9 6.2 0 4.8-3 8.4-19.5 18 0 1 .1 3.1 .5 5.6h27.2c0.8-2.3 1.3-4.4 1.5-6.7h-23.1c11.5-3.9 21.9-8.1 21.9-18.5m-286.6 17.3-.4-.2c-4.9-2.6-11.5-6.6-11.5-13.9 0-6.7 4.3-9.8 9.5-9.8 5.7 0 9.3 4 9.3 11.1 0 4.9-2.7 9.2-6.8 12.8m15.7 8.4-13.5-7.2c7.7-2.8 13.2-8.3 13.2-16 0-10.5-7.9-15.8-17.9-15.8-9.3 0-18.2 6-18.2 17.5 0 9.7 7.4 15.5 15.5 19.8l26.1 13.6c0-6-.7-9.4-5.1-11.8m191.9-3.1c-2.3 0-9.5-4.7-9.5-17.2 0-6.2 3.6-10 9.5-10 5.9 0 9.5 3.8 9.5 10 0 12.5-7.2 17.2-9.5 17.2m0-33.9c-10.3 0-17.9 6.2-17.9 16.2 0 13.1 12.6 20.8 17.9 20.8s17.9-7.7 17.9-20.8c0-10-7.7-16.2-17.9-16.2m0.1 14c-1.8 1.3-3.4 2.8-4.7 4.5 1.4 1.7 2.9 3.2 4.7 4.5 1.8-1.3 3.4-2.8 4.7-4.5-1.4-1.7-2.9-3.2-4.7-4.5m47.1-2.7c0-7-4.9-11.3-13.6-11.3-4.8 0-8.3 1-10.5 2.1-1.2 1.8-1.8 3.7-2.6 6.9 3.3-1.3 6.5-2.3 11.3-2.3 3.8 0 6.9 1.7 6.9 6.2 0 4.8-3 8.4-19.5 18 0 1 .1 3.1 .5 5.6h27.2c0.7-2.3 1.3-4.4 1.5-6.7h-23.1c11.5-3.9 21.9-8.1 21.9-18.5m-69.2 0c0-7-4.8-11.3-13.6-11.3-4.8 0-8.3 1-10.5 2.1-1.2 1.8-1.8 3.7-2.6 6.9 3.3-1.3 6.4-2.3 11.3-2.3 3.8 0 6.9 1.7 6.9 6.2 0 4.8-3 8.4-19.5 18 0 1 .1 3.1 .5 5.6h27.2c0.7-2.3 1.3-4.4 1.5-6.7h-23.1c11.5-3.9 21.9-8.1 21.9-18.5" fill="url(#x)" fill-rule="evenodd"/>
  </g>
  <path d="m114.9 55.6c0 6 4.8 10.8 10.8 10.8 6 0 10.8-4.8 10.8-10.8 0-6-4.8-10.8-10.8-10.8-6 0-10.8 4.8-10.8 10.8m12.2-5.1c-1.1-.4-1.8-1.5-1.8-2.6 .1-0 .2-0 .3-0 1.8 0 3.4 .6 4.7 1.6-.5 .7-1.4 1.2-2.3 1.2-.3 0-.7-.1-1-.2m-8.6 2.3c0.7-1.7 1.9-3.1 3.5-4 .2 .4 .4 .9 .4 1.4 0 1.5-1.2 2.8-2.8 2.8-.4 0-.7-.1-1.1-.2m5.5 5.5-1.4-2.6c-.2-.3-.1-.7 .1-.9l2.1-2.1c0.2-.2 .6-.3 .9-.2l2.7 1.3c0.3 .1 .5 .5 .4 .8l-.4 2.9c-0 .3-.3 .6-.6 .7l-2.9 .5c-0 0-.1 0-.1 0-.3 0-.5-.2-.7-.4m6.9-2.2c0-1.3 .9-2.4 2.1-2.7 .2 .7 .3 1.4 .3 2.2 0 1.1-.2 2.2-.7 3.1-1-.4-1.8-1.4-1.8-2.6m-12.7 1.3c0.2-.1 .5-.1 .7-.1 1.5 0 2.8 1.2 2.8 2.8 0 .6-.2 1.2-.6 1.7-1.4-1.1-2.5-2.6-2.9-4.4m6.8 5.8c0.2-1.4 1.3-2.4 2.7-2.4 .9 0 1.8 .5 2.3 1.2-1.2 .8-2.7 1.3-4.3 1.3-.2 0-.5-0-.7-.1" fill="url(#ap)"/>
</svg>