<?xml version="1.0" encoding="UTF-8"?>
<!-- Generator: Adobe Illustrator 24.1.2, SVG Export Plug-In . SVG Version: 6.00 Build 0)  -->
<svg version="1.1" id="Слой_1" xmlns="http://www.w3.org/2000/svg" xmlns:xlink="http://www.w3.org/1999/xlink" x="0px" y="0px" viewBox="0 0 629.4 740.5" style="enable-background:new 0 0 629.4 740.5;" xml:space="preserve">
<style type="text/css">
	.st0{fill-rule:evenodd;clip-rule:evenodd;fill:#FFFFFF;}
	.st1{fill-rule:evenodd;clip-rule:evenodd;fill:#2C52AB;}
	.st2{fill-rule:evenodd;clip-rule:evenodd;fill:#EC1738;}
	.st3{fill:#2C52AB;}
	.st4{fill:#FFFFFF;}
</style>
<path class="st0" d="M438,86.6c8.5-25.1,13-54.6,14.8-69.7c-31.5-5.9-61.7-5.7-87.4,5.4c5.5-7.7,13.6-15.5,22.8-20.1  c-34.7-8.6-93.8,7.3-133.6,64.9C109.8,95.3,0,223.1,0,376.1c0,165.5,128.4,301.5,290.8,313.8l1.8,42l22.1,8.6l22.1-8.6l1.8-42  C501,677.6,629.4,541.6,629.4,376.1C629.4,246.3,550.4,134.6,438,86.6"/>
<path class="st1" d="M433.9,97.2c-1.5,3.5-3,7-4.6,10.3C533.5,152,606.6,255.5,606.6,376c0,161.2-130.7,291.9-291.9,291.9V201.6  c-30,7.2-56,3-69.9-10.8c-24.2-24.1-19-73.3,1.5-110.3C111.9,111.7,11.4,232.4,11.4,376.1c0,167.2,136.1,303.3,303.3,303.3  S618,543.3,618,376.1C618,251.1,542.1,143.6,433.9,97.2"/>
<path class="st2" d="M434.9,53c-22.1,128.5-152,160.8-182,129.8c-34.6-35.6,1.2-153.4,109.5-172.5c-19.6,14.4-35.8,34.6-38,50.9  c45.4-38.1,80.4-39.5,112.3-35.1C415.5,35.8,394,53.4,388,74.8C408.1,69.6,422.2,63.7,434.9,53"/>
<path class="st0" d="M314.7,300.6l-34.5,12.6c6.3,31.7,9.2,74.3,11.1,114.6c-36.8,14.4-66.6,9.3-77.6-11.3  c-26.3-49.4,51.8-132.9,166.9-184.1c-142.1,29.8-252.4,141.4-215.7,212.1c18.6,35.8,71.7,40.7,127.4,8.8l11.3,270.6l11.1,4.3V300.6"/>
<path class="st3" d="M464.6,304.2c-15.5-29.8-55-38.2-100-21.7l-50,18.2v415.4l-11.6-4.5l0.5,12.4l11,4.3l11-4.3l10-237.4  C432,439.9,493.4,359.5,464.6,304.2 M336.6,466.3c1.8-48.1,4.2-107,11.9-148.9c32.1-9.8,57.5-3.9,67.4,14.8  C434.6,367.5,400,420.3,336.6,466.3z"/>
<path class="st4" d="M234.6,593.5l-1,2.6c2.3,0.9,4.3,2.1,5.9,3.5s2.8,3,3.7,4.7c0.8,1.7,1.3,3.6,1.3,5.7c0,2-0.4,4.1-1.2,6.3  l-0.4,0.9c-0.8,2-1.9,3.7-3.3,5.1c-1.4,1.4-3,2.4-4.8,3.1c-1.8,0.7-3.8,1-5.9,0.9s-4.3-0.6-6.7-1.5l-1,2.6l-9.8-3.9l1-2.6  c-2.3-0.9-4.3-2.1-5.9-3.5c-1.6-1.4-2.8-2.9-3.7-4.7c-0.8-1.7-1.3-3.6-1.3-5.6c-0.1-2,0.3-4,1.1-6l0.4-0.9c0.8-2.1,2-3.9,3.4-5.4  s3-2.6,4.8-3.2c1.8-0.7,3.8-1,5.9-0.9c2.1,0.1,4.4,0.6,6.7,1.5l1-2.6L234.6,593.5 M220.9,600.2c-0.8-0.3-1.6-0.5-2.4-0.6  c-0.7,0-1.4,0.1-2,0.3c-0.6,0.3-1.2,0.8-1.7,1.5c-0.6,0.7-1.1,1.7-1.5,2.8l-0.4,0.9c-0.4,1.1-0.7,2.1-0.7,2.9c0,0.9,0.1,1.6,0.4,2.2  c0.3,0.6,0.7,1.1,1.2,1.6c0.6,0.4,1.2,0.8,2,1.2L220.9,600.2z M230.2,603.9l-5.1,12.8c0.8,0.3,1.6,0.5,2.3,0.6c0.7,0.1,1.4,0,2-0.3  c0.6-0.2,1.2-0.7,1.7-1.4s1-1.5,1.4-2.6l0.4-0.9c0.5-1.2,0.8-2.2,0.8-3.1c0.1-0.9,0-1.6-0.3-2.3c-0.3-0.6-0.7-1.2-1.2-1.6  C231.8,604.6,231.1,604.2,230.2,603.9z M200.5,578.3c0.3,0.2,0.6,0.4,0.9,0.7c0.3,0.2,0.6,0.5,0.7,0.7l-4.3,7.1  c-0.3-0.2-0.6-0.5-0.9-0.8s-0.7-0.5-1-0.7c-0.4-0.3-0.8-0.4-1.1-0.6c-0.4-0.1-0.7-0.2-1-0.2c-0.3,0-0.6,0-0.8,0.1  c-0.2,0.1-0.5,0.2-0.8,0.4l-1.1,28.1l-9.8-6l1.2-15.5l-11.9,9l-9.1-5.5l22.3-16.1c1.6-1.1,3-2,4.3-2.6c1.3-0.6,2.6-0.9,3.8-1  c1.3-0.1,2.6,0.1,3.9,0.6C197.3,576.5,198.8,577.3,200.5,578.3z M169.4,557.9l-16.2,19.3l7.4,6.2l-5.6,6.7l-23-19.3l5.6-6.7l7.4,6.2  l16.2-19.3L169.4,557.9z M150.3,541.4L125,564l-17.6-19.8l6-5.3l10.4,11.7l3-2.7l-2.9-3.3c-1.7-1.9-2.9-3.7-3.8-5.3  c-0.8-1.7-1.3-3.3-1.4-4.8c-0.1-1.5,0.2-2.9,0.8-4.2s1.5-2.5,2.8-3.6c1.3-1.2,2.6-2,4-2.5s2.8-0.6,4.3-0.4c1.5,0.2,3.1,0.9,4.6,1.9  c1.6,1,3.2,2.5,4.9,4.4L150.3,541.4z M137.2,538.7l-2.2-2.5c-0.5-0.6-1-1-1.5-1.4c-0.5-0.3-0.9-0.5-1.4-0.6  c-0.4-0.1-0.9-0.1-1.3,0.1c-0.4,0.1-0.8,0.4-1.2,0.7s-0.7,0.7-0.8,1.1c-0.2,0.4-0.2,0.8-0.2,1.2s0.2,0.9,0.4,1.4  c0.3,0.5,0.7,1.1,1.2,1.7l2.2,2.5L137.2,538.7z M119.6,501.7c1.2,1.9,2.2,3.9,2.7,6c0.6,2.1,0.7,4.2,0.3,6.2c-0.3,2.1-1.2,4-2.6,6  c-1.4,1.9-3.3,3.7-5.9,5.4l-0.8,0.5c-2.5,1.6-4.8,2.6-7.1,3s-4.4,0.3-6.4-0.2s-3.8-1.5-5.5-2.9s-3.1-3-4.4-4.9c-1.3-2-2.2-4-2.7-6.1  c-0.6-2.1-0.7-4.2-0.4-6.2c0.3-2,1.1-4,2.4-5.9s3.2-3.6,5.7-5.2l0.8-0.5c2.5-1.7,5-2.7,7.3-3.1c2.3-0.4,4.5-0.4,6.5,0.1  s3.9,1.5,5.6,2.8C116.9,498.1,118.3,499.8,119.6,501.7z M112.2,506.5c-0.5-0.7-1-1.3-1.6-1.7s-1.4-0.7-2.2-0.8s-1.8,0-2.9,0.4  c-1.1,0.3-2.3,0.9-3.7,1.8l-0.8,0.5c-1.3,0.8-2.3,1.7-3,2.5s-1.2,1.7-1.4,2.4c-0.2,0.8-0.3,1.5-0.1,2.3c0.2,0.7,0.5,1.5,0.9,2.2  s1,1.2,1.6,1.7s1.3,0.7,2.1,0.8s1.8,0,2.8-0.3c1.1-0.3,2.2-0.9,3.5-1.7l0.8-0.5c1.4-0.9,2.4-1.8,3.2-2.6c0.7-0.9,1.3-1.7,1.5-2.5  c0.3-0.8,0.3-1.6,0.2-2.3C112.9,507.9,112.6,507.2,112.2,506.5z M107.9,482.4c0.1,0.1,0.1,0.3,0.2,0.5c0.1,0.2,0.2,0.4,0.3,0.6  s0.2,0.5,0.2,0.7c0.1,0.2,0.1,0.4,0.1,0.5l-8.2,3.6c0-0.1,0-0.2-0.1-0.3c-0.1-0.1-0.1-0.2-0.2-0.4c-0.2-0.4-0.4-0.8-0.7-1.1  c-0.3-0.3-0.6-0.5-1.1-0.7c-0.4-0.1-1-0.2-1.7-0.1s-1.5,0.2-2.6,0.5c-1,0.3-2.3,0.7-3.7,1.3c-1.4,0.6-3.1,1.3-5.1,2.1l-10.2,4.5  l-10.7-24.3l31-13.7l4.3,9.8l-23.1,10.2l2.4,5.4l3.1-1.4c3.1-1.4,5.8-2.4,8.1-3.1c2.3-0.7,4.3-1.2,6.1-1.4c1.7-0.2,3.2-0.2,4.4,0.1  c1.2,0.3,2.2,0.7,3.1,1.3c0.9,0.6,1.6,1.4,2.2,2.3C106.8,480.2,107.4,481.3,107.9,482.4z M93.5,450l-32.7,8.8L58,448.4l10.2-2.8  l-1-3.9c-0.6-2.4-0.9-4.5-0.9-6.4s0.4-3.5,1-4.9s1.6-2.5,2.8-3.4c1.2-0.9,2.7-1.6,4.4-2c1.8-0.5,3.5-0.7,5.1-0.5  c1.6,0.1,3,0.7,4.3,1.5c1.3,0.9,2.4,2.1,3.4,3.7s1.8,3.6,2.4,6L93.5,450z M82.7,441.8l-0.7-2.7c-0.2-0.8-0.5-1.5-0.8-2  s-0.7-0.9-1.1-1.2c-0.4-0.3-0.8-0.5-1.3-0.5c-0.5-0.1-1,0-1.5,0.1s-0.9,0.3-1.3,0.6c-0.4,0.3-0.7,0.6-0.9,1.1  c-0.2,0.4-0.3,1-0.3,1.6s0.1,1.3,0.3,2.2l0.7,2.7L82.7,441.8z M85,417.2l-33.7,3.7l-1.2-10.7l12.2-1.3l-1.1-9.9L49,400.3l-1.2-10.7  l33.7-3.7l1.2,10.7L69.8,398l1.1,9.9l12.9-1.4L85,417.2z M81,379.9l-33.8-2.4l0.8-10.7l10.5,0.7l0.2-3.3c0.2-2.4,0.6-4.5,1.2-6.2  c0.7-1.7,1.5-3.1,2.6-4.2s2.3-1.9,3.8-2.3s3.1-0.6,4.9-0.5c1.9,0.1,3.5,0.5,4.9,1.2s2.6,1.6,3.5,2.8c0.9,1.2,1.6,2.7,2,4.5  s0.5,3.9,0.4,6.3L81,379.9z M83.2,349.7l-33.8-2.4l0.8-10.8l33.8,2.4L83.2,349.7z M73.6,368.6l0.1-2.1c0.1-0.8,0-1.5-0.1-2.1  c-0.2-0.6-0.4-1-0.6-1.4c-0.3-0.4-0.6-0.6-1.1-0.8c-0.4-0.2-0.9-0.3-1.4-0.3s-1,0-1.4,0.1c-0.5,0.1-0.8,0.4-1.2,0.7  c-0.3,0.3-0.6,0.8-0.8,1.3c-0.2,0.5-0.4,1.2-0.4,2l-0.1,2.1L73.6,368.6z M54.6,309c-0.5,1.8-1,3.4-1.7,4.6s-1.4,2.1-2.3,2.7  s-1.8,1-2.9,1.1s-2.3,0-3.7-0.3l2-7.9c1.2,0.3,2,0.3,2.5,0.1c0.5-0.2,0.8-0.7,1-1.5c0.2-0.7,0.1-1.4-0.2-1.8  c-0.3-0.5-1.1-0.8-2.3-1.2l2-7.9c1.3,0.3,2.5,0.8,3.4,1.5c0.9,0.6,1.6,1.4,2,2.4s0.7,2.2,0.7,3.5C55.3,305.6,55,307.2,54.6,309z   M85.3,333.2l-32.8-8.5l2.7-10.4l16.9,4.4l-14.2-14.9l2.5-9.6l32.8,8.5l-2.7,10.4l-16.9-4.4l14.2,14.9L85.3,333.2z M100,284.8  l-30.2-15.4l4.9-9.6l11.5,5.9l0.9-1.7l-7.7-13.4l5.2-10.3l9,17.2l21.4-2.2l-5.5,10.9l-15.9,1.2l-0.9,1.7l12.2,6.2L100,284.8z   M118.6,251.2c-0.1,0.1-0.2,0.2-0.3,0.4c-0.1,0.2-0.3,0.4-0.4,0.6c-0.2,0.2-0.3,0.4-0.5,0.5c-0.1,0.2-0.3,0.3-0.4,0.4l-7.2-5.3  c0.1,0,0.1-0.1,0.2-0.2c0.1-0.1,0.2-0.2,0.3-0.4c0.3-0.4,0.5-0.8,0.6-1.2c0.1-0.4,0.2-0.8,0-1.3c-0.1-0.4-0.4-0.9-0.8-1.5  c-0.4-0.6-1-1.2-1.7-2c-0.8-0.8-1.8-1.6-3-2.6s-2.7-2.1-4.4-3.3l-9-6.6l15.6-21.5l27.4,20l-6.3,8.6l-20.3-14.7l-3.5,4.8l2.8,2  c2.7,2,5,3.8,6.7,5.4c1.8,1.6,3.2,3.2,4.3,4.6s1.8,2.7,2.2,3.9c0.4,1.2,0.5,2.3,0.4,3.4s-0.4,2.1-0.9,3.1  C119.9,249.2,119.3,250.2,118.6,251.2z M145.2,217.5c-0.3,0.3-0.5,0.5-0.9,0.8c-0.3,0.3-0.6,0.4-0.9,0.5l-5.9-5.8  c0.3-0.2,0.6-0.4,1-0.7c0.3-0.2,0.7-0.5,1-0.8c0.3-0.3,0.6-0.7,0.8-1c0.2-0.3,0.4-0.6,0.5-0.9c0.1-0.3,0.1-0.5,0.1-0.8  s-0.1-0.5-0.2-0.8l-27.1-7.6l8.1-8.2l14.8,4.8l-6-13.6l7.5-7.5l10.4,25.4c0.7,1.8,1.2,3.4,1.5,4.8c0.3,1.4,0.3,2.7,0.1,4  c-0.2,1.2-0.7,2.5-1.5,3.7C147.7,214.8,146.6,216.1,145.2,217.5z M165.3,197.1l-20.2-27.2l21.2-15.7l4.8,6.4l-12.6,9.3l2.4,3.3  l3.5-2.6c2-1.5,3.9-2.6,5.7-3.3c1.7-0.7,3.4-1,4.9-1c1.5,0.1,2.9,0.4,4.1,1.2c1.2,0.7,2.3,1.8,3.3,3.1c1,1.4,1.7,2.8,2.1,4.2  c0.4,1.4,0.4,2.9,0,4.4s-1.1,3-2.3,4.4c-1.2,1.5-2.8,3-4.8,4.5L165.3,197.1z M169.1,184.3l2.6-2c0.6-0.5,1.1-0.9,1.5-1.4  c0.4-0.4,0.6-0.9,0.7-1.3c0.1-0.4,0.1-0.9,0.1-1.3c-0.1-0.4-0.3-0.8-0.6-1.3c-0.3-0.4-0.6-0.7-1-0.9s-0.8-0.3-1.2-0.3  s-0.9,0.1-1.5,0.3c-0.5,0.2-1.1,0.6-1.8,1.1l-2.6,2L169.1,184.3z"/>
<path class="st3" d="M457.4,186l-3.2-13.4l4.5-5.9l13.8-0.5l-5.4,7.1l-5.5,0.1l1.4,5.3L457.4,186 M467,193.3l-3.2-13.4l4.5-5.9  l13.8-0.5l-5.4,7.1l-5.5,0.1l1.4,5.3L467,193.3z M478.2,212.1l2-1.9c-1.7-1.8-3-3.7-3.9-5.6c-0.9-1.9-1.3-3.9-1.4-5.8  c0-1.9,0.4-3.8,1.2-5.7c0.8-1.9,2.1-3.6,3.7-5.2l0.7-0.7c1.6-1.5,3.3-2.6,5.1-3.3s3.7-1,5.7-0.9c1.9,0.1,3.8,0.7,5.7,1.6  c1.9,1,3.7,2.4,5.4,4.2l2-1.9l7.3,7.6l-2,1.9c1.7,1.8,3.1,3.7,3.9,5.6c0.9,1.9,1.3,3.8,1.4,5.8c0,1.9-0.3,3.8-1.1,5.6  s-1.9,3.5-3.5,5l-0.7,0.7c-1.7,1.6-3.4,2.8-5.3,3.5c-1.9,0.7-3.8,1.1-5.7,0.9c-1.9-0.1-3.8-0.7-5.7-1.6c-1.9-0.9-3.7-2.3-5.5-4.2  l-2,1.9L478.2,212.1z M486.5,204.5l9.9-9.5c-0.6-0.7-1.3-1.2-1.9-1.5c-0.6-0.4-1.3-0.5-1.9-0.6c-0.6,0-1.4,0.1-2.1,0.5  c-0.8,0.4-1.6,1-2.4,1.8l-0.7,0.7c-0.9,0.9-1.6,1.7-2.1,2.5c-0.4,0.8-0.7,1.5-0.7,2.2s0.1,1.3,0.4,2  C485.4,203.1,485.9,203.8,486.5,204.5z M493.5,211.7c0.6,0.7,1.3,1.1,1.9,1.5c0.6,0.3,1.3,0.5,2,0.5s1.4-0.2,2.2-0.6  c0.8-0.4,1.7-1.1,2.6-1.9l0.7-0.7c0.8-0.8,1.5-1.6,1.8-2.4c0.4-0.8,0.6-1.5,0.6-2.1s-0.2-1.3-0.5-1.9c-0.3-0.6-0.8-1.3-1.4-1.9  L493.5,211.7z M498,231.5l34.9-8.9l6,8.9l-21.3,29.1l-6.4-9.5l3.6-4.5l-5.7-8.4l-5.6,1.6L498,231.5z M517.1,235.8l2.9,4.3l6.3-7.3  L517.1,235.8z M519.4,264.2l30.7-14.3l4.5,9.7l-11.7,5.5l0.8,1.8l15.3,2.2l4.9,10.4l-19-3.5l-11.5,18.2l-5.2-11.1l8.9-13.2l-0.8-1.8  l-12.4,5.8L519.4,264.2z M534.6,298.4l32.5-9.6l7.3,24.6l-7.7,2.3l-4.2-14.3l-4.8,1.4l3.8,12.9l-6.8,2l-3.8-12.9l-5.5,1.6l4.2,14.3  l-7.7,2.3L534.6,298.4z M542.6,329.6c0-0.1,0-0.3-0.1-0.5c0-0.2-0.1-0.4-0.1-0.7c0-0.3,0-0.5-0.1-0.7c0-0.2,0-0.4,0-0.5l8.9-1.2  c0,0.1,0,0.2,0,0.3c0,0.1,0,0.3,0.1,0.4c0.1,0.5,0.2,0.9,0.4,1.3s0.4,0.7,0.8,0.9c0.4,0.2,0.9,0.4,1.6,0.6c0.7,0.1,1.5,0.2,2.6,0.2  s2.4-0.1,3.9-0.2c1.5-0.2,3.4-0.4,5.5-0.7l11-1.5l3.7,26.3l-33.6,4.7l-1.5-10.6l25-3.5l-0.8-5.9l-3.4,0.5c-3.3,0.5-6.2,0.7-8.6,0.8  c-2.4,0.1-4.5,0-6.2-0.3s-3.1-0.7-4.2-1.3c-1.1-0.6-2-1.3-2.6-2.1c-0.7-0.8-1.2-1.8-1.5-2.8C543.1,331.9,542.8,330.8,542.6,329.6z   M552.3,364.3l8.9-0.1l3.5,4.3l3.4-4.4l9.2-0.1l-8.6,10.8l-7.4,0.1L552.3,364.3z M552.5,376.4l8.9-0.1l3.5,4.3l3.4-4.4l9.2-0.2  l-8.6,10.8l-7.4,0.1L552.5,376.4z M546.3,404.8l33.3,6.3l-3.3,17.6c-0.4,1.9-0.9,3.6-1.5,4.9s-1.4,2.4-2.3,3.2  c-0.9,0.8-2,1.3-3.1,1.5c-1.2,0.2-2.5,0.2-4-0.1c-0.9-0.2-1.6-0.4-2.3-0.8s-1.3-0.8-1.8-1.3s-0.9-1.1-1.3-1.8  c-0.3-0.7-0.6-1.4-0.7-2.3c-0.9,2-2.1,3.4-3.6,4.2c-1.5,0.8-3.4,1-5.6,0.6c-1.5-0.3-2.8-0.8-3.9-1.5c-1.1-0.7-1.9-1.6-2.6-2.8  c-0.6-1.2-1-2.6-1.1-4.2s0-3.6,0.4-5.8L546.3,404.8z M551.7,416.7l-0.8,4.4c-0.2,0.9-0.3,1.7-0.2,2.3c0,0.6,0.1,1.1,0.3,1.5  s0.4,0.7,0.8,0.9c0.4,0.2,0.9,0.4,1.4,0.5c0.6,0.1,1.1,0.1,1.5,0s0.8-0.3,1.1-0.6c0.3-0.3,0.6-0.8,0.8-1.4s0.4-1.3,0.6-2.3l0.8-4.3  L551.7,416.7z M564.5,419.2l-0.7,3.8c-0.1,0.7-0.2,1.4-0.2,1.9s0.1,1,0.3,1.3c0.2,0.4,0.4,0.6,0.8,0.8c0.3,0.2,0.7,0.3,1.2,0.4  s0.9,0.1,1.3,0c0.4-0.1,0.7-0.2,1-0.5s0.5-0.6,0.7-1.1s0.4-1,0.5-1.7l0.7-3.9L564.5,419.2z M533.4,454.2c0.8-2.2,1.8-4.1,3.1-5.8  c1.3-1.7,2.9-3.1,4.7-4c1.8-1,3.9-1.5,6.3-1.6c2.4-0.1,5,0.4,7.9,1.4l0.9,0.3c2.8,1,5,2.3,6.7,3.8c1.7,1.6,2.9,3.3,3.7,5.2  c0.8,1.9,1.1,3.9,1,6.1s-0.5,4.3-1.3,6.5s-1.8,4.1-3.2,5.9c-1.3,1.7-2.9,3.1-4.7,4.1s-3.9,1.5-6.2,1.7c-2.3,0.1-4.8-0.3-7.6-1.3  l-0.9-0.3c-2.9-1-5.2-2.3-6.9-3.9c-1.8-1.6-3.1-3.3-3.9-5.2c-0.8-1.9-1.2-4-1.1-6.1C532.2,458.5,532.6,456.3,533.4,454.2z   M541.7,457.1c-0.3,0.8-0.4,1.6-0.4,2.3c0,0.8,0.3,1.5,0.7,2.2s1.1,1.4,2.1,2.1c0.9,0.7,2.1,1.3,3.7,1.8l0.9,0.3  c1.4,0.5,2.7,0.8,3.8,0.8c1.1,0.1,2-0.1,2.8-0.4s1.4-0.7,1.9-1.3c0.5-0.6,0.9-1.3,1.1-2.1c0.3-0.8,0.4-1.5,0.4-2.3s-0.2-1.5-0.6-2.2  c-0.4-0.7-1.1-1.4-1.9-2.1c-0.9-0.7-2-1.2-3.5-1.8l-0.9-0.3c-1.5-0.5-2.8-0.8-4-0.9c-1.1-0.1-2.1,0-2.9,0.3c-0.8,0.3-1.5,0.7-2,1.3  C542.3,455.7,541.9,456.4,541.7,457.1z M525.9,475.1l29.8,16.2l-7.1,13c-1.2,2.2-2.4,3.9-3.8,5.2c-1.3,1.3-2.7,2.3-4.2,2.8  s-3,0.7-4.5,0.5s-3.1-0.8-4.8-1.7c-1.6-0.9-2.9-1.9-3.9-3.1s-1.7-2.5-2-4s-0.3-3.2,0.1-5c0.4-1.8,1.2-3.8,2.4-6l1.9-3.5l-9.1-4.9  L525.9,475.1z M536.8,493.3l-1.3,2.4c-0.4,0.8-0.7,1.5-0.8,2.1s-0.1,1.2,0,1.7s0.3,0.9,0.6,1.2c0.3,0.4,0.7,0.7,1.2,0.9  c0.5,0.3,1,0.4,1.5,0.5s0.9,0,1.4-0.2c0.4-0.2,0.9-0.5,1.3-0.9c0.4-0.5,0.9-1.1,1.3-1.8l1.3-2.4L536.8,493.3z M499.1,517  c1.4-1.8,3-3.3,4.8-4.6c1.8-1.2,3.7-2,5.7-2.4s4.2-0.2,6.5,0.4c2.3,0.6,4.6,1.9,7.1,3.7l0.8,0.6c2.3,1.8,4.1,3.7,5.2,5.7  c1.2,2,1.8,4,2,6.1s-0.1,4.1-0.9,6.1c-0.7,2-1.8,4-3.2,5.8s-3,3.4-4.8,4.6c-1.8,1.2-3.7,2-5.7,2.4s-4.1,0.3-6.4-0.3  c-2.2-0.6-4.5-1.8-6.8-3.6l-0.8-0.6c-2.4-1.8-4.2-3.8-5.4-5.8s-1.9-4.1-2.1-6.2c-0.2-2.1,0.1-4.1,0.8-6.2  C496.6,520.8,497.7,518.8,499.1,517z M506.1,522.3c-0.5,0.7-0.9,1.4-1.1,2.1c-0.2,0.7-0.2,1.5,0,2.3s0.6,1.7,1.3,2.6  c0.7,0.9,1.6,1.9,2.9,2.9l0.8,0.6c1.2,0.9,2.3,1.6,3.3,2s2,0.6,2.8,0.5c0.8,0,1.6-0.3,2.2-0.7c0.6-0.4,1.2-0.9,1.7-1.6  c0.5-0.6,0.9-1.3,1.1-2c0.2-0.7,0.3-1.5,0.1-2.3s-0.6-1.7-1.2-2.6c-0.6-0.9-1.6-1.8-2.8-2.7l-0.8-0.6c-1.3-1-2.5-1.7-3.5-2.1  c-1.1-0.4-2-0.6-2.9-0.6c-0.8,0-1.6,0.2-2.3,0.6C507.2,521.2,506.6,521.7,506.1,522.3z M485.8,534.7l23.2,24.7l-7.8,7.4l-8.4-8.9  l-7.3,6.8l8.4,8.9l-7.8,7.4l-23.3-24.7l7.8-7.4l8.9,9.4l7.3-6.8l-8.9-9.4L485.8,534.7z M457.7,560.2l19.4,27.8l-21,14.7l-4.6-6.5  l12.2-8.5l-2.9-4.1l-11,7.7l-4.1-5.8l11-7.7l-3.3-4.7l-12.2,8.5l-4.6-6.6L457.7,560.2z M434.2,577.4l-1.5,19.6l15.2,11.4l-10.2,4.7  l-11.3-9l-1.4,0.6l5.4,11.8l-9.8,4.5l-5.4-11.8l-1.3,0.6l-0.9,14.6l-9.8,4.5l1.7-18l-16.3-12.6l10.5-4.8l11.8,9.6l1.3-0.6l-5.7-12.4  l9.8-4.5L422,598l1.3-0.6L424,582L434.2,577.4z"/>
<path class="st3" d="M380.7,232.4c-23,4.8-45.1,11.8-65.9,20.4v14.9C334.7,254.9,356.9,243,380.7,232.4"/>
</svg>