<svg version="1.1" xmlns="http://www.w3.org/2000/svg" xlink="http://www.w3.org/1999/xlink" x="0px" y="0px" viewBox="0 0 251.5 241.5" style="enable-background:new 0 0 251.5 241.5;" xml:space="preserve">
<style type="text/css">
	.st0{fill-rule:evenodd;clip-rule:evenodd;}
	.st1{fill-rule:evenodd;clip-rule:evenodd;fill:#FFFFFF;}
	.st2{fill-rule:evenodd;clip-rule:evenodd;fill:#005F36;}
	.st3{fill-rule:evenodd;clip-rule:evenodd;fill:#1E8050;}
</style>
<g id="cdr_x5F_object">
	<g>
		<g>
			<path class="st0" d="M248.5,197.5c-9.9-9-18.6-15.4-31.2-19.1c0,0,0,0,0,0l0.1-0.2c3.8-8.5,8.5-19.2,0.8-24.8
				c-1.2-0.9-5.7-2.8-8-3.7c1.3-5.9,2.2-11.7,2.7-17.6c0.5-5.9,0.7-12.3,0.4-19.3c-0.2-5.5-0.5-10.8-0.9-16
				c-0.3-4.1-0.5-8.4-0.7-12.9c-0.8-17.3,0.8-36.5,4.7-57l0.5-2.4l-1.1-0.5c-2.6-1-5.6-2.4-9-3.9C189.3,12.2,163,0.2,126.7,0h-1.8
				C88.5,0.2,62.2,12.2,44.7,20.1c-3.4,1.6-6.4,2.9-9,3.9l-1.1,0.5l0.5,2.4c3.9,20.5,5.5,39.6,4.7,57c-0.2,4.4-0.5,8.7-0.7,12.9
				c-0.3,5.1-0.7,10.4-0.9,16c-0.3,7.1-0.1,13.4,0.4,19.3c0.5,5.9,1.4,11.7,2.7,17.6c-2.3,0.9-6.8,2.8-8,3.7
				c-7.7,5.7-3,16.3,0.8,24.8l0.1,0.1c0,0,0,0.1,0,0.1c-12.5,3.7-21.3,10.1-31.2,19.1L0,200.1l4,0c7.2-0.1,14.1,0.1,21.5,0.5
				c-4.1,8-5.6,18.5-6.2,24.4l-0.4,3.7l2.8-2.5c19.4-16.9,41.4-19.4,45.8-19.8c19.8,26.4,54.1,34.2,58,35l0.3,0.1l0.3-0.1
				c3.9-0.8,38.2-8.6,58-35c4.4,0.3,26.3,2.9,45.8,19.8l2.8,2.5l-0.4-3.7c-0.6-5.8-2.1-16.3-6.2-24.4c7.3-0.4,14.3-0.6,21.5-0.5l4,0
				L248.5,197.5z"></path>
			<path class="st1" d="M247.5,198.6c-9.6-8.7-18.7-15.5-32.2-19.2c0.2-0.5,0.5-1.1,0.7-1.6c3.7-8.3,8.1-18.2,1.3-23.2
				c-1.3-0.9-7.5-3.5-8.8-3.9c1.4-6.2,2.4-12.3,3-18.7c0.6-6.4,0.6-12.7,0.4-19.1c-0.4-10-1.1-18.9-1.6-28.8
				c-1.3-28.1,4-53.6,5-58.5c-15.7-6.3-45.7-23.9-89.5-23.9l0,0C82,1.6,52,19.1,36.2,25.4c0.9,5,6.2,30.4,5,58.5
				c-0.5,10-1.2,18.9-1.6,28.8c-0.2,6.4-0.2,12.8,0.4,19.1c0.6,6.3,1.5,12.5,3,18.7c-1.3,0.5-7.6,3-8.8,3.9
				c-6.8,5-2.3,14.9,1.3,23.2c0.2,0.5,0.5,1.1,0.7,1.6c-13.5,3.7-22.6,10.5-32.2,19.2c8.2-0.1,15.8,0.1,23.9,0.6
				c-4.6,7.5-6.5,18.5-7.2,25.9c22.2-19.3,47.5-20.2,47.5-20.2c19.5,26.6,54.5,34.4,57.5,35l0,0c3.1-0.6,38.1-8.4,57.5-35
				c0,0,25.2,0.9,47.5,20.2c-0.7-7.4-2.6-18.4-7.2-25.9C231.7,198.7,239.4,198.5,247.5,198.6z"></path>
			<path class="st2" d="M197.3,195.5l0.6-0.2c1.2,0,0.9,0,1.7-0.2c1-0.2,3.3-0.8,3.8-3.9c0.2-1.5,0.2-2.5,0.2-2.5l0-0.1l-0.6-3.1
				c2.8-0.6,4.8-1.9,4.8-1.9c6.2,0.4,15.9,4.2,23.4,9.4c-7.4,0.2-12.8,0-17.8,2c4.3,3.9,4.1,8.4,7.4,16c-9.7-6.1-19-9.5-29.3-10.6
				c-4-0.5-9.5-1.2-11.4-2c0.7-1,3.5-4.3,4.2-5.3C186.9,193.5,193.6,195.5,197.3,195.5z"></path>
			<path class="st2" d="M188.5,189.3c0.3-0.4,0.5-0.9,0.8-1.3c0.8-1.4,1.5-2.7,2.3-4.2l8,2.1c-0.1,0-0.1,0.1-0.2,0.1
				c0.1,0,0.2,0,0.3-0.1l0.8,0.2l0.6,2.8c0,0.2,0.1,1.3-0.1,2.4c-0.2,1.2-0.4,2.5-1,2.7c-0.6,0.1-1.7,0.2-2.7,0.2
				c-3.3,0-7.9-1-10.9-1.5C187.1,191.7,187.9,190.4,188.5,189.3z"></path>
			<path class="st0" d="M178.7,197.5c2.1,0.3,7.5,1,11.7,1.6c10.4,1.6,19.9,4.1,29.6,10.2c-2.3-5.7-4.5-10.6-8.2-15.3
				c4.8-0.9,9.5-1.6,16.9-1.8c-7.5-5-15.5-7.1-21.2-7.7c0,0-1.7,0.4-4.5,1l0.6,3.1l0,0.1c0,0.1,0.2,1.5,0,3
				c-0.5,3.1-2.2,3.9-3.2,4.2c-0.7,0.2-1.6,0.2-2.8,0.2l0,0c-3.7,0-9.3-1-12-1.4c0.3-0.4,0.3-0.8,0.5-1.2c0.2-0.4,0.8-0.7,1-1.1
				c2.8,0.5,7.3,1.2,10.3,1.2c0.9,0,1.7-0.1,2.2-0.2c0.6-0.1,0.9-0.7,0.6-1.2c-0.5-0.9,0.7-2.9,0.6-3.1l-0.5-2.7l-0.7-0.2l-0.1,0
				l-7.6-2c0.2-0.4,0.4-0.8,0.6-1.2c0.2-0.4,0.4-0.8,0.6-1.2l9.4,2.5l0.1,0.5c0,0,0,0,0,0c0.9-0.5,2.1-1.2,2.9-2l0.8-0.8l1.2,0.1
				c16.4,1.6,29.1,12.4,29.1,12.4s-11.5,0.2-19.9,1.6c7,11.7,8.2,20,8.2,20l-6.7-4.2c-9.3-5.5-16.8-8.2-27.2-9.9
				c-3.7-0.6-10-1.6-13.4-2.1C178.2,199.1,178.2,198.2,178.7,197.5z"></path>
			<path class="st2" d="M54.1,195.5l-0.6-0.2c-1.2,0-0.9,0-1.7-0.2c-1-0.2-3.3-0.8-3.8-3.9c-0.2-1.5-0.2-2.5-0.2-2.5l0-0.1l0.6-3.1
				c-2.8-0.6-4.8-1.9-4.8-1.9c-6.2,0.4-15.9,4.2-23.4,9.4c7.4,0.2,12.8,0,17.8,2c-4.3,3.9-4.1,8.4-7.4,16c9.7-6.1,19-9.5,29.3-10.6
				c4-0.5,9.5-1.2,11.4-2c-0.7-1-3.5-4.3-4.2-5.3C64.5,193.5,57.9,195.5,54.1,195.5z"></path>
			<path class="st2" d="M62.9,189.3c-0.3-0.4-0.5-0.9-0.8-1.3c-0.8-1.4-1.5-2.7-2.3-4.2l-8,2.1c0.1,0,0.1,0.1,0.2,0.1
				c-0.1,0-0.2,0-0.3-0.1l-0.8,0.2l-0.6,2.8c0,0.2-0.1,1.3,0.1,2.4c0.2,1.2,0.4,2.5,1,2.7c0.6,0.1,1.7,0.2,2.7,0.2
				c3.3,0,7.9-1,10.9-1.5C64.4,191.7,63.6,190.4,62.9,189.3z"></path>
			<path class="st0" d="M72.8,197.5c-2.1,0.3-7.5,1-11.7,1.6c-10.4,1.6-19.9,4.1-29.6,10.2c2.3-5.7,4.5-10.6,8.2-15.3
				c-4.8-0.9-9.5-1.6-16.9-1.8c7.5-5,15.5-7.1,21.2-7.7c0,0,1.7,0.4,4.5,1l-0.6,3.1l0,0.1c0,0.1-0.2,1.5,0,3
				c0.5,3.1,2.2,3.9,3.2,4.2c0.7,0.2,1.6,0.2,2.8,0.2l0,0c3.7,0,9.3-1,12-1.4c-0.3-0.4-0.3-0.8-0.5-1.2c-0.2-0.4-0.8-0.7-1-1.1
				c-2.8,0.5-7.3,1.2-10.3,1.2c-0.9,0-1.7-0.1-2.2-0.2c-0.6-0.1-0.9-0.7-0.6-1.2c0.5-0.9-0.7-2.9-0.6-3.1l0.5-2.7l0.7-0.2l0.1,0
				l7.6-2c-0.2-0.4-0.4-0.8-0.6-1.2c-0.2-0.4-0.4-0.8-0.6-1.2l-9.4,2.5l-0.1,0.5c0,0,0,0,0,0c-0.9-0.5-2.1-1.2-2.9-2l-0.8-0.8
				l-1.2,0.1c-16.4,1.6-29.1,12.4-29.1,12.4s11.5,0.2,19.9,1.6c-7,11.7-8.2,20-8.2,20l6.7-4.2c9.3-5.5,16.8-8.2,27.2-9.9
				c3.7-0.6,10-1.6,13.4-2.1C73.2,199.1,73.3,198.2,72.8,197.5z"></path>
			<path class="st2" d="M209.2,27.4c-0.2,1.1-0.4,2.3-0.6,3.4c-0.2,1.1-0.4,2.2-0.5,3.3c-0.2,1.1-0.3,2.2-0.5,3.2l0,0
				c-0.1,1.1-0.3,2.1-0.4,3.1l0,0c-0.1,1-0.3,2.1-0.4,3.1h0c-6.8,56.3,7.4,71.5-6.4,117.8c-0.2,0.8-0.5,1.7-0.8,2.5
				c-0.3,0.8-0.5,1.7-0.8,2.6s-0.6,1.7-0.9,2.6c-0.3,0.6-0.6,1.2-0.9,1.8l0,0c-0.3,0.6-0.6,1.2-0.8,1.8l0,0
				c-0.3,0.6-0.6,1.2-0.8,1.8l0,0c-0.3,0.6-0.6,1.2-0.8,1.7l0,0c-0.3,0.6-0.6,1.1-0.8,1.7h0c-0.3,0.6-0.6,1.1-0.8,1.7l0,0
				c-10.9,21.6-21.6,34.9-38.6,44.6c-0.4,0.2-0.9,0.5-1.3,0.7l0,0c-0.4,0.2-0.9,0.5-1.3,0.7l0,0c-0.5,0.2-0.9,0.5-1.4,0.7
				c-0.5,0.2-0.9,0.5-1.4,0.7c-0.5,0.2-0.9,0.5-1.4,0.7l0,0c-0.5,0.2-1,0.5-1.4,0.7h0c-0.5,0.2-1,0.4-1.5,0.7h0
				c-0.5,0.2-1,0.4-1.5,0.7h0c-0.5,0.2-1,0.4-1.5,0.6l0,0c-0.5,0.2-1,0.4-1.6,0.6l0,0c-0.5,0.2-1.1,0.4-1.6,0.6h0
				c-4.3,1.7-7.6,3.2-12.6,4.7h0l0,0c-5.7-1.7-9.5-3.5-14.2-5.3h0c-0.5-0.2-1-0.4-1.6-0.6l0,0c-0.5-0.2-1-0.4-1.5-0.6l0,0
				c-0.5-0.2-1-0.4-1.5-0.7l0,0c-0.5-0.2-1-0.4-1.5-0.7l0,0c-0.5-0.2-1-0.4-1.5-0.7c-0.5-0.2-1-0.5-1.4-0.7
				c-0.5-0.2-0.9-0.5-1.4-0.7c-0.5-0.2-0.9-0.5-1.4-0.7c-0.5-0.2-0.9-0.5-1.3-0.7c-0.4-0.2-0.9-0.5-1.3-0.7l0,0
				c-0.4-0.3-0.9-0.5-1.3-0.8h0c-0.4-0.3-0.8-0.5-1.3-0.8h0c-0.4-0.3-0.8-0.5-1.2-0.8l0,0c-0.4-0.3-0.8-0.5-1.2-0.8l0,0
				c-0.4-0.3-0.8-0.5-1.2-0.8l0,0c-0.4-0.3-0.8-0.6-1.2-0.8l0,0c-0.4-0.3-0.8-0.6-1.2-0.9l0,0c-0.4-0.3-0.8-0.6-1.1-0.9l0,0
				c-0.4-0.3-0.8-0.6-1.1-0.9l0,0c-10.4-8.4-18.3-19.1-26.1-34l0,0c-0.3-0.5-0.6-1.1-0.8-1.6l0,0c-0.3-0.5-0.6-1.1-0.8-1.6h0
				c-0.3-0.6-0.6-1.1-0.8-1.7l0,0c-0.3-0.6-0.6-1.1-0.8-1.7l0,0c-0.3-0.6-0.6-1.2-0.8-1.7l0,0c-0.3-0.6-0.6-1.2-0.8-1.8l0,0
				c-0.3-0.6-0.6-1.2-0.8-1.8l0,0c-0.3-0.6-0.6-1.2-0.9-1.8c-0.3-0.9-0.6-1.8-0.9-2.6c-0.3-0.9-0.6-1.7-0.8-2.6
				c-0.3-0.8-0.5-1.7-0.8-2.5l0,0c-13.8-46.3,0.4-61.5-6.4-117.8l0,0c-0.1-1-0.3-2-0.4-3.1l0,0c-0.1-1-0.3-2.1-0.4-3.1l0,0
				c-0.1-1.1-0.3-2.1-0.5-3.2c-0.2-1.1-0.3-2.2-0.5-3.3c-0.2-1.1-0.4-2.2-0.6-3.4l0.1,0l0.2,0l0,0c3.2-1,11.1-5.4,13.8-6.6l0.1,0
				c23.2-10.5,46.3-15.6,69.3-15.5l0,0c23-0.1,46.1,5,69.3,15.5l0.1,0c2.8,1.2,10.6,5.5,13.8,6.6l0,0l0.2,0L209.2,27.4L209.2,27.4z"></path>
			<path class="st1" d="M193.2,156.2c0-0.5,0.1-1.1,0.1-1.6c-20.1-5.7-43.1-8.9-67.6-8.9c-24.5,0-47.5,3.2-67.6,8.9
				c0,0.5,0.1,1.1,0.1,1.6c0,0-0.1,0-0.1,0c0.4,7.2,1.7,15.1,5,24.8c0.2,0.6,0.4,1.2,0.6,1.8c0.2,0.6,0.4,1.2,0.7,1.9
				c0.2,0.6,0.5,1.3,0.7,1.9c0.2,0.4,0.5,0.9,0.7,1.3s0.5,0.9,0.7,1.3c0.2,0.4,0.5,0.9,0.7,1.3c0.2,0.4,0.5,0.8,0.7,1.3
				c0.2,0.4,0.5,0.8,0.7,1.2c0.2,0.4,0.5,0.8,0.7,1.2h0c0.2,0.4,0.5,0.8,0.7,1.2c0.2,0.4,0.5,0.8,0.7,1.2
				c6.4,10.8,12.9,18.6,21.4,24.6c0.3,0.2,0.6,0.4,0.9,0.6c0.3,0.2,0.6,0.4,0.9,0.6c0.3,0.2,0.6,0.4,1,0.6c0.3,0.2,0.6,0.4,1,0.6
				c0.3,0.2,0.7,0.4,1,0.6c0.3,0.2,0.7,0.4,1,0.6c0.3,0.2,0.7,0.4,1,0.6h0c0.3,0.2,0.7,0.4,1,0.6h0c0.4,0.2,0.7,0.4,1.1,0.5
				c0.4,0.2,0.7,0.4,1.1,0.5c0.4,0.2,0.7,0.4,1.1,0.5c0.4,0.2,0.7,0.3,1.1,0.5c0.4,0.2,0.8,0.3,1.1,0.5s0.8,0.3,1.2,0.5
				c0.4,0.2,0.8,0.3,1.2,0.5c0.4,0.2,0.8,0.3,1.2,0.5c0.4,0.2,0.8,0.3,1.2,0.5c0.4,0.2,0.8,0.3,1.3,0.5c0.4,0.2,0.9,0.3,1.3,0.5h0
				c3.9,1.4,8.1,2.6,12.8,3.9h0c4.1-1.1,8-2.2,11.5-3.4l0,0c0.4-0.2,0.9-0.3,1.3-0.5h0c0.4-0.2,0.9-0.3,1.3-0.5
				c0.4-0.2,0.8-0.3,1.3-0.5h0c0.4-0.2,0.8-0.3,1.2-0.5h0c0.4-0.2,0.8-0.3,1.2-0.5h0c0.4-0.2,0.8-0.3,1.2-0.5
				c0.4-0.2,0.8-0.3,1.2-0.5c0.4-0.2,0.8-0.3,1.1-0.5c0.4-0.2,0.8-0.3,1.1-0.5c0.4-0.2,0.7-0.4,1.1-0.5c0.4-0.2,0.7-0.4,1.1-0.5
				c13.9-7.1,22.8-16.7,31.7-32.3c0.2-0.4,0.5-0.8,0.7-1.2h0c0.2-0.4,0.5-0.8,0.7-1.2c0.2-0.4,0.5-0.8,0.7-1.3
				c0.2-0.4,0.5-0.9,0.7-1.3c0.2-0.4,0.5-0.9,0.7-1.3s0.5-0.9,0.7-1.3c0.2-0.6,0.5-1.3,0.7-1.9c0.2-0.6,0.5-1.2,0.7-1.9
				c0.2-0.6,0.4-1.2,0.6-1.8c3.3-9.7,4.7-17.6,5.1-24.8C193.3,156.2,193.2,156.2,193.2,156.2C193.2,156.2,193.2,156.2,193.2,156.2z"></path>
			<path class="st0" d="M40.8,27.4c12.5,73.4-8.2,84.7,11.2,141.7c18.2,39.7,33.4,55.4,73.7,67.4c-33-15.5-55.7-38.4-66.1-69.7
				c-13.3-40.2,7.7-104.1-2.6-146.3C54,21.7,43.8,26.6,40.8,27.4L40.8,27.4z"></path>
			<path class="st0" d="M210.6,27.4c-12.5,73.4,8.2,84.7-11.2,141.7c-18.2,39.7-33.4,55.4-73.7,67.4c33-15.5,55.7-38.4,66.1-69.7
				c13.3-40.2-7.7-104.1,2.6-146.3C197.5,21.7,207.7,26.6,210.6,27.4L210.6,27.4z"></path>
			<path class="st2" d="M116.8,232c2.8,1.5,5.4,3.1,8.9,4.5h0c3.5-1.4,6.2-3,8.9-4.5l-8.9-8.9L116.8,232z"></path>
			<path class="st1" d="M56.8,156.7c0-0.2-2.8-15.5-3.1-32.9c-0.2-11.5,1.2-26.9,2.6-41.8c0.8-8.7,1.7-17.8,2.1-25.6
				c1.2-21-1.5-37.6-1.5-37.7l3.9-0.6c0.1,0.7,2.8,17.1,1.5,38.6c-0.5,7.9-1.3,17-2.1,25.8c-1.4,14.8-2.8,30.1-2.6,41.4
				c0.4,17.1,3.1,32.2,3.1,32.3L56.8,156.7z"></path>
			<path class="st1" d="M194.7,156.7c0-0.2,2.8-15.5,3.1-32.9c0.2-11.5-1.2-26.9-2.6-41.8c-0.8-8.7-1.7-17.8-2.1-25.6
				c-1.2-21,1.5-37.6,1.5-37.7l-3.9-0.6c-0.1,0.7-2.8,17.1-1.5,38.6c0.5,7.9,1.3,17,2.1,25.8c1.4,14.8,2.8,30.1,2.6,41.4
				c-0.4,17.1-3.1,32.2-3.1,32.3L194.7,156.7z"></path>
			<path class="st3" d="M192.3,156.7l-14.5,14.2l6.8,6.6C187.6,171.1,190.2,164.2,192.3,156.7L192.3,156.7z"></path>
			<path class="st3" d="M184.6,177.5l-6.8-6.6l14.5-14.2C190.2,164.2,187.6,171.1,184.6,177.5L184.6,177.5z"></path>
			<polygon class="st0" points="57.8,153.1 59.3,152 59.3,157.7 57.8,158.8 			"></polygon>
			
				<rect x="113.5" y="193.5" transform="matrix(0.7071 -0.7071 0.7071 0.7071 -108.6291 149.1542)" class="st2" width="24.5" height="24.5"></rect>
			
				<rect x="113.5" y="158.8" transform="matrix(0.7071 -0.7071 0.7071 0.7071 -84.1226 139.0089)" class="st2" width="24.5" height="24.5"></rect>
			<path class="st2" d="M97.4,216.7l11-11l-17.3-17.3L80.5,199C85.4,205.4,90.4,210.5,97.4,216.7z"></path>
			<path class="st2" d="M154,216.7l-11-11l17.3-17.3L171,199C166.1,205.4,161.1,210.5,154,216.7z"></path>
			<polygon class="st2" points="108.4,171 91.1,188.4 72.8,172.8 89.8,153.3 			"></polygon>
			
				<rect x="148.1" y="158.8" transform="matrix(0.7071 -0.7071 0.7071 0.7071 -73.9708 163.5237)" class="st2" width="24.5" height="24.5"></rect>
			<path class="st2" d="M51.9,186.1L51.9,186.1c0,0,0.1,0.1,0.2,0.1C52,186.2,51.9,186.1,51.9,186.1z"></path>
			<path class="st0" d="M131.3,211.2c-1.3,1.4-3.4,2.2-5.6,2.2c-2.3,0-4.3-0.8-5.6-2.1c-1.2-1.2-1.7-2.8-1.6-4.8
				c0.1-1.8,0.9-4.3,2-6.1l0.3-0.5l-0.9-0.4l0.7-0.9l2.1,1.2l-0.1,0.4c-0.5,1.3-1.3,3.8-1.5,5.3c-0.1,0.9-0.1,1.6,0.3,2.6
				c1.1,2.8,3.5,2.9,4.4,2.9c2.1-0.1,3.5-1.1,4.3-3c0.3-0.9,0.3-1.7,0.3-2.5c-0.1-1.5-1-4-1.5-5.3l-0.2-0.4l2.1-1.2l0.7,0.9
				l-0.9,0.4l0.3,0.5c1.1,1.8,1.9,4.3,2,6.1C133,208.4,132.5,210,131.3,211.2z M133,200.9l-0.2-0.4l1.1-0.5l-2.5-3.5l-4.5,2.5
				l0.4,0.9c0.4,1,1.6,4,1.7,5.6c0,0.7,0.1,1.3-0.2,1.9c-0.7,1.7-2,2-2.9,2l0,0l0,0c-1.1-0.1-2.3-0.3-2.9-1.9
				c-0.2-0.7-0.2-1.2-0.2-1.9c0.1-1.8,1.5-5.2,1.7-5.6l0.3-0.9l-4.5-2.5l-2.5,3.5l1.1,0.5l-0.2,0.4c-0.8,1.8-1.4,3.8-1.5,5.4
				c-0.1,1.2,0.1,2.4,0.4,3.4c0.3,1,0.9,1.8,1.6,2.5c1.6,1.7,4,2.6,6.7,2.6c1.2,0,2.4-0.2,3.5-0.6c1.3-0.5,2.3-1.1,3.2-2
				c0.7-0.7,1.2-1.6,1.6-2.5c0.4-1,0.5-2.2,0.5-3.4C134.4,204.7,133.8,202.7,133,200.9z"></path>
			<path class="st0" d="M130.6,210.5c-1.1,1.2-2.9,1.9-4.9,1.9c-2,0-3.8-0.7-4.9-1.8c-1-1-1.4-2.4-1.3-4.1c0.1-1.6,0.7-3.6,1.6-5.3
				c-0.4,1.3-0.9,2.9-1,4.1c-0.1,1-0.1,1.9,0.3,3c1.3,3.4,4.3,3.5,5.3,3.6c2.5-0.1,4.3-1.3,5.2-3.6c0.4-1.1,0.4-2,0.3-2.9
				c-0.1-1.1-0.5-2.7-1-4c0.9,1.6,1.5,3.7,1.6,5.2C132,208.2,131.6,209.5,130.6,210.5z M130.5,200.5l-0.6-0.9l0.9-0.4l-0.1-0.1
				l-1.4,0.8c0.5,1.3,1.4,3.8,1.5,5.4c0.1,0.8,0.1,1.7-0.3,2.7c-0.8,2.1-2.4,3.2-4.8,3.3c-0.9,0-3.7-0.2-4.9-3.3
				c-0.4-1-0.4-1.8-0.3-2.8c0.1-1.6,1-4.1,1.5-5.4l-1.4-0.8l-0.1,0.1l0.9,0.4l-0.6,0.9c-1.1,1.8-1.8,4.1-1.9,5.9
				c-0.1,1.9,0.4,3.4,1.4,4.5c1.2,1.3,3.1,2,5.3,2c2.1,0,4-0.8,5.2-2c1.1-1.1,1.6-2.6,1.5-4.4C132.3,204.7,131.6,202.3,130.5,200.5z
				"></path>
			<path class="st0" d="M131,210.9c-1.2,1.3-3.2,2-5.2,2c-2.1,0-4.1-0.7-5.3-2c-1.1-1.1-1.5-2.6-1.4-4.5c0.1-1.8,0.9-4.1,1.9-5.9
				l0.6-0.9l-0.9-0.4l0.1-0.1l1.4,0.8c-0.5,1.3-1.4,3.8-1.5,5.4c-0.1,1-0.1,1.7,0.3,2.8c1.2,3.1,3.9,3.2,4.9,3.3
				c2.3-0.1,3.9-1.2,4.8-3.3c0.4-1,0.3-1.9,0.3-2.7c-0.1-1.6-1-4.1-1.5-5.4l1.4-0.8l0.1,0.1l-0.9,0.4l0.6,0.9
				c1.1,1.8,1.8,4.1,1.9,5.9C132.5,208.3,132,209.8,131,210.9z M130.9,200.3l-0.3-0.5l0.9-0.4l-0.7-0.9l-2.1,1.2l0.2,0.4
				c0.5,1.3,1.4,3.8,1.5,5.3c0,0.8,0.1,1.6-0.3,2.5c-0.8,1.9-2.2,2.9-4.3,3c-0.9,0-3.3-0.1-4.4-2.9c-0.3-0.9-0.3-1.6-0.3-2.6
				c0.1-1.5,1-4,1.5-5.3l0.1-0.4l-2.1-1.2l-0.7,0.9l0.9,0.4l-0.3,0.5c-1.1,1.8-1.9,4.3-2,6.1c-0.1,2,0.4,3.6,1.6,4.8
				c1.3,1.4,3.3,2.1,5.6,2.1c2.2,0,4.3-0.8,5.6-2.2c1.2-1.2,1.7-2.8,1.6-4.8C132.8,204.6,132,202.1,130.9,200.3z"></path>
			<path class="st0" d="M134,209.7c-0.3,1-0.9,1.8-1.6,2.5c-0.8,0.9-1.9,1.6-3.2,2c-1.1,0.4-2.3,0.6-3.5,0.6c-2.7,0-5.1-0.9-6.7-2.6
				c-0.7-0.7-1.2-1.6-1.6-2.5c-0.4-1-0.5-2.2-0.4-3.4c0.1-1.6,0.6-3.6,1.5-5.4l0.2-0.4l-1.1-0.5l2.5-3.5l4.5,2.5l-0.3,0.9
				c-0.2,0.4-1.5,3.9-1.7,5.6c-0.1,0.8-0.1,1.2,0.2,1.9c0.6,1.6,1.8,1.9,2.9,1.9l0,0l0,0c0.9-0.1,2.2-0.3,2.9-2
				c0.2-0.6,0.2-1.2,0.2-1.9c-0.1-1.6-1.3-4.6-1.7-5.6l-0.4-0.9l4.5-2.5l2.5,3.5l-1.1,0.5l0.2,0.4c0.8,1.8,1.4,3.8,1.5,5.4
				C134.5,207.6,134.3,208.7,134,209.7z M133.4,200.7l1.1-0.5l-3.1-4.3l-5.3,2.9l0.5,1.3c0.5,1.2,1.5,4.1,1.6,5.4
				c0,0.7,0,1.2-0.1,1.7c-0.6,1.4-1.6,1.6-2.5,1.7c-1.1-0.1-2-0.4-2.5-1.6c-0.2-0.6-0.2-1-0.2-1.7c0.1-1.4,1.1-4.1,1.6-5.5l0.5-1.2
				l-5.2-2.9l-3.1,4.3l1.1,0.5c-0.9,1.8-1.4,3.9-1.5,5.6c-0.1,1.3,0.1,2.5,0.5,3.6c0.4,1,0.9,1.9,1.7,2.7c1.7,1.8,4.2,2.8,7.1,2.8
				c1.3,0,2.5-0.2,3.7-0.6c1.3-0.5,2.5-1.2,3.4-2.1c0.7-0.8,1.3-1.7,1.7-2.7c0.4-1.1,0.5-2.3,0.5-3.6
				C134.8,204.6,134.3,202.6,133.4,200.7z"></path>
			<path class="st1" d="M133.4,206.4c-0.1-2.1-1-4.6-2.1-6.4l0.9-0.4l-1.3-1.7l-2.9,1.6c0,0,1.6,3.9,1.7,5.9
				c0.1,0.9,0.1,1.5-0.2,2.3c-0.9,2.4-2.9,2.6-3.9,2.6c-1,0-3-0.2-3.9-2.6c-0.3-0.8-0.3-1.5-0.2-2.3c0.2-2,1.7-5.9,1.7-5.9l-2.9-1.6
				l-1.3,1.7l0.9,0.4c-1.1,1.8-2,4.3-2.1,6.4c-0.3,5.4,3.9,7.5,7.7,7.5C129.3,213.9,133.7,211.8,133.4,206.4z"></path>
			<path class="st0" d="M120.6,203.1L120,203c0,0,0.2-0.6,0.4-1c0.1-0.3,0.3-0.6,0.4-0.9l-1.2-0.6l0.3-0.6l1.7,0.8l-0.1,0.3
				c0,0-0.3,0.7-0.5,1.2C120.8,202.6,120.6,203.1,120.6,203.1z"></path>
			<path class="st0" d="M119.6,207.8c0,0-0.1-0.4-0.1-1.3c0-0.8,0.1-1.4,0.1-1.4l0.6,0.1c0,0-0.1,0.6-0.1,1.3c0,0.8,0.1,1.1,0.1,1.1
				L119.6,207.8z"></path>
			<path class="st0" d="M125.8,212.5c-0.4,0-1.5-0.1-2.8-0.6c-1.4-0.6-2.4-1.9-2.4-2l0.5-0.4c0,0,0.9,1.2,2.1,1.8
				c1.4,0.6,2.7,0.6,2.7,0.6l0,0.6C125.9,212.5,125.9,212.5,125.8,212.5z"></path>
			<path class="st0" d="M130.9,203.1l0.6-0.2c0,0-0.2-0.6-0.4-1c-0.1-0.3-0.3-0.6-0.4-0.9l1.2-0.6l-0.3-0.6l-1.7,0.8l0.1,0.3
				c0,0,0.3,0.7,0.5,1.2C130.7,202.6,130.9,203.1,130.9,203.1z"></path>
			<path class="st0" d="M131.9,207.8l-0.6-0.1c0,0,0.1-0.4,0.1-1.1c0-0.7-0.1-1.3-0.1-1.3l0.6-0.1c0,0,0.1,0.6,0.1,1.4
				C132,207.4,131.9,207.8,131.9,207.8z"></path>
			<path class="st0" d="M125.7,212.5c-0.1,0-0.1,0-0.2,0l0-0.6c0,0,1.3,0.1,2.7-0.6c1.2-0.5,2.1-1.8,2.1-1.8l0.5,0.4
				c0,0.1-1,1.4-2.4,2C127.3,212.4,126.1,212.5,125.7,212.5z"></path>
			<path class="st1" d="M180.3,122c-1.1-2.4-3.4-6.8-4.1-13.1c0-0.2,0-0.3,0-0.4c-0.1-1-0.4-1.8-1-2.4c-0.6-0.6-1.4-1-2.4-0.9h0
				l-0.1,0c-1.9,0-3.6-1.5-4.5-2.7c-0.9-1.2-1.5-3.1-1-4.6c1.1-2.8,1.5-5.3,1.1-7.7c-0.3-1.7-0.9-3.3-1.9-4.8c3.9-1,6.7-2.6,8.5-4.5
				c1.9-2.1,2.5-4.5,2-7.2v0c0-0.2-0.2-0.8-0.2-0.8c-1.3-3.6-4.5-4.9-8.3-5.4c-3.4-0.4-7.6,0-11.5,0.8c-1.9-2.2-4.3-2.7-6.7-3.1
				c-2.3-0.3-4.9-0.7-5.5-3.5c0,0-0.3-1.1,0-2.7c-0.8,0.6-1.8,2.3-1.8,2.3c-1.3,2.4-1.4,4.7-1.1,6.4c0.4,1.8,1.2,3.3,2.5,4.4
				c1.3,1,2.9,1.7,4.8,1.8c2.2,0.1,4.7-0.4,7.4-1.7l0.9-0.2h0c4.5-0.7,12.7-1.8,14.2,2.4c0.6,1.7-0.8,3.8-1.9,4.5
				c-1.1,0.7-2.7,1.1-4.3,1.1c-1,0-2,0-3.1-0.2c-2.4-0.4-4.7-1.1-6.5-1.7c-2.2-0.7-3.4-1-5.2-1.2c-5.2-0.7-10-0.5-15-0.2
				c-5.4,0.2-10.9,0.5-16.2-0.6c-0.9-0.4-1.9-0.9-2.8-1.4c-4.7-2.4-9.5-4.9-17,0.3c-4.7,1-9.1,3.4-13.2,7.7
				c-4.1,4.3-7.8,10.5-11,18.9c-0.8,1.5-1.3,3-1.3,4.3c0,1.1,0.3,2.2,1,3.1c-1.8,1.8-3.8,3.3-5.9,4.7l-3.9,2.7
				c3.3-0.2,6.7-0.2,9.9-1.3c1.4-0.5,2.6-1.1,3.9-1.9c0.7,0.7,1.2,1.5,1.7,2.2h0c0.9,1.5,3.2,6,4.4,6.2c1.3,0.6,4.6-2,4.9-2.3
				c-1.1,1.9-2.1,3.3-3.5,5c-0.7,0.7-1.5,1.8-1.9,2.5c-0.6,1.1-1.5,3.8-1.7,5.1c0.3-0.1-0.5,0.8,0,0.8c0.1,0.5,1.5-1.3,1.7-0.8
				c2.8-0.2,7-2.1,7.5-0.6c1.1-0.6,1.5-3.1,1.4-4.9l0-0.1l0.1,0h0c0.4-0.1,0.8-0.4,1.1-0.8c0.3-0.4,0.5-0.9,0.7-1.6
				c0.4-1.2,0.6-1.7,1.1-2.8c0.5-0.9,1.1-1.9,1.4-2.3c0.9,0.7,2.2,0.3,2.9,1.1c0.9,0.8,0.9,1.3,1.5,2.3c1.5,2.5,2.7,5.1,7,5.8
				c1.2,0.9,2.5,1.6,3.9,1.9c2.9,0.7,6.5-0.3,6.5-0.3l-5.5-9.1l-2,1.2c0.1-0.7-0.1-1.1-0.7-1.6c-0.6-0.5-2.7-1.8-3.5-2.5
				c-0.8-0.6-1.7-1.7-2.4-2.5c0,0-1.1-1.1-1.6-1.4c1.3-2,5.4-2.3,6.4-2.4c4.7-0.8,11.5-1,13.2-1.2c1.6-0.2,3-0.3,4.7-0.1l0,0
				c0.3,0,0.5,0.3,0.7,0.5h0c0.9,1.1,1.7,2,4.8,0.1c2.1-1,3.8-1.7,5.4-2c1.3-0.2,2.5-0.2,3.9,0c0,0.9,0.2,1.7,0.7,2.6
				c0.6,1.2,1.5,2.4,2.8,3.6c0.3,0.3,0.5,0.5,0.5,0.9c0,0.4,0,0.6-0.3,0.9l-6.6,5.9l-0.3,0.3l-0.1,0.4c-0.1,0.7-0.8,1.3-1.6,2
				c-1,1-2,2-2.6,3.5c-0.6,1.5-0.4,1.8-0.4,1.8l10,0.4l0.4,0.1l0.8-3l1,1l0.6-2.1c1.2-4.4,2.8-5.2,5.5-7h0c1.8-1.2,3.9-2.1,5.1-3.7
				l0.3-0.4c0.8-1.2,0.6-2.7-0.1-4l-0.2-0.3l-0.2-0.2c3.1,1.8,6.1,2.1,7.8,2.2c1,0,1.9-0.1,2.4,0.5c1.8,2.8,3,7.9,3.2,11.1
				c-0.7,0.6-1.5,1.8-2,2.6c-1.4,2.6-1.7,4.8-1.7,4.8l9.5,1.3l1.6-2.7c0,0-0.6-3.1,0.1-2.6c0.6,0.4,0.9,0.7,0.9,0.7l0.6-1.1
				C182.2,125,181.3,124.1,180.3,122z M94.4,105.6c1.5-0.5,2.2,0.5,2.2,1c-1.1,2-2.1,4.1-3.1,6.2l0,0.1c0-0.3-0.1-0.6-0.1-0.9
				c0-0.2,0-0.3,0-0.4l0-0.3c0.9-1.6,1.3-3.2,1.2-4.7C94.5,106.3,94.5,106,94.4,105.6z M179.8,127.2l-1.4-0.3
				c-0.7,0-0.9,1.2-0.4,2.9l-1.3,2.6l-6.6-0.9c0.6-2.2,1.5-4.2,3.2-5.5c0,0,0.7-0.8,0.6-1.7c0.2-1.6-1.9-7.6-4.2-11.2
				c-1.3-1.8-4.6,0-10.8-3c-1.7-1-2.3-2.9-2.2-3.7c-1.8,0.5-1.2,3.3,0.9,6c0.7,1,0.7,2.1,0.1,3.1c-2.9,4.1-8.7,3.5-10.8,11.2
				l-1.5-1.5l-0.6,1.9l-2.1,3.1l2-0.8l-7.3-0.3c0.7-2.5,3.7-3.4,4-5.6l6.6-6c1.1-1,1.1-2.1-0.2-3.5c-2.4-2.2-3.5-4.3-3-6.4
				c-4.2-0.9-6.8-0.2-11.3,2c-3.2,2-2.6-0.5-4.6-0.7c-3.9-0.5-5.8-0.7-11.8-1.1c-15.6-1.3-15.8,5.2-15.1,6.7
				c0.2,0.5,2.2,0.5,3.2,1.6c1.6,1.9,2.9,3.3,4.7,4.2c1.9,1.1,1.8,1.9,0.6,2.6c1.1,0.8,1.7,0.8,2.7,0.3l1.1-0.7l3.7,6.5
				c-3.1,0.4-5.6-0.2-7.9-1.9c-5.9-0.7-5.7-5.6-8.8-8.4c-0.9-1-1.8-2.4-3.6-0.8c-1.5,2.1-2.2,3.4-3.3,5.9c-0.3,0.7-0.7,1.7-1.7,1.1
				c-0.2,2-0.6,5.1-1.4,5.6l-6.2,0.4c-0.1-1.8,2.1-3.4,2.6-5.7c4.5-5.7,6.8-11.7,10.3-18c0.5-0.9-0.8-4-1.8-4.3
				c-0.6,0.3-2.8,1.6-3.3,2.3c0.7,2,0.4,4-0.8,6c-0.2,1.4,0.1,2.7,0.6,3.7l-1,1.5c-1.3-0.4-0.8-2.3-1.5-3.5c-1.5,1,0.6,3.6-0.3,5.3
				c-0.4,0.7-1.3,0.8-2,1.1c-0.5,1.3-1.6,0.8-2.3,1.4c-0.7-0.8-1.2-1.9-1.6-3.3c-1.8-1.2-2.5-3.5-4.8-5.5c-2.8,2-5.9,3.1-9.3,3.2
				c2.7-1.8,5.1-3.7,6.9-5.8c-2.1-1.8-1.7-4.2-0.3-6.9c6.3-16.6,14.5-24.1,23.5-25.9c8.7-6,13.5-1.2,19,1.1
				c10.4,2.2,20.4,3.4,30.4,5.2c2.2-0.4,7.2-2.2,12.6-1.4c3.6,0.5,7.1,0.2,9.1-1.9c1.1-1.2,2.2-3.1,1.6-5.2
				c-2.1-5.7-12.1-3.8-16.7-3.1c-9.2,4.5-13.3-2.3-12.5-7.7c1.4,7.1,9.1,1.1,12.7,6.4c8.1-1.7,17.4-2.1,19.3,3.6
				c1.4,5-2.4,9.7-11.4,11.4c3.1,3.5,4,7.7,1.7,13c-1.4,3.7,2.3,9,6.7,8.9c1.5-0.1,2,1,2.2,2.6C177.2,121.9,181.5,123.2,179.8,127.2
				z"></path>
			<path class="st0" d="M70,114.8c2.7-1.8,5.1-3.7,6.9-5.8c-2.1-1.8-1.7-4.2-0.3-6.9c6.3-16.6,14.5-24.1,23.5-25.9
				c8.7-6,13.5-1.2,19,1.1c10.4,2.2,21.4-0.9,31.5,0.9c3.2,0.3,6.2,1.9,11.6,2.9c3.6,0.5,7.1,0.2,9.1-1.9c1.1-1.2,2.2-3.1,1.6-5.2
				c-2.1-5.7-12.1-3.8-16.7-3.1c-9.2,4.5-14.8-0.5-12.5-8.8c1.4,7.1,9.1,2.2,12.7,7.5c8.1-1.7,17.4-2.1,19.3,3.6
				c1.4,5-2.4,9.7-11.4,11.4c3.1,3.5,4,7.7,1.7,13c-1.4,3.7,2.3,9,6.7,8.9c1.5-0.1,2,1,2.2,2.6c2.3,11.9,6.5,14.1,5.7,17.5
				c-0.1,0.3-0.4,1.2-0.4,1.2c-0.5-0.5-1.3-0.6-1.3-0.6c-0.7-0.2-0.9,2.1-0.7,3.8l-1.3,2.2l-7-1c0.5-1.8,1.6-4.6,3.4-6.3
				c0,0-0.1-1.1-0.1-2.1c-0.1-2.2-1.1-7-3.5-10.6c-1.3-1.8-4.6,0-10.8-3c-1.7-1-2.1-1.9-2.7-3.3c-0.7,0.5-0.7,2.9,1.4,5.5
				c0.7,1,0.7,2.1,0.1,3.1c-2.9,4.1-8.7,3.5-10.8,11.2l-1.2-1.1l-1.2,4l0,0l-7.3-0.4c0.7-2.5,3.7-3.5,4-5.8l6.6-6
				c1.1-1,1.1-2.1-0.2-3.5c-2.4-2.2-3.5-4.3-3-6.4c-4.2-0.9-6.8-0.2-11.3,2c-3.2,2-2.6-0.5-4.6-0.7c-4.5-0.3-17.5,1.1-20.9,1.7
				c-2.8,0.6-4.9,2.2-5.2,3.6c0.5,0.3,1.4,0.8,2.4,1.9c1.6,1.9,2.9,3.3,4.7,4.2c1.9,1.1,1.8,1.9,0.6,2.6c1.1,0.8,1.7,0.8,2.7,0.3
				l1.1-0.7l3.7,6.5c-3.1,0.4-5.6-0.2-7.9-1.9c-5.9-0.7-5.6-5.2-8.7-8c-0.9-0.8-2,0-3.5-1.4c-1.5,2.1-2.4,3.7-3.5,6.2
				c-0.3,0.7-0.7,1.7-1.7,1.1c-0.2,2-0.5,5.3-1.3,5.9l-6.8,0.7c0.3-1.5,1.2-4.4,3.1-6.2c4.5-5.7,6.8-11.7,10.3-18
				c0.3-0.7-0.6-2-1.5-2.4c-0.9-0.4-3-0.3-3.5,0.4c0.7,2,0.4,4-0.8,6c-0.2,1.4,0.1,2.7,0.6,3.7l-1,1.5c-1.3-0.4-0.8-2.3-1.5-3.5
				c-1.5,1,0.6,3.6-0.3,5.3c-0.4,0.7-4,3.3-4.8,2.3c-1.9-1.9-3.7-6.6-6-8.6C76.4,113.5,73.4,114.6,70,114.8z"></path>
			<path class="st1" d="M77.9,108c-1.9-2.8,3.3-4,2.8-0.3c-0.8,2.6-2.9,4.4-7.7,5.9c3.8-2.6,6.3-4.9,5.9-6.4
				C78.7,106.3,77.5,106.9,77.9,108L77.9,108z"></path>
			<path class="st1" d="M92.7,104.4c-1.2-5.1-2.7-5.3-6.1-7.1c2.4,0.2,3.7,0.4,4.8,1.6C92.1,99.8,93.3,101.3,92.7,104.4L92.7,104.4z
				"></path>
			<path class="st1" d="M97.6,87c0.1-2.7,0.3-6.7,2-9.1c-8.1,2.1-12.2,7-15.7,12.5c4.3-5.3,9.4-8.9,13.1-9.8
				C95.9,82.9,97.3,84.9,97.6,87L97.6,87z"></path>
			<path class="st1" d="M88.5,39.4l3.9,4l-2,5.3c2,0,4.6-0.3,7.1-0.8c0.5-0.1,0.9-0.2,1.3-0.3c0.9-0.2,1.7-0.4,2.4-0.7l0.1,0l2-0.3
				l2.5-2l2.5,0.7c1.6-1.9,2.7-2.8,5.1-3.7c2.5-0.9,5.1-1.2,7.8-0.8l-0.5-1.5l1.2,0.1c0.4,0,0.8,0.1,1.2,0.1l-2.8-7.7
				c-0.5-0.1-1.1-0.1-1.8-0.1c-2,0-5.1,0.3-7.9,1.2c-2.3,0.7-4.7,2.4-6.5,4.6l-0.5,0.7l-0.6-0.6c-0.6-0.6-1.4-1-2.1-1.2
				c-0.2,0-0.4,0-0.6,0l-0.2,0l-0.4-0.2l-2.1,1.1c-0.9,0.3-1.8,0.6-2.7,0.8c-0.4,0.1-0.8,0.2-1.3,0.3C91.6,39.1,89.8,39.3,88.5,39.4
				z M90.3,50.4c-0.4,0-0.7,0-1.1,0l-1.1-0.1l2.4-6.5l-5.7-5.9l1.9,0c0,0,2.9,0,6.6-0.8c0.4-0.1,0.8-0.2,1.2-0.3
				c0.9-0.2,1.7-0.5,2.5-0.8l2.6-1.4l0.8,0.4l0,0c0.3,0,0.5,0,0.8,0.1c0.8,0.2,1.5,0.5,2.2,1c1.9-2.1,4.4-3.8,6.7-4.5
				c3-1,6.3-1.3,8.4-1.3c0.9,0,1.7,0.1,2.3,0.2l0.7,0.1l4.1,11.2l-2.2-0.4c-0.1,0-0.2,0-0.3-0.1l0.6,1.8l-2.2-0.4
				c-2.5-0.5-5.1-0.3-7.4,0.6c-2.3,0.8-3.1,1.6-4.8,3.6l-0.3,0.4l-2.7-0.8l-2.2,1.8l-2.4,0.3c-0.7,0.2-1.6,0.5-2.5,0.7
				c-0.5,0.1-0.9,0.2-1.4,0.3C95.2,50.1,92.4,50.4,90.3,50.4z"></path>
			<path class="st1" d="M110.7,49c-0.3,0.1-0.5,0.2-0.7,0.3C110.2,49.2,110.5,49.1,110.7,49z"></path>
			<path class="st0" d="M100.4,47.3L100.4,47.3C100.4,47.3,100.4,47.3,100.4,47.3L100.4,47.3z"></path>
			<path class="st0" d="M100.5,47L100.5,47L100.5,47C100.5,47,100.5,47,100.5,47z"></path>
			<polygon class="st0" points="104.8,42.2 104.8,42.2 104.8,42.2 			"></polygon>
			<path class="st0" d="M103.6,39.4L103.6,39.4c0.1,0.2,0.2,0.4,0.4,0.6C103.9,39.8,103.7,39.6,103.6,39.4z"></path>
			<path class="st1" d="M110,33.4L110,33.4c-0.8,0.3-1.5,0.7-2.1,1c-0.7,0.4-1.2,0.7-1.6,1l2.3,1L110,33.4z M112.8,41.9L112.8,41.9
				l-2.6-0.9l-1.4,2.9c0.2,0.1,0.4,0.1,0.6,0.1c0,0,0.1,0,0.1,0c0.3,0,0.6-0.1,0.8-0.2c0,0,0,0,0.1,0c0,0,0,0,0,0
				c0.2-0.1,0.3-0.1,0.5-0.2l0.1,0c-0.1-0.6,1-1,1.6-1.3c0.2-0.1,0.3,0,0.5-0.1l0.1,0L112.8,41.9z M110,33.4l3.1,1.4l1.5-3.1
				c-1,0.3-2,0.7-3,1c-0.4,0.2-0.8,0.3-1.2,0.5C110.4,33.3,110.2,33.3,110,33.4L110,33.4z M115.3,35.7l-2.2-0.9l-1.5,3.1l3.1,1.4
				l0.9-1.9l-0.8-0.4L115.3,35.7z M113.2,42L113.2,42c0.1-0.1,0.3-0.1,0.4-0.2c0.2-0.1,0.3-0.2,0.5-0.2c0.3-0.2,0.7-0.1,1-0.2
				c0.4-0.2,0.9-0.1,1.2-0.2c0.4-0.2,1.2-0.2,1.5-0.3l-3-1.7L113.2,42z M111.7,37.9l-3.1-1.4l-1.5,3.1l3.1,1.4L111.7,37.9z
				 M109.7,43.5l-2.5-6.9l-0.2-0.9c1.6-1.9,3.9-2.6,6.2-3.5c2.3-0.9,4.7-1.1,7-0.6l0.2,0l2.8,8.9l-0.7-0.1c4.1,0.8-7.2,1.1-6.6,0.9
				c2.1-0.8-4,1.1-5.8,2.3L109.7,43.5z"></path>
			<path class="st0" d="M104.5,41.1C104.5,41.2,104.5,41.2,104.5,41.1C104.5,41.2,104.5,41.2,104.5,41.1z"></path>
			<path class="st0" d="M104.3,40.5C104.3,40.6,104.3,40.6,104.3,40.5C104.3,40.6,104.3,40.6,104.3,40.5z"></path>
			<path class="st0" d="M104.5,37.8l2.9,8c1.7-1.9,3.8-3.3,6.2-4.2c2.4-0.9,4.9-1.2,7.5-0.8l-2.9-8c-2.5-0.4-5.1-0.2-7.5,0.7
				C108.3,34.4,106.1,35.9,104.5,37.8z M107.1,47.7l-3.7-10.1l0.2-0.2c1.8-2.2,4.1-3.9,6.7-4.8c2.7-1,5.5-1.2,8.3-0.7l0.3,0.1
				l3.7,10.1l-0.8-0.2c-2.6-0.5-5.3-0.3-7.8,0.6c-2.5,0.9-4.7,2.5-6.3,4.5L107.1,47.7z"></path>
			<path class="st1" d="M99.7,42.6c-1.3-2.3-1.3-4.1,0-4.9c1-0.6,2.8-0.1,4.2,2.3c1.4,2.4,0.9,4.2-0.1,4.8
				C102.4,45.6,101,44.8,99.7,42.6z M117.5,51.5c0.2-0.6,0-1-0.1-1.3c-0.3-0.6-1-0.9-1.9-0.9l-0.3,0l-5-8l0-0.1
				c-0.5-2.4-2.2-6-3.5-8.6c-0.3-0.5-0.5-1.1-0.8-1.6c-1.5-3.1-3-5.9-4-9c-0.1-0.2,0-0.6,0.1-1.2c0.2-0.7,0.3-1.5,0-2.2l0-0.1
				c-1-1.7-3.8-1.6-7.1,0.2c-2.8,1.5-5.6,4.1-4.4,6.5l0,0.1c0.6,1,1.5,1.3,2.2,1.5c0.2,0.1,0.4,0.1,0.6,0.2l0.1,0l0.8,0.9
				c1.5,1.7,2.8,3.1,4,4.5l0.4,0.4l-0.6,0.3c-3.5,2-4.1,6.5-1.4,11.1c2.7,4.6,6.8,6.3,10.4,4.3c0.5-0.3,1-0.6,1.4-1l0.5-0.4l0.3,0.5
				c0.9,1.6,1.5,2.8,2,3.7l0.1,0.3l-0.2,0.2c-0.5,0.8-0.6,1.5-0.2,2.1c0.7,1.1,2.5,1.2,4.4,0C116.4,53.4,117.3,52.4,117.5,51.5z"></path>
			<polygon class="st0" points="99.9,35.5 105.7,38.3 107.1,44.9 104,47.4 101.1,47.8 95.7,39.1 97.2,37 			"></polygon>
			<path class="st0" d="M114.5,51.9c-0.4,0.3-0.7,0.4-0.7,0.4c-0.1-0.4-0.1-0.8,0-1c-0.4-0.8-3.4-6.3-3.4-6.3s-0.1-0.1,0-0.2
				c0.1,0,0.1,0,0.1,0l3.8,6.1c0.2,0,0.6,0.1,0.9,0.3C115.1,51.3,114.9,51.6,114.5,51.9z M108.6,42.8c0,0-0.2-1.6-1.4-3.9
				c0,0-8.1-14.6-8.9-16.1c-0.8-1.5,0.5-2.2-1.8-2.6c1.1-0.6,2.8-1.1,3.5-0.9c0.4,0.1-0.1,0.9-0.2,1.3c-0.3,0.7-0.3,1.3,0.2,2.4
				c0,0.1,0.1,0.2,0.1,0.3c2.5,5.6,5.7,11.2,7.6,15.2C108.5,40.5,108.8,41.9,108.6,42.8z M104.3,45.6c-1.6,0.9-3.6,0.6-5.4-2.5
				c-1.8-3.2-1.2-5.3,0.4-6.2c1.6-0.9,3.9-0.1,5.5,2.7C106.4,42.3,105.9,44.7,104.3,45.6z M116.5,50.7c-0.2-0.4-0.9-0.5-1.8-0.3
				l-5.5-8.7c-0.3-2.3-2.2-6-3.5-8.7c-1.8-3.6-3.6-7-4.8-10.8c-0.3-1.1,0.6-2.4,0.1-3.2c-1.5-2.8-11.5,2.5-9.9,5.7
				c0.6,1.1,2,0.9,2.7,1.5c2.6,2.9,8.6,10.1,8.6,10.1l-3.3-2.8c-0.3,0.1-0.5,0.2-0.9,0.4c-3.1,1.8-3.4,5.7-1.1,9.8
				c2.4,4.1,5.9,5.7,9,4c2.2-1.3,2.9-3.2,2.9-3.2c0.3,0.6,0,1.6,0,1.6c0.9,1.7,2.4,4.3,3.1,5.6c-0.7,0.6-1,1.3-0.7,1.7
				c0.4,0.6,1.8,0.5,3.1-0.3C116.1,52.5,116.9,51.3,116.5,50.7z"></path>
			<path class="st1" d="M103.9,45.5C103.9,45.4,104,45.4,103.9,45.5c1-0.8,1.6-2.4,0.6-4.9c-0.8-2.3-2.2-3.4-3.4-3.6
				c0,0-0.1,0-0.1,0c-0.3-0.1-0.6-0.1-0.9,0c0,0,0,0-0.1,0c0,0,0,0,0,0c-0.2,0.1-0.4,0.2-0.6,0.3l-0.1,0c-0.6,0.3-1.3,0.5-1.9,0.7
				c-0.9,0.3-1.7,0.5-2.5,0.7c-0.4,0.1-0.8,0.2-1.2,0.3c-1.4,0.3-2.7,0.5-3.7,0.6l2.4,4.3l-0.9,4.5c1.7-0.1,3.7-0.3,5.5-0.6
				c0.4-0.1,0.9-0.2,1.3-0.3c1-0.2,2-0.5,2.9-0.7C102.5,46.3,103.5,45.9,103.9,45.5z"></path>
			<polygon class="st2" points="98.4,42.3 102.1,44.2 104.1,40.9 100.4,39 			"></polygon>
			<path class="st2" d="M96.8,37.4L96.8,37.4c-0.2,0.1-0.3,0.1-0.5,0.2c-0.2,0.1-0.4,0.1-0.6,0.2c-0.4,0.1-0.8,0.3-1.1,0.4
				c-0.4,0.1-0.9,0.3-1.3,0.4c-0.5,0.1-0.9,0.2-1.4,0.4l2.7,1.4L96.8,37.4z"></path>
			<polygon class="st2" points="96.1,45.6 98.4,42.3 94.7,40.3 92.5,43.9 			"></polygon>
			<path class="st2" d="M99.4,47.6l-3.3-2l-1.8,3.1c1.2-0.2,2.5-0.5,3.7-0.8C98.5,47.8,99,47.7,99.4,47.6c0.2-0.1,0.4-0.1,0.6-0.2
				L99.4,47.6z"></path>
			<path class="st2" d="M96.8,37.4L96.8,37.4l3.6,1.6l1.7-2.5c-0.3-0.1-0.2-0.1-0.5-0.2c0,0-0.8,0.5-0.6,0c0.1-0.4-0.2-0.3-0.6-0.4
				c0,0,0,0-0.1,0c0,0,0,0-0.1,0c-0.3,0.1-0.4,0-0.6,0.2l-0.1,0c-0.7,0.3-1.4,0.7-2.2,0.9C97.3,37.3,97.1,37.4,96.8,37.4L96.8,37.4
				L96.8,37.4z"></path>
			<path class="st2" d="M100,47.4L100,47.4c1-0.3,1.8-0.6,2.6-0.8c0.8-0.3,1.5-0.6,2.1-0.9l-2.7-1.4L100,47.4z"></path>
			<path class="st2" d="M105.5,41.7L105.5,41.7c0-0.4,0-0.3-0.1-0.8c0,0-0.2,0-0.2,0c-0.1-0.2,0-0.3-0.1-0.5c0,0-0.2-0.3-0.2-0.4
				c-0.1-0.2,0,0-0.1-0.2c-0.1-0.3-0.2-0.1-0.3-0.3l-0.6,1.5L105.5,41.7z"></path>
			<path class="st0" d="M104,45.4C104,45.4,103.9,45.4,104,45.4c-0.2,0.3-0.5,0.4-0.9,0.6c-0.5,0.2-1.1,0.5-1.8,0.7
				c-0.7,0.2-1.5,0.4-2.3,0.6c0,0,0,0,0,0c-0.2,0-0.4,0.1-0.5,0.1c-0.4,0.1-0.8,0.2-1.3,0.3c-1.1,0.2-2.2,0.3-3.2,0.5
				c-0.8,0.1-1.6,0.1-2.3,0.2l1.8-4.9l-3.3-3.9c0.7-0.1,1.6-0.2,2.5-0.4c0.4-0.1,0.8-0.1,1.2-0.2c0.4-0.1,0.8-0.2,1.2-0.3
				c0.3-0.1,0.6-0.2,1-0.3c0.2,0,0.4-0.1,0.5-0.1c0.1,0,0.3-0.1,0.4-0.1c0.2-0.1,0.4-0.1,0.6-0.2c0.6-0.2,1.3-0.4,1.9-0.7l0.1,0
				c0.6-0.3,1.3-0.4,1.6-0.3c0,0,0,0,0.1,0c0.2,0,0.4,0.1,0.6,0.2c0.9,0.4,1.8,1.2,2.5,2.7c0.1,0.2,0.2,0.4,0.3,0.7
				c0.1,0.2,0.2,0.5,0.2,0.7c0,0,0,0.1,0,0.1c0.1,0.2,0.1,0.4,0.1,0.6c0,0,0,0,0,0.1c0.1,0.4,0.1,0.8,0.1,1.2l0,0
				C105,44.2,104.6,45,104,45.4z M105.7,40.3C105.7,40.3,105.7,40.2,105.7,40.3C105.7,40.2,105.7,40.2,105.7,40.3
				c-1-2.6-2.8-4.1-4.4-4.4c-0.5-0.1-1.1-0.1-1.6,0.1h0c-0.3,0.1-0.5,0.2-0.8,0.4l0,0c-1.3,0.5-2.6,1-3.9,1.3
				c-0.4,0.1-0.8,0.2-1.2,0.3c-3.7,0.8-6.6,0.8-6.6,0.8l4.7,5l-2.2,5.7c2.2,0.1,5.4-0.2,8.3-0.8c0.5-0.1,0.9-0.2,1.4-0.3
				c2.5-0.6,4.7-1.4,5.4-2.2h0C105.8,45.2,106.7,43.1,105.7,40.3z"></path>
			<path class="st1" d="M148.2,46.7l2.2,0.3c0.7,0.2,1.5,0.5,2.4,0.7c0.4,0.1,0.9,0.2,1.3,0.3c2.5,0.5,5.1,0.8,7.1,0.8l-2-5.3l3.9-4
				c-1.2-0.1-3.1-0.3-5.1-0.8c-0.4-0.1-0.8-0.2-1.3-0.3c-0.9-0.2-1.8-0.5-2.7-0.8l-0.1,0l-2-1.1l-0.4,0.2l-0.2,0c-0.2,0-0.4,0-0.6,0
				c-0.7,0.1-1.4,0.6-2,1.2l-0.6,0.6l-0.5-0.7c-1.8-2.2-4.2-3.9-6.5-4.6c-2.9-0.9-6-1.2-7.9-1.2c-0.7,0-1.3,0-1.8,0.1l-2.8,7.7
				c0.4-0.1,0.8-0.1,1.2-0.1l1.2-0.1l-0.6,1.5c2.6-0.4,5.3-0.1,7.8,0.8c2.4,0.9,3.5,1.7,5.1,3.7l2.5-0.7L148.2,46.7z M161.3,50.4
				c-2.1,0-4.9-0.3-7.5-0.8c-0.5-0.1-0.9-0.2-1.4-0.3c-0.9-0.2-1.7-0.4-2.5-0.7l-2.4-0.3l-2.2-1.8l-2.7,0.8l-0.3-0.4
				c-1.6-2-2.5-2.8-4.8-3.6c-2.4-0.9-4.9-1.1-7.4-0.6l-2.2,0.4l0.7-1.8c-0.1,0-0.2,0-0.3,0.1l-2.2,0.4l4.1-11.2l0.7-0.1
				c0.6-0.1,1.4-0.2,2.3-0.2c2.1,0,5.4,0.3,8.4,1.3c2.4,0.7,4.8,2.4,6.7,4.5c0.7-0.5,1.4-0.9,2.2-1c0.3,0,0.5-0.1,0.8-0.1l0,0
				l0.8-0.4l2.6,1.4c0.8,0.3,1.7,0.6,2.5,0.8c0.4,0.1,0.8,0.2,1.2,0.3c3.6,0.8,6.5,0.8,6.6,0.8l1.9,0l-5.7,5.9l2.4,6.5l-1.1,0.1
				C162.1,50.4,161.7,50.4,161.3,50.4z"></path>
			<path class="st1" d="M140.9,49c0.3,0.1,0.5,0.2,0.7,0.3C141.4,49.2,141.2,49.1,140.9,49z"></path>
			<path class="st0" d="M151.2,47.3L151.2,47.3C151.2,47.3,151.2,47.3,151.2,47.3L151.2,47.3z"></path>
			<path class="st0" d="M151.1,47L151.1,47L151.1,47C151.1,47,151.1,47,151.1,47z"></path>
			<polygon class="st0" points="146.8,42.2 146.8,42.2 146.8,42.2 			"></polygon>
			<path class="st0" d="M148,39.4L148,39.4c-0.1,0.2-0.2,0.4-0.4,0.6C147.8,39.8,147.9,39.6,148,39.4z"></path>
			<path class="st1" d="M143.1,36.5l2.3-1c-0.4-0.3-1-0.7-1.6-1c-0.6-0.3-1.3-0.7-2.1-1l0,0L143.1,36.5z M138.5,42l0.1,0
				c0.2,0.1,0.3,0,0.5,0.1c0.6,0.3,1.7,0.7,1.6,1.3l0.1,0c0.2,0.1,0.3,0.1,0.5,0.2c0,0,0,0,0,0c0,0,0,0,0.1,0
				c0.2,0.1,0.5,0.2,0.8,0.2c0,0,0.1,0,0.1,0c0.2,0,0.4,0,0.6-0.1l-1.4-2.9l-2.6,0.9l0,0L138.5,42z M141.6,33.4
				c-0.2-0.1-0.3-0.1-0.5-0.2c-0.4-0.2-0.8-0.3-1.2-0.5c-1-0.4-2-0.7-3-1l1.5,3.1L141.6,33.4L141.6,33.4z M136.7,36.9l-0.8,0.4
				l0.9,1.9l3.1-1.4l-1.5-3.1l-2.2,0.9L136.7,36.9z M136.8,39.2l-3,1.7c0.4,0.1,1.1,0.2,1.5,0.3c0.3,0.1,0.9,0,1.2,0.2
				c0.2,0.1,0.6,0,1,0.2c0.2,0.1,0.3,0.2,0.5,0.2c0.1,0.1,0.3,0.1,0.4,0.2l0,0L136.8,39.2z M141.4,41l3.1-1.4l-1.5-3.1l-3.1,1.4
				L141.4,41z M141.5,43.5c-1.8-1.2-7.9-3.1-5.8-2.3c0.5,0.2-10.8-0.1-6.6-0.9l-0.7,0.1l2.8-8.9l0.2,0c2.3-0.5,4.7-0.3,7,0.6
				c2.3,0.8,4.6,1.6,6.2,3.5l-0.2,0.9l-2.5,6.9L141.5,43.5z"></path>
			<path class="st0" d="M147.1,41.1C147.1,41.2,147.1,41.2,147.1,41.1C147.1,41.2,147.1,41.2,147.1,41.1z"></path>
			<path class="st0" d="M147.4,40.5C147.4,40.6,147.3,40.6,147.4,40.5C147.3,40.6,147.4,40.6,147.4,40.5z"></path>
			<path class="st0" d="M141,33.5c-2.4-0.9-5-1.1-7.5-0.7l-2.9,8c2.5-0.3,5.1-0.1,7.5,0.8c2.4,0.9,4.5,2.3,6.2,4.2l2.9-8
				C145.5,35.9,143.4,34.4,141,33.5z M144,47c-1.7-2.1-3.8-3.6-6.3-4.5c-2.5-0.9-5.2-1.1-7.8-0.6L129,42l3.7-10.1l0.3-0.1
				c2.8-0.5,5.6-0.3,8.3,0.7c2.6,1,5,2.6,6.7,4.8l0.2,0.2l-3.7,10.1L144,47z"></path>
			<path class="st1" d="M147.8,44.7c-1-0.6-1.5-2.3-0.1-4.8c1.4-2.4,3.2-2.9,4.2-2.3c1.4,0.8,1.4,2.6,0,4.9
				C150.6,44.8,149.2,45.6,147.8,44.7z M136.5,54.1c2,1.1,3.8,1.1,4.4,0c0.3-0.6,0.3-1.3-0.2-2.1l-0.2-0.2l0.1-0.3
				c0.5-0.9,1.2-2.1,2-3.7l0.3-0.5l0.5,0.4c0.4,0.4,0.9,0.7,1.4,1c3.5,2,7.7,0.3,10.4-4.3c2.7-4.6,2.1-9.1-1.4-11.1l-0.6-0.3
				l0.4-0.4c1.2-1.4,2.4-2.8,4-4.5l0.8-0.9l0.1,0c0.2-0.1,0.4-0.1,0.6-0.2c0.7-0.2,1.7-0.5,2.2-1.5l0-0.1c1.2-2.4-1.6-5-4.4-6.5
				c-3.4-1.8-6.2-1.9-7.1-0.2l-0.1,0.1c-0.4,0.7-0.2,1.5,0,2.2c0.1,0.6,0.2,0.9,0.1,1.2c-1,3.1-2.5,6-4,9c-0.3,0.5-0.5,1.1-0.8,1.6
				c-1.3,2.6-3.1,6.2-3.5,8.6l0,0.1l-5,8l-0.3,0c-0.9,0-1.5,0.3-1.9,0.9c-0.2,0.3-0.3,0.7-0.1,1.3C134.4,52.4,135.3,53.4,136.5,54.1
				z"></path>
			<polygon class="st0" points="151.7,35.5 145.9,38.3 144.5,44.9 147.6,47.4 150.6,47.8 155.9,39.1 154.5,37 			"></polygon>
			<path class="st0" d="M136.5,51.3c0.2-0.2,0.7-0.3,0.9-0.3l3.8-6.1c0,0,0-0.1,0.1,0c0.1,0,0,0.2,0,0.2s-3,5.5-3.4,6.3
				c0,0.2,0.1,0.5,0,1c0,0-0.3-0.1-0.7-0.4C136.7,51.6,136.5,51.3,136.5,51.3z M144,38.5c1.9-4,5.1-9.6,7.6-15.2
				c0-0.1,0.1-0.2,0.1-0.3c0.5-1.1,0.5-1.7,0.2-2.4c-0.2-0.4-0.7-1.2-0.2-1.3c0.7-0.2,2.4,0.3,3.5,0.9c-2.3,0.4-1,1.1-1.8,2.6
				c-0.8,1.5-8.9,16.1-8.9,16.1c-1.2,2.3-1.4,3.9-1.4,3.9C142.8,41.9,143.1,40.5,144,38.5z M146.8,39.5c1.6-2.8,3.9-3.6,5.5-2.7
				c1.6,0.9,2.2,3,0.4,6.2c-1.8,3.2-3.8,3.5-5.4,2.5C145.7,44.7,145.2,42.3,146.8,39.5z M136.9,53.3c1.4,0.8,2.8,0.9,3.1,0.3
				c0.2-0.4-0.1-1.1-0.7-1.7c0.7-1.3,2.1-3.9,3.1-5.6c0,0-0.3-1,0-1.6c0,0,0.7,1.9,2.9,3.2c3.1,1.8,6.7,0.1,9-4c2.4-4.1,2-8-1.1-9.8
				c-0.4-0.2-0.5-0.3-0.9-0.4l-3.3,2.8c0,0,6-7.2,8.6-10.1c0.8-0.6,2.1-0.4,2.7-1.5c1.6-3.2-8.4-8.5-9.9-5.7
				c-0.4,0.8,0.5,2.1,0.1,3.2c-1.2,3.8-3.1,7.2-4.8,10.8c-1.3,2.6-3.2,6.4-3.5,8.7l-5.5,8.7c-0.8-0.2-1.5-0.1-1.8,0.3
				C134.7,51.3,135.6,52.5,136.9,53.3z"></path>
			<path class="st1" d="M147.7,45.5C147.7,45.4,147.7,45.4,147.7,45.5c-1-0.8-1.6-2.4-0.6-4.9c0.8-2.3,2.2-3.4,3.4-3.6
				c0,0,0,0,0.1,0c0.3-0.1,0.6-0.1,0.9,0c0,0,0,0,0.1,0c0,0,0,0,0,0c0.2,0.1,0.4,0.2,0.6,0.3l0.1,0c0.6,0.3,1.3,0.5,1.9,0.7
				c0.9,0.3,1.7,0.5,2.5,0.7c0.4,0.1,0.8,0.2,1.2,0.3c1.4,0.3,2.7,0.5,3.7,0.6l-2.4,4.3l0.9,4.5c-1.7-0.1-3.7-0.3-5.5-0.6
				c-0.4-0.1-0.9-0.2-1.3-0.3c-1-0.2-2-0.5-2.9-0.7C149.1,46.3,148.1,45.9,147.7,45.5z"></path>
			<polygon class="st2" points="153.2,42.3 149.6,44.2 147.5,40.9 151.2,39 			"></polygon>
			<path class="st2" d="M154.8,37.4L154.8,37.4c0.2,0.1,0.3,0.1,0.5,0.2c0.2,0.1,0.4,0.1,0.6,0.2c0.4,0.1,0.8,0.3,1.1,0.4
				c0.4,0.1,0.9,0.3,1.3,0.4c0.5,0.1,0.9,0.2,1.4,0.4l-2.7,1.4L154.8,37.4z"></path>
			<polygon class="st2" points="155.5,45.6 153.2,42.3 156.9,40.3 159.1,43.9 			"></polygon>
			<path class="st2" d="M152.2,47.6l3.3-2l1.8,3.1c-1.2-0.2-2.5-0.5-3.7-0.8C153.1,47.8,152.7,47.7,152.2,47.6
				c-0.2-0.1-0.4-0.1-0.6-0.2L152.2,47.6z"></path>
			<path class="st2" d="M154.8,37.4L154.8,37.4l-3.6,1.6l-1.7-2.5c0.3-0.1,0.2-0.1,0.5-0.2c0,0,0.8,0.5,0.6,0
				c-0.1-0.4,0.2-0.3,0.6-0.4c0,0,0,0,0.1,0c0,0,0,0,0.1,0c0.3,0.1,0.4,0,0.6,0.2l0.1,0c0.7,0.3,1.4,0.7,2.2,0.9
				C154.3,37.3,154.6,37.4,154.8,37.4L154.8,37.4L154.8,37.4z"></path>
			<path class="st2" d="M151.6,47.4L151.6,47.4c-1-0.3-1.8-0.6-2.6-0.8c-0.8-0.3-1.5-0.6-2.1-0.9l2.7-1.4L151.6,47.4z"></path>
			<path class="st2" d="M146.1,41.7L146.1,41.7c0-0.4,0-0.3,0.1-0.8c0,0,0.2,0,0.2,0c0.1-0.2,0-0.3,0.1-0.5c0,0,0.2-0.3,0.2-0.4
				c0.1-0.2,0,0,0.1-0.2c0.1-0.3,0.2-0.1,0.3-0.3l0.6,1.5L146.1,41.7z"></path>
			<path class="st0" d="M146.6,43.2L146.6,43.2c0-0.4,0-0.7,0.1-1.2c0,0,0,0,0-0.1c0-0.2,0.1-0.4,0.1-0.6c0,0,0-0.1,0-0.1
				c0.1-0.2,0.1-0.4,0.2-0.7c0.1-0.2,0.2-0.5,0.3-0.7c0.7-1.5,1.6-2.3,2.5-2.7c0.2-0.1,0.4-0.2,0.6-0.2c0,0,0,0,0.1,0
				c0.3-0.1,1,0.1,1.6,0.3l0.1,0c0.6,0.3,1.3,0.5,1.9,0.7c0.2,0.1,0.4,0.1,0.6,0.2c0.1,0,0.3,0.1,0.4,0.1c0.2,0,0.3,0.1,0.5,0.1
				c0.3,0.1,0.6,0.2,1,0.3c0.4,0.1,0.8,0.2,1.2,0.3c0.4,0.1,0.8,0.2,1.2,0.2c0.9,0.2,1.8,0.3,2.5,0.4l-3.3,3.9l1.8,4.9
				c-0.7,0-1.5-0.1-2.3-0.2c-1.1-0.1-2.2-0.3-3.2-0.5c-0.4-0.1-0.9-0.2-1.3-0.3c-0.2,0-0.4-0.1-0.5-0.1c0,0,0,0,0,0
				c-0.8-0.2-1.6-0.4-2.3-0.6c-0.7-0.2-1.4-0.5-1.8-0.7c-0.4-0.2-0.7-0.4-0.8-0.6c0,0,0,0-0.1-0.1C147.1,45,146.7,44.2,146.6,43.2z
				 M146.8,46.2L146.8,46.2c0.8,0.8,2.9,1.6,5.4,2.2c0.4,0.1,0.9,0.2,1.4,0.3c2.9,0.6,6.1,0.9,8.3,0.8l-2.2-5.7l4.7-5
				c0,0-2.9,0-6.6-0.8c-0.4-0.1-0.8-0.2-1.2-0.3c-1.3-0.3-2.6-0.7-3.9-1.3l0,0c-0.3-0.1-0.5-0.2-0.8-0.4l0,0
				c-0.5-0.1-1.1-0.2-1.6-0.1c-1.6,0.3-3.4,1.8-4.3,4.3c0,0,0,0,0,0c0,0,0,0.1,0,0.1C145,43.1,145.8,45.2,146.8,46.2z"></path>
			<path class="st1" d="M137.9,28.7c2.2,6.7-1.5,13.9-8.2,16.1c-6.7,2.2-13.9-1.5-16.1-8.2c-2.2-6.7,1.5-13.9,8.2-16.1
				C128.5,18.3,135.7,22,137.9,28.7L137.9,28.7z"></path>
			<path class="st0" d="M136.8,29.1c-2-6.1-8.5-9.4-14.6-7.4c-6.1,2-9.4,8.5-7.4,14.6c2,6.1,8.5,9.4,14.6,7.4
				C135.4,41.7,138.8,35.1,136.8,29.1z"></path>
			<ellipse transform="matrix(0.9511 -0.309 0.309 0.9511 -3.934 40.4645)" class="st1" cx="125.8" cy="32.7" rx="10.4" ry="10.4"></ellipse>
			<path class="st0" d="M130,22.1c-2.6-1.1-5.6-1.2-8.3,0l4.2,2.7L130,22.1z"></path>
			<polygon class="st0" points="128.4,36.2 130,31.3 125.8,28.3 121.6,31.3 123.2,36.2 			"></polygon>
			<path class="st0" d="M137.1,33.4c0.3-2.8-0.6-5.7-2.6-7.9l-1.3,4.8L137.1,33.4z"></path>
			<path class="st0" d="M128.6,43.6c2.8-0.6,5.2-2.4,6.7-4.9l-5,0.3L128.6,43.6z"></path>
			<polygon class="st0" points="121.6,31.3 123.2,36.2 128.4,36.2 129.9,31.3 125.8,28.2 			"></polygon>
			<path class="st0" d="M116.2,38.7c1.4,2.5,3.9,4.3,6.7,4.9l-1.8-4.6L116.2,38.7z"></path>
			<path class="st0" d="M114.5,33.4c-0.3-2.8,0.6-5.7,2.6-7.9l1.3,4.8L114.5,33.4z"></path>
			<rect x="125.6" y="23.6" class="st0" width="0.5" height="5.9"></rect>
			
				<rect x="128.7" y="30.5" transform="matrix(0.9511 -0.3088 0.3088 0.9511 -3.0763 42.1427)" class="st0" width="5.9" height="0.5"></rect>
			
				<rect x="129.1" y="34.6" transform="matrix(0.8071 -0.5904 0.5904 0.8071 2.7648 83.6327)" class="st0" width="0.5" height="5.9"></rect>
			
				<rect x="119.3" y="37.3" transform="matrix(0.588 -0.8088 0.8088 0.588 19.9362 114.3178)" class="st0" width="5.9" height="0.5"></rect>
			<polygon class="st0" points="122.7,31.9 117.1,30.1 117.2,29.7 122.8,31.5 			"></polygon>
			
				<ellipse transform="matrix(0.7231 -0.6907 0.6907 0.7231 12.2718 95.9322)" class="st1" cx="125.8" cy="32.7" rx="10.4" ry="10.4"></ellipse>
			<path class="st0" d="M118.7,25.3c-4.1,3.9-4.2,10.4-0.3,14.5c3.9,4.1,10.4,4.2,14.5,0.3c4.1-3.9,4.2-10.4,0.3-14.5
				C129.3,21.5,122.8,21.4,118.7,25.3z M133.1,40.3c-4.2,4-10.9,3.9-15-0.3c-4-4.2-3.9-10.9,0.3-15c4.2-4,10.9-3.9,15,0.3
				C137.5,29.6,137.3,36.3,133.1,40.3z"></path>
			
				<rect x="117.4" y="26.6" transform="matrix(0.1612 -0.9869 0.9869 0.1612 71.8829 138.6955)" class="st0" width="0.4" height="1"></rect>
			<path class="st0" d="M117.2,27.1l0.7,0.1l0-0.1l-0.7-0.1L117.2,27.1z M118.1,27.5l-1.2-0.2l0.1-0.6l1.2,0.2L118.1,27.5z"></path>
			<path class="st0" d="M126.8,36.8l3.1-3l-1-4.1l-4.1-1.3l-3.1,3l1,4.2L126.8,36.8z M130.3,33.9l-3.4,3.3l-4.5-1.3l-1.1-4.6
				l3.4-3.2l4.5,1.4L130.3,33.9z"></path>
			<path class="st0" d="M122.8,35.5l3.9,1.1l3-2.9l-1-3.9l-4-1.2l-3,2.9L122.8,35.5z M126.8,36.9l-4.2-1.2l-1-4.3l3.2-3.1l4.2,1.3
				l1,4.2L126.8,36.9z M122.5,35.8l4.3,1.2l3.3-3.2l-1.1-4.3l-4.4-1.3l-3.3,3.1L122.5,35.8z M126.9,37.3l-4.6-1.3l-1.1-4.8l3.5-3.3
				l4.6,1.4l1.1,4.6L126.9,37.3z"></path>
			<path class="st0" d="M118.3,30.6l3.1,0.6l1.5-1.5l1.2-1.1l0.4-0.4l-0.5-3.1c-0.4-0.1-2-0.6-3.3-0.3c-0.4,0.2-0.9,0.5-1.3,0.9
				c0,0-0.1,0.1-0.1,0.1c0,0-0.1,0.1-0.1,0.1c-0.4,0.4-0.7,0.8-1,1.2C117.8,28.6,118.2,30.1,118.3,30.6z M124.9,28.3l-0.6,0.5
				l-1.2,1.1l-1.7,1.6l-3.5-0.7l0-0.1c0-0.1-0.6-2-0.2-3.7l0,0l0,0c0.3-0.5,0.6-0.9,1.1-1.3c0,0,0.1-0.1,0.1-0.1
				c0,0,0.1-0.1,0.1-0.1c0.4-0.4,0.9-0.8,1.4-1l0,0l0,0c1.7-0.4,3.6,0.3,3.7,0.3l0.1,0L124.9,28.3z"></path>
			<path class="st0" d="M118.4,30.5l3,0.6l3-2.9l-0.5-3c-0.3-0.1-1.3-0.4-2.2-0.4c-0.3,0-0.7,0-1,0.1c-0.4,0.2-0.8,0.5-1.2,0.9
				c0,0-0.1,0.1-0.1,0.1c-0.1,0-0.1,0.1-0.1,0.1c-0.4,0.4-0.7,0.8-1,1.2C118,28.5,118.3,29.9,118.4,30.5z M121.5,31.3l-3.2-0.6
				l0-0.1c-0.1-0.5-0.5-2-0.1-3.4l0,0c0.3-0.4,0.6-0.9,1-1.3c0,0,0.1-0.1,0.1-0.1c0,0,0.1-0.1,0.1-0.1c0.4-0.4,0.8-0.7,1.3-0.9l0,0
				c0.3-0.1,0.7-0.1,1-0.1c1.1,0,2.1,0.3,2.4,0.4l0.1,0l0.5,3.2l-0.5,0.4L121.5,31.3z M118.1,30.8l3.4,0.7l2.8-2.7l0.5-0.5l-0.5-3.4
				l0,0c0,0-1.2-0.4-2.5-0.4c-0.4,0-0.8,0-1.1,0.1c-0.5,0.2-0.9,0.6-1.4,1c0,0-0.1,0.1-0.1,0.1c0,0-0.1,0.1-0.1,0.1
				c-0.4,0.4-0.8,0.8-1,1.3C117.5,28.8,118.1,30.7,118.1,30.8L118.1,30.8z M121.6,31.7L118,31l-0.1-0.2c0-0.1-0.6-2-0.2-3.8l0,0
				c0.3-0.5,0.6-0.9,1.1-1.4c0,0,0.1-0.1,0.1-0.1c0,0,0.1-0.1,0.1-0.1c0.4-0.4,0.9-0.8,1.4-1l0,0c0.4-0.1,0.8-0.1,1.2-0.1
				c1.3,0,2.6,0.4,2.6,0.5l0.2,0.1l0.6,3.6l-0.6,0.6L121.6,31.7z"></path>
			<path class="st0" d="M129,29.6l-4.3-1.3c0,0-0.4-1.7-0.5-3.3c2-0.9,4.2-0.9,4.2-0.9s1.4,0.9,2.9,3C130.7,27.7,129,29.6,129,29.6z
				"></path>
			<path class="st0" d="M124.8,28.2l4.2,1.3c0.3-0.3,1.6-1.7,2.2-2.4c-1.3-1.8-2.6-2.7-2.8-2.9c-0.3,0-2.3,0.1-4.1,0.9
				C124.4,26.4,124.8,27.9,124.8,28.2z M129.1,29.7l-4.5-1.3l0-0.1c0,0-0.4-1.7-0.5-3.3l0-0.1l0.1,0c2-0.9,4.3-1,4.3-1h0l0,0
				c0.1,0,1.4,1,2.9,3l0.1,0.1l-0.1,0.1C130.8,27.8,129.1,29.7,129.1,29.7L129.1,29.7z"></path>
			<path class="st0" d="M124.9,28.1l4.1,1.2c0.3-0.3,1.5-1.7,2.1-2.4c-1.3-1.7-2.5-2.6-2.7-2.8c-0.4,0-2.3,0.1-4,0.9
				C124.5,26.4,124.8,27.8,124.9,28.1z M129.1,29.8l-4.5-1.4l0-0.1c0,0-0.4-1.7-0.5-3.3l0-0.1l0.1-0.1c2-0.9,4.2-1,4.3-1h0.1l0,0
				c0.1,0,1.4,1,2.9,3l0.1,0.1l-0.1,0.1C130.8,27.9,129.2,29.7,129.1,29.8L129.1,29.8z"></path>
			<path class="st0" d="M125,28l4,1.2c0.4-0.4,1.4-1.6,2-2.2c-1.2-1.6-2.3-2.5-2.6-2.7c-0.4,0-2.2,0.1-3.8,0.8
				C124.6,26.4,124.9,27.6,125,28z M129,29.5l-4.2-1.3l0-0.1c-0.1-0.4-0.4-1.7-0.5-3.1l0-0.1l0.1,0c1.7-0.8,3.7-0.9,4-0.9l0,0l0,0
				c0.2,0.2,1.4,1.1,2.7,2.8l0.1,0.1l-0.1,0.1c-0.6,0.6-1.7,1.9-2.1,2.3L129,29.5z M124.7,28.3l4.4,1.3l0,0c0.1-0.1,1.7-1.9,2.3-2.5
				l0,0l0,0c-1.5-2.1-2.8-3-2.9-3l0,0c-0.1,0-2.3,0-4.3,1l0,0l0,0C124.2,26.5,124.6,28.1,124.7,28.3L124.7,28.3z M129.1,29.9
				l-4.7-1.4l0-0.2c0-0.2-0.4-1.8-0.5-3.4l0-0.2l0.2-0.1c2-0.9,4.3-1,4.4-1h0.1l0.1,0.1c0.1,0,1.4,1,3,3.1l0.1,0.2l-0.2,0.2
				c-0.6,0.7-2.2,2.4-2.3,2.5L129.1,29.9z"></path>
			
				<rect x="127.9" y="23.2" transform="matrix(0.2868 -0.958 0.958 0.2868 69.3602 139.8923)" class="st0" width="1.4" height="0.4"></rect>
			<path class="st0" d="M128.4,23.9l0.1,0l0.3-1.1l-0.1,0L128.4,23.9z M128.7,24.2l-0.6-0.2l0.5-1.6l0.6,0.2L128.7,24.2z"></path>
			
				<rect x="120.4" y="23.7" transform="matrix(0.9935 -0.1138 0.1138 0.9935 -1.9659 13.8757)" class="st0" width="0.4" height="1"></rect>
			<path class="st0" d="M120.5,23.8l0.1,0.7l0.1,0l-0.1-0.7L120.5,23.8z M120.3,24.8l-0.1-1.2l0.6-0.1l0.1,1.2L120.3,24.8z"></path>
			
				<rect x="134.2" y="28.1" transform="matrix(0.6328 -0.7743 0.7743 0.6328 27.5843 114.7031)" class="st0" width="1" height="0.4"></rect>
			<path class="st0" d="M134.5,28.5L134.5,28.5L135,28l-0.1-0.1L134.5,28.5z M134.6,28.9l-0.5-0.4l0.8-0.9l0.5,0.4L134.6,28.9z"></path>
			<path class="st0" d="M126.8,36.8l3.1-3l-1-4.1l-4.1-1.3l-3.1,3l1,4.2L126.8,36.8z M130.3,33.9l-3.4,3.3l-4.5-1.3l-1.1-4.6
				l3.4-3.2l4.5,1.4L130.3,33.9z"></path>
			<path class="st0" d="M122.8,35.5l3.9,1.1l3-2.9l-1-4l-4-1.2l-3,2.9L122.8,35.5z M126.8,36.9l-4.2-1.2l-1-4.3l3.2-3.1l4.2,1.3
				l1.1,4.2L126.8,36.9z M122.5,35.8l4.3,1.2l3.3-3.2l-1.1-4.4l-4.4-1.3l-3.3,3.1L122.5,35.8z M126.9,37.3l-4.6-1.3l-1.1-4.8
				l3.5-3.3l4.6,1.4l1.2,4.6L126.9,37.3z"></path>
			<path class="st0" d="M133.2,34.9c0,0,0.1-0.1,0.2-0.2c0.4-0.4,1.4-1.4,1.8-2.6c0-0.5,0-1.1-0.2-1.7l0,0c-0.1-0.6-0.3-1.2-0.6-1.6
				c-1-1-2.5-1.4-2.9-1.5l-2.2,2.4l0.1,0.6l0.9,3.5L133.2,34.9z M133.6,35L133.6,35c-0.2,0.2-0.3,0.2-0.3,0.2l-0.1,0.1l-3.3-1.3
				l-0.9-3.7l-0.2-0.7l2.4-2.7l0.1,0c0.1,0,2,0.4,3.2,1.7l0,0l0,0c0.3,0.5,0.5,1.1,0.7,1.7c0.2,0.6,0.3,1.3,0.2,1.9l0,0l0,0
				C135.1,33.4,134.1,34.5,133.6,35z"></path>
			<path class="st0" d="M130.3,33.6l2.8,1.1c0,0,0.1-0.1,0.1-0.1c0.4-0.4,1.4-1.4,1.7-2.5c0-0.5-0.1-1.1-0.2-1.7
				c-0.1-0.6-0.3-1.1-0.6-1.6c-0.9-0.9-2.3-1.3-2.7-1.5l-2.1,2.3l0.1,0.5L130.3,33.6z M133.2,35l-3.1-1.2l-1-4.2l2.2-2.5l0.1,0
				c0.4,0.1,1.9,0.6,2.9,1.6l0,0c0.3,0.5,0.5,1,0.6,1.7c0.2,0.6,0.2,1.2,0.2,1.8l0,0c-0.4,1.2-1.4,2.3-1.8,2.6
				C133.4,34.9,133.3,34.9,133.2,35L133.2,35z M130,33.9l3.2,1.3l0,0c0,0,0.1-0.1,0.3-0.2c0.5-0.5,1.5-1.5,1.8-2.7
				c0-0.6,0-1.2-0.2-1.8c-0.1-0.6-0.4-1.2-0.6-1.7c-1.2-1.2-3-1.6-3.1-1.6l0,0l-2.3,2.6l0.2,0.7L130,33.9z M133.3,35.4l-3.4-1.4
				l-1.1-4.6l2.5-2.8l0.2,0c0.1,0,2,0.4,3.2,1.7l0,0c0.3,0.5,0.5,1.1,0.7,1.8c0.2,0.6,0.3,1.3,0.2,1.9l0,0.1
				c-0.4,1.3-1.4,2.3-1.9,2.8c-0.2,0.2-0.3,0.2-0.3,0.2L133.3,35.4z"></path>
			<path class="st0" d="M126.8,37l3.3-3.1c0,0,1.6,0.5,3.1,1.2c-0.2,2.2-1.2,4.1-1.2,4.1s-1.7,0.8-4.3,1.1
				C127.4,39.3,126.8,37,126.8,37z"></path>
			<path class="st0" d="M126.9,37c0.1,0.4,0.6,2.2,0.9,3.1c2.3-0.3,3.8-0.9,4.1-1.1c0.1-0.3,1-2,1.2-3.9c-1.3-0.6-2.6-1.1-3-1.2
				L126.9,37z M127.7,40.4L127.7,40.4c-0.3-1-1-3.3-1-3.4l0-0.1l3.4-3.2l0.1,0c0,0,1.7,0.5,3.1,1.2l0.1,0l0,0.1
				c-0.2,2.2-1.2,4.1-1.2,4.1l0,0l0,0C132,39.3,130.3,40.1,127.7,40.4L127.7,40.4z"></path>
			<path class="st0" d="M127.9,40.1c2.2-0.3,3.7-0.9,4-1c0.2-0.3,1-2,1.2-3.8c-1.2-0.6-2.5-1-2.9-1.1l-3.1,3
				C127.1,37.5,127.6,39.2,127.9,40.1z M132.1,39.3L132.1,39.3c-0.1,0.1-1.8,0.9-4.4,1.1l-0.1,0l0-0.1c-0.3-0.9-0.9-3.3-0.9-3.3
				l0-0.1l3.4-3.3l0.1,0c0,0,1.7,0.5,3.1,1.3l0.1,0.1l0,0.1C133.2,37.3,132.2,39.2,132.1,39.3L132.1,39.3z"></path>
			<path class="st0" d="M127.1,37.1c0.1,0.5,0.6,2,0.8,2.8c2-0.3,3.5-0.8,3.8-1c0.2-0.4,0.9-1.9,1.1-3.7c-1.1-0.5-2.3-0.9-2.7-1.1
				L127.1,37.1z M127.8,40.2L127.8,40.2c-0.3-0.9-0.8-2.6-0.9-3.1l0-0.1l3.2-3.1l0.1,0c0.4,0.1,1.7,0.6,2.9,1.2l0.1,0l0,0.1
				c-0.2,1.9-1,3.6-1.2,3.9l0,0l0,0c-0.3,0.1-1.8,0.8-4,1.1L127.8,40.2z M126.7,37L126.7,37c0,0.1,0.6,2.4,0.9,3.3l0,0l0,0
				c2.5-0.3,4.2-1.1,4.3-1.1l0,0c0,0,1-1.9,1.2-4.1l0,0l0,0c-1.5-0.7-3.1-1.2-3.1-1.2l0,0L126.7,37z M127.5,40.6l-0.1-0.2
				c-0.3-0.9-0.9-3.3-0.9-3.3l0-0.2l3.5-3.4l0.2,0.1c0,0,1.7,0.5,3.2,1.3l0.2,0.1l0,0.2c-0.2,2.2-1.2,4.2-1.3,4.2l0,0.1l-0.1,0
				c-0.2,0.1-1.8,0.8-4.4,1.1L127.5,40.6z"></path>
			<rect x="132.3" y="39" transform="matrix(0.725 -0.6887 0.6887 0.725 9.1173 102.1447)" class="st0" width="0.4" height="1.4"></rect>
			<path class="st0" d="M132,39.3l0.8,0.8l0.1-0.1L132,39.3L132,39.3z M132.8,40.5l-1.1-1.2l0.4-0.4l1.1,1.2L132.8,40.5z"></path>
			
				<rect x="135.5" y="31.9" transform="matrix(0.3959 -0.9183 0.9183 0.3959 52.2895 144.1728)" class="st0" width="0.4" height="1"></rect>
			<path class="st0" d="M135.4,32.3l0.7,0.3l0-0.1l-0.7-0.3L135.4,32.3z M136.2,32.9l-1.1-0.5l0.2-0.6l1.1,0.5L136.2,32.9z"></path>
			<path class="st0" d="M122.6,35.8l-1.1-4.4c0,0-1.7-0.4-3.3-0.6c-1,1.9-1.1,4.2-1.1,4.2s0.9,1.4,2.9,3
				C120.7,37.3,122.6,35.8,122.6,35.8z"></path>
			<path class="st0" d="M117.2,34.9c0.1,0.2,1,1.5,2.7,2.9c0.7-0.6,2.2-1.8,2.5-2.1l-1-4.3c-0.3-0.1-1.7-0.4-3.1-0.6
				C117.4,32.6,117.2,34.6,117.2,34.9z M119.9,38.1L119.9,38.1c-2.1-1.7-2.9-3.1-3-3.1l0,0l0,0c0,0,0.1-2.3,1.2-4.2l0-0.1l0.1,0
				c1.6,0.2,3.3,0.6,3.3,0.6l0.1,0l1.1,4.6l-0.1,0C122.6,35.9,120.7,37.4,119.9,38.1L119.9,38.1z"></path>
			<path class="st0" d="M119.9,37.7c0.7-0.6,2.1-1.7,2.4-2l-1-4.2c-0.4-0.1-1.7-0.4-3-0.6c-0.9,1.7-1,3.6-1.1,4
				C117.4,35.1,118.2,36.3,119.9,37.7z M122.8,35.8L122.8,35.8c-0.1,0.1-2,1.6-2.7,2.2l-0.1,0.1l-0.1-0.1c-2-1.6-2.9-3-2.9-3.1l0,0
				l0-0.1c0-0.1,0.1-2.3,1.2-4.3l0.1-0.1l0.1,0c1.6,0.2,3.3,0.6,3.3,0.6l0.1,0L122.8,35.8z"></path>
			<path class="st0" d="M117.3,34.8c0.2,0.3,1,1.4,2.6,2.7c0.7-0.6,1.9-1.6,2.3-1.9l-1-4.1c-0.4-0.1-1.7-0.4-2.9-0.6
				C117.6,32.6,117.4,34.4,117.3,34.8z M119.9,37.9L119.9,37.9c-1.8-1.5-2.6-2.7-2.8-2.9l0,0l0,0c0-0.4,0.2-2.3,1.1-4l0-0.1l0.1,0
				c1.3,0.2,2.7,0.5,3.1,0.6l0.1,0l1.1,4.3l-0.1,0C122.1,36.1,120.7,37.2,119.9,37.9L119.9,37.9z M117,34.9L117,34.9
				c0,0.1,0.9,1.4,2.9,3.1l0,0l0,0c0.7-0.6,2.6-2.2,2.6-2.2l0,0l-1.1-4.5l0,0c0,0-1.7-0.4-3.3-0.6l0,0l0,0
				C117.1,32.6,117,34.8,117,34.9L117,34.9z M119.9,38.3l-0.2-0.2c-2-1.6-2.9-3-2.9-3.1l0-0.1l0-0.1c0-0.1,0.1-2.3,1.2-4.3l0.1-0.2
				l0.2,0c1.6,0.2,3.3,0.6,3.3,0.6l0.2,0l1.2,4.8l-0.1,0.1c0,0-1.9,1.6-2.6,2.2L119.9,38.3z"></path>
			
				<rect x="115.7" y="34.9" transform="matrix(0.9703 -0.242 0.242 0.9703 -5.0311 29.2072)" class="st0" width="1.4" height="0.4"></rect>
			<path class="st0" d="M115.8,35.2l0,0.1l1.1-0.3l0-0.1L115.8,35.2z M115.7,35.6l-0.1-0.6l1.6-0.4l0.1,0.6L115.7,35.6z"></path>
			<rect x="120.5" y="41.2" transform="matrix(0.8032 -0.5957 0.5957 0.8032 -0.8438 80.223)" class="st0" width="1" height="0.4"></rect>
			<path class="st0" d="M120.7,41.6L120.7,41.6l0.7-0.3l-0.1-0.1L120.7,41.6z M120.7,42l-0.4-0.5l1-0.7l0.4,0.5L120.7,42z"></path>
			<path class="st0" d="M124.8,41.9c1.2-0.3,2.3-1.2,2.7-1.6c0.1-0.1,0.1-0.1,0.2-0.2l-1-3l-0.5-0.1l-3-0.8l-0.6-0.2l-2.5,2
				c0.1,0.4,0.5,1.9,1.4,2.9c0.5,0.3,1,0.5,1.6,0.7C123.7,41.8,124.3,41.9,124.8,41.9z M127.7,40.6c-0.5,0.5-1.6,1.4-2.9,1.7l0,0h0
				c-0.6,0-1.2-0.1-1.8-0.3c-0.6-0.2-1.2-0.4-1.7-0.7l0,0l0,0c-1.2-1.3-1.5-3.2-1.5-3.3l0-0.1l2.8-2.3l0.7,0.2l3,0.8l0.7,0.2
				l1.1,3.4l-0.1,0.1C128,40.3,127.9,40.4,127.7,40.6z"></path>
			<path class="st0" d="M121.6,40.9c0.4,0.3,1,0.5,1.6,0.7c0.6,0.2,1.1,0.3,1.7,0.3c1.2-0.3,2.2-1.2,2.6-1.6c0,0,0.1-0.1,0.1-0.1
				l-0.9-2.9l-0.5-0.1l-3.5-1l-2.4,2C120.3,38.6,120.7,39.9,121.6,40.9z M124.8,42.1L124.8,42.1c-0.6,0-1.2-0.1-1.8-0.3
				c-0.6-0.2-1.2-0.4-1.6-0.7l0,0c-1-1-1.3-2.6-1.4-3l0-0.1l2.6-2.1l0.6,0.2l3.6,1l1,3.1l-0.1,0.1c0,0-0.1,0.1-0.2,0.2
				C127.2,40.8,126.1,41.7,124.8,42.1L124.8,42.1z M119.8,37.9L119.8,37.9c0,0.1,0.3,2,1.5,3.2c0.5,0.3,1.1,0.6,1.7,0.7
				c0.6,0.2,1.2,0.3,1.8,0.3v0l0,0c1.2-0.3,2.3-1.2,2.8-1.7c0.1-0.1,0.2-0.2,0.2-0.2l0,0l-1.1-3.3l-0.6-0.2l-3-0.8l-0.7-0.2
				L119.8,37.9z M124.9,42.4L124.9,42.4c-0.6,0-1.3-0.1-1.9-0.3c-0.6-0.2-1.2-0.4-1.7-0.8l0,0c-1.2-1.3-1.6-3.2-1.6-3.3l0-0.2
				l2.9-2.4l0.8,0.2l3.8,1.1l1.2,3.5l-0.1,0.1c0,0-0.1,0.1-0.3,0.3C127.3,41.2,126.2,42.1,124.9,42.4L124.9,42.4z"></path>
			
				<rect x="124.8" y="42.1" transform="matrix(0.9351 -0.3545 0.3545 0.9351 -6.9723 47.0815)" class="st0" width="0.4" height="1"></rect>
			<path class="st0" d="M124.8,42.3l0.3,0.7l0.1,0l-0.3-0.7L124.8,42.3z M125,43.2l-0.4-1.1l0.6-0.2l0.4,1.1L125,43.2z"></path>
			<path class="st0" d="M120.6,24.7c0,0-1.7,0.9-2.6,2.4c-0.5,0-0.6-0.2-0.9-0.2c1.2-2,3.3-3.1,3.3-3.1L120.6,24.7z"></path>
			<path class="st0" d="M117.3,26.8c0.1,0,0.1,0,0.2,0c0.1,0,0.2,0.1,0.4,0.1c0.8-1.4,2.2-2.2,2.6-2.4l-0.1-0.6
				C119.9,24.3,118.3,25.3,117.3,26.8z M118,27.2L118,27.2c-0.3,0-0.5-0.1-0.6-0.1c-0.1,0-0.2-0.1-0.3-0.1h-0.2l0.1-0.2
				c1.2-2,3.3-3.1,3.4-3.2l0.1-0.1l0.3,1.1l-0.1,0C120.6,24.8,118.9,25.6,118,27.2L118,27.2z"></path>
			<path class="st0" d="M135.3,32.2c0,0,0.1-1.9-0.8-3.5c0.3-0.4,0.4-0.4,0.6-0.7c1.1,2,1.1,4.4,1.1,4.4L135.3,32.2z"></path>
			<path class="st0" d="M135.4,32.1l0.6,0.2c0-0.6-0.1-2.4-1-4c0,0.1-0.1,0.1-0.1,0.1c-0.1,0.1-0.2,0.2-0.3,0.3
				C135.4,30,135.4,31.7,135.4,32.1z M136.3,32.6l-1.1-0.3l0-0.1c0,0,0.1-1.9-0.8-3.4l0-0.1l0-0.1c0.1-0.2,0.3-0.3,0.4-0.4
				c0.1-0.1,0.2-0.1,0.2-0.3l0.1-0.2l0.1,0.2c1.1,2,1.1,4.4,1.1,4.5L136.3,32.6z"></path>
			<path class="st0" d="M121.4,41.1c0,0,1.6,1.1,3.4,1.1c0.2,0.4,0.1,0.6,0.3,0.9c-2.3,0-4.4-1.3-4.4-1.3L121.4,41.1z"></path>
			<path class="st0" d="M121,41.7c0.5,0.3,2.1,1.1,4,1.2c0-0.1,0-0.1-0.1-0.2c0-0.1-0.1-0.2-0.1-0.4c-1.6,0-3-0.8-3.3-1L121,41.7z
				 M125.3,43.2l-0.2,0c-2.3,0-4.4-1.3-4.4-1.3l-0.1-0.1l0.8-0.8l0.1,0.1c0,0,1.6,1.1,3.3,1.1l0.1,0l0,0.1c0.1,0.2,0.1,0.4,0.2,0.5
				c0,0.1,0.1,0.2,0.1,0.3L125.3,43.2z"></path>
			<path class="st1" d="M82.5,110.6c-0.1-0.3-0.9,1-0.7,1.3c0.4,0.7,1.3,2.3,1.8,3c0.3-0.2-0.2-1.4-0.2-1.7c0.4-0.7,0.4-1.6-0.5-1.9
				L82.5,110.6z"></path>
			<path class="st1" d="M125.7,128.7L125.7,128.7L125.7,128.7c-16,0-41.8,1.1-70.1,8.5l1.8,0.3c0.3-0.1,0.6-0.1,0.9-0.2l14,15.8
				l-11.3,16c1.1,0.3,2.2,0.7,3.3,1.4c5.6-1.8,11.3-3.3,17.2-4.6l-7.3-9.5l0.1-4.1l15.6-20.2c0-0.2,0,0,0,0l17.9,18.9l18-21l0,0
				c0,0,0,0,0,0l0,0h0c0,0,0,0,0,0l0,0l18,21l17.9-18.9c0,0,0-0.2,0,0l15.6,20.2l0.1,4.1l-7.3,9.5c5.8,1.3,11.6,2.8,17.2,4.6
				c1.1-0.6,2.2-1.1,3.3-1.4l-11.3-16l14-15.8c0.3,0,0.6,0.1,0.9,0.2l1.8-0.3C167.6,129.8,141.8,128.7,125.7,128.7z"></path>
			<path class="st2" d="M215.3,159.5c-1.1-2-8.9-5.5-26.1-9.8c-26.1-6.5-47.5-7.3-63.5-7.3c-16,0-37.5,0.8-63.6,7.3
				c-17.2,4.3-25,7.8-26.1,9.8c-1.9,3.6,2.2,12.7,4.2,17.6c3,7.3,9.3,16,9.3,16s-1.2-3.3,8-6.1c34.7-10.7,67.9-9.8,68.1-9.8
				c0.2,0,33.3-0.8,68,9.8c9.2,2.8,8,6.1,8,6.1s6.3-8.6,9.3-16C213.1,172.2,217.2,163.1,215.3,159.5z"></path>
			<path class="st0" d="M125.8,143.8c-7.1,0-16.7,0.1-27.9,1.2c-12.1,1.1-23.6,3.1-35.4,6c-8,2-14.3,3.9-18.9,5.7
				c-5.6,2.2-6.3,3.4-6.3,3.4c-0.4,0.8-0.7,2.5,0.5,6.5c0.9,3,2.2,6.1,3.2,8.7c0.2,0.4,0.4,0.9,0.5,1.3c2,5,5.7,10.6,7.7,13.6
				c1.3-1.7,4-3.2,8-4.4c29.9-9.2,58.5-9.9,66.6-9.9c0.5,0,1.2,0,1.8,0h0c0.5,0,1.2,0,1.8,0c8.1,0,36.6,0.7,66.5,9.9
				c4,1.2,6.7,2.7,8,4.4c2-3,5.7-8.6,7.7-13.6c0.2-0.4,0.3-0.8,0.5-1.3c1.1-2.6,2.4-5.7,3.2-8.7c1.1-4,0.9-5.7,0.5-6.5
				c0,0-0.7-1.2-6.3-3.4c-4.6-1.8-10.9-3.7-18.9-5.7c-11.7-2.9-23.3-4.9-35.3-6C142.4,143.9,132.9,143.8,125.8,143.8L125.8,143.8z
				 M202.8,193.8l-2.3-1.2c0,0.1,0,0.1,0,0.1c0,0,0.1-2.2-7.1-4.5c-29.5-9.1-57.8-9.8-65.7-9.8c-0.7,0-1.3,0-1.8,0c0,0-0.1,0-0.1,0
				c0,0,0,0-0.1,0c-0.6,0-1.3,0-1.8,0c-8,0-36.3,0.7-65.9,9.8c-7.2,2.2-7.1,4.4-7.1,4.5c0,0,0.2,0.9,0.2,0.8l-2.2,0.8
				c-0.3-0.4-6.8-9.4-9.8-16.8c-0.2-0.4-0.3-0.8-0.5-1.3c-3-7.2-5.5-13.9-3.6-17.5c0.5-0.9,1.8-2.3,7.7-4.6
				c4.7-1.8,11.2-3.8,19.2-5.8c11.9-3,23.6-5,35.8-6.1c11.3-1.1,21-1.2,28.1-1.2h0c7.1,0,16.8,0.1,28.1,1.2
				c12.2,1.2,23.9,3.2,35.7,6.1c8.1,2,14.6,4,19.2,5.8c5.9,2.3,7.2,3.7,7.7,4.6c1.9,3.6-0.6,10.3-3.6,17.5c-0.2,0.4-0.4,0.9-0.5,1.3
				C209.3,185,203.1,193.5,202.8,193.8z"></path>
			<path class="st1" d="M158,170.1c-0.1,0-0.1-0.1-0.2-0.1c-1.2-0.4-2.5-0.6-3.7-0.4c-0.8,0.1-1.5,0.3-2.1,0.7
				c-0.5,0.3-0.9,0.6-1.2,1c-0.6,0.8-0.8,1.8-0.7,2.8c0,0.3,0.2,0.7,0.4,1c0.2,0.3,0.5,0.5,0.8,0.6c0.3,0.1,0.6,0.1,0.9,0.1
				c0.7-0.1,1.3-0.3,1.8-0.8c0.4-0.3,0.7-0.6,1-1c1.1-1.2,2-2.5,2.9-3.8C158,170.2,158,170.1,158,170.1z M87.7,156.4
				c0-0.1,0-0.3-0.1-0.6c-0.1-0.4-0.3-0.6-0.7-0.5c-0.1,0-0.2,0-0.2,0c-0.2,0.1-0.5,0.2-0.7,0.3c-0.4,0.2-0.8,0.6-1.1,0.9
				c-0.4,0.4-0.7,0.8-1.1,1.3c-1,1.4-1.8,2.9-2.4,4.5c-0.2,0.7-0.4,1.4-0.5,2.1c0,0.3,0,0.6,0,0.9c0.1,0.4,0.4,0.6,0.9,0.6
				c0,0,0.1,0,0.1,0c0.4-0.1,0.7-0.3,1-0.5c0.5-0.4,1-0.8,1.4-1.3c1.4-1.6,2.4-3.5,3-5.6C87.6,157.9,87.6,157.2,87.7,156.4z
				 M103.2,154.6c0-0.1,0-0.4-0.1-0.6c-0.1-0.4-0.4-0.5-0.8-0.5c-0.2,0-0.4,0.1-0.5,0.2c-0.3,0.1-0.6,0.3-0.9,0.5
				c-0.8,0.6-1.5,1.4-2.1,2.2c-0.8,1.2-1.4,2.4-2,3.8c-0.3,0.8-0.5,1.5-0.6,2.3c0,0.3,0,0.5,0,0.7c0.1,0.3,0.2,0.5,0.4,0.6
				c0.1,0,0.2,0.1,0.3,0.1c0.4,0,0.7-0.1,1-0.3c0.4-0.2,0.7-0.5,1.1-0.8c0.5-0.5,0.9-0.9,1.3-1.5c1.2-1.5,2-3.2,2.5-5
				C103,155.8,103.1,155.3,103.2,154.6z M149.8,154.7c0-0.2,0-0.4-0.1-0.6c-0.1-0.2-0.2-0.3-0.4-0.4c-0.2-0.1-0.4-0.1-0.6-0.1
				c-0.2,0.1-0.4,0.1-0.6,0.2c-0.4,0.1-0.7,0.4-1.1,0.6c-0.7,0.5-1.3,1.1-1.9,1.8c-1,1.2-1.7,2.4-2.3,3.8c-0.2,0.5-0.3,0.9-0.4,1.4
				c-0.1,0.3-0.1,0.6,0,1c0.1,0.5,0.4,0.8,0.9,0.8c0.3,0,0.6-0.1,0.9-0.2c0.5-0.2,1-0.5,1.4-0.9c1.9-1.7,3.3-3.7,3.9-6.2
				C149.7,155.6,149.8,155.2,149.8,154.7z M158.1,163.5c0,0.2,0,0.3,0.1,0.5c0.1,0.3,0.3,0.5,0.6,0.7c0.2,0.1,0.5,0.1,0.7,0.1
				c0.4-0.1,0.7-0.2,1.1-0.4c0.5-0.3,0.9-0.6,1.3-0.9c1.6-1.4,2.7-3,3.5-5c0.2-0.6,0.4-1.1,0.4-1.7c0-0.2,0-0.4,0-0.7
				c-0.1-0.3-0.2-0.5-0.5-0.5c-0.2-0.1-0.4-0.1-0.6,0c-0.4,0.1-0.7,0.2-1,0.3c-0.6,0.3-1.1,0.6-1.5,1c-1.2,1-2.1,2.2-2.9,3.6
				c-0.4,0.7-0.7,1.4-0.9,2.2C158.2,163,158.1,163.3,158.1,163.5z M158.7,169c0.4-0.7,0.7-1.3,1.1-1.9c-0.1,0-0.2,0-0.2,0
				c-0.7,0.2-1.3,0.3-2,0.2c-0.5,0-0.9-0.1-1.3-0.3c-0.8-0.3-1.4-0.9-1.8-1.6c-0.3-0.5-0.5-1.1-0.5-1.7c-0.1-1.2,0.1-2.3,0.5-3.4
				c0.2-0.4,0.4-0.9,0.6-1.3c0.1-0.2,0.2-0.3,0.3-0.4c0.1-0.1,0.1-0.2,0.2-0.3c-1.2,0.3-1.5,0.2-2.2,0c0,0.1-0.1,0.2-0.1,0.3
				c-0.5,1.5-1.2,2.9-2.4,4c-0.2,0.2-0.3,0.3-0.5,0.5c-1.2,1.2-2.6,2-4.3,2.4c-0.8,0.2-1.6,0.3-2.4,0.3c-0.8,0-1.5-0.1-2.2-0.4
				c-1.5-0.5-2.4-1.5-2.8-3c0-0.2-0.1-0.3-0.1-0.5c0,0,0,0-0.1-0.1c-0.1,0.1-0.2,0.2-0.3,0.2c-0.8,0.7-1.6,1.4-2.6,2
				c-0.6,0.4-1.1,0.7-1.7,0.9c-0.9,0.4-1.8,0.5-2.7,0.3c-0.3,0-0.7-0.1-1-0.3c-0.6-0.3-0.9-0.8-1-1.5c-0.1-0.8,0.1-1.5,0.4-2.2
				c0.3-0.6,0.6-1.1,0.9-1.7c0.1-0.2,0.2-0.4,0.3-0.6c-0.1-0.1-0.1-0.1-0.2,0c-0.4,0.1-0.8,0.3-1.2,0.4c-0.5,0.2-1.1,0.3-1.7,0.3
				c-0.4,0-0.8-0.1-1.2-0.2c-0.1,0.1-0.2,0.2-0.2,0.3c-0.7,1.4-1.4,2.8-2.1,4.2c-0.2,0.3-0.3,0.7-0.5,1c-0.1,0.1-0.1,0.2-0.3,0.2
				c-0.1,0-0.2,0-0.3,0c-1,0-2,0-3,0c-0.5,0-0.9,0-1.4,0c-0.1,0-0.2,0-0.3,0c-0.1-0.1,0-0.2,0.1-0.3c0.5-0.9,1-1.9,1.4-2.8
				c0.1-0.1,0.1-0.2,0.2-0.4c-0.2,0.1-0.3,0.2-0.4,0.3c-0.6,0.6-1.3,1.1-2,1.6c-1.1,0.8-2.3,1.4-3.6,1.7c-1.1,0.3-2.3,0.3-3.4-0.1
				c-0.8-0.3-1.5-0.8-2-1.5c-0.2-0.4-0.4-0.8-0.5-1.1c0-0.1,0-0.1-0.1-0.2c-0.1,0.1-0.2,0.1-0.3,0.2c-1.1,0.9-2.2,1.8-3.4,2.6
				c-0.4,0.3-0.9,0.6-1.4,0.8c-0.3,0.1-0.7,0.2-1.1,0.2c-0.3,0-0.6-0.1-0.9-0.2c-0.6-0.3-0.9-0.7-1.1-1.3c0-0.3-0.1-0.5-0.1-0.8
				c-0.1,0-0.1,0.1-0.2,0.2c-0.4,0.6-1,1.2-1.6,1.6c-0.6,0.5-1.3,0.9-2,1.1c-0.8,0.2-1.6,0.2-2.4,0c-0.7-0.2-1.3-0.6-1.7-1.2
				c-0.3-0.5-0.5-1-0.6-1.6c-0.1-0.6-0.2-1.2-0.1-1.7c0-0.1,0-0.2,0-0.4c-0.1,0-0.1,0-0.2,0.1c-0.5,0.5-1,1-1.5,1.5
				c-0.1,0.1-0.2,0.2-0.3,0.4c-0.8,1.1-1.6,2.1-2.6,2.9c-1.1,0.9-2.2,1.5-3.6,1.8c-0.7,0.2-1.5,0.2-2.2,0.2c-0.3,0-0.6-0.1-1-0.2
				c-0.4-0.1-0.8-0.3-1-0.6c-0.1,0.1-0.1,0.2-0.2,0.3c-0.5,1.1-0.9,2.2-1.4,3.3c-0.7,1.7-1.4,3.5-2.2,5.2c-0.1,0.1-0.1,0.3-0.2,0.4
				c-0.9,0.2-1.8,0.3-2.6,0.5c-0.9,0.1-1.8,0.4-2.7,0.5c0-0.2,0-0.3,0.1-0.4c0.7-1.5,1.3-3,2-4.5c0.7-1.6,1.4-3.1,2-4.7
				c0-0.1,0.1-0.2,0.1-0.3c-0.1,0.1-0.2,0.2-0.3,0.3c-0.7,0.7-1.5,1.4-2.4,2c-0.6,0.4-1.3,0.8-2,1.1c-0.6,0.2-1.3,0.3-2,0.3
				c-0.3,0-0.5-0.1-0.8-0.2c-0.8-0.3-1.2-0.9-1.4-1.6c-0.1-0.5-0.1-1,0-1.4c0.3-1.3,0.7-2.6,1.2-3.9c0.2-0.6,0.5-1.3,0.7-1.9
				c0.1-0.4,0.2-0.8,0-1.2c-0.1-0.4-0.3-0.7-0.7-0.9c-0.1,0-0.2,0.1-0.2,0.1c-1.2,0.8-2.5,1.5-3.8,2.2c-0.2,0.1-0.4,0.3-0.5,0.5
				c-1.1,2.6-2.2,5.1-3.3,7.7c-0.3,0.7-0.6,1.4-0.9,2.2c-0.1,0.2-0.2,0.3-0.4,0.3c-2,0.5-4,1-5.9,1.5c-0.2,0-0.3,0.1-0.5,0.1
				c0-0.1,0-0.2,0.1-0.3c0.7-1.5,1.3-3,2-4.6c1.1-2.4,2.2-4.8,3.3-7.2c0.8-1.6,1.5-3.3,2.3-4.9c0.3-0.7,0.6-1.4,0.9-2.2
				c0.8-1.8,0.8-3.7,0.2-5.6c-0.2-0.6-0.5-1.2-0.9-1.8c-0.7-1-1.7-1.5-2.9-1.7c-1-0.1-2,0-3,0.4c-1.4,0.5-2.6,1.3-3.5,2.5
				c-0.7,0.8-1.2,1.8-1.5,2.8c-0.4,1.1-0.5,2.3-0.4,3.5c0.1,1.1,0.4,2.1,1,3c0.2,0.4,0.5,0.7,0.9,1c0.2,0.2,0.5,0.3,0.8,0.4
				c0.4,0.1,0.8,0.1,1.2-0.1c0.7-0.3,1.3-0.9,1.6-1.6c0.2-0.5,0.3-1,0.4-1.5c0.1-1.3-0.1-2.5-0.5-3.7c-0.3-1-0.7-2-1.1-2.9
				c0-0.1-0.1-0.1-0.1-0.2c0.1,0,0.2,0,0.2,0c1,0.2,2.1,0.5,3.1,0.8c0.6,0.2,1.3,0.3,1.9,0.5c0,0,0.1,0,0.2,0.1
				c0,0.1,0.1,0.2,0.1,0.3c0.1,0.8,0.2,1.7,0.1,2.5c-0.1,1.3-0.5,2.5-1.1,3.7c-0.6,1-1.3,1.8-2.3,2.4c-1.2,0.8-2.5,1.3-3.9,1.5
				c-0.9,0.1-1.8,0.1-2.6-0.2c-1.4-0.5-2.4-1.4-3-2.7c-0.3-0.7-0.5-1.5-0.5-2.3c-0.1-2,0.4-3.8,1.5-5.5c0.8-1.3,1.8-2.4,3-3.3
				c2-1.5,4.3-2.6,6.8-3.1c0.9-0.2,1.8-0.3,2.8-0.3c1.1,0,2.2,0.2,3.3,0.6c1.3,0.5,2.2,1.3,3,2.4c0.6,0.8,1,1.6,1.2,2.6
				c0.1,0.6,0.2,1.3,0.2,2c0,1.1-0.2,2.2-0.4,3.2c-0.3,1.1-0.6,2.2-1.1,3.3c0,0,0,0,0,0.1c0.1,0.1,0.1,0,0.2,0
				c2.2-1.1,4-2.7,5.6-4.6c0.9-1,1.7-2.1,2.4-3.3c0.8-1.3,1.5-2.7,2-4.2c0.2-0.7,0.4-1.3,0.4-2c0,0,0-0.1,0-0.2
				c0.6-0.1,1.2-0.2,1.8-0.3c0.6-0.1,1.2-0.2,1.8-0.3c0.6-0.1,1.2-0.2,1.8-0.3c0.1,0.1,0.1,0.2,0,0.2c-0.2,1-0.5,2-0.9,3
				c-0.4,1.1-0.9,2.2-1.5,3.2c-1,1.7-2.2,3.3-3.6,4.7c-0.8,0.8-1.7,1.5-2.6,2.2c-0.1,0.1-0.2,0.1-0.2,0.2c0.1,0.1,0.2,0.2,0.3,0.3
				c0.5,0.4,1,0.9,1.3,1.5c0.3,0.7,0.3,1.3,0.1,2c-0.1,0.4-0.3,0.8-0.4,1.3c-0.3,0.9-0.6,1.8-0.9,2.8c-0.1,0.4-0.2,0.9-0.3,1.3
				c0,0.2,0,0.4,0,0.7c0,0.1,0.1,0.3,0.2,0.4c0.3,0.2,0.6,0.3,0.9,0.2c0.2-0.1,0.4-0.2,0.6-0.4c0.6-0.5,1.2-1.1,1.7-1.8
				c0.9-1.1,1.6-2.4,2.2-3.7c0.6-1.3,1.2-2.6,1.7-3.8c0.4-0.9,0.8-1.7,1.2-2.6c0.1-0.1,0.1-0.2,0.2-0.4c0.8-0.2,1.6-0.3,2.4-0.4
				c0.8-0.1,1.6-0.3,2.4-0.4c0,0.1,0,0.1,0,0.2c-0.1,0.2-0.1,0.3-0.2,0.5c0,0.1,0,0.1-0.1,0.2c0.3-0.2,0.6-0.4,0.8-0.5
				c0.6-0.5,1.3-0.7,2.1-0.9c0.9-0.1,1.7-0.1,2.5,0.5c0.6,0.4,1,1,1.2,1.7c0.2,0.8,0.3,1.5,0.2,2.3c-0.1,0.7-0.2,1.5-0.5,2.2
				c0,0,0,0.1,0,0.1c0,0,0,0,0,0.1c0.1,0,0.1-0.1,0.2-0.1c0.1-0.1,0.1-0.1,0.2-0.2c0.4-0.3,0.6-0.6,0.8-1.1c0.5-1.3,1.3-2.4,2.2-3.4
				c0.9-1,1.8-1.8,2.9-2.5c0.9-0.5,1.8-1,2.9-1.2c0.6-0.1,1.2-0.2,1.8-0.2c0.9,0,1.6,0.3,2.2,0.9c0,0,0.1,0.1,0.1,0.1
				c0.3-0.4,0.4-0.8,0.6-1.2c0.5-0.1,4.4-0.4,4.8-0.3c0,0.1,0,0.1-0.1,0.2c-0.2,0.4-0.3,0.7-0.5,1.1c-0.9,1.8-1.8,3.7-2.6,5.6
				c-0.3,0.7-0.6,1.4-0.9,2c-0.1,0.2-0.2,0.4-0.2,0.6c0,0.2-0.1,0.3-0.1,0.5c0,0.5,0.3,0.7,0.8,0.6c0.1,0,0.2-0.1,0.3-0.1
				c0.2-0.1,0.4-0.2,0.6-0.4c0.4-0.3,0.7-0.6,1.1-0.9c0.1-0.1,0.2-0.2,0.2-0.3c0.3-1.3,0.8-2.6,1.4-3.8c0.4-0.8,0.9-1.5,1.4-2.1
				c1.3-1.5,2.9-2.6,4.8-3.1c1-0.3,2.1-0.4,3.2-0.3c0.4,0,0.8,0.1,1.2,0.3c1.1,0.4,1.7,1.2,1.8,2.4c0,0.2,0,0.4,0,0.7
				c0,0.2,0,0.4-0.1,0.6c-0.1,0.1-0.1,0.1-0.2,0.1c-1.3,0.7-2.6,1.4-3.9,2c-0.1,0.1-0.2,0.1-0.3,0.1c-0.1-0.1,0-0.2,0-0.2
				c0.2-0.4,0.4-0.8,0.5-1.3c0.2-0.6,0.4-1.2,0.5-1.9c0-0.2,0-0.5,0-0.7c-0.1-0.3-0.4-0.5-0.7-0.5c-0.3,0-0.6,0.2-0.8,0.3
				c-0.5,0.3-1,0.7-1.4,1.2c-0.8,0.9-1.4,1.9-1.9,3c-0.2,0.5-0.4,1-0.6,1.5c-0.3,0.8-0.3,1.5-0.2,2.3c0,0.2,0.1,0.4,0.1,0.6
				c0.2,0.6,0.6,1,1.4,1.1c0.5,0,0.9,0,1.4-0.2c0.6-0.2,1.2-0.5,1.8-0.8c1.3-0.8,2.5-1.7,3.5-2.9c0.3-0.4,0.6-0.8,0.9-1.3
				c1-1.8,2-3.6,3.1-5.4c0.1-0.2,0.3-0.5,0.4-0.7c0.1-0.1,0.1-0.2,0.2-0.3c1.7,0,3.4,0,5.2,0.1c0,0.1,0,0.1-0.1,0.2
				c-0.8,1.5-1.7,3-2.5,4.5c-0.3,0.5-0.6,1.1-0.9,1.6c0,0.1-0.1,0.2-0.1,0.3c0.2,0,0.3,0.1,0.5,0.1c1.2,0.1,2.3-0.2,3.3-0.8
				c0.3-0.2,0.5-0.4,0.7-0.7c0.9-1.6,1.9-3.1,2.8-4.7c0.1-0.2,0.2-0.3,0.3-0.5c0.8,0,1.6,0.1,2.4,0.1c0.8,0,1.6,0.1,2.4,0.1
				c-0.1,0.1-0.1,0.2-0.1,0.3c-0.3,0.5-0.6,1-0.8,1.5c-0.9,1.6-1.8,3.3-2.7,5c-0.5,0.9-0.9,1.7-1.4,2.6c-0.1,0.3-0.2,0.5-0.3,0.8
				c0,0.2,0,0.3,0,0.4c0.1,0.3,0.3,0.4,0.6,0.4c0.2,0,0.3-0.1,0.5-0.2c0.2-0.1,0.4-0.2,0.6-0.4c0.3-0.2,0.5-0.5,0.8-0.7
				c0.3-0.4,0.6-0.8,1-1.1c0.1-0.1,0.2-0.2,0.2-0.4c0.4-1.5,1.1-2.8,2.1-4c0.6-0.7,1.3-1.4,2.1-2c1.1-0.7,2.3-1.2,3.5-1.5
				c0.8-0.2,1.6-0.3,2.4-0.2c0.9,0,1.8,0.2,2.7,0.6c0.4,0.2,0.7,0.4,1,0.7c0.6,0.5,0.9,1.1,1.1,1.9c0.1,0.3,0.1,0.7,0.1,1
				c0,0.1,0,0.3,0,0.5c0.7,0.4,1.3,0.5,2.1,0.3c0.3-0.1,0.6-0.3,0.9-0.5c0.4-0.3,0.9-0.6,1.3-0.9c1.1-0.8,2.3-1.3,3.6-1.5
				c0.9-0.2,1.7-0.2,2.6-0.2c1,0.1,2,0.4,2.8,1.1c0.2,0.2,0.4,0.4,0.6,0.7c0,0,0.1-0.1,0.1-0.1c0.2-0.3,0.5-0.6,0.7-0.9
				c0.4,0,0.8,0.1,1.2,0.2c0.4,0.1,0.8,0.1,1.2,0.2c0.4,0.1,0.8,0.1,1.2,0.2c0.4,0.1,0.8,0.1,1.2,0.2c-0.3,0.4-0.6,0.8-0.8,1.2
				c-0.3,0.4-0.5,0.8-0.8,1.2c-0.3,0.4-0.5,0.8-0.8,1.1c-0.3,0.4-0.5,0.8-0.8,1.2c-0.3,0.4-0.5,0.8-0.8,1.2
				c-0.3,0.4-0.5,0.8-0.8,1.2c-0.3,0.4-0.5,0.8-0.8,1.2c-0.3,0.4-0.5,0.8-0.8,1.2c-0.3,0.4-0.5,0.8-0.8,1.2
				c-0.3,0.4-0.5,0.8-0.8,1.2c-0.2,0.4-0.5,0.8-0.7,1.2c-0.3,0.4-0.5,0.8-0.8,1.2c-0.3,0.4-0.5,0.8-0.8,1.2c0,0,0.1,0.1,0.1,0.1
				c0.8,0.3,1.6,0.4,2.5,0.4c1.1-0.1,2-0.5,2.8-1.3c0.1-0.1,0.1-0.1,0.2-0.2c0.1,0,0.1,0,0.2,0c1.5,0.8,3.1,1.5,4.6,2.3
				c0,0,0,0,0,0.1c-0.1,0.1-0.2,0.2-0.3,0.2c-0.7,0.4-1.4,0.7-2.2,0.9c-1.1,0.3-2.2,0.4-3.4,0.3c-1.3-0.1-2.6-0.4-3.9-0.8
				c-0.4-0.1-0.8-0.3-1.2-0.4c-0.1,0-0.2-0.1-0.4-0.1c-0.1,0.1-0.2,0.2-0.2,0.4c-0.4,0.6-0.8,1.2-1.3,1.7c-1.4,1.6-3.1,2.6-5.3,3
				c-1.1,0.2-2.2,0.3-3.3,0.2c-0.7-0.1-1.3-0.1-2-0.3c-0.6-0.2-1.3-0.4-1.8-0.8c-1.1-0.7-1.7-1.7-1.8-3c-0.1-0.6,0.1-1.2,0.2-1.8
				c0.5-1.5,1.5-2.5,3-3c0.7-0.2,1.4-0.4,2.1-0.4c0.7,0,1.4,0,2.1,0c1.3,0.1,2.5,0.3,3.7,0.7c0.3,0.1,0.7,0.2,1,0.3
				C158.6,168.9,158.6,168.9,158.7,169z"></path>
			<path class="st0" d="M76.5,146.3c-0.1,0.4-0.2,0.7-0.3,1.1c-0.4,1.3-0.9,2.5-1.7,3.8c0.5-0.6,0.9-1.3,1.3-2.1
				c0.5-0.9,1-1.9,1.4-2.9c-0.1,0-0.2,0-0.3,0.1C76.8,146.3,76.7,146.3,76.5,146.3z M55.1,153.2c0.1,0.3,0.1,0.5,0.2,0.8
				c0-0.2,0-0.5,0-0.7C55.2,153.2,55.2,153.2,55.1,153.2z M105.2,155.5c-0.1,0.5-0.1,0.9-0.3,1.4c-0.1,0.2-0.1,0.4-0.2,0.7
				c0,0,0,0,0,0c0.6-1.3,1.2-2.6,1.8-3.8c0,0-0.1,0-0.1,0c-0.1,0.1-0.2,0.3-0.3,0.4L105.2,155.5z M50.4,152.3
				c-0.1,0.3-0.3,0.6-0.4,0.9c-0.3,0.8-0.4,1.7-0.3,2.7c0.1,0.8,0.2,1.3,0.5,1.9c0.1,0.2,0.3,0.5,0.5,0.5c0.3,0,0.4-0.2,0.5-0.5
				c0.1-0.2,0.2-0.5,0.2-0.8c0.1-0.9-0.1-1.8-0.4-3C50.9,153.5,50.7,152.9,50.4,152.3z M151.4,157.2c-0.5,1.4-1.1,2.7-2,3.9
				c0.9-0.9,1.4-1.9,1.8-3.1c0-0.1,0.1-0.2,0.1-0.4l0.1-0.2V157.2z M140.2,160.8c0.1,0.1,0.1,0.2,0.2,0.3c0,0,0-0.1,0-0.1
				c0.1-0.6,0.3-1.2,0.5-1.8c0.3-0.7,0.6-1.4,1-2c-0.7,0.9-1.2,1.8-1.4,2.8C140.5,160.4,140.4,160.6,140.2,160.8z M89.1,160
				c-0.3,0.7-0.6,1.5-0.9,2.2c0.1-0.1,0.1-0.2,0.2-0.3c0.2-0.2,0.5-0.5,0.7-0.7c-0.1-0.3-0.1-0.5-0.1-0.8
				C89,160.3,89,160.2,89.1,160z M124.2,158.5l-2.1,4.3c-0.1,0.1-0.1,0.2-0.1,0.3l0,0.1c0.1,0,0.3,0,0.4,0h0.1l0.2-0.4
				c0.6-1.3,1.3-2.6,1.9-3.9c0.1-0.2,0.3-0.7,0.9-1.1l0.4-0.9c0.1-0.1,0.1-0.3,0.2-0.4l0.2-0.4c0.2-0.4,0.4-0.9,0.7-1.3
				c0.3-0.6,0.7-1.2,1-1.8c-0.2,0-0.4,0-0.6,0l0,0.1C126,155.2,125.1,156.9,124.2,158.5C124.2,158.5,124.2,158.5,124.2,158.5z
				 M131.3,163.3c0.1,0,0.1,0.1,0.2,0.1c0.5,0.1,1.1,0,1.6-0.2c0,0,0.1,0,0.1,0c-0.1-0.1-0.1-0.3-0.2-0.5c-0.1-0.4-0.2-0.9-0.1-1.3
				c0.1-0.5,0.2-1,0.5-1.5l0.4-0.7c0.3-0.6,0.7-1.3,1-1.9c0.8-1.5,1.4-2.7,2.1-3.9c0,0,0,0,0,0c-0.1,0-0.2,0-0.3,0l-0.4,0.6
				c-0.7,1.2-1.4,2.4-2.2,3.5c-0.3,0.5-0.6,0.8-1,1.1l0.3,0.5l-1.2,2.2c-0.2,0.4-0.4,0.7-0.6,1.1
				C131.2,162.8,131.2,163.1,131.3,163.3C131.3,163.3,131.3,163.3,131.3,163.3z M110.2,161.5l0.1,0.3c0.1,0.1,0.1,0.3,0.2,0.4
				c0.1,0.2,0.2,0.4,0.3,0.6c0.1,0.2,0.3,0.4,0.8,0.6c0.2,0.1,0.3,0.1,0.5,0.1c-0.3-0.3-0.5-0.7-0.6-1.2c-0.1-0.4-0.2-0.7-0.2-1.1
				c-0.1-1.2,0-2.2,0.3-3.1c0-0.1,0.1-0.2,0.1-0.3c-0.5,1.1-0.9,2.1-1.1,3C110.4,161.1,110.3,161.3,110.2,161.5z M156.8,159.9
				l-0.1,0.2c-0.2,0.3-0.3,0.6-0.4,0.9c-0.3,1-0.5,1.8-0.4,2.5c0,0.1,0,0.1,0,0.2l0-0.2l0.1-0.5c0-0.3,0.1-0.5,0.2-0.8
				c0.2-0.9,0.6-1.8,1.1-2.7c0.5-0.8,1-1.6,1.5-2.3c-0.1,0.1-0.2,0.1-0.3,0.2l-1.5,2.2c0,0.1-0.1,0.1-0.1,0.1L156.8,159.9
				C156.9,159.9,156.8,159.9,156.8,159.9z M102.1,162.6l0.1,1.3c0,0.1,0,0.1,0,0.2c0.1,0,0.2,0,0.3-0.1c0.3-0.1,0.6-0.3,0.9-0.5
				c0.1-0.1,0.3-0.2,0.4-0.3c-0.3-0.4-0.5-1-0.6-1.6c0-0.4,0-0.7,0.1-1C103,161.3,102.6,162,102.1,162.6z M93.6,161v1.2
				c0,0.5,0,1,0.1,1.3c0.1,0.4,0.2,0.7,0.3,1c0.1,0.2,0.2,0.3,0.4,0.3c0.1,0,0.2,0,0.3,0.1c-0.2-0.3-0.4-0.7-0.5-1.1
				c-0.1-0.5-0.1-0.9-0.1-1.4c0.1-1,0.3-2,0.7-2.9c0.3-0.8,0.7-1.6,1-2.3c-0.8,0.9-1.4,1.8-1.8,2.7C94,160.4,93.8,160.7,93.6,161z
				 M151.9,164.4l-0.1,0.1c-0.6,0.6-1.2,1.1-1.8,1.5c0.5-0.1,1-0.2,1.6-0.2c0.3,0,0.5,0,0.8,0C152.1,165.4,152,164.9,151.9,164.4z
				 M67.4,169.6c0.1,0,0.2,0,0.2,0.1c0.4,0,0.7,0,1.1-0.1c0.5-0.2,0.9-0.4,1.3-0.7c-0.4-0.4-0.6-0.8-0.7-1.3
				c-0.1-0.4-0.1-0.9-0.1-1.4c0.1-0.6,0.2-1.2,0.4-1.7c0.3-0.8,0.6-1.7,0.8-2.5l0.1-0.3c0.1-0.2,0.1-0.4,0.2-0.5
				c0.1-0.2,0.2-0.5,0.2-0.7c0-0.1,0.1-0.3-0.1-0.6c-0.1-0.3-0.3-0.5-0.6-0.7c-0.1-0.1-0.1-0.1-0.2-0.1l-1.1-0.8
				c-0.3,0.3-0.7,0.6-1,0.8c0.5,0.3,1,0.9,1.3,1.8c0.3,0.8,0.3,1.7,0,2.6c-0.2,0.7-0.5,1.3-0.7,2c-0.5,1.4-0.9,2.5-1.1,3.6
				c-0.1,0.3-0.1,0.4,0,0.6C67.4,169.5,67.4,169.6,67.4,169.6z M60.7,147.4c0.5,0.7,0.9,1.4,1.2,2.3c0.8,2.4,0.7,4.7-0.2,7
				c-0.3,0.8-0.6,1.5-1,2.2c-0.8,1.6-1.5,3.3-2.3,4.9c-1.2,2.5-2.3,5-3.3,7.2c-0.2,0.3-0.3,0.7-0.5,1c0.5-0.1,1.1-0.3,1.6-0.4
				c0.2-0.4,0.4-0.9,0.6-1.3l0.9-2.2c0.8-1.9,1.6-3.7,2.4-5.6c0.3-0.7,0.8-1.2,1.4-1.5c0.4-0.2,0.8-0.4,1.1-0.6
				c-0.1-0.1-0.1-0.1-0.2-0.2l-0.6-0.7l0.1-0.8c0-0.1,0-0.4,0.2-0.7c0.4-1,0.7-2,1-3c0.3-1,0.4-1.9,0.4-2.7c0-0.7-0.1-1.2-0.2-1.6
				c-0.1-0.6-0.4-1.1-0.8-1.8C62.1,148.2,61.5,147.7,60.7,147.4z M159.7,171.3C159.7,171.3,159.7,171.3,159.7,171.3
				c-0.4,0.6-0.8,1.2-1.2,1.7c0.1-0.1,0.2-0.2,0.3-0.4c0.4-0.5,0.8-1.1,1.1-1.5c0.1-0.1,0.1-0.2,0.2-0.3l1.2-1.7l3.6-5.6
				c0.3-0.4,0.5-0.8,0.8-1.2c0.3-0.4,0.5-0.8,0.8-1.2c0.3-0.4,0.5-0.8,0.8-1.2l0.1-0.1c0.2-0.4,0.5-0.7,0.7-1.1
				c0.2-0.3,0.4-0.5,0.6-0.8l0.8-1.2c-0.1,0-0.2,0-0.4-0.1c-0.2,0.2-0.3,0.3-0.4,0.4l-1.1,0.9c-0.1,0.4-0.2,0.8-0.4,1.2
				c-0.9,2.2-2.2,4.1-3.9,5.6L159.7,171.3L159.7,171.3z M76.1,167.1l0.1,0.8c0,0.4,0,0.9-0.2,1.3l-0.3,0.8c-0.6,1.3-1.1,2.6-1.7,3.9
				l-0.6,1.4c0.2,0,0.3-0.1,0.5-0.1l2.4-5.8c0.3-0.7,0.6-1.4,0.8-2c0.3-1,1-1.3,1.4-1.5l0.5-0.2c-0.1-0.5-0.1-0.9-0.1-1.5
				c0.1-0.8,0.3-1.7,0.6-2.5c0.6-1.8,1.5-3.5,2.6-5l0,0c-0.2,0-0.3,0.1-0.5,0.1l0,0c-0.3,0.7-0.6,1.3-0.9,2
				c-0.2,0.5-0.5,1.1-0.7,1.6c-0.3,0.8-0.7,1.5-1,2.3c-0.7,1.5-1.5,2.9-2.4,4.1C76.4,166.8,76.2,167,76.1,167.1z M66.5,180.7
				l3.1-7.1c-0.7,0.2-1.5,0.2-2.2,0.2c-0.4,0-0.9-0.1-1.3-0.3c-1.4-0.5-2.3-1.6-2.7-3.2c-0.2-0.7-0.1-1.5,0-2.3
				c0.3-1.2,0.6-2.4,1.2-3.9c-0.2,0.1-0.4,0.2-0.7,0.3c-0.7,1.7-4.6,10.7-4.6,10.7s-4.2,1-5.7,1.4l-6,1.4c0,0,3.3-7.5,3.8-8.7
				c0.9-1.9,1.9-4.2,2.9-6.5c-1.2,0.7-2.5,1.1-3.9,1.3c-1.2,0.2-2.4,0.1-3.6-0.2c-1.9-0.6-3.4-1.9-4.3-3.8c-0.4-0.9-0.6-1.9-0.7-3
				c-0.1-2.3,0.5-4.6,1.8-6.7c0.9-1.5,2.1-2.8,3.5-3.9c2.3-1.7,4.9-2.9,7.7-3.5c1.1-0.2,2.1-0.3,3.1-0.4l0.2,0
				c1.4,0,2.7,0.2,3.9,0.7c1.6,0.6,2.9,1.7,4,3.1c0.8,1.1,1.3,2.2,1.5,3.3c0.2,0.9,0.2,1.8,0.2,2.3c0,0.5,0,0.9-0.1,1.4
				c0.2-0.2,0.4-0.5,0.6-0.7c0.8-1,1.6-2,2.2-3.1c0.8-1.3,1.4-2.5,1.7-3.7c0.6-1.8,0.5-3.3,0.5-3.3l10.2-1.7c0,0-0.5,2-0.8,3.1
				c-0.2,1-0.5,2.1-1,3.3c-0.5,1.3-1,2.4-1.6,3.5c-1.1,2-2.5,3.7-4,5.2c-0.4,0.4-0.8,0.7-1.2,1.1c0.2,0.3,0.3,0.5,0.4,0.8
				c0.4,0.9,0.5,1.8,0.4,2.6c0.3-0.7,0.7-1.4,1-2.2c0.2-0.5,0.5-1.1,0.7-1.6c0.3-0.7,0.6-1.3,0.9-2l0.3-0.6c0-0.1,0.1-0.2,0.1-0.3
				l0.5-1l1-0.2c0.6-0.1,1.3-0.2,1.9-0.3c0,0,1-0.2,1.2-0.2c0.6-0.1,4-0.7,4.5-0.7c1.6-0.3,2.9,0,4.1,0.9c0.7,0.5,1.2,1.1,1.6,1.8
				c1.1-1.2,2.2-2.1,3.3-2.8c1.2-0.7,2.4-1.2,3.5-1.5c1.9-0.5,13.1-0.8,13.1-0.8l-0.6,1.6c1-0.7,2.1-1.2,3.3-1.5
				c1.3-0.3,2.5-0.5,3.8-0.4c0.6,0,1.3,0.2,1.9,0.4c1,0.4,1.8,1,2.3,1.9c0-0.1,0.1-0.2,0.1-0.2l0.2-0.3c0.1-0.1,0.2-0.3,0.2-0.4
				c0.1-0.1,0.1-0.2,0.2-0.3l0.7-1l1.1,0c0.4,0,0.7,0,1.1,0c1.5,0,2.9,0,4.2,0.1c0,0,6.1,0.2,6.4,0.2c0.4,0,0.9,0,1.3,0.1
				c0.4,0,0.8,0,1.2,0.1l3.2,0.1l-0.9,1.9c1-0.5,2.1-0.9,3.3-1.2c1-0.2,1.9-0.3,2.9-0.3c1.3,0,2.4,0.3,3.4,0.8
				c0.6,0.3,1.1,0.6,1.5,1c0.9,0.8,1.4,1.7,1.7,2.9c0.2-0.1,0.3-0.2,0.5-0.3c0.2-0.2,0.5-0.3,0.7-0.5c1.3-0.9,2.8-1.5,4.3-1.9
				c1.1-0.2,2.1-0.3,3.2-0.2c1.1,0.1,5.1,0.9,5.5,0.9l1.8,0.3c0.2,0,0.5,0.1,0.7,0.1c0.3,0,0.5,0.1,0.8,0.1l3.3,0.6l-1.5,2.5
				c-0.2,0.4-0.4,0.7-0.6,0.9c-0.1,0.1-0.2,0.2-0.3,0.4c-0.2,0.3-0.3,0.5-0.5,0.7l-1.3,1.9c-0.2,0.3-0.4,0.5-0.5,0.8
				c-0.2,0.3-0.5,0.7-0.7,1l-0.1,0.1c-0.3,0.4-0.5,0.8-0.8,1.2c-0.3,0.4-0.5,0.8-0.8,1.1c-0.3,0.4-0.5,0.8-0.8,1.2l0.5,1.8
				c0.1,0,0.3,0.1,0.6,0.2c1.5,0.8,3.1,1.5,4.6,2.3l0.6,0.3l0.3,0.6l2.5-0.1c0,0-1.1,1.7-3.6,3.1c-0.7,0.4-1.6,0.8-2.6,1
				c-1.3,0.4-2.7,0.5-4.1,0.4c-1.6-0.1-3.1-0.5-4.4-1c0,0,0,0,0,0c-0.2,0.3-0.5,0.6-0.8,0.9c-1.7,2-3.9,3.2-6.4,3.7
				c-1.3,0.2-2.6,0.3-3.8,0.2c-0.6-0.1-1.5-0.2-2.4-0.4c-0.9-0.3-1.7-0.6-2.4-1.1c-1.6-1-2.5-2.6-2.7-4.5c-0.1-0.8,0-1.7,0.3-2.6
				c0.4-1.3,1.2-2.4,2.3-3.2c-0.1,0-0.3,0.1-0.4,0.1c-0.9,0.2-1.9,0.3-2.8,0.3h-0.1c-1.1,0-2-0.2-2.9-0.5c-1.3-0.4-2.3-1.2-3.1-2.2
				c-0.3,0.2-0.6,0.5-0.9,0.7c-0.8,0.5-1.4,0.9-2.1,1.1c-1.2,0.5-2.5,0.7-3.8,0.5c-0.6-0.1-1.2-0.3-1.7-0.6c-1.1-0.7-1.8-1.7-2-3
				c0-0.3-0.1-0.5-0.1-0.8c-0.3,0.5-0.5,1-0.8,1.5l-0.2,0.5c-0.1,0.3-0.3,0.5-0.4,0.8c-0.4,0.8-1.2,1.3-2.1,1.3l-1.2,0
				c-0.7,0-1.4,0-2.1,0c-0.3,0-0.5,0-0.8,0l-0.6,0c-0.1,0-0.2,0-0.2,0l-1.4,0l-0.3-0.7c-0.7,0.3-1.4,0.6-2.1,0.7
				c-1.5,0.4-3.1,0.3-4.6-0.2c-1.1-0.4-1.9-0.9-2.5-1.7c-0.6,0.5-1.3,0.9-1.9,1.4c-0.5,0.4-1.1,0.7-1.9,1c-0.6,0.2-1.2,0.3-1.7,0.3
				h-0.1c-0.6,0-1.1-0.1-1.7-0.4c-0.3-0.1-0.6-0.3-0.9-0.5c-0.9,0.7-1.7,1.1-2.7,1.4c-1.1,0.3-2.3,0.3-3.4,0
				c-1.3-0.3-2.3-1.1-2.9-2.2c-0.1-0.1-0.2-0.3-0.2-0.4c-0.7,0.8-1.3,1.5-2,2c-1.3,1.1-2.8,1.9-4.4,2.3c-0.9,0.2-1.9,0.3-2.8,0.2
				c-0.3,0-0.6-0.1-0.8-0.1c-0.1,0.1-0.1,0.3-0.2,0.4l-3.3,7.9L66.5,180.7z"></path>
			<path class="st1" d="M199.4,163.5c0-0.1,0-0.1,0-0.2c0-0.4-0.3-0.7-0.7-0.8c-0.1,0-0.3,0-0.4,0c-0.3,0-0.6,0.1-0.9,0.2
				c-0.6,0.2-1.2,0.6-1.7,0.9c-1.4,1-2.5,2.3-3.4,3.8c-0.3,0.5-0.5,1-0.7,1.5c-0.1,0.3-0.1,0.6-0.1,0.9c0,0.4,0.3,0.8,0.8,0.9
				c0.3,0.1,0.7,0,1,0c0.6-0.2,1.2-0.5,1.8-0.8c1.2-0.8,2.2-1.7,3-2.9c0.5-0.8,1-1.6,1.3-2.5C199.3,164.2,199.4,163.9,199.4,163.5z
				 M174.3,166.1c0,0.1,0,0.1,0,0.2c0,0.5,0.4,0.9,0.9,0.9c0.3,0,0.5,0,0.8-0.1c0.4-0.1,0.7-0.3,1.1-0.5c0.7-0.4,1.3-0.9,1.8-1.4
				c1.1-1,1.9-2.2,2.5-3.6c0.3-0.6,0.5-1.3,0.6-2c0-0.2,0-0.5,0-0.7c-0.1-0.3-0.3-0.5-0.5-0.5c-0.1,0-0.3-0.1-0.4-0.1
				c-0.2,0-0.4,0.1-0.7,0.1c-0.7,0.2-1.3,0.6-1.9,1c-1.2,0.9-2.1,2-2.9,3.2c-0.5,0.7-0.9,1.5-1.1,2.3
				C174.4,165.4,174.3,165.7,174.3,166.1z M183.6,158.3c0.2-0.3,0.4-0.5,0.6-0.8c0.5,0.1,1.1,0.2,1.6,0.3c0.5,0.1,1.1,0.2,1.6,0.4
				c0.5,0.1,1.1,0.2,1.6,0.4c0,0.1-0.1,0.2-0.2,0.3c-0.8,1-1.5,1.9-2.3,2.9c-1,1.3-2,2.7-3,4c-0.2,0.2-0.3,0.5-0.3,0.7
				c-0.1,0.5,0.2,1.1,0.9,1.1c0.3,0,0.5-0.1,0.8-0.1c0.7-0.2,1.4-0.6,1.9-1.1c0.4-0.4,0.8-0.9,1.2-1.4c0.8-1.2,1.7-2.4,2.6-3.5
				c0.5-0.6,1-1.2,1.4-1.8c0.1-0.1,0.2-0.3,0.4-0.4c0.1,0,0.3,0.1,0.4,0.1c1.2,0.3,2.5,0.6,3.7,1c0.3,0.1,0.6,0.1,0.8,0.2
				c0,0.2-0.3,0.4-0.3,0.6c0.1,0,0.3,0,0.4,0c0.3-0.1,0.6-0.1,0.9-0.2c2.4-0.2,4.2,1.3,4.5,3.4c0.2,1,0,1.9-0.3,2.8
				c-0.4,1.1-1,2-1.7,2.8c-1.3,1.5-2.8,2.5-4.6,3.2c-0.7,0.3-1.5,0.4-2.3,0.5c-0.6,0-1.2-0.1-1.8-0.2c-0.3-0.1-0.7-0.1-1-0.3
				c-0.9-0.3-1.7-0.9-2.1-1.8c-0.1,0-0.2,0.1-0.2,0.1c-0.6,0.9-1.3,1.8-1.9,2.7c-1,1.3-1.9,2.6-2.9,4c-0.1,0.1-0.1,0.1-0.2,0.2
				c-0.1,0-0.1,0-0.2,0c-1.5-0.3-3.1-0.6-4.6-0.9c-0.1,0-0.1,0-0.2-0.1c0.2-0.3,0.4-0.6,0.6-0.9c0.2-0.3,0.4-0.6,0.6-0.8
				c0.2-0.3,0.4-0.6,0.6-0.8c0.2-0.3,0.4-0.6,0.6-0.8c0.2-0.3,0.4-0.6,0.6-0.9c0.2-0.3,0.4-0.6,0.6-0.8c0.2-0.3,0.4-0.6,0.6-0.8
				c0.2-0.3,0.4-0.6,0.6-0.8c0.2-0.3,0.4-0.6,0.6-0.8c0.2-0.3,0.4-0.6,0.6-0.8c-0.1-0.1-0.2,0-0.2,0c-0.6,0.4-1.3,0.7-2,1.1
				c-0.5,0.2-1,0.5-1.5,0.6c-0.9,0.2-1.7,0.1-2.4-0.5c-0.7-0.6-1-1.3-0.9-2.2c0,0,0,0,0-0.1c-0.1,0-0.1,0.1-0.2,0.1
				c-0.8,0.7-1.7,1.2-2.7,1.5c-1.5,0.4-2.9,0-4.1-1.1c-0.4-0.3-0.6-0.7-0.8-1.1c-0.3-0.6-0.4-1.3-0.4-1.9c-0.1-1.1,0.1-2.2,0.6-3.3
				c0.5-1.1,1.1-2.1,1.9-2.9c0.7-0.7,1.5-1.2,2.3-1.7c0.7-0.4,1.4-0.7,2.2-0.9c1.2-0.3,2.4-0.3,3.6,0c0.2,0,0.3,0.1,0.5,0.1
				c1,0.2,1.8,0.7,2.5,1.5C183.5,158.2,183.6,158.2,183.6,158.3z"></path>
			<path class="st0" d="M183.8,161.4c-0.1,0.4-0.3,0.8-0.5,1.1c-0.1,0.3-0.2,0.5-0.4,0.8l0.1-0.1c0.7-0.9,1.3-1.8,2-2.7
				c0.2-0.2,0.4-0.5,0.5-0.7l-0.1,0c-0.1,0-0.2,0-0.3-0.1L183.8,161.4L183.8,161.4z M175.6,159.4c-0.7,0.4-1.3,0.9-1.8,1.3
				c-0.6,0.6-1.1,1.3-1.5,2.3c-0.3,0.8-0.5,1.6-0.4,2.4c0,0.4,0.1,0.8,0.3,1.2c0,0,0,0,0,0c0,0,0-0.1,0-0.1c0-0.1,0-0.2,0-0.3
				c0-0.7,0.2-1.3,0.3-1.8c0.3-0.9,0.7-1.8,1.4-2.8C174.4,160.8,175,160,175.6,159.4z M180.1,167.8c0,0.1,0,0.3,0,0.6
				c0,0.1,0,0.2,0.2,0.4c0.1,0.1,0.2,0.1,0.3,0.1c0.1,0,0.2,0,0.3,0c0.3-0.1,0.6-0.2,0.9-0.3c-0.5-0.7-0.7-1.6-0.5-2.4
				c0-0.2,0.1-0.4,0.2-0.5c-0.4,0.5-0.8,0.9-1.2,1.3c-0.1,0.1-0.2,0.1-0.2,0.2L180.1,167.8z M200.9,165.9c-0.3,0.7-0.7,1.5-1.3,2.3
				c-0.4,0.6-0.9,1.2-1.5,1.8c0.5-0.4,0.9-0.8,1.3-1.2c0.6-0.7,1.1-1.5,1.3-2.2C200.8,166.3,200.8,166.1,200.9,165.9z M182.5,176.2
				c0.2,0,0.4,0.1,0.5,0.1l0.2-0.2c0.7-1,1.4-1.9,2.1-2.9c0.4-0.5,0.8-1.1,1.2-1.6l0.7-1c0.6-1,1.5-1.1,1.9-1.1h0.2
				c0-0.4,0.1-0.7,0.2-1.1c0.2-0.6,0.5-1.3,0.9-1.9c1.1-1.8,2.4-3.3,4-4.4c0,0,0,0,0.1-0.1c-0.4-0.1-0.8-0.2-1.1-0.3
				c-0.3,0.4-0.6,0.8-0.9,1.1c-0.8,1-1.7,2.2-2.5,3.4c-0.5,0.7-1,1.2-1.5,1.7c-0.3,0.3-0.6,0.5-0.9,0.7l0.3,0.3l-4.3,6
				c-0.1,0.2-0.2,0.3-0.4,0.5c-0.1,0.2-0.2,0.3-0.3,0.5L182.5,176.2z M175.4,179l4-5.6c0.1-0.1,0.2-0.3,0.3-0.4c0,0,0.1-0.1,0.1-0.1
				c-0.8-0.1-1.6-0.5-2.2-1.1c-0.2-0.2-0.5-0.4-0.7-0.7c-0.4,0.2-0.9,0.3-1.3,0.4c-2.2,0.5-4.2,0-5.9-1.5c-0.6-0.5-1-1.1-1.3-1.9
				c-0.3-0.8-0.5-1.7-0.6-2.6c-0.1-1.4,0.2-2.9,0.7-4.2c0.6-1.4,1.4-2.6,2.3-3.6c0.8-0.8,1.7-1.4,2.8-2c0.9-0.5,1.8-0.9,2.7-1.1
				c1.5-0.4,3.1-0.4,4.7-0.1c0,0,6.5,1.5,7,1.6c0.2,0,0.3,0.1,0.5,0.1c0.4,0.1,4.6,1.1,4.6,1.1c0.1,0,2.9,0.7,4.1,1.1
				c0.2,0.1,0.4,0.1,0.6,0.2l1.7,0.4c3.6,0.9,5.1,2.2,5.6,5.1c0.2,1.2,0.1,2.5-0.4,3.8c-0.4,1.2-1.1,2.3-2.1,3.5
				c-1.4,1.7-3.3,3-5.5,3.8c-0.9,0.3-1.9,0.5-2.9,0.6c-0.9,0-1.7-0.1-2.3-0.2c-0.5-0.1-0.9-0.2-1.3-0.3c-0.5-0.2-0.9-0.4-1.3-0.6
				c-0.2,0.3-0.4,0.6-0.6,0.9c-0.7,1-1.4,1.9-2.2,2.9l-1.6,2.2L175.4,179z"></path>
			<path class="st1" d="M158,170.1c-0.1,0-0.1-0.1-0.2-0.1c-1.2-0.4-2.5-0.6-3.7-0.4c-0.8,0.1-1.5,0.3-2.1,0.7
				c-0.5,0.3-0.9,0.6-1.2,1c-0.6,0.8-0.8,1.8-0.7,2.8c0,0.3,0.2,0.7,0.4,1c0.2,0.3,0.5,0.5,0.8,0.6c0.3,0.1,0.6,0.1,0.9,0.1
				c0.7-0.1,1.3-0.3,1.8-0.8c0.4-0.3,0.7-0.6,1-1c1.1-1.2,2-2.5,2.9-3.8C158,170.2,158,170.1,158,170.1z M87.7,156.4
				c0-0.1,0-0.3-0.1-0.6c-0.1-0.4-0.3-0.6-0.7-0.5c-0.1,0-0.2,0-0.2,0c-0.2,0.1-0.5,0.2-0.7,0.3c-0.4,0.2-0.8,0.6-1.1,0.9
				c-0.4,0.4-0.7,0.8-1.1,1.3c-1,1.4-1.8,2.9-2.4,4.5c-0.2,0.7-0.4,1.4-0.5,2.1c0,0.3,0,0.6,0,0.9c0.1,0.4,0.4,0.6,0.9,0.6
				c0,0,0.1,0,0.1,0c0.4-0.1,0.7-0.3,1-0.5c0.5-0.4,1-0.8,1.4-1.3c1.4-1.6,2.4-3.5,3-5.6C87.6,157.9,87.6,157.2,87.7,156.4z
				 M103.2,154.6c0-0.1,0-0.4-0.1-0.6c-0.1-0.4-0.4-0.5-0.8-0.5c-0.2,0-0.4,0.1-0.5,0.2c-0.3,0.1-0.6,0.3-0.9,0.5
				c-0.8,0.6-1.5,1.4-2.1,2.2c-0.8,1.2-1.4,2.4-2,3.8c-0.3,0.8-0.5,1.5-0.6,2.3c0,0.3,0,0.5,0,0.7c0.1,0.3,0.2,0.5,0.4,0.6
				c0.1,0,0.2,0.1,0.3,0.1c0.4,0,0.7-0.1,1-0.3c0.4-0.2,0.7-0.5,1.1-0.8c0.5-0.5,0.9-0.9,1.3-1.5c1.2-1.5,2-3.2,2.5-5
				C103,155.8,103.1,155.3,103.2,154.6z M149.8,154.7c0-0.2,0-0.4-0.1-0.6c-0.1-0.2-0.2-0.3-0.4-0.4c-0.2-0.1-0.4-0.1-0.6-0.1
				c-0.2,0.1-0.4,0.1-0.6,0.2c-0.4,0.1-0.7,0.4-1.1,0.6c-0.7,0.5-1.3,1.1-1.9,1.8c-1,1.2-1.7,2.4-2.3,3.8c-0.2,0.5-0.3,0.9-0.4,1.4
				c-0.1,0.3-0.1,0.6,0,1c0.1,0.5,0.4,0.8,0.9,0.8c0.3,0,0.6-0.1,0.9-0.2c0.5-0.2,1-0.5,1.4-0.9c1.9-1.7,3.3-3.7,3.9-6.2
				C149.7,155.6,149.8,155.2,149.8,154.7z M158.1,163.5c0,0.2,0,0.3,0.1,0.5c0.1,0.3,0.3,0.5,0.6,0.7c0.2,0.1,0.5,0.1,0.7,0.1
				c0.4-0.1,0.7-0.2,1.1-0.4c0.5-0.3,0.9-0.6,1.3-0.9c1.6-1.4,2.7-3,3.5-5c0.2-0.6,0.4-1.1,0.4-1.7c0-0.2,0-0.4,0-0.7
				c-0.1-0.3-0.2-0.5-0.5-0.5c-0.2-0.1-0.4-0.1-0.6,0c-0.4,0.1-0.7,0.2-1,0.3c-0.6,0.3-1.1,0.6-1.5,1c-1.2,1-2.1,2.2-2.9,3.6
				c-0.4,0.7-0.7,1.4-0.9,2.2C158.2,163,158.1,163.3,158.1,163.5z M158.7,169c0.4-0.7,0.7-1.3,1.1-1.9c-0.1,0-0.2,0-0.2,0
				c-0.7,0.2-1.3,0.3-2,0.2c-0.5,0-0.9-0.1-1.3-0.3c-0.8-0.3-1.4-0.9-1.8-1.6c-0.3-0.5-0.5-1.1-0.5-1.7c-0.1-1.2,0.1-2.3,0.5-3.4
				c0.2-0.4,0.4-0.9,0.6-1.3c0.1-0.2,0.2-0.3,0.3-0.4c0.1-0.1,0.1-0.2,0.2-0.3c-1.2,0.3-1.5,0.2-2.2,0c0,0.1-0.1,0.2-0.1,0.3
				c-0.5,1.5-1.2,2.9-2.4,4c-0.2,0.2-0.3,0.3-0.5,0.5c-1.2,1.2-2.6,2-4.3,2.4c-0.8,0.2-1.6,0.3-2.4,0.3c-0.8,0-1.5-0.1-2.2-0.4
				c-1.5-0.5-2.4-1.5-2.8-3c0-0.2-0.1-0.3-0.1-0.5c0,0,0,0-0.1-0.1c-0.1,0.1-0.2,0.2-0.3,0.2c-0.8,0.7-1.6,1.4-2.6,2
				c-0.6,0.4-1.1,0.7-1.7,0.9c-0.9,0.4-1.8,0.5-2.7,0.3c-0.3,0-0.7-0.1-1-0.3c-0.6-0.3-0.9-0.8-1-1.5c-0.1-0.8,0.1-1.5,0.4-2.2
				c0.3-0.6,0.6-1.1,0.9-1.7c0.1-0.2,0.2-0.4,0.3-0.6c-0.1-0.1-0.1-0.1-0.2,0c-0.4,0.1-0.8,0.3-1.2,0.4c-0.5,0.2-1.1,0.3-1.7,0.3
				c-0.4,0-0.8-0.1-1.2-0.2c-0.1,0.1-0.2,0.2-0.2,0.3c-0.7,1.4-1.4,2.8-2.1,4.2c-0.2,0.3-0.3,0.7-0.5,1c-0.1,0.1-0.1,0.2-0.3,0.2
				c-0.1,0-0.2,0-0.3,0c-1,0-2,0-3,0c-0.5,0-0.9,0-1.4,0c-0.1,0-0.2,0-0.3,0c-0.1-0.1,0-0.2,0.1-0.3c0.5-0.9,1-1.9,1.4-2.8
				c0.1-0.1,0.1-0.2,0.2-0.4c-0.2,0.1-0.3,0.2-0.4,0.3c-0.6,0.6-1.3,1.1-2,1.6c-1.1,0.8-2.3,1.4-3.6,1.7c-1.1,0.3-2.3,0.3-3.4-0.1
				c-0.8-0.3-1.5-0.8-2-1.5c-0.2-0.4-0.4-0.8-0.5-1.1c0-0.1,0-0.1-0.1-0.2c-0.1,0.1-0.2,0.1-0.3,0.2c-1.1,0.9-2.2,1.8-3.4,2.6
				c-0.4,0.3-0.9,0.6-1.4,0.8c-0.3,0.1-0.7,0.2-1.1,0.2c-0.3,0-0.6-0.1-0.9-0.2c-0.6-0.3-0.9-0.7-1.1-1.3c0-0.3-0.1-0.5-0.1-0.8
				c-0.1,0-0.1,0.1-0.2,0.2c-0.4,0.6-1,1.2-1.6,1.6c-0.6,0.5-1.3,0.9-2,1.1c-0.8,0.2-1.6,0.2-2.4,0c-0.7-0.2-1.3-0.6-1.7-1.2
				c-0.3-0.5-0.5-1-0.6-1.6c-0.1-0.6-0.2-1.2-0.1-1.7c0-0.1,0-0.2,0-0.4c-0.1,0-0.1,0-0.2,0.1c-0.5,0.5-1,1-1.5,1.5
				c-0.1,0.1-0.2,0.2-0.3,0.4c-0.8,1.1-1.6,2.1-2.6,2.9c-1.1,0.9-2.2,1.5-3.6,1.8c-0.7,0.2-1.5,0.2-2.2,0.2c-0.3,0-0.6-0.1-1-0.2
				c-0.4-0.1-0.8-0.3-1-0.6c-0.1,0.1-0.1,0.2-0.2,0.3c-0.5,1.1-0.9,2.2-1.4,3.3c-0.7,1.7-1.4,3.5-2.2,5.2c-0.1,0.1-0.1,0.3-0.2,0.4
				c-0.9,0.2-1.8,0.3-2.6,0.5c-0.9,0.1-1.8,0.4-2.7,0.5c0-0.2,0-0.3,0.1-0.4c0.7-1.5,1.3-3,2-4.5c0.7-1.6,1.4-3.1,2-4.7
				c0-0.1,0.1-0.2,0.1-0.3c-0.1,0.1-0.2,0.2-0.3,0.3c-0.7,0.7-1.5,1.4-2.4,2c-0.6,0.4-1.3,0.8-2,1.1c-0.6,0.2-1.3,0.3-2,0.3
				c-0.3,0-0.5-0.1-0.8-0.2c-0.8-0.3-1.2-0.9-1.4-1.6c-0.1-0.5-0.1-1,0-1.4c0.3-1.3,0.7-2.6,1.2-3.9c0.2-0.6,0.5-1.3,0.7-1.9
				c0.1-0.4,0.2-0.8,0-1.2c-0.1-0.4-0.3-0.7-0.7-0.9c-0.1,0-0.2,0.1-0.2,0.1c-1.2,0.8-2.5,1.5-3.8,2.2c-0.2,0.1-0.4,0.3-0.5,0.5
				c-1.1,2.6-2.2,5.1-3.3,7.7c-0.3,0.7-0.6,1.4-0.9,2.2c-0.1,0.2-0.2,0.3-0.4,0.3c-2,0.5-4,1-5.9,1.5c-0.2,0-0.3,0.1-0.5,0.1
				c0-0.1,0-0.2,0.1-0.3c0.7-1.5,1.3-3,2-4.6c1.1-2.4,2.2-4.8,3.3-7.2c0.8-1.6,1.5-3.3,2.3-4.9c0.3-0.7,0.6-1.4,0.9-2.2
				c0.8-1.8,0.8-3.7,0.2-5.6c-0.2-0.6-0.5-1.2-0.9-1.8c-0.7-1-1.7-1.5-2.9-1.7c-1-0.1-2,0-3,0.4c-1.4,0.5-2.6,1.3-3.5,2.5
				c-0.7,0.8-1.2,1.8-1.5,2.8c-0.4,1.1-0.5,2.3-0.4,3.5c0.1,1.1,0.4,2.1,1,3c0.2,0.4,0.5,0.7,0.9,1c0.2,0.2,0.5,0.3,0.8,0.4
				c0.4,0.1,0.8,0.1,1.2-0.1c0.7-0.3,1.3-0.9,1.6-1.6c0.2-0.5,0.3-1,0.4-1.5c0.1-1.3-0.1-2.5-0.5-3.7c-0.3-1-0.7-2-1.1-2.9
				c0-0.1-0.1-0.1-0.1-0.2c0.1,0,0.2,0,0.2,0c1,0.2,2.1,0.5,3.1,0.8c0.6,0.2,1.3,0.3,1.9,0.5c0,0,0.1,0,0.2,0.1
				c0,0.1,0.1,0.2,0.1,0.3c0.1,0.8,0.2,1.7,0.1,2.5c-0.1,1.3-0.5,2.5-1.1,3.7c-0.6,1-1.3,1.8-2.3,2.4c-1.2,0.8-2.5,1.3-3.9,1.5
				c-0.9,0.1-1.8,0.1-2.6-0.2c-1.4-0.5-2.4-1.4-3-2.7c-0.3-0.7-0.5-1.5-0.5-2.3c-0.1-2,0.4-3.8,1.5-5.5c0.8-1.3,1.8-2.4,3-3.3
				c2-1.5,4.3-2.6,6.8-3.1c0.9-0.2,1.8-0.3,2.8-0.3c1.1,0,2.2,0.2,3.3,0.6c1.3,0.5,2.2,1.3,3,2.4c0.6,0.8,1,1.6,1.2,2.6
				c0.1,0.6,0.2,1.3,0.2,2c0,1.1-0.2,2.2-0.4,3.2c-0.3,1.1-0.6,2.2-1.1,3.3c0,0,0,0,0,0.1c0.1,0.1,0.1,0,0.2,0
				c2.2-1.1,4-2.7,5.6-4.6c0.9-1,1.7-2.1,2.4-3.3c0.8-1.3,1.5-2.7,2-4.2c0.2-0.7,0.4-1.3,0.4-2c0,0,0-0.1,0-0.2
				c0.6-0.1,1.2-0.2,1.8-0.3c0.6-0.1,1.2-0.2,1.8-0.3c0.6-0.1,1.2-0.2,1.8-0.3c0.1,0.1,0.1,0.2,0,0.2c-0.2,1-0.5,2-0.9,3
				c-0.4,1.1-0.9,2.2-1.5,3.2c-1,1.7-2.2,3.3-3.6,4.7c-0.8,0.8-1.7,1.5-2.6,2.2c-0.1,0.1-0.2,0.1-0.2,0.2c0.1,0.1,0.2,0.2,0.3,0.3
				c0.5,0.4,1,0.9,1.3,1.5c0.3,0.7,0.3,1.3,0.1,2c-0.1,0.4-0.3,0.8-0.4,1.3c-0.3,0.9-0.6,1.8-0.9,2.8c-0.1,0.4-0.2,0.9-0.3,1.3
				c0,0.2,0,0.4,0,0.7c0,0.1,0.1,0.3,0.2,0.4c0.3,0.2,0.6,0.3,0.9,0.2c0.2-0.1,0.4-0.2,0.6-0.4c0.6-0.5,1.2-1.1,1.7-1.8
				c0.9-1.1,1.6-2.4,2.2-3.7c0.6-1.3,1.2-2.6,1.7-3.8c0.4-0.9,0.8-1.7,1.2-2.6c0.1-0.1,0.1-0.2,0.2-0.4c0.8-0.2,1.6-0.3,2.4-0.4
				c0.8-0.1,1.6-0.3,2.4-0.4c0,0.1,0,0.1,0,0.2c-0.1,0.2-0.1,0.3-0.2,0.5c0,0.1,0,0.1-0.1,0.2c0.3-0.2,0.6-0.4,0.8-0.5
				c0.6-0.5,1.3-0.7,2.1-0.9c0.9-0.1,1.7-0.1,2.5,0.5c0.6,0.4,1,1,1.2,1.7c0.2,0.8,0.3,1.5,0.2,2.3c-0.1,0.7-0.2,1.5-0.5,2.2
				c0,0,0,0.1,0,0.1c0,0,0,0,0,0.1c0.1,0,0.1-0.1,0.2-0.1c0.1-0.1,0.1-0.1,0.2-0.2c0.4-0.3,0.6-0.6,0.8-1.1c0.5-1.3,1.3-2.4,2.2-3.4
				c0.9-1,1.8-1.8,2.9-2.5c0.9-0.5,1.8-1,2.9-1.2c0.6-0.1,1.2-0.2,1.8-0.2c0.9,0,1.6,0.3,2.2,0.9c0,0,0.1,0.1,0.1,0.1
				c0.3-0.4,0.4-0.8,0.6-1.2c0.5-0.1,4.4-0.4,4.8-0.3c0,0.1,0,0.1-0.1,0.2c-0.2,0.4-0.3,0.7-0.5,1.1c-0.9,1.8-1.8,3.7-2.6,5.6
				c-0.3,0.7-0.6,1.4-0.9,2c-0.1,0.2-0.2,0.4-0.2,0.6c0,0.2-0.1,0.3-0.1,0.5c0,0.5,0.3,0.7,0.8,0.6c0.1,0,0.2-0.1,0.3-0.1
				c0.2-0.1,0.4-0.2,0.6-0.4c0.4-0.3,0.7-0.6,1.1-0.9c0.1-0.1,0.2-0.2,0.2-0.3c0.3-1.3,0.8-2.6,1.4-3.8c0.4-0.8,0.9-1.5,1.4-2.1
				c1.3-1.5,2.9-2.6,4.8-3.1c1-0.3,2.1-0.4,3.2-0.3c0.4,0,0.8,0.1,1.2,0.3c1.1,0.4,1.7,1.2,1.8,2.4c0,0.2,0,0.4,0,0.7
				c0,0.2,0,0.4-0.1,0.6c-0.1,0.1-0.1,0.1-0.2,0.1c-1.3,0.7-2.6,1.4-3.9,2c-0.1,0.1-0.2,0.1-0.3,0.1c-0.1-0.1,0-0.2,0-0.2
				c0.2-0.4,0.4-0.8,0.5-1.3c0.2-0.6,0.4-1.2,0.5-1.9c0-0.2,0-0.5,0-0.7c-0.1-0.3-0.4-0.5-0.7-0.5c-0.3,0-0.6,0.2-0.8,0.3
				c-0.5,0.3-1,0.7-1.4,1.2c-0.8,0.9-1.4,1.9-1.9,3c-0.2,0.5-0.4,1-0.6,1.5c-0.3,0.8-0.3,1.5-0.2,2.3c0,0.2,0.1,0.4,0.1,0.6
				c0.2,0.6,0.6,1,1.4,1.1c0.5,0,0.9,0,1.4-0.2c0.6-0.2,1.2-0.5,1.8-0.8c1.3-0.8,2.5-1.7,3.5-2.9c0.3-0.4,0.6-0.8,0.9-1.3
				c1-1.8,2-3.6,3.1-5.4c0.1-0.2,0.3-0.5,0.4-0.7c0.1-0.1,0.1-0.2,0.2-0.3c1.7,0,3.4,0,5.2,0.1c0,0.1,0,0.1-0.1,0.2
				c-0.8,1.5-1.7,3-2.5,4.5c-0.3,0.5-0.6,1.1-0.9,1.6c0,0.1-0.1,0.2-0.1,0.3c0.2,0,0.3,0.1,0.5,0.1c1.2,0.1,2.3-0.2,3.3-0.8
				c0.3-0.2,0.5-0.4,0.7-0.7c0.9-1.6,1.9-3.1,2.8-4.7c0.1-0.2,0.2-0.3,0.3-0.5c0.8,0,1.6,0.1,2.4,0.1c0.8,0,1.6,0.1,2.4,0.1
				c-0.1,0.1-0.1,0.2-0.1,0.3c-0.3,0.5-0.6,1-0.8,1.5c-0.9,1.6-1.8,3.3-2.7,5c-0.5,0.9-0.9,1.7-1.4,2.6c-0.1,0.3-0.2,0.5-0.3,0.8
				c0,0.2,0,0.3,0,0.4c0.1,0.3,0.3,0.4,0.6,0.4c0.2,0,0.3-0.1,0.5-0.2c0.2-0.1,0.4-0.2,0.6-0.4c0.3-0.2,0.5-0.5,0.8-0.7
				c0.3-0.4,0.6-0.8,1-1.1c0.1-0.1,0.2-0.2,0.2-0.4c0.4-1.5,1.1-2.8,2.1-4c0.6-0.7,1.3-1.4,2.1-2c1.1-0.7,2.3-1.2,3.5-1.5
				c0.8-0.2,1.6-0.3,2.4-0.2c0.9,0,1.8,0.2,2.7,0.6c0.4,0.2,0.7,0.4,1,0.7c0.6,0.5,0.9,1.1,1.1,1.9c0.1,0.3,0.1,0.7,0.1,1
				c0,0.1,0,0.3,0,0.5c0.7,0.4,1.3,0.5,2.1,0.3c0.3-0.1,0.6-0.3,0.9-0.5c0.4-0.3,0.9-0.6,1.3-0.9c1.1-0.8,2.3-1.3,3.6-1.5
				c0.9-0.2,1.7-0.2,2.6-0.2c1,0.1,2,0.4,2.8,1.1c0.2,0.2,0.4,0.4,0.6,0.7c0,0,0.1-0.1,0.1-0.1c0.2-0.3,0.5-0.6,0.7-0.9
				c0.4,0,0.8,0.1,1.2,0.2c0.4,0.1,0.8,0.1,1.2,0.2c0.4,0.1,0.8,0.1,1.2,0.2c0.4,0.1,0.8,0.1,1.2,0.2c-0.3,0.4-0.6,0.8-0.8,1.2
				c-0.3,0.4-0.5,0.8-0.8,1.2c-0.3,0.4-0.5,0.8-0.8,1.1c-0.3,0.4-0.5,0.8-0.8,1.2c-0.3,0.4-0.5,0.8-0.8,1.2
				c-0.3,0.4-0.5,0.8-0.8,1.2c-0.3,0.4-0.5,0.8-0.8,1.2c-0.3,0.4-0.5,0.8-0.8,1.2c-0.3,0.4-0.5,0.8-0.8,1.2
				c-0.3,0.4-0.5,0.8-0.8,1.2c-0.2,0.4-0.5,0.8-0.7,1.2c-0.3,0.4-0.5,0.8-0.8,1.2c-0.3,0.4-0.5,0.8-0.8,1.2c0,0,0.1,0.1,0.1,0.1
				c0.8,0.3,1.6,0.4,2.5,0.4c1.1-0.1,2-0.5,2.8-1.3c0.1-0.1,0.1-0.1,0.2-0.2c0.1,0,0.1,0,0.2,0c1.5,0.8,3.1,1.5,4.6,2.3
				c0,0,0,0,0,0.1c-0.1,0.1-0.2,0.2-0.3,0.2c-0.7,0.4-1.4,0.7-2.2,0.9c-1.1,0.3-2.2,0.4-3.4,0.3c-1.3-0.1-2.6-0.4-3.9-0.8
				c-0.4-0.1-0.8-0.3-1.2-0.4c-0.1,0-0.2-0.1-0.4-0.1c-0.1,0.1-0.2,0.2-0.2,0.4c-0.4,0.6-0.8,1.2-1.3,1.7c-1.4,1.6-3.1,2.6-5.3,3
				c-1.1,0.2-2.2,0.3-3.3,0.2c-0.7-0.1-1.3-0.1-2-0.3c-0.6-0.2-1.3-0.4-1.8-0.8c-1.1-0.7-1.7-1.7-1.8-3c-0.1-0.6,0.1-1.2,0.2-1.8
				c0.5-1.5,1.5-2.5,3-3c0.7-0.2,1.4-0.4,2.1-0.4c0.7,0,1.4,0,2.1,0c1.3,0.1,2.5,0.3,3.7,0.7c0.3,0.1,0.7,0.2,1,0.3
				C158.6,168.9,158.6,168.9,158.7,169z"></path>
			<path class="st1" d="M199.4,163.5c0-0.1,0-0.1,0-0.2c0-0.4-0.3-0.7-0.7-0.8c-0.1,0-0.3,0-0.4,0c-0.3,0-0.6,0.1-0.9,0.2
				c-0.6,0.2-1.2,0.6-1.7,0.9c-1.4,1-2.5,2.3-3.4,3.8c-0.3,0.5-0.5,1-0.7,1.5c-0.1,0.3-0.1,0.6-0.1,0.9c0,0.4,0.3,0.8,0.8,0.9
				c0.3,0.1,0.7,0,1,0c0.6-0.2,1.2-0.5,1.8-0.8c1.2-0.8,2.2-1.7,3-2.9c0.5-0.8,1-1.6,1.3-2.5C199.3,164.2,199.4,163.9,199.4,163.5z
				 M174.3,166.1c0,0.1,0,0.1,0,0.2c0,0.5,0.4,0.9,0.9,0.9c0.3,0,0.5,0,0.8-0.1c0.4-0.1,0.7-0.3,1.1-0.5c0.7-0.4,1.3-0.9,1.8-1.4
				c1.1-1,1.9-2.2,2.5-3.6c0.3-0.6,0.5-1.3,0.6-2c0-0.2,0-0.5,0-0.7c-0.1-0.3-0.3-0.5-0.5-0.5c-0.1,0-0.3-0.1-0.4-0.1
				c-0.2,0-0.4,0.1-0.7,0.1c-0.7,0.2-1.3,0.6-1.9,1c-1.2,0.9-2.1,2-2.9,3.2c-0.5,0.7-0.9,1.5-1.1,2.3
				C174.4,165.4,174.3,165.7,174.3,166.1z M183.6,158.3c0.2-0.3,0.4-0.5,0.6-0.8c0.5,0.1,1.1,0.2,1.6,0.3c0.5,0.1,1.1,0.2,1.6,0.4
				c0.5,0.1,1.1,0.2,1.6,0.4c0,0.1-0.1,0.2-0.2,0.3c-0.8,1-1.5,1.9-2.3,2.9c-1,1.3-2,2.7-3,4c-0.2,0.2-0.3,0.5-0.3,0.7
				c-0.1,0.5,0.2,1.1,0.9,1.1c0.3,0,0.5-0.1,0.8-0.1c0.7-0.2,1.4-0.6,1.9-1.1c0.4-0.4,0.8-0.9,1.2-1.4c0.8-1.2,1.7-2.4,2.6-3.5
				c0.5-0.6,1-1.2,1.4-1.8c0.1-0.1,0.2-0.3,0.4-0.4c0.1,0,0.3,0.1,0.4,0.1c1.2,0.3,2.5,0.6,3.7,1c0.3,0.1,0.6,0.1,0.8,0.2
				c0,0.2-0.3,0.4-0.3,0.6c0.1,0,0.3,0,0.4,0c0.3-0.1,0.6-0.1,0.9-0.2c2.4-0.2,4.2,1.3,4.5,3.4c0.2,1,0,1.9-0.3,2.8
				c-0.4,1.1-1,2-1.7,2.8c-1.3,1.5-2.8,2.5-4.6,3.2c-0.7,0.3-1.5,0.4-2.3,0.5c-0.6,0-1.2-0.1-1.8-0.2c-0.3-0.1-0.7-0.1-1-0.3
				c-0.9-0.3-1.7-0.9-2.1-1.8c-0.1,0-0.2,0.1-0.2,0.1c-0.6,0.9-1.3,1.8-1.9,2.7c-1,1.3-1.9,2.6-2.9,4c-0.1,0.1-0.1,0.1-0.2,0.2
				c-0.1,0-0.1,0-0.2,0c-1.5-0.3-3.1-0.6-4.6-0.9c-0.1,0-0.1,0-0.2-0.1c0.2-0.3,0.4-0.6,0.6-0.9c0.2-0.3,0.4-0.6,0.6-0.8
				c0.2-0.3,0.4-0.6,0.6-0.8c0.2-0.3,0.4-0.6,0.6-0.8c0.2-0.3,0.4-0.6,0.6-0.9c0.2-0.3,0.4-0.6,0.6-0.8c0.2-0.3,0.4-0.6,0.6-0.8
				c0.2-0.3,0.4-0.6,0.6-0.8c0.2-0.3,0.4-0.6,0.6-0.8c0.2-0.3,0.4-0.6,0.6-0.8c-0.1-0.1-0.2,0-0.2,0c-0.6,0.4-1.3,0.7-2,1.1
				c-0.5,0.2-1,0.5-1.5,0.6c-0.9,0.2-1.7,0.1-2.4-0.5c-0.7-0.6-1-1.3-0.9-2.2c0,0,0,0,0-0.1c-0.1,0-0.1,0.1-0.2,0.1
				c-0.8,0.7-1.7,1.2-2.7,1.5c-1.5,0.4-2.9,0-4.1-1.1c-0.4-0.3-0.6-0.7-0.8-1.1c-0.3-0.6-0.4-1.3-0.4-1.9c-0.1-1.1,0.1-2.2,0.6-3.3
				c0.5-1.1,1.1-2.1,1.9-2.9c0.7-0.7,1.5-1.2,2.3-1.7c0.7-0.4,1.4-0.7,2.2-0.9c1.2-0.3,2.4-0.3,3.6,0c0.2,0,0.3,0.1,0.5,0.1
				c1,0.2,1.8,0.7,2.5,1.5C183.5,158.2,183.6,158.2,183.6,158.3z"></path>
		</g>
	</g>
</g>
</svg>