<?xml version="1.0" encoding="UTF-8"?>
<!-- Generator: Adobe Illustrator 15.0.0, SVG Export Plug-In . SVG Version: 6.00 Build 0)  -->
<!DOCTYPE svg PUBLIC "-//W3C//DTD SVG 1.1//EN" "http://www.w3.org/Graphics/SVG/1.1/DTD/svg11.dtd">
<svg xmlns="http://www.w3.org/2000/svg" xmlns:xlink="http://www.w3.org/1999/xlink" width="90px" height="180px">
<g>
	<path fill-rule="evenodd" clip-rule="evenodd" fill="#5A84B8" d="M2.351,43.892c0-10.311,3.877-19.673,10.27-26.726   c1.855,1.072,3.794,1.938,5.939,2.805c4.702,1.897,5.444,5.733,5.897,7.094c1.196,3.217,4.331,7.671,2.97,13.281   c-1.32,5.444-1.732,9.98-1.897,13.28c0.371-3.341,1.072-7.96,2.846-13.569c1.691-5.485-1.155-10.146-2.104-13.445   c-0.371-1.402-0.825-5.238-5.403-7.465c-2.434-1.155-4.578-2.31-6.558-3.753C21.488,8.34,31.345,3.968,42.234,3.968   c6.888,0,13.404,1.773,19.055,4.866c-0.371,0.495-0.742,0.908-1.031,1.196c-0.701,0.619-2.434,1.732-4.784,1.815   c-0.742,0-1.526-0.083-2.269-0.66c0,0.289,0.083,0.619,0.33,0.866c0.701,0.701,1.443,0.866,2.186,0.949   c2.352,0.206,4.207-0.702,4.991-1.237c0.577-0.413,1.36-1.155,2.104-2.063c7.465,4.496,13.321,11.342,16.58,19.591   c-6.394,1.897-12.415,3.258-16.127,4.372c-7.713,2.31-14.93,8.414-19.343,12.579c-2.392,2.228-6.063,4.372-9.156,7.919   c-2.104,2.392-3.506,4.248-4.826,6.517c1.237-1.856,2.599-3.506,4.455-5.527c3.258-3.464,6.929-5.485,9.404-7.671   c4.578-4,11.919-9.898,19.673-12.001c3.877-0.99,10.104-2.228,16.704-4.001c1.278,3.918,1.938,8.084,1.938,12.415   c0,19.343-13.775,35.47-32.047,39.099c0.701-4.537-2.021-8.455-6.228-8.95c-4.331-0.495-8.62,2.929-9.527,7.671   c-0.083,0.413-0.165,0.825-0.165,1.237C16.003,79.197,2.351,63.111,2.351,43.892L2.351,43.892z"/>
	<path fill-rule="evenodd" clip-rule="evenodd" fill="#5A84B8" d="M2.351,43.892c0-10.311,3.877-19.673,10.27-26.726   c1.855,1.072,3.794,1.938,5.939,2.805c4.702,1.897,5.444,5.733,5.897,7.094c1.196,3.217,4.331,7.671,2.97,13.281   c-1.32,5.444-1.732,9.98-1.897,13.28c0.371-3.341,1.072-7.96,2.846-13.569c1.691-5.485-1.155-10.146-2.104-13.445   c-0.371-1.402-0.825-5.238-5.403-7.465c-2.434-1.155-4.578-2.31-6.558-3.753C21.488,8.34,31.345,3.968,42.234,3.968   c6.888,0,13.404,1.773,19.055,4.866c-0.371,0.495-0.742,0.908-1.031,1.196c-0.701,0.619-2.434,1.732-4.784,1.815   c-0.742,0-1.526-0.083-2.269-0.66c0,0.289,0.083,0.619,0.33,0.866c0.701,0.701,1.443,0.866,2.186,0.949   c2.352,0.206,4.207-0.702,4.991-1.237c0.577-0.413,1.36-1.155,2.104-2.063c7.465,4.496,13.321,11.342,16.58,19.591   c-6.394,1.897-12.415,3.258-16.127,4.372c-7.713,2.31-14.93,8.414-19.343,12.579c-2.392,2.228-6.063,4.372-9.156,7.919   c-2.104,2.392-3.506,4.248-4.826,6.517c1.237-1.856,2.599-3.506,4.455-5.527c3.258-3.464,6.929-5.485,9.404-7.671   c4.578-4,11.919-9.898,19.673-12.001c3.877-0.99,10.104-2.228,16.704-4.001c1.278,3.918,1.938,8.084,1.938,12.415   c0,19.343-13.775,35.47-32.047,39.099c0.701-4.537-2.021-8.455-6.228-8.95c-4.331-0.495-8.62,2.929-9.527,7.671   c-0.083,0.413-0.165,0.825-0.165,1.237C16.003,79.197,2.351,63.111,2.351,43.892L2.351,43.892z"/>
	<path fill-rule="evenodd" clip-rule="evenodd" fill="#688EBE" d="M61.387,78.874c-3.513,1.839-7.309,3.21-11.305,4.027   c0.652-4.499-2.062-8.369-6.24-8.86c-4.331-0.495-8.62,2.929-9.527,7.671c-0.083,0.413-0.165,0.825-0.165,1.237   C16.003,79.197,2.351,63.111,2.351,43.892c0-10.311,3.877-19.673,10.27-26.726c1.855,1.072,3.794,1.938,5.939,2.805   c4.702,1.897,5.444,5.733,5.897,7.094c1.196,3.217,4.331,7.671,2.97,13.281c-1.32,5.444-1.732,9.98-1.897,13.28   c0.371-3.341,1.072-7.96,2.846-13.569c1.691-5.485-1.155-10.146-2.104-13.445c-0.371-1.402-0.825-5.238-5.403-7.465   c-2.434-1.155-4.578-2.31-6.558-3.753C21.488,8.34,31.345,3.968,42.234,3.968c6.888,0,13.404,1.773,19.055,4.866   c-0.371,0.495-0.742,0.908-1.031,1.196c-0.701,0.619-2.434,1.732-4.784,1.815c-0.742,0-1.526-0.083-2.269-0.66   c0,0.289,0.083,0.619,0.33,0.866c0.701,0.701,1.443,0.866,2.186,0.949c2.352,0.206,4.207-0.702,4.991-1.237   c0.577-0.413,1.36-1.155,2.104-2.063c7.465,4.496,13.321,11.342,16.58,19.591c-6.394,1.897-12.415,3.258-16.127,4.372   c-7.713,2.31-14.93,8.414-19.343,12.579c-2.392,2.228-6.063,4.372-9.156,7.919c-2.104,2.392-3.506,4.248-4.826,6.517   c1.237-1.856,2.599-3.506,4.455-5.527c3.258-3.464,6.929-5.485,9.404-7.671c4.578-4,11.919-9.898,19.673-12.001   c3.877-0.99,10.104-2.228,16.704-4.001c1.278,3.918,1.938,8.084,1.938,12.415C82.117,58.976,73.74,72.103,61.387,78.874   L61.387,78.874z"/>
	<path fill-rule="evenodd" clip-rule="evenodd" fill="#7697C2" d="M79.244,58.773c-5.545,11.538-16.225,20.149-29.064,22.883   c0.034-3.949-2.549-7.17-6.337-7.616c-4.331-0.495-8.62,2.929-9.527,7.671c-0.017,0.085-0.035,0.171-0.051,0.257   c-6.461-1.111-12.416-3.702-17.505-7.411C7.957,67.237,2.351,56.208,2.351,43.892c0-10.311,3.877-19.673,10.27-26.726   c1.855,1.072,3.794,1.938,5.939,2.805c4.702,1.897,5.444,5.733,5.897,7.094c1.196,3.217,4.331,7.671,2.97,13.281   c-1.32,5.444-1.732,9.98-1.897,13.28c0.371-3.341,1.072-7.96,2.846-13.569c1.691-5.485-1.155-10.146-2.104-13.445   c-0.371-1.402-0.825-5.238-5.403-7.465c-2.434-1.155-4.578-2.31-6.558-3.753C21.488,8.34,31.345,3.968,42.234,3.968   c6.888,0,13.404,1.773,19.055,4.866c-0.371,0.495-0.742,0.908-1.031,1.196c-0.701,0.619-2.434,1.732-4.784,1.815   c-0.742,0-1.526-0.083-2.269-0.66c0,0.289,0.083,0.619,0.33,0.866c0.701,0.701,1.443,0.866,2.186,0.949   c2.352,0.206,4.207-0.702,4.991-1.237c0.577-0.413,1.36-1.155,2.104-2.063c7.465,4.496,13.321,11.342,16.58,19.591   c-6.394,1.897-12.415,3.258-16.127,4.372c-7.713,2.31-14.93,8.414-19.343,12.579c-2.392,2.228-6.063,4.372-9.156,7.919   c-2.104,2.392-3.506,4.248-4.826,6.517c1.237-1.856,2.599-3.506,4.455-5.527c3.258-3.464,6.929-5.485,9.404-7.671   c4.578-4,11.919-9.898,19.673-12.001c3.877-0.99,10.104-2.228,16.704-4.001c1.278,3.918,1.938,8.084,1.938,12.415   C82.117,49.153,81.095,54.175,79.244,58.773L79.244,58.773z"/>
	<path fill-rule="evenodd" clip-rule="evenodd" fill="#829FC7" d="M82.113,43.298c-1.168,18.337-14.479,33.404-32,37.2   c-0.427-3.405-2.86-6.056-6.271-6.457c-4.058-0.464-8.08,2.513-9.317,6.792c-11.857-2.036-21.976-9.208-27.977-19.139   c-2.685-5.361-4.197-11.408-4.197-17.802c0-10.311,3.877-19.673,10.27-26.726c1.855,1.072,3.794,1.938,5.939,2.805   c4.702,1.897,5.444,5.733,5.897,7.094c1.196,3.217,4.331,7.671,2.97,13.281c-1.32,5.444-1.732,9.98-1.897,13.28   c0.371-3.341,1.072-7.96,2.846-13.569c1.691-5.485-1.155-10.146-2.104-13.445c-0.371-1.402-0.825-5.238-5.403-7.465   c-2.434-1.155-4.578-2.31-6.558-3.753C21.488,8.34,31.345,3.968,42.234,3.968c6.888,0,13.404,1.773,19.055,4.866   c-0.371,0.495-0.742,0.908-1.031,1.196c-0.701,0.619-2.434,1.732-4.784,1.815c-0.742,0-1.526-0.083-2.269-0.66   c0,0.289,0.083,0.619,0.33,0.866c0.701,0.701,1.443,0.866,2.186,0.949c2.352,0.206,4.207-0.702,4.991-1.237   c0.577-0.413,1.36-1.155,2.104-2.063c7.465,4.496,13.321,11.342,16.58,19.591c-6.394,1.897-12.415,3.258-16.127,4.372   c-7.713,2.31-14.93,8.414-19.343,12.579c-2.392,2.228-6.063,4.372-9.156,7.919c-2.104,2.392-3.506,4.248-4.826,6.517   c1.237-1.856,2.599-3.506,4.455-5.527c3.258-3.464,6.929-5.485,9.404-7.671c4.578-4,11.919-9.898,19.673-12.001   c3.877-0.99,10.104-2.228,16.704-4.001C81.398,35.216,82.055,39.181,82.113,43.298L82.113,43.298z"/>
	<path fill-rule="evenodd" clip-rule="evenodd" fill="#8FA9CB" d="M81.003,40.716c0,18.926-13.315,34.777-31.114,38.647   c-0.771-2.846-3.026-4.967-6.047-5.322c-3.698-0.422-7.366,2.013-8.923,5.687C18.547,76.999,5.554,64.188,2.554,47.909   c-0.133-1.321-0.203-2.661-0.203-4.017c0-10.311,3.877-19.673,10.27-26.726c1.855,1.072,3.794,1.938,5.939,2.805   c4.702,1.897,5.444,5.733,5.897,7.094c1.196,3.217,4.331,7.671,2.97,13.281c-1.32,5.444-1.732,9.98-1.897,13.28   c0.371-3.341,1.072-7.96,2.846-13.569c1.691-5.485-1.155-10.146-2.104-13.445c-0.371-1.402-0.825-5.238-5.403-7.465   c-2.434-1.155-4.578-2.31-6.558-3.753C21.488,8.34,31.345,3.968,42.234,3.968c6.888,0,13.404,1.773,19.055,4.866   c-0.371,0.495-0.742,0.908-1.031,1.196c-0.701,0.619-2.434,1.732-4.784,1.815c-0.742,0-1.526-0.083-2.269-0.66   c0,0.289,0.083,0.619,0.33,0.866c0.701,0.701,1.443,0.866,2.186,0.949c2.352,0.206,4.207-0.702,4.991-1.237   c0.577-0.413,1.36-1.155,2.104-2.063c7.253,4.368,12.986,10.956,16.295,18.892c0.077,0.238,0.151,0.478,0.224,0.718   c-6.37,1.888-12.365,3.244-16.065,4.354c-7.713,2.31-14.93,8.414-19.343,12.579c-2.392,2.228-6.063,4.372-9.156,7.919   c-2.104,2.392-3.506,4.248-4.826,6.517c1.237-1.856,2.599-3.506,4.455-5.527c3.258-3.464,6.929-5.485,9.404-7.671   c4.578-4,11.919-9.898,19.673-12.001c3.829-0.978,9.951-2.196,16.459-3.935C80.632,34.487,81.003,37.558,81.003,40.716   L81.003,40.716z"/>
	<path fill-rule="evenodd" clip-rule="evenodd" fill="#9AB0CF" d="M79.848,40.675c0,18.443-13.019,33.856-30.362,37.553   c-1.007-2.263-3.041-3.88-5.644-4.187c-3.309-0.378-6.593,1.532-8.364,4.569C17.12,75.739,3.093,59.843,3.093,40.675   c0-2.686,0.276-5.306,0.801-7.837c1.693-5.909,4.715-11.246,8.727-15.672c1.855,1.072,3.794,1.938,5.939,2.805   c4.702,1.897,5.444,5.733,5.897,7.094c1.196,3.217,4.331,7.671,2.97,13.281c-1.32,5.444-1.732,9.98-1.897,13.28   c0.371-3.341,1.072-7.96,2.846-13.569c1.691-5.485-1.155-10.146-2.104-13.445c-0.371-1.402-0.825-5.238-5.403-7.465   c-2.434-1.155-4.578-2.31-6.558-3.753C21.488,8.34,31.345,3.968,42.234,3.968c6.888,0,13.404,1.773,19.055,4.866   c-0.371,0.495-0.742,0.908-1.031,1.196c-0.701,0.619-2.434,1.732-4.784,1.815c-0.742,0-1.526-0.083-2.269-0.66   c0,0.289,0.083,0.619,0.33,0.866c0.701,0.701,1.443,0.866,2.186,0.949c2.352,0.206,4.207-0.702,4.991-1.237   c0.577-0.413,1.36-1.155,2.104-2.063c3.171,1.91,6.051,4.244,8.565,6.93c3.063,3.806,5.412,8.207,6.852,13.002   c-5.954,1.721-11.478,2.985-14.964,4.031c-7.713,2.31-14.93,8.414-19.343,12.579c-2.392,2.228-6.063,4.372-9.156,7.919   c-2.104,2.392-3.506,4.248-4.826,6.517c1.237-1.856,2.599-3.506,4.455-5.527c3.258-3.464,6.929-5.485,9.404-7.671   c4.578-4,11.919-9.898,19.673-12.001c3.61-0.922,9.26-2.058,15.349-3.643C79.493,34.674,79.848,37.633,79.848,40.675L79.848,40.675   z"/>
	<path fill-rule="evenodd" clip-rule="evenodd" fill="#A5B8D3" d="M78.611,40.675c0,17.98-12.77,32.99-29.729,36.451   c-1.115-1.676-2.882-2.831-5.039-3.084c-2.89-0.33-5.763,1.086-7.623,3.474C18.135,74.988,4.207,59.453,4.207,40.675   c0-8.706,2.994-16.714,8.008-23.053c0.134-0.153,0.27-0.305,0.406-0.456c1.855,1.072,3.794,1.938,5.939,2.805   c4.702,1.897,5.444,5.733,5.897,7.094c1.196,3.217,4.331,7.671,2.97,13.281c-1.32,5.444-1.732,9.98-1.897,13.28   c0.371-3.341,1.072-7.96,2.846-13.569c1.691-5.485-1.155-10.146-2.104-13.445c-0.371-1.402-0.825-5.238-5.403-7.465   c-2.434-1.155-4.578-2.31-6.558-3.753C21.488,8.34,31.345,3.968,42.234,3.968c4.685,0,9.196,0.821,13.381,2.318   c1.908,0.79,3.735,1.733,5.468,2.815c-0.301,0.377-0.59,0.693-0.825,0.929c-0.701,0.619-2.434,1.732-4.784,1.815   c-0.742,0-1.526-0.083-2.269-0.66c0,0.289,0.083,0.619,0.33,0.866c0.701,0.701,1.443,0.866,2.186,0.949   c2.352,0.206,4.207-0.702,4.991-1.237c0.502-0.359,1.159-0.966,1.811-1.716c6.87,4.746,12.065,11.744,14.521,19.924   c-5.496,1.55-10.522,2.716-13.775,3.692c-7.713,2.31-14.93,8.414-19.343,12.579c-2.392,2.228-6.063,4.372-9.156,7.919   c-2.104,2.392-3.506,4.248-4.826,6.517c1.237-1.856,2.599-3.506,4.455-5.527c3.258-3.464,6.929-5.485,9.404-7.671   c4.578-4,11.919-9.898,19.673-12.001c3.373-0.861,8.524-1.91,14.151-3.335C78.269,34.883,78.611,37.739,78.611,40.675   L78.611,40.675z"/>
	<path fill-rule="evenodd" clip-rule="evenodd" fill="#ADC0D6" d="M77.456,40.675c0,17.62-12.701,32.289-29.43,35.397   c-1.081-1.099-2.515-1.834-4.184-2.031c-2.422-0.276-4.832,0.673-6.644,2.394C19.302,74.348,5.403,59.13,5.403,40.675   c0-8.713,3.099-16.706,8.253-22.935c1.542,0.818,3.154,1.524,4.904,2.231c4.702,1.897,5.444,5.733,5.897,7.094   c1.196,3.217,4.331,7.671,2.97,13.281c-1.32,5.444-1.732,9.98-1.897,13.28c0.371-3.341,1.072-7.96,2.846-13.569   c1.691-5.485-1.155-10.146-2.104-13.445c-0.371-1.402-0.825-5.238-5.403-7.465c-2.079-0.986-3.947-1.973-5.682-3.139   C21.755,9.028,31.075,4.669,41.409,4.669c6.916,0,13.381,1.954,18.874,5.336c-0.009,0.008-0.017,0.017-0.025,0.025   c-0.701,0.619-2.434,1.732-4.784,1.815c-0.742,0-1.526-0.083-2.269-0.66c0,0.289,0.083,0.619,0.33,0.866   c0.701,0.701,1.443,0.866,2.186,0.949c2.352,0.206,4.207-0.702,4.991-1.237c0.287-0.206,0.626-0.493,0.985-0.842   c6.729,4.589,11.824,11.395,14.229,19.362c-5.056,1.396-9.627,2.471-12.658,3.38c-7.713,2.31-14.93,8.414-19.343,12.579   c-2.392,2.228-6.063,4.372-9.156,7.919c-2.104,2.392-3.506,4.248-4.826,6.517c1.237-1.856,2.599-3.506,4.455-5.527   c3.258-3.464,6.929-5.485,9.404-7.671c4.578-4,11.919-9.898,19.673-12.001c3.147-0.804,7.842-1.77,13.027-3.054   C77.125,35.074,77.456,37.836,77.456,40.675L77.456,40.675z"/>
	<path fill-rule="evenodd" clip-rule="evenodd" fill="#B6C6D9" d="M76.26,40.675c0,17.376-12.744,31.819-29.423,34.43   c-0.87-0.56-1.88-0.932-2.995-1.063c-1.882-0.215-3.756,0.311-5.348,1.362C20.638,73.918,6.599,58.913,6.599,40.675   c0-8.515,3.062-16.324,8.142-22.383c1.212,0.593,2.476,1.136,3.819,1.679c4.702,1.897,5.444,5.733,5.897,7.094   c1.196,3.217,4.331,7.671,2.97,13.281c-1.32,5.444-1.732,9.98-1.897,13.28c0.371-3.341,1.072-7.96,2.846-13.569   c1.691-5.485-1.155-10.146-2.104-13.445c-0.371-1.402-0.825-5.238-5.403-7.465c-1.682-0.798-3.225-1.596-4.671-2.489   c6.341-6.67,15.293-10.833,25.21-10.833c6.526,0,12.629,1.797,17.849,4.917c-0.896,0.525-2.199,1.049-3.784,1.105   c-0.742,0-1.526-0.083-2.269-0.66c0,0.289,0.083,0.619,0.33,0.866c0.701,0.701,1.443,0.866,2.186,0.949   c2.352,0.206,4.207-0.702,4.991-1.237c0.024-0.018,0.049-0.036,0.074-0.055c6.623,4.441,11.636,11.092,13.99,18.89   c-4.595,1.245-8.708,2.226-11.508,3.065c-7.713,2.31-14.93,8.414-19.343,12.579c-2.392,2.228-6.063,4.372-9.156,7.919   c-2.104,2.392-3.506,4.248-4.826,6.517c1.237-1.856,2.599-3.506,4.455-5.527c3.258-3.464,6.929-5.485,9.404-7.671   c4.578-4,11.919-9.898,19.673-12.001c2.91-0.743,7.146-1.626,11.868-2.77C75.942,35.268,76.26,37.935,76.26,40.675L76.26,40.675z"/>
	<path fill-rule="evenodd" clip-rule="evenodd" fill="#BDCBDB" d="M75.105,40.716c0,17.445-13.301,31.828-30.346,33.493   c-0.297-0.074-0.603-0.131-0.917-0.168c-1.079-0.123-2.155-0.003-3.178,0.32c-18.198-0.419-32.87-15.348-32.87-33.645   c0-8.36,3.05-16.001,8.092-21.884c0.859,0.391,1.747,0.764,2.673,1.138c4.702,1.897,5.444,5.733,5.897,7.094   c1.196,3.217,4.331,7.671,2.97,13.281c-1.32,5.444-1.732,9.98-1.897,13.28c0.371-3.341,1.072-7.96,2.846-13.569   c1.691-5.485-1.155-10.146-2.104-13.445c-0.371-1.402-0.825-5.238-5.403-7.465c-1.268-0.602-2.457-1.203-3.585-1.845   c6.122-6.315,14.692-10.24,24.166-10.24c5.991,0,11.612,1.564,16.482,4.303c-0.708,0.258-1.535,0.449-2.459,0.482   c-0.742,0-1.526-0.083-2.269-0.66c0,0.289,0.083,0.619,0.33,0.866c0.701,0.701,1.443,0.866,2.186,0.949   c1.573,0.138,2.924-0.222,3.881-0.637c6.654,4.266,11.702,10.811,14.051,18.537c-4.14,1.104-7.814,1.992-10.384,2.763   c-7.713,2.31-14.93,8.414-19.343,12.579c-2.392,2.228-6.063,4.372-9.156,7.919c-2.104,2.392-3.506,4.248-4.826,6.517   c1.237-1.856,2.599-3.506,4.455-5.527c3.258-3.464,6.929-5.485,9.404-7.671c4.578-4,11.919-9.898,19.673-12.001   c2.677-0.684,6.472-1.484,10.737-2.499C74.795,35.463,75.105,38.053,75.105,40.716L75.105,40.716z"/>
	<path fill-rule="evenodd" clip-rule="evenodd" fill="#C2D0DE" d="M73.951,40.716c0,17.941-14.56,32.459-32.5,32.459   c-17.9,0-32.459-14.518-32.459-32.459c0-8.187,3.032-15.668,8.029-21.384c0.502,0.215,1.015,0.427,1.54,0.639   c4.702,1.897,5.444,5.733,5.897,7.094c1.196,3.217,4.331,7.671,2.97,13.281c-1.32,5.444-1.732,9.98-1.897,13.28   c0.371-3.341,1.072-7.96,2.846-13.569c1.691-5.485-1.155-10.146-2.104-13.445c-0.371-1.402-0.825-5.238-5.403-7.465   c-0.872-0.414-1.707-0.827-2.511-1.254c5.889-5.971,14.065-9.675,23.091-9.675c5.331,0,10.362,1.286,14.802,3.563   c-0.251,0.034-0.511,0.057-0.779,0.066c-0.742,0-1.526-0.083-2.269-0.66c0,0.289,0.083,0.619,0.33,0.866   c0.701,0.701,1.443,0.866,2.186,0.949c0.893,0.078,1.712-0.003,2.43-0.165c6.815,4.092,12.008,10.612,14.381,18.361   c-3.68,0.968-6.928,1.766-9.263,2.466c-7.713,2.31-14.93,8.414-19.343,12.579c-2.392,2.228-6.063,4.372-9.156,7.919   c-2.104,2.392-3.506,4.248-4.826,6.517c1.237-1.856,2.599-3.506,4.455-5.527c3.258-3.464,6.929-5.485,9.404-7.671   c4.578-4,11.919-9.898,19.673-12.001c2.438-0.623,5.806-1.343,9.61-2.233C73.65,35.645,73.951,38.146,73.951,40.716L73.951,40.716z   "/>
	<path fill-rule="evenodd" clip-rule="evenodd" fill="#C6D4DF" d="M72.754,40.675c0,17.281-14.022,31.304-31.304,31.304   c-17.281,0-31.304-14.023-31.304-31.304c0-8.02,3.021-15.337,7.986-20.878c0.142,0.058,0.284,0.116,0.428,0.174   c4.702,1.897,5.444,5.733,5.897,7.094c1.196,3.217,4.331,7.671,2.97,13.281c-1.32,5.444-1.732,9.98-1.897,13.28   c0.371-3.341,1.072-7.96,2.846-13.569c1.691-5.485-1.155-10.146-2.104-13.445c-0.371-1.402-0.825-5.238-5.403-7.465   c-0.494-0.234-0.976-0.468-1.447-0.705c5.657-5.605,13.44-9.069,22.028-9.069c4.194,0,8.194,0.828,11.849,2.326   c0.053,0.127,0.129,0.249,0.235,0.355c0.701,0.701,1.443,0.866,2.186,0.949c0.139,0.012,0.275,0.021,0.41,0.025   c7.251,3.86,12.806,10.488,15.254,18.472c-3.207,0.835-6.027,1.54-8.116,2.167c-7.713,2.31-14.93,8.414-19.343,12.579   c-2.392,2.228-6.063,4.372-9.156,7.919c-2.104,2.392-3.506,4.248-4.826,6.517c1.237-1.856,2.599-3.506,4.455-5.527   c3.258-3.464,6.929-5.485,9.404-7.671c4.578-4,11.919-9.898,19.673-12.001c2.188-0.559,5.125-1.196,8.455-1.964   C72.468,35.814,72.754,38.211,72.754,40.675L72.754,40.675z"/>
	<path fill-rule="evenodd" clip-rule="evenodd" fill="#CBD8E1" d="M71.558,40.675c0,16.622-13.528,30.108-30.149,30.108   S11.301,57.296,11.301,40.675c0-7.865,3.021-15.026,7.963-20.391c4.073,1.979,4.763,5.49,5.193,6.78   c1.196,3.217,4.331,7.671,2.97,13.281c-1.32,5.444-1.732,9.98-1.897,13.28c0.371-3.341,1.072-7.96,2.846-13.569   c1.691-5.485-1.155-10.146-2.104-13.445c-0.371-1.402-0.825-5.238-5.403-7.465c-0.112-0.053-0.225-0.106-0.336-0.16   c5.414-5.212,12.771-8.419,20.875-8.419c13.532,0,25.013,8.94,28.813,21.231c-2.726,0.705-5.121,1.315-6.954,1.865   c-7.713,2.31-14.93,8.414-19.343,12.579c-2.392,2.228-6.063,4.372-9.156,7.919c-2.104,2.392-3.506,4.248-4.826,6.517   c1.237-1.856,2.599-3.506,4.455-5.527c3.258-3.464,6.929-5.485,9.404-7.671c4.578-4,11.919-9.898,19.673-12.001   c1.929-0.493,4.438-1.046,7.287-1.696C71.282,35.996,71.558,38.303,71.558,40.675L71.558,40.675z"/>
	<path fill-rule="evenodd" clip-rule="evenodd" fill="#CDDBE3" d="M70.362,40.675c0,15.961-12.95,28.953-28.953,28.953   c-15.961,0-28.912-12.992-28.912-28.953c0-7.654,2.979-14.615,7.84-19.789c3.129,2.024,3.731,5.011,4.121,6.178   c1.196,3.217,4.331,7.671,2.97,13.281c-1.32,5.444-1.732,9.98-1.897,13.28c0.371-3.341,1.072-7.96,2.846-13.569   c1.691-5.485-1.155-10.146-2.104-13.445c-0.349-1.317-0.771-4.781-4.615-7.042c5.169-4.84,12.115-7.805,19.751-7.805   c13.009,0,24,8.558,27.658,20.334c-2.248,0.581-4.229,1.096-5.799,1.566c-7.713,2.31-14.93,8.414-19.343,12.579   c-2.392,2.228-6.063,4.372-9.156,7.919c-2.104,2.392-3.506,4.248-4.826,6.517c1.237-1.856,2.599-3.506,4.455-5.527   c3.258-3.464,6.929-5.485,9.404-7.671c4.578-4,11.919-9.898,19.673-12.001c1.661-0.424,3.754-0.894,6.122-1.432   C70.096,36.176,70.362,38.395,70.362,40.675L70.362,40.675z"/>
	<path fill-rule="evenodd" clip-rule="evenodd" fill="#CDDBE3" d="M69.208,40.675c0,15.302-12.415,27.757-27.757,27.757   c-15.302,0-27.757-12.456-27.757-27.757c0-7.377,2.896-14.093,7.61-19.07c2.296,1.957,2.809,4.424,3.154,5.46   c1.196,3.217,4.331,7.671,2.97,13.281c-1.32,5.444-1.732,9.98-1.897,13.28c0.371-3.341,1.072-7.96,2.846-13.569   c1.691-5.485-1.155-10.146-2.104-13.445c-0.315-1.19-0.69-4.133-3.597-6.358c4.946-4.55,11.542-7.334,18.774-7.334   c12.45,0,22.97,8.202,26.496,19.47c-1.788,0.464-3.375,0.885-4.678,1.276c-7.713,2.31-14.93,8.414-19.343,12.579   c-2.392,2.228-6.063,4.372-9.156,7.919c-2.104,2.392-3.506,4.248-4.826,6.517c1.237-1.856,2.599-3.506,4.455-5.527   c3.258-3.464,6.929-5.485,9.404-7.671c4.578-4,11.919-9.898,19.673-12.001c1.393-0.355,3.088-0.743,4.995-1.176   C68.952,36.35,69.208,38.483,69.208,40.675L69.208,40.675z"/>
	<path fill-rule="evenodd" clip-rule="evenodd" d="M59.226,174.717c0,0.164-0.165,0.289-0.33,0.289   c-0.288,0-0.453-0.207-0.453-0.537c0-0.287,0.124-0.494,0.453-0.494c0.165,0,0.33,0.082,0.33,0.289h0.289   c-0.041-0.371-0.33-0.537-0.619-0.537c-0.453,0-0.742,0.33-0.742,0.742c0,0.455,0.289,0.785,0.742,0.785   c0.289,0,0.536-0.207,0.619-0.537H59.226L59.226,174.717z M57.577,174.469c0,0.701,0.577,1.279,1.278,1.279   s1.279-0.578,1.279-1.279s-0.578-1.277-1.279-1.277S57.577,173.768,57.577,174.469L57.577,174.469z M57.907,174.469   c0-0.576,0.412-1.031,0.948-1.031s0.949,0.455,0.949,1.031c0,0.619-0.413,1.031-0.949,1.031S57.907,175.088,57.907,174.469   L57.907,174.469z"/>
	<polygon fill-rule="evenodd" clip-rule="evenodd" points="62.196,175.708 62.567,175.708 62.567,173.233 62.237,173.233    61.66,173.727 61.825,173.975 62.196,173.645 62.196,175.708  "/>
	<path fill-rule="evenodd" clip-rule="evenodd" d="M63.474,175.667c0.124,0.041,0.372,0.082,0.536,0.082   c0.784,0,0.99-0.701,0.99-1.361c0-0.576-0.124-1.195-0.825-1.195c-0.453,0-0.783,0.33-0.783,0.824c0,0.453,0.247,0.783,0.742,0.783   c0.206,0,0.371-0.041,0.536-0.205v-0.041c0,0.494-0.247,0.906-0.701,0.906c-0.165,0-0.288-0.041-0.412-0.082L63.474,175.667   L63.474,175.667z M63.763,174.016c0-0.248,0.124-0.535,0.412-0.535c0.289,0,0.454,0.287,0.454,0.535   c0,0.289-0.165,0.494-0.454,0.494C63.887,174.51,63.763,174.264,63.763,174.016L63.763,174.016z"/>
	<path fill-rule="evenodd" clip-rule="evenodd" d="M65.455,175.667c0.082,0.041,0.329,0.082,0.494,0.082   c0.784,0,1.031-0.701,1.031-1.361c0-0.576-0.165-1.195-0.824-1.195c-0.454,0-0.825,0.33-0.825,0.824   c0,0.453,0.288,0.783,0.742,0.783c0.206,0,0.371-0.041,0.577-0.205v-0.041c0,0.494-0.247,0.906-0.701,0.906   c-0.165,0-0.33-0.041-0.453-0.082L65.455,175.667L65.455,175.667z M65.702,174.016c0-0.248,0.165-0.535,0.454-0.535   c0.288,0,0.453,0.287,0.453,0.535c0,0.289-0.165,0.494-0.495,0.494C65.867,174.51,65.702,174.264,65.702,174.016L65.702,174.016z"/>
	<path fill-rule="evenodd" clip-rule="evenodd" d="M68.382,174.881h-0.783l0.783-1.359l0,0V174.881L68.382,174.881z M68.382,175.708   h0.33v-0.537h0.33v-0.289h-0.33v-1.648h-0.495l-0.99,1.648v0.289h1.155V175.708L68.382,175.708z"/>
	<path fill-rule="evenodd" clip-rule="evenodd" d="M72.341,173.233H71.97v1.402c0,0.494-0.123,0.824-0.577,0.824   s-0.618-0.33-0.618-0.824v-1.402h-0.371v1.443c0,0.701,0.371,1.072,0.989,1.072c0.577,0,0.948-0.371,0.948-1.072V173.233   L72.341,173.233z"/>
	<polygon fill-rule="evenodd" clip-rule="evenodd" points="73.001,175.708 74.363,175.708 74.363,175.418 73.332,175.418    73.332,174.594 74.281,174.594 74.281,174.264 73.332,174.264 73.332,173.563 74.363,173.563 74.363,173.233 73.001,173.233    73.001,175.708  "/>
	<polygon fill-rule="evenodd" clip-rule="evenodd" points="74.899,175.708 75.27,175.708 75.27,174.594 76.177,174.594    76.177,174.264 75.27,174.264 75.27,173.563 76.218,173.563 76.218,173.233 74.899,173.233 74.899,175.708  "/>
	<path fill-rule="evenodd" clip-rule="evenodd" d="M76.301,175.708h0.371l0.248-0.619h1.195l0.289,0.619h0.371l-1.031-2.475h-0.371   L76.301,175.708L76.301,175.708z M78.034,174.799h-0.99l0.495-1.236L78.034,174.799L78.034,174.799z"/>
	<path fill-rule="evenodd" clip-rule="evenodd" d="M79.477,174.717h0.247v-1.236h0.454v-0.248h-1.155v0.248h0.454V174.717   L79.477,174.717z M80.508,174.717h0.289v-1.113l0,0l0.412,1.113h0.206l0.454-1.113l0,0v1.113h0.247v-1.484h-0.412l-0.372,1.031   l-0.371-1.031h-0.453V174.717L80.508,174.717z"/>
	<path fill-rule="evenodd" clip-rule="evenodd" d="M5.65,167.129c5.073-5.445,8.373-8.662,8.373-11.301   c0-2.641-2.475-4.578-6.187-4.578c-3.464,0-6.063,2.104-6.063,4.742c0,0.164,0,0.371,0.042,0.535l3.011,1.568   c-0.165-0.66-0.248-1.195-0.248-1.65c0-1.648,1.237-2.764,3.052-2.764c1.897,0,2.969,0.826,2.969,2.27   c0,2.227-3.753,6.434-10.6,13.322h15.508v-3.135C13.734,166.84,10.435,167.129,5.65,167.129L5.65,167.129z"/>
	<path fill-rule="evenodd" clip-rule="evenodd" d="M38.068,160.241c0-2.641-1.114-4.908-3.135-6.641   c-1.856-1.525-4.248-2.35-7.011-2.35c-3.3,0-6.269,1.154-8.29,3.217c-1.567,1.607-2.392,3.547-2.392,5.814   c0,2.928,1.32,5.445,3.629,7.094c1.979,1.361,4.289,2.063,6.805,2.063c2.681,0,5.114-0.783,7.053-2.309   C36.914,165.397,38.068,163.004,38.068,160.241L38.068,160.241z M28.005,167.293c-2.228,0-4.29-0.949-5.568-2.598   c-1.072-1.402-1.649-3.012-1.649-4.785c0-3.877,2.763-6.516,6.599-6.516c2.393,0,4.455,1.031,5.857,2.969   c0.907,1.236,1.444,2.805,1.444,4.578C34.687,164.737,31.84,167.293,28.005,167.293L28.005,167.293z"/>
	<path fill-rule="evenodd" clip-rule="evenodd" d="M61.042,160.241c0-2.641-1.114-4.908-3.135-6.641   c-1.897-1.525-4.248-2.35-7.012-2.35c-3.3,0-6.269,1.154-8.29,3.217c-1.608,1.607-2.392,3.547-2.392,5.814   c0,2.928,1.279,5.445,3.629,7.094c1.938,1.361,4.289,2.063,6.764,2.063c2.682,0,5.156-0.783,7.095-2.309   C59.886,165.397,61.042,163.004,61.042,160.241L61.042,160.241z M50.978,167.293c-2.27,0-4.29-0.949-5.609-2.598   c-1.073-1.402-1.65-3.012-1.65-4.785c0-3.877,2.804-6.516,6.64-6.516c2.392,0,4.454,1.031,5.856,2.969   c0.866,1.236,1.402,2.805,1.402,4.578C57.618,164.737,54.813,167.293,50.978,167.293L50.978,167.293z"/>
	<path fill-rule="evenodd" clip-rule="evenodd" d="M83.972,160.241c0-2.641-1.113-4.908-3.134-6.641   c-1.856-1.525-4.248-2.35-7.012-2.35c-3.3,0-6.27,1.154-8.29,3.217c-1.567,1.607-2.393,3.547-2.393,5.814   c0,2.928,1.32,5.445,3.63,7.094c1.979,1.361,4.289,2.063,6.805,2.063c2.682,0,5.114-0.783,7.054-2.309   C82.818,165.397,83.972,163.004,83.972,160.241L83.972,160.241z M73.909,167.293c-2.227,0-4.289-0.949-5.567-2.598   c-1.114-1.402-1.649-3.012-1.649-4.785c0-3.877,2.763-6.516,6.599-6.516c2.393,0,4.454,1.031,5.856,2.969   c0.907,1.236,1.402,2.805,1.402,4.578C80.549,164.737,77.745,167.293,73.909,167.293L73.909,167.293z"/>
	<path fill-rule="evenodd" clip-rule="evenodd" d="M1.402,145.682h11.219l1.608-2.928c-2.516,0.824-5.073,1.277-7.754,1.277   c-0.288,0-0.577-0.041-0.866-0.041v-6.475c2.021,0.123,3.547,0.371,4.702,0.865l1.938-2.598h-6.64v-6.146c0.083,0,0.165,0,0.248,0   c2.31,0,4.207,0.33,5.609,1.072l1.691-2.887H1.402c0.701,1.443,0.949,2.971,0.949,4.66v8.58   C2.351,142.754,2.104,144.239,1.402,145.682L1.402,145.682z"/>
	<path fill-rule="evenodd" clip-rule="evenodd" d="M34.191,143.702v1.98h3.794c-0.66-1.443-0.907-2.928-0.907-4.619v-8.58   c0-1.689,0.248-3.217,0.907-4.66h-5.073c0.66,1.443,0.907,2.971,0.907,4.66v6.188c0,1.65,0,2.887-1.319,3.918   c-1.031,0.783-2.351,1.238-3.712,1.238c-1.814,0-3.382-0.66-4.248-1.732c-0.537-0.66-0.537-1.691-0.537-3.135v-6.477   c0-1.689,0.207-3.217,0.866-4.66h-5.073c0.66,1.443,0.907,2.971,0.907,4.66v6.723c0,0.166,0,0.371,0,0.537   c0,1.195,0.041,2.309,0.743,3.381c0.454,0.66,1.072,1.197,1.814,1.609c1.402,0.742,2.969,1.154,4.454,1.154   C29.778,145.887,31.923,145.145,34.191,143.702L34.191,143.702z"/>
	<path fill-rule="evenodd" clip-rule="evenodd" d="M48.957,129.514c3.176,0,5.031,1.402,5.031,3.506   c0,2.021-1.772,3.465-5.031,3.836V129.514L48.957,129.514z M48.957,141.063v-3.588c4.537,5.525,7.548,8.207,8.455,8.207h3.176   c-2.887-2.559-5.403-5.279-7.507-8.166c2.847-0.826,4.331-2.393,4.331-4.455c0-3.547-2.97-5.238-9.073-5.238h-3.548   c0.66,1.443,0.908,2.971,0.908,4.66v8.58c0,1.691-0.248,3.176-0.908,4.619h5.114C49.204,144.239,48.957,142.754,48.957,141.063   L48.957,141.063z"/>
	<path fill-rule="evenodd" clip-rule="evenodd" d="M84.22,136.649c0-2.639-1.113-4.908-3.135-6.6   c-1.897-1.566-4.248-2.391-7.012-2.391c-3.299,0-6.269,1.154-8.29,3.217c-1.567,1.607-2.392,3.547-2.392,5.814   c0,2.93,1.319,5.445,3.629,7.094c1.98,1.361,4.29,2.063,6.806,2.063c2.681,0,5.114-0.783,7.053-2.309   C83.065,141.805,84.22,139.413,84.22,136.649L84.22,136.649z M74.157,143.702c-2.228,0-4.29-0.947-5.568-2.598   c-1.113-1.402-1.69-3.012-1.69-4.785c0.041-3.877,2.804-6.516,6.64-6.516c2.393,0,4.455,1.031,5.857,2.969   c0.907,1.238,1.402,2.805,1.402,4.578C80.797,141.145,77.993,143.702,74.157,143.702L74.157,143.702z"/>
	<path fill-rule="evenodd" clip-rule="evenodd" fill="#EE312F" d="M56.545,0.668c2.145-1.485,7.177-0.206,7.589,1.031   c0.247,0.701-0.247,2.186-0.783,3.506c-0.784,1.897-2.145,3.959-3.094,4.825c-0.701,0.619-2.434,1.732-4.784,1.815   c-0.742,0-1.567-0.083-2.31-0.702c-0.495-0.371-0.495-1.072-0.536-1.608c-0.041-1.031,0.33-2.145,0.783-3.465   C54.112,4.174,55.555,1.329,56.545,0.668L56.545,0.668z"/>
	<path fill-rule="evenodd" clip-rule="evenodd" d="M24.994,59.399c0.413-1.649,0.042-8.702,3.382-19.343   c1.691-5.485-1.155-10.146-2.104-13.445c-0.371-1.402-0.825-5.238-5.403-7.465c-3.671-1.732-6.641-3.505-9.568-6.187   c6.145,0.083,11.383,0.165,18.023-1.278c2.722,2.887,4.702,5.98,4.743,8.702c0,3.836-1.979,6.888-1.979,12.208   c0,3.959-0.949,7.135-2.681,10.517c-1.361,2.599-1.691,4.537-2.021,6.805c-0.165,1.443-0.783,6.64-2.557,10.063   C24.87,59.812,24.953,59.606,24.994,59.399L24.994,59.399z"/>
	<path fill-rule="evenodd" clip-rule="evenodd" fill="#FFE600" d="M37.326,10.072c2.928-0.412,4.619-0.536,7.547-0.454   c-0.124,1.938-0.372,3.959-0.907,5.939c-3.135,12.002-5.032,11.383-6.723,16.167c-1.897,5.279-1.856,7.176-4.95,10.847   c-2.763,3.176-3.959,9.073-4.331,11.63c-0.124,0.866-1.361,6.269-4.702,10.435c1.031-2.145,1.32-3.423,1.567-4.661   c1.774-3.423,2.393-8.62,2.557-10.063c0.33-2.269,0.66-4.207,2.021-6.805c1.732-3.382,2.681-6.558,2.681-10.517   c0-5.321,1.979-8.373,1.979-12.208c-0.041-2.722-2.021-5.815-4.702-8.702C32.417,10.979,34.191,10.443,37.326,10.072L37.326,10.072   z"/>
	<path fill-rule="evenodd" clip-rule="evenodd" fill="#EE312F" d="M19.838,70.659c1.485-2.969,3.135-5.444,3.423-6.021   c3.341-4.166,4.578-9.569,4.702-10.435c0.371-2.557,1.567-8.455,4.331-11.63c3.093-3.671,3.052-5.568,4.95-10.847   c1.69-4.784,3.588-4.166,6.723-16.167c0.536-1.98,0.783-4.001,0.907-5.939c4.207,0.124,5.609,3.63,9.032,4.372   c3.3,0.742,4.454,1.608,7.053,3.135c-7.465,3.629-12.703,7.712-13.857,9.651c-2.021,3.464-6.806,7.795-9.734,12.992   c-1.402,2.516-5.32,5.032-7.877,13.693c-0.908,3.052-1.526,5.486-3.135,8.579c-1.526,2.929-2.599,3.671-4.537,6.517   C21.2,69.504,20.54,70.164,19.838,70.659L19.838,70.659z"/>
	<path fill-rule="evenodd" clip-rule="evenodd" fill="#FFFFFF" d="M60.958,17.125H61c1.979,1.155,5.114,2.846,9.032,4.289   c-4.948,1.856-9.856,4.537-12.785,6.805c-3.712,2.887-11.92,6.269-15.714,11.837c-3.176,4.661-7.341,5.815-10.806,14.972   c-0.784,2.145-1.815,4.743-2.887,6.764c-3.052,5.609-6.021,9.816-10.022,13.61c0.495-1.567,1.238-3.217,2.021-4.743   c0.701-0.495,1.361-1.155,1.98-2.104c1.938-2.846,3.01-3.588,4.537-6.517c1.608-3.093,2.227-5.526,3.135-8.579   c2.557-8.661,6.475-11.177,7.877-13.693c2.928-5.197,7.712-9.527,9.734-12.992C48.255,24.837,53.494,20.754,60.958,17.125   L60.958,17.125z"/>
	<path fill-rule="evenodd" clip-rule="evenodd" fill="#007BC3" d="M70.032,21.414c1.732,0.619,3.63,1.237,5.651,1.691   c5.031,1.196,8.578,2.269,12.661,3.093c-9.197,3.671-19.632,5.815-25.076,7.465c-7.713,2.31-14.93,8.414-19.343,12.579   c-2.392,2.228-6.063,4.372-9.156,7.919c-2.928,3.3-4.454,5.609-6.352,9.321c-1.608,3.217-2.516,5.032-4.042,8.29   c-2.887,6.021-4.991,12.043-7.012,15.59c-1.113-3.671-0.948-7.383,0.372-11.755l0.082-0.206c4.001-3.794,6.97-8.001,10.022-13.61   c1.072-2.021,2.103-4.62,2.887-6.764c3.464-9.156,7.63-10.311,10.806-14.972c3.794-5.568,12.002-8.95,15.714-11.837   C60.175,25.951,65.083,23.27,70.032,21.414L70.032,21.414z"/>
	<path d="M12.658,108.299c3.79-4.004,8.378-7.244,13.508-9.459c4.933-2.131,10.364-3.313,16.068-3.313   c5.724,0,11.167,1.182,16.1,3.313c5.128,2.215,9.705,5.455,13.476,9.461l-1.079,1.016c-3.631-3.855-8.041-6.979-12.983-9.113   c-4.751-2.051-9.995-3.189-15.513-3.189c-5.497,0-10.73,1.139-15.481,3.189c-4.94,2.133-9.361,5.256-13.015,9.117L12.658,108.299   L12.658,108.299z M24.121,119.399c2.297-2.471,5.104-4.479,8.251-5.852c3.026-1.322,6.364-2.057,9.861-2.057   c3.479,0,6.797,0.725,9.806,2.029c3.129,1.357,5.924,3.344,8.222,5.793l-1.08,1.018c-2.159-2.303-4.786-4.168-7.728-5.445   c-2.828-1.227-5.947-1.908-9.22-1.908c-3.293,0-6.43,0.689-9.269,1.93c-2.957,1.291-5.597,3.178-7.758,5.502L24.121,119.399   L24.121,119.399z"/>
	<path fill-rule="evenodd" clip-rule="evenodd" d="M24.128,104.602l2.928,3.672c1.732,2.145,0.701,4.166-1.237,5.732   c-2.063,1.65-4.248,1.98-5.856,0l-2.97-3.711l1.773-1.402l3.011,3.711c0.742,0.949,1.938,0.908,2.928,0.082   c0.949-0.783,1.443-1.896,0.536-3.051l-2.887-3.631L24.128,104.602L24.128,104.602z"/>
	<polygon fill-rule="evenodd" clip-rule="evenodd" points="40.048,108.192 33.49,109.551 31.799,101.426 38.274,100.067    38.604,101.551 34.315,102.458 34.687,104.149 38.77,103.325 39.058,104.809 34.975,105.633 35.387,107.614 39.759,106.706    40.048,108.192  "/>
	<polygon fill-rule="evenodd" clip-rule="evenodd" points="53.04,103.077 49.081,102.334 48.75,104.149 52.668,104.891    52.421,106.375 48.461,105.633 47.843,108.975 45.575,108.563 47.142,100.395 53.329,101.592 53.04,103.077  "/>
	<path fill-rule="evenodd" clip-rule="evenodd" d="M62.691,116.893l-1.979-1.443l0.33-1.773l-3.3-2.393l-1.484,0.908l-1.98-1.402   l7.878-4.537l2.104,1.525L62.691,116.893L62.691,116.893z M62.072,108.645l-2.969,1.814l2.268,1.65L62.072,108.645L62.072,108.645z   "/>
	<path fill-rule="evenodd" clip-rule="evenodd" fill="#FFFFFF" d="M35.717,80.434c1.485-3.423,5.321-5.279,8.579-4.166   c3.299,1.073,4.743,4.744,3.299,8.125c-1.484,3.382-5.32,5.279-8.579,4.166C35.717,87.487,34.274,83.816,35.717,80.434   L35.717,80.434z"/>
	<polygon fill-rule="evenodd" clip-rule="evenodd" points="39.471,82.702 41.285,79.856 44.378,80.187 44.502,83.321 41.492,84.847    39.471,82.702  "/>
	<path fill-rule="evenodd" clip-rule="evenodd" d="M38.127,88.186l-0.183-1.277l2.929-0.619l2.145,1.114l-1.681,1.463   c-0.78,0.047-1.565-0.051-2.32-0.309C38.703,88.458,38.406,88.333,38.127,88.186L38.127,88.186z"/>
	<path fill-rule="evenodd" clip-rule="evenodd" d="M35.33,81.622l1.336-0.817l1.155,2.434l-0.949,2.969l-1.065-0.367   C35.173,84.607,34.984,83.119,35.33,81.622L35.33,81.622z"/>
	<path fill-rule="evenodd" clip-rule="evenodd" d="M39.149,76.747l1.113-0.468c0.652-0.212,1.328-0.326,2.005-0.333l0.256,1.023   l-1.897,1.855l-2.846,0.413l-0.033-1.542C38.18,77.324,38.652,77.006,39.149,76.747L39.149,76.747z"/>
	<path fill-rule="evenodd" clip-rule="evenodd" d="M44.461,77.093l0.757-0.433c1.357,0.723,2.293,1.946,2.702,3.378l-0.366,0.519   l-2.145-1.278L44.461,77.093L44.461,77.093z"/>
	<path fill-rule="evenodd" clip-rule="evenodd" d="M45.575,83.898l1.979-1.897l0.511,0.79c-0.088,0.534-0.242,1.072-0.47,1.603   c-0.384,0.875-0.926,1.65-1.574,2.301l-1.437-0.156L45.575,83.898L45.575,83.898z"/>
</g>
</svg>