<?xml version="1.0" encoding="UTF-8" standalone="no"?>
<!-- Created with Inkscape (http://www.inkscape.org/) -->
<svg xmlns:dc="http://purl.org/dc/elements/1.1/" xmlns:cc="http://web.resource.org/cc/" xmlns:rdf="http://www.w3.org/1999/02/22-rdf-syntax-ns#" xmlns:svg="http://www.w3.org/2000/svg" xmlns="http://www.w3.org/2000/svg" xmlns:sodipodi="http://sodipodi.sourceforge.net/DTD/sodipodi-0.dtd" xmlns:inkscape="http://www.inkscape.org/namespaces/inkscape" width="200.00002" height="272.7634" id="svg2286" sodipodi:version="0.32" inkscape:version="0.45.1" version="1.0" sodipodi:docbase="D:\" sodipodi:docname="PFK CSKA 2008.svg" inkscape:output_extension="org.inkscape.output.svg.inkscape">
  <defs id="defs2288"/>
  <sodipodi:namedview id="base" pagecolor="#ffffff" bordercolor="#666666" borderopacity="1.0" gridtolerance="10000" guidetolerance="10" objecttolerance="10" inkscape:pageopacity="0.0" inkscape:pageshadow="2" inkscape:zoom="0.7" inkscape:cx="293.42033" inkscape:cy="29.815606" inkscape:document-units="px" inkscape:current-layer="layer1" inkscape:window-width="1280" inkscape:window-height="977" inkscape:window-x="-4" inkscape:window-y="-4"/>
  <metadata id="metadata2291">
    <rdf:RDF>
      <cc:Work rdf:about="">
        <dc:format>image/svg+xml</dc:format>
        <dc:type rdf:resource="http://purl.org/dc/dcmitype/StillImage"/>
      </cc:Work>
    </rdf:RDF>
  </metadata>
  <g inkscape:label="Layer 1" inkscape:groupmode="layer" id="layer1" transform="translate(-129.39508,-541.63935)">
    <g transform="matrix(0.4811244,0,0,0.4811244,129.39508,541.63935)" style="fill:#161413;fill-rule:evenodd;stroke:none;stroke-width:1;stroke-linecap:butt;stroke-linejoin:miter;stroke-dasharray:none" id="g8">
      <path d="M 393.69,211.722 C 393.997,211.857 394.583,212.029 394.809,212.118 C 395.752,212.489 396.538,213.002 397.199,213.78 C 398.702,215.551 398.701,217.525 398.607,219.661 C 399.771,220.734 401.732,221.822 402.897,222.921 C 404.996,224.896 406.021,226.002 406.722,228.901 C 407.134,230.602 406.986,232.646 406.791,234.447 C 407.699,235.357 408.07,236.629 408.025,237.945 C 407.896,241.686 407.838,245.43 407.597,249.17 C 407.689,249.213 407.78,249.256 407.863,249.299 C 409.776,250.289 410.975,251.747 411.14,253.951 C 411.238,255.265 410.48,257.092 410.213,258.358 C 413.876,258.584 416.056,260.323 415.643,264.351 C 415.133,269.338 411.562,273.876 407.603,276.729 C 405.097,278.534 401.712,280.563 400.989,283.798 C 400.901,284.19 400.763,284.585 400.637,284.974 C 400.658,285.087 400.677,285.2 400.694,285.313 C 401.464,286.182 402.091,287.168 402.406,288.274 C 404.399,288.791 405.428,290.416 405.537,292.658 C 405.708,296.143 404.548,302.432 403.195,306.172 C 403.294,306.232 403.393,306.292 403.488,306.354 C 405.411,307.592 406.804,309.254 406.652,311.666 C 406.604,312.45 406.285,313.178 405.879,313.839 C 405.658,314.197 405.223,314.722 404.905,315.162 C 405.397,315.45 406.156,315.833 406.482,316.082 C 407.917,317.177 408.556,318.705 408.72,320.472 C 409.139,324.963 404.478,329.479 401.258,332.056 C 399.746,333.267 397.979,334.209 396.322,335.207 C 395.34,335.799 393.043,337.062 392.325,337.849 C 392.119,338.074 391.388,338.708 391.63,339.054 C 393.228,341.333 393.671,343.727 392.381,346.12 C 393.352,350.479 392.92,355.086 391.47,359.29 C 389.596,364.719 387.057,369.882 384.719,375.117 C 380.982,383.482 378.578,393.652 371.828,400.216 C 368.953,403.012 366.235,404.959 362.618,406.698 C 361.563,407.206 360.491,407.678 359.407,408.117 C 359.146,413.395 356.271,419.24 353.182,423.597 C 354.697,425.068 355.442,426.869 354.896,428.989 C 354.562,430.279 353.86,430.698 353.198,431.469 C 353.542,431.85 354.248,432.535 354.383,432.692 C 355.587,434.107 355.922,435.73 355.758,437.556 C 355.192,443.845 341.149,449.635 335.793,450.964 C 334.385,451.313 334.146,451.432 334.07,452.916 C 333.843,457.349 334.504,460.497 329.737,462.847 C 328.886,463.265 328.019,463.653 327.128,463.981 C 326.315,469.004 322.597,473.655 317.734,475.256 C 316.754,475.578 315.746,475.746 314.729,475.843 C 315.188,477.006 315.303,478.227 315.115,479.505 C 314.948,480.644 314.554,481.618 313.831,482.516 C 313.437,483.007 312.904,483.448 312.549,483.937 C 312.335,484.232 312.264,484.496 312.264,484.859 C 312.264,488.906 315.039,492.688 312.617,496.866 C 310.315,500.835 304.856,503.418 300.899,505.465 C 299.836,506.014 298.574,506.127 297.395,506.138 C 296.875,506.142 295.487,506.064 294.624,506.131 C 294.624,506.131 295.15,506.13 295.15,506.13 C 295.15,506.13 288.622,511.67 288.622,511.67 C 277.152,521.406 266.308,531.881 254.319,540.999 C 250.699,543.751 248.502,545.558 243.695,544.206 C 241.482,543.583 239.259,543.002 237.022,542.468 C 228.999,549.341 220.809,556.021 212.424,562.448 C 212.424,562.448 206.579,566.929 206.579,566.929 C 206.579,566.929 200.834,562.323 200.834,562.323 C 192.673,555.778 184.696,549.01 176.81,542.139 C 174.406,542.712 172.017,543.372 169.676,544.16 C 165.286,545.637 164.042,544.115 160.693,541.783 C 147.993,532.938 137.063,522.021 125.244,512.103 C 125.244,512.103 119.692,507.445 119.692,507.445 C 116.463,505.996 112.661,504.029 110.315,501.644 C 110.315,501.644 71.818,462.496 71.818,462.496 C 71.818,462.496 77.486,461.353 77.486,461.353 C 78.114,461.227 78.744,461.108 79.374,460.996 C 79.374,460.996 49.875,423.908 49.875,423.908 C 49.875,423.908 52.352,423.817 52.352,423.817 C 54.216,423.748 56.081,423.666 57.945,423.611 C 55.574,417.398 52.667,411.43 49.011,405.857 C 49.011,405.857 48.389,404.909 48.389,404.909 C 45.172,403.579 42.189,401.848 39.602,399.49 C 32.514,393.032 31.776,383.636 28.091,375.382 C 25.639,369.892 22.383,364.725 20.415,359.026 C 18.932,354.73 18.381,350.036 19.466,345.581 C 19.466,345.581 20.454,341.523 20.454,341.523 C 18.49,338.305 16.704,334.991 15.093,331.558 C 15.093,331.558 12.38,325.783 12.38,325.783 C 12.38,325.783 18.336,327.111 18.336,327.111 C 17.351,322.588 16.16,318.109 14.854,313.669 C 11.537,302.388 7.5156,291.221 2.7676,280.462 C 2.7676,280.462 0,274.188 0,274.188 C 0,274.188 6.5537,276.206 6.5537,276.206 C 8.8408,276.91 11.106,277.689 13.345,278.541 C 11.495,274.584 10.0146,270.169 9.0859,266.081 C 5.0703,248.425 9.7295,228.321 19.662,213.361 C 19.662,213.361 21.168,211.092 21.168,211.092 C 20.189,195.137 19.585,179.157 19.462,163.172 C 19.462,163.172 19.405,155.471 19.405,155.471 C 23.754,155.767 27.892,154.989 32.18,154.186 C 46.381,151.527 58.744,145.48 72.133,139.328 C 93.477,129.519 114.169,118.38 134.977,107.502 C 139.748,105.007 144.519,102.51 149.298,100.031 C 149.298,100.031 113.425,67.9912 113.425,67.9912 C 113.425,67.9912 179.639,61.503 179.639,61.503 C 179.639,61.503 206.251,0 206.251,0 C 206.251,0 232.863,61.503 232.863,61.503 C 232.863,61.503 299.078,67.9912 299.078,67.9912 C 299.078,67.9912 263.864,99.4412 263.864,99.4412 C 272.488,103.962 281.062,108.578 289.647,113.17 C 306.934,122.415 324.24,131.674 342.136,139.703 C 355.753,145.813 370.953,152.034 385.813,154.017 C 385.813,154.017 394.235,155.141 394.235,155.141 C 394.235,155.141 393.958,163.635 393.958,163.635 C 393.456,178.982 393.349,194.34 392.865,209.686 C 393.127,210.371 393.386,211.055 393.69,211.722 z M 192.841,539.429 C 197.431,543.345 202.062,547.215 206.752,551.01 C 211.585,547.268 216.352,543.442 221.058,539.543 C 216.112,538.93 211.128,538.6 206.146,538.629 C 201.721,538.653 197.255,538.943 192.841,539.429 z " id="path10"/>
    </g>
    <g transform="matrix(0.4811244,0,0,0.4811244,140.24732,545.43196)" style="fill:#f6ca00;fill-rule:evenodd;stroke:none;stroke-width:1;stroke-linecap:butt;stroke-linejoin:miter;stroke-dasharray:none" id="g12">
      <path d="M 40.713,176.969 C 67.607,166.454 93.767,153.525 119.256,139.988 C 125.65,136.592 132.013,133.146 138.359,129.662 C 138.359,129.662 144.1,103.454 144.1,103.454 C 144.1,103.454 137.251,97.3374 137.251,97.3374 C 103.847,114.397 68.535,133.489 41.207,145.383 C 27.287,151.442 14.96,155.057 6.403,155.995 C 6.55,180.759 7.97,204.593 9.716,226.521 C 6.73,220.393 4.23,214.073 2.069,208.183 C 0.985,190.567 0.171,172.933 0.037,155.268 C 0.037,155.268 0,150.518 0,150.518 C 4.853,150.211 12.898,148.835 19.524,146.731 C 30.545,143.231 42.698,138.051 50.884,134.29 C 72.21,124.49 93.071,113.267 113.872,102.393 C 119.951,99.2154 126.066,96.0134 132.219,92.8424 C 132.219,92.8424 98.278,62.5284 98.278,62.5284 C 98.278,62.5284 159.224,56.5557 159.224,56.5557 C 159.224,56.5557 183.695,0 183.695,0 C 183.695,0 208.167,56.5557 208.167,56.5557 C 208.167,56.5557 269.113,62.5284 269.113,62.5284 C 269.113,62.5284 235.844,92.2414 235.844,92.2414 C 245.815,97.4204 255.711,102.751 265.615,108.047 C 282.924,117.304 300.384,126.639 318.298,134.676 C 331.902,140.781 348,147.256 362.843,149.238 C 362.843,149.238 368.458,149.987 368.458,149.987 C 368.458,149.987 368.273,155.649 368.273,155.649 C 367.806,169.934 367.678,184.219 367.274,198.499 C 366.555,197.611 365.642,196.952 364.741,196.214 C 363.633,195.306 362.431,194.452 361.112,194.42 C 361.371,183.302 361.492,171.433 362.014,155.444 C 326.976,150.766 276.42,120.259 230.844,96.7074 C 230.844,96.7074 223.291,103.454 223.291,103.454 C 223.291,103.454 229.037,129.688 229.037,129.688 C 233.764,132.214 238.496,134.735 243.233,137.242 C 258.103,145.108 273.053,152.884 288.223,160.16 C 300.963,166.27 314.177,172.274 327.542,176.88 C 327.542,176.88 332.006,178.42 332.006,178.42 C 332.006,178.42 331.754,183.134 331.754,183.134 C 329.559,224.13 325.573,265.725 314.52,305.391 C 294.398,377.603 255.312,436.23 204.538,489.481 C 201.895,489.163 199.249,488.907 196.591,488.717 C 251.76,431.703 289.139,373.149 308.488,303.711 C 318.923,266.262 323.179,226.188 325.501,182.8 C 299.387,173.797 264.444,155.652 230.798,137.731 C 230.798,137.731 236.486,163.7 236.486,163.7 C 236.486,163.7 183.695,132.438 183.695,132.438 C 183.695,132.438 130.904,163.7 130.904,163.7 C 130.904,163.7 136.584,137.771 136.584,137.771 C 105.683,154.616 73.822,170.747 42.993,182.8 C 46.202,225.296 48.634,266.879 59.171,304.541 C 78.542,373.781 121.723,440.335 173.066,488.826 C 170.325,489.04 167.592,489.318 164.866,489.651 C 113.744,440.095 72.101,374.004 53.141,306.227 C 51.555,300.558 50.149,294.825 48.897,289.043 C 48.897,289.043 48.911,289.011 48.911,289.011 C 48.911,289.011 50.457,285.464 50.457,285.464 C 50.457,285.464 48.26,286.038 48.26,286.038 C 41.298,252.403 39.312,217.208 36.749,183.272 C 36.749,183.272 36.401,178.655 36.401,178.655 C 36.401,178.655 40.713,176.969 40.713,176.969 z M 164.829,530.979 C 172.725,537.77 179.319,543.235 184.154,547.112 C 190.848,541.979 197.442,536.66 203.956,531.182 C 206.602,531.616 209.234,532.127 211.848,532.701 C 204.053,539.363 196.102,545.841 187.964,552.081 C 187.964,552.081 184.067,555.068 184.067,555.068 C 184.067,555.068 180.237,551.997 180.237,551.997 C 172.321,545.65 164.541,539.059 156.87,532.385 C 159.462,531.841 162.138,531.374 164.829,530.979 z " id="path14"/>
    </g>
    <g transform="matrix(0.4811244,0,0,0.4811244,133.69417,645.12596)" style="fill:#f6ca00;fill-rule:evenodd;stroke:none;stroke-width:1;stroke-linecap:butt;stroke-linejoin:miter;stroke-dasharray:none" id="g16">
      <path d="M 30.0035,34.42 C 22.0535,23.261 16.7975,9.576 13.3345,0 C 2.2515,16.692 0,36.21 3.2025,50.295 C 4.5595,56.261 6.6635,61.231 8.6185,64.763 C 9.8405,60.795 11.4915,56.971 13.4775,53.429 C 13.9485,52.589 14.4585,51.745 15.0005,50.898 C 12.5315,41.78 10.6005,25.038 11.9275,14.862 C 11.9335,21.479 12.5205,29.316 13.5545,36.487 C 14.1135,33.38 15.1315,29.771 16.6735,26.929 C 15.3415,31.596 14.2555,37.369 14.2955,41.079 C 14.8295,44.045 15.4435,46.806 16.1265,49.203 C 19.7645,43.932 24.6275,38.705 30.0035,34.42 z " id="path18"/>
    </g>
    <g transform="matrix(0.4811244,0,0,0.4811244,138.45706,658.5195)" style="fill:#f6ca00;fill-rule:evenodd;stroke:none;stroke-width:1;stroke-linecap:butt;stroke-linejoin:miter;stroke-dasharray:none" id="g20">
      <path d="M 35.192,0 C 22.435,4.471 10.523,17.046 5.216,26.51 C 2.945,30.56 1.187,34.869 0,39.243 C 4.441,41.239 8.879,43.595 13.028,46.303 C 13.315,45.044 13.646,43.706 14.018,42.306 C 13.695,38.635 11.845,32.789 9.879,28.154 C 12.259,31.485 13.957,36.136 14.784,39.544 C 17.34,30.676 21.262,20.211 25.443,13.425 C 20.778,23.825 16.8,36.234 14.471,47.266 C 20.677,51.51 26.143,56.566 29.877,62.395 C 31.645,60.957 33.494,59.598 35.394,58.35 C 35.602,57.138 35.765,55.94 35.88,54.752 C 36.492,48.449 35.346,40.905 33.695,33.493 C 31.669,24.405 32.116,8.985 35.192,0 z " id="path22"/>
    </g>
    <g transform="matrix(0.4811244,0,0,0.4811244,138.01972,700.51926)" style="fill:#f6ca00;fill-rule:evenodd;stroke:none;stroke-width:1;stroke-linecap:butt;stroke-linejoin:miter;stroke-dasharray:none" id="g24">
      <path d="M 13.131,21.013 C 8.068,14.634 3.872,8.243 0,0 C 21.636,4.821 31.952,12.032 41.013,19.835 C 39.14,22.611 37.517,25.563 36.133,28.645 C 29.717,22.641 21.263,15.503 13.835,11.412 C 20.507,16.711 28.694,23.355 35.433,30.263 C 35.127,30.997 34.833,31.738 34.553,32.485 C 32.653,31.724 30.761,30.932 28.888,30.083 C 23.282,27.545 17.986,24.62 13.131,21.013 z " id="path26"/>
    </g>
    <g transform="matrix(0.4811244,0,0,0.4811244,132.10467,675.96844)" style="fill:#f6ca00;fill-rule:evenodd;stroke:none;stroke-width:1;stroke-linecap:butt;stroke-linejoin:miter;stroke-dasharray:none" id="g28">
      <path d="M 16.3472,50.056 C 12.8372,32.356 5.1712,11.718 0,0 C 17.6152,5.422 34.0292,15.335 41.6272,27.345 C 37.4432,30.946 33.7752,34.985 31.0172,39.084 C 28.2512,43.195 26.1012,47.699 24.6102,52.414 C 21.8882,51.524 19.1282,50.749 16.3472,50.056 z M 9.2552,9.223 C 14.4442,14.866 19.5362,20.684 24.0392,26.769 C 21.6842,25.396 18.9092,24.357 14.9172,23.429 C 18.7782,25.058 22.7882,26.959 25.5462,28.851 C 27.7032,31.89 29.7052,34.996 31.4882,38.183 C 31.4882,38.183 32.4972,36.661 32.4972,36.661 C 27.7422,28.245 18.8962,17.814 9.2552,9.223 z " id="path30"/>
    </g>
    <g transform="matrix(0.4811244,0,0,0.4811244,144.80165,684.12109)" style="fill:#f6ca00;fill-rule:evenodd;stroke:none;stroke-width:1;stroke-linecap:butt;stroke-linejoin:miter;stroke-dasharray:none" id="g32">
      <path d="M 37.723,0 C 24.645,3.423 12.246,14.184 6.186,23.188 C 3.456,27.245 1.409,31.604 0,36.07 C 4.714,37.703 9.301,39.682 13.667,42.124 C 14.32,42.489 14.961,42.861 15.592,43.24 C 17.237,36.658 19.592,29.861 22.678,24.24 C 20.58,30.783 18.551,37.446 17.009,44.114 C 18.712,45.192 20.345,46.324 21.937,47.508 C 24.066,45.229 26.327,42.209 28.3,39.244 C 26.146,43.583 24.787,46.037 22.871,48.211 C 24.61,49.539 26.305,50.929 27.998,52.375 C 29.913,49.741 32.068,47.277 34.471,45.033 C 34.43,40.911 33.996,36.537 33.392,32.193 C 32.109,22.97 33.928,8.706 37.723,0 z " id="path34"/>
    </g>
    <g transform="matrix(0.4811244,0,0,0.4811244,163.77479,738.93753)" style="fill:#f6ca00;fill-rule:evenodd;stroke:none;stroke-width:1;stroke-linecap:butt;stroke-linejoin:miter;stroke-dasharray:none" id="g36">
      <path d="M 0.907,0 C 0.247,5.259 0,12.007 0.341,15.485 C 1.887,15.883 8.676,17.071 12.048,18.022 C 11.831,13.813 11.841,9.295 12.032,4.51 C 8.15,2.522 4.911,1.24 0.907,0 z M 13.611,18.479 C 15.255,18.977 16.89,19.528 18.511,20.13 C 19.304,20.425 20.093,20.732 20.875,21.051 C 21.795,17.923 22.939,14.831 24.285,11.789 C 20.607,9.335 16.745,6.973 12.778,4.896 C 12.981,9.406 13.2,13.973 13.611,18.479 z " id="path38"/>
    </g>
    <g transform="matrix(0.4811244,0,0,0.4811244,156.42561,746.738)" style="fill:#f6ca00;fill-rule:evenodd;stroke:none;stroke-width:1;stroke-linecap:butt;stroke-linejoin:miter;stroke-dasharray:none" id="g40">
      <path d="M 27.653,35.283 C 27.653,35.283 0,0.517 0,0.517 C 13.987,0 25.853,2.652 35.64,6.659 C 34.659,10.365 33.999,14.126 33.702,17.922 C 28.464,14.485 21.473,10.763 14.741,7.732 C 20.704,11.343 27.917,15.965 33.578,19.97 C 33.528,21.103 33.513,22.238 33.531,23.378 C 31.262,23.566 29.023,23.722 24.933,24.065 C 27.73,24.384 30.868,24.486 33.561,24.54 C 33.681,27.895 34.102,31.272 34.845,34.663 C 32.457,34.762 30.059,34.972 27.653,35.283 z " id="path42"/>
    </g>
    <g transform="matrix(0.4811244,0,0,0.4811244,172.24643,738.57861)" style="fill:#f6ca00;fill-rule:evenodd;stroke:none;stroke-width:1;stroke-linecap:butt;stroke-linejoin:miter;stroke-dasharray:none" id="g44">
      <path d="M 15.727,0 C 4.535,16.938 0,34.46 3.874,51.564 C 8.264,51.489 12.615,51.78 16.909,52.46 C 14.682,43.256 13.363,31.363 14.021,17.619 C 14.525,26.929 15.425,36.763 17.197,46.056 C 18.152,42.553 19.591,40.206 22.73,35.177 C 20.463,39.677 18.162,45.714 17.822,49.143 C 18.084,50.361 18.363,51.567 18.66,52.759 C 21.358,53.254 24.035,53.907 26.681,54.718 C 28.061,52.315 29.867,50.21 31.862,48.23 C 30.647,50.081 29.11,52.377 27.916,55.108 C 31.817,56.382 35.655,58.006 39.412,59.997 C 40.217,60.423 41.003,60.857 41.774,61.301 C 40.658,55.249 38.352,49.804 35.836,45.272 C 32.81,39.817 28.679,35.057 25.115,28.427 C 20.703,20.221 17.346,8.777 15.727,0 z " id="path46"/>
    </g>
    <g transform="matrix(0.4811244,0,0,0.4811244,166.97282,761.00671)" style="fill:none;stroke:#161413;stroke-width:0.1;stroke-linecap:butt;stroke-linejoin:miter;stroke-dasharray:none" id="g48">
      <path d="M 51.737,52.102 C 45.068,49.77 37.561,46.673 34.444,43.502 C 34.444,43.502 0,8.476 0,8.476 C 42.093,0 65.843,26.288 72.136,32.984 C 73.997,34.963 76.839,41.872 78.862,47.282 C 76.469,47.834 74.078,48.385 71.685,48.911 C 67.738,44.56 62.702,40.009 56.191,35.27 C 55.955,31.29 55.596,28.349 53.868,23.94 C 54.703,27.491 54.964,30.9 54.651,34.163 C 45.166,27.452 32.704,20.367 16.196,12.937 C 22.982,16.654 29.801,20.237 36.488,24.11 C 33.483,24.372 31.587,24.395 26.386,24.562 C 30.905,25.075 35.968,25.371 38.895,25.522 C 46.406,29.983 53.721,34.883 60.608,40.842 C 56.433,41.159 48.827,41.288 43.372,41.463 C 47.765,41.964 58.176,42.15 62.243,42.282 C 64.706,44.498 67.109,46.86 69.444,49.396 C 67.645,49.777 65.846,50.141 64.042,50.477 C 60.549,51.127 55.696,52.173 51.737,52.102 z " id="path50"/>
    </g>
    <g transform="matrix(0.4811244,0,0,0.4811244,166.97282,761.00671)" style="fill:#f6ca00;fill-rule:evenodd;stroke:none;stroke-width:1;stroke-linecap:butt;stroke-linejoin:miter;stroke-dasharray:none" id="g52">
      <path d="M 51.737,52.102 C 45.068,49.77 37.561,46.673 34.444,43.502 C 34.444,43.502 0,8.476 0,8.476 C 42.093,0 65.843,26.288 72.136,32.984 C 73.997,34.963 76.839,41.872 78.862,47.282 C 76.469,47.834 74.078,48.385 71.685,48.911 C 67.738,44.56 62.702,40.009 56.191,35.27 C 55.955,31.29 55.596,28.349 53.868,23.94 C 54.703,27.491 54.964,30.9 54.651,34.163 C 45.166,27.452 32.704,20.367 16.196,12.937 C 22.982,16.654 29.801,20.237 36.488,24.11 C 33.483,24.372 31.587,24.395 26.386,24.562 C 30.905,25.075 35.968,25.371 38.895,25.522 C 46.406,29.983 53.721,34.883 60.608,40.842 C 56.433,41.159 48.827,41.288 43.372,41.463 C 47.765,41.964 58.176,42.15 62.243,42.282 C 64.706,44.498 67.109,46.86 69.444,49.396 C 67.645,49.777 65.846,50.141 64.042,50.477 C 60.549,51.127 55.696,52.173 51.737,52.102 z " id="path54"/>
    </g>
    <g transform="matrix(0.4811244,0,0,0.4811244,154.48813,736.47273)" style="fill:#f6ca00;fill-rule:evenodd;stroke:none;stroke-width:1;stroke-linecap:butt;stroke-linejoin:miter;stroke-dasharray:none" id="g56">
      <path d="M 0,0 C 3.881,6.066 6.968,12.579 9.574,19.855 C 12.098,19.881 14.354,20.076 17.74,20.586 C 17.415,15.816 17.613,10.008 18.515,4.466 C 12.59,2.857 6.045,1.956 0,0 z " id="path58"/>
    </g>
    <g transform="matrix(0.4811244,0,0,0.4811244,139.7686,708.26295)" style="fill:none;stroke:#161413;stroke-width:0.1;stroke-linecap:butt;stroke-linejoin:miter;stroke-dasharray:none" id="g60">
      <path d="M 0.947,0 C 0,3.891 0.509,7.906 1.813,11.684 C 3.491,16.542 6.486,21.286 9.388,27.784 C 12.696,35.191 13.854,45.12 20.149,50.855 C 27.872,57.891 38.017,58.071 48.714,60.987 C 57.202,63.3 66.028,67.893 74.968,73.82 C 75.952,71.727 77.03,69.658 78.194,67.615 C 74.334,56.777 69.485,44.206 67.244,39.597 C 63.342,31.574 55.353,28.029 47.625,24.841 C 33.835,19.151 15.25,14.435 0.947,0 z " id="path62"/>
    </g>
    <g transform="matrix(0.4811244,0,0,0.4811244,155.48453,704.32928)" style="fill:#f6ca00;fill-rule:evenodd;stroke:none;stroke-width:1;stroke-linecap:butt;stroke-linejoin:miter;stroke-dasharray:none" id="g64">
      <path d="M 19.035,0 C 9.317,6.665 3.436,16.072 0,25.255 C 3.373,26.572 6.769,27.81 10.151,29.099 C 10.834,22.626 12.136,15.92 14.256,10.176 C 13.203,16.629 12.229,23.182 11.672,29.682 C 13.011,30.201 14.345,30.732 15.676,31.281 C 19.725,32.951 23.325,34.591 26.439,36.52 C 25.695,34.82 24.971,33.054 24.305,31.195 C 21.163,22.425 19.332,8.92 19.035,0 z " id="path66"/>
    </g>
    <g transform="matrix(0.4811244,0,0,0.4811244,139.7686,708.26295)" style="fill:#d91521;fill-rule:evenodd;stroke:none;stroke-width:1;stroke-linecap:butt;stroke-linejoin:miter;stroke-dasharray:none" id="g68">
      <path d="M 0.947,0 C 0,3.891 0.509,7.906 1.813,11.684 C 3.491,16.542 6.486,21.286 9.388,27.784 C 12.696,35.191 13.854,45.12 20.149,50.855 C 27.872,57.891 38.017,58.071 48.714,60.987 C 57.202,63.3 66.028,67.893 74.968,73.82 C 75.952,71.727 77.03,69.658 78.194,67.615 C 74.334,56.777 69.485,44.206 67.244,39.597 C 63.342,31.574 55.353,28.029 47.625,24.841 C 33.835,19.151 15.25,14.435 0.947,0 z " id="path70"/>
    </g>
    <g transform="matrix(0.4811244,0,0,0.4811244,277.72383,708.32695)" style="fill:#d91521;fill-rule:evenodd;stroke:none;stroke-width:1;stroke-linecap:butt;stroke-linejoin:miter;stroke-dasharray:none" id="g72">
      <path d="M 80.948,0 C 81.895,3.89 81.516,8.04 80.214,11.815 C 78.538,16.672 76.467,20.889 73.564,27.387 C 70.257,34.792 67.453,45.581 61.35,51.518 C 58.412,54.373 56.185,55.874 52.965,57.423 C 46.128,60.712 38.122,62.528 30.801,64.301 C 21.984,66.435 10.812,70.851 0,77.822 C 4.786,67.116 14.027,44.412 16.105,39.729 C 20.665,29.455 27.6,27.499 35.328,24.31 C 48.852,18.886 66.778,14.037 80.948,0 z " id="path74"/>
    </g>
    <g transform="matrix(0.4811244,0,0,0.4811244,252.88337,763.50134)" style="fill:#f6ca00;fill-rule:evenodd;stroke:none;stroke-width:1;stroke-linecap:butt;stroke-linejoin:miter;stroke-dasharray:none" id="g76">
      <path d="M 0,42.002 C 0.32,37.191 0.392,31.998 3.019,29.001 C 5.345,26.346 9.772,29.181 12.198,26.992 C 14.413,24.993 13.39,16.581 18.003,11.165 C 19.882,8.961 23.928,10.715 26.76,10.11 C 30.574,9.297 31.033,5.118 34.254,4.731 C 37.389,4.355 39.133,8.23 42.17,7.369 C 43.939,6.868 45.336,4.843 47.132,3.128 C 48.928,1.41 51.127,0 52.818,0.719 C 55.285,1.769 55.759,4.269 55.42,6.733 C 55.081,9.195 53.402,11.1 53.771,13.276 C 54.012,14.687 55.73,15.353 55.353,17.918 C 54.957,20.601 52.467,20.161 52.467,23.727 C 52.467,27.324 54.802,31.476 53.242,34.164 C 51.506,37.159 46.953,39.4 42.795,41.552 C 41.52,42.212 37.351,41.566 35.986,42.293 C 33.746,43.486 32.006,44.98 30.283,46.271 C 30.283,46.271 29.926,46.272 29.926,46.272 C 24.472,46.287 19.283,46.16 13.929,45.135 C 18.5,41.572 23.113,37.496 28.038,32.55 C 32.876,32.904 40.69,32.638 45.324,31.916 C 41.71,32.006 33.384,32.194 29.156,31.418 C 35.235,25.21 41.811,17.666 49.371,8.145 C 44.684,13.211 40.124,18.358 35.404,23.387 C 35.751,20.115 36.003,17.738 36.408,13.833 C 35.225,18.033 34.601,22.19 33.829,25.054 C 30.353,28.708 26.773,32.286 22.98,35.712 C 22.944,31.594 23.384,23.763 23.609,18.182 C 22.779,22.59 21.823,33.193 21.404,37.114 C 18.45,39.706 15.362,42.2 12.086,44.567 C 11.089,41.111 10.415,38.776 9.257,34.789 C 9.658,38.364 10.397,41.764 10.85,44.499 C 7.221,43.72 3.611,42.865 0,42.002 z " id="path78"/>
    </g>
    <g transform="matrix(0.4811244,0,0,0.4811244,281.81771,737.92476)" style="fill:#f6ca00;fill-rule:evenodd;stroke:none;stroke-width:1;stroke-linecap:butt;stroke-linejoin:miter;stroke-dasharray:none" id="g80">
      <path d="M 24.941,4.077 C 21.42,10.465 16.804,17.862 12.347,24.488 C 11.252,20.169 10.19,16.624 8.822,13.729 C 9.879,17.489 10.866,21.497 11.575,25.63 C 9.994,27.959 8.44,30.177 6.975,32.203 C 6.941,31.937 6.891,31.658 6.82,31.366 C 6.222,28.904 4.777,28.337 3.752,26.372 C 3.075,25.075 3.548,20.794 3.4,19.079 C 3.161,16.296 2.396,14.109 0,13.473 C 7.197,9.62 15.015,6.477 22.734,4.609 C 22.734,4.609 24.941,4.077 24.941,4.077 z M 39.474,0 C 39.206,5.421 35.602,11.541 32.986,14.948 C 31.335,17.097 35.754,17.544 35.058,20.235 C 34.798,21.246 32.868,21.804 33.099,23.645 C 33.433,26.301 36.137,25.937 35.835,29.304 C 35.543,32.552 25.282,38.205 18.233,39.953 C 16.258,40.443 14.322,41.196 14.138,44.784 C 13.981,47.863 14.83,50.449 11.549,52.066 C 10.735,52.466 9.991,52.799 9.253,53.074 C 9.154,51.22 8.497,49.69 6.785,48.199 C 4.822,46.49 3.076,44.525 2.865,42.333 C 4.358,39.332 5.867,36.149 7.996,32.93 C 14.358,32.073 21.056,31.812 26.713,30.65 C 20.565,30.907 14.449,31.429 9.007,31.456 C 11.177,28.326 13.811,24.44 16.452,20.247 C 18.67,19.35 21.232,18.35 23.769,17.116 C 21.131,17.879 19.214,18.438 17.22,19.018 C 20.263,14.114 23.255,8.86 25.491,3.944 C 30.173,2.813 34.923,1.626 39.474,0 z " id="path82"/>
    </g>
    <g transform="matrix(0.4811244,0,0,0.4811244,265.64471,745.17097)" style="fill:#f6ca00;fill-rule:evenodd;stroke:none;stroke-width:1;stroke-linecap:butt;stroke-linejoin:miter;stroke-dasharray:none" id="g84">
      <path d="M 0.68,46.075 C 0.203,42.971 0,40.023 0.508,38.05 C 0.955,36.323 4.019,35.306 5.033,33.52 C 6.503,30.926 3.795,24.102 4.086,21.314 C 4.495,17.395 8.53,18.524 11.038,17.713 C 14.113,16.72 12.322,13.147 14.711,11.975 C 17.47,10.621 16.823,14.136 19.681,12.355 C 20.95,11.564 22.357,8.196 22.879,6.683 C 23.427,5.095 24.825,4.567 25.727,3.839 C 28.166,1.865 30.567,0.155 31.763,0.107 C 34.439,0 34.915,1.524 35.144,4.18 C 35.357,6.653 34.681,10.225 35.702,12.179 C 36.794,14.275 38.134,14.787 38.61,16.748 C 39.198,19.167 37.872,20.316 36.422,22.103 C 32.29,27.194 35.867,31.683 39.165,34.555 C 41.127,36.262 41.151,37.934 40.908,40.017 C 40.32,45.038 36.459,48.297 33.566,49.248 C 32.303,49.664 30.777,49.752 29.212,49.816 C 29.577,48.396 30.528,46.754 30.756,45.088 C 31.21,41.786 30.34,38.499 27.031,37.09 C 24.638,36.071 22.111,37.471 20.215,39.057 C 21.956,34.647 23.856,29.557 25.517,24.335 C 27.38,22.725 29.581,20.885 31.672,18.814 C 29.384,20.41 27.734,21.566 26.003,22.776 C 27.443,18.091 28.663,13.343 29.379,8.923 C 27.124,18.536 22.414,31.032 18.121,41.115 C 17.704,41.561 17.247,42.04 16.799,42.465 C 15.488,35.385 14.44,29.958 12.716,25.789 C 13.982,31.334 15.073,37.39 15.362,43.572 C 15.282,43.61 15.206,43.641 15.134,43.661 C 13.499,44.124 11.134,40.529 7.506,40.965 C 3.796,41.41 2.953,44.91 0.68,46.075 z " id="path86"/>
    </g>
    <g transform="matrix(0.4811244,0,0,0.4811244,300.19138,681.3248)" style="fill:#f6ca00;fill-rule:evenodd;stroke:none;stroke-width:1;stroke-linecap:butt;stroke-linejoin:miter;stroke-dasharray:none" id="g88">
      <path d="M 0,43.549 C 0.008,41.467 0.316,39.542 1.236,37.97 C 3.021,34.925 7.902,36.874 9.872,34.266 C 11.67,31.885 9.078,23.816 12.588,17.628 C 14.018,15.109 18.018,15.592 20.684,14.464 C 24.275,12.947 22.224,12.928 25.219,11.69 C 28.621,10.286 28.992,7.899 31.124,6.904 C 32.353,6.332 33.742,8.413 37.167,4.639 C 38.834,2.802 41.556,1.693 43.355,1.334 C 45.178,0.971 47.295,0 47.416,2.48 C 47.534,4.894 46.411,12.421 44.84,15.808 C 43.701,18.266 48.708,18.368 48.534,21.141 C 48.47,22.182 46.018,23.891 46.592,25.654 C 47.421,28.2 50.295,27.068 50.61,30.432 C 50.823,32.733 48.325,36.065 44.308,39.281 C 42.485,40.741 36.399,43.895 35.019,45.407 C 33.548,47.017 32.773,48.667 34.072,50.519 C 36.234,53.604 34.237,55.421 31.323,57.624 C 30.697,55.503 29.718,53.537 28.243,51.778 C 27.712,51.144 25.472,49.145 25.248,48.724 C 25.044,48.141 25.217,45.566 25.003,44.482 C 24.855,43.728 24.607,43.065 24.279,42.478 C 29.117,41.705 36.368,40.281 39.728,38.959 C 34.672,40.069 27.605,41.017 23.29,41.166 C 22.846,40.718 22.333,40.338 21.765,40.019 C 26.507,32.479 37.94,19.023 42.824,13.536 C 37.668,18.308 24.068,32.082 20.402,39.407 C 19.945,39.244 19.466,39.107 18.967,38.998 C 15.788,38.3 9.938,40.109 6.859,41.107 C 4.55,41.855 2.267,42.684 0,43.549 z " id="path90"/>
    </g>
    <g transform="matrix(0.4811244,0,0,0.4811244,304.20876,654.87498)" style="fill:#f6ca00;fill-rule:evenodd;stroke:none;stroke-width:1;stroke-linecap:butt;stroke-linejoin:miter;stroke-dasharray:none" id="g92">
      <path d="M 0.058,48.551 C 0.009,47.901 0,47.265 0.041,46.649 C 0.26,47.449 0.427,48.104 0.058,48.551 z M 13.138,22.292 C 13.518,19.655 14.461,17.291 16.173,16.275 C 19.522,14.282 21.455,14.807 24.254,13.173 C 27.431,11.32 25.888,9.299 27.865,8.025 C 29.002,7.291 30.797,8.765 33.146,5.753 C 34.672,3.798 35.638,2.499 37.372,1.9 C 39.128,1.293 41.637,0 41.552,2.482 C 41.47,4.858 41.382,10.082 41.08,14.315 C 40.887,17.014 44.467,16.059 44.674,18.828 C 44.751,19.866 43.084,23.353 43.893,25.022 C 45.061,27.432 49.624,24.385 49.184,28.676 C 48.886,31.584 46.875,35.63 42.428,38.833 C 40.285,40.377 36.293,42.759 34.884,46.737 C 34.093,45.32 33.03,44.107 31.726,42.995 C 31.106,42.466 27.565,40.144 27.234,39.717 C 27.206,39.46 27.184,39.205 27.168,38.949 C 31.522,36.881 37.23,33.926 39.848,31.932 C 36.117,33.932 31.057,36.194 27.092,37.672 C 27.074,37.409 27.053,37.15 27.021,36.894 C 29.551,28.001 33.226,16.629 35.092,11.19 C 33.68,14.291 31.449,19.872 29.302,25.842 C 27.93,23.5 26.968,21.979 25.204,18.955 C 26.42,22.216 27.753,24.866 28.802,27.249 C 27.927,29.725 27.08,32.237 26.32,34.644 C 26.223,34.481 26.116,34.318 25.993,34.159 C 25.369,33.359 24.556,32.907 23.611,32.599 C 23.365,32.519 22.476,32.299 22.237,32.158 C 21.31,30.45 20.787,28.744 19.722,27.012 C 18.421,24.893 15.796,22.292 13.138,22.292 z M 36.097,54.095 C 36.175,54.562 36.134,55.016 35.997,55.465 C 35.997,55.465 36.006,55.324 36.006,55.324 C 36.031,54.917 36.063,54.509 36.097,54.095 z " id="path94"/>
    </g>
    <g transform="matrix(0.4811244,0,0,0.4811244,301.95421,666.06016)" style="fill:#f6ca00;fill-rule:evenodd;stroke:none;stroke-width:1;stroke-linecap:butt;stroke-linejoin:miter;stroke-dasharray:none" id="g96">
      <path d="M 6.132,51.035 C 5.936,50.538 5.783,50.061 5.687,49.614 C 5.312,47.87 7.596,45.588 7.703,43.536 C 7.857,40.559 2.379,35.67 1.391,33.048 C 0,29.36 4.113,28.562 5.993,26.715 C 8.298,24.45 5.097,22.056 6.708,19.939 C 8.569,17.493 9.565,20.924 11.321,18.053 C 12.102,16.778 12.118,14.196 11.906,12.611 C 11.687,10.948 12.7,8.839 13.178,7.731 C 13.819,6.246 15.389,1.985 16.639,1.294 C 18.587,0 21.414,2.479 22.808,4.747 C 24.106,6.861 24.35,8.122 25.302,9.862 C 26.039,11.209 28.146,10.717 29.197,12.067 C 30.068,13.183 29.778,14.312 30.062,16.753 C 30.245,18.326 32.794,19.129 35.194,21.176 C 36.634,22.405 38.064,24.004 38.779,26.439 C 39.196,27.854 39.004,29.362 38.86,31.322 C 36.429,31.903 33.771,33.275 32.113,35.104 C 29.155,38.361 29.184,35.754 26.666,36.929 C 25.598,37.427 24.881,38.153 24.203,38.909 C 24.123,37.388 24.006,35.77 23.862,34.097 C 25.315,31.743 27.287,28.879 29.009,25.733 C 26.84,28.46 25.426,30.244 23.708,32.413 C 22.885,23.732 21.415,14.052 20.444,9.409 C 21.171,16.009 22.528,30.856 22.898,40.315 C 22.34,40.846 21.696,41.326 20.838,41.682 C 19.795,42.112 18.924,42.53 18.166,43.384 C 17.714,43.896 16.899,44.202 16.289,44.46 C 13.304,45.722 9.286,44.911 7.291,48.428 C 6.811,49.274 6.433,50.146 6.132,51.035 z " id="path98"/>
    </g>
    <g transform="matrix(0.4811244,0,0,0.4811244,302.45988,639.68107)" style="fill:#f6ca00;fill-rule:evenodd;stroke:none;stroke-width:1;stroke-linecap:butt;stroke-linejoin:miter;stroke-dasharray:none" id="g100">
      <path d="M 10.656,61.214 C 8.228,59.241 6.252,56.737 4.792,55.351 C 1.488,52.215 3.575,54.579 1.583,51.561 C 0,49.162 2.009,45.929 4.27,44.327 C 5.747,43.279 6.564,41.718 6.671,40.685 C 6.975,37.721 3.301,34.463 2.203,30.96 C 1.257,27.941 3.208,21.797 9.665,20.751 C 11.584,20.44 11.034,16.905 12.123,15.873 C 15.245,12.916 18.443,17.206 18.205,11.726 C 18.132,10.051 18.785,7.997 19.316,6.914 C 20.028,5.463 21.808,1.283 23.09,0.655 C 24.187,0 25.23,0.818 26.397,1.774 C 27.364,2.565 28.501,3.35 29.081,4.406 C 30.275,6.58 30.456,7.855 31.321,9.638 C 31.992,11.02 33.997,10.727 35.103,12.03 C 35.918,12.989 35.839,14.038 35.737,16.49 C 35.672,18.071 38.747,19.262 41.042,21.424 C 42.419,22.721 43.374,23.396 43.97,25.862 C 44.263,27.072 44.116,28.911 43.919,30.724 C 43.094,30.752 42.253,31.024 41.489,31.301 C 41.124,31.435 40.761,31.578 40.393,31.705 C 38.053,32.514 36.764,34.302 35.301,36.178 C 33.464,38.531 32.497,36.726 30.481,38.027 C 27.762,39.78 29.283,41.765 26.941,43.131 C 26.069,43.64 25.232,43.92 24.262,44.176 C 24.262,44.176 23.672,44.333 23.672,44.333 C 24.191,40.79 24.607,36.103 24.912,31.259 C 26.68,29.045 29.17,26.262 31.291,23.299 C 28.799,25.757 27.019,27.514 25.017,29.495 C 25.45,21.893 25.608,14.203 25.451,10.205 C 25.114,16.08 24.18,28.679 23.129,38.061 C 20.043,34.817 16.129,31.035 13.115,29.552 C 16.779,32.613 20.392,36.671 22.916,39.899 C 22.701,41.696 22.484,43.335 22.267,44.735 C 21.114,45.094 20.061,45.519 18.848,46.239 C 16.23,47.795 15.153,51.204 14.816,54.395 C 14.744,54.437 14.672,54.478 14.6,54.525 C 12.87,55.564 11.538,59.069 10.656,61.214 z " id="path102"/>
    </g>
    <g transform="matrix(0.4811244,0,0,0.4811244,294.31444,700.8012)" style="fill:#f6ca00;fill-rule:evenodd;stroke:none;stroke-width:1;stroke-linecap:butt;stroke-linejoin:miter;stroke-dasharray:none" id="g104">
      <path d="M 0.13,38.215 C 0.022,36.897 0,35.89 0.109,35.415 C 0.704,32.792 4.279,32.45 6.086,29.958 C 7.675,27.767 6.461,25.25 5.138,22.081 C 3.436,18.008 1.375,13.03 3.026,8.107 C 3.434,4.186 5.754,7.429 8.26,6.618 C 9.049,6.362 16.731,3.115 23.184,1.354 C 21.836,7.677 20.25,14.057 18.518,20.497 C 15.525,16.707 11.074,11.717 7.827,9.089 C 10.365,11.799 16.037,18.316 18.122,21.957 C 17.174,25.442 16.188,28.945 15.171,32.467 C 10.181,34.431 5.137,36.207 0.141,38.211 C 0.141,38.211 0.13,38.215 0.13,38.215 z M 23.339,1.312 C 26.406,0.485 29.181,0 30.779,0.352 C 37.203,1.764 34.972,6.802 35.698,8.881 C 36.257,10.485 39.926,11.787 41.681,17.492 C 35.957,22.38 29.534,26.151 22.629,29.32 C 20.751,30.181 18.858,30.986 16.954,31.756 C 17.315,30.315 17.673,28.836 18.033,27.314 C 22.063,24.626 29.37,19.312 32.574,15.736 C 29.796,18.087 22.345,23.364 18.49,25.365 C 19.319,21.776 20.144,17.954 20.971,13.854 C 22.77,11.646 25.289,8.941 27.573,5.877 C 25.043,8.278 23.394,9.849 21.388,11.76 C 22.037,8.461 22.69,4.984 23.339,1.312 z " id="path106"/>
    </g>
    <g transform="matrix(0.4811244,0,0,0.4811244,194.66057,553.01862)" style="fill:#d91521;fill-rule:evenodd;stroke:none;stroke-width:1;stroke-linecap:butt;stroke-linejoin:miter;stroke-dasharray:none" id="g108">
      <path d="M 70.599,0 C 70.599,0 50.41,46.6592 50.41,46.6592 C 50.41,46.6592 0,51.5996 0,51.5996 C 0,51.5996 37.903,85.4518 37.903,85.4518 C 37.903,85.4518 27.005,135.209 27.005,135.209 C 27.005,135.209 70.599,109.393 70.599,109.393 C 70.599,109.393 114.194,135.209 114.194,135.209 C 114.194,135.209 103.296,85.4518 103.296,85.4518 C 103.296,85.4518 141.199,51.5996 141.199,51.5996 C 141.199,51.5996 90.789,46.6592 90.789,46.6592 C 90.789,46.6592 70.599,0 70.599,0 z " id="path110"/>
    </g>
    <g transform="matrix(0.4811244,0,0,0.4811244,207.19386,566.33225)" style="fill:#f6ca00;fill-rule:evenodd;stroke:none;stroke-width:1;stroke-linecap:butt;stroke-linejoin:miter;stroke-dasharray:none" id="g112">
      <path d="M 45.113,0 C 45.113,0 43.807,44.5489 43.807,44.5489 C 43.807,44.5489 0,32.288 0,32.288 C 0,32.288 42.606,48.1909 42.606,48.1909 C 42.606,48.1909 17.681,84.5159 17.681,84.5159 C 17.681,84.5159 45.224,50.0289 45.224,50.0289 C 45.224,50.0289 71.704,83.6739 71.704,83.6739 C 71.704,83.6739 47.946,47.9829 47.946,47.9829 C 47.946,47.9829 88.122,33.4453 88.122,33.4453 C 88.122,33.4453 47.063,44.8629 47.063,44.8629 C 47.063,44.8629 45.113,0 45.113,0 z " id="path114"/>
    </g>
    <g transform="matrix(0.4811244,0,0,0.4811244,190.62153,781.14321)" style="fill:#d91521;fill-rule:evenodd;stroke:none;stroke-width:1;stroke-linecap:butt;stroke-linejoin:miter;stroke-dasharray:none" id="g116">
      <path d="M 0,11.906 C 11.682,21.709 22.034,32.227 35.225,41.414 C 37.763,43.181 38.289,44.446 41.421,43.392 C 51.019,40.164 66.529,37.768 78.871,37.698 C 91.604,37.625 104.764,39.87 117.286,43.392 C 120.924,44.415 122.393,42.816 125.167,40.707 C 137.09,31.638 147.915,21.181 159.34,11.483 C 153.333,11.5 148.155,11.367 142.389,10.196 C 124.264,6.516 105.771,0 79.235,0.298 C 52.698,0.597 29.868,7.745 15.233,10.47 C 9.177,11.598 4.008,12.576 0,11.906 z " id="path118"/>
    </g>
    <g transform="matrix(0.4811244,0,0,0.4811244,144.23825,593.04712)" style="fill:#d91521;fill-rule:evenodd;stroke:none;stroke-width:1;stroke-linecap:butt;stroke-linejoin:miter;stroke-dasharray:none" id="g120">
      <path d="M 31.734,76.253 C 58.627,65.739 84.596,52.897 110.081,39.363 C 116.215,36.105 122.323,32.799 128.413,29.459 C 128.413,29.459 133.736,5.158 133.736,5.158 C 133.736,5.158 128.638,0.605 128.638,0.605 C 122.165,3.935 115.735,7.301 109.348,10.64 C 88.422,21.58 67.442,32.861 45.989,42.721 C 41.219,44.913 35.471,47.502 29.395,49.929 C 19.513,53.873 9.786,57.222 0,58.678 C 0.18,80.008 1.21,100.691 2.839,121.956 C 3.094,125.271 3.363,128.581 3.64,131.893 C 5.444,135.245 7.407,138.491 9.561,141.518 C 13.736,138.38 18.174,135.845 22.555,134.31 C 22.555,134.31 26.208,133.03 26.208,133.03 C 26.208,133.03 24.954,136.691 24.954,136.691 C 21.996,145.331 21.526,160.255 23.512,169.166 C 25.046,176.051 26.419,183.962 25.733,191.016 C 25.666,191.715 25.583,192.41 25.485,193.107 C 29.601,190.63 33.907,188.692 38.138,187.55 C 31.108,153.731 29.17,118.741 26.581,84.448 C 26.581,84.448 26.128,78.445 26.128,78.445 C 26.128,78.445 31.734,76.253 31.734,76.253 z M 127.984,395.946 C 131.586,395.118 135.194,394.304 138.81,393.582 C 143.923,392.563 149.046,391.679 154.192,390.989 C 103.282,341.289 61.955,275.389 43.037,207.767 C 41.695,202.968 40.482,198.136 39.382,193.278 C 36.582,201.651 35.318,213.284 36.423,221.228 C 36.929,224.868 37.371,228.779 37.499,232.679 C 38.722,231.646 40.004,230.668 41.347,229.748 C 41.347,229.748 44.173,227.809 44.173,227.809 C 44.173,227.809 44.287,231.234 44.287,231.234 C 44.6,240.627 46.285,253.028 49.449,261.857 C 50.442,264.626 51.638,267.29 52.871,269.934 C 54.084,270.881 55.203,271.905 56.221,273.032 C 58.917,276.01 60.559,279.9 62.517,284.898 C 64.389,289.672 68.365,300.076 70.145,305.094 C 70.145,305.094 74.943,297.557 74.943,297.557 C 74.943,297.557 75.788,302.141 75.788,302.141 C 77.378,310.747 80.919,322.46 84.983,330.019 C 88.169,335.944 92.468,341.031 95.693,346.842 C 98.843,352.52 101.151,358.662 102.098,365.04 C 109.148,369.402 114.912,374.576 120.758,380.795 C 123.007,383.189 125.931,390.35 127.984,395.946 z M 159.003,431.673 C 164.566,436.451 170.19,441.166 175.884,445.756 C 181.749,441.235 187.513,436.585 193.193,431.834 C 187.244,430.967 181.246,430.494 175.288,430.527 C 170.32,430.556 164.675,430.944 159.003,431.673 z M 223.956,395.838 C 224.244,391.135 224.403,385.49 227.421,382.045 C 230.405,378.641 235.266,381.224 236.754,379.88 C 237.343,379.349 238.001,375.153 238.173,374.279 C 238.89,370.644 239.936,367.108 242.388,364.229 C 244.824,361.372 248.281,362.8 251.169,362.677 C 250.653,359.35 250.431,356.081 251.028,353.764 C 251.742,351 254.812,350.407 255.739,348.777 C 256.633,347.198 254.282,339.942 254.557,337.304 C 254.713,335.807 255.316,334.48 256.57,333.596 C 258.7,332.096 260.727,332.78 262.799,332.11 C 264.298,331.625 262.995,328.056 266.223,326.472 C 267.253,325.957 268.74,325.902 269.465,326.571 C 269.717,326.803 269.955,326.966 270.175,327.067 C 270.175,327.067 270.257,326.971 270.257,326.971 C 270.835,326.311 271.486,325.876 272.166,325.593 C 272.166,325.593 273.435,322.826 273.435,322.826 C 273.969,320.769 274.79,318.716 275.73,316.662 C 278.173,311.198 280.488,305.657 282.8,300.136 C 285.798,292.977 288.688,285.659 291.834,278.572 C 296.083,268.998 301.694,266.449 310.209,262.939 C 310.053,261.206 310.022,259.768 310.205,258.962 C 311.046,255.256 314.821,255.124 316.494,252.819 C 317.595,251.298 315.949,248.244 315.333,246.769 C 313.322,241.956 311.447,236.883 313.11,231.665 C 313.283,230.301 313.777,228.92 315.184,228.391 C 316.974,227.72 318.598,229.121 319.608,228.794 C 320.472,228.506 321.382,228.126 322.271,227.763 C 322.214,225.138 322.534,222.592 323.758,220.502 C 326.046,216.596 331.308,218.216 332.516,216.616 C 332.994,215.983 332.849,211.739 332.853,210.847 C 332.862,209.099 332.948,207.358 333.231,205.662 C 332.479,204.283 331.914,202.957 331.657,201.763 C 331.06,198.986 333.536,197.079 333.634,195.194 C 333.727,193.382 328.376,187.947 327.441,185.465 C 326.911,184.06 326.855,182.598 327.58,181.248 C 328.403,179.716 329.622,179.073 330.803,178.362 C 330.502,176.027 330.557,173.741 331.396,171.719 C 332.646,168.706 335.818,168.324 337.858,167.692 C 338.004,166.644 337.943,165.298 337.851,164.613 C 337.639,163.009 338.141,161.44 338.748,159.955 C 336.432,158.122 334.579,155.748 332.356,153.64 C 331.825,153.135 330.391,151.962 329.985,151.375 C 329.609,150.831 329.262,150.113 328.874,149.523 C 326.61,146.092 329.1,141.805 332.041,139.722 C 332.684,139.267 333.576,138.241 333.66,137.42 C 333.799,136.063 331.865,133.396 331.156,132.261 C 330.407,131.062 329.694,129.805 329.268,128.449 C 328.526,126.081 329.177,123.209 330.388,121.106 C 332.044,118.229 334.784,116.436 338.022,115.858 C 338.56,114.919 338.25,112.801 339.689,111.436 C 340.797,110.387 342.079,109.841 343.597,109.762 C 343.992,109.741 344.683,109.809 345.172,109.81 C 345.21,109.446 345.196,108.95 345.186,108.734 C 345.108,106.926 345.695,104.628 346.488,103.013 C 347.439,101.078 349.021,97.134 350.93,95.998 C 351.253,83.369 351.398,70.734 351.789,58.099 C 336.585,55.771 320.546,49.364 306.67,43.138 C 288.584,35.022 270.96,25.607 253.481,16.259 C 243.289,10.808 233.105,5.319 222.839,0 C 222.839,0 217.065,5.158 217.065,5.158 C 217.065,5.158 222.391,29.473 222.391,29.473 C 226.862,31.863 231.336,34.246 235.817,36.615 C 250.671,44.474 265.586,52.231 280.74,59.499 C 293.497,65.619 306.472,71.524 319.859,76.139 C 319.859,76.139 325.663,78.139 325.663,78.139 C 325.663,78.139 325.335,84.269 325.335,84.269 C 323.129,125.474 319.145,167.057 308.035,206.929 C 287.952,278.999 248.975,337.698 198.556,390.809 C 202.611,391.354 206.665,392.044 210.743,392.865 C 215.172,393.755 219.566,394.789 223.956,395.838 z " id="path122"/>
    </g>
    <g transform="matrix(0.4811244,0,0,0.4811244,161.88349,610.20209)" style="fill:#d91521;fill-rule:evenodd;stroke:none;stroke-width:1;stroke-linecap:butt;stroke-linejoin:miter;stroke-dasharray:none" id="g124">
      <path d="M 0,49.421 C 2.982,89.191 5.243,130.924 16.01,169.413 C 35.205,238.028 78.252,304.988 130.647,354.025 C 133.405,353.851 136.17,353.746 138.945,353.715 C 142.381,353.675 145.778,353.753 149.154,353.939 C 201.19,300.419 241.362,241.604 261.709,168.585 C 272.469,129.97 276.403,89.412 278.579,49.488 C 265.371,44.842 252.332,38.921 239.733,32.878 C 224.467,25.554 209.421,17.732 194.456,9.814 C 192.481,8.769 190.505,7.722 188.532,6.673 C 188.532,6.673 194.275,32.894 194.275,32.894 C 194.275,32.894 138.725,0 138.725,0 C 138.725,0 83.175,32.894 83.175,32.894 C 83.175,32.894 88.899,6.762 88.899,6.762 C 85.309,8.708 81.712,10.638 78.105,12.554 C 52.745,26.024 26.735,38.883 0,49.421 z " id="path126"/>
    </g>
    <g transform="matrix(0.4811244,0,0,0.4811244,161.88349,610.20209)" style="fill:#293484;fill-rule:evenodd;stroke:none;stroke-width:1;stroke-linecap:butt;stroke-linejoin:miter;stroke-dasharray:none" id="g128">
      <path d="M 0,49.421 C 2.982,89.191 5.243,130.924 16.01,169.413 C 24.657,200.323 38.146,230.896 55.148,259.647 C 55.148,259.647 55.148,24.444 55.148,24.444 C 37.103,33.517 18.731,42.038 0,49.421 z M 111.695,335.071 C 117.851,341.641 124.178,347.97 130.647,354.025 C 133.405,353.851 136.17,353.746 138.945,353.715 C 142.381,353.675 145.778,353.753 149.154,353.939 C 154.839,348.092 160.381,342.18 165.772,336.195 C 165.772,336.195 165.772,16.016 165.772,16.016 C 165.772,16.016 138.725,0 138.725,0 C 138.725,0 111.695,16.006 111.695,16.006 C 111.695,16.006 111.695,335.071 111.695,335.071 z M 222.319,260.356 C 239.059,232.15 252.441,201.842 261.709,168.585 C 272.469,129.97 276.403,89.412 278.579,49.488 C 265.371,44.842 252.332,38.921 239.733,32.878 C 233.899,30.079 228.096,27.209 222.319,24.287 C 222.319,24.287 222.319,260.356 222.319,260.356 z " id="path130"/>
    </g>
    <g transform="matrix(0.4811244,0,0,0.4811244,152.41159,599.30174)" style="fill:#f6ca00;fill-rule:evenodd;stroke:none;stroke-width:1;stroke-linecap:butt;stroke-linejoin:miter;stroke-dasharray:none" id="g132">
      <path d="M 114.508,2.382 C 114.508,2.382 62.716,29.054 62.716,29.054 C 54.477,33.235 46.208,37.361 37.826,41.247 C 26.168,46.651 13.801,51.938 1.407,55.374 C 1.407,55.374 0.501,55.624 0.501,55.624 C 0.501,55.624 0,53.814 0,53.814 C 0,53.814 0.905,53.563 0.905,53.563 C 13.197,50.157 25.473,44.902 37.036,39.541 C 45.397,35.665 53.645,31.551 61.86,27.381 C 61.86,27.381 115.029,0 115.029,0 C 115.029,0 114.508,2.382 114.508,2.382 z " id="path134"/>
    </g>
    <g transform="matrix(0.4811244,0,0,0.4811244,249.40051,598.84659)" style="fill:#f6ca00;fill-rule:evenodd;stroke:none;stroke-width:1;stroke-linecap:butt;stroke-linejoin:miter;stroke-dasharray:none" id="g136">
      <path d="M 0,0 C 0,0 55.005,28.326 55.005,28.326 C 63.222,32.497 71.469,36.611 79.832,40.487 C 91.393,45.848 103.67,51.103 115.963,54.509 C 115.963,54.509 116.867,54.76 116.867,54.76 C 116.867,54.76 116.366,56.57 116.366,56.57 C 116.366,56.57 115.461,56.32 115.461,56.32 C 103.066,52.884 90.699,47.597 79.042,42.193 C 70.66,38.307 62.389,34.181 54.149,29.999 C 54.149,29.999 0.521,2.382 0.521,2.382 C 0.521,2.382 0,0 0,0 z " id="path138"/>
    </g>
    <g transform="matrix(0.4811244,0,0,0.4811244,150.22777,627.25459)" style="fill:#f6ca00;fill-rule:evenodd;stroke:none;stroke-width:1;stroke-linecap:butt;stroke-linejoin:miter;stroke-dasharray:none" id="g140">
      <path d="M 1.884,0.94 C 2.004,22.387 3.91,43.663 5.886,64.98 C 5.284,65.273 4.684,65.582 4.086,65.906 C 2.08,44.283 0.127,22.705 0.005,0.949 C 0.005,0.949 0,0.01 0,0.01 C 0,0.01 1.879,0 1.879,0 C 1.879,0 1.884,0.94 1.884,0.94 z " id="path142"/>
    </g>
    <g transform="matrix(0.4811244,0,0,0.4811244,305.74066,627.25459)" style="fill:#f6ca00;fill-rule:evenodd;stroke:none;stroke-width:1;stroke-linecap:butt;stroke-linejoin:miter;stroke-dasharray:none" id="g144">
      <path d="M 4.136,0.949 C 4.054,15.638 3.138,30.243 1.933,44.838 C 1.264,44.982 0.618,45.178 0,45.426 C 1.231,30.632 2.174,15.827 2.258,0.94 C 2.258,0.94 2.263,0 2.263,0 C 2.263,0 4.141,0.01 4.141,0.01 C 4.141,0.01 4.136,0.949 4.136,0.949 z " id="path146"/>
    </g>
    <g transform="matrix(0.4811244,0,0,0.4811244,247.28548,701.02636)" style="fill:#f6ca00;fill-rule:evenodd;stroke:none;stroke-width:1;stroke-linecap:butt;stroke-linejoin:miter;stroke-dasharray:none" id="g148">
      <path d="M 104.062,1.497 C 104.062,1.497 103.218,3.95 103.218,3.95 C 102.611,3.789 101.948,3.689 101.257,3.877 C 101.257,3.877 102.284,0.889 102.284,0.889 C 102.284,0.889 102.589,0 102.589,0 C 102.589,0 104.365,0.608 104.365,0.608 C 104.365,0.608 104.062,1.497 104.062,1.497 z M 98.929,16.08 C 95.79,24.719 92.472,33.302 88.863,41.753 C 87.891,42.275 86.968,42.829 86.09,43.436 C 90.545,33.2 94.552,22.759 98.314,12.248 C 98.383,13.537 98.605,14.816 98.929,16.08 z M 60.579,94.475 C 58.93,97.119 57.251,99.747 55.54,102.353 C 55.458,102.288 55.372,102.219 55.285,102.14 C 54.918,101.801 54.357,101.648 53.756,101.647 C 58.115,95.025 62.263,88.267 66.23,81.403 C 64.701,85.026 63.153,88.646 61.55,92.231 C 61.207,92.979 60.881,93.726 60.579,94.475 z M 41.693,122.049 C 29.353,138.628 16.099,154.4 2.121,169.619 C 1.415,169.461 0.708,169.305 0,169.151 C 14.621,153.281 28.456,136.809 41.284,119.447 C 41.456,120.377 41.609,121.271 41.693,122.049 z " id="path150"/>
    </g>
    <g transform="matrix(0.4811244,0,0,0.4811244,162.2323,703.99298)" style="fill:#f6ca00;fill-rule:evenodd;stroke:none;stroke-width:1;stroke-linecap:butt;stroke-linejoin:miter;stroke-dasharray:none" id="g152">
      <path d="M 0,0 C 0,0 0.585,1.674 0.585,1.674 C 0.421,1.809 0.26,1.945 0.099,2.082 C 0.075,1.389 0.041,0.693 0,0 z M 30.811,69.216 C 31.634,70.69 32.464,72.158 33.303,73.622 C 33.303,73.622 32.745,74.497 32.745,74.497 C 32.244,73.083 31.566,71.239 30.811,69.216 z M 43.895,91.147 C 47.355,96.562 50.949,101.891 54.692,107.117 C 68.805,126.818 84.214,145.359 100.61,163.146 C 99.895,163.291 99.181,163.44 98.467,163.591 C 82.303,146.001 67.103,127.669 53.166,108.21 C 53.166,108.21 52.849,107.767 52.849,107.767 C 50.997,105.065 49.154,102.345 47.583,99.422 C 46.286,97.009 45.04,94.17 43.895,91.147 z " id="path154"/>
    </g>
    <g transform="matrix(0.4811244,0,0,0.4811244,147.52048,622.89656)" style="fill:#161413;fill-rule:evenodd;stroke:none;stroke-width:1;stroke-linecap:butt;stroke-linejoin:miter;stroke-dasharray:none" id="g156">
      <path d="M 7.714,0 C 11.973,0 15.429,3.455 15.429,7.714 C 15.429,11.974 11.973,15.429 7.714,15.429 C 3.454,15.429 0,11.974 0,7.714 C 0,3.455 3.454,0 7.714,0 z " id="path158"/>
    </g>
    <g transform="matrix(0.4811244,0,0,0.4811244,148.42403,623.80011)" style="fill:#f6ca00;fill-rule:evenodd;stroke:none;stroke-width:1;stroke-linecap:butt;stroke-linejoin:miter;stroke-dasharray:none" id="g160">
      <path d="M 5.836,0 C 9.058,0 11.672,2.614 11.672,5.836 C 11.672,9.059 9.058,11.672 5.836,11.672 C 2.613,11.672 0,9.059 0,5.836 C 0,2.614 2.613,0 5.836,0 z " id="path162"/>
    </g>
    <g transform="matrix(0.4811244,0,0,0.4811244,178.51115,609.22397)" style="fill:#161413;fill-rule:evenodd;stroke:none;stroke-width:1;stroke-linecap:butt;stroke-linejoin:miter;stroke-dasharray:none" id="g164">
      <path d="M 7.715,0 C 11.974,0 15.429,3.456 15.429,7.715 C 15.429,11.974 11.974,15.429 7.715,15.429 C 3.455,15.429 0,11.974 0,7.715 C 0,3.456 3.455,0 7.715,0 z " id="path166"/>
    </g>
    <g transform="matrix(0.4811244,0,0,0.4811244,179.41518,610.128)" style="fill:#f6ca00;fill-rule:evenodd;stroke:none;stroke-width:1;stroke-linecap:butt;stroke-linejoin:miter;stroke-dasharray:none" id="g168">
      <path d="M 5.836,0 C 9.057,0 11.671,2.614 11.671,5.836 C 11.671,9.058 9.057,11.672 5.836,11.672 C 2.613,11.672 0,9.058 0,5.836 C 0,2.614 2.613,0 5.836,0 z " id="path170"/>
    </g>
    <g transform="matrix(0.4811244,0,0,0.4811244,303.03001,622.89656)" style="fill:#161413;fill-rule:evenodd;stroke:none;stroke-width:1;stroke-linecap:butt;stroke-linejoin:miter;stroke-dasharray:none" id="g172">
      <path d="M 7.713,0 C 11.973,0 15.427,3.455 15.427,7.714 C 15.427,11.974 11.973,15.429 7.713,15.429 C 3.454,15.429 0,11.974 0,7.714 C 0,3.455 3.454,0 7.713,0 z " id="path174"/>
    </g>
    <g transform="matrix(0.4811244,0,0,0.4811244,303.93308,623.80011)" style="fill:#f6ca00;fill-rule:evenodd;stroke:none;stroke-width:1;stroke-linecap:butt;stroke-linejoin:miter;stroke-dasharray:none" id="g176">
      <path d="M 5.836,0 C 9.058,0 11.672,2.614 11.672,5.836 C 11.672,9.059 9.058,11.672 5.836,11.672 C 2.614,11.672 0,9.059 0,5.836 C 0,2.614 2.614,0 5.836,0 z " id="path178"/>
    </g>
    <g transform="matrix(0.4811244,0,0,0.4811244,271.9614,609.22397)" style="fill:#161413;fill-rule:evenodd;stroke:none;stroke-width:1;stroke-linecap:butt;stroke-linejoin:miter;stroke-dasharray:none" id="g180">
      <path d="M 7.714,0 C 11.974,0 15.429,3.456 15.429,7.715 C 15.429,11.974 11.974,15.429 7.714,15.429 C 3.455,15.429 0,11.974 0,7.715 C 0,3.456 3.455,0 7.714,0 z " id="path182"/>
    </g>
    <g transform="matrix(0.4811244,0,0,0.4811244,272.86495,610.128)" style="fill:#f6ca00;fill-rule:evenodd;stroke:none;stroke-width:1;stroke-linecap:butt;stroke-linejoin:miter;stroke-dasharray:none" id="g184">
      <path d="M 5.836,0 C 9.059,0 11.672,2.614 11.672,5.836 C 11.672,9.058 9.059,11.672 5.836,11.672 C 2.615,11.672 0,9.058 0,5.836 C 0,2.614 2.615,0 5.836,0 z " id="path186"/>
    </g>
    <g transform="matrix(0.4811244,0,0,0.4811244,142.99743,626.74748)" style="fill:#161413;fill-rule:evenodd;stroke:none;stroke-width:1;stroke-linecap:butt;stroke-linejoin:miter;stroke-dasharray:none" id="g188">
      <path d="M 68.897,13.573 C 68.897,13.573 103.069,5.793 103.069,5.793 C 103.069,5.793 106.281,16.09 106.281,16.09 C 106.281,16.09 122.63,2.641 122.63,2.641 C 122.63,2.641 158.928,0 158.928,0 C 158.928,0 182.848,18.134 182.848,18.134 C 182.848,18.134 181.013,106.407 181.013,106.407 C 181.013,106.407 182.599,130.619 182.599,130.619 C 182.599,130.619 162.37,151.294 162.37,151.294 C 162.37,151.294 120.388,153.188 120.388,153.188 C 120.388,153.188 111.179,145.316 111.179,145.316 C 111.179,145.316 109.591,171.237 109.591,171.237 C 109.591,171.237 68.898,175.303 68.898,175.303 C 68.898,175.303 57.557,160.872 57.557,160.872 C 57.557,160.872 37.56,164.838 37.56,164.838 C 37.56,164.838 0,146.267 0,146.267 C 0,146.267 37.177,20.97 37.177,20.97 C 37.177,20.97 68.897,13.573 68.897,13.573 z " id="path190"/>
    </g>
    <g transform="matrix(0.4811244,0,0,0.4811244,145.55028,628.60366)" style="fill:#f6ca00;fill-rule:evenodd;stroke:none;stroke-width:1;stroke-linecap:butt;stroke-linejoin:miter;stroke-dasharray:none" id="g192">
      <path d="M 36.24,102.934 C 36.24,102.934 46.527,101.386 46.527,101.386 C 46.527,101.386 66.729,12.853 66.729,12.853 C 66.729,12.853 94.201,6.599 94.201,6.599 C 94.201,6.599 78.961,96.973 78.961,96.973 C 78.961,96.973 84.07,96.644 84.07,96.644 C 84.07,96.644 96.024,21.289 96.024,21.289 C 96.024,21.289 118.288,2.613 118.288,2.613 C 118.288,2.613 152.464,0 152.464,0 C 152.464,0 172.552,15.587 172.552,15.587 C 172.552,15.587 172.522,45.473 172.522,45.473 C 172.522,45.473 140.112,45.649 140.112,45.649 C 140.112,45.649 140.462,25.199 140.462,25.199 C 140.462,25.199 127.043,25.828 127.043,25.828 C 127.043,25.828 119.57,93.894 119.57,93.894 C 119.57,93.894 138.73,93.085 138.73,93.085 C 138.73,93.085 140.49,62.446 140.49,62.446 C 140.49,62.446 172.776,61.383 172.776,61.383 C 172.776,61.383 171.986,100.699 171.986,100.699 C 171.986,100.699 147.734,119.836 147.734,119.836 C 147.734,119.836 103.324,122.784 103.324,122.784 C 103.324,122.784 87.388,109.356 87.388,109.356 C 87.388,109.356 82.484,146.455 82.484,146.455 C 82.484,146.455 50.13,149.026 50.13,149.026 C 50.13,149.026 53.071,128.606 53.071,128.606 C 53.071,128.606 0,137.689 0,137.689 C 0,137.689 34.659,19.996 34.659,19.996 C 34.659,19.996 58.379,14.771 58.379,14.771 C 58.379,14.771 36.24,102.934 36.24,102.934 z " id="path194"/>
    </g>
    <g transform="matrix(0.4811244,0,0,0.4811244,147.46515,630.16394)" style="fill:#ffffff;fill-rule:evenodd;stroke:none;stroke-width:1;stroke-linecap:butt;stroke-linejoin:miter;stroke-dasharray:none" id="g196">
      <path d="M 32.903,19.179 C 32.903,19.179 0,130.906 0,130.906 C 0,130.906 52.433,121.933 52.433,121.933 C 52.433,121.933 49.442,142.694 49.442,142.694 C 49.442,142.694 76.01,140.583 76.01,140.583 C 76.01,140.583 81.289,100.643 81.289,100.643 C 81.289,100.643 100.291,116.654 100.291,116.654 C 100.291,116.654 142.695,113.839 142.695,113.839 C 142.695,113.839 165.216,96.068 165.216,96.068 C 165.216,96.068 165.921,61.055 165.921,61.055 C 165.921,61.055 139.175,61.934 139.175,61.934 C 139.175,61.934 137.417,92.549 137.417,92.549 C 137.417,92.549 112.431,93.604 112.431,93.604 C 112.431,93.604 120.525,19.882 120.525,19.882 C 120.525,19.882 139.528,19.002 139.528,19.002 C 139.528,19.002 139.175,39.06 139.175,39.06 C 139.175,39.06 165.568,39.06 165.568,39.06 C 165.568,39.06 165.744,14.076 165.744,14.076 C 165.744,14.076 147.445,0 147.445,0 C 147.445,0 115.071,2.463 115.071,2.463 C 115.071,2.463 94.661,19.53 94.661,19.53 C 94.661,19.53 82.52,96.068 82.52,96.068 C 82.52,96.068 71.611,96.772 71.611,96.772 C 71.611,96.772 86.743,7.038 86.743,7.038 C 86.743,7.038 65.101,11.965 65.101,11.965 C 65.101,11.965 44.867,100.643 44.867,100.643 C 44.867,100.643 28.504,103.106 28.504,103.106 C 28.504,103.106 50.321,15.659 50.321,15.659 C 50.321,15.659 32.903,19.179 32.903,19.179 z " id="path198"/>
    </g>
    <g transform="matrix(0.4811244,0,0,0.4811244,227.72778,626.5329)" style="fill:#161413;fill-rule:evenodd;stroke:none;stroke-width:1;stroke-linecap:butt;stroke-linejoin:miter;stroke-dasharray:none" id="g200">
      <path d="M 43.037,26.514 C 43.037,26.514 53.073,2.073 53.073,2.073 C 53.073,2.073 90.539,8.764 90.539,8.764 C 90.539,8.764 86.245,21.084 86.245,21.084 C 86.245,21.084 98.537,10.841 98.537,10.841 C 98.537,10.841 143.642,23.463 143.642,23.463 C 143.642,23.463 182.981,147.637 182.981,147.637 C 182.981,147.637 151.05,165.923 151.05,165.923 C 151.05,165.923 102.412,158.264 102.412,158.264 C 102.412,158.264 54.935,153.152 54.935,153.152 C 54.935,153.152 47.694,140.507 47.694,140.507 C 47.694,140.507 46.22,152.744 46.22,152.744 C 46.22,152.744 0,151.401 0,151.401 C 0,151.401 1.753,0 1.753,0 C 1.753,0 41.344,1.563 41.344,1.563 C 41.344,1.563 43.037,26.514 43.037,26.514 z " id="path202"/>
    </g>
    <g transform="matrix(0.4811244,0,0,0.4811244,230.40475,628.4141)" style="fill:#f6ca00;fill-rule:evenodd;stroke:none;stroke-width:1;stroke-linecap:butt;stroke-linejoin:miter;stroke-dasharray:none" id="g204">
      <path d="M 34.819,38.963 C 34.819,38.963 49.832,2.395 49.832,2.395 C 49.832,2.395 79.978,7.779 79.978,7.779 C 79.978,7.779 63.143,56.085 63.143,56.085 C 63.143,56.085 93.662,105.713 93.662,105.713 C 93.662,105.713 78.794,23.637 78.794,23.637 C 78.794,23.637 93.862,11.081 93.862,11.081 C 93.862,11.081 135.111,22.623 135.111,22.623 C 135.111,22.623 171.877,138.68 171.877,138.68 C 171.877,138.68 142.713,132.35 142.713,132.35 C 142.713,132.35 136.969,109.2 136.969,109.2 C 136.969,109.2 126.491,108.288 126.491,108.288 C 126.491,108.288 130.759,130.878 130.759,130.878 C 130.759,130.878 99.827,126.258 99.827,126.258 C 99.827,126.258 66.076,123.323 66.076,123.323 C 66.076,123.323 37.561,73.866 37.561,73.866 C 37.561,73.866 40.524,121.414 40.524,121.414 C 40.524,121.414 1.661,120.587 1.661,120.587 C 1.661,120.587 0,0 0,0 C 0,0 32.26,1.274 32.26,1.274 C 32.26,1.274 34.819,38.963 34.819,38.963 z M 108.604,36.008 C 108.604,36.008 119.164,79.935 119.164,79.935 C 119.164,79.935 130.682,81.531 130.682,81.531 C 130.682,81.531 117.785,38.647 117.785,38.647 C 117.785,38.647 108.604,36.008 108.604,36.008 z " id="path206"/>
    </g>
    <g transform="matrix(0.4811244,0,0,0.4811244,231.78029,629.82523)" style="fill:#ffffff;fill-rule:evenodd;stroke:none;stroke-width:1;stroke-linecap:butt;stroke-linejoin:miter;stroke-dasharray:none" id="g208">
      <path d="M 0,0 C 0,0 1.583,114.895 1.583,114.895 C 1.583,114.895 34.662,115.598 34.662,115.598 C 34.662,115.598 31.142,59.119 31.142,59.119 C 31.142,59.119 64.925,117.71 64.925,117.71 C 64.925,117.71 97.3,120.525 97.3,120.525 C 97.3,120.525 124.395,124.572 124.395,124.572 C 124.395,124.572 120.173,102.226 120.173,102.226 C 120.173,102.226 136.36,103.635 136.36,103.635 C 136.36,103.635 142.167,127.035 142.167,127.035 C 142.167,127.035 164.864,131.962 164.864,131.962 C 164.864,131.962 130.026,21.994 130.026,21.994 C 130.026,21.994 91.669,11.261 91.669,11.261 C 91.669,11.261 79.001,21.818 79.001,21.818 C 79.001,21.818 96.244,117.007 96.244,117.007 C 96.244,117.007 57.183,53.488 57.183,53.488 C 57.183,53.488 73.37,7.038 73.37,7.038 C 73.37,7.038 48.737,2.639 48.737,2.639 C 48.737,2.639 30.262,49.442 30.262,49.442 C 30.262,49.442 26.744,1.056 26.744,1.056 C 26.744,1.056 0,0 0,0 z M 101.874,29.032 C 101.874,29.032 114.014,79.529 114.014,79.529 C 114.014,79.529 131.786,81.992 131.786,81.992 C 131.786,81.992 117.181,33.431 117.181,33.431 C 117.181,33.431 101.874,29.032 101.874,29.032 z " id="path210"/>
    </g>
    <g transform="matrix(0.4811244,0,0,0.4811244,197.86294,702.4019)" style="fill:#ffffff;fill-rule:evenodd;stroke:none;stroke-width:1;stroke-linecap:butt;stroke-linejoin:miter;stroke-dasharray:none" id="g212">
      <path d="M 64.513,0 C 100.137,0 129.027,28.89 129.027,64.514 C 129.027,100.137 100.137,129.028 64.513,129.028 C 28.889,129.028 0,100.137 0,64.514 C 0,28.89 28.889,0 64.513,0 z " id="path214"/>
    </g>
    <g transform="matrix(0.4811244,0,0,0.4811244,197.41068,701.95012)" style="fill:#161413;fill-rule:evenodd;stroke:none;stroke-width:1;stroke-linecap:butt;stroke-linejoin:miter;stroke-dasharray:none" id="g216">
      <path d="M 65.453,0 C 101.596,0 130.906,29.311 130.906,65.453 C 130.906,101.596 101.596,130.906 65.453,130.906 C 29.311,130.906 0,101.596 0,65.453 C 0,29.311 29.311,0 65.453,0 z M 110.828,51.467 C 110.828,51.467 87.356,59.775 87.356,59.775 C 86.426,68.032 83.912,76.04 79.505,83.747 C 79.505,83.747 93.956,103.637 93.956,103.637 C 100.038,103.427 106.401,101.283 112.52,96.897 C 118.159,88.474 121.601,78.454 122.015,67.659 C 119.716,60.735 115.865,55.186 110.828,51.467 z M 86.867,58.288 C 86.867,58.288 110.262,50.006 110.262,50.006 C 112.047,44.122 112.193,37.655 109.903,30.414 C 103.501,22.303 94.93,15.984 85.061,12.34 C 77.783,12.381 71.327,14.313 66.236,17.931 C 66.236,17.931 66.236,43.425 66.236,43.425 C 73.9,46.834 80.826,51.692 86.867,58.288 z M 92.526,104.331 C 92.526,104.331 78.099,84.474 78.099,84.474 C 70.176,86.061 62.016,86.144 53.573,84.441 C 53.573,84.441 38.995,105.081 38.995,105.081 C 41.124,110.709 44.858,115.837 50.9,120.161 C 55.545,121.395 60.42,122.058 65.453,122.058 C 70.778,122.058 75.93,121.318 80.816,119.942 C 86.75,115.587 90.604,110.376 92.526,104.331 z M 37.955,103.841 C 37.955,103.841 52.244,83.61 52.244,83.61 C 48.101,76.343 45.403,68.337 44.437,59.449 C 44.437,59.449 20.181,51.567 20.181,51.567 C 15.251,55.282 11.31,60.44 8.897,67.673 C 9.326,78.765 12.95,89.038 18.871,97.6 C 24.997,101.855 31.562,103.989 37.955,103.841 z M 20.501,50.026 C 20.501,50.026 45.184,58.046 45.184,58.046 C 50.574,52.207 57.006,47.41 64.67,43.846 C 64.67,43.846 64.67,18.105 64.67,18.105 C 59.605,14.556 53.466,12.4 45.822,12.349 C 35.956,15.998 27.389,22.317 20.988,30.431 C 18.791,37.352 18.638,44.078 20.501,50.026 z M 110.769,28.991 C 114.195,29.888 117.368,31.229 120.206,33.133 C 111.46,18.35 96.9,7.415 79.675,3.477 C 82.277,5.809 84.703,8.444 86.366,11.161 C 96.001,14.876 104.397,21.083 110.769,28.991 z M 128.783,59.842 C 127.366,63.038 125.61,66.158 123.538,68.579 C 122.978,79.142 119.595,88.957 114.135,97.289 C 114.339,100.813 114.046,104.231 113.119,107.507 C 123.016,96.299 129.028,81.578 129.028,65.453 C 129.028,63.563 128.944,61.689 128.783,59.842 z M 90.374,123.952 C 86.897,123.595 83.383,122.888 80.441,121.667 C 75.657,122.94 70.636,123.622 65.453,123.622 C 60.468,123.622 55.632,122.991 51.016,121.812 C 47.736,123.145 44.397,123.969 40.986,124.143 C 48.519,127.287 56.782,129.027 65.453,129.027 C 74.299,129.027 82.722,127.219 90.374,123.952 z M 18.12,107.882 C 17.34,104.48 16.879,100.936 17.086,97.764 C 11.394,89.261 7.88,79.176 7.355,68.307 C 5.113,65.57 3.339,62.628 2.164,59.425 C 1.978,61.409 1.878,63.42 1.878,65.453 C 1.878,81.759 8.025,96.629 18.12,107.882 z M 10.922,32.767 C 13.948,31.013 17.208,29.518 20.307,28.78 C 26.714,20.903 35.139,14.735 44.794,11.063 C 46.705,8.088 48.96,5.492 51.646,3.387 C 34.384,7.212 19.762,18.055 10.922,32.767 z " id="path218"/>
    </g>
    <g transform="matrix(0.4811244,0,0,0.4811244,225.07534,785.24287)" style="fill:#f6ca00;fill-rule:nonzero;stroke:none;stroke-width:1;stroke-linecap:butt;stroke-linejoin:miter;stroke-dasharray:none" id="g220">
      <path d="M 9.777,22.482 C 9.777,22.482 9.777,18.651 9.777,18.651 C 9.777,18.651 12.711,18.644 12.711,18.644 C 14.496,18.639 16.056,17.863 16.056,15.336 C 16.056,15.336 16.056,6.943 16.056,6.943 C 16.056,4.78 14.069,3.766 12.226,3.766 C 12.226,3.766 9.747,3.766 9.747,3.766 C 9.747,3.766 9.747,0 9.747,0 C 9.747,0 6.313,0 6.313,0 C 6.313,0 6.313,3.766 6.313,3.766 C 6.313,3.766 3.784,3.766 3.784,3.766 C 1.997,3.766 0,4.77 0,6.943 C 0,9.917 0,12.445 0,15.419 C 0,17.883 1.694,18.651 3.503,18.651 C 3.503,18.651 6.313,18.651 6.313,18.651 C 6.313,18.651 6.313,22.482 6.313,22.482 C 6.313,22.482 9.777,22.482 9.777,22.482 z M 9.777,16.65 C 9.777,16.65 9.777,5.784 9.777,5.784 C 9.777,5.784 11.021,5.778 11.021,5.778 C 11.925,5.775 12.593,5.865 12.593,7.37 C 12.593,7.37 12.593,15.442 12.593,15.442 C 12.593,16.38 11.975,16.635 11.368,16.639 C 11.368,16.639 9.777,16.65 9.777,16.65 z M 6.313,5.784 C 6.313,5.784 6.313,16.65 6.313,16.65 C 6.313,16.65 4.842,16.651 4.842,16.651 C 4.047,16.651 3.464,16.208 3.464,15.442 C 3.464,15.442 3.464,7.204 3.464,7.204 C 3.464,6.12 4.006,5.785 4.845,5.785 C 4.845,5.785 6.313,5.784 6.313,5.784 z " id="path222"/>
    </g>
    <g transform="matrix(0.4811244,0,0,0.4811244,151.92181,720.58937)" style="fill:#f6ca00;fill-rule:evenodd;stroke:none;stroke-width:1;stroke-linecap:butt;stroke-linejoin:miter;stroke-dasharray:none" id="g224">
      <path d="M 0,2.559 C 1.212,2.303 2.492,1.98 3.242,0 C 3.242,0 5.503,0.324 5.503,0.324 C 5.503,0.324 11.141,22.775 11.141,22.775 C 11.141,22.775 7.554,22.293 7.554,22.293 C 7.554,22.293 3.257,4.61 3.257,4.61 C 3.257,4.61 0.496,4.638 0.496,4.638 C 0.496,4.638 0,2.559 0,2.559 z " id="path226"/>
    </g>
    <g transform="matrix(0.4811244,0,0,0.4811244,300.50796,720.38537)" style="fill:#f6ca00;fill-rule:evenodd;stroke:none;stroke-width:1;stroke-linecap:butt;stroke-linejoin:miter;stroke-dasharray:none" id="g228">
      <path d="M 2.898,4.184 C 4.382,3.714 6.036,2.999 7.794,0.427 C 7.794,0.427 10.022,0 10.022,0 C 10.022,0 3.374,22.247 3.374,22.247 C 3.374,22.247 0,22.935 0,22.935 C 0,22.935 4.884,5.825 4.884,5.825 C 4.884,5.825 2.204,6.45 2.204,6.45 C 2.204,6.45 2.898,4.184 2.898,4.184 z " id="path230"/>
    </g>
    <g transform="matrix(0.4811244,0,0,0.4811244,293.13905,723.12826)" style="fill:#f6ca00;fill-rule:evenodd;stroke:none;stroke-width:1;stroke-linecap:butt;stroke-linejoin:miter;stroke-dasharray:none" id="g232">
      <path d="M 2.992,4.182 C 4.478,3.713 6.137,2.999 7.907,0.425 C 7.907,0.425 10.137,0 10.137,0 C 10.137,0 3.377,22.247 3.377,22.247 C 3.377,22.247 0,22.933 0,22.933 C 0,22.933 4.97,5.824 4.97,5.824 C 4.97,5.824 2.287,6.449 2.287,6.449 C 2.287,6.449 2.992,4.182 2.992,4.182 z " id="path234"/>
    </g>
    <g transform="matrix(0.4811244,0,0,0.4811244,159.66214,723.11864)" style="fill:#f6ca00;fill-rule:evenodd;stroke:none;stroke-width:1;stroke-linecap:butt;stroke-linejoin:miter;stroke-dasharray:none" id="g236">
      <path d="M 9.75,5.776 C 9.75,5.776 13.326,19.551 13.326,19.551 C 14.105,22.548 12.492,23.611 10.599,23.399 C 10.599,23.399 9.147,23.236 9.147,23.236 C 6.346,22.923 4.576,20.166 4.251,18.845 C 4.251,18.845 3.778,16.923 3.778,16.923 C 3.778,16.923 7.222,17.636 7.222,17.636 C 7.222,17.636 7.691,19.522 7.691,19.522 C 7.839,20.121 8.495,20.9 9.364,21.055 C 10.021,21.171 10.564,20.946 10.284,19.83 C 10.284,19.83 9.033,14.838 9.033,14.838 C 8.506,15.009 7.786,14.974 6.993,14.872 C 4.084,14.499 2.883,13.052 2.22,10.235 C 2.22,10.235 0.689,3.747 0.689,3.747 C 0,0.825 1.544,0 3.673,0.184 C 3.673,0.184 4.614,0.266 4.614,0.266 C 7.582,0.523 9.008,2.916 9.75,5.776 z M 8.204,11.899 C 8.204,11.899 6.091,4.121 6.091,4.121 C 5.9,3.41 5.524,2.698 4.526,2.542 C 3.404,2.366 3.658,3.364 3.815,3.969 C 3.815,3.969 5.748,11.466 5.748,11.466 C 5.967,12.313 6.593,12.722 7.147,12.817 C 7.606,12.898 8.564,13.223 8.204,11.899 z " id="path238"/>
    </g>
    <g transform="matrix(0.4811244,0,0,0.4811244,214.67102,786.04827)" style="fill:#f6ca00;fill-rule:evenodd;stroke:none;stroke-width:1;stroke-linecap:butt;stroke-linejoin:miter;stroke-dasharray:none" id="g240">
      <path d="M 10.933,0 C 10.933,0 14.467,21.841 14.467,21.841 C 14.467,21.841 10.986,22.155 10.986,22.155 C 10.986,22.155 7.82,2.599 7.82,2.599 C 7.82,2.599 3.855,2.946 3.855,2.946 C 3.855,2.946 7.031,22.536 7.031,22.536 C 7.031,22.536 3.55,22.851 3.55,22.851 C 3.55,22.851 0,0.964 0,0.964 C 0,0.964 10.933,0 10.933,0 z " id="path242"/>
    </g>
    <g transform="matrix(0.4811244,0,0,0.4811244,236.37503,785.7418)" style="fill:#f6ca00;fill-rule:evenodd;stroke:none;stroke-width:1;stroke-linecap:butt;stroke-linejoin:miter;stroke-dasharray:none" id="g244">
      <path d="M 6.572,0.388 C 6.572,0.388 3.083,0 3.083,0 C 3.083,0 0,22.213 0,22.213 C 0,22.213 3.49,22.602 3.49,22.602 C 3.49,22.602 5.095,11.031 5.095,11.031 C 5.095,11.031 7.733,23.008 7.733,23.008 C 7.733,23.008 11.222,23.398 11.222,23.398 C 11.222,23.398 8.472,11.189 8.472,11.189 C 8.472,11.189 14.437,1.448 14.437,1.448 C 14.437,1.448 10.948,1.06 10.948,1.06 C 10.948,1.06 5.129,10.782 5.129,10.782 C 5.129,10.782 6.572,0.388 6.572,0.388 z " id="path246"/>
    </g>
  </g>
</svg>