<?xml version="1.0" standalone="no"?>
<!DOCTYPE svg PUBLIC "-//W3C//DTD SVG 20010904//EN"
 "http://www.w3.org/TR/2001/REC-SVG-20010904/DTD/svg10.dtd">
<svg width="360" height="70" xmlns="http://www.w3.org/2000/svg">
<g transform="matrix(1.3333333,0,0,-1.3333333,0,961.25333)" id="g10">
<g transform="scale(0.05) translate(0 11250)" id="g12">
<path id="path16" style="fill:#faba09;fill-opacity:1;fill-rule:nonzero;stroke:none" d="m 3196.6,2503.84 c 4,20.58 0.21,38.04 -11.31,52.37 -11.55,14.31 -27.61,21.48 -48.2,21.48 h -251.57 l 44.89,214.88 h 248.45 c 20.58,0 39.43,7.15 56.55,21.48 17.09,14.31 27.66,31.77 31.67,52.38 4,20.58 0.21,38.04 -11.31,52.37 -11.55,14.32 -27.61,21.49 -48.2,21.49 h -369.31 l -99.19,-510.31 h 369.31 c 20.58,0 39.43,7.15 56.55,21.48 17.09,14.31 27.66,31.77 31.67,52.38 z m 214.87,0 c -15.49,-79.7 -56.92,-147.73 -124.29,-204.14 -67.37,-56.4 -140.9,-84.6 -220.57,-84.6 h -584.18 l 182.73,940.06 h 584.18 c 79.67,0 142.24,-28.2 187.68,-84.6 45.44,-56.41 60.41,-124.46 44.93,-204.13 -11.14,-57.31 -48.87,-117.74 -113.13,-181.3 39.55,-63.58 53.78,-124.01 42.65,-181.29" />
<path id="path18" style="fill:#faba09;fill-opacity:1;fill-rule:nonzero;stroke:none" d="m 4214.8,2215.1 h -805.76 l 182.73,940.06 h 805.76 l -41.76,-214.87 h -590.89 l -28.72,-147.72 h 456.6 l -41.77,-214.88 h -456.6 l -28.71,-147.71 h 590.89 L 4214.8,2215.1" />
<path id="path20" style="fill:#faba09;fill-opacity:1;fill-rule:nonzero;stroke:none" d="M 5282.39,2940.29 H 4953.38 L 4812.41,2215.1 h -214.87 l 140.96,725.19 h -329.01 l 41.76,214.87 h 872.91 l -41.77,-214.87" />
<path id="path22" style="fill:#131212;fill-opacity:1;fill-rule:nonzero;stroke:none" d="M 1007.2,2215.19 H 792.332 L 875.086,2640.9 570.727,2215.19 H 436.453 L 297.609,2640.86 214.867,2215.19 H 0 l 182.73,940.05 H 397.828 L 574.07,2577.72 974.828,3155.24 H 1189.93 L 1007.2,2215.19" />
<path id="path24" style="fill:#131212;fill-opacity:1;fill-rule:nonzero;stroke:none" d="m 1866.67,2215.19 h -805.76 l 182.73,940.05 h 805.76 l -41.77,-214.86 h -590.89 l -28.71,-147.73 h 456.6 l -41.77,-214.87 h -456.6 l -28.71,-147.72 h 590.89 l -41.77,-214.87" />
<path id="path26" style="fill:#131212;fill-opacity:1;fill-rule:nonzero;stroke:none" d="m 2606.74,2215.19 h -686.35 l 182.73,940.05 h 214.87 l -140.97,-725.18 h 471.49 l -41.77,-214.87" />
</g>
</g>
</svg>